<svg width="1000" height="1000" viewBox="0 0 1000 1000" fill="none" xmlns="http://www.w3.org/2000/svg">
<g clip-path="url(#clip0_346_494)">
<rect width="1000" height="1000" rx="9" fill="#FFEED8"/>
<path d="M785.832 551.565C745.991 645.392 712.826 741.851 669.628 834.086C666.785 839.018 666.306 837.479 663.683 843.655C660.932 850.135 659.879 857.046 657.263 863.205C647.816 885.454 655.534 908.816 641.647 930.008C638.387 934.984 630.658 947.518 625.446 949.209C616.628 952.071 619.918 954.968 617.469 946.09C614.671 935.946 614.395 921.667 613.534 910.81C612.585 898.851 609.086 890.069 606.713 878.634C603.311 862.245 600.502 845.616 599.093 828.402C597.283 806.3 591.812 785.403 592.71 762.706C594.843 708.778 610.144 653.991 623.438 601.737C631.882 568.548 645.157 535.603 657.565 503.893C670.377 471.15 683.266 438.691 696.99 406.371C712.973 368.732 729.154 330.66 748.793 295.204C764.159 267.463 775.937 236.978 791.13 209.037C803.27 186.711 814.369 165.386 824.383 141.803C833.405 120.555 834.173 92.0049 848.683 73.4998C854.563 66.0013 861.064 70.0155 867.997 70.1041C870.875 70.1408 868.249 87.9285 868.498 91.0736C870.132 111.671 870.346 131.825 879.371 149.642C882.081 154.991 884.352 166.022 885.627 172.32C888.203 185.044 889.429 198.757 887.65 212.104C885.443 228.666 882.539 244.858 880.711 261.425C876.174 302.556 859.333 340.984 848.25 380.204C832.037 437.579 809.013 496.974 785.832 551.565Z" fill="#FFEED8" stroke="#0038FF" stroke-width="6.08401" stroke-linecap="round"/>
<path d="M700.267 590.41C701.876 616.009 708.227 638.756 714.555 659.161C718.399 655.492 717.69 614.824 717.681 606.44C717.65 576.018 720.383 544.313 720.475 513.895C720.48 512.175 720.172 476.585 714.987 490.073C708.316 507.424 705.737 531.236 703.047 550.218C701.084 564.069 699.455 577.505 700.267 590.41Z" fill="#FFEED8"/>
<path d="M717.403 668.241C710.251 645.556 702.119 619.872 700.267 590.41C699.455 577.505 701.084 564.069 703.047 550.218C705.737 531.236 708.316 507.424 714.987 490.073C720.172 476.585 720.48 512.175 720.475 513.895C720.383 544.313 717.65 576.018 717.681 606.44C717.69 614.832 718.401 655.574 714.544 659.172" stroke="#0038FF" stroke-width="6.084" stroke-linecap="round"/>
<path d="M673.571 702.824C671.282 675.922 661.241 650.547 651.206 627.595C644.904 630.233 645.535 672.419 645.441 681.074C645.1 712.482 640.245 744.388 639.703 775.755C639.673 777.529 639.716 814.354 648.327 801.982C659.405 786.067 663.908 762.262 668.53 743.475C671.903 729.766 674.726 716.386 673.571 702.824Z" fill="#FFEED8"/>
<path d="M646.689 617.373C658.034 642.923 670.936 671.862 673.571 702.824C674.726 716.386 671.903 729.766 668.53 743.475C663.908 762.262 659.405 786.067 648.327 801.982C639.716 814.354 639.673 777.529 639.703 775.755C640.245 744.388 645.1 712.482 645.441 681.074C645.535 672.41 644.903 630.148 651.225 627.588" stroke="#0038FF" stroke-width="6.084" stroke-linecap="round"/>
<path d="M747.559 480.942C748.039 486.856 750.569 513.928 752.273 508.519C758.68 488.179 765.206 459.877 771.609 439.55C776.893 422.775 783.701 404.406 784.17 387.033C784.458 376.387 781.43 361.374 771.966 360.493C764.584 359.805 758.618 375.208 755.905 382.419C750.286 397.355 747.002 411.685 746.285 427.284C745.445 445.529 746.124 463.257 747.559 480.942Z" fill="#FFEED8" stroke="#0038FF" stroke-width="6.084" stroke-linecap="round"/>
<path d="M811.664 311.406C811.363 316.575 809.823 346.948 811.732 338.146C813.746 305.999 833.421 274.508 834.16 242.092C834.337 234.321 831.64 224.208 824.265 224.857C815.641 225.616 810.59 252.554 810.455 259.645C810.121 277.165 812.696 293.689 811.664 311.406Z" fill="#FFEED8" stroke="#0038FF" stroke-width="6.084" stroke-linecap="round"/>
<path d="M294.632 579.407C295.9 581.617 297.773 583.686 298.156 586.244C298.526 594.736 324.054 594.567 330.414 596.927C342.953 601.58 363.778 595.726 376.593 593.969C400.409 590.704 424.953 589.924 448.887 587.615C469.008 585.674 489.378 583.865 509.476 582.281L509.749 582.26C528.073 580.816 550.909 579.017 567.663 571.154C580.538 565.111 583.693 554.195 585.437 541.979C588.02 523.881 584.863 504.133 584.072 485.965L582.571 451.513C582.075 440.134 583.727 426.222 578.928 415.479C575.364 407.502 571.865 400.327 566.816 393.067C562.366 386.668 552.845 381.252 546.447 376.768C537.601 370.571 525.336 368.277 515.748 363.104C509.049 359.491 502.575 356.838 494.71 356.156C469.593 353.977 444.583 355.219 419.42 355.431C398.019 355.611 377.216 356.602 355.832 358.929C340.66 360.58 326.274 362.727 313.509 371.041C300.542 379.486 292.962 394.963 286.163 407.915C273.229 432.553 264.983 459.384 266.186 486.997C266.938 504.26 267.344 521.345 274.151 537.625C280.075 551.793 286.955 566.027 294.632 579.407Z" fill="#0038FF" stroke="#FFEED8" stroke-width="2" stroke-linecap="round"/>
<path d="M382.903 366.027C377.936 366.744 373.81 369.612 369.925 372.569C360.93 379.414 351.533 385.85 344.213 394.604C340.199 399.404 324.853 423.559 332.622 429.652C336.511 432.702 352.042 424.428 355.217 423.056C366.834 418.037 376.533 412.031 383.874 401.694C392.368 389.734 396.587 378.041 408.969 368.827C412.547 366.165 419.59 359.136 417.682 368.083C413.456 387.896 407.147 404.536 395.947 421.209C388.225 432.706 401.973 437.531 410.78 432.15C429.946 420.442 430.112 404.5 435.665 386.102C438.965 375.169 445.765 369.236 453.547 361.638C457.096 358.173 456.297 364.525 456.394 366.761C456.677 373.254 458.001 380.468 455.953 386.748C454.43 391.419 445.743 415.257 451.474 419.446C462.62 427.593 480.83 403.606 481.121 394.033C481.448 383.257 479.708 372.683 478.493 362.155C477.234 351.238 470 351.739 461.004 352.131C436.532 353.197 412.023 359.512 387.912 360.562" stroke="#FFEED8" stroke-width="2.3607" stroke-linecap="round"/>
<path d="M137.888 508.603C122.869 508.117 -7.61064 492.807 -23.6041 487.941L-18.8039 577.898C-12.7217 579.008 133.394 583.174 158.363 587.924C187.723 593.509 216.57 601.143 245.814 607.183C275.709 613.357 306.071 617.559 336.26 622.013C365.628 626.346 395.972 632.721 426.096 630.981L426.098 630.981C430.484 630.728 450.582 629.567 449.936 617.898C449.428 608.706 437.855 608.816 430.368 607.481C422.882 606.147 370.891 592.406 372.7 589.744C375.232 586.019 428.3 592.002 437.375 589.842C446.451 587.682 461.029 580.631 464.805 567.903C467.994 557.157 446.075 560.076 440.324 560.146C434.573 560.215 377.798 559.63 375.349 558.636C370.923 556.839 423.231 544.002 424.403 543.456C431.047 540.355 442.299 539.63 445.69 530.045C448.326 522.597 443.82 515.107 439.418 513.392C432.995 510.89 427.536 515.051 419.396 517.378C411.257 519.705 377.264 523.542 375.656 520.436C374.584 518.365 423.405 500.106 424.547 499.233C436.76 489.896 426.371 478.536 417.645 474.844C406.902 470.297 394.565 473.954 383.386 477.079C368.923 481.121 354.422 485.136 340.008 489.627C325.8 494.055 311.713 500.047 297.317 502.657C289.202 504.129 276.012 506.75 268.704 501.368C265.681 499.141 279.37 492.89 280.161 492.479C284.545 490.197 290.551 487.648 292.817 481.501C297.32 469.288 291.6 445.893 282.611 445.141C278.497 444.796 265.428 452.231 261.721 454.237C252.012 459.49 242.67 466.506 232.797 471.089C204.468 484.237 166.819 509.539 137.888 508.603Z" fill="#FFEED8" stroke="#0033E6" stroke-width="6.1827" stroke-linecap="round"/>
<path d="M665.728 107.021C663.277 104.395 658.207 97.3296 654.526 96.7916C646.921 90.8308 628.635 87.0622 623.463 84.7834C615.113 81.1043 607.781 72.9062 598.96 70.0535C592.002 67.8032 585.481 64.9294 578.001 64.2426C567.454 63.2741 556.972 64.1274 546.486 63.9635C544.595 63.9339 532.552 64.2116 532.31 66.8979C531.991 70.4384 532.888 73.9023 535.01 76.8338C536.183 78.4542 538.648 82.2838 539.849 84.1493C537.602 81.2284 532.593 79.7338 530.05 77.2808C526.44 73.7994 518.298 72.4958 513.794 71.5846C507.586 70.3284 501.251 69.5718 495.081 68.2285C487.127 66.497 441.04 62.0341 443.849 77.1118C444.771 82.0629 443.611 79.7693 439.863 78.2581C435.912 76.6651 431.472 76.3075 427.639 74.2226C417.463 68.6881 406.156 63.4009 394.267 62.9907C382.776 62.5942 371.548 63.5134 360.203 63.5271C350.623 63.5387 342.522 67.6506 334.407 72.4797C318.456 81.9735 301.247 90.9454 300.536 111.538C300.219 120.739 301.607 130.114 301.287 139.38C301.167 142.874 301.233 146.255 300.268 149.615C299.923 150.819 299.09 157.996 298.008 154.483C297.482 152.773 296.748 151.784 295.774 150.316C291.589 144.008 284.559 152.9 284.381 158.054C283.844 173.606 282.723 189.818 283.789 205.535C284.872 221.502 285.045 238.043 284.492 254.06C284.246 261.191 283.147 264.33 279.664 269.965C278.853 271.276 277.533 270.981 279.65 271.724C282.742 272.809 286.404 272.988 289.251 274.623C294.307 277.527 300.465 279.051 305.794 281.613C310.396 283.826 317.166 284.724 322.259 285.4L322.4 285.419C332.096 286.706 341.985 286.658 351.708 287.667C357.929 288.312 366.443 290.56 372.679 289.008C383.803 286.241 397.803 289.783 409.584 288.808C435.805 286.636 462.589 286.885 488.55 282.308C506.439 279.153 523.882 273.914 541.529 269.633C556.078 266.104 571.021 264.899 585.907 263.699C599.672 262.59 613.427 261.479 627.2 260.369C636.85 259.592 646.608 260.477 656.203 259.04C663.298 257.978 669.593 257.298 674.834 252.408C678.899 248.614 681.084 241.391 681.388 236.087C681.624 231.961 682.16 227.346 681.162 223.336C680.342 220.037 678.683 215.272 678.799 211.89C679.013 205.684 681.717 201.746 681.939 195.309C682.194 187.916 681.589 180.653 681.845 173.242C682.036 167.685 683.08 162.236 683.268 156.792C683.46 151.214 689.587 147.304 689.781 141.658C690.101 132.397 687.943 127.278 681.528 120.404C676.807 115.346 670.448 112.078 665.728 107.021Z" fill="#0038FF" stroke="#FFEED8" stroke-width="2.49837" stroke-linecap="round"/>
<path d="M669.322 202.979C659.79 197.559 648.956 192.526 643.702 182.389C640.633 176.467 638.966 170.34 636.956 164.054C635.356 159.054 633.444 154.498 629.863 150.57C625.867 146.187 621.543 142.255 617.805 137.618C614.554 133.584 611.163 129.665 607.85 125.681C604.042 121.101 600.872 115.975 596.686 111.753C595.583 110.642 594.425 109.639 593.053 108.892C587.707 105.985 582.006 103.617 576.512 100.995C572.792 99.2195 568.928 97.7647 565.162 96.0958C562.852 95.0723 560.719 93.6343 558.54 92.3664C556.68 91.2845 556.332 90.0114 555.356 88.3363C555.097 87.8916 554.217 85.6921 554.802 85.2564C555.281 84.8998 556.108 84.8605 556.697 84.7139C559.453 84.0283 562.337 84.0579 565.156 84.0938C570.096 84.1568 575.04 84.4041 579.962 84.8458C584.877 85.2868 589.497 86.7643 594.069 88.54C598.197 90.1431 602.04 92.8891 605.448 95.6725C608.077 97.8197 610.727 99.9518 612.936 102.545C615.137 105.129 617.588 108.181 618.22 111.616C619.244 117.175 620.14 122.88 621.806 128.291C623.425 133.547 625.88 138.518 627.551 143.761C628.286 146.068 630.443 148.658 630.36 151.07" stroke="#FFEED8" stroke-width="2.2533" stroke-linecap="round"/>
<path d="M589.929 169.107C582.648 162.923 574.004 158.437 566.077 153.169C560.059 149.169 554.446 145.074 549.299 139.99C545.275 136.015 541.944 131.496 538.348 127.149C531.877 119.327 524.185 113.094 515.635 107.676C508.059 102.876 499.93 99.2376 491.823 95.4504C486.203 92.8252 480.959 89.5323 475.336 86.9048C473.068 85.8448 470.683 84.8532 468.567 83.5056C467.709 82.9596 466.58 82.1759 466.407 81.0727C466.011 78.5456 468.117 77.8033 470.225 77.0536C477.773 74.3688 486.259 75.0118 494.102 75.5714C500.711 76.0431 507.167 77.4605 513.345 79.8621C520.41 82.6081 527.075 86.8645 533.18 91.322C540.497 96.6648 547.946 102.796 553.629 109.889C556.634 113.638 558.819 117.648 560.608 122.1C562.396 126.549 564.261 130.912 565.691 135.493C567.23 140.423 568.59 145.172 571.165 149.686C573.617 153.983 576.069 158.637 579.993 161.783C581.722 163.168 583.821 164.312 585.805 165.285C586.825 165.785 587.816 166.411 588.876 166.806" stroke="#FFEED8" stroke-width="2.2533" stroke-linecap="round"/>
<path d="M588.112 178.103C593.768 178.298 597.741 184.721 599.301 189.506C601.347 195.779 599.477 201.51 595.875 206.777C594.317 209.056 592.332 211.969 589.594 212.933C585.452 214.393 579.939 212.823 575.872 212.062C569.064 210.788 562.103 208.277 556.745 203.771C551.629 199.469 547.818 193.951 544.942 187.976C539.927 177.558 534.978 167.022 527.633 157.998C521.473 150.429 514.126 143.754 506.762 137.383C498.986 130.655 490.669 124.795 482.11 119.122C477.129 115.821 472.026 112.856 466.852 109.885C465.357 109.026 463.708 108.211 462.661 106.805C461.392 105.102 459.818 103.504 460.023 101.232C460.322 97.9215 463.167 96.3522 466.241 96.9185C471.408 97.8703 476.658 99.8001 481.572 101.598C484.616 102.712 487.547 104.073 490.474 105.459C493.707 106.989 497.027 108.478 500.007 110.473C504.924 113.764 509.438 117.686 513.337 122.128C516.369 125.583 519.094 129.291 522.045 132.816C528.651 140.706 537.072 147.278 545.606 152.958C553.52 158.225 561.818 163.088 570.172 167.631C576.105 170.858 582.009 174.059 588.269 176.599C589.675 177.17 591.133 177.64 592.601 178.027C592.78 178.075 593.602 178.209 593.722 178.339C593.781 178.402 592.449 179.007 592.232 179" stroke="#FFEED8" stroke-width="2.2533" stroke-linecap="round"/>
<path d="M530.023 254.023C526.86 252.302 524.216 250.167 521.908 247.391C519.586 244.596 517.632 241.463 515.699 238.393C513.543 234.967 511.367 231.533 509.413 227.987C507.143 223.869 504.983 219.647 503.141 215.318C501.21 210.782 499.933 206.078 498.592 201.346C496.166 192.785 492.172 184.774 489.117 176.429C487.054 170.796 484.508 165.417 481.756 160.095C479.531 155.794 478.366 151.083 476.178 146.779C474.323 143.132 472.017 139.635 468.841 137.03C464.003 133.06 458.206 130.994 452.451 128.718C445.521 125.977 438.411 123.572 431.727 120.246C426.42 117.605 421.252 114.738 415.917 112.143C409.491 109.018 402.827 106.483 395.767 105.253C391.578 104.523 387.045 103.85 383 105.567C379.218 107.172 376.89 111.032 375.431 114.698C373.779 118.852 373.316 122.784 373.856 127.232C374.474 132.32 375.93 137.116 378.168 141.721C379.47 144.4 380.878 147.119 382.948 149.296C386.205 152.721 390.873 154.292 395.263 155.706C403.356 158.313 411.903 158.922 420.04 161.257C425.899 162.939 430.535 166.842 435.475 170.196C438.809 172.46 442.212 174.588 445.384 177.079C448.512 179.535 451.48 182.179 454.577 184.671C460.682 189.581 467.248 193.857 474.243 197.382C484.34 202.472 493.345 208.784 499.318 218.583C500.976 221.303 502.635 224.044 504.792 226.402C506.681 228.467 508.608 230.417 510.57 232.409C512.587 234.456 514.217 236.939 515.997 239.189C517.709 241.354 519.4 243.553 521.15 245.688C522.543 247.388 523.845 249.299 525.503 250.754C526.083 251.262 526.791 252.056 527.537 252.25C528.212 252.424 529.845 253.407 528.379 252.457" stroke="#FFEED8" stroke-width="2.2533" stroke-linecap="round"/>
<path d="M466.907 233.215C466.028 232.884 465.291 232.359 464.525 231.869C461.193 229.741 457.801 227.676 454.423 225.596C440.929 217.291 426.957 209.42 413.99 200.575C409.138 197.265 404.145 194.052 399.434 190.619C394.136 186.758 389.194 182.615 384.05 178.637C379.703 175.276 375.18 172.052 370.724 168.775C366.253 165.488 361.947 162.045 357.331 158.877C351.353 154.774 343.931 150.287 336.669 148.152C332.498 146.925 328.42 146.971 326.027 149.21C324.943 150.224 324.954 151.966 325.102 153.384C325.455 156.766 327.167 160.855 329.408 164.133C335.893 173.615 346.93 181.18 358.564 187.074C364.258 189.959 370.245 192.314 376.086 194.936C381.202 197.231 386.201 199.72 391.282 202.077C402.943 207.484 414.926 212.02 426.797 216.981C435.964 220.812 444.912 224.921 454.215 228.429C458.756 230.142 463.409 232.098 467.863 233.777" stroke="#FFEED8" stroke-width="2.2533" stroke-linecap="round"/>
<path d="M457.092 259.601C456.545 259.582 456.043 259.333 455.53 259.128C453.301 258.235 451.051 257.421 448.805 256.59C439.835 253.269 430.674 250.516 421.904 246.511C418.623 245.012 415.279 243.651 412.055 241.989C408.429 240.119 404.953 237.866 401.393 235.835C398.384 234.119 395.301 232.591 392.246 230.991C389.181 229.386 386.181 227.579 383.056 226.135C379.009 224.265 374.089 222.515 369.667 222.927C367.127 223.164 364.859 224.568 363.913 227.477C363.484 228.794 363.792 230.432 364.121 231.719C364.905 234.787 366.57 238.069 368.389 240.409C373.653 247.178 381.124 250.622 388.638 252.292C392.315 253.109 396.064 253.33 399.778 253.85C403.03 254.306 406.252 254.982 409.495 255.506C416.94 256.709 424.413 256.982 431.896 257.694C437.676 258.244 443.381 259.128 449.181 259.328C452.012 259.426 454.947 259.716 457.724 259.812" stroke="#FFEED8" stroke-width="2.2533" stroke-linecap="round"/>
<path d="M230.637 166.995C215.633 167.825 12.0346 161.428 -4.32324 157.98L-4.32422 267.5C1.83178 268.074 232.685 241.674 257.975 244.221C287.71 247.215 317.115 252.297 346.775 255.755C377.096 259.289 407.708 260.819 438.171 262.615C467.806 264.362 498.591 268.057 528.448 263.688L528.45 263.688C532.797 263.052 552.716 260.137 551.052 248.57C549.741 239.457 538.222 240.579 530.648 239.905C523.073 239.23 470.079 230.091 471.648 227.281C473.845 223.349 527.233 224.665 536.085 221.72C544.936 218.774 558.842 210.475 561.49 197.465C563.726 186.481 542.147 191.307 536.424 191.879C530.701 192.452 474.092 196.836 471.566 196.06C467 194.658 517.983 177.294 519.103 176.646C525.451 172.977 536.596 171.269 539.136 161.424C541.109 153.775 535.965 146.708 531.431 145.384C524.814 143.454 519.739 148.077 511.834 151.107C503.93 154.137 470.403 160.933 468.529 157.98C467.281 156.011 514.316 133.551 515.378 132.581C526.727 122.211 515.384 111.804 506.368 108.889C495.269 105.3 483.299 110.022 472.436 114.113C458.382 119.405 444.289 124.673 430.323 130.408C416.556 136.062 403.048 143.264 388.935 147.124C380.98 149.3 368.07 153.065 360.32 148.343C357.112 146.389 370.203 138.964 370.954 138.485C375.122 135.828 380.882 132.764 382.601 126.443C386.018 113.882 378.274 91.0775 369.254 91.1142C365.125 91.131 352.757 99.6811 349.239 102.004C340.027 108.086 331.335 115.892 321.9 121.321C294.831 136.898 259.539 165.397 230.637 166.995Z" fill="#FFEED8" stroke="#0033E6" stroke-width="6.1827" stroke-linecap="round"/>
<path d="M960.772 518.137C975.787 517.541 1106.15 501.273 1122.11 496.29L1117.97 586.28C1111.89 587.435 965.814 592.674 940.88 597.607C911.562 603.407 882.772 611.253 853.573 617.508C823.724 623.901 793.394 628.326 763.239 633.002C733.903 637.551 703.607 644.148 673.471 642.63L673.469 642.63C669.081 642.409 648.975 641.395 649.535 629.722C649.976 620.526 661.549 620.552 669.026 619.162C676.502 617.772 728.391 603.65 726.563 601.002C724.003 597.295 670.98 603.668 661.889 601.575C652.799 599.482 638.169 592.538 634.299 579.838C631.032 569.116 652.971 571.874 658.723 571.901C664.474 571.928 721.243 570.926 723.685 569.914C728.097 568.084 675.697 555.632 674.521 555.094C667.854 552.043 656.597 551.4 653.135 541.84C650.445 534.412 654.896 526.889 659.285 525.142C665.689 522.592 671.18 526.714 679.336 528.98C687.492 531.247 721.512 534.834 723.097 531.717C724.154 529.639 675.2 511.739 674.052 510.874C661.771 501.627 672.075 490.191 680.774 486.435C691.484 481.809 703.847 485.376 715.049 488.418C729.541 492.354 744.071 496.262 758.517 500.647C772.759 504.97 786.888 510.859 801.303 513.364C809.429 514.776 822.638 517.3 829.906 511.864C832.913 509.615 819.178 503.464 818.385 503.059C813.983 500.809 807.959 498.305 805.648 492.175C801.056 479.995 806.603 456.559 815.586 455.74C819.698 455.365 832.821 462.704 836.543 464.683C846.29 469.865 855.683 476.811 865.59 481.321C894.015 494.262 931.849 519.286 960.772 518.137Z" fill="#0033E6" stroke="#0033E6" stroke-width="6.1827" stroke-linecap="round"/>
<path d="M305.616 745.858C309.575 735.642 317.395 727.291 325.299 719.914C330.226 715.316 337.801 708.12 343.441 705.448C347.286 703.222 351.582 701.004 356.104 700.326C364.185 699.114 372.519 699.567 380.673 699.567L381.176 699.567C387.926 699.566 394.324 699.565 400.972 701.061C419.841 705.307 437.972 713.412 447.192 731.392C451.43 739.655 454.911 748.281 456.583 757.478C458.628 768.725 461.147 780.242 460.306 791.769C459.478 803.129 456.62 812.83 451.437 822.93C448.769 828.129 445.372 832.843 442.568 837.965C439.221 844.077 436.777 850.703 432.37 856.178C426.319 863.696 419.516 866.466 410.221 867.751C403.729 868.648 396.989 868.177 390.443 868.177C381.794 868.177 372.845 867.858 364.642 864.976C359.686 863.235 354.834 860.342 350.105 858.051C341.146 853.712 331.987 849.508 323.402 844.463C311.455 837.441 297.313 826.13 294.992 811.429C293.644 802.89 294.077 793.537 295.49 785.058C297.706 771.764 300.74 758.44 305.616 745.858Z" fill="#FFEED8" stroke="#0033E6" stroke-width="5.5104" stroke-linecap="round"/>
<path d="M343.869 707.115C344.262 711.438 345.917 716.856 347.672 720.805C350.154 726.389 349.003 719.224 349.003 720.805" stroke="#0033E6" stroke-width="5.5104" stroke-linecap="round"/>
<path d="M422.581 712.249C418.13 712.806 409.926 729.361 410.603 729.361" stroke="#0033E6" stroke-width="5.5104" stroke-linecap="round"/>
<path d="M456.811 758.451C450.417 758.451 444.292 760.162 437.988 760.162" stroke="#0033E6" stroke-width="5.5104" stroke-linecap="round"/>
<path d="M448.25 821.764C441.448 821.764 434.75 820.053 427.716 820.053" stroke="#0033E6" stroke-width="5.5104" stroke-linecap="round"/>
<path d="M340.445 850.854C340.445 846.284 341.975 842.662 343.867 838.876" stroke="#0033E6" stroke-width="5.5104" stroke-linecap="round"/>
<path d="M422.421 906.955C412.398 911.38 400.963 911.755 390.158 911.382C383.423 911.15 372.977 910.882 367.101 908.783C362.807 907.638 358.201 906.169 354.524 903.451C347.953 898.594 342.381 892.38 336.615 886.615L336.259 886.259C331.485 881.486 326.961 876.963 323.317 871.204C312.977 854.86 305.889 836.308 312.082 817.075C314.929 808.235 318.567 799.674 323.888 791.989C330.394 782.59 336.757 772.665 345.502 765.109C354.121 757.662 363.001 752.823 373.808 749.346C379.371 747.556 385.106 746.625 390.711 744.986C397.399 743.031 403.812 740.074 410.8 739.318C420.395 738.281 427.164 741.133 434.645 746.797C439.87 750.753 444.303 755.852 448.932 760.481C455.048 766.596 461.15 773.15 464.913 780.989C467.186 785.724 468.571 791.2 470.295 796.164C473.562 805.568 477.066 815.016 479.568 824.654C483.051 838.068 485.053 856.065 476.299 868.102C471.214 875.093 464.295 881.4 457.3 886.397C446.333 894.23 434.766 901.506 422.421 906.955Z" fill="#FFEED8" stroke="#0033E6" stroke-width="5.5104" stroke-linecap="round"/>
<path d="M367.977 907.301C370.755 903.967 373.416 898.966 374.968 894.933C377.161 889.229 372.909 895.11 374.027 893.992" stroke="#0033E6" stroke-width="5.5104" stroke-linecap="round"/>
<path d="M315.949 848.014C319.49 850.768 336.997 844.862 336.519 844.384" stroke="#0033E6" stroke-width="5.5104" stroke-linecap="round"/>
<path d="M324.415 791.14C328.935 795.661 334.477 798.782 338.934 803.24" stroke="#0033E6" stroke-width="5.5104" stroke-linecap="round"/>
<path d="M375.237 752.424C380.047 757.234 383.573 763.18 388.547 768.154" stroke="#0033E6" stroke-width="5.5104" stroke-linecap="round"/>
<path d="M472.037 808.084C468.805 811.315 465.162 812.795 461.147 814.134" stroke="#0033E6" stroke-width="5.5104" stroke-linecap="round"/>
<path d="M140.857 817.966C125.86 817.01 -4.07571 797.625 -19.909 792.261L-17.9265 882.324C-11.882 883.624 134.032 892.361 158.84 897.889C188.011 904.39 216.605 912.924 245.645 919.876C275.333 926.982 305.548 932.132 335.583 937.529C364.801 942.779 394.93 950.1 425.094 949.304L425.096 949.304C429.488 949.188 449.612 948.657 449.332 936.974C449.112 927.77 437.541 927.518 430.1 925.95C422.659 924.381 371.123 909.02 373.015 906.416C375.662 902.772 428.517 910.413 437.656 908.538C446.794 906.663 461.586 900.072 465.759 887.468C469.282 876.828 447.283 879.059 441.532 878.949C435.782 878.838 379.053 876.477 376.636 875.406C372.269 873.472 424.952 862.278 426.141 861.768C432.879 858.878 444.148 858.505 447.838 849.03C450.705 841.669 446.436 834.041 442.09 832.19C435.749 829.488 430.161 833.476 421.953 835.547C413.745 837.618 379.649 840.389 378.139 837.234C377.132 835.132 426.5 818.409 427.669 817.572C440.168 808.622 430.14 796.943 421.534 792.979C410.938 788.099 398.493 791.368 387.222 794.141C372.639 797.728 358.02 801.287 343.473 805.325C329.132 809.306 314.865 814.854 300.395 817.013C292.237 818.23 278.971 820.437 271.836 814.829C268.883 812.508 282.762 806.689 283.565 806.302C288.019 804.159 294.101 801.799 296.558 795.727C301.441 783.66 296.457 760.098 287.496 759.064C283.395 758.591 270.099 765.614 266.331 767.503C256.462 772.45 246.906 779.169 236.894 783.441C208.167 795.696 169.744 819.807 140.857 817.966Z" fill="#0033E6" stroke="#0033E6" stroke-width="6.1827" stroke-linecap="round"/>
<path d="M786.401 945.768C786.95 945.409 788.597 944.125 789.277 944.578" stroke="#0033E6" stroke-width="1.06162" stroke-linecap="round"/>
<path d="M775.11 875.291C769.451 875.291 764.379 873.983 759.895 871.367C755.464 868.698 751.994 865.148 749.485 860.717C747.03 856.233 745.802 851.322 745.802 845.983C745.802 840.698 747.03 835.84 749.485 831.409C751.941 826.978 755.384 823.455 759.815 820.839C764.246 818.17 769.291 816.835 774.95 816.835C778.74 816.835 782.13 817.316 785.119 818.277C788.162 819.184 790.725 820.412 792.807 821.96C794.034 822.868 794.942 823.882 795.529 825.003C796.116 826.071 796.41 827.165 796.41 828.286C796.41 829.888 795.823 831.276 794.648 832.45C793.527 833.625 792.086 834.212 790.324 834.212C788.616 834.212 786.881 833.598 785.119 832.37C783.891 831.516 782.423 830.822 780.715 830.288C779.007 829.701 777.165 829.407 775.19 829.407C772.093 829.407 769.344 830.128 766.942 831.569C764.54 833.011 762.671 835.013 761.337 837.575C760.055 840.137 759.415 843.02 759.415 846.223C759.415 849.373 760.029 852.202 761.256 854.711C762.484 857.167 764.273 859.116 766.622 860.557C768.97 861.998 771.72 862.719 774.869 862.719C778.233 862.719 781.115 861.918 783.518 860.317C785.92 858.662 787.655 856.393 788.723 853.51H773.828C771.96 853.51 770.492 852.923 769.424 851.749C768.41 850.574 767.903 849.159 767.903 847.505C767.903 845.903 768.41 844.515 769.424 843.341C770.492 842.113 771.96 841.499 773.828 841.499H796.09C798.278 841.499 799.933 842.113 801.054 843.341C802.229 844.568 802.816 846.383 802.816 848.786C802.816 849.266 802.763 850.094 802.656 851.268C802.176 854.952 800.841 858.635 798.652 862.319C796.463 866.002 793.367 869.098 789.363 871.608C785.413 874.063 780.662 875.291 775.11 875.291ZM826.544 850.387H826.464C825.824 850.307 825.343 849.747 825.423 849.106L826.945 835.813C827.025 835.173 827.666 834.692 828.306 834.772C828.947 834.852 829.347 835.493 829.267 836.134L827.746 849.346C827.666 849.987 827.185 850.387 826.544 850.387ZM835.593 808.667C835.433 808.667 835.273 808.667 835.273 808.667C825.503 809.388 810.769 828.126 806.525 845.182C804.603 853.19 804.123 864 813.332 869.686C816.054 871.287 818.697 872.168 821.259 872.168C825.984 872.168 830.468 869.526 834.712 864.241C844.321 852.309 849.206 830.769 846.884 820.198C844.562 809.468 837.675 808.667 835.593 808.667ZM849.767 826.124C849.767 838.056 844.882 855.352 836.554 865.762C831.91 871.447 826.625 874.49 821.259 874.49C818.216 874.49 815.174 873.529 812.131 871.688C804.043 866.643 801.24 857.034 804.283 844.622C808.767 826.444 824.302 807.146 835.033 806.345C835.033 806.345 835.273 806.345 835.593 806.345C837.355 806.345 846.403 806.986 849.126 819.718C849.526 821.56 849.767 823.722 849.767 826.124ZM868.694 850.387H868.614C867.973 850.307 867.493 849.747 867.573 849.106L869.094 835.813C869.175 835.173 869.815 834.692 870.456 834.772C871.096 834.852 871.497 835.493 871.417 836.134L869.895 849.346C869.815 849.987 869.335 850.387 868.694 850.387ZM877.743 808.667C877.583 808.667 877.422 808.667 877.422 808.667C867.653 809.388 852.919 828.126 848.675 845.182C846.753 853.19 846.273 864 855.481 869.686C858.204 871.287 860.847 872.168 863.409 872.168C868.134 872.168 872.618 869.526 876.862 864.241C886.471 852.309 891.356 830.769 889.033 820.198C886.711 809.468 879.825 808.667 877.743 808.667ZM891.916 826.124C891.916 838.056 887.032 855.352 878.704 865.762C874.059 871.447 868.774 874.49 863.409 874.49C860.366 874.49 857.323 873.529 854.28 871.688C846.193 866.643 843.39 857.034 846.433 844.622C850.917 826.444 866.452 807.146 877.182 806.345C877.182 806.345 877.422 806.345 877.743 806.345C879.504 806.345 888.553 806.986 891.276 819.718C891.676 821.56 891.916 823.722 891.916 826.124ZM901.715 874.49C899.419 874.49 897.658 873.876 896.43 872.649C895.202 871.421 894.588 869.659 894.588 867.363V824.763C894.588 822.414 895.202 820.652 896.43 819.478C897.658 818.25 899.419 817.636 901.715 817.636H914.848C920.88 817.636 926.112 818.891 930.542 821.4C935.027 823.855 938.443 827.245 940.792 831.569C943.141 835.893 944.316 840.725 944.316 846.063C944.316 851.402 943.141 856.233 940.792 860.557C938.443 864.881 935.027 868.298 930.542 870.807C926.112 873.262 920.88 874.49 914.848 874.49H901.715ZM914.848 862.159C919.705 862.159 923.549 860.851 926.379 858.235C929.261 855.566 930.703 851.508 930.703 846.063C930.703 840.618 929.261 836.587 926.379 833.972C923.549 831.302 919.705 829.968 914.848 829.968H908.201V862.159H914.848Z" fill="#0033E6"/>
<path d="M837.489 878.395C837.62 879.558 839.45 882.263 840.302 882.893C842.14 884.248 842.761 883.49 844.651 883.49C847.475 883.49 848.775 880.024 849.767 877.829" stroke="#0033E6" stroke-width="1.60153" stroke-linecap="round"/>
<path d="M879.241 797.094C880.108 798.058 880.67 798.795 881.854 799.517C882.997 800.214 884.556 800.699 885.909 800.699" stroke="#0033E6" stroke-width="1.60153" stroke-linecap="round"/>
<path d="M835.078 796.373C834.494 796.373 833.911 796.822 833.416 797.094C832.443 797.628 831.413 798.113 830.372 798.496C829.48 798.824 828.459 799.076 827.509 799.076" stroke="#0033E6" stroke-width="1.60153" stroke-linecap="round"/>
<path d="M771.496 892.289C774.964 892.289 777.981 893.122 780.548 894.788C783.115 896.454 785.052 898.706 786.358 901.543C787.709 904.381 788.385 907.488 788.385 910.866C788.385 914.378 787.686 917.531 786.29 920.323C784.894 923.07 782.868 925.254 780.211 926.876C777.599 928.452 774.491 929.24 770.888 929.24C768.862 929.24 766.858 928.835 764.876 928.024C762.895 927.168 761.274 925.93 760.013 924.309C759.832 925.795 759.202 926.966 758.121 927.821C757.085 928.632 755.869 929.037 754.473 929.037C752.987 929.037 751.681 928.542 750.555 927.551C749.429 926.56 748.866 925.187 748.866 923.43V882.899C748.866 881.143 749.429 879.769 750.555 878.778C751.681 877.787 752.987 877.292 754.473 877.292C756.004 877.292 757.31 877.787 758.391 878.778C759.517 879.769 760.08 881.143 760.08 882.899V898.166C760.846 896.319 762.242 894.878 764.268 893.842C766.34 892.807 768.749 892.289 771.496 892.289ZM768.524 919.107C771.046 919.107 773.095 918.341 774.671 916.81C776.248 915.234 777.036 913.207 777.036 910.73C777.036 908.254 776.248 906.25 774.671 904.718C773.095 903.142 771.046 902.354 768.524 902.354C766.092 902.354 764.088 903.142 762.512 904.718C760.936 906.25 760.148 908.254 760.148 910.73C760.148 913.207 760.936 915.234 762.512 916.81C764.088 918.341 766.092 919.107 768.524 919.107ZM810.417 892.897C810.687 892.852 811.07 892.829 811.566 892.829C813.052 892.829 814.223 893.257 815.078 894.113C815.934 894.968 816.362 896.004 816.362 897.22C816.362 898.571 815.844 899.787 814.808 900.868C813.817 901.949 812.331 902.579 810.35 902.759C806.567 903.12 804.675 905.146 804.675 908.839V923.43C804.675 925.187 804.112 926.56 802.986 927.551C801.906 928.542 800.6 929.037 799.068 929.037C797.582 929.037 796.276 928.542 795.15 927.551C794.024 926.56 793.461 925.187 793.461 923.43V898.031C793.461 896.274 794.024 894.901 795.15 893.91C796.276 892.919 797.582 892.424 799.068 892.424C800.419 892.424 801.613 892.807 802.649 893.572C803.684 894.338 804.315 895.419 804.54 896.815C805.981 894.608 807.94 893.302 810.417 892.897ZM854.378 908.164C854.423 908.389 854.445 908.749 854.445 909.244C854.445 910.821 853.928 912.037 852.892 912.892C851.901 913.703 850.55 914.108 848.839 914.108H829.046C829.271 915.774 830.104 917.17 831.545 918.296C833.031 919.377 834.81 919.918 836.882 919.918C839.494 919.918 841.588 919.062 843.164 917.351C844.29 916.18 845.506 915.594 846.812 915.594C848.118 915.594 849.244 916.067 850.19 917.013C851.18 917.959 851.676 919.062 851.676 920.323C851.676 921.494 851.18 922.597 850.19 923.633C848.433 925.389 846.407 926.763 844.11 927.754C841.858 928.699 839.426 929.172 836.814 929.172C833.121 929.172 829.834 928.407 826.952 926.876C824.069 925.344 821.818 923.205 820.196 920.458C818.575 917.666 817.765 914.468 817.765 910.866C817.765 907.308 818.553 904.11 820.129 901.273C821.705 898.436 823.889 896.229 826.681 894.653C829.474 893.032 832.649 892.221 836.206 892.221C841.025 892.221 845.056 893.572 848.298 896.274C851.586 898.976 853.612 902.939 854.378 908.164ZM836.206 901.206C834.18 901.206 832.491 901.701 831.14 902.692C829.789 903.683 829.068 905.034 828.978 906.745H843.502C843.322 905.079 842.556 903.75 841.205 902.759C839.854 901.724 838.188 901.206 836.206 901.206ZM891.127 892.491C892.658 892.491 893.987 892.987 895.112 893.978C896.238 894.923 896.801 896.297 896.801 898.098V923.363C896.801 925.119 896.238 926.493 895.112 927.483C893.987 928.474 892.658 928.97 891.127 928.97C889.596 928.97 888.267 928.474 887.141 927.483C886.015 926.493 885.453 925.119 885.453 923.363V923.295C884.687 925.142 883.268 926.583 881.197 927.619C879.17 928.654 876.783 929.172 874.036 929.172C870.568 929.172 867.551 928.339 864.984 926.673C862.417 925.007 860.458 922.755 859.107 919.918C857.801 917.08 857.148 913.973 857.148 910.595C857.148 907.083 857.846 903.953 859.242 901.206C860.638 898.413 862.642 896.229 865.254 894.653C867.911 893.032 871.041 892.221 874.644 892.221C876.671 892.221 878.675 892.649 880.656 893.505C882.638 894.315 884.259 895.531 885.52 897.152C885.745 895.666 886.376 894.518 887.412 893.707C888.492 892.897 889.731 892.491 891.127 892.491ZM877.008 919.107C879.44 919.107 881.444 918.341 883.021 916.81C884.597 915.234 885.385 913.207 885.385 910.73C885.385 908.254 884.597 906.25 883.021 904.718C881.444 903.142 879.44 902.354 877.008 902.354C874.487 902.354 872.437 903.142 870.861 904.718C869.285 906.25 868.497 908.254 868.497 910.73C868.497 913.207 869.285 915.234 870.861 916.81C872.437 918.341 874.487 919.107 877.008 919.107ZM935.786 877.292C937.318 877.292 938.624 877.787 939.704 878.778C940.83 879.769 941.393 881.143 941.393 882.899V923.43C941.393 925.187 940.83 926.56 939.704 927.551C938.624 928.542 937.318 929.037 935.786 929.037C934.3 929.037 932.994 928.542 931.868 927.551C930.742 926.56 930.18 925.187 930.18 923.43V923.295C929.414 925.142 927.995 926.583 925.924 927.619C923.897 928.654 921.51 929.172 918.763 929.172C915.296 929.172 912.278 928.339 909.711 926.673C907.144 925.007 905.185 922.755 903.834 919.918C902.528 917.08 901.875 913.973 901.875 910.595C901.875 907.083 902.573 903.953 903.969 901.206C905.365 898.413 907.369 896.229 909.981 894.653C912.638 893.032 915.768 892.221 919.371 892.221C921.398 892.221 923.379 892.626 925.316 893.437C927.297 894.248 928.919 895.441 930.18 897.017V882.899C930.18 881.143 930.742 879.769 931.868 878.778C932.994 877.787 934.3 877.292 935.786 877.292ZM921.736 919.107C924.167 919.107 926.171 918.341 927.748 916.81C929.324 915.234 930.112 913.207 930.112 910.73C930.112 908.254 929.324 906.25 927.748 904.718C926.171 903.142 924.167 902.354 921.736 902.354C919.214 902.354 917.164 903.142 915.588 904.718C914.012 906.25 913.224 908.254 913.224 910.73C913.224 913.207 914.012 915.234 915.588 916.81C917.164 918.341 919.214 919.107 921.736 919.107Z" fill="#0033E6"/>
</g>
<rect x="3" y="3" width="994" height="994" rx="6" stroke="#0033E6" stroke-width="6"/>
<defs>
<clipPath id="clip0_346_494">
<rect width="1000" height="1000" rx="9" fill="white"/>
</clipPath>
</defs>
</svg>
