<svg width="1000" height="1000" viewBox="0 0 1000 1000" fill="none" xmlns="http://www.w3.org/2000/svg">
<g clip-path="url(#clip0_395_1367)">
<rect width="1000" height="1000" rx="9" fill="#FFEED8"/>
<path d="M178.556 187.75C175.825 188.501 173.205 188.273 170.694 187.068C168.248 185.751 166.637 183.683 165.862 180.864C165.572 179.806 165.438 178.801 165.46 177.847L165.216 151.621L142.971 109.98C142.344 108.731 141.885 107.578 141.594 106.521C140.698 103.262 141.022 100.473 142.564 98.1538C144.17 95.7227 146.426 94.1077 149.333 93.3087C151.8 92.6308 154.152 92.7424 156.389 93.6436C158.627 94.5447 160.385 96.2881 161.664 98.8739C165.759 107.224 168.708 113.472 170.511 117.619C172.29 121.678 173.495 125.374 174.127 128.706C175.182 123.584 176.598 118.22 178.374 112.616C180.15 107.011 182.972 99.177 186.838 89.113C188.616 84.5501 191.576 81.6997 195.716 80.5618C198.359 79.8355 200.824 80.011 203.109 81.0883C205.483 82.1414 207.009 83.9013 207.687 86.368C208.341 88.7466 208.018 91.5358 206.718 94.7356L185.963 145.919L186.169 177.699C186.158 180.071 185.421 182.216 183.958 184.134C182.559 185.939 180.759 187.145 178.556 187.75ZM238.018 171.835C229.473 174.184 222.132 173.501 215.994 169.787C209.921 165.96 205.674 159.642 203.253 150.833C202.502 148.102 201.955 145.078 201.612 141.761C200.436 130.24 202.184 120.569 206.857 112.747C211.529 104.926 218.446 99.7556 227.608 97.2377C236.242 94.8651 243.639 95.5799 249.801 99.3821C255.938 103.096 260.217 109.358 262.638 118.168C263.413 120.987 263.96 124.011 264.278 127.239C265.455 138.76 263.663 148.443 258.902 156.289C254.23 164.111 247.268 169.293 238.018 171.835ZM234.652 152.863C238.176 151.894 240.804 149.562 242.535 145.864C244.243 142.079 244.862 137.266 244.394 131.425C244.157 128.837 243.82 126.75 243.384 125.165C242.367 121.465 240.788 118.819 238.645 117.229C236.503 115.638 233.978 115.243 231.071 116.042C227.723 116.962 225.139 119.283 223.319 123.004C221.564 126.613 220.956 131.471 221.497 137.575C221.71 140.075 222.034 142.118 222.47 143.704C223.487 147.404 225.067 150.049 227.209 151.639C229.352 153.23 231.833 153.638 234.652 152.863ZM317.805 73.0183C320.448 72.292 322.969 72.4995 325.367 73.6407C327.853 74.7577 329.484 76.7257 330.258 79.5448C330.501 80.4258 330.659 81.5192 330.734 82.8252L331.236 137.405C331.258 140.242 330.449 142.643 328.81 144.61C327.26 146.552 325.339 147.838 323.049 148.467C320.758 149.097 318.494 148.961 316.257 148.06C314.083 147.046 312.513 145.299 311.547 142.816C308.932 149.504 304.056 153.829 296.92 155.79C291.722 157.219 286.918 156.975 282.507 155.061C278.072 153.058 275.019 149.018 273.349 142.939C272.598 140.208 272.199 136.859 272.151 132.893L271.979 93.9976C271.982 91.2491 272.771 88.9478 274.346 87.0938C275.897 85.1516 277.817 83.8657 280.108 83.2363C282.663 82.5342 285.083 82.7218 287.369 83.7991C289.743 84.8522 291.281 86.6561 291.983 89.211C292.225 90.0919 292.347 91.0533 292.349 92.0949L292.475 126.17C292.486 127.589 292.673 128.959 293.036 130.28C293.738 132.835 295.04 134.467 296.94 135.176C298.841 135.886 300.848 135.95 302.962 135.369C305.253 134.74 307.009 133.546 308.232 131.789C309.455 130.032 310.183 127.51 310.417 124.224L310.156 82.9374C310.119 80.3893 310.812 78.2565 312.235 76.5389C313.746 74.7971 315.603 73.6236 317.805 73.0183Z" fill="#0033E6"/>
<path d="M167.735 263.825C173.75 263.189 178.42 264.997 181.746 269.247C185.072 273.498 187.1 279.078 187.831 285.986C188.174 289.238 188.215 292.726 187.951 296.453C187.432 302.425 186.048 307.996 183.801 313.164C181.544 318.252 178.458 322.482 174.54 325.855C170.615 329.147 166.01 331.072 160.727 331.631C156.988 332.026 153.703 331.264 150.87 329.344C148.037 327.425 145.826 324.782 144.237 321.416L138.966 355.506C138.629 357.76 137.667 359.547 136.08 360.865C134.575 362.175 132.847 362.933 130.897 363.139C128.377 363.406 126.141 362.861 124.19 361.506C122.157 360.16 121.003 358.186 120.728 355.585C120.625 354.61 120.644 353.621 120.785 352.62L132.921 275.026C133.322 272.6 134.348 270.643 135.999 269.153C137.641 267.582 139.519 266.685 141.632 266.462C143.908 266.221 145.98 266.783 147.851 268.147C149.721 269.51 150.802 271.574 151.094 274.338C151.18 275.15 151.204 275.764 151.166 276.179C154.897 268.717 160.42 264.599 167.735 263.825ZM168.867 297.854C169.042 295.617 169.047 293.726 168.884 292.181C168.532 288.849 167.557 286.24 165.961 284.354C164.437 282.378 162.374 281.528 159.773 281.803C156.685 282.129 154.003 283.975 151.729 287.338C149.527 290.612 148.252 294.486 147.904 298.961C147.729 301.199 147.724 303.09 147.887 304.634C148.239 307.966 149.177 310.62 150.701 312.596C152.298 314.482 154.356 315.292 156.876 315.025C159.883 314.707 162.496 312.993 164.715 309.881C167.006 306.68 168.391 302.671 168.867 297.854ZM200.071 267.926C200.472 265.5 201.498 263.543 203.149 262.053C204.799 260.563 206.681 259.707 208.794 259.484C211.152 259.234 213.224 259.796 215.013 261.168C216.883 262.532 217.96 264.555 218.244 267.237C218.381 268.538 218.352 269.815 218.156 271.068L210.671 319.199C210.334 321.454 209.372 323.241 207.785 324.559C206.28 325.869 204.552 326.627 202.602 326.833C200.082 327.1 197.806 326.559 195.773 325.213C193.822 323.858 192.708 321.88 192.433 319.279C192.33 318.303 192.349 317.315 192.49 316.314L200.071 267.926ZM212.816 254.374C210.215 254.649 207.975 254.064 206.096 252.619C204.209 251.092 203.128 249.029 202.853 246.428C202.517 243.258 203.404 240.37 205.512 237.763C207.701 235.149 210.38 233.674 213.55 233.338C216.232 233.055 218.476 233.68 220.282 235.215C222.161 236.66 223.238 238.683 223.513 241.284C223.857 244.536 222.975 247.464 220.867 250.071C218.75 252.596 216.067 254.03 212.816 254.374ZM258.303 320.45C256.712 320.947 254.86 321.307 252.747 321.531C248.033 322.029 243.491 321.441 239.123 319.766C234.754 318.091 231.095 315.355 228.146 311.558C225.196 307.76 223.425 303.057 222.832 297.449C222.463 293.954 222.608 290.281 223.27 286.431C224.332 280.154 226.432 274.755 229.57 270.231C232.789 265.699 236.612 262.213 241.039 259.773C245.538 257.242 250.226 255.719 255.103 255.203C258.273 254.868 261.449 254.984 264.632 255.552C267.058 255.953 268.921 256.865 270.223 258.289C271.605 259.705 272.391 261.306 272.58 263.095C272.812 265.289 272.246 267.321 270.882 269.192C269.51 270.98 267.686 271.995 265.41 272.236C264.435 272.339 263.483 272.275 262.554 272.045C261.04 271.712 259.47 271.631 257.844 271.803C254.024 272.207 250.577 273.804 247.502 276.595C244.509 279.377 242.675 283.023 242.001 287.532C241.72 289.534 241.665 291.348 241.837 292.974C242.147 295.9 243.059 298.31 244.574 300.205C246.162 302.009 248.064 303.287 250.281 304.039C252.497 304.791 254.694 304.97 256.871 304.575C259.139 304.253 261 304.755 262.455 306.081C263.983 307.316 264.858 308.991 265.082 311.104C265.297 313.136 264.84 315.033 263.711 316.796C262.574 318.478 260.771 319.696 258.303 320.45ZM316.724 251.893C318.695 249.548 321.022 248.233 323.704 247.95C325.899 247.718 327.841 248.211 329.531 249.429C331.303 250.639 332.296 252.26 332.511 254.292C332.752 256.568 331.923 258.833 330.025 261.089L312.259 281.952L323.973 301.795C324.662 302.873 325.072 304.021 325.2 305.24C325.441 307.516 324.708 309.525 323.002 311.267C321.288 312.927 319.211 313.887 316.773 314.145C314.985 314.334 313.271 314.063 311.632 313.332C310.066 312.511 308.778 311.209 307.767 309.426L294.691 286.029C294.42 291.236 293.515 299.386 291.976 310.479C291.703 312.563 290.782 314.345 289.212 315.826C287.716 317.217 285.911 318.024 283.798 318.248C281.115 318.531 278.826 317.869 276.93 316.262C275.034 314.654 273.958 312.631 273.7 310.193C273.614 309.38 273.65 308.554 273.808 307.716L285.874 230.622C286.164 228.701 287.012 227.009 288.419 225.545C289.907 224.073 291.708 223.225 293.821 223.001C296.341 222.735 298.589 223.401 300.566 225C302.535 226.518 303.648 228.496 303.906 230.935C303.983 231.666 303.947 232.492 303.798 233.412C301.862 246.191 300.354 255.638 299.275 261.751C298.186 267.784 297.233 272.364 296.413 275.492L316.724 251.893ZM361.64 243.199C369.118 242.408 375.071 243.915 379.501 247.721C383.922 251.445 386.532 257.086 387.331 264.645C387.529 266.515 387.609 268.438 387.571 270.414C387.534 273.952 386.654 276.511 384.931 278.09C383.281 279.579 380.992 280.479 378.066 280.788L349.903 283.766C349.865 284.181 349.897 284.876 350 285.852C350.276 288.453 351.171 290.7 352.686 292.595C354.283 294.481 356.3 295.295 358.738 295.037C362.477 294.641 365.33 292.86 367.296 289.694C368.762 287.238 370.755 285.876 373.275 285.61C375.307 285.395 377.132 285.942 378.749 287.25C380.448 288.55 381.405 290.216 381.62 292.247C381.818 294.117 381.312 295.937 380.102 297.709C377.545 301.513 374.37 304.52 370.577 306.729C366.783 308.939 362.814 310.262 358.669 310.701C350.785 311.534 344.57 309.89 340.025 305.768C335.471 301.565 332.795 295.684 331.995 288.125C331.643 284.793 331.637 281.629 331.978 278.635C332.97 268.585 336.132 260.402 341.464 254.085C346.868 247.678 353.594 244.05 361.64 243.199ZM361.776 258.471C359.012 258.763 356.726 260.074 354.918 262.402C353.101 264.648 351.902 267.693 351.322 271.535L369.854 269.575C369.875 268.998 369.834 268.221 369.731 267.246C369.43 264.401 368.58 262.19 367.18 260.612C365.853 258.944 364.052 258.231 361.776 258.471ZM449.115 206.211C451.553 205.953 453.752 206.543 455.712 207.979C457.664 209.334 458.777 211.313 459.052 213.913C459.121 214.564 459.07 215.637 458.899 217.135L446.833 294.228C446.432 296.654 445.443 298.567 443.865 299.966C442.359 301.276 440.631 302.034 438.681 302.24C436.242 302.498 434.048 301.95 432.096 300.594C430.136 299.158 429.019 297.139 428.744 294.538C428.658 293.726 428.63 293.071 428.659 292.575C426.817 296.139 424.491 299.015 421.682 301.202C418.945 303.3 415.707 304.546 411.968 304.942C405.953 305.578 401.287 303.811 397.97 299.641C394.644 295.391 392.616 289.811 391.885 282.902C391.55 279.732 391.514 276.284 391.778 272.558C392.297 266.586 393.68 261.015 395.928 255.846C398.176 250.677 401.258 246.406 405.175 243.033C409.092 239.661 413.693 237.695 418.976 237.136C422.714 236.741 426 237.503 428.833 239.422C431.666 241.342 433.931 244.102 435.626 247.704L440.841 214.236C441.169 211.9 442.122 210.033 443.7 208.633C445.278 207.233 447.083 206.426 449.115 206.211ZM419.942 287.086C423.112 286.751 425.798 284.946 428 281.673C430.193 278.318 431.464 274.403 431.812 269.928C431.987 267.69 431.988 265.759 431.816 264.133C431.464 260.801 430.53 258.187 429.014 256.293C427.491 254.317 425.428 253.467 422.827 253.742C419.657 254.077 416.972 255.881 414.77 259.155C412.65 262.42 411.342 266.38 410.848 271.035C410.674 273.272 410.664 275.122 410.819 276.585C411.171 279.918 412.15 282.568 413.755 284.535C415.36 286.502 417.423 287.352 419.942 287.086ZM528.949 226.001C531.387 225.743 533.582 226.292 535.534 227.647C537.566 228.994 538.72 230.967 538.995 233.568C539.081 234.381 539.062 235.369 538.939 236.533L531.466 284.786C531.074 287.293 530.012 289.296 528.28 290.794C526.629 292.283 524.747 293.14 522.634 293.363C520.521 293.587 518.542 293.139 516.698 292.019C514.926 290.809 513.794 289.038 513.301 286.707C510.022 292.231 505.091 295.342 498.507 296.038C493.712 296.545 489.506 295.633 485.89 293.304C482.266 290.893 480.157 286.883 479.564 281.275C479.298 278.755 479.431 275.741 479.964 272.233L485.454 237.874C485.855 235.448 486.885 233.531 488.544 232.123C490.195 230.633 492.076 229.777 494.19 229.553C496.547 229.304 498.656 229.82 500.518 231.103C502.46 232.377 503.556 234.192 503.806 236.55C503.892 237.362 503.86 238.229 503.711 239.148L498.88 269.247C498.684 270.5 498.65 271.736 498.779 272.956C499.028 275.313 499.94 276.942 501.515 277.844C503.09 278.746 504.852 279.094 506.803 278.888C508.916 278.664 510.64 277.866 511.974 276.492C513.308 275.118 514.317 272.998 515 270.131L520.758 233.648C521.095 231.393 522.016 229.611 523.521 228.301C525.108 226.982 526.917 226.216 528.949 226.001ZM584.326 219.776C590.34 219.14 595.011 220.947 598.337 225.198C601.663 229.449 603.691 235.028 604.421 241.937C604.765 245.188 604.805 248.677 604.542 252.403C604.023 258.376 602.639 263.946 600.391 269.115C598.135 274.203 595.048 278.433 591.131 281.806C587.205 285.098 582.601 287.023 577.318 287.581C573.579 287.977 570.293 287.215 567.46 285.295C564.627 283.376 562.417 280.733 560.828 277.367L555.556 311.456C555.219 313.711 554.258 315.498 552.671 316.816C551.166 318.126 549.438 318.884 547.487 319.09C544.968 319.356 542.732 318.812 540.781 317.457C538.748 316.11 537.594 314.136 537.319 311.536C537.216 310.56 537.235 309.572 537.375 308.571L549.512 230.977C549.913 228.551 550.939 226.593 552.59 225.104C554.232 223.533 556.109 222.636 558.222 222.413C560.498 222.172 562.571 222.734 564.441 224.097C566.311 225.461 567.393 227.525 567.685 230.288C567.771 231.101 567.795 231.715 567.756 232.13C571.487 224.667 577.011 220.549 584.326 219.776ZM585.458 253.805C585.633 251.567 585.638 249.676 585.475 248.132C585.122 244.8 584.148 242.19 582.551 240.305C581.027 238.329 578.965 237.479 576.364 237.754C573.276 238.08 570.594 239.925 568.32 243.289C566.118 246.563 564.843 250.437 564.494 254.912C564.32 257.149 564.314 259.04 564.478 260.584C564.83 263.917 565.768 266.571 567.292 268.547C568.889 270.433 570.947 271.242 573.466 270.976C576.474 270.658 579.087 268.943 581.306 265.832C583.597 262.631 584.981 258.622 585.458 253.805Z" fill="#0033E6"/>
<path d="M184.291 478.076C187.732 478.164 191.097 478.252 194.384 478.341C197.701 478.429 201.019 478.517 204.337 478.606C205.236 478.635 205.826 478.79 206.105 479.068C206.416 479.347 206.571 479.967 206.573 480.928C206.574 481.734 206.482 482.556 206.297 483.393C206.112 484.231 206.036 485.068 206.068 485.905C206.134 488.231 206.199 490.572 206.264 492.928C206.361 495.253 206.504 497.579 206.693 499.904C206.85 501.547 206.651 503.051 206.095 504.416C205.539 505.781 204.61 506.883 203.309 507.722C200.583 509.494 197.779 510.831 194.896 511.734C192.045 512.637 188.991 513.091 185.736 513.096C184.309 513.098 182.883 513.038 181.457 512.916C180.061 512.825 178.665 512.625 177.27 512.317C175.874 512.04 174.509 511.608 173.175 511.021C171.841 510.465 170.553 509.722 169.312 508.794C166.859 506.968 164.732 504.878 162.931 502.524C161.16 500.17 159.978 497.381 159.384 494.157C158.978 491.895 158.556 489.647 158.119 487.415C157.681 485.183 157.353 482.92 157.132 480.626C156.975 479.014 156.942 477.402 157.032 475.789C157.154 474.146 157.245 472.487 157.304 470.812C157.365 470.006 157.457 469.215 157.58 468.44C157.703 467.665 157.733 466.874 157.67 466.068C157.543 464.487 157.665 463.014 158.035 461.649C158.437 460.253 158.946 458.872 159.564 457.507C161.234 453.877 163.415 450.897 166.11 448.568C168.804 446.239 171.98 444.529 175.637 443.438C176.846 443.096 178.07 442.768 179.31 442.456C180.55 442.145 181.805 441.941 183.076 441.846L183.495 441.846C184.394 441.845 185.278 441.967 186.146 442.214C187.046 442.43 187.945 442.661 188.845 442.908C189.775 443.155 190.675 443.448 191.544 443.788C192.443 444.128 193.343 444.421 194.243 444.668C195.762 445.038 197.097 445.625 198.245 446.429C199.424 447.203 200.341 448.38 200.994 449.96C201.243 450.487 201.507 451.014 201.787 451.54C202.098 452.036 202.409 452.532 202.719 453.027C203.527 454.329 204.211 455.692 204.772 457.117C205.332 458.512 205.659 460 205.755 461.581C204.67 462.358 203.663 462.747 202.733 462.748C201.276 462.75 200.205 461.744 199.52 459.729C198.897 457.87 197.98 456.243 196.769 454.85C195.588 453.456 194.362 452.094 193.088 450.762C192.809 450.483 192.359 450.174 191.738 449.834C191.118 449.463 190.451 449.123 189.737 448.813C189.054 448.504 188.372 448.242 187.689 448.026C187.038 447.779 186.542 447.624 186.2 447.563C185.456 447.471 184.712 447.425 183.968 447.426C183.224 447.427 182.48 447.46 181.735 447.523C181.022 447.555 180.294 447.602 179.55 447.665C179.209 447.697 178.868 447.806 178.527 447.992C178.186 448.148 177.845 448.226 177.504 448.226L177.411 448.226C177.287 448.227 177.178 448.227 177.085 448.227C176.992 448.196 176.899 448.181 176.806 448.181C175.628 448.182 174.605 448.509 173.738 449.162C172.902 449.783 172.174 450.513 171.555 451.351C169.76 453.741 168.167 456.255 166.775 458.892C165.384 461.53 164.473 464.415 164.044 467.547C163.89 468.478 163.798 469.423 163.769 470.385C163.77 471.315 163.787 472.26 163.819 473.222C163.884 475.485 163.95 477.748 164.015 480.012C164.111 482.275 164.254 484.554 164.443 486.848C164.601 488.894 164.961 490.894 165.522 492.846C166.113 494.799 166.876 496.674 167.809 498.471C168.71 500.237 169.937 501.569 171.488 502.465C173.04 503.362 174.731 504.011 176.561 504.412C177.926 504.72 179.275 504.981 180.608 505.197C181.942 505.381 183.306 505.596 184.702 505.842C185.105 505.903 185.508 505.949 185.912 505.98C186.315 506.01 186.718 506.025 187.121 506.024C189.105 506.022 191.012 505.724 192.84 505.133C194.7 504.51 196.544 503.794 198.372 502.985C199.085 502.705 199.58 502.301 199.859 501.774C200.137 501.215 200.26 500.533 200.228 499.727C200.131 497.278 200.066 494.844 200.031 492.425C200.028 489.976 200.009 487.495 199.974 484.984C198.299 484.707 196.656 484.477 195.043 484.293C193.431 484.109 191.803 484.019 190.159 484.021C189.26 484.022 188.345 484.07 187.415 484.164C186.485 484.228 185.555 484.338 184.625 484.494C184.221 483.998 183.988 483.503 183.925 483.007C183.863 482.511 183.877 481.999 183.97 481.472C184.062 480.913 184.154 480.355 184.246 479.797C184.37 479.239 184.384 478.665 184.291 478.076Z" fill="#0033E6"/>
<path d="M173.344 599.14C174.924 598.115 176.442 597.229 177.898 596.483C179.385 595.705 180.873 595.067 182.36 594.569C183.879 594.04 185.444 593.635 187.056 593.353C188.668 593.041 190.404 592.821 192.264 592.695L192.543 592.694C193.536 592.693 194.42 592.971 195.196 593.528C196.003 594.054 196.794 594.595 197.57 595.152C199.96 596.885 201.854 598.898 203.253 601.19C204.682 603.483 205.771 606.055 206.519 608.906C207.735 613.587 208.114 618.144 207.655 622.579C207.227 627.013 206.071 631.418 204.186 635.793C203.691 636.909 203.057 637.887 202.283 638.725C201.509 639.533 200.533 640.201 199.356 640.729C198.457 641.103 197.59 641.569 196.753 642.128C195.917 642.688 195.049 643.139 194.151 643.481C192.849 643.979 191.547 644.384 190.245 644.696C188.944 645.008 187.626 645.165 186.293 645.167C185.146 645.168 184.122 645.061 183.223 644.845C182.323 644.661 181.486 644.367 180.71 643.965C179.934 643.563 179.189 643.068 178.475 642.48C177.761 641.892 177.001 641.226 176.193 640.483C175.728 640.05 175.293 639.585 174.889 639.09C174.516 638.563 174.02 638.083 173.399 637.65C173.524 638.518 173.634 639.386 173.728 640.254C173.822 641.122 173.932 642.021 174.057 642.951C173.221 643.108 172.415 643.279 171.64 643.467C170.865 643.654 170.09 643.81 169.315 643.935C169.253 643.935 169.191 643.951 169.129 643.982C169.067 643.982 169.005 643.982 168.943 643.982C168.478 643.983 168.121 643.844 167.873 643.565C167.655 643.255 167.53 642.837 167.499 642.31C167.403 640.263 167.26 638.233 167.071 636.217C166.913 634.171 166.88 632.125 166.97 630.078C167.091 627.877 167.134 625.706 167.1 623.567C167.097 621.396 167.094 619.226 167.091 617.055C167.053 612.342 167.015 607.66 166.978 603.009C166.94 598.359 166.902 593.677 166.865 588.964C166.863 588.095 166.846 587.119 166.814 586.034C166.812 584.948 166.811 583.848 166.809 582.731C166.808 581.615 166.806 580.53 166.805 579.476C166.834 578.39 166.848 577.414 166.847 576.545C166.846 576.111 166.892 575.662 166.984 575.196C167.108 574.731 167.216 574.235 167.308 573.708C168.145 573.675 168.936 573.643 169.68 573.611C170.424 573.579 171.184 573.547 171.959 573.515C172.086 575.499 172.197 577.577 172.293 579.747C172.42 581.917 172.532 584.103 172.628 586.304C172.755 588.506 172.867 590.691 172.963 592.862C173.09 595.032 173.217 597.125 173.344 599.14ZM172.682 624.21C172.714 625.047 172.731 625.915 172.732 626.814C172.734 627.714 172.905 628.519 173.247 629.232C173.931 630.657 174.693 632.036 175.532 633.368C176.402 634.669 177.582 635.768 179.072 636.665C180.096 637.253 181.12 637.794 182.144 638.289C183.167 638.753 184.269 638.984 185.447 638.982C185.602 638.982 185.772 638.981 185.958 638.981C186.144 638.981 186.33 638.95 186.516 638.887C187.539 638.731 188.562 638.621 189.586 638.557C190.64 638.494 191.663 638.322 192.654 638.041C193.553 637.792 194.374 637.434 195.118 636.968C195.892 636.471 196.418 635.664 196.696 634.547C197.066 633.121 197.498 631.725 197.992 630.36C198.517 628.995 198.996 627.614 199.428 626.218C200.447 623.023 200.861 619.86 200.67 616.728C200.511 613.597 199.979 610.435 199.076 607.243C198.795 606.313 198.236 605.383 197.397 604.454C196.59 603.525 195.643 602.69 194.556 601.947C193.47 601.204 192.307 600.617 191.066 600.185C189.856 599.721 188.708 599.49 187.623 599.492C187.003 599.493 186.259 599.571 185.391 599.728C184.523 599.853 183.81 600.009 183.252 600.196C182.818 600.32 182.369 600.476 181.904 600.663C181.439 600.818 181.052 601.051 180.742 601.362C179.628 602.449 178.528 603.567 177.445 604.715C176.392 605.833 175.355 606.982 174.334 608.162C173.622 608.969 173.22 609.869 173.128 610.861C173.067 611.605 173.007 612.659 172.947 614.024C172.886 615.388 172.826 616.768 172.766 618.163C172.737 619.559 172.708 620.83 172.679 621.977C172.68 623.125 172.682 623.869 172.682 624.21Z" fill="#0033E6"/>
<path d="M253.118 453.287C253.366 452.698 253.861 452.061 254.604 451.378C255.347 450.664 256.152 449.996 257.02 449.375C257.887 448.722 258.692 448.163 259.436 447.697C260.21 447.231 260.722 446.936 260.969 446.811C261.961 446.314 262.984 446.064 264.038 446.063C265.03 446.061 266.1 446.308 267.248 446.802C267.776 447.018 268.21 447.219 268.551 447.405C268.893 447.591 269.141 447.823 269.297 448.102C269.483 448.349 269.592 448.659 269.623 449.031C269.655 449.403 269.64 449.899 269.579 450.52C269.518 450.954 269.425 451.373 269.302 451.776C269.178 452.179 269.07 452.598 268.978 453.032C267.551 452.414 266.124 452.106 264.698 452.108C262.868 452.111 261.226 452.532 259.77 453.371C258.344 454.21 257.121 455.297 256.1 456.632C255.11 457.935 254.352 459.425 253.827 461.1C253.303 462.775 253.026 464.434 252.997 466.078C252.941 470.481 252.824 474.853 252.644 479.194C252.464 483.504 252.331 487.861 252.244 492.264C252.214 492.977 252.323 493.721 252.573 494.496C252.853 495.271 253.117 496.123 253.367 497.053C252.778 497.209 252.158 497.396 251.507 497.614C250.887 497.831 250.236 497.956 249.554 497.988L249.229 497.989C248.206 497.99 247.477 497.759 247.042 497.294C246.638 496.799 246.451 495.962 246.48 494.784C246.537 491.497 246.61 488.225 246.699 484.97C246.787 481.683 246.86 478.381 246.917 475.063C246.917 474.815 246.932 474.567 246.963 474.318C246.993 474.07 247.008 473.822 247.008 473.574C247.065 470.008 247.122 466.489 247.179 463.016C247.236 459.512 247.293 455.978 247.35 452.412C247.349 451.885 247.333 451.373 247.301 450.877C247.301 450.381 247.238 449.9 247.113 449.435C246.926 448.723 246.941 448.195 247.157 447.854C247.374 447.513 247.808 447.248 248.459 447.062C248.924 446.937 249.311 446.843 249.621 446.781C249.962 446.718 250.256 446.687 250.505 446.687C251.032 446.686 251.388 446.887 251.575 447.29C251.762 447.692 251.964 448.436 252.183 449.521C252.214 449.645 252.245 449.878 252.277 450.219C252.339 450.529 252.386 450.87 252.418 451.242C252.48 451.614 252.527 451.97 252.559 452.311C252.59 452.621 252.606 452.854 252.606 453.009C252.7 453.071 252.777 453.117 252.839 453.148C252.932 453.179 253.025 453.225 253.118 453.287Z" fill="#0033E6"/>
<path d="M238.315 578.661C238.442 578.035 238.802 577.313 239.396 576.497C239.984 575.651 240.642 574.838 241.37 574.058C242.092 573.247 242.771 572.54 243.408 571.937C244.076 571.327 244.519 570.937 244.738 570.766C245.612 570.084 246.565 569.638 247.599 569.428C248.571 569.232 249.669 569.263 250.892 569.522C251.451 569.63 251.917 569.741 252.288 569.856C252.659 569.971 252.948 570.149 253.156 570.392C253.387 570.598 253.555 570.881 253.659 571.239C253.763 571.598 253.847 572.087 253.909 572.707C253.934 573.145 253.926 573.574 253.884 573.994C253.843 574.413 253.819 574.845 253.814 575.289C252.293 574.964 250.834 574.943 249.436 575.226C247.643 575.588 246.115 576.324 244.853 577.434C243.621 578.537 242.635 579.844 241.897 581.354C241.182 582.827 240.733 584.436 240.548 586.182C240.364 587.927 240.419 589.609 240.714 591.225C241.527 595.553 242.272 599.863 242.95 604.155C243.622 608.416 244.349 612.713 245.131 617.047C245.242 617.753 245.496 618.46 245.893 619.171C246.32 619.876 246.748 620.659 247.175 621.522C246.628 621.79 246.058 622.096 245.462 622.437C244.898 622.773 244.284 623.024 243.621 623.189L243.302 623.254C242.299 623.457 241.539 623.373 241.021 623.004C240.528 622.597 240.18 621.814 239.976 620.653C239.386 617.419 238.813 614.197 238.259 610.988C237.698 607.748 237.119 604.496 236.522 601.232C236.473 600.989 236.439 600.742 236.42 600.493C236.402 600.244 236.368 599.998 236.318 599.754C235.672 596.247 235.035 592.786 234.407 589.369C233.774 585.923 233.134 582.446 232.487 578.939C232.383 578.422 232.266 577.924 232.137 577.444C232.039 576.957 231.883 576.499 231.669 576.067C231.345 575.405 231.256 574.886 231.401 574.508C231.546 574.131 231.92 573.787 232.521 573.475C232.952 573.261 233.314 573.093 233.605 572.971C233.927 572.843 234.21 572.754 234.453 572.705C234.97 572.6 235.359 572.727 235.621 573.085C235.884 573.443 236.229 574.133 236.657 575.153C236.712 575.269 236.788 575.491 236.886 575.819C237.008 576.11 237.122 576.435 237.226 576.794C237.36 577.146 237.477 577.487 237.575 577.815C237.666 578.113 237.728 578.337 237.758 578.489C237.862 578.532 237.947 578.562 238.014 578.58C238.111 578.592 238.212 578.619 238.315 578.661Z" fill="#0033E6"/>
<path d="M294.83 484.988C294.49 485.95 294.336 486.849 294.368 487.686C294.401 488.523 294.541 489.314 294.79 490.058C295.071 490.801 295.428 491.53 295.863 492.242C296.298 492.924 296.733 493.59 297.168 494.24C297.945 495.417 298.8 496.548 299.731 497.632C300.694 498.685 301.672 499.722 302.666 500.744C303.691 501.827 304.761 502.586 305.878 503.018C306.995 503.42 308.298 503.619 309.786 503.617C311.367 503.491 312.917 503.349 314.436 503.192C315.955 503.004 317.459 502.599 318.946 501.976C319.659 501.696 320.356 501.401 321.038 501.09C321.75 500.748 322.323 500.22 322.756 499.506C323.066 499.04 323.453 498.807 323.918 498.807C324.135 498.806 324.368 498.883 324.616 499.038C324.864 499.193 325.097 499.347 325.314 499.502C325.532 499.626 325.764 499.765 326.013 499.92C326.202 502.276 325.367 504.091 323.509 505.365C321.031 507.105 318.413 508.442 315.654 509.376C312.927 510.279 310.075 510.888 307.099 511.202C306.882 511.233 306.665 511.249 306.448 511.25C306.262 511.25 306.076 511.25 305.89 511.25C303.595 511.254 301.533 510.698 299.702 509.585C297.871 508.471 296.194 507.078 294.673 505.406C292.747 503.269 291.194 500.977 290.012 498.529C288.861 496.081 288.098 493.4 287.722 490.486C287.471 488.533 287.468 486.642 287.713 484.812C287.959 482.982 288.251 481.137 288.589 479.276C288.897 477.539 289.297 475.849 289.791 474.205C290.285 472.53 290.825 470.855 291.412 469.179C292.122 467.101 293.205 465.363 294.66 463.966C296.116 462.537 297.85 461.372 299.864 460.47C300.577 460.128 301.321 459.848 302.096 459.63C302.87 459.381 303.63 459.1 304.373 458.789C306.388 458.011 308.325 457.621 310.186 457.618C312.48 457.615 314.651 458.108 316.699 459.097C318.778 460.056 320.795 461.293 322.751 462.809C323.185 463.15 323.573 463.599 323.915 464.157C324.288 464.683 324.599 465.225 324.848 465.783C325.656 467.518 326.372 469.269 326.995 471.036C327.617 472.771 327.868 474.631 327.747 476.616C327.686 477.577 327.672 478.538 327.704 479.499C327.768 480.43 327.769 481.375 327.708 482.337C327.709 482.399 327.693 482.476 327.662 482.569C327.662 482.662 327.663 482.755 327.663 482.848C327.57 483.375 327.323 483.81 326.92 484.152C326.518 484.462 326.053 484.618 325.526 484.619C325.433 484.619 325.324 484.619 325.2 484.619C325.107 484.619 325.014 484.588 324.921 484.527C324.146 484.311 323.308 484.203 322.409 484.205C321.696 484.206 320.983 484.253 320.27 484.347C319.588 484.41 318.89 484.442 318.177 484.443L317.851 484.444C316.146 484.446 314.441 484.51 312.736 484.637C311.061 484.763 309.372 484.859 307.666 484.923C307.015 484.955 306.349 484.972 305.667 484.973C305.015 484.973 304.349 484.974 303.667 484.975L297.434 484.984L294.83 484.988ZM321.333 479.788C321.514 476.377 320.906 473.556 319.507 471.325C318.14 469.064 316.044 467.191 313.22 465.707C312.289 465.181 311.374 464.81 310.475 464.594C309.575 464.379 308.691 464.271 307.823 464.273C306.211 464.275 304.661 464.603 303.173 465.256C301.717 465.878 300.292 466.686 298.898 467.68C297.907 468.364 297.117 469.171 296.529 470.102C295.973 471.002 295.555 471.98 295.278 473.034C295 474.089 294.847 475.19 294.817 476.337C294.788 477.484 294.79 478.663 294.822 479.872C297.334 479.651 299.814 479.477 302.263 479.35C304.713 479.191 307.162 479.11 309.611 479.107C311.565 479.104 313.518 479.163 315.472 479.284C317.426 479.375 319.379 479.542 321.333 479.788Z" fill="#0033E6"/>
<path d="M275.235 611.3C274.895 612.262 274.741 613.161 274.773 613.998C274.806 614.836 274.946 615.626 275.195 616.37C275.476 617.114 275.833 617.842 276.268 618.554C276.703 619.236 277.138 619.902 277.573 620.552C278.35 621.73 279.205 622.86 280.136 623.944C281.099 624.997 282.077 626.034 283.071 627.056C284.096 628.14 285.166 628.898 286.283 629.33C287.4 629.732 288.703 629.932 290.191 629.929C291.772 629.803 293.322 629.661 294.841 629.504C296.36 629.316 297.864 628.911 299.351 628.289C300.064 628.008 300.761 627.713 301.443 627.402C302.155 627.06 302.728 626.532 303.161 625.818C303.471 625.353 303.858 625.119 304.323 625.119C304.54 625.118 304.773 625.196 305.021 625.35C305.269 625.505 305.502 625.66 305.719 625.814C305.937 625.938 306.169 626.077 306.418 626.232C306.607 628.588 305.772 630.403 303.914 631.677C301.436 633.417 298.818 634.754 296.059 635.688C293.332 636.591 290.48 637.2 287.504 637.514C287.287 637.546 287.07 637.562 286.853 637.562C286.667 637.562 286.481 637.562 286.295 637.563C284.001 637.566 281.938 637.011 280.107 635.897C278.276 634.783 276.599 633.391 275.078 631.718C273.152 629.582 271.599 627.289 270.417 624.841C269.266 622.394 268.503 619.713 268.127 616.799C267.876 614.845 267.873 612.954 268.118 611.124C268.364 609.295 268.656 607.449 268.994 605.588C269.302 603.852 269.703 602.161 270.196 600.517C270.69 598.842 271.23 597.167 271.817 595.492C272.527 593.413 273.61 591.675 275.065 590.278C276.521 588.85 278.255 587.684 280.269 586.782C280.982 586.44 281.726 586.16 282.501 585.942C283.275 585.693 284.035 585.413 284.778 585.102C286.793 584.323 288.73 583.933 290.591 583.93C292.885 583.927 295.056 584.42 297.104 585.41C299.183 586.368 301.2 587.605 303.156 589.122C303.59 589.462 303.978 589.911 304.32 590.469C304.693 590.995 305.004 591.538 305.253 592.095C306.061 593.831 306.777 595.581 307.4 597.348C308.022 599.083 308.273 600.943 308.152 602.928C308.091 603.889 308.077 604.851 308.109 605.812C308.173 606.742 308.174 607.688 308.114 608.649C308.114 608.711 308.098 608.788 308.067 608.881C308.067 608.974 308.068 609.067 308.068 609.161C307.975 609.688 307.728 610.122 307.325 610.464C306.923 610.774 306.458 610.93 305.931 610.931C305.838 610.931 305.729 610.931 305.605 610.931C305.512 610.932 305.419 610.901 305.326 610.839C304.551 610.623 303.713 610.515 302.814 610.517C302.101 610.518 301.388 610.565 300.675 610.659C299.993 610.722 299.295 610.754 298.582 610.755L298.256 610.756C296.551 610.758 294.846 610.823 293.141 610.949C291.466 611.076 289.777 611.171 288.071 611.235C287.42 611.267 286.754 611.284 286.072 611.285C285.42 611.286 284.754 611.287 284.072 611.288L277.839 611.297L275.235 611.3ZM301.738 606.1C301.919 602.689 301.311 599.868 299.912 597.638C298.545 595.376 296.449 593.503 293.625 592.019C292.694 591.493 291.779 591.122 290.88 590.907C289.98 590.691 289.096 590.584 288.228 590.585C286.616 590.587 285.066 590.915 283.578 591.568C282.122 592.19 280.697 592.999 279.303 593.993C278.312 594.676 277.522 595.484 276.934 596.415C276.378 597.315 275.96 598.292 275.683 599.347C275.405 600.401 275.252 601.502 275.222 602.649C275.193 603.797 275.195 604.975 275.227 606.184C277.739 605.964 280.219 605.789 282.668 605.662C285.118 605.503 287.567 605.422 290.017 605.419C291.97 605.416 293.923 605.475 295.877 605.597C297.831 605.687 299.784 605.855 301.738 606.1Z" fill="#0033E6"/>
<path d="M363.867 632.033C363.65 632.034 363.433 632.019 363.216 631.988C363.029 631.926 362.859 631.895 362.704 631.896C362.58 631.896 362.487 631.911 362.425 631.943C361.774 632.129 361.185 632.223 360.658 632.224C359.883 632.225 359.231 632.009 358.704 631.576C358.176 631.111 357.787 630.383 357.538 629.391C357.507 629.329 357.445 629.283 357.351 629.252C357.289 629.19 357.258 629.175 357.258 629.206C355.616 629.797 354.02 630.435 352.471 631.12C350.921 631.804 349.325 632.287 347.682 632.568C345.822 632.943 343.993 633.132 342.195 633.134C339.559 633.138 337.062 632.676 334.705 631.749C332.347 630.823 330.19 629.244 328.233 627.015C327.115 625.745 326.26 624.273 325.669 622.6C325.108 620.926 324.873 619.206 324.964 617.438C325.054 615.671 325.501 613.949 326.305 612.274C327.109 610.598 328.347 609.108 330.02 607.803C331.909 606.343 333.799 605.302 335.689 604.679C337.611 604.056 339.765 603.743 342.153 603.74C344.292 603.83 346.417 603.92 348.525 604.01C350.634 604.1 352.758 604.19 354.897 604.28C355.083 604.28 355.269 604.264 355.455 604.232C355.641 604.201 355.905 604.17 356.246 604.138C356.305 602.154 356.24 600.216 356.052 598.325C355.863 596.434 355.333 594.59 354.462 592.792C354.245 592.359 353.95 591.941 353.577 591.538C353.204 591.135 352.801 590.826 352.366 590.609C350.939 589.96 349.497 589.404 348.039 588.941C346.612 588.447 345.092 588.201 343.48 588.204C340.627 588.208 338.271 588.909 336.413 590.307C334.586 591.705 333.209 593.753 332.282 596.452C332.251 596.514 332.112 596.7 331.865 597.011C330.903 596.95 329.911 596.905 328.888 596.875C327.864 596.815 326.779 596.754 325.632 596.694C325.877 595.019 326.263 593.499 326.788 592.134C327.313 590.769 328.133 589.543 329.248 588.456C329.31 588.394 329.619 588.022 330.176 587.339C330.765 586.656 331.616 585.895 332.731 585.056C333.877 584.186 335.287 583.378 336.96 582.632C338.633 581.854 340.586 581.386 342.818 581.228C344.369 581.226 345.888 581.332 347.377 581.547C348.866 581.762 350.308 582.117 351.704 582.611C353.1 583.105 354.434 583.77 355.707 584.605C356.979 585.409 358.174 586.415 359.292 587.623C360.193 588.552 360.861 589.838 361.298 591.48C361.765 593.123 362.109 595.045 362.329 597.246C362.549 599.416 362.692 601.819 362.758 604.455C362.824 607.09 362.874 609.881 362.909 612.826C362.975 615.741 363.088 618.748 363.248 621.849C363.407 624.949 363.691 628.065 364.098 631.196C364.098 631.289 364.067 631.398 364.006 631.522C363.975 631.615 363.928 631.785 363.867 632.033ZM356.439 609.208C355.261 609.147 354.16 609.087 353.137 609.026C352.144 608.966 351.152 608.905 350.16 608.845C348.857 608.784 347.571 608.724 346.299 608.664C345.059 608.573 343.803 608.513 342.532 608.483C339.958 608.487 337.866 609.157 336.256 610.492C334.645 611.828 333.377 613.612 332.45 615.846C332.048 616.839 331.832 617.832 331.803 618.824C331.773 619.816 331.929 620.762 332.272 621.66C332.614 622.528 333.127 623.333 333.81 624.077C334.493 624.789 335.331 625.361 336.324 625.794C336.883 626.072 337.596 626.335 338.465 626.581C339.333 626.797 340.233 626.998 341.163 627.182C342.125 627.367 343.055 627.521 343.954 627.643C344.854 627.735 345.629 627.781 346.28 627.78C348.109 627.777 349.83 627.48 351.441 626.889C353.053 626.297 354.354 625.288 355.344 623.86C355.746 623.239 356.024 622.557 356.178 621.812C356.363 621.037 356.47 620.23 356.5 619.393C356.561 618.556 356.591 617.734 356.59 616.928C356.589 616.091 356.618 615.3 356.679 614.556C356.74 613.657 356.723 612.773 356.629 611.905C356.566 611.006 356.503 610.107 356.439 609.208Z" fill="#0033E6"/>
<path d="M426.326 583.349C426.556 580.847 426.763 578.53 426.95 576.397C427.17 574.238 427.374 572.092 427.56 569.96C427.681 568.382 427.787 566.802 427.878 565.221C428 563.643 428.121 562.065 428.243 560.487C428.284 559.868 428.34 559.39 428.41 559.055C428.48 558.72 428.59 558.452 428.738 558.251C428.917 558.053 429.151 557.924 429.438 557.864C429.761 557.777 430.176 557.7 430.683 557.635C431.539 557.516 432.322 557.498 433.03 557.58C434.139 557.71 434.85 558.167 435.165 558.953C435.51 559.743 435.595 561.017 435.421 562.776C435.087 565.64 434.786 568.493 434.517 571.333C434.283 574.146 433.892 576.957 433.346 579.766C433.11 580.987 432.936 582.215 432.823 583.451C432.71 584.686 432.597 585.922 432.485 587.157C432.406 588.365 432.295 589.586 432.151 590.817C432.011 592.019 431.808 593.228 431.541 594.445C431.063 596.669 430.616 598.895 430.2 601.126C429.784 603.356 429.412 605.607 429.085 607.879C428.747 610.243 428.488 612.601 428.307 614.952C428.13 617.273 427.934 619.623 427.719 622.001L427.03 627.914C426.972 628.407 426.792 628.745 426.49 628.928C426.219 629.115 425.879 629.216 425.471 629.231C424.848 629.221 424.213 629.178 423.567 629.103C422.951 629.031 422.254 628.981 421.477 628.953C421.516 628.083 421.565 627.262 421.624 626.488C421.686 625.684 421.737 624.847 421.776 623.977C421.512 624.102 421.265 624.214 421.035 624.312C420.836 624.414 420.635 624.531 420.432 624.663C418.459 626.057 416.404 627.081 414.267 627.737C412.127 628.424 409.902 628.633 407.592 628.364C405.621 628.134 403.735 627.571 401.936 626.674C400.136 625.777 398.519 624.652 397.085 623.299C396.693 622.91 396.355 622.465 396.07 621.963C395.819 621.434 395.519 620.931 395.169 620.453C393.551 618.267 392.257 615.978 391.287 613.586C390.318 611.194 389.972 608.531 390.252 605.598C390.492 603.004 390.759 600.444 391.054 597.919C391.348 595.393 391.949 592.919 392.856 590.496C393.484 588.853 394.324 587.14 395.375 585.358C396.425 583.577 397.66 581.957 399.079 580.499C400.497 579.041 402.07 577.867 403.797 576.976C405.528 576.054 407.386 575.646 409.372 575.753C410.364 575.806 411.338 575.888 412.293 576C413.248 576.111 414.218 576.224 415.203 576.339C417.482 576.605 419.523 577.311 421.325 578.457C423.13 579.573 424.797 581.204 426.326 583.349ZM425.245 597.036C425.397 596.273 425.421 595.527 425.319 594.797C425.248 594.071 425.111 593.368 424.909 592.689C424.708 592.01 424.473 591.342 424.206 590.687C423.943 590.001 423.68 589.315 423.416 588.628C422.782 586.837 421.751 585.64 420.323 585.037C417.444 583.764 414.464 582.949 411.384 582.59C410.737 582.514 410.072 582.468 409.387 582.45C408.736 582.406 408.069 582.375 407.384 582.357C405.854 582.366 404.584 583.077 403.577 584.489C403.014 585.297 402.409 586.069 401.762 586.806C401.117 587.511 400.514 588.268 399.952 589.076C399.469 589.738 398.997 590.432 398.538 591.159C398.113 591.859 397.777 592.6 397.53 593.383C396.574 596.487 395.994 599.587 395.789 602.685C395.615 605.787 395.795 608.929 396.329 612.113C396.633 614.053 397.23 615.761 398.119 617.239C399.012 618.685 400.173 619.975 401.601 621.11C402.806 621.75 404.071 622.147 405.395 622.301C407.12 622.502 408.823 622.358 410.503 621.867C412.218 621.349 413.74 620.746 415.069 620.058C416.429 619.374 417.535 618.722 418.387 618.104C419.271 617.489 419.747 617.154 419.815 617.099C420.599 616.535 421.233 615.922 421.716 615.261C422.202 614.568 422.584 613.832 422.863 613.053C423.144 612.243 423.351 611.409 423.482 610.55C423.614 609.691 423.749 608.802 423.887 607.881C424.036 606.869 424.161 605.931 424.262 605.069C424.393 604.21 424.507 603.365 424.604 602.533C424.701 601.702 424.802 600.839 424.906 599.946C425.01 599.053 425.123 598.083 425.245 597.036Z" fill="#0033E6"/>
<path d="M452.753 603.685C452.212 603.778 451.703 603.859 451.227 603.929C450.754 603.967 450.281 604.006 449.808 604.044C449.397 604.09 449.038 604.095 448.73 604.059C448.145 603.991 447.749 603.773 447.542 603.405C447.369 603.01 447.318 602.38 447.388 601.514C447.493 600.34 447.628 599.185 447.792 598.049C447.955 596.913 448.09 595.759 448.196 594.585C448.263 593.469 448.316 592.351 448.352 591.232C448.42 590.116 448.503 589.002 448.602 587.889C448.953 584.34 449.32 580.793 449.702 577.248C450.115 573.706 450.499 570.145 450.854 566.565C451.003 565.022 451.119 563.49 451.203 561.97C451.29 560.42 451.425 558.859 451.608 557.288C451.692 556.299 451.894 555.636 452.215 555.299C452.535 554.962 453.095 554.84 453.896 554.933C454.019 554.947 454.127 554.96 454.219 554.971C454.343 554.985 454.479 555.017 454.63 555.065C455.365 555.182 455.957 555.329 456.405 555.506C456.852 555.684 457.183 555.925 457.397 556.231C457.646 556.51 457.789 556.885 457.828 557.358C457.897 557.834 457.904 558.444 457.848 559.187C457.648 561.973 457.435 564.742 457.208 567.494C457.011 570.249 456.767 573.014 456.474 575.79C456.261 577.888 455.957 579.959 455.562 582.005C455.202 584.023 454.885 586.078 454.61 588.168C454.246 590.748 453.916 593.316 453.618 595.872C453.354 598.401 453.066 601.006 452.753 603.685ZM452.276 615.008C452.147 616.117 452.021 617.195 451.899 618.242C451.811 619.262 451.693 620.278 451.543 621.291C451.477 621.595 451.357 621.956 451.183 622.373C451.044 622.762 450.896 622.963 450.738 622.976C449.803 622.961 448.828 622.894 447.812 622.775C447.504 622.739 447.196 622.704 446.888 622.668C446.58 622.632 446.273 622.58 445.969 622.514C445.357 622.411 444.933 622.159 444.699 621.757C444.5 621.328 444.4 620.848 444.399 620.317C444.407 618.913 444.524 617.507 444.751 616.097C444.853 615.485 445.123 615.048 445.559 614.787C445.999 614.495 446.529 614.369 447.148 614.41C447.49 614.419 447.831 614.443 448.17 614.482C448.539 614.525 448.894 614.567 449.232 614.606C449.756 614.667 450.262 614.742 450.751 614.83C451.244 614.888 451.752 614.947 452.276 615.008Z" fill="#0033E6"/>
<path d="M881.276 419.448C880.796 419.591 880.345 419.719 879.921 419.834C879.498 419.92 879.074 420.006 878.651 420.092C878.284 420.177 877.959 420.221 877.676 420.221C877.14 420.223 876.758 420.069 876.531 419.759C876.332 419.42 876.218 418.856 876.187 418.065C876.156 416.991 876.153 415.932 876.178 414.886C876.203 413.841 876.2 412.782 876.169 411.708C876.109 410.691 876.036 409.674 875.948 408.658C875.888 407.641 875.843 406.624 875.812 405.607C875.746 402.358 875.694 399.11 875.657 395.861C875.647 392.612 875.61 389.349 875.544 386.072C875.511 384.66 875.451 383.261 875.362 381.877C875.273 380.465 875.227 379.039 875.222 377.598C875.192 376.694 875.303 376.072 875.556 375.732C875.809 375.393 876.303 375.222 877.038 375.219C877.151 375.219 877.25 375.219 877.334 375.219C877.447 375.218 877.575 375.232 877.716 375.26C878.394 375.286 878.945 375.355 879.369 375.467C879.793 375.579 880.119 375.761 880.345 376.015C880.6 376.24 880.771 376.565 880.857 376.988C880.971 377.412 881.043 377.962 881.073 378.64C881.194 381.183 881.3 383.711 881.392 386.225C881.512 388.739 881.59 391.267 881.626 393.809C881.66 395.73 881.609 397.638 881.473 399.531C881.365 401.396 881.3 403.289 881.277 405.21C881.228 407.583 881.206 409.942 881.213 412.287C881.248 414.603 881.269 416.99 881.276 419.448ZM882.069 429.743C882.072 430.761 882.075 431.749 882.077 432.71C882.108 433.642 882.111 434.574 882.085 435.507C882.058 435.789 881.988 436.128 881.877 436.524C881.793 436.892 881.68 437.09 881.539 437.119C880.692 437.206 879.802 437.251 878.87 437.253C878.587 437.254 878.305 437.255 878.022 437.256C877.74 437.257 877.457 437.243 877.175 437.216C876.61 437.189 876.199 437.007 875.944 436.669C875.717 436.302 875.575 435.879 875.517 435.399C875.372 434.128 875.326 432.842 875.378 431.543C875.405 430.978 875.602 430.553 875.968 430.27C876.334 429.958 876.8 429.787 877.365 429.757C877.676 429.728 877.986 429.713 878.297 429.712C878.636 429.711 878.961 429.71 879.272 429.709C879.752 429.708 880.218 429.721 880.67 429.748C881.122 429.746 881.589 429.745 882.069 429.743Z" fill="#0033E6"/>
<path d="M382.745 436.879C382.745 436.383 382.729 435.933 382.697 435.53C382.665 435.096 382.68 434.677 382.742 434.274C382.864 433.282 383.204 432.475 383.761 431.854C384.319 431.233 385.047 430.876 385.946 430.781C386.07 430.75 386.178 430.735 386.271 430.734C386.395 430.734 386.504 430.734 386.597 430.734C387.248 430.733 387.76 430.903 388.133 431.243C388.536 431.553 388.831 432.095 389.019 432.87C389.58 435.195 389.924 437.535 390.052 439.892C390.21 442.248 390.182 444.604 389.969 446.961C389.816 448.543 389.679 450.093 389.557 451.613C389.466 453.132 389.453 454.683 389.517 456.264C389.645 459.426 389.727 462.558 389.763 465.658C389.798 468.759 389.834 471.891 389.869 475.053C389.901 475.673 389.871 476.294 389.779 476.914C389.687 477.503 389.579 478.108 389.456 478.728C389.302 479.845 389.133 480.946 388.949 482.031C388.765 483.117 388.751 484.248 388.907 485.426C389.002 486.326 388.925 487.24 388.679 488.171C388.432 489.101 388.154 490.017 387.845 490.916C387.598 491.63 387.274 492.312 386.872 492.964C386.501 493.647 386.114 494.298 385.712 494.919C384.815 496.409 383.762 497.666 382.554 498.691C381.347 499.716 379.828 500.323 377.999 500.511C376.511 500.637 375.023 500.795 373.535 500.983C372.078 501.202 370.605 501.312 369.117 501.315C367.907 501.316 366.667 501.21 365.395 500.994C364.155 500.779 362.945 500.44 361.766 499.976C360.587 499.544 359.47 498.987 358.415 498.307C357.36 497.657 356.413 496.883 355.575 495.985C355.047 495.459 354.488 494.933 353.898 494.406C353.339 493.911 352.718 493.354 352.035 492.735C352.345 492.176 352.623 491.617 352.87 491.059C353.148 490.5 353.473 490.004 353.845 489.569C354.618 488.607 355.346 488.125 356.029 488.124C356.37 488.124 356.726 488.232 357.099 488.448C357.471 488.665 357.875 488.99 358.309 489.423C360.172 491.25 362.205 492.643 364.408 493.601C366.642 494.559 369.077 495.036 371.712 495.032C373.945 495.029 375.758 494.53 377.152 493.536C378.577 492.573 379.644 491.021 380.354 488.88C381.065 486.802 381.635 484.708 382.066 482.599C382.497 480.521 382.789 478.366 382.941 476.133C381.392 476.848 379.904 477.533 378.479 478.186C377.084 478.839 375.675 479.477 374.249 480.099C372.111 481.001 370.05 481.453 368.065 481.456C365.771 481.46 363.46 480.858 361.133 479.652C357.999 477.982 355.592 475.815 353.914 473.151C352.267 470.456 351.1 467.45 350.413 464.133C349.851 461.374 349.661 458.646 349.843 455.948C350.026 453.25 350.502 450.537 351.274 447.807C351.49 447.031 351.69 446.256 351.875 445.481C352.06 444.705 352.26 443.93 352.476 443.154C353.278 440.052 354.654 437.554 356.605 435.66C358.556 433.735 361.05 432.321 364.087 431.417C364.8 431.168 365.497 430.997 366.179 430.903C366.892 430.809 367.605 430.761 368.319 430.76C370.644 430.757 372.877 431.358 375.019 432.564C376.26 433.276 377.501 433.972 378.742 434.652C380.015 435.332 381.349 436.075 382.745 436.879ZM383.378 456.319C383.313 454.49 383.28 452.691 383.277 450.924C383.274 449.126 383.272 447.312 383.269 445.482C383.269 445.234 383.284 444.971 383.315 444.692C383.345 444.413 383.283 444.227 383.128 444.134C382.569 443.639 382.041 443.112 381.544 442.555C381.047 441.997 380.535 441.44 380.007 440.883C379.51 440.325 378.967 439.799 378.377 439.304C377.818 438.808 377.182 438.391 376.468 438.05C375.351 437.525 374.204 437.217 373.025 437.125C371.878 437.003 370.73 436.849 369.583 436.665C369.335 436.634 369.087 436.619 368.839 436.62C368.621 436.589 368.389 436.574 368.141 436.574C365.846 436.577 363.972 437.51 362.517 439.373C362.177 439.807 361.867 440.288 361.589 440.816C361.342 441.312 361.017 441.762 360.614 442.166C359.654 443.191 358.881 444.292 358.293 445.471C357.737 446.651 357.305 447.86 356.996 449.101C356.688 450.342 356.488 451.613 356.397 452.916C356.306 454.187 356.261 455.459 356.263 456.73C356.267 459.458 356.689 462.109 357.53 464.681C358.402 467.222 359.491 469.701 360.796 472.118C360.983 472.459 361.216 472.815 361.496 473.187C361.806 473.527 362.147 473.775 362.52 473.93C364.071 474.672 365.56 475.243 366.987 475.644C368.445 476.014 370.042 476.198 371.779 476.195C372.709 476.132 373.592 475.976 374.429 475.726C375.297 475.477 376.087 475.042 376.799 474.421C377.697 473.675 378.595 472.93 379.493 472.185C380.423 471.408 381.321 470.616 382.188 469.809C382.497 469.529 382.76 469.172 382.977 468.738C383.193 468.272 383.317 467.838 383.347 467.435C383.406 465.575 383.419 463.73 383.386 461.9C383.383 460.04 383.38 458.179 383.378 456.319Z" fill="#0033E6"/>
<path d="M418.063 420.61C418.002 421.51 417.942 422.347 417.881 423.122C417.82 423.897 417.79 424.657 417.791 425.401C417.702 428.285 417.07 431.03 415.896 433.636C414.752 436.211 413.391 438.663 411.813 440.991C411.379 440.743 410.944 440.527 410.51 440.341C410.076 440.125 409.688 439.862 409.346 439.552C408.725 439.026 408.384 438.515 408.321 438.019C408.289 437.492 408.552 436.902 409.109 436.25C410.1 435.102 410.733 433.845 411.01 432.48C411.319 431.116 411.518 429.72 411.609 428.294C411.7 427.022 411.73 425.751 411.697 424.48C411.664 423.208 411.647 421.906 411.645 420.573C412.296 420.417 412.916 420.277 413.504 420.152C414.124 420.027 414.729 419.964 415.318 419.963C416.31 419.962 417.225 420.177 418.063 420.61ZM422.701 476.695C423.383 476.477 424.096 476.259 424.839 476.041C425.583 475.791 426.374 475.527 427.21 475.246C427.49 475.897 427.755 476.47 428.003 476.966C428.283 477.462 428.454 477.958 428.517 478.454C428.612 479.384 428.83 480.205 429.172 480.918C429.545 481.6 429.995 482.204 430.523 482.73C431.082 483.256 431.687 483.736 432.339 484.169C432.991 484.571 433.674 484.942 434.387 485.282C435.566 485.87 436.761 486.318 437.97 486.626C439.211 486.934 440.452 487.088 441.692 487.086C444.048 487.083 446.156 486.537 448.015 485.449C449.905 484.361 451.406 482.762 452.519 480.652C453.045 479.721 453.292 478.76 453.26 477.767C453.227 476.775 452.885 475.815 452.232 474.885C451.58 473.987 450.881 473.151 450.136 472.377C449.39 471.572 448.475 470.953 447.389 470.52C445.993 469.995 444.597 469.501 443.201 469.038C441.836 468.544 440.456 468.081 439.06 467.648C437.602 467.185 436.144 466.769 434.686 466.399C433.228 466.029 431.801 465.535 430.405 464.917C429.474 464.515 428.574 463.989 427.705 463.339C426.867 462.689 426.091 461.993 425.377 461.25C424.787 460.661 424.351 459.964 424.071 459.159C423.822 458.322 423.805 457.423 424.021 456.461C424.144 455.934 424.205 455.407 424.205 454.879C424.204 454.352 424.234 453.825 424.295 453.298C424.417 451.406 424.911 449.731 425.777 448.273C426.674 446.814 427.788 445.572 429.12 444.547C430.483 443.522 432.001 442.714 433.675 442.122C435.348 441.531 437.053 441.172 438.789 441.045C439.099 440.983 439.409 440.951 439.719 440.951C440.029 440.95 440.339 440.95 440.649 440.949C442.045 440.948 443.425 441.054 444.789 441.269C446.154 441.453 447.534 441.637 448.929 441.821C450.201 442.006 451.457 442.469 452.699 443.211C453.971 443.923 455.089 444.805 456.051 445.858C457.045 446.879 457.822 448.041 458.382 449.343C458.973 450.613 459.223 451.93 459.131 453.295C459.101 453.574 459.07 453.869 459.04 454.179C459.04 454.458 458.978 454.721 458.855 454.97C458.762 455.187 458.607 455.389 458.391 455.575C458.205 455.73 457.91 455.824 457.507 455.855C456.918 455.918 456.422 455.981 456.019 456.043C455.616 456.075 455.244 456.091 454.903 456.091C454.314 456.092 453.864 455.984 453.554 455.768C453.243 455.52 452.948 455.056 452.668 454.374C452.357 453.63 452.046 452.886 451.735 452.143C451.455 451.368 451.128 450.624 450.755 449.912C450.351 449.137 449.916 448.517 449.45 448.053C448.984 447.589 448.457 447.233 447.867 446.986C447.309 446.738 446.688 446.584 446.006 446.523C445.355 446.431 444.642 446.385 443.866 446.387C440.425 446.391 437.123 447.094 433.963 448.494C433.126 448.867 432.383 449.38 431.732 450.032C431.082 450.653 430.556 451.367 430.154 452.173C429.783 452.949 429.552 453.756 429.46 454.593C429.368 455.43 429.462 456.236 429.742 457.011C429.898 457.445 430.147 457.879 430.488 458.312C430.861 458.746 431.249 459.071 431.653 459.287C432.583 459.751 433.53 460.184 434.492 460.585C435.484 460.956 436.492 461.265 437.516 461.511C439.656 462.066 441.796 462.591 443.937 463.084C446.108 463.577 448.294 464.039 450.497 464.47C452.109 464.808 453.459 465.427 454.546 466.324C455.632 467.222 456.517 468.368 457.201 469.762C457.823 471.032 458.352 472.319 458.788 473.62C459.224 474.922 459.614 476.255 459.957 477.618C460.3 478.982 460.224 480.269 459.73 481.479C459.235 482.658 458.648 483.822 457.967 484.97C457.039 486.552 455.987 487.841 454.81 488.835C453.633 489.828 452.348 490.621 450.953 491.212C449.59 491.772 448.117 492.162 446.536 492.381C444.955 492.6 443.312 492.711 441.607 492.714C439.405 492.717 437.296 492.41 435.28 491.793C433.264 491.206 431.278 490.434 429.324 489.476C427.09 488.362 425.366 486.66 424.154 484.367C422.972 482.074 422.488 479.517 422.701 476.695Z" fill="#0033E6"/>
<path d="M468.09 775.921C465.586 773.239 460.407 766.022 456.647 765.472C448.878 759.383 430.199 755.534 424.916 753.206C416.386 749.448 408.896 741.073 399.886 738.159C392.778 735.86 386.117 732.925 378.476 732.223C367.702 731.234 356.994 732.105 346.283 731.938C344.351 731.908 332.05 732.191 331.802 734.936C331.476 738.552 332.393 742.091 334.56 745.085C335.758 746.74 338.276 750.653 339.503 752.558C337.208 749.574 332.091 748.048 329.493 745.542C325.806 741.985 317.488 740.654 312.888 739.723C306.546 738.44 300.075 737.667 293.772 736.295C285.647 734.526 238.569 729.967 241.438 745.369C242.38 750.427 241.195 748.084 237.366 746.54C233.33 744.913 228.795 744.547 224.879 742.418C214.485 736.764 202.934 731.363 190.789 730.944C179.051 730.539 167.582 731.478 155.992 731.492C146.206 731.504 137.931 735.704 129.642 740.637C113.347 750.335 95.7682 759.5 95.0423 780.536C94.718 789.935 96.1362 799.511 95.8096 808.977C95.6864 812.546 95.754 816 94.7688 819.432C94.416 820.662 93.5654 827.993 92.4601 824.404C91.9224 822.658 91.1731 821.648 90.1783 820.148C85.9032 813.704 78.7214 822.788 78.5397 828.053C77.9916 843.939 76.8459 860.5 77.9347 876.555C79.0409 892.865 79.2176 909.762 78.653 926.124C78.4017 933.408 77.2791 936.614 73.7209 942.371C72.8931 943.71 71.5447 943.409 73.7075 944.167C76.866 945.275 80.6062 945.458 83.514 947.129C88.6788 950.095 94.9699 951.652 100.414 954.269C105.115 956.529 112.03 957.447 117.233 958.138L117.377 958.157C127.281 959.472 137.383 959.423 147.315 960.453C153.669 961.112 162.367 963.408 168.737 961.824C180.1 958.997 194.401 962.615 206.436 961.619C233.221 959.401 260.581 959.655 287.1 954.979C305.375 951.757 323.193 946.405 341.219 942.032C356.081 938.427 371.346 937.195 386.552 935.97C400.613 934.838 414.664 933.702 428.733 932.569C438.591 931.774 448.559 932.678 458.36 931.211C465.607 930.126 472.038 929.432 477.391 924.436C481.544 920.56 483.776 913.182 484.087 907.764C484.328 903.549 484.875 898.835 483.856 894.739C483.018 891.369 481.323 886.502 481.442 883.047C481.661 876.707 484.423 872.684 484.65 866.108C484.91 858.556 484.292 851.137 484.553 843.568C484.749 837.89 485.815 832.325 486.007 826.763C486.204 821.065 492.462 817.072 492.661 811.304C492.987 801.844 490.783 796.614 484.23 789.593C479.407 784.426 472.911 781.087 468.09 775.921Z" fill="#0038FF" stroke="#FFEED8" stroke-width="2.55211" stroke-linecap="round"/>
<path d="M471.762 873.944C462.024 868.407 450.957 863.266 445.59 852.911C442.455 846.862 440.752 840.603 438.698 834.181C437.065 829.074 435.111 824.419 431.454 820.408C427.371 815.93 422.954 811.914 419.136 807.177C415.815 803.056 412.351 799.053 408.967 794.983C405.077 790.305 401.839 785.069 397.562 780.756C396.436 779.62 395.253 778.595 393.851 777.833C388.39 774.863 382.567 772.444 376.955 769.766C373.155 767.952 369.207 766.466 365.36 764.761C363 763.716 360.822 762.247 358.596 760.952C356.697 759.847 356.34 758.546 355.344 756.835C355.079 756.381 354.18 754.134 354.778 753.689C355.267 753.325 356.111 753.284 356.714 753.135C359.529 752.434 362.475 752.465 365.355 752.501C370.4 752.566 375.451 752.818 380.479 753.269C385.5 753.72 390.219 755.229 394.89 757.043C399.106 758.681 403.032 761.486 406.513 764.329C409.198 766.522 411.906 768.7 414.162 771.349C416.41 773.989 418.914 777.107 419.56 780.615C420.606 786.294 421.521 792.121 423.223 797.649C424.877 803.018 427.385 808.097 429.092 813.452C429.843 815.809 432.046 818.454 431.961 820.918" stroke="#FFEED8" stroke-width="2.30177" stroke-linecap="round"/>
<path d="M390.66 839.343C383.223 833.026 374.393 828.444 366.295 823.062C360.148 818.977 354.414 814.793 349.157 809.6C345.046 805.54 341.643 800.923 337.97 796.483C331.359 788.492 323.502 782.125 314.768 776.591C307.029 771.687 298.726 767.971 290.444 764.102C284.703 761.421 279.346 758.057 273.602 755.373C271.285 754.29 268.849 753.277 266.687 751.9C265.811 751.343 264.658 750.542 264.482 749.415C264.077 746.834 266.228 746.076 268.382 745.31C276.092 742.567 284.761 743.224 292.772 743.796C299.524 744.277 306.118 745.725 312.429 748.179C319.646 750.984 326.455 755.332 332.691 759.885C340.165 765.343 347.774 771.605 353.58 778.851C356.649 782.681 358.881 786.777 360.709 791.325C362.535 795.87 364.44 800.327 365.901 805.006C367.473 810.042 368.862 814.893 371.493 819.504C373.998 823.894 376.502 828.648 380.511 831.861C382.276 833.277 384.421 834.445 386.448 835.439C387.49 835.95 388.501 836.59 389.585 836.993" stroke="#FFEED8" stroke-width="2.30177" stroke-linecap="round"/>
<path d="M388.805 848.533C394.582 848.732 398.64 855.293 400.234 860.181C402.324 866.589 400.414 872.443 396.735 877.824C395.143 880.151 393.115 883.127 390.318 884.112C386.087 885.603 380.456 883.999 376.301 883.222C369.347 881.921 362.236 879.355 356.763 874.753C351.537 870.358 347.644 864.722 344.706 858.618C339.583 847.976 334.528 837.214 327.025 827.995C320.732 820.263 313.227 813.444 305.705 806.937C297.761 800.064 289.266 794.078 280.522 788.283C275.434 784.911 270.221 781.883 264.936 778.847C263.409 777.97 261.724 777.137 260.655 775.701C259.358 773.961 257.751 772.329 257.96 770.008C258.265 766.626 261.172 765.023 264.312 765.602C269.59 766.574 274.952 768.546 279.972 770.382C283.082 771.52 286.076 772.911 289.066 774.326C292.368 775.889 295.76 777.41 298.805 779.448C303.827 782.81 308.438 786.816 312.421 791.354C315.518 794.883 318.301 798.671 321.316 802.272C328.064 810.331 336.666 817.045 345.383 822.847C353.468 828.227 361.945 833.194 370.478 837.836C376.539 841.132 382.57 844.401 388.965 846.997C390.401 847.58 391.89 848.06 393.39 848.456C393.573 848.504 394.412 848.641 394.535 848.773C394.596 848.838 393.234 849.457 393.013 849.449" stroke="#FFEED8" stroke-width="2.30177" stroke-linecap="round"/>
<path d="M329.466 926.086C326.234 924.328 323.534 922.147 321.176 919.311C318.804 916.456 316.808 913.255 314.834 910.119C312.631 906.62 310.408 903.112 308.412 899.49C306.093 895.283 303.887 890.97 302.006 886.549C300.033 881.914 298.728 877.109 297.359 872.276C294.88 863.53 290.8 855.347 287.679 846.822C285.573 841.069 282.972 835.573 280.16 830.138C277.888 825.744 276.698 820.931 274.462 816.535C272.567 812.81 270.212 809.237 266.968 806.576C262.026 802.521 256.103 800.41 250.225 798.085C243.146 795.285 235.883 792.829 229.055 789.431C223.634 786.734 218.355 783.805 212.905 781.154C206.341 777.961 199.533 775.372 192.322 774.116C188.043 773.37 183.412 772.683 179.28 774.437C175.417 776.076 173.039 780.019 171.549 783.764C169.86 788.007 169.388 792.023 169.94 796.568C170.57 801.765 172.058 806.664 174.344 811.368C175.674 814.105 177.113 816.883 179.227 819.106C182.554 822.605 187.323 824.21 191.807 825.654C200.074 828.317 208.805 828.939 217.117 831.325C223.102 833.042 227.837 837.029 232.884 840.456C236.289 842.768 239.766 844.942 243.006 847.487C246.202 849.996 249.233 852.697 252.397 855.242C258.633 860.258 265.341 864.625 272.486 868.227C282.8 873.426 291.999 879.874 298.1 889.883C299.794 892.662 301.489 895.462 303.692 897.871C305.621 899.98 307.59 901.972 309.594 904.007C311.655 906.098 313.319 908.634 315.137 910.933C316.887 913.145 318.614 915.39 320.401 917.571C321.824 919.308 323.154 921.26 324.848 922.746C325.44 923.266 326.164 924.077 326.926 924.274C327.615 924.452 329.284 925.456 327.786 924.486" stroke="#FFEED8" stroke-width="2.30177" stroke-linecap="round"/>
<path d="M264.992 904.83C264.094 904.492 263.342 903.955 262.559 903.455C259.155 901.282 255.691 899.172 252.24 897.048C238.455 888.564 224.183 880.523 210.937 871.488C205.98 868.107 200.88 864.825 196.068 861.318C190.656 857.373 185.608 853.142 180.353 849.079C175.913 845.645 171.292 842.351 166.741 839.005C162.173 835.646 157.774 832.129 153.059 828.893C146.953 824.702 139.371 820.119 131.952 817.937C127.692 816.684 123.526 816.731 121.081 819.018C119.975 820.054 119.985 821.834 120.136 823.283C120.497 826.737 122.246 830.914 124.536 834.262C131.16 843.948 142.435 851.676 154.319 857.697C160.135 860.643 166.251 863.05 172.218 865.727C177.443 868.073 182.55 870.615 187.74 873.022C199.652 878.546 211.893 883.179 224.019 888.247C233.384 892.161 242.524 896.358 252.027 899.941C256.666 901.691 261.419 903.689 265.969 905.405" stroke="#FFEED8" stroke-width="2.30177" stroke-linecap="round"/>
<path d="M254.966 931.784C254.407 931.765 253.894 931.51 253.37 931.301C251.094 930.389 248.795 929.557 246.501 928.708C237.338 925.316 227.98 922.504 219.022 918.412C215.669 916.881 212.254 915.491 208.96 913.793C205.256 911.883 201.705 909.581 198.069 907.507C194.995 905.753 191.846 904.193 188.726 902.559C185.594 900.919 182.53 899.073 179.338 897.598C175.203 895.688 170.178 893.9 165.66 894.321C163.065 894.563 160.749 895.998 159.782 898.969C159.345 900.314 159.659 901.987 159.995 903.302C160.796 906.436 162.497 909.788 164.355 912.179C169.732 919.094 177.364 922.612 185.039 924.317C188.796 925.152 192.625 925.378 196.419 925.909C199.741 926.375 203.032 927.066 206.346 927.601C213.95 928.83 221.584 929.109 229.228 929.836C235.133 930.398 240.96 931.301 246.885 931.505C249.777 931.605 252.775 931.901 255.611 931.999" stroke="#FFEED8" stroke-width="2.30177" stroke-linecap="round"/>
<path d="M806.286 866.329C810.616 880.771 836.019 1009.74 835.84 1026.5L933.354 993.475C932.607 987.338 889.867 847.016 887.01 821.759C883.651 792.062 882.715 762.204 879.894 732.473C877.01 702.079 871.803 671.866 866.931 641.738C862.19 612.428 859.382 581.545 847.709 553.437L847.708 553.435C846.008 549.343 838.22 530.59 825.579 534.895C815.62 538.287 819.49 549.261 820.445 556.806C821.4 564.35 823.107 618.158 819.59 617.278C814.667 616.048 804.067 563.67 798.749 555.719C793.431 547.769 780.944 536.131 765.703 536.564C752.836 536.93 763.15 556.859 765.09 562.308C767.029 567.757 784.774 621.954 784.473 624.598C783.927 629.377 752.848 583.676 751.866 582.734C746.3 577.394 741.856 566.919 730.201 566.724C721.146 566.573 714.357 573.229 713.894 577.959C713.218 584.861 719.57 588.738 724.769 595.746C729.967 602.753 745.203 633.878 742.304 636.39C740.371 638.064 704.449 597.396 703.117 596.585C688.879 587.92 679.733 601.396 678.493 610.866C676.966 622.525 684.989 633.105 692.051 642.751C701.188 655.232 710.306 667.756 719.921 680.048C729.399 692.165 740.561 703.67 748.099 716.54C752.348 723.794 759.507 735.514 755.947 744.168C754.474 747.749 743.155 736.703 742.446 736.081C738.513 732.632 733.761 727.725 726.258 727.513C711.348 727.093 687.437 739.934 689.519 748.724C690.473 752.747 702.894 762.827 706.304 765.72C715.234 773.295 725.986 779.963 734.231 787.906C757.887 810.697 797.947 838.51 806.286 866.329Z" fill="#0033E6" stroke="#0033E6" stroke-width="6.1827" stroke-linecap="round"/>
<path d="M787.152 879.945C782.07 894.086 748.22 1021.02 746.85 1037.69L664.992 1000.07C666.201 994.011 716.172 856.642 720.958 831.68C726.586 802.329 730.119 772.698 735.281 743.287C740.557 713.22 747.84 683.447 754.823 653.741C761.617 624.842 766.873 594.285 779.592 566.922L779.592 566.92C781.444 562.936 789.929 544.68 800.539 549.58C808.897 553.441 804.53 564.158 803.012 571.61C801.494 579.061 795.109 632.457 798.25 631.756C802.646 630.775 816.64 579.237 821.992 571.596C827.344 563.955 839.271 553.001 852.495 554.181C863.66 555.177 852.869 574.477 850.685 579.798C848.501 585.119 828.123 638.114 828.145 640.757C828.184 645.534 859.393 601.637 860.334 600.749C865.664 595.715 870.485 585.523 880.645 585.902C888.54 586.196 893.842 593.145 893.815 597.869C893.774 604.762 887.893 608.304 882.731 615.013C877.569 621.722 861.475 651.909 863.77 654.548C865.3 656.308 900.264 617.651 901.497 616.911C914.678 608.999 921.41 622.842 921.627 632.315C921.894 643.977 913.948 654.099 906.924 663.34C897.837 675.295 888.761 687.296 879.274 699.04C869.922 710.618 859.161 721.505 851.429 733.926C847.071 740.927 839.773 752.224 842.084 761C843.04 764.632 853.896 754.209 854.57 753.626C858.307 750.391 862.889 745.747 869.438 745.905C882.452 746.22 902.092 760.158 899.479 768.792C898.284 772.743 886.556 782.152 883.325 784.86C874.863 791.95 864.899 798.049 857.001 805.539C834.338 827.029 796.943 852.705 787.152 879.945Z" fill="#FFEED8" stroke="#0033E6" stroke-width="6.1827" stroke-linecap="round"/>
<path d="M689.247 368.14L695.003 416.298" stroke="#0033E6" stroke-width="3.6445" stroke-linecap="round"/>
<path d="M710 354.465L715.396 399.613" stroke="#0033E6" stroke-width="3.6445" stroke-linecap="round"/>
<path d="M693.488 395.108C692.888 395.18 701.855 383.292 702.692 382.249C705.279 379.026 708.398 374.298 712.158 372.524" stroke="#0033E6" stroke-width="3.6445" stroke-linecap="round"/>
<path d="M726.204 370.845L729.802 400.944" stroke="#0033E6" stroke-width="3.6445" stroke-linecap="round"/>
<path d="M743.74 372.819C743.852 376.756 737.183 392.938 746.019 391.882C752.643 391.09 751.188 382.341 750.386 377.339C750.132 375.755 748.781 376.445 750.482 377.667C753.403 379.766 756.667 382.542 758.97 385.302C764.091 391.439 767.174 398.594 768.124 406.539C768.263 407.708 768.203 422.862 764.154 419.677C762.349 418.258 762.319 410.79 762.346 408.813C762.378 406.481 763.27 403.545 763.877 401.28C765.2 396.334 765.402 392.273 765.805 387.142C766.448 378.953 765.952 367.751 763.055 359.882C760.256 352.278 762.538 360.061 763.97 363.278C766.303 368.519 769.318 379.199 774.002 382.883C778.345 386.299 775.507 360.994 782.368 360.174C784.498 359.919 788.882 368.644 789.275 370.655C789.856 373.631 790.954 376.191 791.331 379.342" stroke="#0033E6" stroke-width="3.6445" stroke-linecap="round"/>
<path d="M790.108 420.193C786.981 420.567 785.053 420.199 783.936 423.418C781.974 429.075 780.867 435.565 781.471 441.578C782.413 450.957 783.71 460.31 784.829 469.67" stroke="#0033E6" stroke-width="3.6445" stroke-linecap="round"/>
<path d="M772.277 449.801C780.855 448.775 790 448.667 796.88 442.789" stroke="#0033E6" stroke-width="3.6445" stroke-linecap="round"/>
<path d="M807.676 439.463C808.624 447.397 810.559 455.71 809.551 463.662" stroke="#0033E6" stroke-width="3.6445" stroke-linecap="round"/>
<path d="M813.816 439.747C814.172 442.726 822.488 460.778 823.297 459.475C826.468 454.371 826.231 447.216 828.275 441.524C829.586 437.871 831.264 434.213 832.039 430.445" stroke="#0033E6" stroke-width="3.6445" stroke-linecap="round"/>
<path d="M838.778 435.745C841.644 435.403 845.678 435.656 848.296 434.494C853.696 432.099 855.354 423.952 856.617 418.97C857.429 415.763 852.178 416.844 850.284 417.07C846.363 417.539 845.736 420.676 844.928 423.816C843.505 429.344 839.886 440.057 847.207 442.879C852.925 445.083 861.187 444.614 865.823 440.653" stroke="#0033E6" stroke-width="3.6445" stroke-linecap="round"/>
<path d="M803.892 426.732C806.168 426.167 804.958 422.009 805.499 426.54" stroke="#0033E6" stroke-width="3.6445" stroke-linecap="round"/>
<path d="M725.151 354.611C724.168 346.386 724.669 350.582 725.343 356.218" stroke="#0033E6" stroke-width="3.6445" stroke-linecap="round"/>
</g>
<rect x="3" y="3" width="994" height="994" rx="6" stroke="#0033E6" stroke-width="6"/>
<defs>
<clipPath id="clip0_395_1367">
<rect width="1000" height="1000" rx="9" fill="white"/>
</clipPath>
</defs>
</svg>
