<svg width="1000" height="1000" viewBox="0 0 1000 1000" fill="none" xmlns="http://www.w3.org/2000/svg">
<g clip-path="url(#clip0_394_368)">
<rect width="1000" height="1000" rx="9" fill="#FFEED8"/>
<path d="M75.9964 179.884C76.0281 177.089 76.8426 174.713 78.4401 172.754C80.0375 170.795 82.0041 169.508 84.34 168.892C86.9454 168.205 89.3715 168.478 91.6185 169.711C93.9553 170.92 95.5147 173.007 96.2965 175.972C96.6756 177.41 96.8631 178.85 96.8591 180.292L96.7602 235.665C96.771 238.257 95.999 240.43 94.444 242.185C92.9789 243.917 91.1682 245.067 89.012 245.636C86.227 246.37 83.5762 246.156 81.0597 244.994C78.633 243.809 77.0406 241.778 76.2825 238.903C75.9982 237.825 75.8486 236.712 75.8338 235.563L75.9964 179.884ZM87.9757 162.456C85.1008 163.214 82.4831 162.944 80.1226 161.644C77.7384 160.255 76.1672 158.123 75.4091 155.248C74.4851 151.744 74.9822 148.346 76.9005 145.054C78.9087 141.738 81.6646 139.618 85.1684 138.694C88.1332 137.912 90.7627 138.227 93.0571 139.64C95.4176 140.939 96.9769 143.026 97.7351 145.901C98.6828 149.495 98.1975 152.938 96.2791 156.23C94.3371 159.433 91.5693 161.508 87.9757 162.456ZM139.315 155.836C141.561 155.243 143.706 155.542 145.749 156.733C147.793 157.924 149.111 159.642 149.703 161.888C150.295 164.134 149.996 166.279 148.805 168.323C147.615 170.366 145.896 171.684 143.65 172.276L135.295 174.48L135.208 225.526C135.219 228.117 134.492 230.279 133.027 232.011C131.628 233.629 129.85 234.722 127.694 235.291C124.999 236.001 122.348 235.788 119.742 234.649C117.202 233.397 115.552 231.334 114.794 228.459C114.557 227.561 114.431 226.537 114.417 225.388L114.542 179.953C112.362 180.431 110.262 180.12 108.242 179.02C106.289 177.805 105.016 176.075 104.423 173.829C103.831 171.583 104.13 169.438 105.321 167.395C106.511 165.351 108.23 164.033 110.476 163.441L114.519 162.375L114.624 146.925C114.637 144.423 115.376 142.306 116.841 140.575C118.372 138.729 120.261 137.511 122.507 136.918C125.202 136.208 127.763 136.445 130.19 137.631C132.617 138.817 134.197 140.802 134.932 143.587C135.216 144.665 135.365 145.779 135.38 146.928L135.407 156.866L139.315 155.836ZM162.267 128.019C162.824 125.758 163.793 123.965 165.173 122.64C166.529 121.225 168.106 120.281 169.903 119.807C172.418 119.144 174.788 119.384 177.011 120.527C179.324 121.647 180.813 123.464 181.476 125.98C182.021 128.046 181.847 130.302 180.954 132.747L174.126 151.124C172.969 154.023 171.087 155.816 168.482 156.503C166.236 157.096 164.07 156.898 161.984 155.911C159.988 154.9 158.693 153.271 158.101 151.025C157.746 149.678 157.759 148.089 158.141 146.259L162.267 128.019ZM215.544 212.556C208.626 214.38 202.802 214.523 198.072 212.984C193.343 211.444 189.6 208.732 186.846 204.846C185.904 203.461 185.267 202.139 184.936 200.881C184.225 198.186 184.633 195.724 186.159 193.496C187.686 191.268 189.751 189.81 192.357 189.123C194.333 188.602 196.317 188.655 198.308 189.283C200.276 189.822 201.993 191.05 203.46 192.969C205.774 195.914 208.773 196.901 212.457 195.93C214.523 195.385 216.055 194.453 217.052 193.133C218.049 191.813 218.382 190.524 218.05 189.266C217.671 187.829 216.564 186.727 214.729 185.962C212.959 185.083 210.322 184.193 206.818 183.292C202.793 182.239 199.444 181.201 196.771 180.176C194.075 179.061 191.53 177.426 189.136 175.271C186.832 173.092 185.218 170.251 184.294 166.747C183.228 162.704 183.367 158.68 184.713 154.673C186.035 150.577 188.535 146.939 192.213 143.759C195.866 140.49 200.434 138.132 205.914 136.687C211.933 135.1 217.362 134.917 222.201 136.139C227.016 137.272 230.831 139.533 233.646 142.922C234.631 144.104 235.324 145.458 235.727 146.986C236.367 149.411 236.013 151.715 234.666 153.895C233.296 155.986 231.398 157.352 228.972 157.991C227.265 158.442 225.485 158.431 223.631 157.959C221.753 157.397 219.925 156.294 218.146 154.649C217.119 153.671 215.747 153.023 214.03 152.707C212.38 152.278 210.746 152.276 209.129 152.703C207.422 153.153 206.103 153.981 205.172 155.188C204.33 156.37 204.099 157.68 204.478 159.118C204.952 160.915 206.119 162.241 207.978 163.096C209.927 163.927 212.845 164.791 216.733 165.687C220.758 166.74 224.05 167.745 226.609 168.704C229.257 169.639 231.677 171.163 233.868 173.276C236.148 175.365 237.739 178.116 238.639 181.53C239.729 185.663 239.58 189.834 238.192 194.044C236.87 198.14 234.292 201.847 230.458 205.164C226.625 208.481 221.653 210.945 215.544 212.556ZM321.206 106.571C323.901 105.86 326.36 106.077 328.584 107.22C330.807 108.363 332.321 110.462 333.127 113.517C333.506 114.954 333.693 116.394 333.69 117.837L333.591 173.21C333.601 175.801 332.829 177.975 331.274 179.73C329.809 181.462 327.999 182.612 325.842 183.18C323.147 183.891 320.541 183.666 318.025 182.504C315.485 181.252 313.835 179.188 313.077 176.313C312.864 175.505 312.743 174.864 312.715 174.391C311.35 178.691 309.278 182.312 306.499 185.255C303.72 188.198 300.264 190.214 296.131 191.304C289.483 193.057 283.935 191.878 279.488 187.766C275.016 183.564 271.774 177.645 269.76 170.008C268.836 166.504 268.2 162.636 267.853 158.404C267.405 151.604 267.997 145.106 269.63 138.91C271.263 132.714 273.989 127.383 277.808 122.916C281.627 118.45 286.456 115.447 292.296 113.907C296.429 112.817 300.264 113.151 303.802 114.908C307.407 116.552 310.416 119.218 312.83 122.905L312.827 117.429C312.858 114.634 313.685 112.302 315.306 110.433C316.903 108.475 318.87 107.187 321.206 106.571ZM302.008 169.864C305.512 168.94 308.218 166.449 310.126 162.39C312.011 158.242 312.763 153.623 312.382 148.535C312.191 145.991 311.859 143.82 311.385 142.023C310.414 138.34 308.913 135.565 306.884 133.698C304.83 131.741 302.366 131.142 299.491 131.9C295.987 132.824 293.281 135.315 291.373 139.374C289.554 143.409 288.769 148.084 289.018 153.399C289.208 155.943 289.517 158.024 289.943 159.641C290.915 163.324 292.472 166.133 294.615 168.066C296.759 169.999 299.223 170.598 302.008 169.864Z" fill="#0033E6"/>
<path d="M831.803 104.357C834.497 105.071 836.594 106.588 838.094 108.908C839.618 111.138 839.999 113.69 839.237 116.564C839.047 117.282 838.558 118.402 837.77 119.923L793.723 196.922C792.315 199.336 790.489 200.967 788.246 201.814C786.116 202.596 783.974 202.701 781.818 202.13C779.124 201.416 777.015 199.944 775.491 197.714C773.991 195.394 773.622 192.797 774.383 189.923C774.621 189.025 774.857 188.318 775.089 187.803C771.689 190.843 768.053 192.956 764.183 194.141C760.426 195.26 756.482 195.272 752.35 194.178C745.704 192.417 741.464 188.65 739.629 182.877C737.818 177.015 737.924 170.266 739.947 162.632C740.875 159.13 742.234 155.453 744.023 151.601C746.994 145.468 750.72 140.111 755.202 135.532C759.683 130.952 764.688 127.664 770.215 125.669C775.742 123.673 781.424 123.448 787.262 124.995C791.393 126.09 794.575 128.23 796.806 131.417C799.038 134.603 800.325 138.453 800.667 142.965L819.763 109.529C821.058 107.181 822.827 105.583 825.07 104.736C827.313 103.888 829.557 103.762 831.803 104.357ZM768.054 178.442C771.557 179.37 775.14 178.541 778.805 175.956C782.494 173.281 785.43 169.637 787.613 165.025C788.704 162.719 789.488 160.668 789.964 158.872C790.94 155.19 791.007 152.036 790.164 149.409C789.346 146.694 787.5 144.955 784.626 144.193C781.123 143.265 777.54 144.094 773.875 146.679C770.3 149.288 767.307 152.965 764.897 157.709C763.805 160.015 763.045 161.976 762.617 163.593C761.641 167.275 761.607 170.486 762.516 173.226C763.424 175.966 765.27 177.704 768.054 178.442ZM890.485 152.634C893.179 153.348 895.21 154.751 896.578 156.844C897.946 158.937 898.225 161.51 897.416 164.563C897.035 166 896.487 167.345 895.771 168.597L868.322 216.688C867.051 218.946 865.306 220.454 863.086 221.212C860.957 221.994 858.814 222.099 856.659 221.528C853.965 220.814 851.811 219.33 850.197 217.076C848.607 214.732 848.193 212.124 848.955 209.25C849.169 208.441 849.38 207.824 849.589 207.399C846.278 210.463 842.688 212.587 838.817 213.772C834.947 214.958 830.946 215.003 826.815 213.908C820.168 212.147 815.928 208.38 814.093 202.608C812.283 196.745 812.389 189.997 814.411 182.363C815.339 178.86 816.698 175.183 818.488 171.332C821.458 165.199 825.185 159.842 829.666 155.262C834.148 150.683 839.152 147.395 844.679 145.399C850.206 143.403 855.888 143.179 861.726 144.726C865.857 145.82 869.027 148.006 871.235 151.282C873.556 154.492 874.855 158.297 875.131 162.695L877.835 157.933C879.243 155.519 881.114 153.9 883.447 153.076C885.804 152.163 888.149 152.015 890.485 152.634ZM842.518 198.173C846.021 199.101 849.605 198.272 853.269 195.687C856.958 193.011 859.894 189.368 862.077 184.756C863.168 182.45 863.952 180.399 864.428 178.603C865.404 174.92 865.471 171.766 864.629 169.14C863.81 166.424 861.964 164.685 859.09 163.924C855.587 162.996 852.004 163.824 848.339 166.41C844.764 169.019 841.771 172.695 839.361 177.439C838.269 179.745 837.509 181.707 837.081 183.323C836.105 187.006 836.072 190.217 836.98 192.956C837.888 195.696 839.734 197.435 842.518 198.173ZM947.814 174.457C949.415 172.766 951.2 171.653 953.168 171.118C955.136 170.582 957.109 170.576 959.084 171.099C961.779 171.813 963.9 173.24 965.447 175.38C967.085 177.544 967.57 179.884 966.904 182.398C966.428 184.195 965.482 185.77 964.065 187.125L892.907 259.247C890.075 261.957 886.952 262.859 883.539 261.955C880.935 261.265 878.837 259.748 877.248 257.404C875.748 255.085 875.343 252.622 876.033 250.018C876.509 248.222 877.467 246.601 878.907 245.156L893.14 230.617L905.943 168.697C906.644 165.326 908.232 162.959 910.707 161.597C913.273 160.258 916.037 159.982 919.001 160.767C921.696 161.481 923.805 162.953 925.329 165.183C926.966 167.347 927.425 169.967 926.706 173.045C925.095 180.211 923.635 186.265 922.326 191.204C920.042 199.826 917.779 206.916 915.537 212.474C921.592 203.409 932.351 190.737 947.814 174.457Z" fill="#0033E6"/>
<path d="M385.881 278.291C385.534 278.364 385.223 278.437 384.95 278.51C384.676 278.583 384.411 278.638 384.156 278.674C383.572 278.674 383.125 278.565 382.814 278.346C382.504 278.108 382.34 277.67 382.322 277.031C382.322 276.028 382.34 275.033 382.376 274.047C382.431 273.044 382.477 272.04 382.513 271.036C382.586 268.061 382.65 265.113 382.705 262.193C382.76 259.255 382.805 256.298 382.842 253.323C382.86 253.122 382.851 252.922 382.814 252.721C382.796 252.52 382.769 252.274 382.732 251.982C381.929 252.036 381.153 252.091 380.405 252.146C379.657 252.201 378.909 252.246 378.16 252.283C377.357 250.458 377.868 249.518 379.693 249.463C379.912 249.463 380.131 249.463 380.35 249.463C380.588 249.445 380.816 249.426 381.035 249.408C381.254 249.408 381.473 249.408 381.692 249.408C381.911 249.39 382.166 249.372 382.458 249.353C382.495 248.569 382.522 247.793 382.541 247.026C382.577 246.242 382.614 245.466 382.65 244.699C382.668 244.407 382.668 244.124 382.65 243.851C382.632 243.577 382.632 243.294 382.65 243.002C382.705 241.743 383.024 240.693 383.608 239.854C384.211 238.996 385.114 238.293 386.319 237.746C387.249 237.308 388.18 236.997 389.111 236.815C390.06 236.632 391.018 236.541 391.986 236.541C392.424 236.541 392.862 236.559 393.3 236.596C393.738 236.632 394.185 236.678 394.641 236.733C395.006 236.769 395.28 236.879 395.462 237.061C395.663 237.244 395.745 237.527 395.709 237.91C395.672 238.202 395.636 238.485 395.599 238.759C395.563 239.032 395.508 239.306 395.435 239.58C395.289 240.054 395.088 240.374 394.833 240.538C394.577 240.684 394.212 240.757 393.738 240.757H393.218H392.424C392.278 240.757 392.141 240.757 392.013 240.757C391.885 240.757 391.748 240.748 391.602 240.73C391.529 240.73 391.456 240.73 391.383 240.73C391.329 240.712 391.265 240.702 391.192 240.702C390.261 240.702 389.485 240.949 388.865 241.442C388.244 241.934 387.669 242.518 387.14 243.194C386.866 243.559 386.647 243.951 386.483 244.371C386.337 244.772 386.282 245.21 386.319 245.685C386.355 246.269 386.364 246.862 386.346 247.464C386.346 248.067 386.346 248.706 386.346 249.381C387.532 249.417 388.709 249.463 389.878 249.518C391.046 249.572 392.214 249.618 393.382 249.655C393.528 250.695 393.446 251.434 393.135 251.872C392.825 252.292 392.232 252.493 391.356 252.474H389.467H386.346C386.218 254.592 386.081 256.718 385.935 258.853C385.808 260.97 385.707 263.106 385.634 265.259C385.579 267.413 385.561 269.576 385.579 271.748C385.598 273.901 385.698 276.082 385.881 278.291Z" fill="#0033E6"/>
<path d="M422.505 279.276C422.304 279.295 422.094 279.304 421.875 279.304C421.675 279.322 421.474 279.331 421.273 279.331C420.014 279.331 418.818 279.149 417.687 278.784C416.573 278.437 415.551 277.816 414.621 276.922C414.037 276.338 413.498 275.717 413.005 275.06C412.531 274.403 412.047 273.746 411.554 273.089C410.952 272.268 410.505 271.419 410.213 270.543C409.921 269.649 409.738 268.755 409.665 267.86C409.592 266.948 409.602 266.035 409.693 265.123C409.784 264.192 409.903 263.261 410.049 262.33C410.249 261.107 410.541 259.921 410.925 258.771C411.326 257.603 411.773 256.444 412.266 255.294C412.631 254.436 413.078 253.688 413.608 253.049C414.137 252.392 414.712 251.808 415.332 251.297C415.971 250.786 416.656 250.33 417.386 249.928C418.116 249.527 418.873 249.153 419.658 248.806C419.767 248.751 419.886 248.724 420.014 248.724C420.634 248.687 421.255 248.642 421.875 248.587C422.496 248.532 423.117 248.505 423.737 248.505C425.58 248.505 427.196 248.888 428.583 249.655C429.97 250.403 431.266 251.461 432.47 252.83C434.423 255.057 435.518 257.64 435.756 260.578C435.847 261.691 435.956 262.786 436.084 263.863C436.23 264.94 436.257 266.053 436.166 267.203C436.057 268.682 435.673 270.132 435.016 271.556C434.359 272.98 433.584 274.276 432.689 275.444C432.197 276.119 431.612 276.703 430.937 277.196C430.28 277.67 429.568 278.063 428.802 278.373C428.054 278.683 427.269 278.911 426.447 279.057C425.644 279.222 424.832 279.304 424.011 279.304C423.755 279.304 423.5 279.295 423.244 279.276C422.989 279.276 422.742 279.276 422.505 279.276ZM413.745 264.712C413.617 265.588 413.626 266.437 413.772 267.258C413.918 268.061 414.164 268.846 414.511 269.612C414.876 270.361 415.314 271.091 415.825 271.802C416.336 272.514 416.893 273.199 417.495 273.856C418.097 274.549 418.782 275.097 419.548 275.498C420.333 275.9 421.164 276.101 422.04 276.101C422.733 276.101 423.445 275.964 424.175 275.69C425.051 275.361 425.9 274.987 426.721 274.568C427.561 274.148 428.409 273.755 429.267 273.39C429.943 273.08 430.481 272.688 430.882 272.213C431.284 271.72 431.603 271.136 431.841 270.461C432.242 269.366 432.516 268.271 432.662 267.176C432.808 266.081 432.863 264.986 432.826 263.891C432.808 262.795 432.708 261.7 432.525 260.605C432.343 259.51 432.114 258.415 431.841 257.32C431.749 256.864 431.585 256.49 431.348 256.198C430.764 255.559 430.198 254.975 429.65 254.446C429.121 253.898 428.555 253.433 427.953 253.049C427.369 252.666 426.721 252.365 426.009 252.146C425.316 251.927 424.522 251.817 423.628 251.817C423.025 251.817 422.423 251.854 421.821 251.927C421.237 252 420.644 252.064 420.041 252.119C419.11 252.192 418.344 252.447 417.742 252.885C417.158 253.305 416.683 253.88 416.318 254.61C415.551 256.125 414.913 257.703 414.402 259.346C413.891 260.97 413.672 262.759 413.745 264.712Z" fill="#0033E6"/>
<path d="M456.738 275.594C456.884 275.247 457.176 274.873 457.615 274.471C458.053 274.051 458.527 273.659 459.038 273.294C459.549 272.911 460.024 272.582 460.462 272.308C460.918 272.035 461.219 271.861 461.365 271.788C461.949 271.496 462.551 271.35 463.172 271.35C463.756 271.35 464.386 271.496 465.061 271.788C465.371 271.916 465.627 272.035 465.828 272.144C466.028 272.254 466.174 272.39 466.266 272.555C466.375 272.701 466.439 272.883 466.457 273.102C466.475 273.321 466.466 273.613 466.43 273.978C466.393 274.234 466.339 274.48 466.266 274.717C466.193 274.955 466.129 275.201 466.074 275.457C465.234 275.092 464.395 274.909 463.555 274.909C462.478 274.909 461.511 275.156 460.653 275.648C459.814 276.141 459.093 276.78 458.491 277.565C457.907 278.331 457.459 279.207 457.149 280.193C456.839 281.178 456.675 282.155 456.656 283.122C456.62 285.714 456.547 288.287 456.437 290.842C456.328 293.379 456.246 295.944 456.191 298.535C456.173 298.955 456.237 299.393 456.383 299.849C456.547 300.306 456.702 300.808 456.848 301.355C456.501 301.446 456.136 301.556 455.753 301.684C455.388 301.811 455.005 301.884 454.603 301.903H454.411C453.809 301.903 453.38 301.766 453.125 301.492C452.887 301.2 452.778 300.707 452.796 300.014C452.833 298.079 452.878 296.154 452.933 294.237C452.988 292.303 453.033 290.359 453.07 288.406C453.07 288.26 453.079 288.114 453.097 287.968C453.116 287.822 453.125 287.676 453.125 287.53C453.161 285.431 453.198 283.359 453.234 281.315C453.271 279.253 453.307 277.172 453.344 275.073C453.344 274.763 453.335 274.462 453.316 274.17C453.316 273.878 453.28 273.595 453.207 273.321C453.097 272.901 453.106 272.591 453.234 272.39C453.362 272.19 453.617 272.035 454.001 271.925C454.275 271.852 454.503 271.797 454.685 271.761C454.886 271.724 455.059 271.706 455.205 271.706C455.516 271.706 455.726 271.825 455.835 272.062C455.945 272.299 456.063 272.737 456.191 273.376C456.209 273.449 456.227 273.586 456.246 273.787C456.282 273.969 456.31 274.17 456.328 274.389C456.364 274.608 456.392 274.818 456.41 275.019C456.428 275.201 456.437 275.338 456.437 275.429C456.492 275.466 456.538 275.493 456.574 275.511C456.629 275.53 456.684 275.557 456.738 275.594Z" fill="#0033E6"/>
<path d="M497.236 255.835C498.167 255.233 499.061 254.713 499.919 254.275C500.795 253.819 501.671 253.444 502.547 253.152C503.441 252.842 504.363 252.605 505.312 252.441C506.261 252.258 507.283 252.13 508.378 252.057H508.543C509.127 252.057 509.647 252.222 510.103 252.55C510.578 252.86 511.043 253.18 511.499 253.508C512.905 254.53 514.018 255.717 514.839 257.067C515.679 258.418 516.318 259.933 516.756 261.612C517.468 264.368 517.687 267.051 517.413 269.661C517.157 272.271 516.473 274.862 515.36 277.436C515.067 278.093 514.693 278.668 514.237 279.16C513.781 279.635 513.206 280.027 512.512 280.338C511.983 280.557 511.472 280.83 510.979 281.159C510.486 281.487 509.975 281.752 509.446 281.953C508.68 282.245 507.913 282.482 507.146 282.665C506.38 282.847 505.604 282.938 504.819 282.938C504.144 282.938 503.542 282.875 503.013 282.747C502.483 282.637 501.99 282.464 501.534 282.227C501.078 281.989 500.64 281.697 500.22 281.351C499.8 281.004 499.353 280.611 498.879 280.173C498.605 279.918 498.349 279.644 498.112 279.352C497.893 279.042 497.601 278.759 497.236 278.503C497.309 279.014 497.373 279.525 497.428 280.037C497.482 280.548 497.546 281.077 497.619 281.624C497.127 281.716 496.652 281.816 496.196 281.926C495.739 282.035 495.283 282.126 494.827 282.199C494.79 282.199 494.754 282.208 494.717 282.227C494.681 282.227 494.644 282.227 494.608 282.227C494.334 282.227 494.124 282.145 493.978 281.98C493.85 281.798 493.777 281.551 493.759 281.241C493.704 280.037 493.622 278.841 493.513 277.655C493.422 276.45 493.403 275.246 493.458 274.041C493.531 272.745 493.558 271.468 493.54 270.208C493.54 268.931 493.54 267.653 493.54 266.375C493.522 263.601 493.504 260.845 493.485 258.108C493.467 255.37 493.449 252.614 493.431 249.84C493.431 249.329 493.422 248.754 493.403 248.115C493.403 247.476 493.403 246.828 493.403 246.171C493.403 245.514 493.403 244.876 493.403 244.255C493.422 243.616 493.431 243.041 493.431 242.53C493.431 242.275 493.458 242.01 493.513 241.736C493.586 241.463 493.65 241.171 493.704 240.86C494.197 240.842 494.663 240.824 495.101 240.805C495.539 240.787 495.986 240.769 496.442 240.751C496.515 241.919 496.579 243.142 496.634 244.419C496.707 245.697 496.771 246.984 496.825 248.279C496.898 249.575 496.962 250.862 497.017 252.14C497.09 253.417 497.163 254.649 497.236 255.835ZM496.825 270.592C496.844 271.084 496.853 271.595 496.853 272.125C496.853 272.654 496.953 273.128 497.154 273.548C497.555 274.388 498.003 275.2 498.495 275.985C499.006 276.751 499.7 277.399 500.576 277.929C501.178 278.275 501.781 278.595 502.383 278.887C502.985 279.16 503.633 279.297 504.327 279.297C504.418 279.297 504.518 279.297 504.628 279.297C504.737 279.297 504.847 279.279 504.956 279.243C505.559 279.151 506.161 279.087 506.763 279.051C507.384 279.014 507.986 278.914 508.57 278.75C509.099 278.604 509.583 278.394 510.021 278.12C510.477 277.828 510.788 277.354 510.952 276.697C511.171 275.857 511.426 275.036 511.718 274.233C512.029 273.43 512.312 272.617 512.567 271.796C513.169 269.916 513.416 268.055 513.306 266.211C513.215 264.368 512.905 262.506 512.375 260.626C512.211 260.079 511.883 259.531 511.39 258.984C510.915 258.436 510.359 257.943 509.72 257.505C509.081 257.067 508.397 256.721 507.667 256.465C506.955 256.191 506.28 256.054 505.641 256.054C505.276 256.054 504.838 256.1 504.327 256.191C503.816 256.264 503.396 256.356 503.067 256.465C502.812 256.538 502.547 256.629 502.273 256.739C502 256.83 501.771 256.967 501.589 257.149C500.932 257.788 500.284 258.445 499.645 259.121C499.025 259.778 498.413 260.453 497.811 261.146C497.391 261.621 497.154 262.15 497.099 262.734C497.063 263.172 497.026 263.793 496.99 264.596C496.953 265.399 496.917 266.211 496.88 267.033C496.862 267.854 496.844 268.602 496.825 269.277C496.825 269.953 496.825 270.391 496.825 270.592Z" fill="#0033E6"/>
<path d="M531.064 269.089C531.21 268.742 531.502 268.368 531.94 267.967C532.378 267.547 532.853 267.154 533.364 266.789C533.875 266.406 534.35 266.078 534.788 265.804C535.244 265.53 535.545 265.357 535.691 265.284C536.275 264.992 536.877 264.846 537.498 264.846C538.082 264.846 538.712 264.992 539.387 265.284C539.697 265.411 539.953 265.53 540.153 265.64C540.354 265.749 540.5 265.886 540.592 266.05C540.701 266.196 540.765 266.379 540.783 266.598C540.801 266.817 540.792 267.109 540.756 267.474C540.719 267.729 540.665 267.976 540.592 268.213C540.519 268.45 540.455 268.697 540.4 268.952C539.56 268.587 538.721 268.405 537.881 268.405C536.804 268.405 535.837 268.651 534.979 269.144C534.14 269.637 533.419 270.275 532.816 271.06C532.232 271.827 531.785 272.703 531.475 273.688C531.165 274.674 531 275.65 530.982 276.618C530.946 279.209 530.873 281.783 530.763 284.338C530.654 286.875 530.572 289.439 530.517 292.031C530.499 292.451 530.562 292.889 530.708 293.345C530.873 293.801 531.028 294.303 531.174 294.851C530.827 294.942 530.462 295.051 530.079 295.179C529.714 295.307 529.331 295.38 528.929 295.398H528.737C528.135 295.398 527.706 295.261 527.451 294.988C527.213 294.696 527.104 294.203 527.122 293.509C527.159 291.575 527.204 289.649 527.259 287.733C527.314 285.798 527.359 283.854 527.396 281.901C527.396 281.755 527.405 281.609 527.423 281.463C527.442 281.317 527.451 281.171 527.451 281.025C527.487 278.927 527.524 276.855 527.56 274.811C527.597 272.748 527.633 270.668 527.67 268.569C527.67 268.259 527.661 267.958 527.642 267.666C527.642 267.373 527.606 267.091 527.533 266.817C527.423 266.397 527.432 266.087 527.56 265.886C527.688 265.685 527.943 265.53 528.327 265.421C528.6 265.348 528.829 265.293 529.011 265.256C529.212 265.22 529.385 265.202 529.531 265.202C529.842 265.202 530.051 265.32 530.161 265.557C530.27 265.795 530.389 266.233 530.517 266.872C530.535 266.945 530.553 267.081 530.572 267.282C530.608 267.465 530.635 267.666 530.654 267.885C530.69 268.104 530.718 268.313 530.736 268.514C530.754 268.697 530.763 268.834 530.763 268.925C530.818 268.961 530.864 268.989 530.9 269.007C530.955 269.025 531.01 269.053 531.064 269.089Z" fill="#0033E6"/>
<path d="M551.916 289.77C551.715 290.336 551.624 290.865 551.642 291.358C551.661 291.851 551.743 292.316 551.889 292.754C552.053 293.192 552.263 293.621 552.518 294.041C552.774 294.443 553.029 294.835 553.285 295.218C553.741 295.912 554.243 296.578 554.791 297.217C555.356 297.837 555.931 298.449 556.515 299.051C557.118 299.69 557.747 300.137 558.404 300.392C559.061 300.63 559.828 300.748 560.704 300.748C561.635 300.675 562.547 300.593 563.442 300.502C564.336 300.392 565.221 300.155 566.097 299.79C566.517 299.626 566.928 299.453 567.329 299.27C567.749 299.069 568.087 298.759 568.342 298.339C568.525 298.065 568.753 297.929 569.027 297.929C569.154 297.929 569.291 297.974 569.437 298.065C569.583 298.157 569.72 298.248 569.848 298.339C569.976 298.412 570.113 298.494 570.259 298.586C570.368 299.973 569.875 301.04 568.78 301.789C567.32 302.811 565.778 303.596 564.154 304.143C562.547 304.672 560.868 305.028 559.116 305.211C558.988 305.229 558.861 305.238 558.733 305.238C558.623 305.238 558.514 305.238 558.404 305.238C557.054 305.238 555.84 304.91 554.763 304.253C553.687 303.596 552.701 302.774 551.807 301.789C550.675 300.529 549.762 299.179 549.069 297.737C548.394 296.295 547.946 294.716 547.727 293.001C547.581 291.851 547.581 290.738 547.727 289.661C547.873 288.584 548.047 287.498 548.248 286.403C548.43 285.381 548.667 284.386 548.959 283.419C549.251 282.433 549.571 281.448 549.918 280.462C550.337 279.239 550.976 278.217 551.834 277.396C552.692 276.556 553.714 275.872 554.9 275.343C555.32 275.142 555.758 274.978 556.214 274.85C556.671 274.704 557.118 274.54 557.556 274.357C558.742 273.901 559.883 273.673 560.978 273.673C562.328 273.673 563.606 273.965 564.811 274.549C566.033 275.114 567.22 275.845 568.37 276.739C568.625 276.94 568.853 277.204 569.054 277.533C569.273 277.843 569.456 278.162 569.602 278.491C570.076 279.513 570.496 280.544 570.861 281.585C571.226 282.607 571.372 283.702 571.299 284.87C571.262 285.436 571.253 286.001 571.272 286.567C571.308 287.115 571.308 287.671 571.272 288.237C571.272 288.274 571.262 288.319 571.244 288.374C571.244 288.429 571.244 288.484 571.244 288.538C571.189 288.849 571.043 289.104 570.806 289.305C570.569 289.487 570.295 289.579 569.985 289.579C569.93 289.579 569.866 289.579 569.793 289.579C569.738 289.579 569.684 289.56 569.629 289.524C569.173 289.396 568.68 289.332 568.151 289.332C567.731 289.332 567.311 289.36 566.891 289.414C566.49 289.451 566.079 289.469 565.659 289.469H565.468C564.464 289.469 563.46 289.506 562.456 289.579C561.471 289.652 560.476 289.706 559.472 289.743C559.089 289.761 558.696 289.77 558.295 289.77C557.912 289.77 557.519 289.77 557.118 289.77H553.449H551.916ZM567.521 286.731C567.63 284.724 567.275 283.063 566.453 281.749C565.65 280.416 564.418 279.312 562.757 278.436C562.21 278.126 561.671 277.907 561.142 277.779C560.613 277.651 560.093 277.588 559.582 277.588C558.633 277.588 557.72 277.779 556.844 278.162C555.986 278.527 555.147 279.002 554.325 279.586C553.741 279.988 553.276 280.462 552.929 281.01C552.601 281.539 552.354 282.114 552.19 282.734C552.026 283.355 551.934 284.003 551.916 284.678C551.898 285.353 551.898 286.047 551.916 286.759C553.394 286.631 554.855 286.531 556.296 286.458C557.738 286.366 559.18 286.321 560.622 286.321C561.772 286.321 562.922 286.357 564.071 286.43C565.221 286.485 566.371 286.585 567.521 286.731Z" fill="#0033E6"/>
<path d="M611.658 283.073C611.53 283.073 611.402 283.064 611.275 283.046C611.165 283.009 611.065 282.991 610.974 282.991C610.901 282.991 610.846 283 610.809 283.018C610.426 283.128 610.079 283.183 609.769 283.183C609.313 283.183 608.929 283.055 608.619 282.799C608.309 282.526 608.081 282.097 607.935 281.513C607.916 281.476 607.88 281.449 607.825 281.43C607.789 281.394 607.77 281.385 607.77 281.403C606.803 281.75 605.863 282.124 604.951 282.526C604.038 282.927 603.098 283.21 602.131 283.374C601.036 283.593 599.959 283.703 598.9 283.703C597.349 283.703 595.88 283.429 594.493 282.881C593.106 282.334 591.837 281.403 590.687 280.089C590.03 279.341 589.528 278.474 589.182 277.488C588.853 276.503 588.716 275.49 588.771 274.449C588.826 273.409 589.09 272.396 589.565 271.411C590.039 270.425 590.769 269.549 591.755 268.782C592.868 267.925 593.982 267.313 595.095 266.948C596.227 266.583 597.495 266.401 598.9 266.401C600.16 266.455 601.41 266.51 602.651 266.565C603.892 266.62 605.142 266.674 606.402 266.729C606.511 266.729 606.621 266.72 606.73 266.702C606.84 266.683 606.995 266.665 607.196 266.647C607.232 265.479 607.196 264.338 607.086 263.225C606.976 262.112 606.666 261.026 606.155 259.967C606.027 259.711 605.854 259.465 605.635 259.228C605.416 258.991 605.179 258.808 604.923 258.68C604.084 258.297 603.235 257.968 602.377 257.695C601.538 257.403 600.643 257.257 599.694 257.257C598.015 257.257 596.628 257.667 595.533 258.489C594.456 259.31 593.644 260.515 593.096 262.102C593.078 262.139 592.996 262.248 592.85 262.431C592.284 262.394 591.7 262.367 591.098 262.349C590.496 262.312 589.857 262.276 589.182 262.239C589.328 261.254 589.556 260.359 589.866 259.556C590.176 258.753 590.66 258.032 591.317 257.394C591.353 257.357 591.536 257.138 591.864 256.737C592.211 256.335 592.713 255.888 593.37 255.395C594.045 254.884 594.876 254.41 595.861 253.971C596.847 253.515 597.997 253.241 599.311 253.15C600.224 253.15 601.118 253.214 601.994 253.342C602.87 253.47 603.719 253.679 604.54 253.971C605.361 254.263 606.146 254.656 606.894 255.149C607.643 255.623 608.345 256.216 609.002 256.928C609.532 257.476 609.924 258.233 610.18 259.2C610.453 260.168 610.654 261.299 610.782 262.595C610.91 263.873 610.992 265.287 611.028 266.839C611.065 268.39 611.092 270.033 611.11 271.766C611.147 273.482 611.211 275.252 611.302 277.078C611.393 278.903 611.558 280.737 611.795 282.58C611.795 282.635 611.777 282.699 611.74 282.772C611.722 282.827 611.694 282.927 611.658 283.073ZM607.305 269.631C606.611 269.595 605.964 269.558 605.361 269.522C604.777 269.485 604.193 269.449 603.609 269.412C602.843 269.376 602.085 269.339 601.337 269.303C600.607 269.248 599.868 269.211 599.119 269.193C597.604 269.193 596.373 269.585 595.423 270.37C594.474 271.155 593.726 272.204 593.179 273.519C592.941 274.103 592.814 274.687 592.795 275.271C592.777 275.855 592.868 276.411 593.069 276.941C593.27 277.452 593.571 277.926 593.972 278.364C594.374 278.784 594.867 279.122 595.451 279.377C595.779 279.541 596.199 279.697 596.71 279.843C597.221 279.97 597.75 280.089 598.298 280.198C598.864 280.308 599.411 280.399 599.941 280.472C600.47 280.527 600.926 280.554 601.309 280.554C602.386 280.554 603.399 280.381 604.348 280.034C605.297 279.687 606.064 279.094 606.648 278.255C606.885 277.89 607.049 277.488 607.141 277.05C607.25 276.594 607.314 276.119 607.332 275.627C607.369 275.134 607.387 274.65 607.387 274.176C607.387 273.683 607.405 273.217 607.442 272.779C607.478 272.25 607.469 271.73 607.415 271.219C607.378 270.69 607.342 270.16 607.305 269.631Z" fill="#0033E6"/>
<path d="M650.677 261.274C650.64 259.796 650.604 258.427 650.567 257.168C650.549 255.89 650.521 254.622 650.485 253.362C650.448 252.431 650.403 251.501 650.348 250.57C650.312 249.639 650.275 248.708 650.239 247.777C650.22 247.412 650.22 247.129 650.239 246.929C650.257 246.728 650.302 246.564 650.375 246.436C650.467 246.308 650.594 246.217 650.759 246.162C650.941 246.089 651.178 246.016 651.47 245.943C651.963 245.815 652.42 245.752 652.839 245.752C653.496 245.752 653.944 245.971 654.181 246.409C654.436 246.847 654.573 247.586 654.591 248.626C654.591 250.323 654.61 252.012 654.646 253.691C654.701 255.352 654.664 257.022 654.537 258.701C654.482 259.431 654.464 260.161 654.482 260.891C654.5 261.621 654.518 262.351 654.537 263.081C654.573 263.793 654.591 264.514 654.591 265.244C654.591 265.956 654.555 266.677 654.482 267.407C654.354 268.739 654.245 270.071 654.153 271.404C654.062 272.736 653.998 274.077 653.962 275.428C653.925 276.833 653.934 278.23 653.989 279.617C654.044 280.986 654.09 282.373 654.126 283.778V287.282C654.126 287.574 654.044 287.784 653.88 287.912C653.734 288.04 653.542 288.122 653.305 288.158C652.94 288.195 652.566 288.213 652.182 288.213C651.817 288.213 651.407 288.231 650.95 288.268C650.914 287.757 650.886 287.273 650.868 286.817C650.85 286.342 650.823 285.849 650.786 285.338C650.64 285.43 650.503 285.512 650.375 285.585C650.266 285.658 650.156 285.74 650.047 285.831C648.988 286.78 647.857 287.519 646.652 288.049C645.448 288.596 644.161 288.87 642.792 288.87C641.624 288.87 640.483 288.669 639.37 288.268C638.257 287.866 637.234 287.319 636.304 286.625C636.048 286.424 635.82 286.187 635.619 285.913C635.437 285.621 635.227 285.348 634.99 285.092C633.895 283.924 632.982 282.674 632.252 281.341C631.522 280.009 631.139 278.476 631.102 276.742C631.066 275.209 631.047 273.694 631.047 272.198C631.047 270.701 631.23 269.213 631.595 267.735C631.85 266.731 632.225 265.673 632.717 264.559C633.21 263.446 633.822 262.415 634.552 261.466C635.282 260.517 636.121 259.723 637.07 259.084C638.019 258.427 639.078 258.062 640.246 257.989C640.83 257.952 641.405 257.934 641.971 257.934C642.536 257.934 643.111 257.934 643.695 257.934C645.046 257.934 646.287 258.208 647.419 258.756C648.55 259.285 649.636 260.124 650.677 261.274ZM650.978 269.35C651.014 268.894 650.978 268.456 650.868 268.036C650.777 267.616 650.649 267.215 650.485 266.832C650.321 266.448 650.138 266.074 649.937 265.709C649.737 265.326 649.536 264.943 649.335 264.559C648.842 263.556 648.158 262.926 647.282 262.67C645.511 262.123 643.714 261.849 641.889 261.849C641.505 261.849 641.113 261.867 640.711 261.904C640.328 261.922 639.936 261.949 639.534 261.986C638.64 262.095 637.946 262.597 637.454 263.492C637.18 264.003 636.879 264.496 636.55 264.97C636.222 265.426 635.92 265.91 635.647 266.421C635.409 266.841 635.181 267.279 634.962 267.735C634.761 268.173 634.615 268.629 634.524 269.104C634.177 270.984 634.05 272.836 634.141 274.661C634.25 276.487 634.57 278.312 635.099 280.137C635.409 281.25 635.875 282.208 636.495 283.011C637.116 283.796 637.882 284.472 638.795 285.037C639.543 285.329 640.31 285.475 641.095 285.475C642.117 285.475 643.102 285.275 644.051 284.873C645.019 284.453 645.867 283.997 646.597 283.504C647.346 283.011 647.948 282.555 648.404 282.135C648.879 281.716 649.134 281.487 649.171 281.451C649.591 281.068 649.919 280.666 650.156 280.246C650.394 279.808 650.567 279.352 650.677 278.877C650.786 278.385 650.85 277.883 650.868 277.372C650.886 276.861 650.905 276.331 650.923 275.784C650.941 275.182 650.95 274.625 650.95 274.114C650.969 273.603 650.978 273.101 650.978 272.608C650.978 272.115 650.978 271.604 650.978 271.075C650.978 270.546 650.978 269.971 650.978 269.35Z" fill="#0033E6"/>
<path d="M415.212 204.804C405.363 204.804 396.537 202.527 388.732 197.975C381.02 193.329 374.981 187.15 370.614 179.439C366.34 171.634 364.203 163.086 364.203 153.795C364.203 144.597 366.34 136.142 370.614 128.43C374.888 120.718 380.881 114.586 388.593 110.033C396.304 105.388 405.085 103.065 414.933 103.065C421.53 103.065 427.43 103.901 432.633 105.573C437.929 107.153 442.389 109.29 446.012 111.984C448.149 113.564 449.729 115.329 450.751 117.28C451.773 119.139 452.284 121.043 452.284 122.994C452.284 125.782 451.262 128.198 449.218 130.242C447.267 132.286 444.758 133.308 441.692 133.308C438.719 133.308 435.699 132.239 432.633 130.102C430.496 128.616 427.941 127.408 424.968 126.479C421.995 125.457 418.789 124.946 415.351 124.946C409.962 124.946 405.177 126.2 400.996 128.709C396.815 131.217 393.563 134.701 391.241 139.161C389.011 143.621 387.896 148.638 387.896 154.213C387.896 159.695 388.964 164.619 391.101 168.986C393.238 173.26 396.351 176.651 400.439 179.16C404.527 181.669 409.312 182.923 414.794 182.923C420.647 182.923 425.665 181.529 429.846 178.742C434.027 175.862 437.046 171.913 438.905 166.896H412.982C409.73 166.896 407.175 165.874 405.317 163.829C403.551 161.785 402.669 159.323 402.669 156.443C402.669 153.656 403.551 151.24 405.317 149.196C407.175 147.059 409.73 145.99 412.982 145.99H451.727C455.536 145.99 458.416 147.059 460.367 149.196C462.411 151.333 463.433 154.492 463.433 158.673C463.433 159.509 463.341 160.949 463.155 162.993C462.319 169.404 459.996 175.815 456.186 182.226C452.377 188.637 446.988 194.026 440.02 198.393C433.144 202.667 424.875 204.804 415.212 204.804ZM504.731 161.46H504.592C503.477 161.321 502.641 160.345 502.78 159.23L505.428 136.095C505.567 134.98 506.682 134.144 507.797 134.283C508.912 134.423 509.609 135.538 509.47 136.653L506.822 159.648C506.682 160.763 505.846 161.46 504.731 161.46ZM520.48 88.8492C520.201 88.8492 519.922 88.8492 519.922 88.8492C502.919 90.1035 477.276 122.716 469.889 152.401C466.544 166.338 465.708 185.153 481.735 195.048C486.474 197.835 491.073 199.368 495.533 199.368C503.756 199.368 511.56 194.769 518.947 185.571C535.671 164.805 544.173 127.315 540.131 108.918C536.089 90.2428 524.103 88.8492 520.48 88.8492ZM545.148 119.231C545.148 139.997 536.647 170.101 522.152 188.219C514.069 198.114 504.871 203.41 495.533 203.41C490.237 203.41 484.941 201.738 479.645 198.532C465.569 189.752 460.691 173.028 465.987 151.426C473.791 119.789 500.829 86.2012 519.504 84.8075C519.504 84.8075 519.922 84.8075 520.48 84.8075C523.546 84.8075 539.295 85.9224 544.033 108.082C544.73 111.287 545.148 115.05 545.148 119.231ZM578.09 161.46H577.951C576.836 161.321 576 160.345 576.139 159.23L578.787 136.095C578.926 134.98 580.041 134.144 581.156 134.283C582.271 134.423 582.968 135.538 582.829 136.653L580.181 159.648C580.041 160.763 579.205 161.46 578.09 161.46ZM593.839 88.8492C593.56 88.8492 593.281 88.8492 593.281 88.8492C576.278 90.1035 550.635 122.716 543.248 152.401C539.903 166.338 539.067 185.153 555.094 195.048C559.833 197.835 564.432 199.368 568.892 199.368C577.115 199.368 584.919 194.769 592.306 185.571C609.03 164.805 617.532 127.315 613.49 108.918C609.448 90.2428 597.462 88.8492 593.839 88.8492ZM618.507 119.231C618.507 139.997 610.006 170.101 595.511 188.219C587.428 198.114 578.23 203.41 568.892 203.41C563.596 203.41 558.3 201.738 553.004 198.532C538.928 189.752 534.05 173.028 539.346 151.426C547.15 119.789 574.188 86.2012 592.863 84.8075C592.863 84.8075 593.281 84.8075 593.839 84.8075C596.905 84.8075 612.654 85.9224 617.392 108.082C618.089 111.287 618.507 115.05 618.507 119.231ZM635.561 203.41C631.566 203.41 628.5 202.342 626.363 200.205C624.226 198.068 623.157 195.002 623.157 191.006V116.862C623.157 112.774 624.226 109.708 626.363 107.664C628.5 105.527 631.566 104.458 635.561 104.458H658.418C668.917 104.458 678.022 106.642 685.734 111.009C693.539 115.283 699.485 121.183 703.573 128.709C707.661 136.234 709.705 144.643 709.705 153.934C709.705 163.225 707.661 171.634 703.573 179.16C699.485 186.686 693.539 192.632 685.734 196.999C678.022 201.273 668.917 203.41 658.418 203.41H635.561ZM658.418 181.947C666.873 181.947 673.562 179.671 678.487 175.118C683.504 170.473 686.013 163.411 686.013 153.934C686.013 144.457 683.504 137.442 678.487 132.89C673.562 128.244 666.873 125.921 658.418 125.921H646.85V181.947H658.418Z" fill="#0033E6"/>
<path d="M523.778 209.259C524.007 211.284 527.191 215.992 528.676 217.087C531.873 219.446 532.954 218.127 536.244 218.127C541.159 218.127 543.422 212.095 545.148 208.274" stroke="#0033E6" stroke-width="2.78737" stroke-linecap="round"/>
<path d="M596.451 67.7589C597.961 69.4367 598.939 70.7199 601 71.9766C602.988 73.1893 605.703 74.0332 608.058 74.0332" stroke="#0033E6" stroke-width="2.78737" stroke-linecap="round"/>
<path d="M519.587 66.5032C518.569 66.5032 517.555 67.2857 516.694 67.7581C515 68.6871 513.207 69.5322 511.395 70.1981C509.842 70.7692 508.065 71.209 506.411 71.209" stroke="#0033E6" stroke-width="2.78737" stroke-linecap="round"/>
<path d="M195.301 708.253C193.563 715.82 192.654 723.526 196.849 730.519C203.257 741.199 214.343 748.483 221.684 758.647C226.63 765.495 231.466 773.262 231.466 782.065C231.466 792.652 225.461 800.695 213.976 798.929C204.951 797.54 199.69 793.449 191.744 789.476" stroke="#0033E6" stroke-width="6.34491" stroke-linecap="round"/>
<path d="M225.876 801.753C225.876 816.557 232.398 831.155 232.398 846.022C232.398 870.334 207.457 891.871 183.782 891.871C172.693 891.871 160.681 889.344 149.987 886.403C146.646 885.485 142.417 884.447 139.316 882.978C133.788 880.359 128.205 877.913 122.715 875.139C119.176 873.35 115.136 871.834 114.283 867.761C112.648 859.95 110.249 851.047 106.839 843.848C102.477 834.639 100.992 824.397 98.407 814.665C94.0029 798.085 91.2925 780.881 91.2925 763.743C91.2925 752.253 94.1178 738.689 104.797 732.387C111.744 728.287 118.856 727.051 126.865 727.051" stroke="#0033E6" stroke-width="6.34491" stroke-linecap="round"/>
<path d="M127.486 762.626C128.578 759.472 129.878 753.713 132.229 751.363C134.866 748.725 137.445 748.992 140.527 748.992" stroke="#0033E6" stroke-width="6.34491" stroke-linecap="round"/>
<path d="M157.717 741.282C160.999 739.136 170.842 731.458 174.908 734.169" stroke="#0033E6" stroke-width="6.34491" stroke-linecap="round"/>
<path d="M184.368 831.991C184.916 834.731 191.22 836.733 193.556 836.733C195.64 836.733 201.864 836.14 199.78 836.14" stroke="#0033E6" stroke-width="6.34491" stroke-linecap="round"/>
<path d="M126.284 721.719C126.47 720.046 127.709 718.699 127.338 716.844C126.884 714.574 124.591 712.568 123.188 710.915C119.806 706.929 115.918 703.31 113.373 698.695C108.054 689.054 118.356 680.38 126.778 677.055C132.234 674.901 138.89 670.731 144.927 670.731C146.922 670.731 145.092 679.215 146.837 677.121C151.982 670.948 154.336 661.478 161.984 661.478C170.934 661.478 185.445 669.91 180.104 679.524C176.684 685.682 168.734 676.545 167.999 674.618C166.498 670.677 179.417 659.29 181.883 659.473C187.064 659.857 190.083 671.641 193.872 674.618C199.427 678.982 200.155 690.469 195.322 695.303C191.267 699.358 185.152 697.354 180.104 696.554C173.412 695.494 165.841 694.552 159.782 691.185C157.151 689.724 154.955 689.096 153.227 691.811C150.171 696.614 148.001 702.511 141.699 703.636C133.691 705.066 125.259 705.118 117.127 705.118C111.859 705.118 106.919 703.932 101.68 703.932C100.766 703.932 99.9656 703.565 100.165 704.262C100.396 705.072 100.163 706.23 100.066 707.028C99.7198 709.883 100.07 713.002 99.4729 715.79C98.9102 718.416 95.4381 718.032 93.4124 718.194C90.2638 718.446 87.1497 719.467 84.058 720.072C78.3448 721.19 72.671 721.719 66.8646 721.719C66.032 721.719 62.7773 721.246 62.3192 722.048C61.8406 722.885 63.535 725.317 64.0319 725.869C68.2873 730.597 67.8213 746.074 60.1782 747.772C56.8161 748.519 55.2332 744.762 57.2468 742.173C59.9029 738.758 67.9596 745.245 70.2571 747.179C74.5695 750.811 73.2545 760.616 73.2545 765.921C73.2545 772.105 72.1116 776.968 69.3678 782.456C66.7276 787.736 62.8964 795.878 68.7091 800.703C76.1816 806.907 81.8631 807.798 87.7843 816.907C90.1528 820.551 91.3678 823.332 92.3254 826.098C95.0681 834.021 99.5072 843.9 99.7364 852.152C99.8537 856.375 101.391 861.858 99.7364 865.788C99.1376 867.21 95.5529 874.364 93.9723 868.832" stroke="#0033E6" stroke-width="6.34491" stroke-linecap="round"/>
<path d="M114.67 868.835C117.403 878.4 116.909 887.991 118.986 897.615C120.575 904.98 121.047 912.806 121.047 920.315C121.047 922.524 121.047 923.597 121.047 926.224" stroke="#0033E6" stroke-width="6.34491" stroke-linecap="round"/>
<path d="M178.456 894.839C178.456 899.183 177.345 903.538 177.27 907.88C177.216 911.011 176.763 914.607 177.567 917.661C177.773 918.445 178.456 921.668 178.456 919.839" stroke="#0033E6" stroke-width="6.34491" stroke-linecap="round"/>
<path d="M122.782 931.621C109.884 927.752 84.8478 930.61 72.448 930.61C60.1054 930.61 43.8161 935.766 32.4503 940.637C13.6283 948.704 -1.99488 963.32 -10.8735 981.077" stroke="#0033E6" stroke-width="5.80414" stroke-linecap="round"/>
<path d="M120.847 929.686C133.651 940.916 164.7 934.201 182.758 921.303" stroke="#0033E6" stroke-width="5.80414" stroke-linecap="round"/>
<path d="M341.846 927.579C319.498 911.496 299.402 925.773 275 921C248.723 915.86 216.501 905.297 191.5 921C184.55 925.365 179 927.579 172.5 927.579" stroke="#0033E6" stroke-width="5.80414" stroke-linecap="round"/>
<path d="M338.547 928C332.452 936.745 329.883 947.162 325.513 956.879C322.035 964.612 317.202 971.383 313.08 978.77C310.551 983.303 294.371 1017.07 291.847 1020.69" stroke="#0033E6" stroke-width="5.80414" stroke-linecap="round"/>
<path d="M333.142 939.965C350.073 939.965 375.481 941.953 400.252 938.151" stroke="#0033E6" stroke-width="4.83678" stroke-linecap="round"/>
<path d="M417.256 976.845C397.702 985.338 382.161 989.063 365.026 992.317C349.278 995.306 296.662 1006.03 281 1009" stroke="#0033E6" stroke-width="4.83678" stroke-linecap="round"/>
<path d="M601.301 864.551C601.301 868.825 594.372 872.29 585.823 872.29C577.275 872.29 570.346 874.629 570.346 870.355C570.346 866.081 577.275 856.812 585.823 856.812C594.372 856.812 601.301 860.277 601.301 864.551Z" fill="#FFEED8"/>
<path d="M400.252 938.151C408.112 937.546 468.055 921.899 474.736 919.537C487.606 914.987 499.806 897.417 509.996 886.783C513.548 883.077 516.449 878.394 519.813 874.421C521.098 872.904 525.564 867.397 527.43 866.843C531.508 865.633 538.032 874.929 538.148 881.066C538.206 884.155 536.005 886.304 534.47 888.058C534.194 888.375 529.252 893.468 530.962 893.928C535.095 895.039 540.44 891.626 543.752 889.588C549.629 885.973 554.789 880.925 560.272 876.544C565.834 872.099 571.515 867.849 577.176 863.594C581.551 860.304 586.343 856.583 591.842 856.737C596.309 856.863 602.82 860.072 599.056 866.268C598.704 866.848 580.388 883.24 581.214 883.965C582.453 885.054 596.728 877.54 599.905 875.122C603.081 872.704 604.766 869.94 608.016 869.938C610.244 869.937 613.508 872.454 613.627 876.178C613.781 880.97 608.962 883.218 606.575 885.719C606.154 886.16 585.377 900.768 587.63 900.799C588.876 900.816 613.917 891.338 616.431 890.321C618.946 889.304 628.074 884.264 628.516 889.531C629.039 895.77 623.844 901.367 620.228 903.872C616.612 906.377 592.273 912.848 591.8 914.919C591.461 916.398 616.657 913.52 620.174 912.822C623.692 912.125 628.757 910.092 630.556 914.043C632.841 919.059 624.208 923.015 622.327 923.878C609.392 929.807 594.969 932.21 581.325 935.342C567.3 938.562 553.242 941.922 539.05 944.336C525.168 946.697 511.187 948.29 497.332 950.871C485.549 953.066 420.648 976.29 417.785 976.845" stroke="#0033E6" stroke-width="5.80414" stroke-linecap="round"/>
<path d="M617.901 765.757C671.666 767.421 725.196 764.014 778.951 768.298C781.945 768.877 781.316 769.593 784.855 769.703C788.568 769.818 792.107 768.705 795.636 768.814C808.386 769.209 817.828 758.041 831.065 761.627C834.172 762.469 841.893 764.271 843.867 767.252C847.208 772.295 847.857 769.378 844.161 773.304C839.937 777.79 833.173 781.699 828.175 785.099C822.67 788.844 819.255 793.435 814.319 797.978C807.245 804.491 799.924 810.676 792.01 816.096C781.849 823.055 773.083 832.103 762.031 837.439C735.774 850.118 706.161 854.375 678.207 859.288C660.453 862.409 641.734 862.293 623.8 862.425C605.282 862.561 586.882 862.572 568.361 861.999C546.793 861.332 524.974 860.646 503.632 857.008C486.933 854.161 469.725 854.386 452.97 851.705C439.582 849.563 426.905 847.843 413.391 847.425C401.216 847.048 387.396 853.997 375.304 849.301C370.404 847.398 370.869 842.081 369.361 837.506C368.735 835.607 377.825 832.687 379.273 831.702C388.754 825.252 398.341 819.85 404.84 809.272C406.791 806.096 411.556 801.725 414.282 799.243C419.788 794.23 426.069 789.845 432.848 787.528C441.259 784.653 449.649 782.333 457.978 779.208C478.655 771.448 500.793 772.473 522.02 769.511C553.075 765.178 586.618 764.789 617.901 765.757Z" fill="#FFEED8" stroke="#0038FF" stroke-width="4.5" stroke-linecap="round"/>
<path d="M666.829 814.573C678.707 806.832 688.161 796.724 696.5 787.241C693.886 785.675 674.603 796.758 670.598 798.953C656.061 806.916 640.294 813.399 625.731 821.28C624.908 821.726 607.963 831.22 615.571 831.103C625.358 830.953 637.318 826.43 646.994 823.24C654.054 820.913 660.842 818.475 666.829 814.573Z" fill="#FFEED8"/>
<path d="M700.204 783.001C690.959 793.619 680.5 805.664 666.829 814.573C660.842 818.475 654.054 820.913 646.994 823.24C637.318 826.43 625.358 830.953 615.571 831.103C607.963 831.22 624.908 821.726 625.731 821.28C640.294 813.399 656.061 806.916 670.598 798.953C674.607 796.756 693.925 785.653 696.508 787.246" stroke="#0038FF" stroke-width="4.5" stroke-linecap="round"/>
<path d="M715.319 799.979C702.97 808.506 693.086 821.723 684.358 834.305C687.029 837.754 707.054 826.326 711.213 824.128C726.304 816.152 742.642 811.01 757.759 803.176C758.614 802.733 776.208 793.09 768.368 790.666C758.282 787.548 745.895 790.806 735.879 792.676C728.572 794.04 721.544 795.68 715.319 799.979Z" fill="#FFEED8"/>
<path d="M680.481 839.939C690.158 825.819 701.107 809.793 715.319 799.979C721.544 795.68 728.572 794.04 735.879 792.676C745.895 790.806 758.282 787.548 768.368 790.666C776.208 793.09 758.614 802.733 757.759 803.176C742.642 811.01 726.304 816.152 711.213 824.128C707.05 826.328 686.988 837.777 684.35 834.294" stroke="#0038FF" stroke-width="4.5" stroke-linecap="round"/>
<path d="M612.567 800.003C612.131 803.617 603.158 808.439 600.438 810.298C592.305 815.858 583.982 820.932 575.072 825.144C567.454 828.746 559.869 830.331 551.473 830.541C547.418 830.642 538.721 830.746 537.398 825.72C535.703 819.275 542.203 813.367 547.356 810.777C555.766 806.549 566.07 806.224 575.271 805.314C586.421 804.211 597.397 801.504 608.554 800.4" stroke="#0038FF" stroke-width="4.5" stroke-linecap="round"/>
<path d="M514.096 804.073C514.022 806.923 499.854 810.345 497.315 811.497C488.615 815.445 481.291 821.45 472.842 825.804C469.421 827.567 455.414 831.283 453.122 825.819C451.162 821.146 455.394 816.735 459.148 814.822C474.81 806.844 494.265 811.541 510.083 804.47" stroke="#0038FF" stroke-width="4.5" stroke-linecap="round"/>
<path d="M554.861 558.77C489.561 564.836 424.004 565.828 358.996 574.504C355.412 575.326 356.255 575.989 351.956 576.388C347.447 576.807 343.017 575.988 338.731 576.386C323.246 577.825 310.554 567.468 294.816 572.127C291.121 573.221 281.911 575.65 279.825 578.783C276.296 584.083 275.194 581.229 280.115 584.839C285.738 588.963 294.394 592.305 300.844 595.284C307.948 598.566 312.599 602.861 319.095 606.985C328.406 612.896 337.984 618.461 348.201 623.214C361.319 629.317 372.962 637.616 386.991 642.029C420.324 652.514 456.844 654.329 491.412 656.935C513.369 658.59 536.153 656.94 558.008 655.601C580.576 654.219 602.985 652.722 625.479 650.632C651.675 648.199 678.175 645.728 703.777 640.352C723.81 636.146 744.79 634.96 764.909 630.914C780.986 627.681 796.24 624.928 812.654 623.403C827.441 622.03 845.015 627.823 859.239 622.152C865.003 619.853 863.869 614.592 865.216 609.909C865.776 607.964 854.393 605.799 852.524 604.936C840.288 599.285 828.035 594.686 818.991 584.676C816.275 581.671 810.004 577.705 806.419 575.455C799.177 570.909 791.059 567.054 782.556 565.301C772.005 563.125 761.54 561.5 751.062 559.067C725.051 553.029 698.2 555.865 672.031 554.653C633.748 552.879 592.855 555.241 554.861 558.77Z" fill="#FFEED8" stroke="#0038FF" stroke-width="4.5" stroke-linecap="round"/>
<path d="M502.264 611.411C486.971 604.67 474.377 595.37 463.208 586.603C466.224 584.827 490.892 594.294 496.005 596.152C514.559 602.897 534.455 608.067 553.032 614.728C554.083 615.104 575.734 623.178 566.456 623.685C554.521 624.338 539.472 620.81 527.347 618.424C518.499 616.684 509.973 614.81 502.264 611.411Z" fill="#FFEED8"/>
<path d="M458.244 582.68C470.638 592.505 484.663 603.653 502.264 611.411C509.973 614.81 518.499 616.684 527.347 618.424C539.472 620.81 554.521 624.338 566.456 623.685C575.734 623.178 554.083 615.104 553.032 614.728C534.455 608.067 514.559 602.897 496.005 596.152C490.887 594.292 466.174 584.808 463.199 586.608" stroke="#0038FF" stroke-width="4.5" stroke-linecap="round"/>
<path d="M439.877 600.864C455.827 608.35 469.278 620.714 481.251 632.538C478.368 636.195 452.758 626.446 447.458 624.597C428.227 617.884 407.78 614.098 388.533 607.53C387.445 607.158 364.987 598.99 374.276 595.931C386.225 591.996 401.66 594.228 414.057 595.27C423.102 596.031 431.836 597.09 439.877 600.864Z" fill="#FFEED8"/>
<path d="M486.575 637.836C473.281 624.557 458.234 609.48 439.877 600.864C431.836 597.09 423.102 596.031 414.057 595.27C401.66 594.228 386.225 591.996 374.276 595.931C364.987 598.99 387.445 607.158 388.533 607.53C407.78 614.098 428.227 617.884 447.458 624.597C452.763 626.448 478.42 636.215 481.26 632.527" stroke="#0038FF" stroke-width="4.5" stroke-linecap="round"/>
<path d="M565.017 592.466C565.934 596.032 577.378 600.103 580.889 601.733C591.388 606.607 602.067 610.982 613.368 614.45C623.03 617.415 632.437 618.373 642.685 617.894C647.633 617.663 658.237 617.054 659.311 611.935C660.687 605.373 652.139 600.018 645.586 597.858C634.892 594.334 622.308 594.855 611.005 594.702C597.309 594.516 583.652 592.718 569.947 592.533" stroke="#0038FF" stroke-width="4.5" stroke-linecap="round"/>
<path d="M685.376 588.451C685.77 591.285 703.392 593.534 706.606 594.474C717.624 597.696 727.185 603.081 737.941 606.728C742.294 608.204 759.751 610.76 761.958 605.126C763.845 600.308 758.22 596.258 753.444 594.66C733.518 587.992 710.326 594.268 690.306 588.518" stroke="#0038FF" stroke-width="4.5" stroke-linecap="round"/>
<path d="M889.43 555.161C883.152 563.405 876.081 571.556 868.439 579.046C859.85 587.462 846.614 587.988 833.756 585.997C823.682 584.437 813.45 581.262 805.268 578.724C802.958 578.007 800.812 577.342 798.879 576.777C787.154 573.353 775.163 570.506 763.159 567.656C755.689 565.882 748.213 564.107 740.794 562.191C724.638 558.019 708.267 553.895 692.096 549.956L691.876 549.902L691.746 549.87C677.08 546.297 658.531 541.778 645.513 534.201C640.348 531.194 637.284 527.677 635.517 523.774C633.767 519.911 633.347 515.792 633.251 511.7C633.105 505.536 634.207 499.362 635.628 493.348C636.255 490.695 636.929 488.126 637.592 485.597C638.464 482.276 639.317 479.025 640.021 475.743L644.703 453.939C645.078 452.191 645.365 450.315 645.667 448.34L645.667 448.336C645.967 446.379 646.28 444.33 646.704 442.307C647.552 438.268 648.872 434.167 651.584 430.809C655.305 426.2 658.949 422.028 663.906 418.023C666.246 416.133 669.589 414.685 672.917 413.488C674.848 412.794 676.933 412.133 678.866 411.52C680.203 411.096 681.468 410.695 682.559 410.321C686.643 408.924 691.301 408.324 695.861 407.833C696.528 407.761 697.193 407.691 697.854 407.622C701.775 407.212 705.575 406.814 709.037 406.019C714.938 404.664 720.648 403.879 727.337 404.614C743.26 406.364 758.944 409.405 774.601 412.44C779.31 413.352 784.015 414.264 788.725 415.141C806.133 418.381 822.985 422.055 840.179 426.671C852.335 429.935 864.079 433.462 873.88 440.832C883.346 447.949 888.11 458.465 892.125 467.327C892.375 467.88 892.623 468.426 892.868 468.965C900.982 486.764 905.109 505.459 901.265 523.365C901.142 523.935 901.02 524.506 900.898 525.078C898.701 535.383 896.451 545.941 889.43 555.161Z" fill="#0033E6" stroke="#FFEED8" stroke-width="3" stroke-linecap="round"/>
<path d="M817.064 428.711C821.03 429.893 824.096 432.327 826.957 434.784C833.582 440.471 840.574 445.954 845.645 452.617C848.426 456.27 858.473 473.947 851.546 476.71C848.078 478.093 836.284 470.54 833.84 469.2C824.901 464.299 817.62 459.046 812.691 451.368C806.988 442.485 804.733 434.396 795.593 426.701C792.952 424.478 787.933 418.958 788.585 424.956C790.03 438.237 793.487 449.793 800.916 462.083C806.039 470.557 794.378 471.638 787.759 466.915C773.355 456.637 774.822 446.423 772.156 433.853C770.572 426.383 765.64 421.6 760.077 415.609C757.541 412.876 757.552 417.053 757.248 418.468C756.366 422.578 754.565 426.996 755.599 431.309C756.368 434.517 761.034 451.02 755.954 452.863C746.076 456.446 733.683 438.459 734.408 432.297C735.224 425.361 737.702 418.856 739.747 412.303C741.867 405.508 747.697 406.883 754.971 408.445C774.757 412.693 794.047 420.302 813.541 424.487" stroke="#FFEED8" stroke-width="3.62421" stroke-linecap="round"/>
<path d="M727.211 664.826C725.713 663.228 722.612 658.926 720.366 658.603C715.721 654.978 704.565 652.705 701.408 651.322C696.311 649.09 691.829 644.1 686.446 642.372C682.2 641.009 678.22 639.266 673.658 638.857C667.225 638.28 660.834 638.815 654.439 638.729C653.286 638.713 645.943 638.898 645.799 640.537C645.609 642.696 646.161 644.807 647.459 646.592C648.176 647.579 649.684 649.911 650.419 651.047C649.045 649.269 645.989 648.364 644.434 646.871C642.229 644.753 637.262 643.969 634.514 643.419C630.727 642.662 626.863 642.209 623.098 641.398C618.245 640.353 590.136 637.693 591.869 646.883C592.438 649.901 591.727 648.504 589.439 647.588C587.028 646.621 584.32 646.409 581.98 645.143C575.767 641.782 568.865 638.573 561.615 638.338C554.607 638.112 547.762 638.687 540.843 638.711C535.001 638.731 530.067 641.249 525.125 644.205C515.41 650.015 504.928 655.509 504.522 668.067C504.341 673.679 505.2 679.394 505.017 685.045C504.949 687.175 504.993 689.237 504.41 691.288C504.201 692.022 503.703 696.4 503.038 694.259C502.715 693.217 502.266 692.615 501.67 691.721C499.11 687.88 494.834 693.311 494.733 696.455C494.426 705.939 493.764 715.827 494.435 725.41C495.117 735.145 495.244 745.231 494.928 754.999C494.788 759.348 494.122 761.263 492.005 764.704C491.513 765.505 490.708 765.327 492 765.777C493.887 766.434 496.12 766.539 497.858 767.532C500.945 769.296 504.702 770.217 507.955 771.772C510.765 773.116 514.894 773.655 518.001 774.06L518.087 774.071C524.001 774.843 530.031 774.801 535.962 775.403C539.756 775.788 544.951 777.147 548.751 776.193C555.531 774.491 564.073 776.632 571.256 776.021C587.243 774.662 603.576 774.779 619.401 771.953C630.306 770.005 640.936 766.787 651.691 764.153C660.558 761.981 669.669 761.226 678.745 760.475C687.137 759.781 695.523 759.084 703.921 758.389C709.804 757.903 715.756 758.429 721.605 757.54C725.93 756.883 729.768 756.46 732.957 753.471C735.431 751.152 736.754 746.745 736.932 743.51C737.071 740.994 737.391 738.179 736.778 735.734C736.273 733.724 735.255 730.821 735.321 728.758C735.444 724.973 737.087 722.568 737.214 718.642C737.36 714.134 736.981 709.706 737.127 705.187C737.236 701.797 737.866 698.473 737.973 695.153C738.083 691.752 741.813 689.359 741.925 685.916C742.107 680.268 740.784 677.149 736.863 672.966C733.978 669.888 730.096 667.903 727.211 664.826Z" fill="#0038FF" stroke="#FFEED8" stroke-width="1.52351" stroke-linecap="round"/>
<path d="M729.531 723.337C723.711 720.044 717.097 716.99 713.88 710.815C712.001 707.208 710.976 703.474 709.742 699.643C708.76 696.597 707.588 693.82 705.399 691.43C702.956 688.763 700.314 686.371 698.029 683.548C696.041 681.092 693.967 678.707 691.942 676.282C689.614 673.494 687.674 670.373 685.115 667.804C684.442 667.128 683.734 666.517 682.896 666.064C679.632 664.298 676.153 662.862 672.799 661.27C670.528 660.193 668.17 659.311 665.871 658.298C664.461 657.677 663.159 656.803 661.828 656.033C660.693 655.375 660.479 654.599 659.881 653.579C659.723 653.308 659.183 651.968 659.539 651.702C659.831 651.484 660.335 651.459 660.694 651.368C662.374 650.947 664.133 650.961 665.852 650.979C668.864 651.011 671.879 651.155 674.882 651.418C677.879 651.68 680.699 652.575 683.489 653.652C686.008 654.624 688.355 656.293 690.437 657.986C692.043 659.292 693.662 660.589 695.012 662.167C696.358 663.74 697.857 665.598 698.247 667.691C698.878 671.08 699.432 674.557 700.456 677.855C701.45 681.058 702.954 684.086 703.98 687.281C704.431 688.687 705.75 690.263 705.702 691.734" stroke="#FFEED8" stroke-width="1.37407" stroke-linecap="round"/>
<path d="M681.071 702.787C676.623 699.026 671.346 696.302 666.505 693.1C662.83 690.669 659.402 688.179 656.256 685.086C653.797 682.667 651.76 679.916 649.562 677.27C645.605 672.509 640.906 668.718 635.685 665.426C631.059 662.509 626.097 660.301 621.148 658.002C617.717 656.409 614.515 654.408 611.083 652.813C609.698 652.17 608.243 651.568 606.95 650.749C606.427 650.417 605.737 649.941 605.63 649.269C605.385 647.728 606.669 647.273 607.953 646.813C612.552 645.165 617.728 645.546 622.511 645.877C626.542 646.156 630.481 647.011 634.252 648.468C638.563 650.133 642.634 652.719 646.362 655.43C650.831 658.678 655.382 662.406 658.857 666.724C660.694 669.007 662.032 671.449 663.129 674.161C664.225 676.872 665.368 679.53 666.246 682.322C667.191 685.326 668.027 688.22 669.603 690.969C671.104 693.586 672.606 696.421 675.003 698.334C676.059 699.177 677.34 699.871 678.552 700.462C679.174 700.766 679.779 701.146 680.426 701.386" stroke="#FFEED8" stroke-width="1.37407" stroke-linecap="round"/>
<path d="M679.975 708.276C683.425 708.387 685.856 712.298 686.814 715.214C688.07 719.037 686.937 722.534 684.747 725.751C683.8 727.142 682.594 728.921 680.925 729.513C678.402 730.409 675.038 729.458 672.556 729C668.404 728.232 664.155 726.71 660.882 723.97C657.756 721.353 655.425 717.993 653.663 714.354C650.591 708.007 647.559 701.589 643.068 696.096C639.302 691.489 634.812 687.428 630.314 683.553C625.563 679.461 620.483 675.898 615.256 672.45C612.215 670.444 609.099 668.643 605.94 666.838C605.027 666.316 604.02 665.821 603.38 664.965C602.604 663.928 601.642 662.956 601.764 661.57C601.942 659.551 603.675 658.59 605.55 658.932C608.702 659.505 611.906 660.675 614.905 661.765C616.763 662.44 618.552 663.266 620.339 664.107C622.312 665.036 624.338 665.94 626.159 667.152C629.161 669.152 631.919 671.538 634.302 674.241C636.156 676.344 637.823 678.602 639.627 680.747C643.666 685.55 648.81 689.546 654.021 692.999C658.854 696.2 663.921 699.154 669.021 701.914C672.644 703.873 676.248 705.817 680.069 707.358C680.927 707.704 681.817 707.989 682.713 708.223C682.822 708.252 683.323 708.333 683.397 708.412C683.433 708.45 682.621 708.821 682.489 708.817" stroke="#FFEED8" stroke-width="1.37407" stroke-linecap="round"/>
<path d="M644.654 754.649C642.722 753.604 641.107 752.305 639.696 750.615C638.276 748.914 637.08 747.006 635.898 745.137C634.578 743.051 633.247 740.96 632.05 738.8C630.661 736.291 629.338 733.72 628.209 731.083C627.026 728.319 626.24 725.452 625.417 722.568C623.926 717.351 621.479 712.471 619.605 707.386C618.34 703.954 616.78 700.677 615.095 697.436C613.733 694.816 613.016 691.945 611.676 689.323C610.54 687.102 609.129 684.972 607.189 683.388C604.233 680.974 600.695 679.721 597.183 678.341C592.953 676.679 588.614 675.222 584.534 673.203C581.294 671.599 578.139 669.858 574.882 668.283C570.96 666.385 566.892 664.848 562.586 664.108C560.03 663.668 557.265 663.264 554.801 664.316C552.497 665.3 551.082 667.657 550.198 669.894C549.195 672.43 548.919 674.828 549.254 677.54C549.637 680.641 550.531 683.564 551.902 686.369C552.7 688.001 553.562 689.658 554.827 690.982C556.818 693.067 559.667 694.019 562.346 694.875C567.284 696.453 572.497 696.814 577.462 698.227C581.037 699.244 583.869 701.618 586.886 703.657C588.922 705.033 591 706.326 592.938 707.841C594.849 709.335 596.662 710.943 598.554 712.458C602.284 715.445 606.293 718.043 610.563 720.184C616.727 723.274 622.227 727.111 625.882 733.078C626.897 734.735 627.912 736.404 629.231 737.839C630.385 739.096 631.563 740.283 632.762 741.494C633.995 742.74 634.992 744.252 636.08 745.622C637.127 746.94 638.162 748.278 639.231 749.578C640.083 750.613 640.88 751.776 641.893 752.661C642.247 752.971 642.68 753.454 643.135 753.571C643.547 753.676 644.544 754.273 643.649 753.696" stroke="#FFEED8" stroke-width="1.37407" stroke-linecap="round"/>
<path d="M606.138 742.044C605.601 741.844 605.152 741.524 604.683 741.227C602.649 739.934 600.578 738.679 598.515 737.415C590.275 732.369 581.745 727.587 573.826 722.211C570.862 720.199 567.813 718.246 564.936 716.159C561.7 713.812 558.681 711.292 555.539 708.873C552.884 706.829 550.121 704.869 547.4 702.877C544.669 700.878 542.038 698.785 539.219 696.859C535.568 694.365 531.037 691.639 526.605 690.346C524.06 689.604 521.573 689.637 520.117 691.006C519.458 691.625 519.466 692.688 519.558 693.553C519.778 695.614 520.827 698.106 522.199 700.102C526.166 705.875 532.907 710.474 540.009 714.052C543.485 715.803 547.139 717.232 550.704 718.823C553.827 720.216 556.879 721.727 559.98 723.157C567.098 726.439 574.412 729.189 581.657 732.198C587.252 734.522 592.714 737.016 598.392 739.143C601.164 740.181 604.004 741.368 606.722 742.386" stroke="#FFEED8" stroke-width="1.37407" stroke-linecap="round"/>
<path d="M600.188 758.148C599.854 758.137 599.548 757.986 599.235 757.861C597.875 757.32 596.501 756.827 595.131 756.323C589.657 754.309 584.066 752.643 578.713 750.212C576.71 749.303 574.669 748.477 572.701 747.468C570.487 746.333 568.365 744.963 566.191 743.729C564.354 742.687 562.472 741.759 560.607 740.788C558.736 739.813 556.904 738.715 554.996 737.839C552.526 736.704 549.524 735.643 546.827 735.9C545.279 736.048 543.898 736.908 543.324 738.683C543.065 739.486 543.255 740.485 543.457 741.269C543.939 743.139 544.959 745.138 546.072 746.562C549.29 750.683 553.851 752.774 558.435 753.782C560.678 754.275 562.965 754.405 565.23 754.717C567.214 754.991 569.18 755.399 571.158 755.714C575.699 756.438 580.257 756.594 584.821 757.018C588.347 757.346 591.827 757.878 595.364 757.992C597.09 758.048 598.88 758.221 600.574 758.275" stroke="#FFEED8" stroke-width="1.37407" stroke-linecap="round"/>
<path d="M767.158 336.74C770.031 329.324 775.708 323.263 781.446 317.907C785.022 314.57 790.521 309.346 794.615 307.407C797.406 305.791 800.525 304.181 803.807 303.688C809.673 302.808 815.723 303.138 821.642 303.138L822.006 303.137C826.907 303.137 831.551 303.136 836.377 304.222C850.074 307.304 863.235 313.188 869.928 326.239C873.004 332.238 875.531 338.499 876.745 345.175C878.229 353.339 880.058 361.7 879.447 370.067C878.846 378.313 876.772 385.355 873.009 392.687C871.073 396.461 868.607 399.883 866.571 403.601C864.142 408.037 862.368 412.847 859.169 416.821C854.776 422.279 849.838 424.289 843.091 425.222C838.378 425.873 833.486 425.532 828.734 425.532C822.455 425.532 815.959 425.3 810.005 423.208C806.407 421.944 802.885 419.844 799.452 418.181C792.949 415.031 786.3 411.98 780.069 408.317C771.396 403.22 761.131 395.01 759.446 384.338C758.467 378.14 758.782 371.35 759.807 365.195C761.416 355.545 763.619 345.874 767.158 336.74Z" fill="#FFEED8" stroke="#0033E6" stroke-width="4" stroke-linecap="round"/>
<path d="M794.926 308.617C795.211 311.755 796.413 315.688 797.687 318.554C799.488 322.608 798.653 317.407 798.653 318.554" stroke="#0033E6" stroke-width="4" stroke-linecap="round"/>
<path d="M852.064 312.343C848.833 312.747 842.878 324.765 843.369 324.765" stroke="#0033E6" stroke-width="4" stroke-linecap="round"/>
<path d="M876.908 345.881C872.267 345.881 867.82 347.123 863.244 347.123" stroke="#0033E6" stroke-width="4" stroke-linecap="round"/>
<path d="M870.697 391.84C865.76 391.84 860.897 390.598 855.792 390.598" stroke="#0033E6" stroke-width="4" stroke-linecap="round"/>
<path d="M792.441 412.957C792.441 409.639 793.552 407.01 794.926 404.262" stroke="#0033E6" stroke-width="4" stroke-linecap="round"/>
</g>
<rect x="3" y="3" width="994" height="994" rx="6" stroke="#0033E6" stroke-width="6"/>
<defs>
<clipPath id="clip0_394_368">
<rect width="1000" height="1000" rx="9" fill="white"/>
</clipPath>
</defs>
</svg>
