<svg width="1000" height="1000" viewBox="0 0 1000 1000" fill="none" xmlns="http://www.w3.org/2000/svg">
<g clip-path="url(#clip0_394_722)">
<rect width="1000" height="1000" rx="9" fill="#FFEED8"/>
<path d="M109.413 137.86C112.213 137.535 114.738 138.264 116.989 140.046C119.239 141.829 120.527 144.12 120.851 146.921C121.176 149.721 120.448 152.247 118.665 154.497C116.883 156.747 114.591 158.035 111.791 158.36L101.373 159.568L92.4795 220.883C92.0463 223.998 90.8004 226.47 88.742 228.298C86.7826 230.001 84.4587 231.009 81.7702 231.321C78.4097 231.711 75.2617 230.997 72.3263 229.181C69.4899 227.24 67.8638 224.477 67.4479 220.892C67.318 219.772 67.343 218.52 67.5231 217.137L75.4968 162.57C72.7953 162.77 70.3259 162.035 68.0887 160.365C65.9504 158.569 64.7188 156.271 64.3939 153.471C64.069 150.67 64.7978 148.145 66.5802 145.895C68.3626 143.644 70.654 142.357 73.4545 142.032L78.4953 141.447L81.2822 122.903C81.7285 119.899 82.9808 117.483 85.0392 115.655C87.1967 113.702 89.6756 112.563 92.4761 112.238C95.8367 111.848 98.8726 112.574 101.584 114.417C104.295 116.259 105.852 118.917 106.255 122.389C106.411 123.734 106.399 125.097 106.219 126.481L104.54 138.425L109.413 137.86ZM176.265 128.231C182.986 127.451 188.808 128.705 193.731 131.994C198.653 135.283 201.556 140.736 202.44 148.353C202.869 152.05 202.777 156.148 202.164 160.646L195.09 208.297C194.571 211.649 193.177 214.309 190.907 216.275C188.75 218.228 186.159 219.38 183.134 219.731C179.886 220.108 176.919 219.487 174.234 217.869C171.647 216.125 170.166 213.629 169.789 210.381C169.646 209.149 169.677 207.953 169.883 206.794L175.939 165.051C176.192 163.319 176.221 161.613 176.026 159.932C175.649 156.684 174.375 154.504 172.203 153.394C170.129 152.159 167.748 151.697 165.06 152.009C159.235 152.685 155.45 156.757 153.705 164.225L146.272 214.642C145.839 217.757 144.606 220.341 142.574 222.393C140.528 224.333 138.049 225.473 135.137 225.81C131.776 226.2 128.74 225.474 126.029 223.632C123.305 221.677 121.728 218.852 121.299 215.155C121.143 213.811 121.149 212.391 121.316 210.896L136.883 104.361C137.416 101.121 138.704 98.5305 140.75 96.5903C142.907 94.6371 145.386 93.498 148.187 93.1731C151.659 92.7702 154.702 93.5525 157.314 95.52C160.038 97.4744 161.602 100.188 162.005 103.661C162.109 104.557 162.054 106.039 161.84 108.107L157.283 139.288C161.76 132.865 168.088 129.179 176.265 128.231ZM283.755 116.1C287.116 115.711 290.033 116.394 292.508 118.15C294.982 119.907 296.44 122.689 296.882 126.498C297.09 128.29 297.067 130.052 296.814 131.785L287.161 198.296C286.728 201.411 285.426 203.89 283.256 205.731C281.197 207.559 278.824 208.629 276.135 208.941C272.775 209.331 269.683 208.611 266.86 206.782C264.023 204.84 262.397 202.077 261.981 198.493C261.864 197.484 261.829 196.694 261.876 196.121C259.497 201.051 256.384 205.045 252.538 208.103C248.692 211.16 244.193 212.988 239.04 213.585C230.751 214.547 224.288 212.175 219.653 206.469C215.004 200.651 212.128 192.981 211.023 183.459C210.516 179.09 210.419 174.334 210.73 169.189C211.362 160.941 213.193 153.236 216.222 146.073C219.251 138.91 223.444 132.975 228.801 128.266C234.158 123.558 240.477 120.781 247.758 119.936C252.911 119.338 257.462 120.4 261.41 123.12C265.458 125.716 268.614 129.437 270.879 134.283L271.819 127.703C272.338 124.35 273.733 121.691 276.002 119.725C278.258 117.646 280.843 116.438 283.755 116.1ZM249.792 188.838C254.161 188.331 257.841 185.804 260.833 181.256C263.812 176.597 265.51 171.177 265.929 164.998C266.138 161.909 266.112 159.244 265.852 157.004C265.32 152.411 263.995 148.818 261.877 146.226C259.747 143.521 256.89 142.377 253.305 142.793C248.936 143.3 245.256 145.827 242.264 150.374C239.385 154.909 237.637 160.391 237.02 166.82C236.811 169.909 236.823 172.462 237.057 174.478C237.59 179.071 238.978 182.713 241.22 185.405C243.462 188.096 246.32 189.241 249.792 188.838ZM356.764 107.289C363.485 106.51 369.307 107.764 374.23 111.053C379.139 114.23 382.043 119.683 382.939 127.412C383.368 131.109 383.276 135.206 382.663 139.705L375.758 187.336C375.238 190.688 373.844 193.348 371.574 195.314C369.305 197.28 366.658 198.439 363.634 198.79C360.385 199.167 357.474 198.539 354.901 196.908C352.327 195.276 350.852 192.836 350.475 189.588C350.345 188.468 350.37 187.216 350.551 185.833L356.606 144.09C356.859 142.358 356.895 140.708 356.713 139.14C356.336 135.891 355.055 133.656 352.87 132.433C350.796 131.198 348.36 130.743 345.559 131.068C342.647 131.406 340.23 132.594 338.31 134.633C336.501 136.66 335.146 139.655 334.244 143.62L326.939 193.681C326.506 196.796 325.204 199.275 323.034 201.116C320.975 202.944 318.602 204.014 315.913 204.326C312.441 204.729 309.293 204.016 306.47 202.186C303.758 200.344 302.195 197.63 301.779 194.046C301.623 192.701 301.635 191.338 301.815 189.954L311.597 123.088C312.116 119.735 313.504 117.02 315.761 114.942C318.017 112.863 320.602 111.655 323.514 111.317C326.539 110.966 329.281 111.613 331.743 113.258C334.191 114.79 335.778 117.217 336.504 120.539C341.049 112.745 347.803 108.329 356.764 107.289ZM448.033 102.15C450.719 98.8864 453.911 97.0403 457.607 96.6114C460.632 96.2605 463.319 96.9138 465.668 98.5711C468.129 100.216 469.523 102.438 469.847 105.238C470.211 108.375 469.1 111.512 466.512 114.651L442.294 143.685L458.733 170.898C459.699 172.375 460.28 173.954 460.475 175.634C460.839 178.77 459.856 181.552 457.526 183.98C455.184 186.295 452.332 187.647 448.972 188.037C446.507 188.323 444.14 187.974 441.868 186.988C439.696 185.878 437.9 184.1 436.481 181.653L418.112 149.556C417.811 156.743 416.676 168 414.708 183.328C414.361 186.206 413.115 188.678 410.971 190.743C408.925 192.683 406.446 193.823 403.534 194.16C399.837 194.589 396.67 193.708 394.031 191.517C391.393 189.325 389.879 186.549 389.489 183.188C389.359 182.068 389.397 180.929 389.603 179.769L405.171 73.2349C405.544 70.5805 406.691 68.2337 408.611 66.1944C410.644 64.1422 413.116 62.9472 416.028 62.6092C419.501 62.2064 422.613 63.0942 425.363 65.2727C428.1 67.3391 429.664 70.0527 430.054 73.4132C430.171 74.4214 430.133 75.5611 429.939 76.8323C427.447 94.491 425.499 107.546 424.096 115.996C422.679 124.334 421.427 130.667 420.339 134.993L448.033 102.15ZM505.301 182.694C496.675 183.695 489.654 182.863 484.236 180.2C478.818 177.536 474.789 173.633 472.149 168.49C471.256 166.663 470.718 164.966 470.536 163.398C470.147 160.037 471.06 157.15 473.278 154.735C475.495 152.321 478.228 150.926 481.477 150.549C483.941 150.263 486.316 150.668 488.6 151.766C490.871 152.751 492.723 154.523 494.155 157.081C496.428 161.018 499.861 162.72 504.454 162.187C507.03 161.888 509.031 161.032 510.457 159.618C511.882 158.203 512.504 156.712 512.322 155.144C512.114 153.352 510.973 151.838 508.9 150.603C506.926 149.242 503.911 147.719 499.855 146.032C495.2 144.075 491.356 142.25 488.322 140.559C485.274 138.755 482.498 136.353 479.993 133.351C477.599 130.337 476.149 126.645 475.642 122.276C475.058 117.235 475.918 112.424 478.225 107.843C480.519 103.149 484.149 99.2085 489.114 96.0212C494.067 92.7219 499.961 90.6759 506.794 89.8831C514.299 89.0124 520.853 89.7278 526.456 92.0295C532.046 94.2191 536.24 97.5924 539.039 102.149C540.018 103.739 540.618 105.485 540.839 107.39C541.19 110.414 540.369 113.121 538.375 115.509C536.369 117.785 533.854 119.099 530.829 119.45C528.701 119.697 526.563 119.377 524.417 118.491C522.258 117.492 520.251 115.852 518.397 113.57C517.332 112.217 515.795 111.204 513.787 110.528C511.877 109.728 509.915 109.445 507.898 109.679C505.77 109.926 504.043 110.694 502.716 111.983C501.502 113.259 500.999 114.793 501.207 116.586C501.467 118.826 502.64 120.62 504.726 121.967C506.924 123.302 510.282 124.842 514.799 126.589C519.453 128.546 523.235 130.321 526.145 131.913C529.166 133.493 531.811 135.74 534.079 138.656C536.459 141.559 537.896 145.138 538.39 149.395C538.988 154.548 538.091 159.534 535.698 164.352C533.404 169.046 529.669 173.055 524.492 176.381C519.315 179.706 512.918 181.81 505.301 182.694Z" fill="#0033E6"/>
<path d="M348.512 220.933C353.262 221.725 355.478 225.524 355.478 229.324C355.478 233.756 352.312 238.347 346.454 238.031C339.647 237.714 335.847 240.722 333.789 248.479L331.256 257.82H337.905C342.18 257.82 345.979 261.461 345.979 266.052C345.979 270.484 342.18 274.126 337.905 274.126H326.982L311.151 334.125C310.043 338.241 305.927 341.249 301.811 341.249C296.27 341.249 292.312 337.292 292.312 331.909C292.312 331.117 292.312 330.009 292.629 329.059L307.193 273.809C303.869 272.859 301.336 269.535 301.336 266.052C301.336 261.619 304.977 257.82 309.41 257.82H311.468L314.95 244.521C319.066 228.849 329.673 220.458 342.971 220.458C344.871 220.458 346.613 220.616 348.512 220.933ZM367.633 341.883C349.586 341.883 340.72 329.851 340.72 311.329C340.72 306.896 341.195 301.988 342.304 296.764C347.686 270.484 362.567 256.236 381.406 256.236C400.087 256.236 408.636 268.743 408.636 286.79C408.636 291.223 408.161 296.131 407.053 301.197C401.67 327.635 386.789 341.883 367.633 341.883ZM369.533 323.677C376.974 323.677 384.098 316.236 387.739 299.772C388.689 295.181 389.164 291.223 389.164 287.899C389.164 278.875 385.839 274.284 379.665 274.284C371.433 274.284 364.942 283.149 361.459 298.822C360.509 302.938 360.034 306.579 360.034 309.904C360.034 318.453 363.359 323.677 369.533 323.677ZM459.116 257.345C460.224 257.028 461.332 256.87 462.282 256.87C467.665 256.87 470.673 260.511 470.673 265.102C470.673 270.326 466.082 276.5 456.266 277.133C447.876 277.608 442.335 282.516 439.802 291.856L428.562 333.967C427.295 338.875 423.021 341.249 419.063 341.249C414.156 341.249 409.248 337.925 409.248 332.067C409.248 331.117 409.406 330.009 409.723 328.901L426.82 264.944C428.562 258.611 433.469 256.395 437.111 256.395C442.177 256.395 446.293 260.036 446.293 265.735C446.293 266.685 446.134 267.476 445.976 268.426C449.301 262.885 453.575 258.769 459.116 257.345Z" fill="#0033E6"/>
<path d="M562.401 269.827C563.862 268.183 565.513 267.08 567.355 266.515C569.196 265.951 571.057 265.886 572.938 266.321C575.502 266.914 577.546 268.198 579.071 270.171C580.681 272.165 581.209 274.358 580.655 276.751C580.26 278.461 579.414 279.976 578.118 281.297L513.115 351.491C510.523 354.133 507.603 355.079 504.355 354.327C501.876 353.754 499.851 352.385 498.281 350.22C496.796 348.076 496.34 345.764 496.914 343.285C497.309 341.576 498.165 340.018 499.481 338.611L512.479 324.464L522.711 265.642C523.272 262.44 524.7 260.159 526.996 258.799C529.377 257.459 531.978 257.115 534.799 257.767C537.363 258.361 539.398 259.687 540.902 261.746C542.512 263.739 543.024 266.199 542.437 269.125C541.131 275.937 539.934 281.693 538.847 286.394C536.948 294.6 535.024 301.359 533.075 306.671C538.518 297.935 548.293 285.653 562.401 269.827ZM590.023 343.35C581.732 341.432 575.842 337.502 572.354 331.562C568.97 325.557 568.267 318.28 570.245 309.733C570.858 307.083 571.777 304.279 573.002 301.32C577.269 291.051 583.161 283.68 590.68 279.206C598.199 274.732 606.403 273.523 615.292 275.58C623.669 277.518 629.592 281.499 633.06 287.525C636.549 293.465 637.304 300.709 635.327 309.256C634.694 311.991 633.775 314.795 632.57 317.668C628.303 327.938 622.368 335.299 614.763 339.753C607.245 344.227 598.998 345.426 590.023 343.35ZM595.842 325.786C599.262 326.577 602.547 325.806 605.698 323.473C608.869 321.055 611.59 317.272 613.861 312.124C614.843 309.83 615.511 307.913 615.867 306.375C616.698 302.785 616.571 299.829 615.487 297.507C614.404 295.185 612.451 293.698 609.631 293.045C606.383 292.294 603.14 293.075 599.904 295.388C596.772 297.635 594.041 301.46 591.71 306.864C590.749 309.073 590.09 310.947 589.734 312.486C588.904 316.076 589.03 319.032 590.114 321.353C591.198 323.675 593.107 325.153 595.842 325.786ZM702.546 296.307C705.11 296.9 707.145 298.226 708.649 300.285C710.24 302.364 710.718 304.771 710.086 307.506C709.888 308.361 709.522 309.357 708.989 310.495L684.491 356.831C683.214 359.237 681.434 360.896 679.152 361.809C676.955 362.742 674.745 362.951 672.523 362.437C670.301 361.923 668.45 360.774 666.972 358.991C665.598 357.143 665.07 354.949 665.387 352.411C660.124 356.867 654.031 358.294 647.107 356.692C642.064 355.525 638.117 353.126 635.265 349.494C632.433 345.777 631.699 340.97 633.063 335.072C633.676 332.422 634.868 329.411 636.639 326.039L654.254 293.104C655.512 290.783 657.229 289.199 659.406 288.352C661.603 287.42 663.813 287.21 666.035 287.725C668.514 288.298 670.473 289.562 671.912 291.516C673.436 293.489 673.912 295.715 673.338 298.194C673.14 299.049 672.805 299.917 672.331 300.798L656.878 329.641C656.239 330.844 655.771 332.086 655.475 333.368C654.901 335.847 655.255 337.82 656.537 339.287C657.818 340.754 659.485 341.725 661.536 342.2C663.759 342.714 665.787 342.508 667.622 341.582C669.458 340.656 671.224 338.858 672.922 336.189L691.555 301.193C692.687 299.024 694.247 297.538 696.233 296.737C698.305 295.956 700.409 295.812 702.546 296.307ZM752.528 308.276C753.784 308.296 754.84 308.405 755.694 308.603C758.088 309.157 759.833 310.371 760.93 312.246C762.027 314.12 762.338 316.084 761.864 318.135C761.231 320.87 759.451 323.115 756.524 324.869C753.702 326.557 749.976 327.091 745.347 326.47C738.607 325.632 733.579 328.295 730.261 334.462L714.442 364.301C713.31 366.47 711.708 367.946 709.636 368.727C707.65 369.528 705.631 369.691 703.58 369.217C700.93 368.604 698.81 367.258 697.22 365.179C695.715 363.12 695.279 360.723 695.912 357.987C696.149 356.962 696.515 355.966 697.008 354.999L721.664 308.564C722.921 306.244 724.649 304.617 726.845 303.685C729.042 302.752 731.252 302.543 733.474 303.057C735.868 303.611 737.741 304.855 739.095 306.789C740.534 308.743 740.979 311.097 740.432 313.852C744.412 310.27 748.445 308.412 752.528 308.276Z" fill="#0033E6"/>
<path d="M833.001 526.448C830.351 525.835 828.379 524.433 827.085 522.242C825.79 520.052 825.43 517.717 826.004 515.238C826.241 514.213 826.504 513.463 826.794 512.99L849.782 467.925C850.954 465.585 852.595 463.938 854.707 462.986C856.838 461.948 859.057 461.696 861.365 462.23C864.357 462.922 866.47 464.492 867.705 466.939C868.96 469.3 869.291 471.763 868.697 474.327C868.46 475.353 868.197 476.103 867.907 476.576L843.291 521.669C842.343 523.431 840.899 524.808 838.959 525.8C837.038 526.706 835.052 526.922 833.001 526.448ZM819.227 550.952C816.235 550.259 814.05 548.808 812.67 546.598C811.31 544.302 810.936 541.829 811.55 539.18C812.242 536.188 813.966 533.795 816.722 532.002C819.564 530.228 822.652 529.726 825.985 530.498C828.891 531.17 831.024 532.654 832.384 534.95C833.849 537.18 834.285 539.577 833.692 542.141C832.98 545.218 831.203 547.644 828.362 549.418C825.52 551.192 822.475 551.703 819.227 550.952Z" fill="#0033E6"/>
<path d="M311.906 865.78C314.058 868.042 316.997 869.99 318.026 872.879C320.226 882.694 354.613 876.13 363.661 877.298C381.5 879.599 408.406 867.575 425.333 862.329C456.791 852.58 489.728 845.549 521.537 836.886C548.278 829.603 575.382 822.412 602.163 815.552L602.527 815.459C626.944 809.204 657.374 801.409 678.389 788.057C694.539 777.795 696.606 764.272 696.51 749.585C696.369 727.825 688.156 705.572 683.45 684.572L674.525 644.75C671.578 631.598 671.018 614.954 662.395 603.617C655.993 595.199 649.837 587.701 641.575 580.489C634.293 574.133 620.371 570.188 610.845 566.554C597.677 561.528 580.68 561.911 566.716 558.268C556.96 555.722 547.7 554.242 536.959 555.408C502.656 559.13 469.182 566.816 435.297 573.339C406.478 578.887 378.626 585.231 350.26 593.279C330.134 598.99 311.166 605.082 295.62 617.966C279.828 631.052 272.709 651.001 266.135 667.808C253.631 699.78 247.887 733.14 255.04 765.057C259.512 785.011 263.482 804.844 275.921 822.14C286.746 837.192 298.874 852.084 311.906 865.78Z" fill="#0038FF" stroke="#FFEED8" stroke-width="2.74308" stroke-linecap="round"/>
<path d="M388.183 594.81C381.629 596.884 376.64 601.259 371.994 605.678C361.237 615.909 349.856 625.761 341.739 637.8C337.288 644.402 321.436 676.411 333.131 681.582C338.986 684.171 358.27 670.644 362.276 668.252C376.934 659.499 388.809 650.072 396.636 636.181C405.693 620.108 409.04 605.414 423.889 591.575C428.18 587.577 436.269 577.619 435.488 588.534C433.759 612.705 428.585 633.692 416.824 655.938C408.714 671.278 428.218 673.478 439.015 665.004C462.512 646.564 459.543 627.923 463.345 605.072C465.604 591.494 473.585 582.876 482.555 572.07C486.646 567.142 486.841 574.753 487.42 577.337C489.102 584.842 492.332 592.928 490.829 600.767C489.711 606.596 482.773 636.574 491.34 640.033C508 646.758 527.748 614.231 526.223 602.989C524.506 590.335 520.041 578.432 516.294 566.451C512.41 554.029 502.756 556.417 490.705 559.118C457.922 566.465 426.14 579.945 393.842 587.184" stroke="#FFEED8" stroke-width="3.23779" stroke-linecap="round"/>
<path d="M894.018 786.345C918.51 788.749 1133.64 791.636 1160.65 787.135L1133.72 932.19C1123.61 932.699 885.458 908.392 843.901 910.795C795.039 913.62 746.573 919.883 697.802 923.471C647.943 927.14 597.748 927.506 547.779 928.32C499.168 929.111 448.54 933.009 399.993 923.778L399.99 923.778C392.922 922.434 360.534 916.275 364.063 897.464C366.844 882.645 385.612 885.286 398.053 884.71C410.494 884.135 497.841 872.878 495.469 868.171C492.149 861.584 404.703 860.014 390.426 854.577C376.149 849.14 353.975 834.59 350.55 813.118C347.658 794.991 382.629 804.392 391.953 805.728C401.277 807.064 493.594 818.187 497.782 817.093C505.351 815.117 423.143 783.149 421.355 782.012C411.226 775.565 393.109 771.994 389.64 755.708C386.944 743.055 395.854 731.85 403.366 730.001C414.328 727.303 422.308 735.222 435.031 740.731C447.753 746.24 502.135 759.699 505.407 754.998C507.588 751.864 432.194 711.833 430.525 710.171C412.679 692.412 431.964 676.176 446.919 672.035C465.331 666.937 484.587 675.499 502.075 682.95C524.701 692.59 547.393 702.192 569.844 712.55C591.975 722.762 613.575 735.487 636.396 742.788C649.261 746.903 670.123 753.964 683.133 746.779C688.517 743.805 667.616 730.743 666.42 729.907C659.786 725.269 650.576 719.854 648.203 709.391C643.488 688.601 657.751 651.828 672.507 652.517C679.261 652.833 698.901 667.685 704.496 671.731C719.144 682.326 732.821 695.705 747.88 705.246C791.085 732.621 846.84 781.713 894.018 786.345Z" fill="#FFEED8" stroke="#0033E6" stroke-width="10.1254" stroke-linecap="round"/>
<path d="M154.075 531.932C154.985 531.642 155.937 531.353 156.93 531.063C157.922 530.732 158.977 530.381 160.094 530.008C160.467 530.877 160.818 531.642 161.149 532.304C161.522 532.966 161.749 533.628 161.832 534.29C161.956 535.531 162.246 536.628 162.701 537.579C163.197 538.489 163.797 539.296 164.5 539.999C165.245 540.703 166.052 541.344 166.92 541.923C167.789 542.461 168.699 542.957 169.651 543.412C171.223 544.198 172.816 544.798 174.429 545.212C176.084 545.626 177.739 545.832 179.394 545.832C182.538 545.832 185.351 545.108 187.833 543.66C190.357 542.213 192.363 540.082 193.852 537.269C194.556 536.028 194.887 534.745 194.845 533.421C194.804 532.098 194.349 530.815 193.48 529.574C192.611 528.374 191.681 527.257 190.688 526.223C189.695 525.147 188.474 524.32 187.026 523.741C185.165 523.037 183.303 522.376 181.441 521.755C179.621 521.093 177.78 520.472 175.918 519.893C173.974 519.273 172.03 518.714 170.085 518.218C168.141 517.721 166.238 517.059 164.376 516.232C163.135 515.694 161.935 514.991 160.777 514.122C159.66 513.253 158.626 512.323 157.674 511.33C156.888 510.544 156.309 509.613 155.937 508.537C155.606 507.42 155.585 506.22 155.875 504.938C156.04 504.235 156.123 503.531 156.123 502.828C156.123 502.125 156.164 501.422 156.247 500.718C156.412 498.195 157.074 495.961 158.233 494.016C159.432 492.072 160.922 490.417 162.701 489.052C164.521 487.687 166.548 486.611 168.782 485.825C171.016 485.039 173.291 484.563 175.608 484.398C176.022 484.315 176.436 484.274 176.849 484.274C177.263 484.274 177.677 484.274 178.09 484.274C179.952 484.274 181.793 484.418 183.613 484.708C185.434 484.956 187.275 485.204 189.136 485.453C190.832 485.701 192.508 486.321 194.163 487.314C195.859 488.266 197.348 489.445 198.631 490.851C199.955 492.217 200.989 493.768 201.733 495.506C202.52 497.202 202.85 498.96 202.726 500.78C202.685 501.153 202.644 501.546 202.602 501.959C202.602 502.332 202.52 502.683 202.354 503.014C202.23 503.304 202.023 503.573 201.733 503.821C201.485 504.028 201.092 504.152 200.554 504.193C199.768 504.276 199.106 504.359 198.569 504.442C198.031 504.483 197.534 504.504 197.079 504.504C196.293 504.504 195.693 504.359 195.28 504.069C194.866 503.738 194.473 503.118 194.101 502.208C193.687 501.215 193.273 500.222 192.86 499.229C192.487 498.195 192.053 497.202 191.556 496.25C191.019 495.216 190.439 494.389 189.819 493.768C189.198 493.147 188.495 492.672 187.709 492.341C186.964 492.01 186.137 491.803 185.227 491.72C184.358 491.596 183.406 491.534 182.372 491.534C177.78 491.534 173.374 492.465 169.154 494.327C168.037 494.823 167.045 495.506 166.176 496.374C165.307 497.202 164.604 498.153 164.066 499.229C163.569 500.263 163.259 501.339 163.135 502.456C163.011 503.573 163.135 504.648 163.507 505.683C163.714 506.262 164.045 506.841 164.5 507.42C164.997 507.999 165.514 508.434 166.052 508.723C167.293 509.344 168.555 509.923 169.837 510.461C171.161 510.957 172.505 511.371 173.871 511.702C176.725 512.447 179.58 513.15 182.434 513.812C185.33 514.474 188.247 515.094 191.184 515.674C193.335 516.129 195.135 516.956 196.583 518.156C198.031 519.355 199.21 520.886 200.12 522.748C200.947 524.444 201.651 526.161 202.23 527.898C202.809 529.636 203.326 531.415 203.781 533.235C204.236 535.055 204.133 536.772 203.471 538.386C202.809 539.958 202.023 541.509 201.113 543.04C199.872 545.15 198.465 546.867 196.893 548.191C195.321 549.514 193.604 550.569 191.743 551.355C189.922 552.1 187.957 552.617 185.847 552.907C183.737 553.196 181.545 553.341 179.269 553.341C176.332 553.341 173.519 552.927 170.83 552.1C168.141 551.314 165.493 550.28 162.887 548.997C159.908 547.508 157.612 545.233 155.999 542.171C154.427 539.11 153.785 535.697 154.075 531.932Z" fill="#0033E6"/>
<path d="M282.252 455.357H289.078C289.616 460.694 289.906 466.114 289.947 471.616C290.03 477.118 290.03 482.641 289.947 488.185C289.864 493.687 289.782 499.168 289.699 504.629C289.657 510.09 289.782 515.427 290.071 520.639C290.113 521.301 289.823 521.756 289.202 522.005C288.623 522.294 287.879 522.439 286.968 522.439C286.182 522.439 285.355 522.356 284.486 522.191C283.659 522.025 282.893 521.839 282.19 521.632C282.149 521.343 282.066 520.95 281.942 520.453C281.859 519.957 281.776 519.419 281.694 518.84C281.611 518.261 281.508 517.702 281.383 517.164C281.301 516.585 281.218 516.109 281.135 515.737C279.811 516.564 278.55 517.392 277.35 518.219C276.191 519.005 274.992 519.709 273.751 520.329C271.93 521.239 270.027 521.922 268.042 522.377C266.097 522.873 264.132 523.122 262.146 523.122C259.292 523.122 256.52 522.605 253.831 521.57C251.142 520.495 248.701 518.798 246.508 516.482C244.936 514.868 243.757 513.151 242.971 511.331C242.227 509.511 241.689 507.546 241.358 505.436C240.985 502.664 240.717 499.892 240.551 497.12C240.427 494.307 240.365 491.515 240.365 488.743C240.365 485.971 240.386 483.199 240.427 480.428C240.51 477.614 240.551 474.822 240.551 472.05C240.551 469.816 240.53 467.603 240.489 465.41C240.448 463.218 240.427 461.004 240.427 458.77C240.427 457.902 240.448 457.219 240.489 456.722C240.572 456.226 240.717 455.854 240.923 455.605C241.172 455.316 241.523 455.109 241.978 454.985C242.475 454.861 243.116 454.757 243.902 454.675C244.729 454.551 245.453 454.488 246.074 454.488C247.646 454.488 248.66 454.902 249.115 455.73C249.57 456.557 249.715 458.026 249.549 460.136C249.466 461.501 249.446 462.887 249.487 464.293C249.528 465.658 249.549 467.024 249.549 468.389C249.549 469.423 249.549 470.437 249.549 471.43C249.549 472.422 249.528 473.436 249.487 474.47C249.404 477.118 249.259 479.766 249.053 482.413C248.887 485.02 248.846 487.667 248.929 490.356C249.011 492.715 249.322 495.052 249.859 497.369C250.397 499.644 250.935 501.961 251.473 504.319C251.886 506.098 252.59 507.525 253.583 508.601C254.617 509.676 255.858 510.566 257.306 511.269C258.713 511.972 260.119 512.531 261.526 512.945C262.932 513.317 264.36 513.503 265.808 513.503C268 513.503 270.234 512.965 272.51 511.89C275.612 510.442 277.846 508.456 279.211 505.932C280.577 503.367 281.404 500.616 281.694 497.679C282.107 493.128 282.273 488.598 282.19 484.089C282.149 479.538 282.169 474.967 282.252 470.375C282.294 467.975 282.294 465.555 282.252 463.114C282.252 460.673 282.252 458.088 282.252 455.357Z" fill="#0033E6"/>
<path d="M364.759 485.374C364.738 486.68 364.819 487.968 365.002 489.238C365.185 490.508 365.408 491.771 365.673 493.027C365.978 494.275 366.28 495.503 366.577 496.711C366.923 497.952 367.208 499.204 367.432 500.467C367.961 502.978 368.482 505.448 368.997 507.878C369.559 510.341 370.108 512.849 370.644 515.401C370.206 515.773 369.75 516.042 369.275 516.21C368.808 516.419 368.35 516.563 367.902 516.643C367.291 516.751 366.669 516.798 366.037 516.784C365.404 516.77 364.784 516.712 364.178 516.609C363.878 516.578 363.569 516.255 363.25 515.639C362.972 515.016 362.785 514.44 362.692 513.91C361.903 509.933 361.135 505.951 360.387 501.966C359.687 498.015 358.943 494.051 358.154 490.073C357.51 486.91 356.869 483.767 356.232 480.645C355.595 477.523 354.975 474.376 354.371 471.206C354.078 469.788 353.887 468.351 353.797 466.897C353.741 465.394 353.566 463.933 353.273 462.515C352.389 458.47 351.491 454.47 350.58 450.514C349.71 446.55 348.813 442.55 347.887 438.512C347.659 437.46 347.434 436.429 347.213 435.418C347.025 434.359 346.838 433.299 346.65 432.24C346.455 431.14 346.673 430.115 347.303 429.163C347.973 428.204 348.858 427.627 349.958 427.432C350.976 427.252 351.965 427.497 352.924 428.167C353.924 428.83 354.579 429.681 354.889 430.718C355.093 431.396 355.297 432.074 355.501 432.752C355.705 433.43 355.951 434.227 356.239 435.142C357.604 432.884 359.163 431.011 360.916 429.524C362.703 427.989 364.473 426.479 366.226 424.992C368.507 423.159 370.91 422.019 373.435 421.572C374.983 421.298 376.554 421.272 378.148 421.494C379.783 421.708 381.416 422.154 383.049 422.831C386.757 424.317 390.069 426.293 392.985 428.76C395.893 431.186 398.108 434.323 399.63 438.17C400.475 440.331 401.181 442.538 401.748 444.791C402.315 447.043 402.886 449.316 403.46 451.609C403.787 452.979 404.032 454.364 404.196 455.764C404.353 457.123 404.594 458.487 404.921 459.858C405.51 462.232 405.673 464.577 405.411 466.892C405.182 469.16 404.787 471.435 404.225 473.72C403.807 475.39 403.067 476.908 402.007 478.272C400.987 479.629 399.847 480.902 398.587 482.092C396.276 484.224 393.772 485.865 391.077 487.014C388.422 488.157 385.558 489.063 382.484 489.734C382.361 489.755 382.239 489.777 382.117 489.799C382.043 489.854 381.965 489.889 381.883 489.903C380.458 490.156 379.101 490.207 377.814 490.057C376.527 489.907 375.283 489.644 374.082 489.268C372.915 488.845 371.761 488.377 370.62 487.865C369.471 487.312 368.306 486.783 367.124 486.278C366.844 486.118 366.567 485.978 366.294 485.858C366.054 485.691 365.794 485.527 365.513 485.366C365.465 485.333 365.214 485.335 364.759 485.374ZM379.168 482.758C381.694 482.311 384.07 481.491 386.295 480.299C388.514 479.066 390.405 477.407 391.968 475.324C393.465 473.336 394.654 471.277 395.537 469.145C396.461 467.007 396.777 464.64 396.486 462.045C396.235 460.157 396.07 458.275 395.989 456.398C395.943 454.474 395.814 452.564 395.605 450.668C395.472 449.683 395.34 448.699 395.207 447.714C395.109 446.681 394.911 445.686 394.616 444.73C394.361 443.767 393.968 442.85 393.435 441.978C392.943 441.098 392.214 440.303 391.248 439.592C390.713 439.183 390.229 438.701 389.795 438.148C389.394 437.547 388.994 436.945 388.593 436.344C387.729 435.027 386.658 433.956 385.377 433.132C384.138 432.302 382.788 431.679 381.328 431.266C379.869 430.852 378.34 430.64 376.741 430.629C375.183 430.611 373.671 430.731 372.205 430.991C371.023 431.2 369.938 431.477 368.948 431.82C367.992 432.115 367.099 432.526 366.267 433.051C365.429 433.536 364.629 434.119 363.867 434.8C363.098 435.44 362.29 436.213 361.442 437.12C360.219 438.513 359.268 440.026 358.591 441.658C357.954 443.283 357.857 445.107 358.3 447.13C358.872 449.885 359.379 452.631 359.822 455.368C360.298 458.056 360.778 460.765 361.261 463.495C361.478 464.717 361.677 465.963 361.86 467.233C362.036 468.462 362.273 469.681 362.571 470.888C362.91 472.089 363.346 473.251 363.882 474.374C364.457 475.491 365.25 476.527 366.26 477.482C367.166 478.33 368.065 479.137 368.957 479.904C369.89 480.663 370.845 481.313 371.824 481.854C372.795 482.354 373.825 482.718 374.916 482.945C376.006 483.171 377.163 483.177 378.385 482.96C378.711 482.903 378.972 482.835 379.168 482.758Z" fill="#0033E6"/>
<path d="M471.939 470.691C471.691 471.974 471.546 473.256 471.505 474.539C471.463 475.821 471.463 477.104 471.505 478.386C471.587 479.669 471.67 480.93 471.753 482.172C471.877 483.454 471.939 484.737 471.939 486.019C472.022 488.584 472.105 491.108 472.187 493.59C472.311 496.113 472.415 498.678 472.498 501.285C472.001 501.574 471.505 501.76 471.008 501.843C470.512 501.967 470.036 502.029 469.581 502.029C468.96 502.029 468.34 501.967 467.719 501.843C467.099 501.719 466.499 501.553 465.92 501.347C465.63 501.264 465.382 500.892 465.175 500.23C465.01 499.568 464.927 498.968 464.927 498.43C464.844 494.376 464.782 490.321 464.741 486.267C464.741 482.254 464.699 478.221 464.617 474.166C464.534 470.94 464.451 467.733 464.368 464.548C464.286 461.362 464.223 458.156 464.182 454.929C464.141 453.481 464.203 452.033 464.368 450.585C464.575 449.096 464.658 447.627 464.617 446.179C464.451 442.042 464.265 437.947 464.058 433.893C463.893 429.838 463.706 425.743 463.5 421.606C463.458 420.53 463.417 419.475 463.375 418.441C463.375 417.365 463.375 416.29 463.375 415.214C463.375 414.097 463.768 413.125 464.554 412.297C465.382 411.47 466.354 411.056 467.471 411.056C468.505 411.056 469.436 411.47 470.264 412.297C471.132 413.125 471.629 414.076 471.753 415.152C471.836 415.855 471.918 416.558 472.001 417.262C472.084 417.965 472.187 418.792 472.311 419.744C474.049 417.758 475.911 416.186 477.896 415.028C479.923 413.828 481.93 412.649 483.916 411.491C486.481 410.084 489.046 409.381 491.611 409.381C493.183 409.381 494.734 409.629 496.265 410.125C497.837 410.622 499.367 411.346 500.857 412.297C504.249 414.407 507.166 416.931 509.607 419.868C512.047 422.764 513.682 426.239 514.509 430.293C514.964 432.569 515.274 434.865 515.44 437.181C515.605 439.498 515.771 441.836 515.936 444.194C516.019 445.6 516.019 447.007 515.936 448.413C515.854 449.779 515.854 451.165 515.936 452.571C516.102 455.012 515.854 457.349 515.192 459.583C514.571 461.776 513.785 463.948 512.833 466.099C512.13 467.671 511.137 469.037 509.855 470.195C508.614 471.353 507.269 472.408 505.821 473.36C503.174 475.056 500.422 476.235 497.568 476.897C494.755 477.559 491.776 477.952 488.632 478.076C488.508 478.076 488.384 478.076 488.26 478.076C488.177 478.117 488.094 478.138 488.011 478.138C486.563 478.138 485.219 477.952 483.978 477.579C482.737 477.207 481.558 476.731 480.441 476.152C479.365 475.532 478.31 474.87 477.276 474.166C476.242 473.422 475.187 472.698 474.111 471.994C473.863 471.788 473.615 471.601 473.366 471.436C473.159 471.229 472.932 471.022 472.684 470.815C472.642 470.774 472.394 470.733 471.939 470.691ZM486.584 470.629C489.149 470.629 491.631 470.236 494.031 469.45C496.43 468.623 498.581 467.32 500.484 465.541C502.305 463.845 503.835 462.024 505.077 460.08C506.359 458.135 507.083 455.86 507.249 453.254C507.331 451.351 507.497 449.468 507.745 447.607C508.035 445.704 508.241 443.801 508.365 441.898C508.407 440.905 508.448 439.912 508.49 438.919C508.572 437.885 508.552 436.871 508.428 435.878C508.345 434.885 508.117 433.913 507.745 432.962C507.414 432.01 506.835 431.1 506.007 430.231C505.552 429.735 505.159 429.176 504.828 428.556C504.539 427.894 504.249 427.232 503.96 426.57C503.339 425.122 502.47 423.881 501.353 422.847C500.278 421.812 499.057 420.964 497.692 420.302C496.327 419.64 494.858 419.165 493.286 418.875C491.755 418.586 490.245 418.441 488.756 418.441C487.556 418.441 486.439 418.524 485.405 418.689C484.412 418.813 483.461 419.061 482.55 419.434C481.64 419.765 480.751 420.199 479.882 420.737C479.013 421.233 478.083 421.854 477.09 422.598C475.642 423.757 474.442 425.081 473.49 426.57C472.58 428.059 472.167 429.838 472.249 431.907C472.332 434.72 472.353 437.512 472.311 440.284C472.311 443.015 472.311 445.766 472.311 448.538C472.311 449.779 472.291 451.04 472.249 452.323C472.208 453.564 472.229 454.805 472.311 456.046C472.435 457.287 472.663 458.508 472.994 459.708C473.366 460.907 473.966 462.066 474.794 463.183C475.538 464.176 476.283 465.127 477.028 466.037C477.814 466.947 478.641 467.754 479.51 468.457C480.379 469.119 481.33 469.657 482.364 470.071C483.399 470.484 484.536 470.691 485.777 470.691C486.108 470.691 486.377 470.671 486.584 470.629Z" fill="#0033E6"/>
<path d="M585.04 501.064C584.585 501.106 584.109 501.126 583.613 501.126C583.158 501.168 582.703 501.188 582.248 501.188C579.393 501.188 576.683 500.775 574.119 499.947C571.595 499.161 569.278 497.755 567.168 495.727C565.844 494.404 564.624 492.997 563.507 491.508C562.431 490.018 561.335 488.529 560.218 487.04C558.853 485.178 557.839 483.254 557.177 481.269C556.515 479.241 556.102 477.214 555.936 475.187C555.771 473.119 555.792 471.05 555.998 468.982C556.205 466.872 556.474 464.762 556.805 462.652C557.26 459.88 557.922 457.191 558.791 454.585C559.701 451.937 560.715 449.31 561.832 446.704C562.659 444.759 563.673 443.063 564.872 441.615C566.072 440.126 567.375 438.802 568.782 437.644C570.23 436.485 571.781 435.451 573.436 434.541C575.091 433.631 576.808 432.783 578.586 431.997C578.835 431.873 579.104 431.81 579.393 431.81C580.8 431.728 582.206 431.624 583.613 431.5C585.02 431.376 586.426 431.314 587.833 431.314C592.011 431.314 595.672 432.183 598.817 433.92C601.961 435.617 604.898 438.016 607.628 441.119C612.055 446.166 614.537 452.02 615.075 458.68C615.282 461.204 615.53 463.686 615.82 466.127C616.151 468.568 616.213 471.091 616.006 473.698C615.758 477.049 614.889 480.338 613.4 483.565C611.91 486.791 610.152 489.729 608.125 492.376C607.008 493.907 605.684 495.231 604.153 496.348C602.664 497.424 601.051 498.313 599.313 499.016C597.617 499.72 595.838 500.237 593.976 500.568C592.156 500.94 590.315 501.126 588.453 501.126C587.874 501.126 587.295 501.106 586.716 501.064C586.137 501.064 585.578 501.064 585.04 501.064ZM565.183 468.051C564.893 470.037 564.914 471.96 565.245 473.822C565.576 475.642 566.134 477.421 566.92 479.159C567.748 480.855 568.74 482.51 569.899 484.123C571.057 485.737 572.319 487.288 573.684 488.777C575.049 490.349 576.601 491.59 578.338 492.501C580.117 493.411 582 493.866 583.985 493.866C585.557 493.866 587.171 493.556 588.826 492.935C590.811 492.19 592.735 491.342 594.597 490.391C596.5 489.439 598.424 488.55 600.368 487.722C601.899 487.019 603.119 486.13 604.029 485.054C604.939 483.937 605.663 482.613 606.201 481.082C607.111 478.6 607.732 476.118 608.063 473.636C608.394 471.154 608.518 468.671 608.435 466.189C608.394 463.707 608.166 461.225 607.752 458.742C607.339 456.26 606.822 453.778 606.201 451.296C605.994 450.262 605.622 449.413 605.084 448.752C603.76 447.304 602.478 445.98 601.237 444.78C600.037 443.539 598.754 442.484 597.389 441.615C596.065 440.746 594.597 440.064 592.983 439.567C591.411 439.071 589.612 438.823 587.585 438.823C586.219 438.823 584.854 438.905 583.489 439.071C582.165 439.236 580.82 439.381 579.455 439.505C577.345 439.671 575.608 440.25 574.243 441.243C572.919 442.194 571.843 443.498 571.016 445.152C569.278 448.586 567.83 452.165 566.672 455.888C565.514 459.57 565.017 463.624 565.183 468.051Z" fill="#0033E6"/>
<path d="M689.713 463.991C690.044 463.205 690.706 462.357 691.699 461.447C692.691 460.495 693.767 459.606 694.925 458.778C696.084 457.91 697.159 457.165 698.152 456.544C699.187 455.924 699.869 455.531 700.2 455.365C701.524 454.703 702.889 454.373 704.296 454.373C705.62 454.373 707.047 454.703 708.578 455.365C709.281 455.655 709.86 455.924 710.315 456.172C710.77 456.42 711.101 456.731 711.308 457.103C711.556 457.434 711.701 457.848 711.742 458.344C711.784 458.84 711.763 459.502 711.68 460.33C711.598 460.909 711.474 461.467 711.308 462.005C711.143 462.543 710.998 463.102 710.874 463.681C708.971 462.853 707.068 462.44 705.165 462.44C702.724 462.44 700.531 462.998 698.587 464.115C696.684 465.232 695.05 466.68 693.684 468.459C692.36 470.197 691.347 472.182 690.644 474.416C689.94 476.65 689.568 478.864 689.527 481.056C689.444 486.931 689.278 492.764 689.03 498.556C688.782 504.306 688.596 510.119 688.472 515.993C688.43 516.945 688.575 517.938 688.906 518.972C689.278 520.006 689.63 521.144 689.961 522.385C689.175 522.592 688.348 522.84 687.479 523.13C686.651 523.419 685.783 523.585 684.872 523.626H684.438C683.073 523.626 682.101 523.316 681.521 522.695C680.984 522.033 680.735 520.916 680.777 519.344C680.86 514.959 680.963 510.595 681.087 506.251C681.211 501.865 681.315 497.46 681.397 493.033C681.397 492.702 681.418 492.371 681.459 492.04C681.501 491.709 681.521 491.378 681.521 491.047C681.604 486.29 681.687 481.594 681.77 476.961C681.852 472.286 681.935 467.57 682.018 462.812C682.018 462.109 681.997 461.426 681.956 460.764C681.956 460.102 681.873 459.461 681.708 458.84C681.459 457.889 681.48 457.186 681.77 456.731C682.059 456.276 682.638 455.924 683.507 455.676C684.128 455.51 684.645 455.386 685.059 455.303C685.514 455.221 685.907 455.179 686.238 455.179C686.941 455.179 687.417 455.448 687.665 455.986C687.913 456.524 688.182 457.517 688.472 458.965C688.513 459.13 688.554 459.44 688.596 459.895C688.679 460.309 688.741 460.764 688.782 461.261C688.865 461.757 688.927 462.233 688.968 462.688C689.009 463.102 689.03 463.412 689.03 463.619C689.154 463.701 689.258 463.764 689.34 463.805C689.465 463.846 689.589 463.908 689.713 463.991Z" fill="#0033E6"/>
<path d="M778.684 518.165L779.304 522.944C778.063 524.019 776.781 524.785 775.457 525.24C774.133 525.736 772.789 525.984 771.423 525.984C770.761 525.984 770.1 525.922 769.438 525.798C768.776 525.715 768.093 525.571 767.39 525.364C763.501 524.33 760.564 522.509 758.578 519.903C756.634 517.255 755.599 513.904 755.475 509.85C755.392 507.244 755.351 504.658 755.351 502.093C755.392 499.487 755.434 496.88 755.475 494.274C755.558 490.592 755.62 486.931 755.661 483.29C755.703 479.608 755.765 475.906 755.847 472.182C755.889 471.189 755.889 470.176 755.847 469.142C755.847 468.066 755.847 466.887 755.847 465.605C754.813 465.522 753.738 465.48 752.621 465.48C751.545 465.439 750.469 465.336 749.394 465.17C748.732 465.087 748.07 464.943 747.408 464.736C746.746 464.529 746.125 464.239 745.546 463.867C744.843 463.371 744.429 462.75 744.305 462.005C744.222 461.219 744.285 460.413 744.491 459.585C744.698 458.758 745.05 458.158 745.546 457.786C746.084 457.413 746.725 457.227 747.47 457.227C748.008 457.186 748.546 457.165 749.083 457.165C749.621 457.165 750.159 457.165 750.697 457.165H755.413C755.992 454.435 756.22 451.766 756.096 449.16C755.972 446.512 755.579 443.885 754.917 441.279C755.62 440.658 756.323 440.245 757.027 440.038C757.771 439.79 758.557 439.665 759.385 439.665C759.922 439.665 760.46 439.707 760.998 439.79C761.577 439.872 762.156 439.955 762.736 440.038C763.025 441.444 763.191 442.851 763.232 444.257C763.315 445.623 763.335 447.029 763.294 448.477C763.294 449.884 763.273 451.311 763.232 452.759C763.232 454.166 763.294 455.593 763.418 457.041H776.698C776.781 457.703 776.884 458.365 777.008 459.027C777.132 459.647 777.236 460.268 777.319 460.888C777.443 461.509 777.484 462.129 777.443 462.75C777.401 463.371 777.236 464.032 776.946 464.736C774.836 464.901 772.727 465.067 770.617 465.232C768.507 465.356 766.273 465.501 763.915 465.667C763.915 466.908 763.915 468.107 763.915 469.266C763.956 470.424 763.956 471.583 763.915 472.741C763.832 476.878 763.708 480.994 763.542 485.09C763.418 489.144 763.356 493.24 763.356 497.377C763.356 499.363 763.522 501.576 763.853 504.017C764.225 506.458 764.887 508.754 765.838 510.905C766.79 513.015 768.072 514.794 769.686 516.242C771.341 517.69 773.451 518.414 776.015 518.414C776.429 518.414 776.864 518.393 777.319 518.352C777.774 518.31 778.229 518.248 778.684 518.165Z" fill="#0033E6"/>
</g>
<rect x="3" y="3" width="994" height="994" rx="6" stroke="#0033E6" stroke-width="6"/>
<defs>
<clipPath id="clip0_394_722">
<rect width="1000" height="1000" rx="9" fill="white"/>
</clipPath>
</defs>
</svg>
