<svg width="1000" height="1000" viewBox="0 0 1000 1000" fill="none" xmlns="http://www.w3.org/2000/svg">
<rect x="3" y="3" width="994" height="994" rx="6" fill="#FFEED8"/>
<rect x="3" y="3" width="994" height="994" rx="6" stroke="#0033E6" stroke-width="6"/>
<path d="M406.699 302.156L464.928 294.675L573.5 302.156L636.986 348.456L643.456 451.771L636.986 493.623L566.019 412.952V478.662L573.5 531.432L596.549 564.185L565.615 572.273L346.65 573.688C343.5 417.404 341.624 379.259 329.06 395.767L298.328 498.071C278.429 496.066 267.888 490.031 250.209 469.968C225.503 427.47 229.924 402.285 270.629 354.925L333.913 323.183L406.699 302.156Z" fill="#FFEED8"/>
<path d="M474.83 99.4326C473.253 106.3 472.428 113.294 476.235 119.64C482.051 129.333 492.112 135.944 498.774 145.168C503.263 151.384 507.652 158.432 507.652 166.422C507.652 176.03 502.202 183.33 491.78 181.727C483.588 180.467 478.814 176.754 471.602 173.148" stroke="#0033E6" stroke-width="5.75825" stroke-linecap="round"/>
<path d="M501.193 180.68C501.193 194.114 507.111 207.363 507.111 220.855C507.111 242.92 484.477 262.466 462.99 262.466C452.926 262.466 442.026 260.172 432.32 257.503C429.288 256.67 425.45 255.728 422.635 254.395C417.618 252.018 412.551 249.798 407.569 247.28C404.357 245.657 400.69 244.281 399.917 240.584C398.433 233.496 396.256 225.416 393.161 218.882C389.202 210.524 387.855 201.229 385.509 192.397C381.512 177.35 379.052 161.737 379.052 146.184C379.052 135.755 381.616 123.446 391.308 117.726C397.613 114.005 404.067 112.883 411.336 112.883" stroke="#0033E6" stroke-width="5.75825" stroke-linecap="round"/>
<path d="M411.877 145.169C412.868 142.307 414.048 137.079 416.181 134.945C418.576 132.551 420.916 132.793 423.714 132.793" stroke="#0033E6" stroke-width="5.75825" stroke-linecap="round"/>
<path d="M439.316 125.797C442.295 123.849 451.23 116.88 454.92 119.34" stroke="#0033E6" stroke-width="5.75825" stroke-linecap="round"/>
<path d="M463.526 208.12C464.024 210.607 469.746 212.425 471.866 212.425C473.758 212.425 479.408 211.887 477.516 211.887" stroke="#0033E6" stroke-width="5.75825" stroke-linecap="round"/>
<path d="M410.797 108.041C410.966 106.523 412.091 105.3 411.754 103.617C411.342 101.556 409.261 99.7367 407.987 98.2362C404.918 94.6189 401.39 91.3338 399.079 87.146C394.252 78.3965 403.602 70.5238 411.246 67.5066C416.197 65.5521 422.238 61.7673 427.716 61.7673C429.527 61.7673 427.866 69.4672 429.45 67.5664C434.119 61.9639 436.256 53.3699 443.197 53.3699C451.319 53.3699 464.489 61.0226 459.642 69.7476C456.537 75.3358 449.322 67.0434 448.656 65.2946C447.294 61.7184 459.017 51.3844 461.256 51.5502C465.958 51.8985 468.698 62.5928 472.137 65.2946C477.178 69.2557 477.839 79.6804 473.452 84.0671C469.772 87.7473 464.223 85.9286 459.642 85.203C453.568 84.2411 446.697 83.3858 441.198 80.3305C438.81 79.0039 436.818 78.4339 435.249 80.8985C432.476 85.2573 430.506 90.6087 424.787 91.6299C417.519 92.9277 409.867 92.9751 402.487 92.9751C397.705 92.9751 393.222 91.899 388.468 91.899C387.639 91.899 386.912 91.5659 387.092 92.1979C387.303 92.9334 387.091 93.9842 387.003 94.7089C386.689 97.2995 387.007 100.13 386.465 102.66C385.954 105.043 382.803 104.695 380.964 104.842C378.107 105.071 375.281 105.997 372.475 106.546C367.29 107.561 362.141 108.041 356.871 108.041C356.116 108.041 353.162 107.612 352.746 108.34C352.312 109.1 353.849 111.306 354.3 111.807C358.162 116.098 357.739 130.144 350.803 131.686C347.752 132.364 346.315 128.954 348.142 126.604C350.553 123.505 357.865 129.392 359.95 131.148C363.864 134.444 362.67 143.342 362.67 148.157C362.67 153.769 361.633 158.183 359.143 163.163C356.747 167.955 353.27 175.344 358.545 179.723C365.327 185.353 370.483 186.162 375.857 194.429C378.006 197.736 379.109 200.26 379.978 202.77C382.467 209.961 386.496 218.927 386.704 226.415C386.81 230.248 388.206 235.224 386.704 238.791C386.16 240.082 382.907 246.574 381.473 241.553" stroke="#0033E6" stroke-width="5.75825" stroke-linecap="round"/>
<path d="M400.245 241.554C402.725 250.234 402.277 258.939 404.161 267.673C405.604 274.358 406.032 281.461 406.032 288.276C406.032 290.281 406.032 291.254 406.032 293.638" stroke="#0033E6" stroke-width="5.75825" stroke-linecap="round"/>
<path d="M458.151 265.155C458.151 269.099 457.143 273.051 457.075 276.993C457.026 279.834 456.615 283.099 457.344 285.871C457.532 286.583 458.151 289.509 458.151 287.848" stroke="#0033E6" stroke-width="5.75825" stroke-linecap="round"/>
<path d="M406.566 294.796C411.211 297.918 415.721 298.567 421.201 298.858C428.555 299.25 435.8 299.129 443.128 298.32C448.951 297.677 459.702 297.246 463.391 291.712" stroke="#0033E6" stroke-width="6.87424" stroke-linecap="round"/>
<path d="M463.215 291.389C464.173 292.308 465.423 292.539 466.608 292.817C472.443 294.185 478.318 295.394 484.269 295.732C499.498 296.596 514.72 296.155 529.95 295.489C544.99 294.831 560.421 294.336 575.346 296.855C584.879 298.464 592.4 302.717 601.113 306.937C611.469 311.953 621.136 319.273 628.588 329.103C643.162 348.328 648.306 374.35 649.098 399.309C649.667 417.24 648.337 434.888 644.566 452.297C643.318 458.06 641.24 463.148 639.646 468.755C638.641 472.289 637.602 476.402 636.15 479.687C634.807 482.724 633.615 486.555 632.991 489.92C632.587 492.1 631.6 494.149 631.489 496.357C631.463 496.879 631.143 498.186 630.997 498.786C630.615 500.351 629.467 497.346 629.132 496.904C621.879 487.336 613.292 479.4 606.059 469.818C597.109 457.961 585.969 447.693 578.065 434.837C572.739 426.173 567.067 417.971 562.967 408.358C561.855 405.749 560.827 402.912 559.497 400.463C558.205 398.081 561.004 397.72 562.683 397.214C570.099 394.977 576.367 391.926 580.577 384.004C582.693 380.023 584.41 375.397 584.41 370.644" stroke="#0033E6" stroke-width="5.66114" stroke-linecap="round"/>
<path d="M411.636 297.613C402.289 298.266 391.984 304.173 382.864 307.325C362.609 314.326 341.596 318.735 319.558 328.035" stroke="#0033E6" stroke-width="6.46988" stroke-linecap="round"/>
<path d="M322.23 886.103C319.96 886.387 321.488 889.68 322.509 890.423C324.108 891.586 326.057 890.489 327.596 891.468C329.738 892.832 331.337 893.747 330.975 890.493C330.587 886.995 326.784 886.103 323.868 886.103C323.543 886.103 321.651 886.5 322.369 887.218C323.697 888.545 328.4 888.159 330.035 888.333C332.868 888.633 335.706 888.907 338.536 889.239C339.626 889.366 342.461 890.273 343.623 889.726C343.661 889.709 338.651 887.501 338.188 887.287C336.713 886.607 325.986 882.811 330.104 881.713C331.054 881.459 336.239 880.06 335.609 879.831C334.541 879.443 325.994 878.945 326.411 879.831C327.726 882.625 337.899 882.039 340.278 881.573C342.422 881.154 343.107 879.006 341.045 878.089C339.394 877.355 335.679 877.323 335.679 877.323C335.679 877.323 336.538 877.782 337.003 877.915C337.87 878.163 337.549 878.392 337.142 879.204C336.678 880.132 335.607 882.307 334.773 882.828C332.44 884.286 330.752 887.349 328.502 889.099C325.122 891.728 322.194 894.668 318.955 897.392C312.324 902.967 304.261 906.303 296.203 909.586C287.683 913.057 278.15 914.791 270.246 919.621C266.005 922.213 266.286 927.456 270.211 930.596C274.999 934.426 282.255 935.43 288.05 936.589C297.359 938.451 306.631 939.673 316.133 940.038C342.45 941.05 368.603 937.796 394.841 936.415C402.518 936.011 409.951 934.831 417.558 933.906C421.364 933.443 424.641 933.849 426.965 930.491C428.806 927.833 429.968 924.257 430.589 921.084C433.504 906.186 432.61 890.575 432.61 875.441" stroke="#0033E6" stroke-width="4.85241" stroke-linecap="round"/>
<path d="M657.725 899.15C659.995 899.434 658.468 902.727 657.447 903.47C655.848 904.633 653.899 903.536 652.36 904.515C650.218 905.879 648.619 906.794 648.98 903.54C649.369 900.042 653.172 899.15 656.088 899.15C656.412 899.15 658.304 899.547 657.586 900.265C656.258 901.592 651.556 901.206 649.921 901.38C647.087 901.68 644.249 901.954 641.419 902.286C640.329 902.413 637.495 903.32 636.332 902.773C636.295 902.756 641.305 900.548 641.768 900.334C643.242 899.654 653.97 895.858 649.851 894.76C648.901 894.506 643.716 893.107 644.346 892.878C645.415 892.49 653.961 891.992 653.544 892.878C652.23 895.672 642.057 895.086 639.677 894.62C637.534 894.201 636.848 892.053 638.911 891.136C640.562 890.402 644.276 890.37 644.276 890.37C644.276 890.37 643.417 890.829 642.952 890.962C642.085 891.21 642.407 891.439 642.813 892.251C643.277 893.179 644.349 895.354 645.182 895.875C647.516 897.333 649.203 900.396 651.454 902.146C654.834 904.775 657.762 907.715 661.001 910.439C667.631 916.014 675.694 919.35 683.752 922.633C692.272 926.104 701.806 927.838 709.71 932.668C713.951 935.26 713.669 940.503 709.745 943.643C704.957 947.473 697.701 948.477 691.905 949.636C682.596 951.498 673.325 952.72 663.823 953.085C637.506 954.097 611.352 950.843 585.115 949.462C577.438 949.058 570.004 947.878 562.398 946.953C558.592 946.49 555.315 946.896 552.991 943.538C551.15 940.88 549.988 937.304 549.367 934.131C546.452 919.233 547.419 916.514 547.419 901.38" stroke="#0033E6" stroke-width="4.85241" stroke-linecap="round"/>
<path d="M577.613 351.911C586.652 319.378 598.686 287.932 606.153 254.915C606.365 253.013 605.818 253.256 606.413 251.115C607.038 248.868 608.365 246.954 608.958 244.819C611.102 237.104 619.557 233.53 619.879 224.927C619.955 222.908 620.316 217.944 618.898 216.205C616.499 213.261 618.369 213.417 615.326 214.899C611.849 216.593 608.243 219.917 605.273 222.278C602.001 224.878 598.612 226.068 594.967 228.178C589.744 231.202 584.67 234.435 579.944 238.166C573.877 242.957 566.818 246.522 561.557 252.149C549.056 265.519 540.977 282.472 532.814 298.308C527.63 308.367 524.205 319.607 520.778 330.331C517.24 341.404 513.798 352.429 510.685 363.636C507.059 376.687 503.396 389.892 501.593 403.362C500.182 413.901 496.835 424.172 495.314 434.715C494.099 443.139 492.763 451.057 490.491 459.234C488.444 466.602 481.699 473.587 482.257 481.711C482.483 485.003 485.756 485.716 488.216 487.474C489.238 488.204 492.685 483.301 493.545 482.617C499.181 478.139 504.208 473.402 511.761 471.482C514.029 470.905 517.538 468.865 519.534 467.695C523.567 465.33 527.367 462.384 530.021 458.754C533.314 454.25 536.271 449.655 539.699 445.246C548.209 434.302 551.727 420.843 557.465 408.674C565.859 390.871 572.354 370.84 577.613 351.911Z" fill="#FFEED8" stroke="#0038FF" stroke-width="1.89995" stroke-linecap="round"/>
<path d="M546.503 312.801C553.359 307.128 561.182 303.349 568.422 300.121C568.873 301.98 558.631 311.467 556.568 313.459C549.082 320.684 542.253 328.924 534.811 336.18C534.39 336.591 525.537 344.974 527.027 340.436C528.944 334.599 533.888 328.275 537.605 323.071C540.318 319.274 543.047 315.661 546.503 312.801Z" fill="#FFEED8"/>
<path d="M571.655 298.693C563.565 302.251 554.394 306.271 546.503 312.801C543.047 315.661 540.318 319.274 537.605 323.071C533.888 328.275 528.944 334.599 527.027 340.436C525.537 344.974 534.39 336.591 534.811 336.18C542.253 328.924 549.082 320.684 556.568 313.459C558.633 311.465 568.893 301.961 568.421 300.115" stroke="#0038FF" stroke-width="1.89995" stroke-linecap="round"/>
<path d="M572.474 283.204C565.059 289.013 555.292 292.47 546.122 295.352C544.553 293.108 555.141 283.239 557.234 281.157C564.832 273.601 570.963 264.769 578.48 257.172C578.905 256.742 587.969 247.997 587.958 253.149C587.944 259.776 583.679 266.591 580.689 272.245C578.507 276.37 576.212 280.276 572.474 283.204Z" fill="#FFEED8"/>
<path d="M542.021 296.623C552.29 293.46 563.939 289.89 572.474 283.204C576.212 280.276 578.507 276.37 580.689 272.245C583.679 266.591 587.944 259.776 587.958 253.149C587.969 247.997 578.905 256.742 578.48 257.172C570.963 264.769 564.832 273.601 557.234 281.157C555.139 283.241 544.532 293.128 546.127 295.359" stroke="#0038FF" stroke-width="1.89995" stroke-linecap="round"/>
<path d="M537 352.54C538.621 351.257 543.186 346.779 545.434 347.192C542.69 353.673 538.031 362.077 535.289 368.553C533.026 373.898 530.907 380.012 526.804 384.264C524.289 386.869 519.535 389.661 515.989 387.442C513.224 385.711 514.91 380.518 515.727 378.107C517.42 373.114 519.786 368.864 523.367 364.971C527.554 360.417 532.149 356.376 537 352.54Z" fill="#FFEED8" stroke="#0038FF" stroke-width="1.89995" stroke-linecap="round"/>
<path d="M524.612 405.449C522.89 404.961 518.195 412.814 517.031 414.12C513.04 418.597 508.074 421.866 503.887 426.117C502.192 427.838 497.35 435.539 500.197 437.933C502.632 439.979 506.066 438.267 507.913 436.374C515.618 428.477 516.434 415.94 523.625 407.78" stroke="#0038FF" stroke-width="1.89995" stroke-linecap="round"/>
<path d="M417.903 349.452C419.374 348.943 422.747 347.265 424.266 347.805C428.387 347.065 436.153 349.328 438.595 349.504C442.539 349.788 447.008 348.135 450.964 348.831C454.085 349.38 457.165 349.601 460.168 350.855C464.403 352.622 468.244 355.074 472.293 357.137C473.023 357.509 477.578 360.056 477.126 361.134C476.531 362.555 475.485 363.699 474.078 364.391C473.3 364.774 471.58 365.741 470.742 366.212C472.195 365.549 474.416 365.992 475.887 365.568C477.975 364.967 481.357 366.118 483.266 366.682C485.898 367.46 488.477 368.454 491.113 369.191C494.509 370.14 513.062 377.774 508.93 382.978C507.573 384.687 508.482 384.044 510.224 384.225C512.06 384.416 513.832 385.179 515.723 385.158C520.741 385.102 526.143 385.369 530.779 387.622C535.26 389.8 539.372 392.428 543.714 394.733C547.38 396.68 549.649 399.897 551.777 403.391C555.961 410.26 560.732 417.184 556.83 425.214C555.086 428.801 552.654 432.11 550.898 435.723C550.236 437.085 549.525 438.366 549.213 439.849C549.101 440.38 547.965 443.297 549.092 442.171C549.64 441.623 550.121 441.393 550.792 441.028C553.673 439.461 554.563 444.291 553.586 446.301C550.639 452.365 547.782 458.801 544.187 464.603C540.536 470.498 537.116 476.796 534.081 483.042C532.73 485.822 532.514 487.247 532.706 490.111C532.75 490.777 533.315 490.932 532.354 490.787C530.95 490.576 529.512 489.902 528.09 489.951C525.565 490.038 522.898 489.373 520.338 489.274C518.127 489.188 515.353 488.16 513.265 487.387L513.208 487.365C509.234 485.893 505.457 483.869 501.529 482.285C499.016 481.271 495.3 480.405 493.227 478.547C489.528 475.232 483.449 473.751 479.136 470.989C469.535 464.842 459.228 459.507 450.215 452.492C444.004 447.657 438.387 442.115 432.497 436.898C427.641 432.598 422.164 429.107 416.706 425.63C411.66 422.415 406.619 419.201 401.569 415.984C398.032 413.73 394.116 412.09 390.733 409.595C388.231 407.75 385.958 406.214 384.943 403.279C384.156 401.002 384.783 397.793 385.742 395.7C386.488 394.072 387.218 392.197 388.413 390.863C389.396 389.766 390.997 388.278 391.638 386.959C392.814 384.539 392.578 382.483 393.797 379.973C395.198 377.091 396.903 374.432 398.307 371.543C399.36 369.376 400.065 367.077 401.097 364.955C402.154 362.78 400.6 360.041 401.67 357.839C403.425 354.228 405.29 352.705 409.14 351.374C411.973 350.394 415.07 350.431 417.903 349.452Z" fill="#0038FF" stroke="#FFEED8" stroke-width="1.08249" stroke-linecap="round"/>
<path d="M397.074 385.468C401.823 385.325 406.992 385.594 411.059 382.777C413.434 381.132 415.315 379.123 417.359 377.124C418.985 375.534 420.641 374.176 422.808 373.398C425.227 372.53 427.68 371.901 430.051 370.883C432.114 369.997 434.207 369.184 436.283 368.33C438.67 367.348 440.923 366.028 443.382 365.26C444.029 365.058 444.676 364.909 445.353 364.901C447.989 364.871 450.652 365.12 453.288 365.23C455.072 365.304 456.847 365.531 458.627 365.655C459.719 365.731 460.828 365.613 461.919 365.569C462.85 365.532 463.242 365.115 463.955 364.671C464.145 364.554 464.927 363.89 464.792 363.604C464.681 363.371 464.372 363.188 464.176 363.012C463.26 362.191 462.149 361.618 461.062 361.06C459.158 360.083 457.215 359.175 455.24 358.347C453.269 357.519 451.2 357.148 449.089 356.901C447.184 356.679 445.156 356.951 443.286 357.326C441.845 357.615 440.397 357.894 439.026 358.44C437.659 358.983 436.102 359.655 435.163 360.842C433.645 362.763 432.145 364.766 430.41 366.5C428.725 368.185 426.777 369.591 425.074 371.26C424.325 371.994 422.974 372.549 422.517 373.489" stroke="#FFEED8" stroke-width="0.976308" stroke-linecap="round"/>
<path d="M434.342 388.592C438.384 387.7 442.603 387.735 446.707 387.324C449.822 387.013 452.802 386.582 455.803 385.679C458.15 384.973 460.342 383.917 462.6 382.982C466.664 381.298 470.873 380.471 475.245 380.13C479.119 379.827 482.969 380.082 486.842 380.275C489.526 380.409 492.202 380.211 494.887 380.345C495.971 380.399 497.085 380.503 498.169 380.416C498.608 380.38 499.199 380.309 499.489 379.922C500.153 379.034 499.497 378.323 498.842 377.609C496.496 375.051 493.116 373.576 489.999 372.201C487.372 371.042 484.613 370.276 481.76 369.943C478.498 369.562 475.083 369.841 471.842 370.31C467.957 370.873 463.862 371.711 460.247 373.275C458.337 374.101 456.687 375.194 455.099 376.536C453.513 377.877 451.914 379.17 450.438 380.634C448.849 382.21 447.366 383.753 445.465 384.959C443.654 386.107 441.772 387.393 439.632 387.802C438.689 387.982 437.653 387.994 436.696 387.965C436.204 387.949 435.698 387.988 435.212 387.924" stroke="#FFEED8" stroke-width="0.976308" stroke-linecap="round"/>
<path d="M433.213 392.405C431.008 391.334 428.184 392.988 426.617 394.504C424.562 396.491 424.116 399.065 424.428 401.812C424.562 403 424.732 404.518 425.585 405.443C426.875 406.841 429.304 407.357 431.016 407.891C433.881 408.783 437.056 409.232 440.021 408.593C442.852 407.983 445.43 406.642 447.743 404.938C451.775 401.965 455.806 398.934 460.448 396.967C464.341 395.317 468.508 394.251 472.619 393.304C476.961 392.304 481.333 391.746 485.761 391.309C488.338 391.054 490.893 390.954 493.476 390.865C494.223 390.839 495.02 390.861 495.706 390.535C496.537 390.14 497.463 389.847 497.845 388.936C498.402 387.607 497.631 386.43 496.339 386.023C494.167 385.34 491.766 385.015 489.52 384.708C488.128 384.517 486.73 384.444 485.328 384.381C483.78 384.312 482.207 384.209 480.661 384.369C478.111 384.632 475.588 385.219 473.194 386.13C471.333 386.838 469.537 387.705 467.693 388.457C463.564 390.139 459.007 390.949 454.588 391.394C450.489 391.806 446.326 391.986 442.206 392.032C439.28 392.065 436.37 392.094 433.458 391.798C432.804 391.731 432.15 391.616 431.51 391.466C431.431 391.448 431.09 391.333 431.017 391.358C430.982 391.371 431.369 391.873 431.454 391.914" stroke="#FFEED8" stroke-width="0.976308" stroke-linecap="round"/>
<path d="M440.069 433.253C441.629 433.235 443.074 432.954 444.52 432.358C445.976 431.759 447.36 430.955 448.722 430.172C450.242 429.297 451.772 428.423 453.239 427.461C454.943 426.344 456.626 425.165 458.209 423.881C459.868 422.536 461.311 420.993 462.783 419.453C465.448 416.667 468.601 414.409 471.463 411.833C473.394 410.094 475.46 408.55 477.593 407.07C479.316 405.874 480.718 404.306 482.428 403.102C483.878 402.082 485.47 401.21 487.214 400.856C489.871 400.316 492.51 400.701 495.175 400.996C498.384 401.351 501.595 401.871 504.828 401.953C507.396 402.017 509.956 401.967 512.525 402.055C515.619 402.161 518.685 402.541 521.638 403.501C523.39 404.071 525.262 404.732 526.463 406.21C527.586 407.591 527.695 409.541 527.51 411.241C527.301 413.166 526.681 414.766 525.572 416.36C524.305 418.183 522.775 419.724 520.984 421.034C519.942 421.796 518.852 422.551 517.618 422.965C515.677 423.617 513.57 423.272 511.603 422.923C507.976 422.281 504.579 420.782 500.99 420.026C498.405 419.482 495.839 420.037 493.267 420.32C491.532 420.511 489.797 420.636 488.077 420.947C486.382 421.253 484.709 421.664 483.018 421.991C479.685 422.633 476.304 422.939 472.911 422.872C468.012 422.774 463.284 423.365 459.011 425.906C457.825 426.612 456.634 427.325 455.329 427.791C454.188 428.199 453.054 428.555 451.899 428.92C450.712 429.295 449.585 429.915 448.447 430.416C447.352 430.898 446.259 431.397 445.156 431.86C444.278 432.229 443.392 432.696 442.462 432.917C442.137 432.995 441.705 433.155 441.38 433.078C441.086 433.008 440.261 433.053 441.016 432.987" stroke="#FFEED8" stroke-width="0.976308" stroke-linecap="round"/>
<path d="M468.455 438.08C468.859 438.131 469.247 438.08 469.64 438.048C471.347 437.908 473.065 437.805 474.78 437.694C481.631 437.249 488.577 437.067 495.335 436.309C497.864 436.025 500.427 435.807 502.927 435.447C505.739 435.042 508.471 434.458 511.247 433.978C513.593 433.572 515.979 433.254 518.349 432.903C520.728 432.55 523.075 432.105 525.484 431.827C528.605 431.468 532.357 431.254 535.571 431.909C537.417 432.285 538.969 433.129 539.431 434.472C539.641 435.079 539.284 435.745 538.939 436.258C538.119 437.481 536.634 438.7 535.111 439.501C530.706 441.817 524.946 442.476 519.296 442.375C516.531 442.325 513.761 442.013 510.993 441.833C508.568 441.675 506.149 441.615 503.726 441.487C498.165 441.194 492.656 440.502 487.105 439.995C482.818 439.604 478.559 439.363 474.285 438.82C472.199 438.556 470.021 438.361 467.975 438.102" stroke="#FFEED8" stroke-width="0.976308" stroke-linecap="round"/>
<path d="M466.863 450.174C467.077 450.278 467.319 450.284 467.557 450.309C468.592 450.419 469.619 450.564 470.647 450.701C474.755 451.247 478.821 452.051 482.991 452.295C484.552 452.386 486.108 452.543 487.68 452.56C489.447 452.579 491.235 452.421 493.01 452.365C494.51 452.317 496 452.357 497.494 452.364C498.994 452.371 500.509 452.287 501.998 452.368C503.927 452.472 506.166 452.799 507.776 453.853C508.7 454.459 509.284 455.456 509.057 456.762C508.954 457.353 508.504 457.918 508.117 458.344C507.195 459.36 505.892 460.279 504.721 460.807C501.333 462.332 497.774 462.136 494.558 461.252C492.984 460.819 491.504 460.144 489.976 459.59C488.639 459.106 487.268 458.711 485.92 458.255C482.825 457.206 479.908 455.796 476.898 454.551C474.573 453.59 472.209 452.772 469.948 451.673C468.844 451.137 467.661 450.653 466.579 450.126" stroke="#FFEED8" stroke-width="0.976308" stroke-linecap="round"/>
<path d="M335.733 397.586C335.733 417.416 354.234 535.254 348.568 554.353C347.277 558.702 348.482 564.399 347.928 568.932C347.709 570.724 347.079 574.503 347.821 576.29C347.893 576.461 349.963 575.754 350.132 575.708C352.989 574.938 355.869 574.333 358.803 573.894C383.288 570.236 408.769 571.861 433.436 572.388C453.507 572.818 473.555 572.835 493.64 572.97C509.577 573.078 525.519 573.586 541.477 573.586C552.182 573.586 562.614 574.004 573.142 572.012C577.203 571.244 583.798 570.998 587.038 568.042C588.319 566.874 589.077 566.549 590.592 565.886C592.903 564.875 600.309 566.899 598.198 565.544C597.527 565.113 596.467 562.643 595.852 561.882C593.639 559.142 591.173 556.008 588.638 553.566C584.887 549.954 582.798 545.057 579.362 541.553C575.647 537.766 575.753 530.203 573.462 525.537C570.397 519.292 569.237 512.993 567.527 506.406C565.703 499.381 567.207 490.328 567.207 483.032" stroke="#0038FF" stroke-width="4.85241" stroke-linecap="round"/>
<path d="M363.635 573.779C362.645 583.683 361.709 592.591 361.209 602.594C359.958 627.613 351.682 651.575 348.083 676.354C344.86 698.549 340.915 720.789 336.795 742.833C334.467 755.287 332.08 767.791 330.662 780.392C328.66 798.193 328.623 816.154 327.527 834.014C326.881 844.532 326.306 855.044 326.028 865.581C325.989 867.074 324.664 873.45 326.412 873.525C340.03 874.104 353.717 873.457 367.351 873.873C381.51 874.305 395.729 874.71 409.893 874.814C413.054 874.837 440.553 876.685 440.763 874.535C443.907 842.306 451.355 811.245 458.95 779.8C468.974 738.303 475.473 695.958 472.713 653.184C472.312 646.968 473.591 641.955 474.49 631.965C475.026 626.005 475.13 619.995 475.884 614.057C476.409 609.914 476.563 610.011 476.656 605.835C476.76 601.152 478.88 601.597 478.88 605.229C478.88 609.975 478.94 612.007 479.403 616.739C483.485 658.468 487.342 700.667 495.325 741.857C505.516 794.433 519.595 846.217 531.073 898.506C531.413 900.056 531.114 903.236 532.188 904.43C532.923 905.245 534.494 903.377 535.463 903.036C539.913 901.47 544.898 901.619 549.54 901.154C559.237 900.185 568.993 899.909 578.702 898.959C596.199 897.248 613.838 895.265 631.07 891.712C633.548 891.201 659.133 886.937 658.247 884.082C656.541 878.585 653.882 873.364 651.696 868.055C640.07 839.819 628.628 811.371 622.081 781.437C618.792 766.402 617.173 751.044 613.858 736.004C611.424 724.963 608.451 714.004 605.426 703.113C599.829 682.963 594.243 662.861 588.458 642.766C585.507 632.514 580.955 621.249 579.364 610.781C577.933 601.368 576.99 592.099 574.939 582.873C574.218 579.627 572.466 577.076 572.466 573.779" stroke="#0033E6" stroke-width="4.85241" stroke-linecap="round"/>
<path d="M348.151 418.032C359.339 449.89 367.448 482.569 380.202 513.925C381.116 515.607 381.425 515.094 382.162 517.192C382.934 519.392 382.94 521.721 383.674 523.812C386.327 531.367 381.434 539.134 386.089 546.375C387.182 548.075 389.724 552.354 391.882 552.97C395.534 554.013 393.911 554.954 395.559 551.998C397.443 548.62 398.5 543.832 399.587 540.196C400.785 536.192 402.885 533.278 404.668 529.463C407.224 523.995 409.538 518.442 411.281 512.679C413.519 505.279 417.271 498.318 418.37 490.693C420.98 472.576 417.913 454.049 415.554 436.389C414.056 425.173 410.438 413.994 407.117 403.236C403.688 392.129 400.207 381.116 396.353 370.142C391.865 357.362 387.318 344.434 381.095 332.353C376.226 322.9 373.099 312.56 368.318 303.041C364.498 295.436 361.065 288.176 358.253 280.168C355.72 272.954 357.259 263.366 352.156 257.02C350.088 254.449 346.995 255.735 343.971 255.7C342.716 255.685 342.692 261.679 342.377 262.732C340.315 269.628 338.899 276.389 333.801 282.283C332.27 284.053 330.558 287.733 329.59 289.835C327.633 294.081 326.2 298.67 326.099 303.166C325.973 308.744 326.175 314.205 325.883 319.781C325.16 333.626 329.97 346.679 332.222 359.944C335.515 379.349 341.641 399.495 348.151 418.032Z" fill="#FFEED8" stroke="#0038FF" stroke-width="1.89995" stroke-linecap="round"/>
<path d="M386.42 437.173C384.04 445.748 379.783 453.321 375.689 460.109C374.257 458.842 377.234 445.202 377.788 442.389C379.797 432.18 380.688 421.516 382.643 411.308C382.754 410.73 385.223 398.79 386.595 403.365C388.361 409.25 387.921 417.265 387.847 423.66C387.793 428.326 387.62 432.85 386.42 437.173Z" fill="#FFEED8"/>
<path d="M373.854 463.13C378.456 455.584 383.681 447.042 386.42 437.173C387.62 432.85 387.793 428.326 387.847 423.66C387.921 417.265 388.361 409.25 386.595 403.365C385.223 398.79 382.754 410.73 382.643 411.308C380.688 421.516 379.797 432.18 377.788 442.389C377.233 445.205 374.251 458.87 375.694 460.113" stroke="#0038FF" stroke-width="1.89995" stroke-linecap="round"/>
<path d="M387.097 469.841C389.859 460.835 395.894 452.414 401.769 444.806C404.339 445.75 401.297 459.901 400.77 462.806C398.858 473.349 398.878 484.101 397.056 494.631C396.953 495.227 394.518 507.584 391.581 503.352C387.802 497.907 387.404 489.877 386.624 483.529C386.055 478.897 385.705 474.381 387.097 469.841Z" fill="#FFEED8"/>
<path d="M404.406 441.418C397.791 449.886 390.275 459.476 387.097 469.841C385.705 474.381 386.055 478.897 386.624 483.529C387.404 489.877 387.802 497.907 391.581 503.352C394.518 507.584 396.953 495.227 397.056 494.631C398.878 484.101 398.858 473.349 400.77 462.806C401.297 459.898 404.345 445.722 401.761 444.804" stroke="#0038FF" stroke-width="1.89995" stroke-linecap="round"/>
<path d="M371.495 399.138C370.898 401.118 369.713 407.401 367.633 408.347C366.179 401.462 365.194 391.903 363.741 385.023C362.541 379.344 360.783 373.116 361.718 367.282C362.291 363.707 364.595 358.697 368.772 358.49C372.031 358.329 373.618 363.553 374.326 365.999C375.792 371.063 376.281 375.903 375.57 381.144C374.738 387.274 373.28 393.217 371.495 399.138Z" fill="#FFEED8" stroke="#0038FF" stroke-width="1.89995" stroke-linecap="round"/>
<path d="M351.402 348.649C353.093 348.065 352.455 338.938 352.663 337.2C353.376 331.245 355.581 325.724 356.585 319.842C356.992 317.462 356.56 308.375 352.856 308.039C349.688 307.752 347.85 311.121 347.418 313.73C345.612 324.615 352.111 335.366 350.879 346.172" stroke="#0038FF" stroke-width="1.89995" stroke-linecap="round"/>
<path d="M383.665 431.307C376.786 431.234 316.911 425.527 309.542 423.459L312.636 464.586C315.431 465.033 382.351 465.484 393.827 467.409C407.321 469.673 420.601 472.88 434.046 475.353C447.791 477.881 461.73 479.501 475.592 481.239C489.078 482.93 503.03 485.545 516.801 484.449L516.802 484.449C518.807 484.289 527.994 483.557 527.582 478.223C527.258 474.02 521.962 474.186 518.522 473.65C515.082 473.114 491.148 467.342 491.95 466.106C493.072 464.376 517.421 466.585 521.554 465.506C525.686 464.427 532.288 461.055 533.89 455.191C535.242 450.241 525.239 451.795 522.607 451.885C519.976 451.974 493.983 452.272 492.852 451.841C490.809 451.063 514.623 444.666 515.154 444.404C518.164 442.919 523.307 442.474 524.764 438.054C525.896 434.619 523.758 431.235 521.727 430.494C518.762 429.413 516.304 431.372 512.602 432.518C508.9 433.664 493.379 435.759 492.612 434.353C492.101 433.416 514.265 424.572 514.779 424.161C520.276 419.766 515.408 414.67 511.377 413.067C506.414 411.093 500.804 412.89 495.718 414.431C489.138 416.426 482.542 418.408 475.989 420.607C469.529 422.775 463.142 425.658 456.578 426.997C452.879 427.751 446.867 429.082 443.469 426.692C442.063 425.702 448.267 422.705 448.624 422.509C450.608 421.42 453.332 420.194 454.308 417.358C456.247 411.723 453.396 401.072 449.274 400.817C447.388 400.7 441.48 404.234 439.803 405.189C435.411 407.69 431.205 410.994 426.732 413.19C413.897 419.491 396.916 431.447 383.665 431.307Z" fill="#FFEED8" stroke="#0033E6" stroke-width="2.83057" stroke-linecap="round"/>
<path d="M294.892 385.86C294.892 385.86 344.86 380.27 332.296 396.778L313.696 444.291L299.993 500.498C280.094 498.493 269.553 492.458 251.873 472.394C227.167 429.896 231.588 404.711 272.294 357.352L294.892 385.86Z" fill="#FFEED8"/>
<path d="M324.211 326.013C305.327 335.2 274.842 348.289 259.714 363.417C247.41 375.721 237.271 396.585 233.835 413.764C229.534 435.27 235.594 450.326 248.003 467.307C256.874 479.446 271.618 492.477 285.483 498.639C288.929 500.171 295.1 499.884 298.868 500.721C303.614 501.776 304.548 485.486 305.115 482.973C311.308 455.489 310.895 437.68 326.839 413.764C330.769 407.869 330.074 408.1 335.331 397.788" stroke="#0033E6" stroke-width="6.46988" stroke-linecap="round"/>
<path d="M527.846 540.206C524.055 545.185 519.786 550.106 515.172 554.627C510.085 559.613 502.209 559.953 494.442 558.751C488.371 557.811 482.209 555.899 477.26 554.364C475.858 553.929 474.553 553.524 473.375 553.18C466.275 551.107 459.004 549.38 451.733 547.654C447.214 546.581 442.695 545.508 438.218 544.352C428.44 541.827 418.532 539.331 408.745 536.947L408.613 536.914L408.559 536.901C399.668 534.735 388.477 532.009 380.638 527.445C377.56 525.653 375.752 523.57 374.711 521.272C373.678 518.99 373.425 516.547 373.367 514.083C373.28 510.391 373.94 506.685 374.797 503.054C375.172 501.467 375.579 499.916 375.981 498.384C376.51 496.365 377.031 494.381 377.457 492.395L380.29 479.201C380.52 478.132 380.694 476.988 380.877 475.795C381.058 474.609 381.247 473.376 381.502 472.161C382.011 469.733 382.798 467.307 384.394 465.33C386.641 462.547 388.831 460.042 391.805 457.639C393.179 456.529 395.16 455.666 397.171 454.943C398.34 454.523 399.583 454.129 400.744 453.761C401.554 453.504 402.324 453.26 403.001 453.029C405.437 452.195 408.224 451.835 410.985 451.537C411.386 451.494 411.787 451.452 412.187 451.41C414.558 451.162 416.879 450.919 418.993 450.433C422.546 449.618 425.964 449.15 429.966 449.589C439.588 450.647 449.062 452.483 458.535 454.319C461.386 454.872 464.237 455.425 467.091 455.956C477.62 457.915 487.809 460.137 498.204 462.928C505.563 464.903 512.616 467.026 518.495 471.447C524.159 475.706 527.012 482.002 529.447 487.375C529.597 487.706 529.745 488.032 529.892 488.355C534.787 499.092 537.26 510.336 534.952 521.085C534.879 521.425 534.807 521.766 534.734 522.107C533.401 528.356 532.052 534.683 527.846 540.206Z" fill="#0033E6" stroke="#FFEED8" stroke-width="1.2131" stroke-linecap="round"/>
<path d="M484.295 463.871C486.695 464.586 488.55 466.059 490.281 467.546C494.29 470.987 498.521 474.305 501.59 478.337C503.272 480.548 509.352 491.245 505.161 492.916C503.062 493.753 495.925 489.183 494.447 488.372C489.037 485.406 484.631 482.227 481.649 477.581C478.198 472.206 476.833 467.311 471.302 462.655C469.704 461.31 466.667 457.97 467.062 461.599C467.936 469.635 470.028 476.628 474.523 484.065C477.623 489.193 470.567 489.847 466.562 486.989C457.846 480.77 458.733 474.589 457.12 466.982C456.162 462.463 453.177 459.568 449.811 455.942C448.276 454.289 448.283 456.817 448.099 457.673C447.565 460.16 446.475 462.833 447.101 465.443C447.566 467.384 450.39 477.371 447.316 478.486C441.338 480.654 433.839 469.77 434.278 466.041C434.772 461.844 436.271 457.907 437.508 453.942C438.792 449.831 442.32 450.662 446.721 451.607C458.694 454.178 470.367 458.782 482.163 461.315" stroke="#FFEED8" stroke-width="1.46551" stroke-linecap="round"/>
<path d="M551.684 466.383C558.163 464.068 612.894 439.127 619.184 434.767L629.686 474.65C627.19 475.986 564.083 498.258 553.865 503.825C541.849 510.369 530.344 517.736 518.442 524.463C506.276 531.34 493.63 537.422 481.094 543.59C468.9 549.591 456.566 556.617 443.191 560.077L443.19 560.077C441.243 560.581 432.32 562.888 430.968 557.712C429.903 553.634 434.963 552.062 438.039 550.432C441.115 548.802 461.854 535.533 460.693 534.626C459.067 533.357 436.773 543.395 432.515 543.724C428.257 544.053 420.915 543.021 417.487 538.001C414.593 533.764 424.556 531.967 427.072 531.192C429.589 530.418 454.254 522.214 455.183 521.437C456.86 520.035 432.263 521.763 431.675 521.688C428.345 521.267 423.339 522.526 420.519 518.823C418.327 515.946 419.243 512.05 420.921 510.686C423.37 508.696 426.333 509.746 430.207 509.62C434.08 509.495 449.434 506.408 449.7 504.829C449.878 503.777 426.041 502.653 425.421 502.432C418.79 500.072 421.728 493.666 425.015 490.835C429.061 487.349 434.951 487.216 440.261 487.013C447.131 486.75 454.014 486.47 460.925 486.41C467.739 486.35 474.718 486.99 481.358 486.112C485.102 485.618 491.218 484.913 493.65 481.544C494.656 480.15 487.814 479.342 487.412 479.273C485.181 478.893 482.207 478.622 480.358 476.261C476.685 471.567 475.903 460.569 479.716 458.982C481.461 458.256 488.198 459.667 490.095 460.023C495.063 460.953 500.117 462.703 505.062 463.319C519.251 465.084 539.205 470.841 551.684 466.383Z" fill="#FFEED8" stroke="#0033E6" stroke-width="2.83057" stroke-linecap="round"/>
<path d="M453.064 328.334C454.226 325.336 456.521 322.884 458.842 320.719C460.288 319.369 462.511 317.257 464.167 316.473C465.295 315.819 466.556 315.168 467.884 314.969C470.256 314.613 472.702 314.746 475.095 314.746C477.131 314.746 479.054 314.735 481.054 315.185C486.593 316.431 491.914 318.81 494.621 324.088C495.865 326.514 496.887 329.046 497.377 331.745C497.978 335.046 498.717 338.427 498.47 341.811C498.227 345.145 497.388 347.992 495.867 350.957C495.084 352.483 494.087 353.867 493.263 355.37C492.281 357.164 491.564 359.109 490.27 360.716C488.494 362.923 486.497 363.736 483.769 364.113C481.863 364.377 479.885 364.239 477.963 364.239C475.424 364.239 472.798 364.145 470.39 363.299C468.935 362.788 467.511 361.939 466.123 361.266C463.493 359.993 460.805 358.759 458.285 357.278C454.778 355.217 450.627 351.896 449.946 347.581C449.55 345.075 449.677 342.33 450.092 339.841C450.742 335.938 451.633 332.028 453.064 328.334Z" fill="#FFEED8" stroke="#0033E6" stroke-width="1.61747" stroke-linecap="round"/>
<path d="M464.293 316.962C464.408 318.231 464.894 319.821 465.409 320.98C466.138 322.619 465.8 320.516 465.8 320.98" stroke="#0033E6" stroke-width="1.61747" stroke-linecap="round"/>
<path d="M487.397 318.469C486.09 318.632 483.683 323.492 483.881 323.492" stroke="#0033E6" stroke-width="1.61747" stroke-linecap="round"/>
<path d="M497.443 332.03C495.566 332.03 493.768 332.533 491.917 332.533" stroke="#0033E6" stroke-width="1.61747" stroke-linecap="round"/>
<path d="M494.932 350.615C492.935 350.615 490.969 350.113 488.904 350.113" stroke="#0033E6" stroke-width="1.61747" stroke-linecap="round"/>
<path d="M463.289 359.154C463.289 357.812 463.738 356.749 464.293 355.638" stroke="#0033E6" stroke-width="1.61747" stroke-linecap="round"/>
<path d="M466.004 335.209C467.166 332.21 469.462 329.759 471.782 327.594C473.228 326.244 475.452 324.132 477.107 323.347C478.236 322.694 479.497 322.043 480.824 321.844C483.196 321.488 485.642 321.621 488.036 321.621C490.072 321.621 491.995 321.61 493.994 322.06C499.533 323.306 504.855 325.685 507.561 330.963C508.805 333.388 509.827 335.92 510.318 338.62C510.918 341.921 511.657 345.302 511.411 348.685C511.167 352.02 510.329 354.867 508.807 357.832C508.024 359.358 507.027 360.742 506.204 362.245C505.221 364.039 504.504 365.984 503.211 367.591C501.434 369.798 499.438 370.611 496.709 370.988C494.804 371.251 492.825 371.113 490.904 371.113C488.365 371.113 485.738 371.02 483.33 370.174C481.876 369.663 480.451 368.814 479.063 368.141C476.433 366.867 473.745 365.633 471.225 364.152C467.718 362.091 463.567 358.771 462.886 354.456C462.49 351.95 462.617 349.204 463.032 346.715C463.682 342.813 464.573 338.902 466.004 335.209Z" fill="#FFEED8" stroke="#0033E6" stroke-width="1.61747" stroke-linecap="round"/>
<path d="M477.233 323.837C477.348 325.105 477.834 326.696 478.349 327.855C479.078 329.494 478.74 327.391 478.74 327.855" stroke="#0033E6" stroke-width="1.61747" stroke-linecap="round"/>
<path d="M500.338 325.344C499.031 325.507 496.623 330.366 496.822 330.366" stroke="#0033E6" stroke-width="1.61747" stroke-linecap="round"/>
<path d="M510.384 338.905C508.507 338.905 506.709 339.407 504.859 339.407" stroke="#0033E6" stroke-width="1.61747" stroke-linecap="round"/>
<path d="M507.872 357.49C505.876 357.49 503.909 356.987 501.845 356.987" stroke="#0033E6" stroke-width="1.61747" stroke-linecap="round"/>
<path d="M476.228 366.029C476.228 364.687 476.677 363.624 477.233 362.513" stroke="#0033E6" stroke-width="1.61747" stroke-linecap="round"/>
<path d="M604.28 322.836L612.243 311.476L640.362 344.432L653.162 406.332L647.706 458.302L632.808 503.935L591.679 458.302L565.645 402.802C568.822 406.439 658.418 380.722 604.28 322.836Z" fill="#FFEED8"/>
<path d="M601.979 307.562C612.725 312.672 622.756 320.128 630.488 330.141C645.609 349.723 650.947 376.228 651.769 401.651C652.359 419.915 650.979 437.892 647.066 455.623C645.771 461.494 643.615 466.676 641.961 472.387C640.919 475.987 639.841 480.177 638.334 483.522C636.94 486.616 635.703 490.518 635.056 493.946C634.636 496.166 633.612 498.254 633.497 500.503C633.47 501.034 633.139 502.365 632.987 502.977C632.591 504.571 631.4 501.51 631.052 501.059C623.527 491.314 614.616 483.23 607.111 473.47C597.825 461.393 586.267 450.934 578.065 437.839C572.539 429.015 566.654 420.66 562.4 410.868C561.246 408.211 560.179 405.321 558.8 402.826C557.459 400.4 560.363 400.032 562.105 399.517C569.799 397.239 576.303 394.131 580.672 386.062C582.867 382.007 584.513 375.299 584.513 370.456" stroke="#0033E6" stroke-width="5.66114" stroke-linecap="round"/>
<path d="M307.338 196.489C316.728 196.489 330.517 194.004 339.572 196.591C340.923 196.977 331.125 226.094 330.436 228.621C330.245 229.319 326.93 241.863 325.816 241.863C324.482 241.863 325.816 239.194 325.816 237.86C325.816 234.404 325.816 230.948 325.816 227.491C325.816 214.897 323.679 205.438 314.729 196.489" stroke="#0033E6" stroke-width="4" stroke-linecap="round"/>
<path d="M636.293 225C634.694 225.2 635.526 230.242 635.498 231.542C635.388 236.566 633.101 241.802 630.547 246.039C628.459 249.504 626.465 254.5 623.74 257.443C621.341 260.035 621.486 258.879 623.785 258.017C629.378 255.92 635.68 255.84 641.509 254.835C643.858 254.43 646.788 255.111 648.625 253.641C650.125 252.441 641.411 242.268 640.36 240.691C637.827 236.892 636.131 233.265 634.702 228.978" stroke="#0033E6" stroke-width="4" stroke-linecap="round"/>
<path d="M74.1708 162.269C77.6036 162.005 80.9594 161.749 84.238 161.501C87.5475 161.25 90.857 160.998 94.1665 160.747C95.064 160.685 95.6661 160.778 95.9725 161.027C96.3098 161.272 96.5283 161.873 96.6279 162.829C96.7114 163.631 96.7041 164.458 96.6058 165.31C96.5075 166.161 96.5171 167.002 96.6347 167.832C96.9374 170.138 97.2416 172.46 97.5475 174.798C97.881 177.101 98.2607 179.399 98.6867 181.693C99.0112 183.312 98.9666 184.828 98.5528 186.243C98.1391 187.658 97.3279 188.849 96.1194 189.817C93.5886 191.857 90.9358 193.474 88.1609 194.667C85.4168 195.857 82.4257 196.621 79.1875 196.958C77.7689 197.106 76.3438 197.192 74.9123 197.216C73.5149 197.269 72.1062 197.213 70.6863 197.049C69.2696 196.916 67.8677 196.625 66.4805 196.178C65.0966 195.761 63.7397 195.154 62.4097 194.357C59.7838 192.791 57.4544 190.93 55.4215 188.772C53.4195 186.612 51.9584 183.958 51.0383 180.812C50.4028 178.602 49.7536 176.41 49.0905 174.234C48.4274 172.059 47.869 169.841 47.4154 167.582C47.0941 165.994 46.8962 164.394 46.8217 162.78C46.7748 161.133 46.6954 159.473 46.5836 157.802C46.5617 156.993 46.5723 156.197 46.6153 155.414C46.6584 154.63 46.6073 153.84 46.4621 153.045C46.1749 151.485 46.1456 150.007 46.3743 148.611C46.6307 147.182 46.9965 145.756 47.472 144.335C48.7614 140.554 50.6272 137.366 53.0693 134.774C55.5113 132.181 58.4957 130.156 62.0223 128.697C63.1898 128.233 64.3742 127.782 65.5756 127.345C66.7771 126.908 68.0052 126.578 69.26 126.353L69.6764 126.31C70.5707 126.217 71.4625 126.249 72.3517 126.405C73.2685 126.528 74.187 126.666 75.1071 126.82C76.0579 126.97 76.9828 127.17 77.8817 127.419C78.8114 127.665 79.7362 127.865 80.6563 128.019C82.206 128.231 83.5932 128.679 84.8178 129.362C86.07 130.011 87.1018 131.088 87.9133 132.593C88.2147 133.092 88.5314 133.589 88.8636 134.084C89.2234 134.546 89.5832 135.007 89.943 135.468C90.8798 136.68 91.6996 137.966 92.4025 139.327C93.1022 140.657 93.5803 142.104 93.8366 143.667C92.8376 144.55 91.8754 145.04 90.9503 145.137C89.5008 145.288 88.3324 144.396 87.4451 142.462C86.6355 140.676 85.5571 139.152 84.2097 137.889C82.8933 136.624 81.5337 135.394 80.1311 134.199C79.8247 133.951 79.3454 133.689 78.6932 133.414C78.0379 133.108 77.3395 132.838 76.598 132.603C75.8874 132.366 75.1817 132.174 74.4807 132.029C73.8074 131.85 73.2979 131.747 72.9522 131.721C72.2024 131.705 71.4574 131.736 70.7173 131.813C69.9771 131.89 69.2402 131.998 68.5065 132.137C67.8004 132.242 67.0804 132.363 66.3467 132.502C66.0107 132.568 65.6827 132.712 65.3627 132.932C65.0396 133.122 64.7084 133.234 64.3691 133.269L64.2766 133.279C64.1532 133.292 64.0453 133.303 63.9528 133.313C63.8571 133.292 63.7629 133.286 63.6704 133.295C62.4985 133.417 61.5145 133.847 60.7185 134.585C59.9501 135.288 59.3008 136.089 58.7708 136.986C57.2295 139.547 55.9015 142.21 54.7868 144.976C53.6721 147.742 53.0611 150.705 52.9539 153.865C52.896 154.806 52.9015 155.756 52.9703 156.715C53.0667 157.641 53.1801 158.58 53.3105 159.532C53.6067 161.777 53.903 164.022 54.1992 166.267C54.5262 168.509 54.9012 170.761 55.324 173.024C55.6902 175.043 56.2521 176.995 57.0096 178.881C57.798 180.762 58.7479 182.549 59.8595 184.242C60.937 185.906 62.2933 187.106 63.9284 187.839C65.5636 188.573 67.3118 189.046 69.1732 189.257C70.5622 189.424 71.9311 189.546 73.2797 189.624C74.625 189.671 76.0045 189.745 77.418 189.848C77.8253 189.868 78.2311 189.872 78.6352 189.861C79.0393 189.85 79.4418 189.824 79.8428 189.782C81.8165 189.576 83.6826 189.086 85.4411 188.31C87.2272 187.501 88.9883 186.6 90.7243 185.609C91.4047 185.257 91.8564 184.805 92.0793 184.252C92.299 183.668 92.3517 182.977 92.2373 182.178C91.891 179.751 91.5771 177.337 91.2957 174.934C91.0419 172.498 90.7694 170.033 90.4783 167.538C88.7841 167.434 87.1255 167.373 85.5025 167.355C83.8796 167.337 82.2508 167.413 80.6163 167.583C79.722 167.676 78.817 167.817 77.9015 168.006C76.9827 168.164 76.0688 168.369 75.1596 168.619C74.7073 168.168 74.4246 167.698 74.3115 167.211C74.1985 166.724 74.1609 166.214 74.1988 165.68C74.2334 165.115 74.2681 164.55 74.3028 163.986C74.3683 163.418 74.3243 162.846 74.1708 162.269Z" fill="#0033E6"/>
<path d="M140.104 130.576C140.29 129.964 140.718 129.281 141.387 128.525C142.053 127.739 142.786 126.992 143.585 126.285C144.381 125.548 145.125 124.909 145.817 124.369C146.54 123.826 147.018 123.48 147.252 123.331C148.188 122.735 149.18 122.382 150.228 122.273C151.215 122.17 152.305 122.306 153.497 122.681C154.044 122.842 154.497 122.997 154.855 123.147C155.214 123.297 155.485 123.502 155.668 123.764C155.878 123.991 156.018 124.289 156.088 124.655C156.157 125.022 156.193 125.517 156.196 126.141C156.179 126.579 156.13 127.005 156.048 127.418C155.967 127.832 155.902 128.26 155.855 128.701C154.372 128.232 152.921 128.072 151.502 128.219C149.683 128.409 148.092 128.996 146.729 129.979C145.397 130.96 144.291 132.166 143.412 133.598C142.56 134.996 141.959 136.555 141.608 138.275C141.257 139.995 141.151 141.674 141.291 143.312C141.685 147.697 142.015 152.059 142.28 156.395C142.541 160.701 142.854 165.049 143.218 169.438C143.261 170.15 143.446 170.879 143.773 171.625C144.131 172.367 144.481 173.187 144.824 174.087C144.254 174.302 143.657 174.551 143.032 174.835C142.437 175.115 141.803 175.306 141.127 175.407L140.804 175.441C139.786 175.547 139.037 175.391 138.557 174.974C138.105 174.522 137.833 173.709 137.742 172.533C137.463 169.258 137.201 165.996 136.956 162.749C136.708 159.47 136.443 156.177 136.161 152.871C136.135 152.624 136.125 152.376 136.13 152.126C136.135 151.876 136.125 151.628 136.099 151.381C135.791 147.828 135.488 144.321 135.19 140.861C134.889 137.37 134.584 133.848 134.277 130.295C134.222 129.77 134.153 129.263 134.071 128.773C134.02 128.279 133.908 127.808 133.737 127.358C133.478 126.668 133.439 126.142 133.619 125.78C133.8 125.419 134.204 125.112 134.833 124.859C135.282 124.687 135.658 124.555 135.96 124.461C136.293 124.364 136.583 124.303 136.829 124.277C137.354 124.222 137.729 124.386 137.956 124.767C138.183 125.149 138.46 125.868 138.789 126.925C138.832 127.045 138.887 127.273 138.954 127.61C139.047 127.911 139.129 128.246 139.198 128.613C139.299 128.976 139.382 129.326 139.448 129.662C139.511 129.967 139.55 130.197 139.566 130.351C139.665 130.403 139.747 130.442 139.812 130.466C139.908 130.487 140.005 130.524 140.104 130.576Z" fill="#0033E6"/>
<path d="M184.838 157.848C184.598 158.839 184.537 159.749 184.654 160.579C184.772 161.408 184.993 162.18 185.317 162.895C185.671 163.606 186.101 164.294 186.607 164.958C187.109 165.592 187.61 166.21 188.11 166.812C189.003 167.904 189.968 168.941 191.006 169.924C192.071 170.873 193.15 171.805 194.243 172.72C195.373 173.693 196.516 174.338 197.671 174.654C198.823 174.939 200.139 175.005 201.619 174.851C203.179 174.564 204.707 174.264 206.202 173.952C207.694 173.61 209.148 173.053 210.564 172.282C211.244 171.931 211.908 171.566 212.554 171.186C213.228 170.773 213.744 170.19 214.102 169.435C214.362 168.941 214.723 168.669 215.186 168.621C215.402 168.598 215.641 168.651 215.904 168.78C216.167 168.908 216.414 169.039 216.646 169.17C216.875 169.271 217.12 169.386 217.383 169.514C217.812 171.839 217.168 173.73 215.449 175.187C213.162 177.171 210.694 178.769 208.046 179.98C205.425 181.157 202.65 182.054 199.722 182.671C199.509 182.724 199.295 182.762 199.079 182.784C198.894 182.804 198.709 182.823 198.524 182.842C196.242 183.08 194.133 182.738 192.198 181.818C190.263 180.897 188.453 179.683 186.768 178.175C184.634 176.246 182.855 174.125 181.429 171.81C180.034 169.493 179.001 166.904 178.328 164.044C177.879 162.126 177.683 160.245 177.741 158.4C177.798 156.555 177.899 154.689 178.046 152.804C178.174 151.044 178.4 149.322 178.723 147.636C179.043 145.919 179.41 144.198 179.822 142.471C180.316 140.331 181.216 138.492 182.52 136.953C183.822 135.383 185.429 134.047 187.34 132.944C188.014 132.53 188.725 132.176 189.474 131.88C190.219 131.552 190.946 131.196 191.654 130.811C193.578 129.831 195.465 129.245 197.316 129.052C199.598 128.814 201.808 129.083 203.946 129.857C206.112 130.598 208.245 131.623 210.346 132.932C210.813 133.226 211.245 133.633 211.642 134.153C212.066 134.638 212.431 135.146 212.736 135.675C213.717 137.319 214.608 138.987 215.408 140.681C216.205 142.344 216.644 144.169 216.727 146.155C216.765 147.118 216.849 148.075 216.979 149.028C217.137 149.947 217.235 150.887 217.273 151.85C217.28 151.912 217.272 151.99 217.251 152.086C217.261 152.178 217.27 152.271 217.28 152.364C217.242 152.897 217.04 153.355 216.675 153.736C216.306 154.086 215.859 154.288 215.335 154.343C215.243 154.353 215.135 154.364 215.011 154.377C214.919 154.386 214.823 154.365 214.724 154.313C213.931 154.178 213.087 154.156 212.192 154.25C211.483 154.324 210.779 154.444 210.079 154.61C209.407 154.742 208.716 154.846 208.007 154.919L207.683 154.953C205.987 155.13 204.297 155.368 202.614 155.668C200.961 155.965 199.29 156.233 197.6 156.471C196.956 156.57 196.294 156.654 195.616 156.725C194.968 156.792 194.305 156.861 193.627 156.932L187.428 157.578L184.838 157.848ZM210.671 149.966C210.502 146.554 209.608 143.81 207.989 141.735C206.398 139.625 204.122 137.976 201.161 136.788C200.181 136.36 199.233 136.085 198.316 135.962C197.399 135.839 196.509 135.823 195.646 135.913C194.042 136.08 192.534 136.564 191.121 137.366C189.736 138.134 188.401 139.084 187.116 140.215C186.199 140.996 185.497 141.88 185.007 142.866C184.545 143.818 184.23 144.833 184.062 145.911C183.893 146.988 183.853 148.099 183.941 149.243C184.029 150.388 184.151 151.56 184.307 152.759C186.783 152.283 189.232 151.856 191.656 151.479C194.076 151.071 196.504 150.74 198.941 150.486C200.884 150.284 202.833 150.143 204.789 150.064C206.741 149.954 208.702 149.922 210.671 149.966Z" fill="#0033E6"/>
<path d="M267.376 101.005C267.325 100.512 267.263 100.066 267.19 99.6685C267.114 99.2399 267.086 98.822 267.106 98.4146C267.127 97.4149 267.382 96.5777 267.873 95.9031C268.364 95.2285 269.052 94.7983 269.937 94.6126C270.057 94.5689 270.163 94.5423 270.256 94.5326C270.379 94.5198 270.487 94.5085 270.579 94.4989C271.227 94.4314 271.754 94.548 272.159 94.8487C272.592 95.1154 272.941 95.6245 273.207 96.3762C274.003 98.6314 274.584 100.924 274.952 103.255C275.35 105.583 275.564 107.93 275.592 110.297C275.602 111.885 275.624 113.442 275.658 114.966C275.722 116.487 275.868 118.03 276.093 119.597C276.544 122.729 276.946 125.836 277.298 128.917C277.65 131.998 278.006 135.109 278.364 138.252C278.459 138.865 278.493 139.485 278.464 140.112C278.433 140.707 278.388 141.32 278.328 141.95C278.29 143.076 278.234 144.188 278.162 145.287C278.089 146.386 278.191 147.513 278.467 148.669C278.653 149.554 278.671 150.471 278.52 151.422C278.37 152.373 278.187 153.312 277.972 154.238C277.799 154.973 277.546 155.686 277.213 156.375C276.913 157.092 276.595 157.78 276.259 158.438C275.518 160.012 274.6 161.37 273.503 162.513C272.407 163.656 270.958 164.415 269.158 164.789C267.69 165.067 266.226 165.375 264.765 165.715C263.338 166.082 261.884 166.342 260.404 166.496C259.201 166.622 257.957 166.642 256.67 166.558C255.414 166.471 254.175 166.257 252.955 165.916C251.738 165.607 250.57 165.167 249.451 164.598C248.335 164.06 247.314 163.387 246.388 162.579C245.809 162.109 245.2 161.643 244.559 161.18C243.953 160.744 243.278 160.253 242.535 159.707C242.786 159.12 243.006 158.536 243.194 157.955C243.414 157.371 243.687 156.844 244.012 156.373C244.683 155.337 245.358 154.784 246.037 154.713C246.376 154.678 246.742 154.749 247.134 154.926C247.527 155.103 247.961 155.385 248.438 155.772C250.478 157.399 252.643 158.576 254.932 159.304C257.252 160.029 259.723 160.255 262.344 159.981C264.565 159.75 266.317 159.069 267.602 157.937C268.921 156.833 269.825 155.181 270.312 152.979C270.806 150.839 271.16 148.698 271.373 146.555C271.59 144.444 271.659 142.27 271.582 140.034C270.114 140.904 268.705 141.736 267.353 142.532C266.033 143.324 264.696 144.102 263.341 144.867C261.307 145.983 259.302 146.644 257.329 146.85C255.046 147.087 252.686 146.725 250.248 145.764C246.96 144.423 244.345 142.513 242.403 140.034C240.489 137.521 239.021 134.65 237.999 131.421C237.158 128.734 236.69 126.04 236.595 123.337C236.501 120.635 236.698 117.887 237.186 115.093C237.322 114.299 237.442 113.507 237.546 112.717C237.651 111.927 237.771 111.135 237.907 110.341C238.387 107.174 239.501 104.548 241.248 102.465C242.992 100.35 245.328 98.6883 248.257 97.4791C248.941 97.1585 249.617 96.9166 250.286 96.7534C250.986 96.587 251.69 96.4668 252.399 96.3929C254.712 96.1519 256.995 96.522 259.249 97.503C260.556 98.0838 261.862 98.6492 263.166 99.1992C264.501 99.7459 265.905 100.348 267.376 101.005ZM269.992 120.279C269.741 118.466 269.523 116.68 269.34 114.923C269.154 113.134 268.966 111.33 268.776 109.51C268.751 109.263 268.739 109 268.741 108.719C268.743 108.438 268.662 108.26 268.498 108.183C267.891 107.748 267.312 107.278 266.761 106.774C266.21 106.27 265.643 105.768 265.061 105.268C264.51 104.764 263.916 104.296 263.278 103.864C262.672 103.428 261.996 103.078 261.251 102.812C260.087 102.404 258.913 102.214 257.732 102.244C256.578 102.239 255.421 102.204 254.26 102.138C254.01 102.133 253.762 102.143 253.515 102.169C253.296 102.16 253.063 102.169 252.817 102.195C250.535 102.432 248.765 103.552 247.508 105.553C247.214 106.02 246.956 106.531 246.733 107.084C246.537 107.603 246.26 108.084 245.901 108.527C245.051 109.644 244.394 110.819 243.93 112.052C243.497 113.282 243.191 114.529 243.011 115.795C242.831 117.061 242.762 118.346 242.805 119.651C242.844 120.925 242.929 122.194 243.061 123.459C243.344 126.173 244.035 128.766 245.134 131.239C246.261 133.678 247.598 136.033 249.143 138.303C249.364 138.623 249.632 138.954 249.948 139.295C250.292 139.602 250.657 139.813 251.043 139.929C252.662 140.509 254.202 140.925 255.662 141.178C257.15 141.397 258.758 141.417 260.485 141.237C261.404 141.079 262.266 140.833 263.073 140.499C263.911 140.163 264.653 139.649 265.298 138.958C266.115 138.125 266.932 137.292 267.749 136.458C268.594 135.591 269.407 134.711 270.187 133.82C270.466 133.51 270.691 133.128 270.862 132.674C271.03 132.189 271.108 131.744 271.097 131.34C270.966 129.483 270.791 127.647 270.57 125.83C270.377 123.98 270.185 122.129 269.992 120.279Z" fill="#0033E6"/>
<path d="M683.104 600.848C686.546 600.936 689.911 601.024 693.198 601.112C696.515 601.201 699.833 601.289 703.151 601.377C704.05 601.407 704.64 601.561 704.919 601.84C705.23 602.119 705.385 602.738 705.387 603.7C705.388 604.506 705.296 605.328 705.111 606.165C704.926 607.003 704.85 607.84 704.882 608.677C704.948 611.002 705.013 613.343 705.078 615.7C705.175 618.025 705.318 620.35 705.507 622.676C705.664 624.319 705.465 625.823 704.909 627.188C704.352 628.553 703.424 629.655 702.123 630.494C699.397 632.265 696.593 633.603 693.71 634.506C690.859 635.409 687.805 635.863 684.55 635.868C683.123 635.87 681.697 635.81 680.27 635.688C678.875 635.597 677.479 635.397 676.084 635.089C674.688 634.812 673.323 634.38 671.989 633.793C670.655 633.236 669.367 632.494 668.125 631.566C665.673 629.74 663.546 627.65 661.745 625.296C659.974 622.942 658.792 620.153 658.198 616.929C657.792 614.666 657.37 612.419 656.933 610.187C656.495 607.955 656.167 605.692 655.946 603.398C655.789 601.786 655.756 600.174 655.846 598.561C655.968 596.918 656.059 595.259 656.118 593.584C656.179 592.778 656.271 591.987 656.394 591.212C656.517 590.436 656.547 589.646 656.484 588.84C656.357 587.258 656.479 585.785 656.849 584.421C657.251 583.025 657.76 581.644 658.378 580.279C660.048 576.649 662.229 573.669 664.924 571.34C667.618 569.01 670.794 567.301 674.451 566.21C675.66 565.867 676.884 565.54 678.124 565.228C679.363 564.916 680.619 564.713 681.89 564.618L682.309 564.618C683.208 564.616 684.092 564.739 684.96 564.986C685.86 565.202 686.759 565.433 687.659 565.68C688.589 565.926 689.489 566.22 690.358 566.56C691.257 566.899 692.157 567.193 693.057 567.439C694.576 567.809 695.911 568.397 697.059 569.201C698.238 569.975 699.155 571.152 699.808 572.732C700.057 573.259 700.321 573.785 700.601 574.312C700.912 574.808 701.222 575.303 701.533 575.799C702.341 577.1 703.025 578.464 703.586 579.889C704.146 581.284 704.473 582.771 704.569 584.353C703.484 585.129 702.477 585.518 701.547 585.52C700.09 585.522 699.019 584.516 698.334 582.501C697.711 580.642 696.794 579.015 695.583 577.622C694.402 576.228 693.176 574.865 691.902 573.534C691.623 573.255 691.173 572.946 690.552 572.606C689.932 572.234 689.265 571.894 688.551 571.585C687.868 571.276 687.186 571.014 686.503 570.797C685.852 570.55 685.356 570.396 685.014 570.334C684.27 570.243 683.526 570.197 682.782 570.198C682.038 570.199 681.293 570.231 680.549 570.294C679.836 570.326 679.108 570.374 678.364 570.437C678.023 570.468 677.682 570.577 677.341 570.764C677 570.92 676.659 570.998 676.318 570.998L676.225 570.998C676.101 570.998 675.992 570.998 675.899 570.999C675.806 570.968 675.713 570.952 675.62 570.952C674.442 570.954 673.419 571.281 672.552 571.934C671.716 572.555 670.988 573.285 670.369 574.123C668.574 576.513 666.981 579.027 665.589 581.664C664.198 584.302 663.287 587.187 662.858 590.319C662.704 591.249 662.612 592.195 662.583 593.156C662.584 594.087 662.601 595.032 662.633 595.993C662.698 598.257 662.764 600.52 662.829 602.784C662.925 605.047 663.068 607.326 663.257 609.62C663.415 611.666 663.775 613.666 664.335 615.618C664.927 617.571 665.69 619.446 666.622 621.243C667.524 623.009 668.751 624.34 670.302 625.237C671.854 626.134 673.545 626.783 675.375 627.183C676.74 627.492 678.089 627.753 679.422 627.968C680.756 628.152 682.12 628.368 683.516 628.614C683.919 628.675 684.322 628.721 684.726 628.751C685.129 628.782 685.532 628.797 685.935 628.796C687.919 628.793 689.826 628.496 691.654 627.904C693.514 627.282 695.358 626.566 697.186 625.757C697.899 625.477 698.394 625.073 698.673 624.546C698.951 623.987 699.074 623.305 699.042 622.499C698.945 620.049 698.88 617.615 698.845 615.197C698.842 612.747 698.823 610.267 698.788 607.755C697.113 607.479 695.47 607.249 693.857 607.065C692.245 606.881 690.617 606.79 688.973 606.793C688.074 606.794 687.159 606.842 686.229 606.936C685.299 606.999 684.369 607.109 683.439 607.266C683.035 606.77 682.802 606.274 682.739 605.778C682.677 605.282 682.691 604.771 682.784 604.243C682.876 603.685 682.968 603.127 683.06 602.569C683.184 602.01 683.198 601.437 683.104 600.848Z" fill="#0033E6"/>
<path d="M672.158 721.912C673.738 720.886 675.256 720 676.712 719.254C678.199 718.477 679.687 717.839 681.174 717.341C682.693 716.812 684.258 716.406 685.87 716.125C687.482 715.813 689.218 715.593 691.078 715.466L691.357 715.466C692.35 715.465 693.234 715.742 694.01 716.299C694.817 716.825 695.608 717.367 696.384 717.924C698.774 719.657 700.668 721.67 702.067 723.962C703.496 726.255 704.585 728.827 705.333 731.678C706.549 736.358 706.928 740.916 706.469 745.35C706.041 749.785 704.885 754.19 703 758.564C702.505 759.681 701.871 760.659 701.097 761.497C700.323 762.304 699.347 762.972 698.17 763.501C697.271 763.875 696.404 764.341 695.567 764.9C694.731 765.459 693.863 765.91 692.965 766.253C691.663 766.751 690.361 767.156 689.059 767.468C687.758 767.779 686.44 767.936 685.107 767.938C683.959 767.94 682.936 767.833 682.037 767.617C681.137 767.432 680.3 767.139 679.524 766.737C678.748 766.335 678.003 765.84 677.289 765.252C676.575 764.664 675.815 763.998 675.007 763.255C674.542 762.822 674.107 762.357 673.703 761.862C673.33 761.335 672.834 760.855 672.213 760.422C672.338 761.29 672.448 762.158 672.542 763.026C672.636 763.894 672.746 764.793 672.871 765.723C672.034 765.879 671.229 766.051 670.454 766.238C669.679 766.425 668.904 766.582 668.129 766.707C668.067 766.707 668.005 766.722 667.943 766.753C667.881 766.754 667.819 766.754 667.757 766.754C667.292 766.754 666.935 766.615 666.686 766.337C666.469 766.027 666.344 765.608 666.313 765.081C666.217 763.035 666.074 761.004 665.885 758.989C665.727 756.943 665.693 754.897 665.784 752.85C665.904 750.648 665.948 748.478 665.914 746.338C665.911 744.168 665.908 741.998 665.905 739.827C665.867 735.114 665.829 730.432 665.792 725.781C665.754 721.13 665.716 716.448 665.679 711.735C665.677 710.867 665.66 709.89 665.628 708.805C665.626 707.72 665.625 706.619 665.623 705.503C665.622 704.387 665.62 703.302 665.619 702.247C665.648 701.162 665.662 700.185 665.661 699.317C665.66 698.883 665.706 698.433 665.798 697.968C665.922 697.503 666.03 697.007 666.122 696.479C666.959 696.447 667.75 696.415 668.494 696.383C669.238 696.351 669.998 696.319 670.773 696.287C670.899 698.271 671.011 700.348 671.107 702.519C671.234 704.689 671.346 706.875 671.442 709.076C671.569 711.277 671.681 713.463 671.777 715.633C671.904 717.804 672.031 719.897 672.158 721.912ZM671.496 746.982C671.528 747.819 671.545 748.687 671.546 749.586C671.547 750.485 671.719 751.291 672.061 752.004C672.745 753.429 673.507 754.808 674.346 756.14C675.216 757.441 676.396 758.54 677.886 759.437C678.91 760.025 679.934 760.566 680.958 761.061C681.981 761.524 683.082 761.755 684.261 761.754C684.416 761.753 684.586 761.753 684.772 761.753C684.958 761.753 685.144 761.721 685.33 761.659C686.353 761.503 687.376 761.393 688.4 761.329C689.454 761.266 690.477 761.094 691.468 760.813C692.367 760.564 693.188 760.206 693.932 759.74C694.706 759.243 695.232 758.436 695.51 757.319C695.88 755.892 696.312 754.496 696.806 753.131C697.331 751.766 697.81 750.386 698.242 748.99C699.261 745.795 699.675 742.632 699.484 739.5C699.325 736.369 698.793 733.207 697.889 730.014C697.609 729.085 697.05 728.155 696.211 727.226C695.404 726.297 694.457 725.461 693.37 724.719C692.284 723.976 691.121 723.389 689.88 722.956C688.67 722.493 687.522 722.262 686.437 722.264C685.817 722.264 685.073 722.343 684.205 722.499C683.337 722.625 682.624 722.781 682.066 722.967C681.632 723.092 681.183 723.248 680.718 723.434C680.253 723.59 679.866 723.823 679.556 724.134C678.441 725.221 677.342 726.338 676.259 727.487C675.206 728.605 674.169 729.754 673.147 730.933C672.435 731.741 672.034 732.64 671.942 733.633C671.881 734.377 671.821 735.431 671.761 736.796C671.7 738.16 671.64 739.54 671.58 740.935C671.551 742.331 671.522 743.602 671.493 744.749C671.494 745.896 671.495 746.641 671.496 746.982Z" fill="#0033E6"/>
<path d="M751.932 576.059C752.179 575.469 752.675 574.833 753.418 574.15C754.161 573.436 754.966 572.768 755.833 572.147C756.701 571.494 757.506 570.935 758.25 570.469C759.024 570.003 759.535 569.707 759.783 569.583C760.775 569.085 761.798 568.836 762.852 568.834C763.844 568.833 764.914 569.079 766.062 569.574C766.589 569.79 767.024 569.991 767.365 570.177C767.706 570.362 767.955 570.594 768.11 570.873C768.297 571.121 768.406 571.431 768.437 571.803C768.469 572.175 768.454 572.671 768.393 573.291C768.331 573.726 768.239 574.144 768.116 574.548C767.992 574.951 767.884 575.37 767.792 575.804C766.365 575.186 764.938 574.878 763.512 574.88C761.682 574.882 760.039 575.303 758.583 576.142C757.158 576.982 755.935 578.069 754.914 579.403C753.923 580.707 753.166 582.197 752.641 583.872C752.116 585.547 751.84 587.206 751.811 588.849C751.755 593.252 751.637 597.624 751.457 601.966C751.278 606.276 751.144 610.632 751.058 615.036C751.028 615.749 751.137 616.493 751.386 617.268C751.666 618.042 751.931 618.895 752.181 619.824C751.592 619.98 750.972 620.167 750.321 620.385C749.701 620.603 749.05 620.728 748.368 620.76L748.043 620.761C747.019 620.762 746.29 620.531 745.856 620.066C745.452 619.571 745.265 618.734 745.294 617.555C745.351 614.269 745.424 610.997 745.512 607.741C745.601 604.455 745.674 601.152 745.731 597.834C745.731 597.586 745.746 597.338 745.776 597.09C745.807 596.842 745.822 596.594 745.822 596.346C745.879 592.78 745.936 589.261 745.993 585.788C746.05 582.284 746.107 578.749 746.164 575.183C746.163 574.656 746.147 574.145 746.115 573.649C746.114 573.153 746.052 572.672 745.927 572.207C745.74 571.494 745.755 570.967 745.971 570.626C746.188 570.284 746.621 570.02 747.272 569.833C747.737 569.709 748.125 569.615 748.435 569.553C748.776 569.49 749.07 569.459 749.318 569.458C749.845 569.457 750.202 569.659 750.389 570.061C750.575 570.464 750.778 571.208 750.997 572.293C751.028 572.417 751.059 572.649 751.091 572.99C751.153 573.3 751.2 573.641 751.232 574.014C751.294 574.385 751.341 574.742 751.373 575.083C751.404 575.393 751.42 575.626 751.42 575.781C751.513 575.842 751.591 575.889 751.653 575.92C751.746 575.951 751.839 575.997 751.932 576.059Z" fill="#0033E6"/>
<path d="M737.129 701.433C737.256 700.807 737.616 700.085 738.21 699.269C738.798 698.423 739.456 697.609 740.184 696.829C740.906 696.019 741.585 695.312 742.222 694.709C742.89 694.099 743.333 693.709 743.552 693.538C744.426 692.855 745.379 692.409 746.413 692.2C747.385 692.003 748.483 692.035 749.706 692.293C750.265 692.402 750.731 692.513 751.102 692.628C751.473 692.742 751.762 692.921 751.97 693.164C752.201 693.37 752.369 693.653 752.473 694.011C752.577 694.37 752.661 694.859 752.723 695.479C752.748 695.917 752.74 696.346 752.698 696.765C752.657 697.185 752.633 697.617 752.628 698.061C751.107 697.736 749.648 697.715 748.25 697.997C746.457 698.36 744.929 699.096 743.667 700.206C742.435 701.309 741.449 702.616 740.711 704.125C739.996 705.598 739.547 707.208 739.362 708.953C739.178 710.699 739.233 712.38 739.528 713.997C740.341 718.325 741.086 722.635 741.764 726.926C742.436 731.188 743.163 735.485 743.945 739.819C744.056 740.524 744.31 741.232 744.707 741.943C745.134 742.647 745.562 743.431 745.989 744.293C745.442 744.562 744.871 744.867 744.276 745.209C743.712 745.545 743.098 745.796 742.435 745.961L742.116 746.026C741.113 746.229 740.353 746.145 739.835 745.775C739.342 745.369 738.994 744.585 738.79 743.424C738.2 740.191 737.627 736.969 737.073 733.759C736.512 730.52 735.933 727.268 735.336 724.003C735.287 723.76 735.253 723.514 735.234 723.265C735.216 723.016 735.182 722.769 735.132 722.526C734.486 719.019 733.849 715.557 733.221 712.141C732.588 708.695 731.947 705.218 731.301 701.711C731.197 701.194 731.08 700.696 730.951 700.215C730.853 699.729 730.697 699.27 730.483 698.839C730.159 698.177 730.07 697.657 730.215 697.28C730.36 696.903 730.734 696.558 731.335 696.247C731.766 696.033 732.128 695.865 732.419 695.743C732.741 695.614 733.024 695.526 733.267 695.476C733.784 695.372 734.173 695.499 734.435 695.857C734.698 696.215 735.043 696.904 735.471 697.925C735.526 698.041 735.602 698.262 735.7 698.59C735.822 698.882 735.935 699.207 736.04 699.566C736.174 699.918 736.29 700.258 736.389 700.587C736.48 700.884 736.542 701.109 736.572 701.261C736.676 701.303 736.761 701.334 736.828 701.352C736.925 701.364 737.026 701.391 737.129 701.433Z" fill="#0033E6"/>
<path d="M793.644 607.76C793.304 608.721 793.15 609.621 793.182 610.458C793.215 611.295 793.355 612.086 793.604 612.829C793.884 613.573 794.242 614.301 794.677 615.014C795.112 615.695 795.547 616.361 795.982 617.012C796.759 618.189 797.613 619.32 798.545 620.403C799.508 621.456 800.486 622.494 801.48 623.515C802.505 624.599 803.575 625.357 804.692 625.79C805.809 626.191 807.112 626.391 808.6 626.389C810.181 626.263 811.731 626.121 813.25 625.964C814.769 625.775 816.273 625.37 817.76 624.748C818.473 624.468 819.17 624.172 819.852 623.861C820.564 623.519 821.137 622.991 821.57 622.278C821.88 621.812 822.267 621.579 822.732 621.578C822.949 621.578 823.182 621.655 823.43 621.81C823.678 621.964 823.911 622.119 824.128 622.274C824.346 622.398 824.578 622.537 824.827 622.691C825.016 625.048 824.181 626.863 822.323 628.137C819.845 629.877 817.227 631.214 814.468 632.148C811.741 633.051 808.889 633.66 805.913 633.974C805.696 634.005 805.479 634.021 805.262 634.021C805.076 634.022 804.89 634.022 804.704 634.022C802.409 634.025 800.347 633.47 798.516 632.357C796.685 631.243 795.008 629.85 793.487 628.178C791.561 626.041 790.008 623.749 788.826 621.301C787.675 618.853 786.912 616.172 786.535 613.258C786.285 611.305 786.282 609.414 786.527 607.584C786.773 605.754 787.065 603.909 787.403 602.048C787.711 600.311 788.111 598.621 788.605 596.977C789.099 595.301 789.639 593.626 790.226 591.951C790.936 589.873 792.019 588.135 793.474 586.737C794.929 585.309 796.664 584.144 798.678 583.242C799.391 582.9 800.135 582.62 800.91 582.401C801.684 582.152 802.444 581.872 803.187 581.561C805.202 580.783 807.139 580.393 808.999 580.39C811.294 580.387 813.465 580.88 815.513 581.869C817.592 582.827 819.609 584.065 821.565 585.581C821.999 585.922 822.387 586.371 822.729 586.928C823.102 587.455 823.413 587.997 823.662 588.555C824.47 590.29 825.186 592.041 825.809 593.807C826.431 595.543 826.682 597.403 826.561 599.388C826.5 600.349 826.486 601.31 826.518 602.271C826.582 603.201 826.583 604.147 826.522 605.108C826.523 605.17 826.507 605.248 826.476 605.341C826.476 605.434 826.477 605.527 826.477 605.62C826.384 606.147 826.137 606.582 825.734 606.923C825.332 607.234 824.867 607.39 824.34 607.39C824.247 607.391 824.138 607.391 824.014 607.391C823.921 607.391 823.828 607.36 823.735 607.298C822.959 607.082 822.122 606.975 821.223 606.976C820.51 606.977 819.797 607.025 819.084 607.119C818.402 607.182 817.704 607.214 816.991 607.215L816.665 607.215C814.96 607.218 813.255 607.282 811.55 607.409C809.875 607.535 808.186 607.63 806.48 607.695C805.829 607.727 805.163 607.743 804.48 607.744C803.829 607.745 803.163 607.746 802.481 607.747L796.248 607.756L793.644 607.76ZM820.147 602.559C820.328 599.148 819.719 596.328 818.321 594.097C816.953 591.836 814.858 589.963 812.034 588.478C811.103 587.953 810.188 587.582 809.288 587.366C808.389 587.15 807.505 587.043 806.637 587.044C805.025 587.047 803.475 587.374 801.987 588.028C800.531 588.65 799.106 589.458 797.712 590.452C796.721 591.136 795.931 591.943 795.343 592.874C794.786 593.774 794.369 594.751 794.092 595.806C793.814 596.861 793.661 597.962 793.631 599.109C793.602 600.256 793.604 601.434 793.636 602.644C796.148 602.423 798.628 602.249 801.077 602.121C803.527 601.963 805.976 601.882 808.425 601.878C810.379 601.876 812.332 601.935 814.286 602.056C816.24 602.146 818.193 602.314 820.147 602.559Z" fill="#0033E6"/>
<path d="M774.048 734.072C773.709 735.034 773.555 735.933 773.587 736.77C773.619 737.608 773.76 738.398 774.009 739.142C774.289 739.886 774.647 740.614 775.082 741.326C775.517 742.008 775.952 742.674 776.387 743.324C777.164 744.501 778.018 745.632 778.95 746.716C779.913 747.769 780.891 748.806 781.885 749.828C782.909 750.912 783.98 751.67 785.097 752.102C786.214 752.504 787.516 752.704 789.005 752.701C790.586 752.575 792.136 752.433 793.655 752.276C795.174 752.088 796.677 751.683 798.165 751.06C798.878 750.78 799.575 750.485 800.257 750.174C800.969 749.832 801.542 749.304 801.975 748.59C802.285 748.125 802.672 747.891 803.137 747.891C803.354 747.89 803.587 747.968 803.835 748.122C804.083 748.277 804.316 748.432 804.533 748.586C804.75 748.71 804.983 748.849 805.231 749.004C805.421 751.36 804.586 753.175 802.728 754.449C800.25 756.189 797.631 757.526 794.873 758.46C792.146 759.363 789.294 759.972 786.318 760.286C786.101 760.318 785.884 760.333 785.667 760.334C785.481 760.334 785.295 760.334 785.109 760.335C782.814 760.338 780.751 759.783 778.921 758.669C777.09 757.555 775.413 756.162 773.891 754.49C771.966 752.354 770.412 750.061 769.231 747.613C768.08 745.166 767.316 742.485 766.94 739.57C766.689 737.617 766.687 735.726 766.932 733.896C767.178 732.067 767.47 730.221 767.808 728.36C768.116 726.624 768.516 724.933 769.01 723.289C769.504 721.614 770.044 719.939 770.631 718.264C771.341 716.185 772.424 714.447 773.879 713.05C775.334 711.622 777.069 710.456 779.083 709.554C779.796 709.212 780.54 708.932 781.314 708.714C782.089 708.465 782.848 708.185 783.592 707.873C785.607 707.095 787.544 706.705 789.404 706.702C791.699 706.699 793.87 707.192 795.918 708.181C797.997 709.14 800.014 710.377 801.969 711.894C802.404 712.234 802.792 712.683 803.134 713.241C803.507 713.767 803.818 714.31 804.067 714.867C804.875 716.603 805.591 718.353 806.213 720.12C806.836 721.855 807.087 723.715 806.966 725.7C806.905 726.661 806.891 727.623 806.923 728.584C806.987 729.514 806.988 730.46 806.927 731.421C806.927 731.483 806.912 731.56 806.881 731.653C806.881 731.746 806.881 731.839 806.881 731.932C806.789 732.46 806.542 732.894 806.139 733.236C805.737 733.546 805.272 733.702 804.745 733.703C804.651 733.703 804.543 733.703 804.419 733.703C804.326 733.703 804.233 733.673 804.14 733.611C803.364 733.395 802.527 733.287 801.628 733.289C800.915 733.29 800.202 733.337 799.488 733.431C798.806 733.494 798.109 733.526 797.396 733.527L797.07 733.528C795.365 733.53 793.659 733.595 791.954 733.721C790.28 733.848 788.59 733.943 786.885 734.007C786.234 734.039 785.567 734.056 784.885 734.057C784.234 734.058 783.567 734.059 782.885 734.06L776.653 734.068L774.048 734.072ZM800.552 728.872C800.733 725.461 800.124 722.64 798.726 720.41C797.358 718.148 795.263 716.275 792.439 714.791C791.508 714.265 790.593 713.894 789.693 713.679C788.794 713.463 787.91 713.356 787.042 713.357C785.429 713.359 783.88 713.687 782.392 714.34C780.936 714.962 779.511 715.77 778.117 716.765C777.125 717.448 776.336 718.256 775.748 719.187C775.191 720.087 774.774 721.064 774.497 722.118C774.219 723.173 774.066 724.274 774.036 725.421C774.007 726.569 774.008 727.747 774.041 728.956C776.552 728.735 779.033 728.561 781.482 728.434C783.931 728.275 786.381 728.194 788.83 728.191C790.784 728.188 792.737 728.247 794.691 728.369C796.644 728.459 798.598 728.627 800.552 728.872Z" fill="#0033E6"/>
<path d="M862.681 754.805C862.464 754.806 862.247 754.79 862.03 754.76C861.844 754.698 861.673 754.667 861.518 754.667C861.394 754.668 861.301 754.683 861.239 754.714C860.588 754.901 859.999 754.995 859.472 754.996C858.697 754.997 858.045 754.781 857.518 754.347C856.99 753.883 856.601 753.155 856.352 752.163C856.321 752.101 856.259 752.055 856.166 752.024C856.104 751.962 856.073 751.947 856.073 751.978C854.43 752.569 852.834 753.207 851.285 753.891C849.735 754.576 848.139 755.058 846.496 755.34C844.636 755.715 842.807 755.903 841.009 755.906C838.373 755.91 835.877 755.448 833.519 754.521C831.161 753.594 829.004 752.016 827.047 749.786C825.929 748.517 825.074 747.045 824.483 745.372C823.922 743.698 823.687 741.977 823.778 740.21C823.868 738.442 824.316 736.721 825.119 735.045C825.923 733.37 827.161 731.88 828.834 730.575C830.723 729.115 832.613 728.074 834.504 727.451C836.425 726.828 838.58 726.515 840.967 726.512C843.107 726.602 845.231 726.692 847.339 726.782C849.448 726.872 851.572 726.962 853.712 727.052C853.898 727.051 854.084 727.035 854.27 727.004C854.456 726.973 854.719 726.942 855.06 726.91C855.119 724.926 855.055 722.988 854.866 721.097C854.677 719.205 854.147 717.361 853.277 715.564C853.059 715.13 852.764 714.712 852.391 714.31C852.019 713.907 851.615 713.598 851.181 713.381C849.753 712.732 848.311 712.176 846.853 711.713C845.426 711.219 843.906 710.973 842.294 710.975C839.441 710.979 837.086 711.68 835.227 713.078C833.4 714.476 832.023 716.525 831.097 719.224C831.066 719.286 830.926 719.472 830.679 719.782C829.717 719.722 828.725 719.677 827.702 719.647C826.679 719.586 825.593 719.526 824.446 719.466C824.692 717.791 825.077 716.271 825.602 714.906C826.127 713.541 826.947 712.315 828.062 711.228C828.124 711.166 828.434 710.794 828.991 710.111C829.579 709.428 830.43 708.667 831.545 707.828C832.691 706.958 834.101 706.15 835.774 705.403C837.448 704.626 839.4 704.158 841.633 704C843.183 703.998 844.702 704.104 846.191 704.319C847.68 704.534 849.122 704.888 850.518 705.382C851.914 705.877 853.248 706.541 854.521 707.377C855.793 708.181 856.988 709.187 858.106 710.395C859.007 711.324 859.675 712.609 860.112 714.252C860.579 715.895 860.923 717.817 861.143 720.018C861.363 722.188 861.506 724.591 861.572 727.226C861.638 729.862 861.688 732.652 861.723 735.598C861.79 738.512 861.902 741.52 862.062 744.62C862.221 747.721 862.505 750.837 862.912 753.968C862.913 754.061 862.882 754.169 862.82 754.293C862.789 754.386 862.743 754.557 862.681 754.805ZM855.253 731.979C854.075 731.919 852.974 731.859 851.951 731.798C850.959 731.737 849.966 731.677 848.974 731.616C847.672 731.556 846.385 731.496 845.113 731.436C843.873 731.344 842.617 731.284 841.346 731.255C838.772 731.259 836.68 731.928 835.07 733.264C833.459 734.599 832.191 736.384 831.264 738.618C830.862 739.611 830.646 740.603 830.617 741.596C830.587 742.588 830.744 743.533 831.086 744.432C831.428 745.3 831.941 746.105 832.624 746.848C833.307 747.56 834.145 748.133 835.138 748.566C835.697 748.844 836.41 749.106 837.279 749.353C838.147 749.569 839.047 749.769 839.977 749.954C840.939 750.139 841.869 750.292 842.769 750.415C843.668 750.507 844.443 750.552 845.094 750.551C846.924 750.549 848.644 750.252 850.256 749.66C851.867 749.069 853.168 748.059 854.158 746.632C854.56 746.011 854.838 745.328 854.992 744.584C855.177 743.809 855.285 743.002 855.314 742.165C855.375 741.328 855.405 740.506 855.404 739.7C855.403 738.863 855.433 738.072 855.494 737.328C855.554 736.428 855.538 735.545 855.443 734.677C855.38 733.778 855.317 732.878 855.253 731.979Z" fill="#0033E6"/>
<path d="M925.14 706.12C925.37 703.618 925.577 701.301 925.764 699.169C925.984 697.01 926.188 694.864 926.374 692.732C926.495 691.154 926.601 689.574 926.692 687.993C926.814 686.415 926.935 684.837 927.057 683.259C927.098 682.639 927.154 682.162 927.224 681.827C927.294 681.492 927.403 681.224 927.552 681.022C927.731 680.825 927.964 680.696 928.252 680.636C928.575 680.548 928.99 680.472 929.497 680.406C930.353 680.288 931.136 680.27 931.844 680.352C932.953 680.481 933.664 680.939 933.979 681.725C934.324 682.514 934.409 683.789 934.235 685.548C933.901 688.412 933.6 691.264 933.331 694.105C933.097 696.918 932.706 699.729 932.16 702.537C931.924 703.758 931.75 704.987 931.637 706.222C931.524 707.458 931.411 708.693 931.299 709.929C931.22 711.137 931.109 712.357 930.965 713.589C930.825 714.79 930.622 716 930.355 717.217C929.877 719.44 929.43 721.667 929.014 723.897C928.598 726.128 928.226 728.379 927.899 730.651C927.561 733.015 927.302 735.373 927.121 737.724C926.944 740.045 926.748 742.394 926.533 744.773L925.844 750.686C925.786 751.179 925.606 751.517 925.304 751.7C925.032 751.887 924.693 751.988 924.285 752.003C923.662 751.993 923.027 751.95 922.381 751.874C921.765 751.803 921.068 751.753 920.291 751.724C920.33 750.855 920.379 750.033 920.438 749.26C920.5 748.455 920.551 747.618 920.59 746.749C920.326 746.874 920.079 746.986 919.849 747.084C919.65 747.186 919.449 747.303 919.246 747.435C917.273 748.828 915.218 749.853 913.081 750.509C910.941 751.196 908.716 751.405 906.406 751.135C904.435 750.906 902.549 750.342 900.75 749.446C898.95 748.549 897.333 747.424 895.899 746.071C895.507 745.682 895.169 745.236 894.884 744.735C894.633 744.206 894.333 743.703 893.983 743.225C892.365 741.038 891.071 738.749 890.101 736.357C889.132 733.965 888.786 731.303 889.066 728.37C889.306 725.776 889.573 723.216 889.868 720.691C890.162 718.165 890.763 715.691 891.67 713.268C892.298 711.625 893.138 709.912 894.189 708.13C895.239 706.348 896.474 704.729 897.893 703.271C899.311 701.813 900.884 700.638 902.611 699.747C904.342 698.825 906.2 698.418 908.186 698.524C909.178 698.578 910.152 698.66 911.107 698.771C912.062 698.883 913.032 698.996 914.017 699.111C916.296 699.376 918.337 700.083 920.138 701.229C921.944 702.345 923.611 703.975 925.14 706.12ZM924.059 719.808C924.211 719.045 924.235 718.299 924.133 717.569C924.062 716.842 923.925 716.14 923.723 715.461C923.522 714.781 923.287 714.114 923.02 713.459C922.757 712.772 922.494 712.086 922.23 711.4C921.596 709.609 920.565 708.412 919.137 707.808C916.258 706.536 913.278 705.72 910.198 705.361C909.551 705.286 908.885 705.239 908.201 705.222C907.55 705.177 906.883 705.146 906.198 705.129C904.667 705.138 903.398 705.848 902.391 707.26C901.828 708.069 901.223 708.841 900.575 709.577C899.931 710.283 899.328 711.039 898.765 711.848C898.283 712.51 897.811 713.204 897.352 713.931C896.927 714.63 896.591 715.372 896.344 716.154C895.388 719.258 894.808 722.359 894.603 725.457C894.429 728.558 894.609 731.701 895.143 734.885C895.447 736.825 896.044 738.533 896.933 740.01C897.826 741.457 898.987 742.747 900.415 743.881C901.62 744.521 902.885 744.919 904.209 745.073C905.934 745.274 907.637 745.129 909.317 744.638C911.032 744.12 912.554 743.517 913.883 742.83C915.243 742.145 916.349 741.494 917.201 740.875C918.085 740.26 918.561 739.926 918.629 739.871C919.413 739.307 920.047 738.694 920.53 738.032C921.016 737.34 921.398 736.604 921.677 735.825C921.958 735.015 922.165 734.181 922.296 733.322C922.428 732.463 922.563 731.574 922.701 730.653C922.85 729.64 922.975 728.703 923.076 727.841C923.207 726.982 923.321 726.137 923.418 725.305C923.515 724.474 923.616 723.611 923.72 722.718C923.824 721.825 923.937 720.855 924.059 719.808Z" fill="#0033E6"/>
<path d="M881.559 559.651C881.559 559.154 881.542 558.705 881.511 558.302C881.479 557.868 881.494 557.449 881.556 557.046C881.678 556.054 882.018 555.247 882.575 554.626C883.133 554.005 883.861 553.647 884.76 553.553C884.884 553.522 884.992 553.506 885.085 553.506C885.209 553.506 885.318 553.506 885.411 553.506C886.062 553.505 886.574 553.675 886.946 554.015C887.35 554.325 887.645 554.867 887.832 555.642C888.394 557.966 888.738 560.307 888.866 562.663C889.024 565.02 888.996 567.376 888.783 569.733C888.63 571.314 888.493 572.865 888.371 574.385C888.28 575.904 888.267 577.454 888.331 579.036C888.459 582.198 888.541 585.33 888.577 588.43C888.612 591.531 888.648 594.662 888.683 597.825C888.715 598.445 888.685 599.065 888.593 599.686C888.501 600.275 888.393 600.88 888.27 601.5C888.116 602.616 887.947 603.717 887.763 604.803C887.578 605.888 887.565 607.02 887.721 608.198C887.816 609.097 887.739 610.012 887.493 610.943C887.246 611.873 886.968 612.788 886.659 613.688C886.412 614.401 886.088 615.084 885.686 615.736C885.314 616.418 884.928 617.07 884.526 617.691C883.629 619.18 882.576 620.438 881.368 621.463C880.161 622.488 878.642 623.094 876.813 623.283C875.325 623.409 873.837 623.566 872.349 623.754C870.892 623.974 869.419 624.084 867.931 624.086C866.721 624.088 865.481 623.981 864.209 623.766C862.969 623.551 861.759 623.211 860.58 622.748C859.401 622.316 858.284 621.759 857.229 621.078C856.174 620.429 855.227 619.655 854.389 618.757C853.861 618.231 853.302 617.704 852.712 617.178C852.153 616.683 851.532 616.125 850.849 615.506C851.159 614.948 851.437 614.389 851.684 613.831C851.962 613.272 852.287 612.776 852.659 612.341C853.432 611.379 854.16 610.897 854.843 610.896C855.184 610.896 855.54 611.004 855.913 611.22C856.285 611.437 856.689 611.762 857.123 612.195C858.986 614.022 861.019 615.414 863.222 616.372C865.456 617.33 867.891 617.807 870.526 617.804C872.759 617.801 874.572 617.302 875.966 616.308C877.391 615.344 878.458 613.793 879.168 611.652C879.879 609.574 880.449 607.48 880.88 605.371C881.311 603.293 881.603 601.137 881.755 598.905C880.205 599.62 878.718 600.304 877.293 600.957C875.898 601.611 874.488 602.248 873.063 602.87C870.925 603.773 868.864 604.225 866.879 604.228C864.585 604.231 862.274 603.63 859.947 602.424C856.813 600.754 854.406 598.587 852.728 595.923C851.081 593.228 849.914 590.222 849.227 586.905C848.665 584.146 848.475 581.418 848.657 578.72C848.84 576.022 849.316 573.308 850.088 570.579C850.304 569.803 850.504 569.028 850.689 568.252C850.874 567.477 851.074 566.701 851.29 565.926C852.092 562.824 853.468 560.326 855.419 558.432C857.37 556.507 859.864 555.092 862.901 554.189C863.614 553.94 864.311 553.768 864.993 553.674C865.706 553.58 866.419 553.533 867.133 553.532C869.458 553.528 871.691 554.13 873.833 555.336C875.074 556.048 876.315 556.743 877.556 557.424C878.829 558.104 880.163 558.846 881.559 559.651ZM882.192 579.091C882.127 577.262 882.093 575.463 882.091 573.696C882.088 571.897 882.086 570.084 882.083 568.254C882.083 568.006 882.098 567.743 882.129 567.463C882.159 567.184 882.097 566.998 881.942 566.906C881.383 566.41 880.855 565.884 880.358 565.326C879.861 564.769 879.349 564.212 878.821 563.654C878.324 563.097 877.781 562.571 877.191 562.075C876.632 561.58 875.996 561.162 875.282 560.822C874.165 560.297 873.017 559.988 871.839 559.897C870.692 559.775 869.544 559.621 868.397 559.437C868.149 559.406 867.901 559.391 867.652 559.391C867.435 559.361 867.203 559.345 866.955 559.346C864.66 559.349 862.786 560.282 861.331 562.144C860.991 562.579 860.681 563.06 860.403 563.588C860.156 564.084 859.831 564.534 859.428 564.938C858.468 565.962 857.695 567.064 857.107 568.243C856.551 569.422 856.119 570.632 855.81 571.873C855.502 573.114 855.302 574.385 855.211 575.688C855.12 576.959 855.075 578.23 855.077 579.502C855.081 582.23 855.503 584.881 856.344 587.453C857.216 589.994 858.305 592.473 859.61 594.89C859.797 595.231 860.03 595.587 860.309 595.959C860.62 596.299 860.961 596.547 861.334 596.701C862.885 597.443 864.374 598.015 865.801 598.416C867.259 598.786 868.856 598.97 870.592 598.967C871.523 598.904 872.406 598.747 873.243 598.498C874.111 598.249 874.901 597.814 875.613 597.193C876.511 596.447 877.409 595.702 878.307 594.956C879.237 594.18 880.135 593.388 881.002 592.58C881.311 592.301 881.574 591.944 881.791 591.51C882.007 591.044 882.131 590.61 882.161 590.207C882.22 588.346 882.233 586.501 882.2 584.672C882.197 582.812 882.194 580.951 882.192 579.091Z" fill="#0033E6"/>
<path d="M916.877 543.382C916.816 544.282 916.756 545.119 916.695 545.894C916.634 546.669 916.604 547.429 916.605 548.173C916.516 551.057 915.884 553.802 914.71 556.408C913.566 558.983 912.205 561.435 910.627 563.763C910.193 563.515 909.758 563.299 909.324 563.113C908.89 562.897 908.502 562.634 908.16 562.324C907.539 561.798 907.197 561.287 907.135 560.791C907.103 560.264 907.366 559.674 907.923 559.022C908.913 557.874 909.547 556.617 909.824 555.252C910.133 553.888 910.332 552.492 910.423 551.066C910.514 549.794 910.544 548.523 910.511 547.252C910.478 545.98 910.461 544.678 910.459 543.345C911.11 543.189 911.729 543.049 912.318 542.924C912.938 542.799 913.543 542.736 914.132 542.735C915.124 542.734 916.039 542.949 916.877 543.382ZM921.515 599.467C922.197 599.249 922.91 599.031 923.653 598.813C924.397 598.563 925.188 598.299 926.024 598.018C926.304 598.669 926.569 599.242 926.817 599.738C927.097 600.234 927.268 600.73 927.331 601.226C927.426 602.156 927.644 602.977 927.986 603.69C928.359 604.372 928.809 604.975 929.337 605.502C929.896 606.028 930.501 606.508 931.153 606.941C931.805 607.343 932.488 607.714 933.201 608.054C934.38 608.642 935.575 609.09 936.784 609.398C938.025 609.706 939.266 609.86 940.506 609.858C942.862 609.855 944.97 609.309 946.829 608.221C948.719 607.133 950.22 605.534 951.333 603.424C951.859 602.493 952.106 601.532 952.074 600.539C952.041 599.547 951.699 598.587 951.046 597.657C950.394 596.759 949.695 595.923 948.95 595.149C948.204 594.344 947.289 593.725 946.203 593.292C944.807 592.767 943.411 592.273 942.015 591.81C940.65 591.316 939.269 590.853 937.874 590.42C936.416 589.957 934.958 589.541 933.5 589.171C932.042 588.801 930.615 588.307 929.219 587.689C928.288 587.287 927.388 586.761 926.519 586.111C925.681 585.461 924.905 584.765 924.191 584.022C923.601 583.433 923.165 582.736 922.885 581.93C922.636 581.094 922.619 580.194 922.835 579.233C922.958 578.706 923.019 578.178 923.019 577.651C923.018 577.124 923.048 576.597 923.109 576.07C923.231 574.178 923.725 572.503 924.591 571.045C925.488 569.586 926.602 568.344 927.934 567.319C929.297 566.294 930.815 565.486 932.489 564.894C934.162 564.303 935.867 563.944 937.603 563.817C937.913 563.755 938.223 563.723 938.533 563.723C938.843 563.722 939.153 563.722 939.463 563.721C940.859 563.719 942.239 563.826 943.603 564.041C944.968 564.225 946.348 564.409 947.743 564.593C949.015 564.778 950.271 565.241 951.513 565.983C952.785 566.695 953.902 567.577 954.865 568.63C955.859 569.651 956.636 570.813 957.196 572.115C957.787 573.385 958.037 574.702 957.945 576.067C957.915 576.346 957.884 576.641 957.854 576.951C957.854 577.23 957.792 577.493 957.669 577.742C957.576 577.959 957.421 578.16 957.205 578.347C957.019 578.502 956.724 578.596 956.321 578.627C955.732 578.69 955.236 578.753 954.833 578.815C954.43 578.847 954.058 578.863 953.717 578.863C953.128 578.864 952.678 578.756 952.368 578.54C952.057 578.292 951.762 577.827 951.482 577.146C951.171 576.402 950.86 575.658 950.549 574.915C950.269 574.14 949.942 573.396 949.569 572.683C949.165 571.909 948.73 571.289 948.264 570.825C947.798 570.361 947.271 570.005 946.681 569.757C946.123 569.51 945.502 569.356 944.82 569.295C944.169 569.203 943.455 569.157 942.68 569.159C939.239 569.163 935.937 569.866 932.777 571.266C931.94 571.639 931.197 572.152 930.546 572.804C929.896 573.425 929.37 574.139 928.968 574.945C928.597 575.721 928.366 576.528 928.274 577.365C928.182 578.202 928.276 579.008 928.556 579.783C928.712 580.217 928.961 580.651 929.302 581.084C929.675 581.518 930.063 581.843 930.467 582.059C931.397 582.523 932.344 582.956 933.306 583.357C934.298 583.728 935.306 584.037 936.33 584.283C938.47 584.838 940.61 585.362 942.751 585.856C944.922 586.349 947.108 586.811 949.31 587.241C950.923 587.58 952.273 588.198 953.359 589.096C954.446 589.994 955.331 591.14 956.015 592.534C956.637 593.804 957.166 595.09 957.602 596.392C958.038 597.694 958.428 599.027 958.771 600.39C959.114 601.754 959.038 603.041 958.544 604.251C958.049 605.43 957.462 606.594 956.781 607.742C955.853 609.324 954.801 610.613 953.624 611.607C952.447 612.6 951.162 613.393 949.767 613.984C948.404 614.544 946.931 614.934 945.35 615.153C943.769 615.372 942.126 615.483 940.421 615.486C938.219 615.489 936.11 615.182 934.094 614.565C932.078 613.978 930.092 613.206 928.138 612.248C925.903 611.134 924.18 609.432 922.968 607.139C921.786 604.846 921.302 602.289 921.515 599.467Z" fill="#0033E6"/>
<path d="M109.619 214.967C109.619 219.069 108.934 223.896 109.824 227.902C111.611 235.943 126.993 241.475 133.641 243.506C155.336 250.135 180.902 257.252 203.859 253.361C233.258 248.378 259.876 231.221 287.73 221.435C293.39 219.446 298.145 215.844 303.642 213.53C309.864 210.91 319.048 210.777 325.816 209.424" stroke="#0033E6" stroke-width="4" stroke-linecap="round"/>
<path d="M788.689 534.644C788.689 478.616 786.655 422.446 783.967 366.49C782.691 339.932 780.947 313.319 777.602 286.93C776.084 274.952 774.584 261.764 769.8 250.487C758.448 223.728 718.766 226.275 694.552 228.005C666.59 230.002 668 228.005 641.5 241.5" stroke="#0033E6" stroke-width="4" stroke-linecap="round"/>
</svg>
