<svg width="51" height="52" viewbox="0 0 51 52" fill="none" xmlns="http://www.w3.org/2000/svg">
  <path d="M30.4251 6.6878C23.0876 6.6878 -1.95033 11.2847 4.51772 29.8321C10.9411 48.2514 21.1388 48.8046 34.0123 47.8332C45.4478 46.9702 54.2577 28.4464 40.2899 19.5457C32.053 14.2969 32.2396 4.11621 21.4572 4.11621" stroke="white" stroke-width="6.77938" stroke-linecap="round"/>
  <path d="M15.7441 17.4124C19.8465 17.4124 24.282 17.0059 28.3268 17.7963C30.2757 18.1771 28.0639 19.4813 27.3361 20.0131C24.458 22.116 21.2975 23.8127 18.4192 25.9082C17.2221 26.7797 18.9222 26.7439 19.4719 27.1218C20.0885 27.5457 16.1411 29.9553 15.7937 30.3666C15.5074 30.7054 20.7429 31.8414 21.3048 32.0137C24.0104 32.8435 20.5956 34.3483 20.2769 35.791C19.8688 37.6381 39.701 38.0762 41.4669 38.1565C42.7546 38.215 46.0536 37.983 45.2442 38.9862C44.273 40.19 42.4142 41.0539 41.1572 41.9338" stroke="white" stroke-width="3" stroke-linecap="round"/>
</svg>