<svg width="51" height="52" viewbox="0 0 51 52" fill="none" xmlns="http://www.w3.org/2000/svg">
  <path d="M21.7292 5.17858C17.7344 1.906 13.5204 7.02176 10.3115 9.3877C5.11033 13.2225 3.46094 17.2191 3.46094 23.4181C3.46094 38.5885 15.9003 51.6107 32.3856 47.2698C37.6455 45.8847 44.637 43.9241 46.4251 39.1633C48.9627 32.4069 46.3518 24.3826 43.8032 17.8059C40.2474 8.62993 30.0682 6.58162 20.2068 6.58162" stroke="white" stroke-width="6.77938" stroke-linecap="round"/>
  <path d="M14.2253 14.0686C17.7706 14.0686 21.2766 13.8457 24.8141 13.8457C24.9288 13.8457 25.3466 13.7776 25.3466 13.9696C25.3466 14.899 18.9011 15.9913 18.3122 16.1492C16.1225 16.7366 13.941 17.4407 11.6989 17.8088C11.0718 17.9117 10.7372 18.1136 10.2003 18.4156C10.0156 18.5195 9.20575 18.6852 9.13526 18.8615C8.98285 19.2425 9.95097 18.9767 10.3613 18.9729C14.1921 18.9376 18.0139 18.6211 21.8294 18.3041C27.1837 17.8594 32.5995 17.0011 37.9789 16.9666C38.0403 16.9662 39.2794 16.87 38.6105 17.2267C37.3987 17.873 35.9504 18.1794 34.6351 18.5023C27.5737 20.2359 20.4766 21.7626 13.507 23.8277C13.269 23.8982 12.5157 23.8772 12.7639 23.8772C16.6698 23.8772 20.6027 23.4789 24.5045 23.3199C30.2068 23.0875 35.9058 22.7896 41.6076 22.5521C45.4842 22.3905 34.0829 24.4558 30.2881 25.2643C25.7676 26.2273 21.2553 27.1927 16.7765 28.3356C16.2534 28.4691 14.6774 28.8039 15.2161 28.7691C20.9904 28.3966 26.7468 27.7911 32.5297 27.543C33.9883 27.4805 35.733 27.278 37.211 27.4687C37.8239 27.5478 36.088 27.9909 35.502 28.187C32.7347 29.113 29.9296 29.8234 27.0805 30.4534C23.1351 31.3258 18.8579 31.7631 15.0427 33.1408C12.5694 34.034 20.3037 33.2352 22.9317 33.1408C23.7035 33.1131 24.4754 33.0843 25.2476 33.0665C25.9246 33.051 26.9265 32.5376 27.2786 33.1161C27.3135 33.1734 22.0894 34.9183 21.8294 34.9985C21.2853 35.1664 20.7396 35.3289 20.1947 35.4939C19.7373 35.6324 18.5272 35.6197 18.8448 35.9769C19.2197 36.3988 23.2764 35.7239 23.3403 35.7168C26.5282 35.3634 29.7034 34.9018 32.8888 34.5279C33.9757 34.4003 35.0683 34.1338 36.1584 34.2307C36.5223 34.263 35.5727 34.6872 35.2295 34.8128C30.8683 36.4083 26.2807 37.037 21.8418 38.3052C21.0174 38.5408 23.5512 38.1686 24.4054 38.0947C27.0035 37.8699 29.6471 37.5396 32.2572 37.525C32.4774 37.5237 32.7686 37.4336 32.9136 37.5993C33.3699 38.1207 31.732 38.3345 31.0931 38.6024C28.4083 39.7283 25.652 40.6826 22.8945 41.6119C21.3672 42.1266 18.9452 42.5151 17.5196 43.3829C17.0892 43.6449 18.529 43.3827 19.0305 43.3333C20.6069 43.1781 21.6991 43.0516 23.2908 42.8256C23.7052 42.7667 28.3059 41.5903 25.6934 42.8132C25.1506 43.0673 24.0493 43.2714 25.1485 43.2714" stroke="white" stroke-width="3" stroke-linecap="round"/>
</svg>