<svg width="51" height="52" viewbox="0 0 51 52" fill="none" xmlns="http://www.w3.org/2000/svg">
  <path d="M30.5283 4.21831C19.4766 4.21831 12.4021 2.62373 7.52304 12.0382C2.20602 22.2977 0.0946804 37.5517 14.0378 44.0909C21.3598 47.5249 35.4177 50.1374 42.9471 45.9814C50.1326 42.0153 47.0319 32.5746 45.1865 26.7326C42.909 19.5228 34.1929 14.7388 34.1929 7.31187" stroke="white" stroke-width="6.77938" stroke-linecap="round"/>
  <path d="M22.7383 12.508C20.9941 12.2397 19.5613 11.4017 17.7102 11.8145C16.4335 12.0992 14.7248 12.6624 15.2085 14.2171C16.2819 17.6673 20.6225 14.7979 22.1191 13.2016C22.3237 12.9833 22.9807 12.2129 22.4163 11.9383C21.4247 11.4559 20.0868 12.6561 19.5555 13.3006C17.1532 16.2149 18.1893 20.065 22.0448 20.88C24.5988 21.4199 27.429 21.0929 29.9214 20.4094C30.422 20.2721 33.1165 19.2423 31.1722 18.7622C28.2763 18.0472 24.7622 18.2853 21.9457 19.1833C19.4234 19.9875 15.9338 22.1855 16.5213 25.3384C16.7745 26.6972 18.2792 28.7096 19.2459 26.6883C19.6658 25.8104 17.9287 26.5696 17.834 26.614C16.1362 27.4118 14.5257 29.2454 15.0351 31.283C16.2329 36.0743 25.7986 29.2311 24.6208 27.5924C23.8457 26.5141 20.9564 27.5229 20.1623 27.8896C18.0984 28.8429 15.509 31.5096 17.3634 33.8466C19.0757 36.0046 22.6488 36.6067 25.2028 36.757C26.8224 36.8523 30.7703 36.8692 31.6304 34.8993C31.963 34.1375 28.7244 33.0473 29.7356 35.8281C30.0782 36.7702 30.8158 37.656 31.8534 37.8221C32.6188 37.9445 33.8151 37.3465 33.1909 36.4102C31.4994 33.873 27.4352 37.5256 29.265 40.1627C30.3116 41.6711 32.9452 41.2582 34.5532 41.4879" stroke="white" stroke-width="3" stroke-linecap="round"/>
</svg>