<svg width="51" height="52" viewbox="0 0 51 52" fill="none" xmlns="http://www.w3.org/2000/svg">
  <path d="M41.1803 4.11621C24.7151 4.11621 8.92546 5.06947 4.26766 22.3735C1.42889 32.9197 6.1318 43.0671 17.5911 46.108C34.1139 50.4925 50.5355 48.7096 46.9683 30.4878C45.3715 22.331 38.0561 18.021 33.3172 11.4191" stroke="white" stroke-width="6.77938" stroke-linecap="round"/>
  <path d="M17.8749 15.6292C17.4442 15.8332 14.665 16.7438 15.5466 16.7438C18.2157 16.7438 20.8822 16.6085 23.5471 16.4713C25.0771 16.3925 27.3676 16.263 28.9467 16.1741C29.5202 16.1418 31.1167 15.741 30.6682 16.0998C29.7969 16.7968 28.2115 17.1717 27.25 17.5116C23.2821 18.9146 19.3402 20.3424 15.4476 21.9453C14.1962 22.4605 12.4899 23.0354 14.8531 22.9732C16.6701 22.9254 18.6446 22.5513 20.4509 22.8122C21.5003 22.9638 18.7575 24.1143 17.8006 24.5708C17.6636 24.6362 15.0425 25.8362 14.6797 26.1313C13.7037 26.9249 17.2017 26.0654 18.4446 25.8712C20.2176 25.5941 21.5639 25.3858 23.3365 25.1529C24.3804 25.0157 26.0495 24.6143 27.1633 24.8185C27.3235 24.8479 27.0528 25.1518 26.9157 25.2396C25.6658 26.0395 24.2379 26.6432 22.8907 27.2459C21.3896 27.9174 20.4841 28.2844 18.9772 28.9178C18.5268 29.107 16.8887 29.5944 16.4136 30.0695C15.8572 30.6259 17.9895 30.0065 18.7666 29.8838C19.4381 29.7778 19.7763 29.7113 20.4138 29.5865C20.6464 29.541 21.2131 29.2819 21.1197 29.4999C20.765 30.3275 18.8186 31.15 18.0979 31.6052C17.7665 31.8145 16.6821 32.2925 17.7015 32.3359C19.7109 32.4214 21.669 32.0757 23.6461 31.7786C26.7662 31.3098 24.2165 32.7747 25.2066 32.7941C25.5907 32.8017 28.2358 32.5419 27.3491 33.3019C26.0941 34.3777 24.5367 35.0957 23.1012 35.8903C21.9275 36.54 22.7975 36.2603 23.5223 36.1132C25.4245 35.7272 27.3561 35.5075 29.2811 35.2711C29.8746 35.1982 32.3704 34.5935 30.8292 35.7664C29.444 36.8206 27.8906 37.6544 26.3831 38.5158C26.2184 38.6099 27.989 38.3895 28.2036 38.3672C29.338 38.2493 34.8224 37.387 32.0924 39.5561C31.1844 40.2776 30.6784 40.5964 32.1419 40.5964" stroke="white" stroke-width="3" stroke-linecap="round"/>
</svg>