<svg width="325" height="454" viewbox="0 0 325 454" fill="none" xmlns="http://www.w3.org/2000/svg">
  <rect x="1.17188" y="2" width="322" height="450" rx="12" fill="#FFF6EA"/>
  <rect x="1.17188" y="2" width="322" height="450" rx="12" stroke="#0033E6" stroke-width="2.32015"/>
  <path d="M99.3833 143.341C100.043 142.078 101.235 138.843 102.586 138.248C104.864 135.167 111.456 131.797 113.193 130.38C115.997 128.092 117.934 124.185 121.005 122.164C123.427 120.569 125.617 118.782 128.403 117.73C132.333 116.247 136.43 115.467 140.421 114.298C141.141 114.087 145.773 112.922 146.15 113.924C146.645 115.243 146.668 116.662 146.166 118.007C145.888 118.75 145.351 120.474 145.088 121.314C145.639 119.96 147.396 118.86 148.109 117.654C149.122 115.942 152.097 114.585 153.722 113.761C155.963 112.626 158.304 111.668 160.521 110.503C163.379 109.002 180.525 102.433 181.043 108.493C181.213 110.482 181.414 109.483 182.687 108.51C184.03 107.484 185.689 106.879 186.934 105.678C190.24 102.488 194.004 99.2736 198.506 97.8621C202.857 96.4979 207.245 95.6645 211.584 94.4724C215.247 93.4658 218.778 94.1827 222.389 95.1724C229.489 97.1181 237.014 98.7317 239.459 106.528C240.551 110.012 241.01 113.742 242.11 117.251C242.524 118.573 242.856 119.873 243.579 121.056C243.838 121.479 244.914 124.135 244.957 122.678C244.978 121.969 245.154 121.513 245.371 120.849C246.305 117.996 249.931 120.653 250.543 122.605C252.389 128.493 254.529 134.572 255.78 140.693C257.051 146.91 258.731 153.251 260.632 159.316C261.479 162.016 262.23 163.1 264.156 164.886C264.604 165.302 265.078 165.05 264.347 165.557C263.279 166.298 261.899 166.753 260.983 167.678C259.357 169.322 257.163 170.554 255.397 172.096C253.871 173.428 251.378 174.486 249.503 175.282L249.451 175.304C245.88 176.819 242.095 177.844 238.484 179.256C236.175 180.159 233.157 181.917 230.61 181.982C226.066 182.098 221.088 184.929 216.481 185.8C206.229 187.737 196.017 190.658 185.61 191.648C178.438 192.33 171.218 192.168 164.02 192.394C158.086 192.581 152.247 193.697 146.43 194.809C141.051 195.838 135.676 196.865 130.294 197.894C126.523 198.615 122.886 199.983 119.067 200.447C116.243 200.789 113.765 201.194 111.245 199.877C109.291 198.856 107.693 196.326 107.018 194.33C106.492 192.778 105.8 191.07 105.758 189.432C105.724 188.085 105.855 186.088 105.454 184.808C104.717 182.458 103.268 181.238 102.504 178.8C101.626 176.001 101.091 173.161 100.211 170.355C99.5512 168.251 98.5772 166.279 97.9308 164.217C97.2686 162.105 94.5143 161.257 93.8439 159.12C92.7445 155.613 93.0292 153.428 94.756 150.124C96.0267 147.692 98.1128 145.772 99.3833 143.341Z" fill="#0033E6" stroke="#FFEED8" stroke-width="1.13429" stroke-linecap="round"/>
  <path d="M108.134 180.402C111.206 177.324 114.816 174.257 115.754 169.827C116.303 167.24 116.293 164.722 116.399 162.107C116.482 160.027 116.732 158.083 117.687 156.204C118.752 154.107 119.99 152.147 120.929 149.98C121.746 148.095 122.629 146.239 123.475 144.367C124.447 142.214 125.118 139.92 126.273 137.864C126.577 137.323 126.914 136.817 127.36 136.387C129.096 134.712 131.025 133.205 132.849 131.623C134.084 130.552 135.407 129.588 136.671 128.552C137.446 127.917 138.109 127.143 138.809 126.428C139.405 125.818 139.404 125.295 139.6 124.551C139.652 124.354 139.757 123.421 139.487 123.316C139.266 123.23 138.946 123.302 138.705 123.308C137.579 123.337 136.48 123.653 135.406 123.964C133.525 124.509 131.661 125.126 129.826 125.814C127.994 126.501 126.383 127.554 124.823 128.715C123.415 129.763 122.235 131.218 121.226 132.642C120.448 133.74 119.66 134.835 119.089 136.059C118.521 137.279 117.906 138.705 118.026 140.085C118.222 142.318 118.481 144.593 118.415 146.837C118.351 149.017 117.937 151.177 117.852 153.357C117.814 154.316 117.263 155.534 117.55 156.447" stroke="#FFEED8" stroke-width="1.02303" stroke-linecap="round"/>
  <path d="M134.913 159.076C137.043 155.943 139.874 153.317 142.349 150.466C144.227 148.302 145.94 146.144 147.371 143.658C148.49 141.714 149.286 139.635 150.202 137.594C151.85 133.92 154.133 130.726 156.83 127.753C159.219 125.118 161.942 122.87 164.642 120.566C166.513 118.97 168.17 117.158 170.042 115.56C170.798 114.915 171.605 114.285 172.271 113.546C172.542 113.247 172.89 112.828 172.84 112.388C172.725 111.38 171.841 111.319 170.956 111.255C167.788 111.025 164.612 112.166 161.673 113.208C159.196 114.086 156.878 115.309 154.77 116.879C152.359 118.674 150.26 121.005 148.397 123.353C146.164 126.167 143.963 129.297 142.539 132.608C141.787 134.359 141.374 136.122 141.16 138.013C140.947 139.902 140.694 141.766 140.631 143.669C140.563 145.715 140.544 147.674 140.036 149.672C139.552 151.573 139.106 153.611 137.938 155.227C137.423 155.939 136.742 156.598 136.086 157.18C135.749 157.478 135.436 157.822 135.072 158.085" stroke="#FFEED8" stroke-width="1.02303" stroke-linecap="round"/>
  <path d="M136.553 162.321C134.412 162.993 133.571 165.867 133.479 167.861C133.359 170.475 134.679 172.468 136.612 174.101C137.448 174.808 138.514 175.712 139.663 175.792C141.4 175.913 143.341 174.731 144.816 174.011C147.284 172.805 149.68 171.111 151.252 168.823C152.754 166.638 153.628 164.127 154.097 161.54C154.915 157.028 155.695 152.478 157.55 148.253C159.106 144.71 161.21 141.383 163.353 138.171C165.615 134.778 168.176 131.661 170.849 128.589C172.405 126.801 174.043 125.129 175.707 123.447C176.188 122.961 176.732 122.476 176.984 121.828C177.29 121.043 177.722 120.266 177.404 119.419C176.941 118.185 175.688 117.886 174.572 118.426C172.698 119.336 170.895 120.627 169.206 121.833C168.16 122.58 167.183 123.41 166.21 124.248C165.136 125.174 164.024 126.094 163.095 127.171C161.563 128.948 160.251 130.924 159.23 133.033C158.435 134.674 157.785 136.379 157.029 138.038C155.336 141.751 152.811 145.152 150.148 148.223C147.679 151.072 145.02 153.807 142.306 156.425C140.379 158.285 138.46 160.131 136.335 161.763C135.857 162.129 135.35 162.463 134.829 162.766C134.766 162.803 134.466 162.941 134.434 163.003C134.418 163.034 134.991 163.125 135.073 163.099" stroke="#FFEED8" stroke-width="1.02303" stroke-linecap="round"/>
  <path d="M166.773 185.212C167.801 184.221 168.586 183.125 169.175 181.821C169.768 180.507 170.184 179.103 170.599 177.726C171.062 176.189 171.531 174.647 171.904 173.085C172.337 171.271 172.717 169.429 172.964 167.58C173.224 165.642 173.216 163.709 173.229 161.759C173.253 158.23 173.934 154.746 174.221 151.234C174.415 148.863 174.821 146.538 175.311 144.214C175.708 142.335 175.656 140.411 176.039 138.535C176.363 136.945 176.875 135.365 177.814 134.034C179.245 132.006 181.243 130.604 183.202 129.127C185.562 127.348 188.026 125.678 190.23 123.701C191.98 122.132 193.653 120.49 195.419 118.935C197.545 117.063 199.825 115.39 202.394 114.175C203.918 113.454 205.58 112.719 207.308 112.948C208.923 113.162 210.22 114.392 211.164 115.64C212.234 117.053 212.826 118.507 213.089 120.265C213.39 122.275 213.34 124.262 212.97 126.258C212.755 127.42 212.504 128.608 211.942 129.658C211.059 131.311 209.44 132.405 207.911 133.408C205.093 135.259 201.89 136.394 199.026 138.145C196.963 139.406 195.603 141.387 194.069 143.191C193.033 144.408 191.957 145.581 191.007 146.868C190.071 148.137 189.215 149.46 188.294 150.74C186.479 153.261 184.42 155.588 182.118 157.674C178.796 160.685 176.019 164.049 174.77 168.424C174.424 169.639 174.079 170.862 173.503 171.991C172.999 172.98 172.468 173.929 171.928 174.897C171.373 175.893 171.012 177.014 170.569 178.062C170.143 179.07 169.729 180.089 169.285 181.09C168.932 181.886 168.636 182.754 168.156 183.486C167.988 183.741 167.801 184.119 167.536 184.272C167.297 184.41 166.776 184.958 167.236 184.44" stroke="#FFEED8" stroke-width="1.02303" stroke-linecap="round"/>
  <path d="M188.701 170.597C189.002 170.377 189.228 170.099 189.469 169.831C190.519 168.666 191.597 167.518 192.669 166.367C196.951 161.768 201.461 157.285 205.484 152.535C206.99 150.758 208.559 149.003 209.998 147.193C211.616 145.158 213.068 143.053 214.614 140.99C215.921 139.246 217.31 137.536 218.667 135.814C220.03 134.085 221.312 132.315 222.742 130.617C224.595 128.417 226.958 125.919 229.509 124.336C230.974 123.427 232.538 123.014 233.689 123.618C234.21 123.891 234.39 124.558 234.483 125.116C234.705 126.446 234.482 128.189 233.971 129.679C232.493 133.988 229.072 138.045 225.247 141.525C223.375 143.229 221.335 144.761 219.379 146.38C217.665 147.797 216.017 149.276 214.323 150.713C210.437 154.011 206.334 157.009 202.32 160.158C199.22 162.59 196.233 165.105 193.047 167.428C191.492 168.562 189.92 169.8 188.395 170.913" stroke="#FFEED8" stroke-width="1.02303" stroke-linecap="round"/>
  <path d="M195.239 179.649C195.446 179.584 195.612 179.436 195.786 179.303C196.544 178.727 197.318 178.178 198.089 177.624C201.167 175.408 204.379 173.388 207.308 170.932C208.404 170.013 209.539 169.14 210.596 168.164C211.785 167.067 212.876 165.838 214.022 164.686C214.991 163.713 216.009 162.803 217.007 161.869C218.01 160.932 218.966 159.925 220.008 159.043C221.358 157.901 223.054 156.713 224.788 156.404C225.784 156.227 226.799 156.524 227.467 157.536C227.77 157.994 227.825 158.653 227.835 159.18C227.86 160.435 227.57 161.865 227.121 162.952C225.823 166.095 223.331 168.2 220.635 169.631C219.315 170.331 217.905 170.812 216.541 171.402C215.346 171.92 214.186 172.518 213.001 173.061C210.282 174.306 207.454 175.199 204.669 176.261C202.517 177.081 200.43 178.021 198.234 178.71C197.162 179.046 196.071 179.467 195.019 179.796" stroke="#FFEED8" stroke-width="1.02303" stroke-linecap="round"/>
  <path d="M134.651 224.057C134.694 225.01 134.962 226.02 134.651 226.937C133.317 229.828 141.844 234.151 143.556 236.028C146.932 239.728 154.869 241.351 159.436 242.965C167.924 245.963 176.228 249.914 184.591 253.252C191.622 256.057 198.713 258.949 205.675 261.87L205.769 261.91C212.117 264.572 220.027 267.891 226.953 268.148C232.276 268.345 235.199 265.252 237.875 261.485C241.839 255.904 244.176 248.788 247.029 242.605L252.44 230.879C254.227 227.006 257.163 222.658 257.409 218.259C257.591 214.993 257.657 212.004 257.222 208.721C256.838 205.827 254.598 202.391 253.237 199.801C251.356 196.22 247.666 193.353 245.362 189.986C243.752 187.634 242.052 185.641 239.551 184.064C231.564 179.03 223.025 175.153 214.613 170.907C207.458 167.296 200.363 164.057 192.846 161.163C187.512 159.11 182.355 157.357 176.679 157.934C170.914 158.521 165.736 162.373 161.251 165.518C152.719 171.501 145.371 179.017 141.035 188.416C138.323 194.291 135.528 200.048 135.001 206.635C134.542 212.368 134.391 218.286 134.651 224.057Z" fill="#FFF6EA" stroke="#0033E6" stroke-linecap="round"/>
  <path d="M200.642 168.172C198.865 167.558 197 167.805 195.2 168.123C191.031 168.859 186.799 169.389 182.86 171.047C180.701 171.956 171.449 177.365 172.989 180.725C173.761 182.408 180.35 182.318 181.643 182.406C186.371 182.728 190.63 182.393 194.846 180.211C199.726 177.687 203.136 174.518 208.838 173.575C210.486 173.303 214.036 172.171 211.866 174.822C207.061 180.693 202.106 185.149 195.518 188.778C190.975 191.28 194.723 195.245 198.578 194.965C206.967 194.355 209.757 189.077 214.762 183.905C217.735 180.832 221.017 180.024 224.911 178.83C226.686 178.285 225.331 180.262 224.979 181.023C223.96 183.233 223.163 185.861 221.404 187.601C220.096 188.894 213.115 195.339 214.304 197.717C216.616 202.341 226.793 197.48 228.532 194.343C230.49 190.812 231.724 186.994 233.126 183.281C234.58 179.431 232.086 178.357 229.024 176.944C220.695 173.101 211.453 170.998 203.247 167.212" stroke="#0033E6" stroke-linecap="round"/>
  <path d="M125.225 226.057C124.521 245.073 123.845 264.055 122.821 283.054C122.353 291.728 121.759 300.406 121.515 309.089C121.407 312.926 122.595 309.426 123.622 307.812" stroke="#0033E6" stroke-width="3.80318" stroke-linecap="round"/>
  <path d="M146.602 229.263C146.602 243.854 148.165 258.386 148.62 272.961C148.939 283.167 147.67 293.338 147.67 303.538" stroke="#0033E6" stroke-width="3.80318" stroke-linecap="round"/>
  <path d="M172.25 228.194C173.021 229.595 173.328 231.105 173.645 232.676C175.231 240.538 175.756 248.582 176.198 256.574C176.867 268.667 177.29 280.798 176.94 292.91C176.792 298.064 176.525 303.19 176.525 308.347" stroke="#0033E6" stroke-width="3.80318" stroke-linecap="round"/>
  <path d="M198.434 225.522C198.767 239.536 199.496 253.537 199.71 267.558C199.849 276.645 200.518 286.324 199.384 295.403C199.027 298.254 197.503 301.934 201.105 301.934" stroke="#0033E6" stroke-width="3.80318" stroke-linecap="round"/>
  <path d="M226.222 227.659C226.222 237.466 226.974 247.346 226.34 257.138C225.601 268.569 221.425 279.739 219.542 291.039C219.231 292.907 215.964 306.743 216.069 306.743" stroke="#0033E6" stroke-width="3.80318" stroke-linecap="round"/>
  <path d="M97.4375 247.431C113.722 246.965 130.024 247.1 146.301 246.421C173.481 245.287 200.639 243.971 227.819 245.531C235.872 245.993 243.96 246.509 252.014 246.867C253.05 246.913 257.276 246.294 256.14 247.431" stroke="#0033E6" stroke-width="3.80318" stroke-linecap="round"/>
  <path d="M108.852 267.357C137.934 267.771 166.927 270.126 195.981 271.276C208.393 271.767 220.741 271.917 233.118 273.116C237.368 273.528 241.389 273.769 245.646 273.769" stroke="#0033E6" stroke-width="3.80318" stroke-linecap="round"/>
  <path d="M84.8038 223.906C82.5966 221.919 78.3437 212.84 77.1745 210.309C74.5941 204.724 71.4576 204.488 68.9175 198.899C67.9628 196.799 67.0159 195.098 63.2127 191.294C59.4095 187.49 59.5635 187.141 55.0286 187.689C45.5372 188.834 47.4969 197.517 50.3382 203.897C53.9918 212.102 59.4475 219.065 67.5858 223.134C71.7158 225.199 76.0927 226.626 80.4103 228.24C83.8421 229.523 89.5939 230.76 92.166 233.643C94.8836 236.688 95.0838 241.471 95.3721 245.28C96.0082 253.683 96.5874 262.063 97.3908 270.454C98.0814 277.667 99.2305 284.742 100.3 291.828C101.004 296.492 102.622 300.145 104.337 304.593C106.787 310.946 107.348 317.636 108.434 324.305C108.887 327.087 108.676 329.911 109.057 332.706C109.519 336.089 110.581 339.997 110.753 343.421M110.753 343.421C111.057 349.519 108.379 354.298 110.482 360.433C111.95 364.714 116.642 369.104 121.555 367.676C128.388 365.69 129.258 355.608 127.404 349.953C124.69 341.676 115.077 348.201 110.753 343.421ZM110.753 343.421C110.432 337.005 113.139 329.204 114.698 322.969C115.73 318.84 121.397 319.377 124.583 319.377C134.643 319.377 144.632 320.72 154.685 320.831C164.4 320.939 174.156 320.424 183.867 320.119C191.61 319.875 199.42 320.514 207.141 320.059C209.37 319.928 220.881 317.182 222.013 319.792C224.596 325.743 225.697 333.131 226.169 339.504C226.557 344.738 226.597 349.964 226.407 355.178M226.407 355.178C226.256 359.316 225.921 365.86 228.544 369.428C231.604 373.588 237.328 368.59 239.053 365.806C243.116 359.248 234.356 347.224 226.407 355.178ZM226.407 355.178C228.544 342.769 227.357 330.654 227.357 320.208C227.357 316.048 228.156 314.335 230.415 310.59C235.92 301.459 241.73 292.439 248.701 284.347C263.199 267.519 276.544 246.921 275.983 223.906C275.903 220.638 272.229 219.667 269.689 219.394C252.262 217.518 234.183 217.869 216.67 217.79C184.451 217.645 152.248 217.965 120.071 216.306C113.055 215.945 106.141 215.653 99.1126 215.653" stroke="#0033E6" stroke-width="3.80318" stroke-linecap="round"/>
</svg>