<svg width="322" height="450" viewBox="0 0 322 450" fill="none" xmlns="http://www.w3.org/2000/svg">
<g clip-path="url(#clip0_480_375)">
<rect width="322" height="450" rx="11" fill="#FFF6EA"/>
<path d="M325.501 265.116C317.69 266.311 237.582 273.218 229.727 272.716C214.597 271.748 199.466 269.249 185.686 262.661C180.884 260.365 176.537 257.119 171.869 254.562C170.087 253.585 163.831 249.997 161.664 249.944C156.929 249.828 152.23 258.943 153.675 264.049C154.402 266.619 157.341 267.92 159.455 269.038C159.836 269.24 166.503 272.382 164.765 273.135C160.565 274.953 153.891 273.29 149.775 272.323C142.473 270.608 135.581 267.551 128.51 265.116C121.337 262.646 114.084 260.363 106.852 258.07C101.262 256.298 95.109 254.259 89.1817 255.583C84.3672 256.659 78.1232 260.731 83.7935 265.042C84.324 265.445 108.395 275.033 107.685 275.813C106.619 276.984 89.2054 273.867 85.1394 272.556C81.0735 271.245 78.5375 269.323 75.0098 270.028C72.5922 270.512 69.6952 273.306 70.5189 276.414C71.579 280.415 77.3831 281.228 80.6137 282.78C81.1837 283.053 107.469 290.629 105.033 291.144C103.685 291.429 74.0858 289.027 71.097 288.732C68.1082 288.437 56.9128 286.249 57.7816 290.706C58.8107 295.985 65.881 299.489 70.4463 300.776C75.0117 302.063 103.078 302.129 104.122 303.74C104.868 304.891 76.7912 307.987 72.7956 308.174C68.8 308.362 62.7837 307.78 61.8423 311.442C60.6472 316.091 71.0278 317.49 73.29 317.795C88.8441 319.891 105.109 318.744 120.717 318.371C136.761 317.986 152.875 317.712 168.893 316.624C184.561 315.561 200.14 313.839 215.835 312.963C229.183 312.218 320.251 308.337 323.499 308.174" stroke="#0033E6" stroke-width="3" stroke-linecap="round"/>
<path d="M133.042 242.043C126.059 226.281 141.709 224.574 155.055 229.875C166.193 234.3 170.864 239.278 179.849 246.271C216.382 274.707 229.052 242.263 211.02 300.313C207.133 312.829 209.793 340.488 192.917 341.758C179.393 342.775 165.18 342.632 151.667 341.8C120.207 339.862 79.5688 350.721 51.8421 331.867C28.8871 316.258 31.3807 261.511 52.4519 243.93C68.0651 230.904 109.215 246.545 125.911 251.482C127.476 251.944 140.024 256.477 140.111 255.514C140.165 254.916 133.892 243.964 133.042 242.043Z" fill="#FFF6EA" stroke="#0033E6" stroke-width="3" stroke-linecap="round"/>
<path d="M219.895 301.812C219.266 302.675 218.31 303.494 218.164 304.475C218.164 307.716 204.463 308.075 201.106 309.08C194.486 311.06 183.176 309.176 176.259 308.719C163.404 307.871 150.216 307.981 137.32 307.499C126.479 307.093 115.507 306.742 104.686 306.472L104.539 306.469C94.6733 306.223 82.3784 305.916 73.2053 303.199C66.1555 301.111 64.2076 297.005 62.9864 292.381C61.1772 285.53 62.4096 277.955 62.4096 271.021L62.4095 257.873C62.4095 253.531 61.1982 248.258 63.5221 244.087C65.2475 240.989 66.9574 238.198 69.4968 235.349C71.7352 232.837 76.7169 230.616 80.0453 228.802C84.6468 226.295 91.1741 225.217 96.1976 223.088C99.7073 221.6 103.119 220.482 107.323 220.092C120.749 218.845 134.198 218.903 147.704 218.566C159.191 218.28 170.376 218.312 181.904 218.844C190.083 219.221 197.853 219.8 204.896 222.755C212.051 225.757 216.48 231.526 220.431 236.347C227.946 245.518 232.998 255.601 232.998 266.139C232.998 272.728 233.18 279.243 229.908 285.557C227.06 291.052 223.702 296.588 219.895 301.812Z" fill="#0038FF"/>
<path d="M167.54 221.997C170.222 222.188 172.503 223.212 174.657 224.274C179.643 226.732 184.836 229.028 188.968 232.241C191.234 234.003 200.032 242.949 196.006 245.399C193.991 246.625 185.464 243.731 183.728 243.261C177.378 241.542 172.033 239.415 167.853 235.6C163.016 231.185 160.479 226.801 153.62 223.496C151.638 222.542 147.695 219.981 148.928 223.358C151.658 230.835 155.432 237.068 161.831 243.234C166.244 247.485 158.98 249.551 154.128 247.647C143.571 243.505 143.109 237.436 139.7 230.52C137.673 226.41 133.886 224.263 129.533 221.498C127.548 220.237 128.125 222.643 128.125 223.496C128.125 225.974 127.583 228.744 128.829 231.103C129.756 232.857 134.974 241.793 131.996 243.483C126.207 246.772 115.875 237.937 115.495 234.295C115.068 230.196 115.755 226.139 116.16 222.109C116.581 217.929 120.474 218 125.31 218C138.465 218 152.039 218 165 218" stroke="#FFEED8" stroke-width="2.35596" stroke-linecap="round"/>
<path d="M257.128 280.174C252.855 291.234 247.517 300.565 241.567 310.912C217.233 353.232 124.857 354.33 81.5353 338.577C69.9807 334.375 30.7908 274.311 50.499 270.28C63.3841 267.645 78.9574 268.55 92.3898 267.783C109.455 266.808 126.774 267.687 143.877 267.687C161.438 267.687 178.552 265.887 196.132 266.822C202.529 267.162 260.586 265.145 260.586 270.28C260.586 273.514 258.283 277.184 257.128 280.174Z" fill="#FFF6EA" stroke="#0033E6" stroke-width="3" stroke-linecap="round"/>
<path d="M320.605 326.806C312.794 328.001 258.581 333.218 250.726 332.716C235.597 331.748 220.465 329.249 206.685 322.661C201.883 320.365 197.536 317.119 192.869 314.562C191.086 313.585 184.83 309.997 182.663 309.944C177.928 309.828 173.229 318.943 174.674 324.049C175.401 326.619 178.34 327.92 180.454 329.038C180.835 329.24 187.502 332.382 185.764 333.135C181.564 334.953 174.89 333.29 170.774 332.323C163.472 330.608 156.58 327.551 149.509 325.116C142.336 322.646 135.083 320.363 127.851 318.07C122.262 316.298 116.108 314.259 110.181 315.583C105.366 316.659 99.1225 320.731 104.793 325.042C105.323 325.445 129.394 335.033 128.684 335.813C127.618 336.984 110.205 333.867 106.139 332.556C102.073 331.245 99.5368 329.323 96.0091 330.028C93.5915 330.512 90.6945 333.306 91.5182 336.414C92.5783 340.415 98.3823 341.228 101.613 342.78C102.183 343.053 128.468 350.629 126.032 351.144C124.684 351.429 95.0851 349.027 92.0963 348.732C89.1075 348.437 77.912 346.249 78.7808 350.706C79.8099 355.985 86.8801 359.489 91.4455 360.776C96.0109 362.063 124.077 362.129 125.121 363.74C125.867 364.891 97.7905 367.987 93.7949 368.174C89.7993 368.362 83.7829 367.78 82.8416 371.442C81.6465 376.091 92.0271 377.49 94.2893 377.795C109.843 379.891 126.109 378.744 141.716 378.371C157.76 377.986 173.874 377.712 189.892 376.624C205.56 375.561 221.139 373.839 236.834 372.963C250.182 372.218 319.247 367.247 322.495 367.085" stroke="#0033E6" stroke-width="3" stroke-linecap="round"/>
<path d="M154.042 302.043C147.059 286.281 162.709 284.574 176.055 289.875C187.193 294.3 191.864 299.278 200.849 306.271C237.382 334.707 250.052 302.263 232.02 360.313C228.133 372.829 230.793 400.488 213.917 401.758C200.393 402.775 186.18 402.632 172.667 401.8C141.207 399.862 100.569 410.721 72.8421 391.867C49.8871 376.258 52.3807 321.511 73.4519 303.93C89.0651 290.904 130.215 306.545 146.911 311.482C148.476 311.944 161.024 316.477 161.111 315.514C161.165 314.916 154.892 303.964 154.042 302.043Z" fill="#FFF6EA" stroke="#0033E6" stroke-width="3" stroke-linecap="round"/>
<path d="M99.6644 208.91C97.3004 208.385 94.2594 201.581 93.8424 199.427C93.0991 195.586 94.0569 192.567 97.028 190.126C100.468 187.3 104.412 185.273 107.867 182.51C113.038 178.372 113.189 171.207 111.785 165.263C110.411 159.451 105.298 155.905 101.569 151.642C97.143 146.584 92.49 141.19 90.8765 134.505C87.8594 122.006 100.091 116.675 103.619 106.091" stroke="#0038FF" stroke-width="3" stroke-linecap="round"/>
<path d="M179.262 201.82C176.898 201.294 173.857 194.49 173.44 192.336C172.697 188.496 173.655 185.476 176.626 183.035C180.066 180.209 184.01 178.182 187.464 175.419C192.636 171.281 192.787 164.116 191.382 158.173C190.008 152.36 184.896 148.814 181.166 144.551C176.741 139.493 172.088 134.099 170.474 127.415C167.457 114.915 179.689 109.584 183.217 99" stroke="#0038FF" stroke-width="3" stroke-linecap="round"/>
<path d="M145.203 202C142.854 201.632 139.833 196.868 139.418 195.359C138.68 192.67 139.631 190.555 142.584 188.846C146.002 186.867 149.921 185.448 153.354 183.513C158.493 180.616 158.643 175.598 157.247 171.436C155.882 167.366 150.802 164.882 147.095 161.897C142.698 158.356 138.074 154.579 136.471 149.897C133.473 141.145 145.627 137.411 149.133 130" stroke="#0038FF" stroke-width="3" stroke-linecap="round"/>
</g>
<rect x="1.16007" y="1.16007" width="319.68" height="447.68" rx="9.83993" stroke="#0033E6" stroke-width="2.32015"/>
<defs>
<clipPath id="clip0_480_375">
<rect width="322" height="450" rx="11" fill="white"/>
</clipPath>
</defs>
</svg>
