<svg width="324" height="450" viewbox="0 0 324 450" fill="none" xmlns="http://www.w3.org/2000/svg">
  <rect x="3.16007" y="1.16007" width="319.68" height="447.68" rx="9.83993" fill="#FFF6EA"/>
  <rect x="3.16007" y="1.16007" width="319.68" height="447.68" rx="9.83993" stroke="#0033E6" stroke-width="2.32015"/>
  <path d="M214.112 176.536L156.111 214.036L94.1105 169.102L156.112 80.0358L170.111 99.5358L214.112 176.536Z" fill="#0033E6"/>
  <path d="M101.113 194.536L155.101 226.036L207.612 194.536L187.112 234.036L155.101 269.776L138.611 249.036L101.113 194.536Z" fill="#0033E6"/>
  <path d="M99.9416 161.932C97.7777 164.853 94.9631 166.161 94.1133 169.844C95.4426 171.838 97.9954 173.466 99.9416 174.912C117.42 187.895 132.19 201.117 151.552 211.909C153.854 213.192 156.225 211.94 158.506 210.839C162.148 209.081 165.647 207.067 168.839 204.588C173.312 201.115 178.276 198.504 182.917 195.297C192.012 189.01 200.861 182.073 210.735 177.136C213.036 175.986 214.534 175.507 213.213 173.279C209.797 167.514 206.846 161.279 203.246 155.569C197.995 147.24 192.714 138.792 187.676 130.341C180.61 118.489 171.003 94.2403 161.941 85.1786C160.078 83.3155 158.194 81.7495 156.507 79.6882C154.889 77.7103 154.344 75.4054 153.41 78.6746C151.472 85.4564 146.628 91.1571 143.668 97.5954C139.805 105.997 134.319 112.191 129.027 119.642C122.471 128.872 116.928 138.931 110.725 148.417C107.513 153.33 103.436 157.216 99.9416 161.932Z" stroke="#0033E6" stroke-width="3" stroke-linecap="round"/>
  <path d="M95.375 186.679C100.927 191.979 108.649 194.511 114.662 199.321C118.79 202.623 123.827 205.186 128.318 207.993C133.442 211.195 138.254 215.255 143.184 218.777C146.05 220.824 151.436 225.893 155.178 224.182M155.178 224.182C159.281 222.307 163.019 219.74 167.257 218.044C171.015 216.541 174.837 215.425 178.379 213.427C181.388 211.73 184.15 209.57 187.079 207.739C191.672 204.869 195.454 200.491 200.397 198.223C205.268 195.987 210.555 192.626 214.362 188.819C215.699 187.482 216.463 185.371 214.7 188.255C211.572 193.373 207.24 197.481 204.479 202.84C199.494 212.518 194.143 222.439 187.839 231.334C184.246 236.405 180.371 241.136 176.211 245.75C172.831 249.499 170.395 254.072 166.835 257.632C163.146 261.321 159.038 264.794 154.925 267.993C154.046 268.677 154.165 268.587 154.165 267.543C154.165 263.857 154.549 260.162 154.7 256.477C155.154 245.34 155.178 235.347 155.178 224.182Z" stroke="#0033E6" stroke-width="3" stroke-linecap="round"/>
  <path d="M95.1133 187.036C100.755 195.095 109.964 204.536 114.128 213.652C116.15 218.078 118.596 222.629 121.223 226.716C123.558 230.349 125.78 234.314 128.713 237.472C134.271 243.458 137.576 251.311 143.185 257.294C146.973 261.335 152.249 265.344 155.686 268.781" stroke="#0033E6" stroke-width="3" stroke-linecap="round"/>
  <path d="M154.164 146.134C154.164 133.401 154.671 120.73 154.671 108.011C154.671 101.031 155.178 94.0956 155.178 87.1192C155.178 86.0387 154.487 80.4104 155.178 80.756" stroke="#0033E6" stroke-width="3" stroke-linecap="round"/>
  <path d="M153.152 146.134V209.992" stroke="#0033E6" stroke-width="3" stroke-linecap="round"/>
  <path d="M94.1133 169.036C102.709 163.085 116.507 161.739 126.113 156.536C134.398 152.048 144.588 147.226 154.113 146.036" stroke="#0033E6" stroke-width="3" stroke-linecap="round"/>
  <path d="M153.613 146.036C156.757 147.084 161.744 148.771 164.809 149.963C167.216 150.899 169.318 152.498 171.735 153.454C175.838 155.076 180.428 156.04 184.04 158.522C188.501 161.59 193.055 164.633 197.836 167.195C201.995 169.422 209.055 170.107 212.449 173.501" stroke="#0033E6" stroke-width="3" stroke-linecap="round"/>
  <path d="M1.5 313.31C9.35814 314.138 63.7565 316.808 71.5787 315.938C86.6464 314.261 101.644 311.056 115.1 303.829C119.79 301.311 123.979 297.864 128.522 295.091C130.257 294.032 136.338 290.155 138.5 290C143.224 289.663 148.345 298.547 147.141 303.715C146.535 306.316 143.661 307.753 141.601 308.97C141.23 309.189 134.718 312.64 136.489 313.31C140.77 314.93 147.358 312.956 151.425 311.797C158.638 309.741 165.38 306.365 172.329 303.601C179.378 300.797 186.516 298.177 193.632 295.548C199.133 293.516 205.184 291.191 211.166 292.235C216.026 293.084 222.454 296.859 216.992 301.431C216.481 301.858 192.886 312.564 193.632 313.31C194.752 314.43 212 310.5 216 309C220 307.5 222.443 305.461 226 306C228.438 306.369 231.462 309.025 230.785 312.168C229.914 316.214 224.154 317.299 221 319C220.444 319.3 194.542 328.1 197 328.5C198.36 328.721 227.814 324.935 230.785 324.5C233.757 324.065 244.838 321.355 244.179 325.847C243.398 331.168 236.5 335 232 336.5C227.5 338 199.467 339.381 198.5 341.039C197.809 342.224 226 344 230 344C234 344 239.982 343.137 241.094 346.751C242.506 351.339 232.203 353.223 229.957 353.633C214.518 356.457 198.217 356.073 182.609 356.432C166.565 356.8 150.456 357.281 134.405 356.946C118.704 356.618 103.061 355.629 87.3423 355.489C73.9739 355.371 4.75202 353.643 1.5 353.633" stroke="#0033E6" stroke-width="3" stroke-linecap="round"/>
</svg>