<svg width="322" height="450" viewBox="0 0 322 450" fill="none" xmlns="http://www.w3.org/2000/svg">
<g clip-path="url(#clip0_479_458)">
<rect width="322" height="450" rx="11" fill="#FFF6EA"/>
<path d="M131.47 215.229L167.58 210.59L234.909 215.229L274.278 243.941L278.29 308.011L274.278 333.964L230.27 283.938V324.686L234.909 357.41L249.202 377.722L230.019 382.737L94.2323 383.615C92.2787 286.698 91.1151 263.043 83.3241 273.28L64.2663 336.723C51.9263 335.479 45.3896 331.737 34.4261 319.295C19.1053 292.94 21.8468 277.322 47.0895 247.954L86.3334 228.269L131.47 215.229Z" fill="#FFF6EA"/>
<path d="M173.723 89.5149C172.744 93.7738 172.233 98.1105 174.594 102.046C178.201 108.057 184.44 112.157 188.571 117.877C191.355 121.731 194.077 126.102 194.077 131.057C194.077 137.015 190.697 141.542 184.233 140.548C179.154 139.766 176.193 137.464 171.721 135.228" stroke="#0033E6" stroke-width="3.57086" stroke-linecap="round"/>
<path d="M190.071 139.898C190.071 148.229 193.742 156.445 193.742 164.812C193.742 178.495 179.705 190.616 166.381 190.616C160.14 190.616 153.38 189.194 147.361 187.539C145.481 187.022 143.101 186.438 141.355 185.611C138.244 184.137 135.102 182.76 132.013 181.199C130.021 180.192 127.747 179.339 127.267 177.047C126.347 172.651 124.997 167.64 123.078 163.589C120.623 158.406 119.787 152.641 118.332 147.165C115.854 137.833 114.328 128.151 114.328 118.506C114.328 112.039 115.918 104.406 121.928 100.859C125.838 98.551 129.841 97.8555 134.348 97.8555" stroke="#0033E6" stroke-width="3.57086" stroke-linecap="round"/>
<path d="M134.686 117.877C135.3 116.102 136.032 112.86 137.355 111.537C138.84 110.052 140.291 110.202 142.026 110.202" stroke="#0033E6" stroke-width="3.57086" stroke-linecap="round"/>
<path d="M151.701 105.864C153.549 104.656 159.089 100.334 161.378 101.86" stroke="#0033E6" stroke-width="3.57086" stroke-linecap="round"/>
<path d="M166.713 156.914C167.021 158.457 170.57 159.584 171.885 159.584C173.058 159.584 176.561 159.25 175.388 159.25" stroke="#0033E6" stroke-width="3.57086" stroke-linecap="round"/>
<path d="M134.015 94.8527C134.12 93.9116 134.817 93.1533 134.608 92.1092C134.353 90.8315 133.062 89.703 132.273 88.7725C130.369 86.5293 128.182 84.4922 126.749 81.8952C123.755 76.4694 129.553 71.5873 134.293 69.7162C137.364 68.5042 141.11 66.1571 144.507 66.1571C145.63 66.1571 144.6 70.932 145.583 69.7533C148.478 66.279 149.803 60.9496 154.107 60.9496C159.144 60.9496 167.311 65.6953 164.305 71.1059C162.38 74.5713 157.906 69.429 157.493 68.3445C156.648 66.1268 163.918 59.7183 165.306 59.8212C168.222 60.0372 169.921 66.669 172.054 68.3445C175.18 70.8009 175.59 77.2655 172.869 79.9859C170.587 82.2681 167.146 81.1402 164.305 80.6903C160.538 80.0937 156.278 79.5634 152.868 77.6687C151.387 76.846 150.151 76.4926 149.179 78.0209C147.459 80.7239 146.237 84.0425 142.691 84.6758C138.184 85.4806 133.438 85.51 128.862 85.51C125.897 85.51 123.117 84.8426 120.168 84.8426C119.654 84.8426 119.203 84.6361 119.315 85.028C119.446 85.4841 119.314 86.1358 119.26 86.5851C119.065 88.1917 119.262 89.9472 118.926 91.516C118.609 92.9938 116.655 92.778 115.515 92.8693C113.743 93.011 111.991 93.5854 110.251 93.9259C107.035 94.555 103.842 94.8527 100.574 94.8527C100.106 94.8527 98.2738 94.5869 98.016 95.0381C97.7466 95.5094 98.7002 96.8777 98.9799 97.1884C101.375 99.8494 101.113 108.56 96.811 109.516C94.9188 109.936 94.028 107.821 95.1612 106.364C96.6561 104.442 101.19 108.093 102.483 109.182C104.91 111.226 104.17 116.744 104.17 119.73C104.17 123.21 103.527 125.947 101.983 129.035C100.497 132.007 98.3408 136.589 101.612 139.305C105.818 142.796 109.015 143.298 112.348 148.425C113.681 150.475 114.364 152.04 114.903 153.597C116.447 158.056 118.945 163.616 119.074 168.26C119.14 170.637 120.005 173.723 119.074 175.935C118.737 176.735 116.72 180.761 115.83 177.648" stroke="#0033E6" stroke-width="3.57086" stroke-linecap="round"/>
<path d="M127.471 177.648C129.009 183.031 128.731 188.429 129.899 193.845C130.794 197.991 131.059 202.395 131.059 206.622C131.059 207.865 131.059 208.468 131.059 209.947" stroke="#0033E6" stroke-width="3.57086" stroke-linecap="round"/>
<path d="M163.378 192.284C163.378 194.729 162.753 197.18 162.71 199.624C162.68 201.387 162.425 203.411 162.877 205.13C162.993 205.572 163.378 207.386 163.378 206.356" stroke="#0033E6" stroke-width="3.57086" stroke-linecap="round"/>
<path d="M131.391 210.666C134.271 212.602 137.068 213.004 140.466 213.185C145.026 213.428 149.519 213.353 154.064 212.851C157.674 212.452 164.342 212.185 166.629 208.753" stroke="#0033E6" stroke-width="4.26292" stroke-linecap="round"/>
<path d="M166.52 208.553C167.113 209.123 167.889 209.266 168.623 209.438C172.242 210.287 175.885 211.036 179.575 211.246C189.019 211.782 198.459 211.508 207.904 211.095C217.231 210.687 226.799 210.38 236.055 211.942C241.967 212.94 246.631 215.578 252.034 218.194C258.456 221.305 264.451 225.845 269.072 231.941C278.11 243.863 281.3 259.999 281.791 275.477C282.144 286.596 281.319 297.541 278.981 308.336C278.207 311.91 276.918 315.066 275.929 318.543C275.306 320.734 274.662 323.285 273.761 325.322C272.928 327.205 272.189 329.581 271.802 331.667C271.552 333.02 270.939 334.29 270.871 335.66C270.855 335.983 270.656 336.794 270.566 337.166C270.329 338.136 269.617 336.273 269.409 335.998C264.912 330.065 259.586 325.144 255.101 319.202C249.551 311.849 242.643 305.482 237.741 297.509C234.438 292.136 230.921 287.05 228.379 281.088C227.689 279.471 227.051 277.711 226.227 276.192C225.425 274.716 227.161 274.492 228.202 274.178C232.801 272.791 236.688 270.899 239.299 265.986C240.611 263.517 241.676 260.649 241.676 257.701" stroke="#0033E6" stroke-width="3.51064" stroke-linecap="round"/>
<path d="M134.533 212.412C128.736 212.817 122.346 216.48 116.691 218.435C104.13 222.776 91.0992 225.511 77.4328 231.278" stroke="#0033E6" stroke-width="4.01216" stroke-linecap="round"/>
<path d="M237.464 246.085C243.069 225.91 250.532 206.409 255.162 185.935C255.294 184.755 254.955 184.906 255.324 183.578C255.711 182.185 256.534 180.998 256.902 179.674C258.231 174.889 263.475 172.673 263.674 167.338C263.721 166.086 263.945 163.008 263.066 161.929C261.578 160.104 262.737 160.2 260.85 161.119C258.694 162.17 256.458 164.231 254.616 165.695C252.587 167.308 250.486 168.046 248.226 169.354C244.986 171.229 241.84 173.234 238.909 175.548C235.147 178.519 230.769 180.73 227.507 184.219C219.755 192.51 214.745 203.023 209.683 212.844C206.468 219.081 204.344 226.052 202.219 232.702C200.024 239.569 197.89 246.406 195.959 253.355C193.711 261.449 191.44 269.637 190.321 277.991C189.446 284.526 187.371 290.896 186.428 297.433C185.674 302.657 184.846 307.568 183.437 312.639C182.168 317.207 177.985 321.539 178.331 326.577C178.471 328.618 180.5 329.061 182.026 330.151C182.66 330.604 184.797 327.563 185.331 327.139C188.826 324.362 191.943 321.424 196.627 320.234C198.033 319.876 200.209 318.611 201.447 317.885C203.948 316.419 206.305 314.592 207.95 312.341C209.993 309.548 211.826 306.698 213.952 303.965C219.229 297.178 221.411 288.831 224.969 281.285C230.175 270.245 234.202 257.823 237.464 246.085Z" fill="#FFF6EA" stroke="#0038FF" stroke-width="1.17822" stroke-linecap="round"/>
<path d="M218.174 221.831C222.426 218.313 227.277 215.969 231.767 213.968C232.046 215.12 225.695 221.004 224.416 222.239C219.773 226.72 215.538 231.829 210.924 236.329C210.663 236.584 205.173 241.782 206.097 238.968C207.285 235.348 210.351 231.427 212.657 228.2C214.339 225.845 216.031 223.605 218.174 221.831Z" fill="#FFF6EA"/>
<path d="M233.771 213.082C228.755 215.289 223.067 217.782 218.174 221.831C216.031 223.605 214.339 225.845 212.656 228.2C210.351 231.427 207.285 235.348 206.097 238.968C205.173 241.782 210.663 236.584 210.924 236.329C215.538 231.829 219.773 226.72 224.416 222.239C225.696 221.003 232.059 215.108 231.766 213.964" stroke="#0038FF" stroke-width="1.17822" stroke-linecap="round"/>
<path d="M234.275 203.477C229.677 207.08 223.62 209.223 217.934 211.011C216.961 209.619 223.526 203.499 224.825 202.208C229.536 197.522 233.338 192.045 238 187.334C238.263 187.067 243.884 181.645 243.877 184.839C243.869 188.949 241.224 193.175 239.37 196.681C238.016 199.239 236.593 201.661 234.275 203.477Z" fill="#FFF6EA"/>
<path d="M215.391 211.799C221.759 209.837 228.983 207.623 234.275 203.477C236.593 201.661 238.016 199.239 239.37 196.681C241.224 193.175 243.869 188.949 243.877 184.839C243.884 181.645 238.263 187.067 238 187.334C233.338 192.045 229.536 197.522 224.825 202.208C223.525 203.5 216.947 209.631 217.936 211.015" stroke="#0038FF" stroke-width="1.17822" stroke-linecap="round"/>
<path d="M212.278 246.474C213.283 245.678 216.114 242.901 217.508 243.158C215.806 247.176 212.917 252.388 211.217 256.404C209.813 259.718 208.5 263.51 205.955 266.147C204.396 267.762 201.447 269.494 199.249 268.118C197.534 267.045 198.579 263.824 199.086 262.329C200.136 259.233 201.603 256.597 203.823 254.183C206.42 251.359 209.27 248.853 212.278 246.474Z" fill="#FFF6EA" stroke="#0038FF" stroke-width="1.17822" stroke-linecap="round"/>
<path d="M204.598 279.285C203.53 278.982 200.618 283.852 199.896 284.662C197.422 287.439 194.342 289.466 191.746 292.102C190.695 293.169 187.692 297.945 189.457 299.429C190.967 300.698 193.097 299.636 194.242 298.462C199.02 293.565 199.527 285.791 203.986 280.73" stroke="#0038FF" stroke-width="1.17822" stroke-linecap="round"/>
<path d="M138.418 244.559C139.33 244.243 141.422 243.203 142.364 243.538C144.919 243.078 149.735 244.482 151.25 244.591C153.696 244.767 156.467 243.742 158.92 244.174C160.856 244.514 162.765 244.652 164.628 245.429C167.254 246.525 169.636 248.045 172.147 249.324C172.6 249.555 175.424 251.135 175.144 251.803C174.775 252.684 174.126 253.394 173.254 253.823C172.772 254.061 171.705 254.66 171.185 254.952C172.086 254.541 173.463 254.816 174.376 254.553C175.671 254.18 177.768 254.894 178.952 255.244C180.584 255.726 182.183 256.343 183.818 256.8C185.924 257.388 197.429 262.122 194.867 265.35C194.025 266.409 194.589 266.011 195.669 266.123C196.808 266.241 197.907 266.714 199.079 266.701C202.191 266.666 205.541 266.832 208.416 268.229C211.194 269.58 213.745 271.21 216.437 272.639C218.711 273.846 220.118 275.841 221.437 278.008C224.032 282.268 226.991 286.562 224.571 291.541C223.489 293.766 221.981 295.817 220.892 298.058C220.481 298.903 220.041 299.697 219.847 300.617C219.778 300.946 219.073 302.755 219.772 302.057C220.112 301.717 220.411 301.574 220.826 301.348C222.613 300.376 223.165 303.371 222.559 304.618C220.732 308.378 218.96 312.369 216.731 315.967C214.466 319.623 212.346 323.529 210.464 327.402C209.626 329.126 209.492 330.01 209.611 331.786C209.638 332.199 209.989 332.295 209.393 332.205C208.522 332.074 207.63 331.656 206.749 331.687C205.183 331.741 203.529 331.328 201.941 331.267C200.57 331.214 198.85 330.576 197.555 330.096L197.519 330.083C195.055 329.17 192.713 327.915 190.277 326.932C188.719 326.303 186.415 325.767 185.129 324.615C182.835 322.559 179.065 321.64 176.39 319.927C170.437 316.116 164.045 312.807 158.456 308.457C154.604 305.459 151.121 302.022 147.468 298.787C144.457 296.12 141.06 293.955 137.676 291.799C134.547 289.805 131.42 287.812 128.289 285.817C126.095 284.419 123.667 283.403 121.569 281.855C120.018 280.711 118.608 279.758 117.979 277.938C117.49 276.526 117.879 274.536 118.474 273.239C118.937 272.229 119.39 271.066 120.131 270.239C120.74 269.559 121.733 268.636 122.131 267.818C122.86 266.318 122.713 265.043 123.47 263.486C124.338 261.698 125.395 260.05 126.266 258.258C126.919 256.914 127.356 255.489 127.996 254.173C128.652 252.824 127.688 251.125 128.352 249.76C129.44 247.521 130.596 246.576 132.984 245.751C134.741 245.143 136.662 245.166 138.418 244.559Z" fill="#0038FF"/>
<path d="M142.364 243.538C141.422 243.203 139.33 244.243 138.418 244.559C136.662 245.166 134.741 245.143 132.984 245.751C130.596 246.576 129.44 247.521 128.352 249.76C127.688 251.125 128.652 252.824 127.996 254.173C127.356 255.489 126.919 256.914 126.266 258.258C125.395 260.05 124.338 261.698 123.47 263.486C122.713 265.043 122.86 266.318 122.131 267.818C121.733 268.636 120.74 269.559 120.131 270.239C119.39 271.066 118.937 272.229 118.474 273.239C117.879 274.536 117.49 276.526 117.979 277.938C118.608 279.758 120.018 280.711 121.569 281.855C123.667 283.403 126.095 284.419 128.289 285.817C131.42 287.812 134.547 289.805 137.676 291.799C141.06 293.955 144.457 296.12 147.468 298.787C151.121 302.022 154.604 305.459 158.456 308.457C164.045 312.807 170.437 316.116 176.39 319.927C179.065 321.64 182.835 322.559 185.129 324.615C186.415 325.767 188.719 326.303 190.277 326.932C192.713 327.915 195.055 329.17 197.519 330.083C198.818 330.564 200.558 331.213 201.941 331.267C203.529 331.328 205.183 331.741 206.749 331.687C207.63 331.656 208.522 332.074 209.393 332.205C209.989 332.295 209.638 332.199 209.611 331.786C209.492 330.01 209.626 329.126 210.464 327.402C212.346 323.529 214.466 319.623 216.731 315.967C218.96 312.369 220.732 308.378 222.559 304.618C223.165 303.371 222.613 300.376 220.826 301.348C220.411 301.574 220.112 301.717 219.772 302.057C219.073 302.755 219.778 300.946 219.847 300.617C220.041 299.697 220.481 298.903 220.892 298.058C221.981 295.817 223.489 293.766 224.571 291.541C226.991 286.562 224.032 282.268 221.437 278.008C220.118 275.841 218.711 273.846 216.437 272.639C213.745 271.21 211.194 269.58 208.416 268.229C205.541 266.832 202.191 266.666 199.079 266.701C197.907 266.714 196.808 266.241 195.669 266.123C194.589 266.011 194.025 266.409 194.867 265.35C197.429 262.122 185.924 257.388 183.818 256.8C182.183 256.343 180.584 255.726 178.952 255.244C177.768 254.894 175.671 254.18 174.376 254.553C173.411 254.831 171.926 254.508 171.035 255.03C170.308 255.456 172.498 254.195 173.254 253.823C174.126 253.394 174.775 252.684 175.144 251.803C175.424 251.135 172.6 249.555 172.147 249.324C169.636 248.045 167.254 246.525 164.628 245.429C162.765 244.652 160.856 244.514 158.92 244.174C156.467 243.742 153.696 244.767 151.25 244.591C149.735 244.482 144.919 243.078 142.364 243.538Z" stroke="#FFF6EA" stroke-width="0.671283" stroke-linecap="round"/>
<path d="M125.501 266.894C128.446 266.805 131.651 266.972 134.173 265.225C135.646 264.205 136.812 262.959 138.08 261.719C139.088 260.733 140.115 259.891 141.459 259.409C142.959 258.871 144.481 258.48 145.951 257.849C147.23 257.3 148.528 256.796 149.815 256.266C151.296 255.657 152.693 254.838 154.218 254.362C154.619 254.237 155.02 254.144 155.44 254.139C157.075 254.121 158.726 254.275 160.361 254.343C161.467 254.39 162.568 254.53 163.672 254.607C164.349 254.654 165.036 254.581 165.713 254.554C166.291 254.531 166.534 254.272 166.976 253.997C167.093 253.924 167.579 253.512 167.495 253.335C167.426 253.191 167.234 253.077 167.113 252.968C166.545 252.459 165.856 252.104 165.182 251.758C164.001 251.152 162.796 250.589 161.572 250.075C160.349 249.562 159.066 249.332 157.757 249.179C156.576 249.041 155.318 249.209 154.159 249.442C153.264 249.621 152.367 249.794 151.516 250.133C150.669 250.47 149.703 250.886 149.121 251.622C148.179 252.814 147.249 254.056 146.173 255.131C145.128 256.176 143.92 257.048 142.864 258.083C142.4 258.538 141.562 258.882 141.279 259.465" stroke="#FFF6EA" stroke-width="0.605437" stroke-linecap="round"/>
<path d="M148.612 268.831C151.118 268.278 153.734 268.3 156.279 268.045C158.211 267.852 160.059 267.585 161.92 267.025C163.375 266.587 164.734 265.932 166.135 265.352C168.655 264.308 171.265 263.795 173.976 263.583C176.379 263.396 178.767 263.554 181.168 263.674C182.833 263.757 184.492 263.634 186.157 263.717C186.829 263.751 187.52 263.815 188.192 263.761C188.464 263.739 188.831 263.695 189.011 263.455C189.423 262.904 189.016 262.463 188.609 262.02C187.155 260.434 185.059 259.52 183.126 258.667C181.497 257.948 179.786 257.473 178.017 257.266C175.994 257.03 173.876 257.203 171.866 257.494C169.457 257.843 166.917 258.363 164.676 259.332C163.491 259.845 162.468 260.523 161.484 261.355C160.5 262.187 159.508 262.988 158.593 263.896C157.608 264.873 156.688 265.83 155.509 266.578C154.386 267.29 153.219 268.087 151.892 268.341C151.307 268.453 150.665 268.461 150.071 268.442C149.766 268.433 149.452 268.457 149.151 268.417" stroke="#FFF6EA" stroke-width="0.605437" stroke-linecap="round"/>
<path d="M147.913 271.196C146.545 270.531 144.794 271.557 143.822 272.497C142.548 273.729 142.271 275.325 142.465 277.029C142.548 277.766 142.653 278.707 143.182 279.28C143.982 280.148 145.489 280.468 146.55 280.798C148.327 281.352 150.296 281.631 152.135 281.234C153.89 280.856 155.489 280.024 156.923 278.967C159.424 277.124 161.923 275.244 164.802 274.024C167.216 273.001 169.8 272.34 172.35 271.753C175.042 271.133 177.754 270.787 180.499 270.516C182.097 270.358 183.682 270.296 185.284 270.24C185.747 270.224 186.241 270.238 186.666 270.036C187.182 269.791 187.756 269.609 187.993 269.044C188.338 268.22 187.86 267.49 187.059 267.238C185.712 266.814 184.223 266.613 182.83 266.422C181.967 266.304 181.1 266.259 180.231 266.22C179.271 266.177 178.295 266.113 177.337 266.212C175.755 266.375 174.19 266.739 172.706 267.304C171.552 267.743 170.439 268.281 169.295 268.747C166.734 269.79 163.908 270.292 161.168 270.568C158.626 270.824 156.044 270.936 153.489 270.964C151.675 270.985 149.871 271.003 148.065 270.819C147.659 270.778 147.254 270.706 146.856 270.613C146.808 270.602 146.596 270.531 146.551 270.546C146.529 270.554 146.769 270.865 146.822 270.891" stroke="#FFF6EA" stroke-width="0.605437" stroke-linecap="round"/>
<path d="M152.164 296.526C153.132 296.515 154.028 296.341 154.925 295.972C155.828 295.6 156.686 295.102 157.531 294.615C158.473 294.073 159.422 293.531 160.332 292.935C161.388 292.242 162.432 291.511 163.413 290.715C164.442 289.88 165.337 288.924 166.25 287.969C167.903 286.241 169.858 284.841 171.633 283.243C172.83 282.165 174.111 281.207 175.434 280.29C176.503 279.548 177.372 278.576 178.433 277.829C179.331 277.196 180.319 276.655 181.4 276.436C183.048 276.102 184.685 276.34 186.337 276.523C188.328 276.743 190.318 277.066 192.324 277.116C193.916 277.156 195.503 277.125 197.097 277.18C199.015 277.245 200.917 277.481 202.748 278.077C203.834 278.43 204.995 278.84 205.74 279.756C206.436 280.613 206.504 281.822 206.389 282.876C206.26 284.07 205.875 285.062 205.188 286.05C204.401 287.181 203.453 288.137 202.342 288.949C201.696 289.421 201.02 289.89 200.255 290.147C199.051 290.551 197.745 290.337 196.525 290.121C194.275 289.722 192.169 288.793 189.943 288.324C188.34 287.987 186.749 288.331 185.154 288.506C184.078 288.625 183.002 288.702 181.936 288.895C180.884 289.085 179.847 289.34 178.798 289.542C176.731 289.941 174.635 290.131 172.531 290.089C169.493 290.028 166.561 290.395 163.911 291.971C163.175 292.408 162.437 292.85 161.628 293.139C160.92 293.392 160.217 293.613 159.501 293.839C158.764 294.072 158.065 294.457 157.36 294.767C156.681 295.066 156.003 295.376 155.319 295.663C154.775 295.891 154.225 296.181 153.649 296.318C153.447 296.366 153.179 296.466 152.977 296.418C152.795 296.374 152.284 296.402 152.751 296.361" stroke="#FFF6EA" stroke-width="0.605437" stroke-linecap="round"/>
<path d="M169.77 299.52C170.021 299.552 170.262 299.52 170.505 299.5C171.564 299.414 172.629 299.349 173.693 299.28C177.941 299.005 182.248 298.892 186.439 298.422C188.008 298.246 189.597 298.11 191.148 297.887C192.891 297.636 194.586 297.274 196.307 296.976C197.762 296.724 199.241 296.527 200.711 296.309C202.186 296.091 203.642 295.815 205.136 295.643C207.071 295.42 209.398 295.287 211.391 295.693C212.536 295.926 213.498 296.45 213.785 297.283C213.915 297.659 213.693 298.072 213.48 298.39C212.971 299.149 212.05 299.904 211.106 300.401C208.374 301.837 204.802 302.246 201.298 302.183C199.584 302.153 197.866 301.959 196.149 301.848C194.646 301.75 193.146 301.712 191.643 301.633C188.194 301.451 184.778 301.022 181.336 300.708C178.677 300.465 176.036 300.316 173.386 299.979C172.092 299.815 170.741 299.695 169.473 299.533" stroke="#FFF6EA" stroke-width="0.605437" stroke-linecap="round"/>
<path d="M168.782 307.02C168.914 307.084 169.065 307.088 169.212 307.104C169.854 307.172 170.49 307.261 171.128 307.346C173.676 307.685 176.197 308.183 178.783 308.335C179.751 308.391 180.716 308.488 181.691 308.499C182.787 308.511 183.895 308.413 184.996 308.378C185.926 308.349 186.851 308.374 187.777 308.378C188.707 308.382 189.646 308.33 190.57 308.38C191.766 308.445 193.154 308.647 194.153 309.301C194.726 309.677 195.088 310.295 194.947 311.105C194.883 311.472 194.604 311.822 194.364 312.086C193.792 312.716 192.985 313.286 192.258 313.613C190.157 314.559 187.95 314.438 185.956 313.889C184.98 313.621 184.062 313.202 183.115 312.859C182.285 312.558 181.435 312.314 180.599 312.031C178.68 311.38 176.871 310.506 175.005 309.734C173.563 309.138 172.097 308.631 170.695 307.949C170.01 307.617 169.277 307.316 168.605 306.99" stroke="#FFF6EA" stroke-width="0.605437" stroke-linecap="round"/>
<path d="M87.4629 274.409C87.4629 286.706 98.9359 359.781 95.4219 371.624C94.6217 374.321 95.3686 377.855 95.0252 380.665C94.8894 381.777 94.4987 384.12 94.959 385.228C95.0031 385.334 96.2872 384.896 96.3916 384.867C98.1634 384.39 99.9498 384.015 101.769 383.743C116.953 381.474 132.755 382.482 148.051 382.809C160.498 383.075 172.93 383.086 185.386 383.17C195.268 383.236 205.155 383.552 215.05 383.552C221.689 383.552 228.158 383.81 234.687 382.575C237.205 382.099 241.295 381.946 243.304 380.114C244.098 379.389 244.569 379.188 245.508 378.777C246.941 378.149 251.534 379.405 250.225 378.564C249.809 378.297 249.152 376.766 248.77 376.293C247.398 374.594 245.869 372.651 244.296 371.136C241.97 368.897 240.675 365.86 238.544 363.687C236.24 361.338 236.306 356.648 234.885 353.755C232.984 349.882 232.265 345.976 231.205 341.891C230.074 337.535 231.007 331.921 231.007 327.396" stroke="#0038FF" stroke-width="3.00912" stroke-linecap="round"/>
<path d="M104.767 383.671C104.153 389.813 103.573 395.337 103.263 401.54C102.487 417.055 97.3547 431.914 95.1232 447.281C93.1245 461.044 90.6778 474.836 88.1227 488.506C86.6791 496.229 85.1991 503.983 84.32 511.798C83.0781 522.837 83.0554 533.975 82.3754 545.05C81.9749 551.573 81.6182 558.091 81.4463 564.626C81.4219 565.551 80.6001 569.506 81.684 569.552C90.1293 569.911 98.617 569.51 107.072 569.768C115.852 570.036 124.67 570.287 133.453 570.351C135.414 570.366 152.466 571.512 152.597 570.179C154.546 550.192 159.165 530.93 163.875 511.431C170.091 485.697 174.121 459.438 172.41 432.912C172.161 429.058 172.954 425.949 173.512 419.754C173.844 416.058 173.909 412.331 174.376 408.648C174.702 406.079 174.797 406.14 174.855 403.55C174.919 400.646 176.234 400.922 176.234 403.174C176.234 406.117 176.271 407.377 176.558 410.312C179.09 436.189 181.482 462.358 186.432 487.901C192.752 520.505 201.483 552.617 208.601 585.044C208.812 586.005 208.626 587.977 209.292 588.717C209.747 589.223 210.722 588.064 211.323 587.853C214.083 586.882 217.174 586.974 220.052 586.686C226.066 586.085 232.116 585.914 238.137 585.325C248.987 584.263 259.926 583.034 270.611 580.831C272.148 580.514 288.014 577.869 287.464 576.099C286.407 572.69 284.758 569.452 283.402 566.16C276.193 548.65 269.097 531.009 265.037 512.446C262.997 503.122 261.993 493.598 259.938 484.271C258.429 477.425 256.585 470.628 254.709 463.875C251.238 451.379 247.774 438.913 244.187 426.452C242.356 420.094 239.534 413.109 238.547 406.617C237.66 400.78 237.075 395.032 235.803 389.31C235.356 387.297 234.269 385.716 234.269 383.671" stroke="#0033E6" stroke-width="3.00912" stroke-linecap="round"/>
<path d="M95.169 287.088C102.107 306.844 107.136 327.109 115.045 346.554C115.611 347.597 115.803 347.279 116.26 348.58C116.739 349.944 116.742 351.388 117.198 352.685C118.843 357.37 115.809 362.186 118.696 366.677C119.373 367.731 120.95 370.385 122.288 370.767C124.552 371.414 123.546 371.997 124.568 370.164C125.736 368.07 126.392 365.1 127.066 362.846C127.809 360.362 129.111 358.555 130.217 356.19C131.802 352.799 133.237 349.355 134.318 345.781C135.705 341.192 138.033 336.875 138.714 332.147C140.332 320.912 138.43 309.423 136.968 298.472C136.038 291.516 133.795 284.584 131.736 277.913C129.609 271.025 127.45 264.195 125.06 257.39C122.277 249.464 119.458 241.448 115.599 233.956C112.579 228.094 110.64 221.681 107.675 215.779C105.306 211.062 103.178 206.56 101.434 201.594C99.8625 197.121 100.817 191.175 97.6526 187.24C96.3704 185.645 94.452 186.443 92.577 186.421C91.7985 186.412 91.7836 190.129 91.5883 190.782C90.3093 195.058 89.4315 199.251 86.2701 202.906C85.3208 204.004 84.2591 206.286 83.6586 207.589C82.4454 210.222 81.5567 213.068 81.4938 215.856C81.4157 219.315 81.5409 222.702 81.3602 226.16C80.9116 234.745 83.8945 242.84 85.2907 251.066C87.3332 263.099 91.1322 275.593 95.169 287.088Z" fill="#FFF6EA" stroke="#0038FF" stroke-width="1.17822" stroke-linecap="round"/>
<path d="M118.902 298.958C117.426 304.275 114.786 308.972 112.248 313.181C111.359 312.395 113.205 303.937 113.549 302.192C114.795 295.862 115.347 289.248 116.56 282.918C116.628 282.56 118.16 275.156 119.011 277.993C120.105 281.642 119.833 286.612 119.787 290.578C119.753 293.472 119.646 296.277 118.902 298.958Z" fill="#FFF6EA"/>
<path d="M111.109 315.054C113.963 310.375 117.203 305.078 118.902 298.958C119.646 296.277 119.753 293.472 119.787 290.578C119.833 286.612 120.105 281.642 119.011 277.993C118.16 275.156 116.628 282.56 116.56 282.918C115.347 289.248 114.795 295.862 113.549 302.192C113.205 303.939 111.355 312.413 112.25 313.184" stroke="#0038FF" stroke-width="1.17822" stroke-linecap="round"/>
<path d="M119.321 319.216C121.034 313.631 124.776 308.409 128.419 303.691C130.013 304.277 128.127 313.052 127.8 314.853C126.614 321.391 126.627 328.059 125.497 334.589C125.433 334.959 123.923 342.621 122.101 339.997C119.758 336.621 119.511 331.641 119.028 327.704C118.675 324.832 118.458 322.031 119.321 319.216Z" fill="#FFF6EA"/>
<path d="M130.055 301.59C125.952 306.841 121.292 312.788 119.321 319.216C118.458 322.031 118.675 324.832 119.028 327.704C119.511 331.641 119.758 336.621 122.101 339.997C123.923 342.621 125.433 334.959 125.497 334.589C126.627 328.059 126.614 321.391 127.8 314.853C128.127 313.05 130.017 304.259 128.415 303.69" stroke="#0038FF" stroke-width="1.17822" stroke-linecap="round"/>
<path d="M109.647 275.371C109.277 276.599 108.542 280.496 107.252 281.082C106.35 276.812 105.74 270.885 104.838 266.618C104.095 263.096 103.004 259.234 103.584 255.616C103.94 253.399 105.368 250.293 107.959 250.164C109.979 250.064 110.963 253.304 111.402 254.82C112.312 257.961 112.615 260.962 112.174 264.213C111.658 268.014 110.754 271.699 109.647 275.371Z" fill="#FFF6EA" stroke="#0038FF" stroke-width="1.17822" stroke-linecap="round"/>
<path d="M97.1875 244.061C98.2363 243.699 97.8405 238.039 97.9695 236.962C98.4119 233.269 99.7793 229.845 100.402 226.197C100.654 224.721 100.386 219.086 98.0892 218.878C96.1246 218.7 94.9852 220.789 94.7168 222.407C93.5972 229.157 97.6274 235.824 96.8631 242.525" stroke="#0038FF" stroke-width="1.17822" stroke-linecap="round"/>
<path d="M117.189 295.32C112.923 295.275 75.7934 291.736 71.2237 290.453L73.1421 315.957C74.8754 316.234 116.375 316.514 123.491 317.708C131.859 319.111 140.094 321.1 148.432 322.634C156.956 324.201 165.6 325.206 174.196 326.284C182.559 327.333 191.211 328.954 199.751 328.274L199.751 328.274C200.995 328.175 206.692 327.722 206.437 324.414C206.236 321.808 202.952 321.911 200.818 321.578C198.685 321.245 183.843 317.666 184.34 316.9C185.036 315.827 200.136 317.197 202.698 316.528C205.261 315.859 209.355 313.767 210.348 310.131C211.187 307.061 204.984 308.025 203.352 308.081C201.72 308.136 185.601 308.321 184.9 308.054C183.632 307.571 198.4 303.604 198.729 303.442C200.596 302.521 203.785 302.245 204.689 299.504C205.391 297.373 204.066 295.275 202.806 294.816C200.967 294.145 199.443 295.36 197.147 296.071C194.851 296.781 185.226 298.081 184.751 297.209C184.434 296.628 198.178 291.144 198.497 290.889C201.906 288.163 198.887 285.003 196.387 284.009C193.31 282.785 189.831 283.899 186.677 284.855C182.597 286.091 178.506 287.321 174.442 288.685C170.436 290.029 166.475 291.817 162.405 292.647C160.111 293.115 156.383 293.94 154.276 292.458C153.404 291.844 157.251 289.985 157.473 289.864C158.703 289.189 160.392 288.428 160.997 286.67C162.2 283.175 160.432 276.57 157.876 276.412C156.706 276.34 153.042 278.531 152.002 279.123C149.279 280.674 146.671 282.723 143.897 284.085C135.937 287.992 125.407 295.407 117.189 295.32Z" fill="#FFF6EA" stroke="#0033E6" stroke-width="1.75532" stroke-linecap="round"/>
<path d="M62.1387 267.137C62.1387 267.137 93.1251 263.67 85.334 273.907L73.7991 303.372L65.3015 338.227C52.9615 336.984 46.4247 333.241 35.4612 320.799C20.1405 294.445 22.8819 278.827 48.1246 249.458L62.1387 267.137Z" fill="#FFF6EA"/>
<path d="M80.3188 230.024C68.6085 235.721 49.704 243.838 40.3226 253.219C32.6924 260.85 26.4047 273.788 24.274 284.441C21.6068 297.777 25.3652 307.114 33.0602 317.644C38.5615 325.172 47.7044 333.253 56.3023 337.074C58.4398 338.024 62.2665 337.846 64.603 338.365C67.5463 339.019 68.1255 328.918 68.4767 327.359C72.3175 310.316 72.0615 299.272 81.9488 284.441C84.3859 280.786 83.9548 280.928 87.2147 274.534" stroke="#0033E6" stroke-width="4.01216" stroke-linecap="round"/>
<path d="M204.246 392.324C204.449 392.368 204.578 392.568 204.534 392.771C204.491 392.974 204.291 393.103 204.088 393.06L195.806 391.282C195.603 391.238 195.474 391.038 195.518 390.835C195.561 390.632 195.761 390.503 195.964 390.546L204.246 392.324ZM206.595 362.852C204.244 365.939 201.596 368.991 198.736 371.794C195.581 374.886 190.696 375.097 185.88 374.352C182.115 373.769 178.294 372.583 175.225 371.631C174.355 371.361 173.546 371.11 172.816 370.897C168.413 369.611 163.904 368.541 159.395 367.47C156.592 366.805 153.79 366.139 151.014 365.422C144.95 363.856 138.806 362.309 132.737 360.83L132.655 360.81L132.622 360.802C127.108 359.459 120.168 357.768 115.307 354.938C113.398 353.827 112.277 352.535 111.632 351.11C110.991 349.695 110.834 348.18 110.798 346.651C110.744 344.362 111.153 342.064 111.685 339.813C111.917 338.828 112.17 337.866 112.419 336.916C112.747 335.664 113.07 334.434 113.334 333.202L115.091 325.02C115.233 324.358 115.342 323.648 115.455 322.908C115.567 322.173 115.684 321.408 115.842 320.654C116.158 319.149 116.646 317.645 117.636 316.419C119.03 314.693 120.387 313.139 122.232 311.649C123.084 310.961 124.313 310.426 125.559 309.977C126.284 309.717 127.055 309.472 127.775 309.244C128.278 309.085 128.755 308.934 129.175 308.79C130.685 308.273 132.414 308.05 134.126 307.865C134.375 307.838 134.623 307.812 134.871 307.786C136.342 307.632 137.781 307.482 139.092 307.181C141.295 306.675 143.415 306.385 145.897 306.657C151.864 307.313 157.739 308.452 163.613 309.591C165.381 309.933 167.149 310.276 168.919 310.605C175.448 311.821 181.767 313.198 188.213 314.929C192.776 316.154 197.15 317.47 200.796 320.212C204.308 322.853 206.078 326.758 207.588 330.09C207.68 330.294 207.772 330.497 207.864 330.697C210.899 337.356 212.433 344.328 211.002 350.994C210.956 351.205 210.911 351.416 210.866 351.628C210.04 355.503 209.203 359.426 206.595 362.852Z" fill="#0033E6" stroke="#FFF6EA" stroke-width="0.75228" stroke-linecap="round"/>
<path d="M179.592 315.514C181.08 315.957 182.23 316.871 183.304 317.793C185.79 319.927 188.414 321.984 190.317 324.485C191.36 325.855 195.131 332.489 192.531 333.526C191.23 334.044 186.804 331.21 185.887 330.708C182.533 328.868 179.801 326.897 177.951 324.016C175.811 320.682 174.965 317.647 171.535 314.76C170.544 313.925 168.66 311.854 168.905 314.105C169.447 319.088 170.745 323.425 173.532 328.037C175.455 331.217 171.079 331.622 168.595 329.85C163.19 325.993 163.74 322.16 162.74 317.443C162.146 314.64 160.295 312.845 158.207 310.597C157.256 309.572 157.26 311.139 157.146 311.67C156.815 313.212 156.139 314.87 156.527 316.489C156.815 317.692 158.567 323.885 156.66 324.577C152.953 325.922 148.303 319.172 148.575 316.859C148.881 314.257 149.811 311.816 150.578 309.357C151.374 306.807 153.562 307.323 156.291 307.909C163.716 309.503 170.955 312.358 178.27 313.929" stroke="#FFF6EA" stroke-width="0.908806" stroke-linecap="round"/>
<path d="M221.383 317.071C225.401 315.636 259.341 300.17 263.241 297.466L269.754 322.198C268.206 323.027 229.072 336.839 222.735 340.29C215.284 344.349 208.149 348.917 200.769 353.089C193.224 357.353 185.382 361.125 177.608 364.95C170.046 368.671 162.397 373.029 154.103 375.174L154.103 375.174C152.895 375.486 147.362 376.918 146.523 373.707C145.863 371.178 149 370.203 150.908 369.193C152.816 368.182 165.677 359.954 164.956 359.391C163.949 358.604 150.123 364.829 147.483 365.033C144.842 365.237 140.289 364.597 138.163 361.484C136.369 358.856 142.547 357.742 144.107 357.262C145.668 356.781 160.964 351.694 161.539 351.213C162.58 350.343 147.326 351.414 146.962 351.368C144.897 351.107 141.792 351.888 140.043 349.591C138.684 347.807 139.252 345.391 140.293 344.545C141.812 343.311 143.649 343.962 146.051 343.885C148.453 343.807 157.975 341.893 158.14 340.913C158.25 340.261 143.468 339.564 143.083 339.427C138.972 337.963 140.793 333.991 142.832 332.235C145.341 330.074 148.993 329.991 152.286 329.865C156.547 329.702 160.815 329.528 165.101 329.491C169.326 329.454 173.654 329.851 177.772 329.306C180.093 329 183.886 328.563 185.394 326.474C186.018 325.609 181.775 325.108 181.526 325.065C180.142 324.829 178.298 324.662 177.152 323.197C174.874 320.287 174.389 313.466 176.753 312.482C177.835 312.032 182.014 312.907 183.19 313.128C186.27 313.705 189.405 314.79 192.471 315.171C201.27 316.266 213.644 319.836 221.383 317.071Z" fill="#FFF6EA" stroke="#0033E6" stroke-width="1.75532" stroke-linecap="round"/>
<path d="M160.226 231.463C160.947 229.604 162.37 228.084 163.809 226.741C164.706 225.904 166.085 224.594 167.111 224.108C167.811 223.702 168.593 223.299 169.416 223.175C170.887 222.955 172.404 223.037 173.888 223.037L173.98 223.037C175.209 223.037 176.373 223.037 177.584 223.309C181.018 224.082 184.318 225.557 185.997 228.83C186.768 230.334 187.402 231.904 187.706 233.578C188.078 235.626 188.537 237.722 188.384 239.82C188.233 241.888 187.713 243.654 186.769 245.492C186.284 246.439 185.666 247.297 185.155 248.229C184.546 249.342 184.101 250.548 183.299 251.544C182.197 252.913 180.959 253.417 179.267 253.651C178.085 253.814 176.858 253.729 175.667 253.729C174.093 253.729 172.464 253.671 170.97 253.146C170.068 252.829 169.185 252.302 168.324 251.885C166.693 251.096 165.026 250.33 163.464 249.412C161.289 248.134 158.715 246.075 158.292 243.399C158.047 241.845 158.126 240.142 158.383 238.599C158.786 236.179 159.339 233.754 160.226 231.463Z" fill="#FFF6EA" stroke="#0033E6" stroke-width="1.00304" stroke-linecap="round"/>
<path d="M167.188 224.411C167.259 225.198 167.56 226.184 167.88 226.903C168.331 227.919 168.122 226.615 168.122 226.903" stroke="#0033E6" stroke-width="1.00304" stroke-linecap="round"/>
<path d="M181.516 225.346C180.705 225.447 179.212 228.46 179.335 228.46" stroke="#0033E6" stroke-width="1.00304" stroke-linecap="round"/>
<path d="M187.747 233.755C186.583 233.755 185.468 234.067 184.32 234.067" stroke="#0033E6" stroke-width="1.00304" stroke-linecap="round"/>
<path d="M186.189 245.28C184.951 245.28 183.732 244.969 182.451 244.969" stroke="#0033E6" stroke-width="1.00304" stroke-linecap="round"/>
<path d="M166.564 250.576C166.564 249.744 166.843 249.085 167.187 248.396" stroke="#0033E6" stroke-width="1.00304" stroke-linecap="round"/>
<path d="M168.25 235.726C168.97 233.867 170.394 232.347 171.832 231.004C172.729 230.167 174.108 228.857 175.135 228.371C175.835 227.965 176.617 227.562 177.44 227.438C178.911 227.218 180.428 227.3 181.912 227.3L182.003 227.3C183.232 227.3 184.397 227.3 185.607 227.572C189.042 228.345 192.342 229.82 194.02 233.093C194.792 234.597 195.425 236.167 195.73 237.841C196.102 239.889 196.56 241.985 196.407 244.083C196.256 246.151 195.736 247.917 194.793 249.755C194.307 250.702 193.689 251.56 193.178 252.492C192.569 253.605 192.124 254.811 191.322 255.807C190.221 257.176 188.982 257.68 187.29 257.914C186.109 258.077 184.882 257.992 183.69 257.992C182.116 257.992 180.487 257.933 178.994 257.409C178.092 257.092 177.209 256.565 176.348 256.148C174.717 255.358 173.05 254.593 171.487 253.675C169.312 252.397 166.738 250.338 166.316 247.662C166.07 246.108 166.149 244.405 166.406 242.862C166.81 240.442 167.362 238.017 168.25 235.726Z" fill="#FFF6EA" stroke="#0033E6" stroke-width="1.00304" stroke-linecap="round"/>
<path d="M175.215 228.674C175.286 229.461 175.588 230.447 175.907 231.166C176.359 232.183 176.149 230.878 176.149 231.166" stroke="#0033E6" stroke-width="1.00304" stroke-linecap="round"/>
<path d="M189.539 229.609C188.729 229.71 187.236 232.724 187.359 232.724" stroke="#0033E6" stroke-width="1.00304" stroke-linecap="round"/>
<path d="M195.774 238.019C194.61 238.019 193.495 238.33 192.348 238.33" stroke="#0033E6" stroke-width="1.00304" stroke-linecap="round"/>
<path d="M194.212 249.543C192.974 249.543 191.755 249.232 190.475 249.232" stroke="#0033E6" stroke-width="1.00304" stroke-linecap="round"/>
<path d="M174.588 254.839C174.588 254.007 174.866 253.347 175.211 252.658" stroke="#0033E6" stroke-width="1.00304" stroke-linecap="round"/>
<path d="M254 228.054L258.938 221.009L276.375 241.446L284.313 279.832L280.93 312.06L271.691 340.358L246.186 312.06L230.041 277.643C232.012 279.898 287.573 263.95 254 228.054Z" fill="#FFF6EA"/>
<path d="M252.572 218.582C259.236 221.75 265.456 226.374 270.251 232.584C279.628 244.727 282.938 261.163 283.448 276.929C283.814 288.255 282.958 299.403 280.532 310.399C279.728 314.039 278.391 317.253 277.366 320.795C276.719 323.027 276.051 325.625 275.116 327.7C274.252 329.618 273.485 332.038 273.083 334.164C272.823 335.541 272.188 336.835 272.117 338.23C272.1 338.559 271.895 339.385 271.8 339.764C271.555 340.753 270.816 338.854 270.601 338.575C265.934 332.532 260.408 327.519 255.754 321.466C249.995 313.977 242.828 307.491 237.742 299.37C234.315 293.898 230.665 288.717 228.028 282.645C227.312 280.997 226.65 279.205 225.795 277.658C224.963 276.153 226.764 275.925 227.844 275.605C232.616 274.193 236.649 272.266 239.358 267.262C240.72 264.747 241.74 260.587 241.74 257.584" stroke="#0033E6" stroke-width="3.51064" stroke-linecap="round"/>
<path d="M82.3867 75.4531C85.1324 75.4531 89.1643 76.1797 91.8123 75.4231C92.207 75.3103 89.3422 66.7964 89.1407 66.0576C89.085 65.8533 88.1154 62.1853 87.7899 62.1853C87.3997 62.1853 87.7899 62.9658 87.7899 63.356C87.7899 64.3666 87.7899 65.3772 87.7899 66.3878C87.7899 70.0704 87.1649 72.8363 84.548 75.4531" stroke="#0033E6" stroke-width="1.16962" stroke-linecap="round"/>
<path d="M56 52C59 57 61.5 62.5 69.5 66C71.1549 66.5814 79.6987 69.7934 81.3061 70.4702C83.1253 71.2362 85.8107 71.2751 87.7899 71.6709" stroke="#0033E6" stroke-width="1.16962" stroke-linecap="round"/>
<path d="M38.2265 35.2531C39.2324 35.296 40.2155 35.3386 41.176 35.3809C42.1456 35.4233 43.1152 35.4656 44.0847 35.508C44.3475 35.5212 44.519 35.5692 44.5993 35.6521C44.6887 35.7351 44.7312 35.9171 44.7268 36.1982C44.7231 36.4339 44.6922 36.6737 44.6339 36.9176C44.5757 37.1615 44.5492 37.4059 44.5544 37.6508C44.5619 38.331 44.5693 39.0157 44.5767 39.705C44.5932 40.3853 44.6234 41.0658 44.6671 41.7466C44.7049 42.2278 44.6391 42.6665 44.4697 43.0628C44.3003 43.4592 44.0233 43.7767 43.6387 44.0155C42.8328 44.5198 42.0063 44.8967 41.1591 45.1464C40.321 45.3963 39.426 45.5137 38.4741 45.4988C38.0571 45.4923 37.6404 45.4676 37.224 45.4248C36.8164 45.3912 36.4094 45.3259 36.0029 45.2289C35.5962 45.1409 35.1993 45.0078 34.8122 44.8294C34.425 44.6601 34.0522 44.4367 33.6938 44.159C32.986 43.613 32.3746 42.9913 31.8596 42.2941C31.3537 41.5971 31.022 40.7758 30.8645 39.8303C30.757 39.1667 30.6449 38.5075 30.5282 37.8528C30.4115 37.1981 30.3267 36.5348 30.2738 35.863C30.2358 35.3909 30.2341 34.9194 30.2687 34.4484C30.3125 33.9685 30.3473 33.4839 30.3731 32.9947C30.3949 32.7593 30.4257 32.5285 30.4655 32.3024C30.5053 32.0764 30.518 31.8454 30.5036 31.6094C30.4746 31.1465 30.5176 30.7164 30.6326 30.3193C30.7568 29.9132 30.9127 29.5121 31.1003 29.1161C31.6064 28.0631 32.2592 27.2028 33.0585 26.5353C33.8578 25.8677 34.7948 25.3837 35.8695 25.0831C36.2246 24.9889 36.5842 24.8994 36.9482 24.8144C37.3123 24.7294 37.6803 24.6762 38.0525 24.6549L38.1748 24.6568C38.4377 24.6609 38.6955 24.7012 38.9482 24.7777C39.2101 24.8453 39.472 24.9174 39.7337 24.994C40.0045 25.0708 40.2661 25.161 40.5184 25.2647C40.7797 25.3686 41.0412 25.4588 41.303 25.5354C41.7455 25.6512 42.1326 25.8295 42.4643 26.0705C42.8053 26.3025 43.0673 26.6512 43.2504 27.1165C43.3206 27.2717 43.3952 27.4271 43.4744 27.5824C43.5628 27.7289 43.6511 27.8754 43.7395 28.0218C43.9693 28.4063 44.1625 28.8083 44.3191 29.2278C44.4759 29.6383 44.5643 30.075 44.5842 30.5377C44.2634 30.7594 43.967 30.8681 43.695 30.8638C43.2689 30.8572 42.9608 30.5576 42.7706 29.9653C42.5978 29.4185 42.3378 28.9384 41.9907 28.5249C41.6526 28.1116 41.3007 27.7071 40.9352 27.3115C40.8548 27.2286 40.7248 27.1359 40.5451 27.0333C40.3655 26.9217 40.1721 26.8189 39.965 26.725C39.767 26.6312 39.5688 26.5511 39.3703 26.4845C39.1811 26.409 39.0368 26.3614 38.9373 26.3417C38.7202 26.3111 38.5028 26.2941 38.2853 26.2907C38.0677 26.2873 37.85 26.2929 37.6321 26.3076C37.4235 26.3134 37.2102 26.3237 36.9924 26.3384C36.8925 26.3459 36.7923 26.3761 36.6917 26.4289C36.5913 26.4727 36.4912 26.4938 36.3915 26.4922L36.3643 26.4918C36.3281 26.4912 36.2963 26.4907 36.2691 26.4903C36.2421 26.4808 36.2149 26.4759 36.1878 26.4754C35.8433 26.47 35.5426 26.5606 35.2858 26.7469C35.0382 26.9244 34.8218 27.1341 34.6367 27.376C34.1 28.0659 33.6216 28.7928 33.2016 29.557C32.7816 30.3212 32.501 31.1601 32.3597 32.0737C32.3101 32.3449 32.2786 32.621 32.2651 32.9019C32.2609 33.1738 32.2611 33.4504 32.2657 33.7316C32.2735 34.3936 32.2813 35.0557 32.289 35.7178C32.3059 36.38 32.3362 37.0469 32.3801 37.7186C32.4161 38.3176 32.5112 38.904 32.6654 39.4776C32.8287 40.0515 33.0422 40.6034 33.3059 41.1334C33.5607 41.6543 33.9127 42.0497 34.3619 42.3197C34.811 42.5897 35.3021 42.7878 35.8351 42.914C36.2326 43.0109 36.6257 43.0942 37.0145 43.1637C37.4035 43.2242 37.8014 43.2939 38.2082 43.3728C38.3258 43.3928 38.4434 43.4082 38.5611 43.4192C38.6788 43.4301 38.7966 43.4364 38.9144 43.4383C39.4946 43.4474 40.0535 43.37 40.591 43.2061C41.1378 43.0333 41.6805 42.8333 42.219 42.6059C42.4288 42.5276 42.5757 42.412 42.6597 42.2592C42.7438 42.0973 42.7832 41.8984 42.7778 41.6626C42.7619 40.946 42.7549 40.2341 42.7569 39.5269C42.7681 38.8107 42.7749 38.0854 42.7773 37.3509C42.2891 37.2617 41.8097 37.1862 41.3391 37.1244C40.8686 37.0626 40.3931 37.028 39.9126 37.0205C39.6497 37.0163 39.3821 37.0258 39.1097 37.0487C38.8375 37.0626 38.565 37.09 38.2923 37.1311C38.1767 36.9842 38.111 36.8381 38.0952 36.6928C38.0793 36.5474 38.0862 36.3979 38.1158 36.2442C38.1455 36.0815 38.1753 35.9187 38.205 35.756C38.2439 35.5934 38.251 35.4257 38.2265 35.2531Z" fill="#0033E6"/>
<path d="M58.4728 28.3495C58.548 28.1784 58.696 27.9948 58.9167 27.7988C59.1375 27.5937 59.3763 27.4025 59.633 27.2252C59.8898 27.0388 60.128 26.8793 60.3477 26.7467C60.5765 26.6143 60.7274 26.5305 60.8005 26.4954C61.0929 26.3549 61.3932 26.287 61.7014 26.2919C61.9915 26.2964 62.3031 26.3738 62.6362 26.5241C62.7894 26.59 62.9153 26.6509 63.0142 26.7069C63.1131 26.7628 63.1845 26.8319 63.2286 26.9142C63.2818 26.9876 63.3122 27.0788 63.3195 27.1877C63.3269 27.2966 63.3201 27.4416 63.2991 27.6226C63.279 27.7492 63.2499 27.8712 63.2118 27.9885C63.1737 28.1058 63.14 28.2276 63.1108 28.3541C62.6967 28.1663 62.2811 28.0691 61.8641 28.0626C61.3292 28.0542 60.8468 28.1691 60.4169 28.4072C59.9961 28.6454 59.633 28.9571 59.3278 29.3422C59.0317 29.7184 58.8028 30.1501 58.641 30.6372C58.4792 31.1243 58.3901 31.608 58.3735 32.0883C58.3352 33.3753 58.2789 34.653 58.2046 35.9213C58.1305 37.1805 58.0698 38.4536 58.0224 39.7404C58.0101 39.9488 58.0384 40.1669 58.1074 40.3946C58.1854 40.6226 58.2586 40.8731 58.3268 41.1462C58.1539 41.1888 57.9717 41.2403 57.7804 41.3008C57.5981 41.3614 57.4071 41.3947 57.2075 41.4007L57.1124 41.3992C56.8132 41.3945 56.6012 41.3232 56.4764 41.1852C56.3609 41.0383 56.3103 40.7927 56.3248 40.4483C56.3579 39.4877 56.3956 38.5316 56.4377 37.5802C56.4799 36.6197 56.5177 35.6546 56.551 34.6849C56.5522 34.6124 56.5578 34.5399 56.568 34.4675C56.5782 34.3951 56.5839 34.3227 56.585 34.2502C56.6195 33.2079 56.6537 32.1793 56.6878 31.1643C56.7219 30.1402 56.7563 29.107 56.7907 28.0647C56.7931 27.9106 56.7909 27.761 56.7841 27.6158C56.7864 27.4708 56.7705 27.33 56.7363 27.1934C56.6852 26.984 56.6922 26.83 56.7572 26.7313C56.8222 26.6326 56.9503 26.5575 57.1416 26.5061C57.2781 26.4719 57.3918 26.4465 57.4828 26.4298C57.5828 26.4132 57.669 26.4055 57.7416 26.4067C57.8957 26.4091 57.999 26.4696 58.0516 26.5883C58.1041 26.707 58.1596 26.9255 58.2181 27.2438C58.2266 27.2802 58.2346 27.3483 58.2421 27.4482C58.2588 27.5391 58.2709 27.6391 58.2782 27.748C58.2947 27.8571 58.3066 27.9615 58.3141 28.0614C58.3218 28.1522 58.3252 28.2203 58.3245 28.2656C58.3514 28.2841 58.3739 28.2981 58.3919 28.3074C58.4189 28.3169 58.4459 28.331 58.4728 28.3495Z" fill="#0033E6"/>
<path d="M70.5092 37.8261C70.4051 38.1055 70.3557 38.3677 70.3609 38.6126C70.3662 38.8575 70.4033 39.0894 70.4724 39.3081C70.5506 39.5269 70.6515 39.7416 70.7752 39.9521C70.899 40.1535 71.0228 40.3504 71.1468 40.5427C71.368 40.8908 71.6121 41.2256 71.8791 41.5471C72.1553 41.8597 72.4361 42.1679 72.7215 42.4716C73.0157 42.7936 73.325 43.0206 73.6494 43.1526C73.9739 43.2756 74.3537 43.3404 74.7888 43.3473C75.2517 43.3182 75.7057 43.2845 76.1506 43.2462C76.5956 43.1987 77.0371 43.0878 77.4751 42.9133C77.6849 42.835 77.8902 42.752 78.0911 42.6645C78.3011 42.568 78.4713 42.4166 78.6014 42.21C78.6942 42.0755 78.8086 42.0093 78.9446 42.0114C79.008 42.0124 79.0757 42.0361 79.1475 42.0826C79.2193 42.129 79.2866 42.1754 79.3493 42.2218C79.4122 42.259 79.4796 42.3009 79.5514 42.3473C79.595 43.0371 79.3419 43.5636 78.7922 43.9268C78.059 44.4231 77.2869 44.8009 76.4758 45.0603C75.6739 45.3107 74.8371 45.4744 73.9654 45.5514C73.9018 45.5595 73.8383 45.563 73.7749 45.562C73.7205 45.5612 73.6661 45.5603 73.6117 45.5595C72.9408 45.549 72.3406 45.3763 71.8108 45.0416C71.2811 44.7069 70.7979 44.2913 70.3614 43.7948C69.8091 43.1605 69.3664 42.4825 69.0331 41.761C68.7089 41.0396 68.4991 40.2519 68.4036 39.3981C68.34 38.8258 68.3487 38.2728 68.4296 37.7391C68.5105 37.2054 68.6051 36.6673 68.7133 36.125C68.8119 35.6187 68.9375 35.1265 69.0901 34.6483C69.2428 34.1611 69.4091 33.674 69.589 33.1872C69.807 32.5831 70.1322 32.0804 70.5647 31.6791C70.9973 31.2688 71.5103 30.9368 72.1037 30.6831C72.3137 30.5867 72.5326 30.5085 72.7602 30.4486C72.988 30.3796 73.2113 30.3015 73.4303 30.2142C74.0231 29.9968 74.5915 29.8924 75.1354 29.9009C75.8063 29.9114 76.4386 30.0664 77.0323 30.3658C77.6353 30.6564 78.2189 31.0282 78.783 31.4814C78.9084 31.5831 79.0197 31.7163 79.1168 31.881C79.2232 32.0369 79.3114 32.1969 79.3813 32.3612C79.6091 32.8726 79.8096 33.388 79.9828 33.9076C80.1561 34.4181 80.2201 34.9632 80.1748 35.5428C80.1523 35.8235 80.1433 36.1045 80.148 36.3857C80.1619 36.6579 80.1575 36.9344 80.135 37.2151C80.1347 37.2333 80.1298 37.2559 80.1203 37.2829C80.1199 37.3101 80.1195 37.3373 80.1191 37.3645C80.0895 37.5182 80.015 37.644 79.8955 37.7418C79.7763 37.8306 79.6396 37.8738 79.4855 37.8714C79.4583 37.871 79.4265 37.8705 79.3903 37.8699C79.3631 37.8695 79.336 37.86 79.3091 37.8415C79.0835 37.7745 78.8392 37.7389 78.5763 37.7348C78.3678 37.7315 78.1591 37.7419 77.9502 37.7658C77.7504 37.7808 77.5463 37.7867 77.3378 37.7834L77.2426 37.7819C76.744 37.7741 76.2452 37.7844 75.746 37.8129C75.2559 37.8415 74.7614 37.8609 74.2625 37.8713C74.072 37.8773 73.877 37.8788 73.6776 37.8757C73.4872 37.8727 73.2923 37.8697 73.0929 37.8665L71.2707 37.838L70.5092 37.8261ZM78.2838 36.4381C78.3538 35.4417 78.1899 34.614 77.7922 33.9549C77.4037 33.2869 76.8004 32.7289 75.9822 32.2808C75.7127 32.1224 75.447 32.0095 75.1851 31.9419C74.9232 31.8743 74.6653 31.8385 74.4115 31.8346C73.9401 31.8272 73.4853 31.9153 73.0472 32.0988C72.6183 32.2735 72.1976 32.5026 71.7851 32.7863C71.4919 32.9812 71.257 33.2133 71.0805 33.4826C70.9132 33.7429 70.7864 34.0266 70.7 34.3335C70.6135 34.6405 70.5632 34.9616 70.5489 35.2968C70.5345 35.6321 70.5291 35.9766 70.5327 36.3303C71.268 36.2783 71.994 36.2398 72.7107 36.2148C73.4276 36.1807 74.1441 36.1692 74.8603 36.1804C75.4314 36.1894 76.0022 36.2165 76.5728 36.2617C77.1435 36.2978 77.7138 36.3566 78.2838 36.4381Z" fill="#0033E6"/>
<path d="M96.4524 24.1997C96.4547 24.0546 96.4522 23.9231 96.445 23.8051C96.4379 23.6781 96.4444 23.5558 96.4643 23.4382C96.5051 23.1487 96.6086 22.9145 96.7746 22.7358C96.9406 22.557 97.1553 22.4561 97.4186 22.433C97.455 22.4245 97.4868 22.4205 97.514 22.4209C97.5502 22.4215 97.582 22.422 97.6092 22.4224C97.7995 22.4254 97.9483 22.4776 98.0556 22.579C98.172 22.6715 98.2556 22.8315 98.3065 23.059C98.459 23.7415 98.548 24.4275 98.5735 25.117C98.608 25.8067 98.5882 26.4955 98.5139 27.1835C98.4613 27.6451 98.4135 28.0977 98.3702 28.5414C98.3361 28.9851 98.3245 29.4383 98.3353 29.901C98.3571 30.8262 98.3654 31.7422 98.3603 32.6488C98.3552 33.5555 98.3499 34.4713 98.3445 35.3961C98.3507 35.5775 98.3388 35.7587 98.3088 35.9396C98.2789 36.1114 98.2444 36.2877 98.2053 36.4684C98.1549 36.794 98.1 37.1151 98.0406 37.4315C97.9812 37.748 97.9715 38.0788 98.0115 38.424C98.0345 38.6873 98.0077 38.9544 97.9309 39.2252C97.8541 39.496 97.7683 39.7622 97.6736 40.0236C97.5978 40.231 97.4995 40.429 97.3786 40.6175C97.2667 40.8152 97.1504 41.0038 97.0298 41.1833C96.76 41.6143 96.4461 41.9766 96.0878 42.2702C95.7296 42.5639 95.2826 42.7337 94.7469 42.7797C94.3112 42.8091 93.8754 42.8477 93.4394 42.8952C93.0123 42.952 92.5812 42.977 92.1461 42.9702C91.7925 42.9647 91.4304 42.9273 91.0597 42.858C90.6981 42.7888 90.3461 42.6836 90.0037 42.5422C89.6612 42.4099 89.3375 42.2416 89.0324 42.0373C88.7271 41.8421 88.4542 41.6112 88.2135 41.3445C88.0618 41.1879 87.9011 41.0313 87.7312 40.8745C87.5703 40.7269 87.3916 40.5608 87.195 40.3764C87.2882 40.2146 87.3723 40.0528 87.4474 39.8907C87.5315 39.7288 87.629 39.5853 87.7398 39.46C87.9708 39.1826 88.186 39.0454 88.3855 39.0485C88.4852 39.0501 88.589 39.0834 88.6967 39.1486C88.8045 39.2138 88.9209 39.3108 89.0458 39.4397C89.5814 39.9831 90.1688 40.4003 90.808 40.6914C91.4563 40.9827 92.1657 41.1343 92.9363 41.1464C93.589 41.1566 94.1216 41.0199 94.5341 40.7362C94.9555 40.4617 95.2754 40.0133 95.4937 39.391C95.7117 38.7869 95.889 38.1776 96.0255 37.5632C96.162 36.9578 96.2579 36.3291 96.3135 35.6771C95.857 35.8785 95.4187 36.0711 94.9987 36.255C94.5878 36.439 94.1724 36.6183 93.7526 36.7931C93.1229 37.0462 92.518 37.1682 91.9378 37.1591C91.267 37.1486 90.5944 36.9613 89.92 36.5971C89.0121 36.0932 88.3195 35.4476 87.8421 34.6603C87.374 33.8641 87.0478 32.9795 86.8636 32.0064C86.713 31.197 86.6711 30.3984 86.7379 29.6105C86.8046 28.8227 86.9576 28.0317 87.1967 27.2375C87.2637 27.0118 87.3262 26.7861 87.3841 26.5603C87.4421 26.3346 87.5045 26.1088 87.5715 25.8832C87.8214 24.9804 88.2363 24.2569 88.816 23.7129C89.396 23.1598 90.1322 22.7587 91.0247 22.5097C91.2344 22.4405 91.4391 22.3938 91.639 22.3697C91.8479 22.3458 92.0566 22.3355 92.2651 22.3387C92.945 22.3494 93.595 22.5364 94.2149 22.8997C94.5743 23.1139 94.9337 23.3235 95.2932 23.5287C95.6618 23.7339 96.0482 23.9576 96.4524 24.1997ZM96.5402 29.8864C96.5304 29.3513 96.5296 28.8254 96.5377 28.3086C96.5459 27.7829 96.5542 27.2525 96.5626 26.7177C96.5637 26.6451 96.5695 26.5682 96.5798 26.4867C96.5902 26.4053 96.5729 26.3506 96.528 26.3227C96.3671 26.1751 96.2154 26.0186 96.0729 25.8531C95.9304 25.6877 95.7834 25.5221 95.6318 25.3566C95.4893 25.1911 95.3331 25.0345 95.1631 24.8868C95.0022 24.7392 94.8183 24.6139 94.6114 24.5109C94.2874 24.3517 93.9534 24.2558 93.6094 24.2232C93.2745 24.1817 92.9398 24.1311 92.6052 24.0714C92.5328 24.0612 92.4604 24.0556 92.3879 24.0544C92.3246 24.0444 92.2566 24.0388 92.1841 24.0376C91.5133 24.0271 90.9606 24.2905 90.526 24.8278C90.4243 24.9531 90.3314 25.0922 90.2474 25.245C90.1726 25.3889 90.0754 25.5189 89.9557 25.6349C89.67 25.9297 89.4383 26.2479 89.2606 26.5897C89.0921 26.9317 88.9596 27.2832 88.8633 27.6444C88.767 28.0056 88.7022 28.3764 88.6691 28.7567C88.636 29.1279 88.6166 29.4994 88.6108 29.8711C88.5983 30.6688 88.7086 31.4458 88.9415 32.2021C89.1837 32.9494 89.4897 33.6796 89.8593 34.3927C89.9122 34.4933 89.9785 34.5986 90.0584 34.7087C90.1475 34.8098 90.2461 34.8839 90.3542 34.9309C90.804 35.1556 91.2365 35.3301 91.6517 35.4545C92.0761 35.5699 92.5421 35.6316 93.0497 35.6396C93.322 35.6257 93.5811 35.5844 93.827 35.5157C94.0819 35.4472 94.3151 35.3239 94.5264 35.1459C94.7927 34.9324 95.059 34.719 95.3253 34.5055C95.6008 34.2831 95.8674 34.0561 96.1249 33.8244C96.2168 33.7442 96.2955 33.6411 96.3609 33.5152C96.4265 33.3802 96.4648 33.2539 96.4757 33.1362C96.5023 32.5925 96.5153 32.0532 96.5146 31.5182C96.5231 30.9743 96.5317 30.4304 96.5402 29.8864Z" fill="#0033E6"/>
</g>
<rect x="1.16007" y="1.16007" width="319.68" height="447.68" rx="9.83993" stroke="#0033E6" stroke-width="2.32015"/>
<defs>
<clipPath id="clip0_479_458">
<rect width="322" height="450" rx="11" fill="white"/>
</clipPath>
</defs>
</svg>
