<svg width="325" height="455" viewbox="0 0 325 455" fill="none" xmlns="http://www.w3.org/2000/svg">
  <g clip-path="url(#clip0_158_414)">
    <rect x="3" y="3" width="319.271" height="448.835" rx="2.19458" fill="#FFF6EA"/>
    <path d="M92.3218 2.37842C88.701 4.70609 79.5313 17.8214 77.3012 21.2904C74.1074 26.2586 70.5857 31.1097 67.6228 36.2182C62.9037 44.3546 58.7657 52.2388 58.6825 61.8908C58.6172 69.4687 58.938 75.5289 57.2472 83.0932C55.9084 89.0821 54.0629 94.8506 53.1461 100.81C51.9458 108.611 47.6374 116.112 45.4361 123.694C40.5446 140.542 41.3761 159.39 41.3761 176.802C41.3761 201.588 38.3645 226.275 37.111 251.031C36.5739 261.639 36.3441 274.875 42.7295 283.921C46.768 289.643 46.7141 293.473 46.5024 300.777C46.1872 311.651 42.7126 322.132 42.2783 333.052C41.936 341.66 45.7289 349.534 44.6569 358.109C42.2911 377.036 26.6958 392.413 16.6058 407.773C11.4238 415.661 6.70801 424.024 4.22063 433.199C3.66259 435.258 2.00325 439 2 442.5" stroke="#0033E6" stroke-width="1.31675" stroke-linecap="round"/>
    <path d="M202.492 452.047C204.224 449.604 203.228 444.446 203.212 441.703C203.165 433.38 202.247 425.152 202.892 416.827C203.599 407.715 208.067 398.611 213.053 391.129C215.7 387.158 218.414 383.544 222.494 381.113C225.621 379.25 228.879 377.932 231.855 375.777C238.467 370.988 244.151 365.367 252.377 364.488C259.813 363.693 267.063 365.914 273.94 368.716C277.944 370.348 285.582 373.239 290.101 371.384C294.408 369.617 298.02 362.864 300.102 358.946C301.629 356.074 301.706 354.563 301.302 351.557C299.691 339.569 302.327 327.205 300.422 315.187C299.127 307.014 296.87 299.262 296.822 290.886C296.792 285.686 299.279 284.897 302.182 281.321C308.422 273.638 308.343 259.984 308.343 250.575C308.343 244.668 307.127 239.873 304.983 234.401C301.271 224.931 301.297 216.674 299.942 206.816C298.925 199.417 296.117 193.405 297.622 185.798C299.12 178.225 301.862 171.775 301.862 163.959C301.862 151.183 304.295 139.566 308.183 127.507C313.719 110.339 313.19 92.9449 315.184 75.2097C316.837 60.5089 315.632 45.6654 317.021 30.9353C317.791 22.7746 317.021 10.0597 318.366 2.15918" stroke="#0033E6" stroke-width="1.31675" stroke-linecap="round"/>
    <path d="M129.657 28.736C132.21 21.8647 131.77 9.72141 134.236 2.81741C152.484 0.826743 173.396 3.13934 191.734 2.8174H194.148C207.167 2.58848 218.88 3.25804 231.895 2.8174C238.148 2.60567 244.791 2.99764 251.048 2.8174C262.86 2.47711 274.504 2.8174 286.32 2.8174C289.435 2.8174 293.325 2.3539 296.415 2.8174C297.741 3.01619 298.927 2.92633 300.236 2.82721L300.366 2.81745C303.197 2.60372 305.966 3.14521 308.803 3.0361C310.706 2.96289 312.307 2.81745 314.204 2.81745C314.204 5.2293 313.008 8.15642 312.235 10.3634C310.555 15.1658 309.021 20.4838 306.74 25.0451C300.471 37.5824 295.939 50.8308 289.68 63.3489C283.673 75.3621 275.579 85.9016 269.913 98.0437C265.859 106.73 261.31 115.013 256.953 123.552C250.98 135.26 250.213 147.052 247.193 159.805C244.219 172.361 244.558 184.434 244.035 197.248C243.527 209.699 243.479 222.54 251.048 233.296C254.366 238.011 259.517 241.157 262.367 246.338C264.319 249.888 264.485 253.958 265.114 257.861C266.751 268.011 266.787 278.798 267.534 289.07C267.988 295.307 266.96 301.239 266.96 307.402C266.96 313.564 266.183 321.28 263.597 326.923C260.682 333.283 256.74 341.259 249.982 344.024C241.427 347.524 230.927 347.275 221.807 348.741C213.453 350.083 204.005 351.407 196.586 355.507C190.531 358.853 184.963 363.766 180.428 368.959C173.479 376.916 167.162 385.715 160.415 393.893C157.078 397.937 153.274 401.652 149.752 405.54C147.607 407.908 145.181 410.931 142.206 412.348C138.777 413.981 134.454 412.878 130.846 413.988C129.442 414.42 128.065 415.275 126.581 415.424C122.87 415.795 118.112 415.462 115.385 412.553C110.496 407.338 110.464 399.891 110.464 393.155C110.464 383.196 110.635 373.391 111.571 363.463C113.805 339.791 112.633 315.572 108.988 292.105C107.239 280.85 108.122 269.617 105.297 258.518C102.791 248.674 101.197 238.588 98.817 228.703C93.6414 207.204 92.928 184.948 92.0503 163.004C91.1471 140.426 102.641 119.132 107.88 97.5926C111.39 83.1647 112.539 68.4719 118.01 54.4906C121.439 45.7271 126.366 37.5905 129.657 28.736Z" fill="#0033E6" stroke="#0033E6" stroke-width="1.31675" stroke-linecap="round"/>
    <path d="M300.061 66.2412C299.823 69.0927 297.243 72.6214 296.023 74.8868C293.469 79.6296 291.207 84.6024 288.902 89.5119C285.472 96.8177 285.999 104.923 281.177 111.526C277.969 115.918 277.288 122.178 275.169 127.255C272.447 133.777 268.755 139.804 267.73 147.174C266.794 153.896 264.715 168.708 270.336 173.758C274.745 177.72 282.952 154.654 284.038 151.402C285.865 145.931 287.385 140.498 290.905 136.167C293.825 132.575 296.39 128.934 298.344 124.513C302.895 114.214 303.181 102.239 301.904 90.7687C301.364 85.9162 300.722 80.9099 300.633 75.9913C300.576 72.8853 300.881 69.8762 300.061 66.9268" stroke="#0033E6" stroke-width="1.31675" stroke-linecap="round"/>
    <path d="M168.748 225.094C152.143 231.894 135.02 237.082 118.724 244.699C117.857 245.23 118.137 245.38 117.044 245.828C115.897 246.297 114.661 246.363 113.571 246.809C109.634 248.422 105.379 246.035 101.662 248.702C100.79 249.328 98.5878 250.793 98.319 251.955C97.8643 253.921 97.3209 253.085 98.9343 253.88C100.778 254.788 103.348 255.22 105.307 255.698C107.464 256.225 109.068 257.261 111.14 258.104C114.111 259.313 117.121 260.39 120.227 261.159C124.215 262.147 128.01 263.95 132.087 264.326C141.772 265.221 151.522 263.092 160.83 261.362C166.742 260.264 172.577 258.041 178.196 255.987C183.998 253.867 189.748 251.721 195.468 249.379C202.129 246.651 208.866 243.889 215.11 240.259C219.995 237.419 225.398 235.48 230.32 232.685C234.253 230.452 238.013 228.434 242.186 226.724C245.946 225.185 251.076 225.742 254.306 222.862C255.615 221.695 254.848 220.088 254.785 218.483C254.759 217.816 251.578 217.966 251.01 217.827C247.294 216.919 243.668 216.351 240.402 213.805C239.421 213.04 237.422 212.231 236.28 211.774C233.974 210.851 231.5 210.214 229.111 210.282C226.147 210.366 223.255 210.621 220.287 210.618C212.92 210.608 206.123 213.514 199.144 215.068C188.935 217.342 178.409 221.138 168.748 225.094Z" fill="#FFF6EA" stroke="#0033E6" stroke-width="0.873825" stroke-linecap="round"/>
    <path d="M159.627 245.922C155.012 244.89 150.877 242.836 147.164 240.847C147.798 240.053 155.117 241.264 156.625 241.481C162.097 242.271 167.781 242.455 173.252 243.217C173.561 243.26 179.964 244.247 177.574 245.099C174.498 246.196 170.233 246.179 166.837 246.313C164.359 246.411 161.954 246.441 159.627 245.922Z" fill="#FFF6EA"/>
    <path d="M145.512 239.955C149.64 242.193 154.315 244.735 159.627 245.922C161.954 246.441 164.359 246.411 166.837 246.313C170.233 246.179 174.498 246.196 177.574 245.099C179.964 244.247 173.561 243.26 173.252 243.217C167.781 242.455 162.097 242.271 156.625 241.481C155.116 241.263 147.783 240.05 147.162 240.85" stroke="#0033E6" stroke-width="0.873825" stroke-linecap="round"/>
    <path d="M142.307 247.165C147.161 248.387 151.794 251.363 155.99 254.274C155.558 255.664 147.967 254.432 146.41 254.231C140.764 253.502 135.058 253.803 129.42 253.121C129.101 253.083 122.478 252.125 124.644 250.452C127.431 248.299 131.682 247.871 135.03 247.285C137.472 246.858 139.86 246.549 142.307 247.165Z" fill="#FFF6EA"/>
    <path d="M157.859 255.582C153.187 252.301 147.894 248.572 142.307 247.165C139.86 246.549 137.472 246.858 135.03 247.285C131.682 247.871 127.431 248.299 124.644 250.452C122.478 252.125 129.101 253.083 129.42 253.121C135.058 253.803 140.764 253.502 146.41 254.231C147.968 254.433 155.574 255.666 155.991 254.27" stroke="#0033E6" stroke-width="0.873825" stroke-linecap="round"/>
    <path d="M174.414 235.172C174.972 236.25 178.339 236.709 179.406 236.972C182.597 237.759 185.79 238.372 189.066 238.648C191.867 238.883 194.422 238.493 197.07 237.577C198.348 237.136 201.078 236.152 200.904 234.427C200.681 232.215 197.96 231.129 196.048 230.921C192.926 230.583 189.669 231.685 186.687 232.475C183.075 233.433 179.329 233.869 175.714 234.827" stroke="#0033E6" stroke-width="0.873825" stroke-linecap="round"/>
    <path d="M205.66 224.941C206.016 225.823 210.843 225.237 211.77 225.3C214.95 225.518 217.94 226.539 221.088 226.912C222.363 227.063 227.174 226.588 227.251 224.614C227.318 222.924 225.481 222.04 224.084 221.881C218.259 221.218 212.729 224.958 206.96 224.596" stroke="#0033E6" stroke-width="0.873825" stroke-linecap="round"/>
    <path d="M173.491 198.441C155.731 200.998 137.86 201.866 120.201 205.291C119.231 205.594 119.466 205.808 118.297 205.977C117.07 206.153 115.856 205.917 114.69 206.084C110.478 206.691 106.932 203.341 102.678 205.024C101.679 205.419 99.1874 206.304 98.6441 207.366C97.7249 209.162 97.401 208.219 98.7727 209.383C100.34 210.712 102.728 211.756 104.511 212.696C106.476 213.732 107.779 215.126 109.585 216.449C112.173 218.343 114.83 220.121 117.656 221.622C121.283 223.55 124.527 226.222 128.389 227.578C137.566 230.802 147.541 231.108 156.99 231.694C162.991 232.066 169.192 231.33 175.142 230.704C181.285 230.059 187.385 229.376 193.502 228.495C200.627 227.469 207.834 226.428 214.773 224.426C220.202 222.86 225.914 222.293 231.368 220.779C235.726 219.569 239.864 218.526 244.328 217.883C248.35 217.304 253.19 219.093 257.023 217.085C258.576 216.271 258.224 214.526 258.553 212.953C258.69 212.3 255.567 211.672 255.051 211.399C251.667 209.615 248.288 208.182 245.739 204.918C244.974 203.938 243.231 202.667 242.235 201.946C240.223 200.489 237.977 199.27 235.644 198.755C232.749 198.116 229.881 197.66 227.004 196.934C219.86 195.134 212.56 196.299 205.413 196.109C194.958 195.831 183.824 196.953 173.491 198.441Z" fill="#FFF6EA" stroke="#0033E6" stroke-width="0.873825" stroke-linecap="round"/>
    <path d="M159.576 216.425C155.351 214.302 151.84 211.304 148.722 208.472C149.53 207.855 156.335 210.81 157.745 211.388C162.86 213.485 168.329 215.046 173.45 217.115C173.739 217.232 179.71 219.747 177.184 219.992C173.934 220.308 169.801 219.255 166.475 218.558C164.048 218.05 161.707 217.495 159.576 216.425Z" fill="#FFF6EA"/>
    <path d="M147.336 207.205C150.796 210.379 154.713 213.982 159.576 216.425C161.707 217.495 164.048 218.05 166.475 218.558C169.801 219.255 173.934 220.308 177.184 219.992C179.71 219.747 173.739 217.232 173.45 217.115C168.329 215.046 162.86 213.485 157.745 211.388C156.334 210.809 149.516 207.849 148.719 208.474" stroke="#0033E6" stroke-width="0.873825" stroke-linecap="round"/>
    <path d="M142.477 213.419C146.889 215.785 150.658 219.797 154.02 223.642C153.264 224.885 146.199 221.844 144.739 221.27C139.439 219.19 133.832 218.094 128.529 216.062C128.229 215.947 122.037 213.407 124.545 212.311C127.772 210.901 132 211.519 135.389 211.765C137.863 211.945 140.253 212.226 142.477 213.419Z" fill="#FFF6EA"/>
    <path d="M155.516 225.365C151.781 221.046 147.554 216.142 142.477 213.419C140.253 212.226 137.863 211.945 135.389 211.765C132 211.519 127.772 210.901 124.545 212.311C122.037 213.407 128.229 215.947 128.529 216.062C133.832 218.094 139.439 219.19 144.739 221.27C146.201 221.845 153.278 224.891 154.023 223.638" stroke="#0033E6" stroke-width="0.873825" stroke-linecap="round"/>
    <path d="M176.539 209.595C176.818 210.776 179.973 212.04 180.944 212.555C183.847 214.094 186.795 215.466 189.906 216.53C192.565 217.439 195.138 217.682 197.93 217.438C199.277 217.321 202.164 217.031 202.415 215.315C202.737 213.116 200.362 211.4 198.557 210.733C195.611 209.646 192.184 209.922 189.1 209.964C185.363 210.014 181.623 209.526 177.884 209.577" stroke="#0033E6" stroke-width="0.873825" stroke-linecap="round"/>
    <path d="M209.328 207.27C209.459 208.212 214.283 208.818 215.167 209.105C218.199 210.089 220.85 211.806 223.814 212.934C225.013 213.391 229.795 214.1 230.351 212.204C230.826 210.582 229.259 209.277 227.943 208.783C222.454 206.723 216.18 209.006 210.673 207.252" stroke="#0033E6" stroke-width="0.873825" stroke-linecap="round"/>
    <path d="M186.889 174.369C204.726 176.308 222.617 176.556 240.384 179.366C241.364 179.636 241.137 179.858 242.311 179.986C243.543 180.12 244.749 179.841 245.92 179.968C250.15 180.428 253.577 176.958 257.887 178.492C258.899 178.852 261.42 179.65 262 180.692C262.981 182.456 263.272 181.502 261.942 182.713C260.421 184.096 258.071 185.221 256.321 186.223C254.394 187.327 253.139 188.765 251.381 190.149C248.86 192.133 246.266 194.001 243.494 195.599C239.936 197.652 236.787 200.435 232.974 201.925C223.915 205.464 213.956 206.116 204.533 207.03C198.548 207.61 192.326 207.088 186.358 206.67C180.196 206.238 174.076 205.767 167.932 205.099C160.776 204.32 153.537 203.53 146.533 201.77C141.053 200.392 135.324 200.023 129.821 198.7C125.424 197.642 121.252 196.743 116.769 196.256C112.729 195.816 107.954 197.771 104.054 195.897C102.473 195.138 102.765 193.382 102.381 191.822C102.222 191.174 105.321 190.437 105.827 190.147C109.147 188.246 112.474 186.697 114.908 183.346C115.639 182.341 117.337 181.01 118.307 180.255C120.268 178.729 122.47 177.433 124.784 176.837C127.655 176.098 130.505 175.543 133.356 174.718C140.433 172.671 147.769 173.583 154.905 173.145C165.344 172.504 176.51 173.24 186.889 174.369Z" fill="#FFF6EA" stroke="#0033E6" stroke-width="0.873825" stroke-linecap="round"/>
    <path d="M201.419 191.859C205.568 189.591 208.973 186.473 211.991 183.534C211.162 182.946 204.463 186.135 203.075 186.762C198.035 189.035 192.624 190.785 187.578 193.03C187.292 193.157 181.412 195.878 183.945 196.035C187.204 196.237 191.298 195.041 194.598 194.23C197.007 193.638 199.327 193.002 201.419 191.859Z" fill="#FFF6EA"/>
    <path d="M213.332 182.22C209.984 185.513 206.195 189.249 201.419 191.859C199.327 193.002 197.007 193.638 194.598 194.23C191.298 195.041 187.204 196.237 183.945 196.035C181.412 195.878 187.292 193.157 187.578 193.03C192.624 190.785 198.035 189.035 203.075 186.762C204.465 186.134 211.176 182.94 211.993 183.536" stroke="#0033E6" stroke-width="0.873825" stroke-linecap="round"/>
    <path d="M218.402 188.261C214.075 190.779 210.447 194.92 207.22 198.879C208.019 200.095 214.974 196.811 216.413 196.187C221.638 193.923 227.204 192.634 232.433 190.419C232.729 190.294 238.829 187.541 236.284 186.532C233.01 185.235 228.807 185.999 225.428 186.363C222.962 186.628 220.583 186.992 218.402 188.261Z" fill="#FFF6EA"/>
    <path d="M205.785 200.653C209.367 196.206 213.422 191.159 218.402 188.261C220.583 186.992 222.962 186.628 225.428 186.363C228.807 185.999 233.01 185.235 236.284 186.532C238.829 187.541 232.729 190.294 232.433 190.419C227.204 192.634 221.638 193.923 216.413 196.187C214.972 196.811 208.005 200.102 207.217 198.875" stroke="#0033E6" stroke-width="0.873825" stroke-linecap="round"/>
    <path d="M184.23 185.621C183.992 186.812 180.884 188.184 179.931 188.732C177.083 190.371 174.184 191.844 171.112 193.015C168.486 194.017 165.923 194.348 163.125 194.202C161.774 194.131 158.879 193.941 158.568 192.235C158.171 190.048 160.485 188.251 162.265 187.523C165.171 186.333 168.607 186.491 171.69 186.425C175.426 186.346 179.147 185.729 182.886 185.65" stroke="#0033E6" stroke-width="0.873825" stroke-linecap="round"/>
    <path d="M151.379 184.435C151.281 185.38 146.481 186.153 145.607 186.471C142.611 187.559 140.021 189.368 137.099 190.598C135.916 191.096 131.161 191.971 130.54 190.094C130.009 188.49 131.53 187.132 132.828 186.592C138.242 184.343 144.591 186.407 150.034 184.463" stroke="#0033E6" stroke-width="0.873825" stroke-linecap="round"/>
    <path d="M179.896 135.219C196.815 129.246 213.05 121.723 230.282 116.565C231.283 116.384 231.174 116.683 232.288 116.289C233.456 115.877 234.422 115.104 235.533 114.711C239.545 113.295 241.133 108.682 245.682 108.199C246.75 108.086 249.368 107.714 250.342 108.402C251.989 109.567 251.839 108.582 251.164 110.249C250.392 112.154 248.76 114.186 247.617 115.847C246.357 117.676 245.849 119.516 244.863 121.524C243.45 124.404 241.92 127.211 240.114 129.852C237.794 133.242 236.161 137.114 233.369 140.108C226.735 147.221 218.04 152.12 209.941 157.022C204.797 160.136 198.963 162.36 193.402 164.567C187.66 166.845 181.94 169.07 176.111 171.127C169.324 173.524 162.457 175.945 155.381 177.39C149.845 178.521 144.521 180.669 138.987 181.858C134.565 182.808 130.416 183.804 126.163 185.306C122.332 186.658 118.873 190.488 114.546 190.487C112.793 190.487 112.296 188.778 111.274 187.537C110.85 187.022 113.325 185.017 113.656 184.536C115.825 181.385 118.154 178.548 118.898 174.474C119.121 173.251 120.075 171.317 120.623 170.216C121.73 167.992 123.154 165.87 124.982 164.331C127.25 162.422 129.579 160.688 131.792 158.71C137.285 153.801 144.292 151.447 150.535 147.963C159.668 142.866 170.052 138.695 179.896 135.219Z" fill="#FFF6EA" stroke="#0033E6" stroke-width="0.873825" stroke-linecap="round"/>
    <path d="M200.563 144.696C203.322 140.855 205.041 136.571 206.489 132.615C205.487 132.444 200.829 138.218 199.849 139.384C196.29 143.616 192.17 147.535 188.593 151.744C188.391 151.982 184.268 156.98 186.62 156.025C189.645 154.797 192.818 151.946 195.441 149.786C197.356 148.21 199.172 146.633 200.563 144.696Z" fill="#FFF6EA"/>
    <path d="M207.129 130.85C205.536 135.268 203.738 140.276 200.563 144.696C199.172 146.633 197.356 148.21 195.441 149.786C192.818 151.946 189.645 154.797 186.62 156.025C184.268 156.98 188.391 151.982 188.593 151.744C192.17 147.535 196.29 143.616 199.849 139.384C200.83 138.217 205.497 132.432 206.492 132.616" stroke="#0033E6" stroke-width="0.873825" stroke-linecap="round"/>
    <path d="M214.317 134.099C211.507 138.241 210.029 143.545 208.834 148.511C210.081 149.261 214.928 143.29 215.956 142.104C219.685 137.802 224.145 134.23 227.9 129.969C228.112 129.728 232.419 124.606 229.688 124.798C226.175 125.046 222.717 127.555 219.828 129.346C217.721 130.652 215.734 132.011 214.317 134.099Z" fill="#FFF6EA"/>
    <path d="M208.309 150.731C209.613 145.172 211.082 138.867 214.317 134.099C215.734 132.011 217.721 130.652 219.828 129.346C222.717 127.555 226.175 125.046 229.688 124.798C232.419 124.606 228.112 129.728 227.9 129.969C224.145 134.23 219.685 137.802 215.956 142.104C214.927 143.291 210.071 149.273 208.83 148.509" stroke="#0033E6" stroke-width="0.873825" stroke-linecap="round"/>
    <path d="M182.371 146.514C182.672 147.69 180.464 150.273 179.843 151.179C177.985 153.89 176.009 156.473 173.747 158.858C171.813 160.898 169.646 162.307 167.06 163.386C165.812 163.906 163.12 164.989 162.102 163.586C160.797 161.786 162.105 159.165 163.394 157.737C165.499 155.407 168.664 154.062 171.415 152.668C174.749 150.979 177.835 148.812 181.171 147.122" stroke="#0033E6" stroke-width="0.873825" stroke-linecap="round"/>
    <path d="M152.242 159.667C152.563 160.562 148.571 163.337 147.921 164.002C145.692 166.28 144.139 169.031 142.038 171.406C141.187 172.367 137.28 175.213 135.908 173.791C134.734 172.574 135.517 170.692 136.454 169.644C140.361 165.272 146.977 164.384 151.042 160.275" stroke="#0033E6" stroke-width="0.873825" stroke-linecap="round"/>
  </g>
  <rect x="1.90271" y="1.90271" width="321.466" height="451.03" rx="3.29186" stroke="#0033E6" stroke-width="2.19458"/>
  <defs>
    <clipPath id="clip0_158_414">
      <rect x="3" y="3" width="319.271" height="448.835" rx="2.19458" fill="white"/>
    </clipPath>
  </defs>
</svg>