<svg width="1000" height="1000" viewbox="0 0 1000 1000" fill="none" xmlns="http://www.w3.org/2000/svg">
  <g clip-path="url(#clip0_229_356)">
    <rect width="1000" height="1000" fill="#FFEED8"/>
    <path d="M817.064 428.711C821.03 429.893 824.096 432.327 826.957 434.784C833.582 440.471 840.574 445.954 845.645 452.617C848.426 456.27 858.473 473.948 851.546 476.71C848.078 478.093 836.284 470.54 833.84 469.2C824.901 464.299 817.62 459.046 812.691 451.368C806.988 442.485 804.733 434.396 795.593 426.701C792.952 424.478 787.933 418.959 788.585 424.956C790.03 438.237 793.487 449.793 800.916 462.083C806.039 470.558 794.378 471.638 787.759 466.915C773.355 456.637 774.822 446.423 772.156 433.853C770.572 426.384 765.64 421.6 760.077 415.609C757.541 412.877 757.552 417.053 757.248 418.469C756.366 422.578 754.565 426.996 755.599 431.309C756.368 434.517 761.034 451.02 755.954 452.863C746.076 456.446 733.683 438.459 734.408 432.297C735.224 425.361 737.702 418.856 739.747 412.303C741.867 405.509 747.697 406.883 754.971 408.445C774.757 412.693 794.047 420.302 813.541 424.487" stroke="#FFEED8" stroke-width="3.62421" stroke-linecap="round"/>
    <path d="M512.581 258.082C498.733 258.082 486.322 254.881 475.348 248.48C464.505 241.948 456.013 233.26 449.873 222.417C443.863 211.443 440.859 199.423 440.859 186.359C440.859 173.426 443.863 161.537 449.873 150.694C455.883 139.851 464.309 131.228 475.152 124.827C485.996 118.295 498.341 115.029 512.189 115.029C521.465 115.029 529.761 116.204 537.077 118.556C544.523 120.777 550.794 123.782 555.889 127.57C558.894 129.791 561.115 132.273 562.552 135.017C563.989 137.63 564.708 140.308 564.708 143.051C564.708 146.971 563.271 150.367 560.396 153.241C557.653 156.116 554.126 157.553 549.814 157.553C545.634 157.553 541.388 156.05 537.077 153.045C534.072 150.955 530.479 149.257 526.299 147.95C522.118 146.513 517.611 145.795 512.777 145.795C505.2 145.795 498.472 147.558 492.593 151.086C486.714 154.613 482.142 159.512 478.876 165.783C475.74 172.054 474.173 179.109 474.173 186.947C474.173 194.655 475.675 201.579 478.68 207.719C481.684 213.729 486.061 218.497 491.809 222.025C497.557 225.552 504.286 227.316 511.993 227.316C520.224 227.316 527.279 225.356 533.158 221.437C539.036 217.387 543.282 211.834 545.895 204.78H509.446C504.873 204.78 501.281 203.343 498.668 200.469C496.186 197.594 494.945 194.132 494.945 190.083C494.945 186.163 496.186 182.767 498.668 179.892C501.281 176.888 504.873 175.385 509.446 175.385H563.924C569.28 175.385 573.33 176.888 576.074 179.892C578.948 182.897 580.385 187.339 580.385 193.218C580.385 194.394 580.254 196.419 579.993 199.293C578.817 208.307 575.551 217.321 570.195 226.336C564.838 235.35 557.261 242.927 547.463 249.068C537.795 255.077 526.168 258.082 512.581 258.082ZM638.453 197.137H638.257C636.689 196.941 635.513 195.57 635.709 194.002L639.433 161.472C639.628 159.904 641.196 158.728 642.764 158.924C644.332 159.12 645.311 160.688 645.115 162.256L641.392 194.59C641.196 196.157 640.02 197.137 638.453 197.137ZM660.597 95.0402C660.205 95.0402 659.813 95.0402 659.813 95.0402C635.905 96.8039 599.848 142.659 589.462 184.4C584.759 203.996 583.583 230.451 606.119 244.364C612.781 248.284 619.248 250.439 625.519 250.439C637.081 250.439 648.055 243.973 658.441 231.039C681.957 201.84 693.91 149.126 688.227 123.259C682.544 96.9999 665.692 95.0402 660.597 95.0402ZM695.282 137.76C695.282 166.959 683.328 209.287 662.948 234.762C651.582 248.676 638.649 256.122 625.519 256.122C618.072 256.122 610.626 253.771 603.179 249.264C583.387 236.918 576.528 213.402 583.975 183.028C594.949 138.544 632.966 91.3169 659.225 89.3573C659.225 89.3573 659.813 89.3573 660.597 89.3573C664.908 89.3573 687.052 90.925 693.714 122.083C694.694 126.59 695.282 131.881 695.282 137.76ZM741.601 197.137H741.405C739.838 196.941 738.662 195.57 738.858 194.002L742.581 161.472C742.777 159.904 744.345 158.728 745.913 158.924C747.48 159.12 748.46 160.688 748.264 162.256L744.541 194.59C744.345 196.157 743.169 197.137 741.601 197.137ZM763.745 95.0402C763.353 95.0402 762.961 95.0402 762.961 95.0402C739.054 96.8039 702.997 142.659 692.611 184.4C687.907 203.996 686.732 230.451 709.267 244.364C715.93 248.284 722.397 250.439 728.668 250.439C740.23 250.439 751.204 243.973 761.59 231.039C785.105 201.84 797.059 149.126 791.376 123.259C785.693 96.9999 768.84 95.0402 763.745 95.0402ZM798.431 137.76C798.431 166.959 786.477 209.287 766.097 234.762C754.731 248.676 741.797 256.122 728.668 256.122C721.221 256.122 713.775 253.771 706.328 249.264C686.536 236.918 679.677 213.402 687.124 183.028C698.098 138.544 736.114 91.3169 762.374 89.3573C762.374 89.3573 762.961 89.3573 763.745 89.3573C768.057 89.3573 790.2 90.925 796.863 122.083C797.843 126.59 798.431 131.881 798.431 137.76ZM822.41 256.122C816.793 256.122 812.482 254.62 809.477 251.615C806.472 248.61 804.97 244.299 804.97 238.681V134.429C804.97 128.681 806.472 124.369 809.477 121.495C812.482 118.491 816.793 116.988 822.41 116.988H854.548C869.311 116.988 882.114 120.058 892.957 126.198C903.931 132.208 912.292 140.504 918.041 151.086C923.789 161.668 926.663 173.491 926.663 186.555C926.663 199.619 923.789 211.443 918.041 222.025C912.292 232.607 903.931 240.968 892.957 247.108C882.114 253.117 869.311 256.122 854.548 256.122H822.41ZM854.548 225.944C866.437 225.944 875.843 222.743 882.767 216.342C889.822 209.81 893.349 199.881 893.349 186.555C893.349 173.23 889.822 163.366 882.767 156.965C875.843 150.433 866.437 147.167 854.548 147.167H838.283V225.944H854.548Z" fill="#0033E6"/>
    <path d="M665.237 264.325C665.558 267.172 670.036 273.792 672.123 275.331C676.619 278.648 678.139 276.794 682.765 276.794C689.676 276.794 692.857 268.312 695.285 262.94" stroke="#0033E6" stroke-width="3.91927" stroke-linecap="round"/>
    <path d="M767.412 65.364C769.535 67.7231 770.91 69.5275 773.808 71.2945C776.605 72.9996 780.421 74.1862 783.733 74.1862" stroke="#0033E6" stroke-width="3.91927" stroke-linecap="round"/>
    <path d="M659.34 63.5993C657.909 63.5993 656.483 64.6995 655.272 65.3638C652.89 66.67 650.369 67.8583 647.822 68.7946C645.638 69.5976 643.139 70.2159 640.813 70.2159" stroke="#0033E6" stroke-width="3.91927" stroke-linecap="round"/>
    <path d="M529.983 437.968C531.105 437.351 532.178 436.827 533.202 436.393C534.249 435.94 535.289 435.582 536.322 435.318C537.378 435.035 538.459 434.838 539.566 434.728C540.674 434.596 541.862 434.534 543.129 434.54L543.318 434.554C543.991 434.602 544.576 434.835 545.075 435.251C545.595 435.647 546.105 436.054 546.603 436.47C548.137 437.764 549.321 439.222 550.155 440.846C551.01 442.471 551.62 444.268 551.985 446.239C552.577 449.472 552.607 452.58 552.075 455.563C551.564 458.547 550.561 461.476 549.066 464.347C548.675 465.08 548.197 465.711 547.63 466.241C547.065 466.749 546.371 467.153 545.546 467.453C544.919 467.662 544.307 467.935 543.712 468.272C543.118 468.61 542.507 468.872 541.881 469.06C540.974 469.332 540.071 469.542 539.174 469.689C538.276 469.835 537.375 469.876 536.471 469.811C535.693 469.755 535.005 469.632 534.406 469.441C533.805 469.271 533.252 469.03 532.746 468.719C532.24 468.408 531.76 468.035 531.305 467.601C530.851 467.167 530.368 466.678 529.858 466.134C529.564 465.817 529.292 465.481 529.043 465.125C528.817 464.749 528.504 464.399 528.105 464.075C528.146 464.669 528.177 465.263 528.198 465.856C528.219 466.449 528.249 467.064 528.287 467.701C527.712 467.765 527.157 467.842 526.623 467.93C526.088 468.018 525.555 468.085 525.024 468.132C524.982 468.129 524.939 468.136 524.895 468.154C524.853 468.151 524.811 468.148 524.769 468.145C524.454 468.122 524.219 468.01 524.064 467.809C523.932 467.588 523.869 467.298 523.873 466.94C523.91 465.548 523.915 464.164 523.887 462.789C523.882 461.394 523.96 460.005 524.123 458.622C524.315 457.136 524.452 455.667 524.535 454.215C524.641 452.744 524.747 451.272 524.853 449.801C525.062 446.604 525.269 443.429 525.475 440.274C525.681 437.12 525.889 433.944 526.097 430.748C526.14 430.159 526.177 429.496 526.209 428.759C526.262 428.023 526.315 427.277 526.37 426.52C526.424 425.764 526.477 425.028 526.529 424.313C526.603 423.579 526.661 422.918 526.703 422.329C526.724 422.035 526.778 421.732 526.864 421.421C526.97 421.112 527.068 420.781 527.157 420.428C527.726 420.448 528.263 420.466 528.769 420.481C529.275 420.496 529.792 420.512 530.319 420.529C530.306 421.881 530.278 423.294 530.236 424.77C530.214 426.248 530.181 427.735 530.136 429.232C530.113 430.73 530.08 432.217 530.037 433.693C530.015 435.171 529.997 436.596 529.983 437.968ZM528.287 454.929C528.267 455.498 528.236 456.087 528.192 456.697C528.148 457.306 528.224 457.861 528.421 458.361C528.813 459.361 529.261 460.334 529.764 461.278C530.289 462.204 531.034 463.007 531.999 463.689C532.664 464.139 533.331 464.557 534 464.943C534.671 465.308 535.406 465.519 536.205 465.577C536.31 465.584 536.426 465.593 536.552 465.602C536.678 465.611 536.806 465.599 536.935 465.566C537.636 465.511 538.335 465.487 539.032 465.495C539.749 465.504 540.451 465.439 541.138 465.298C541.759 465.174 542.334 464.972 542.861 464.693C543.41 464.394 543.807 463.874 544.051 463.131C544.373 462.182 544.735 461.257 545.138 460.356C545.562 459.457 545.955 458.545 546.317 457.621C547.167 455.505 547.605 453.382 547.631 451.25C547.679 449.119 547.476 446.949 547.022 444.74C546.878 444.096 546.545 443.438 546.023 442.767C545.522 442.097 544.922 441.483 544.222 440.926C543.523 440.369 542.764 439.912 541.944 439.558C541.147 439.183 540.38 438.97 539.645 438.917C539.224 438.887 538.716 438.903 538.12 438.966C537.525 439.007 537.034 439.078 536.647 439.176C536.347 439.239 536.034 439.323 535.71 439.426C535.387 439.508 535.113 439.647 534.888 439.842C534.078 440.523 533.277 441.226 532.486 441.951C531.716 442.657 530.956 443.384 530.205 444.132C529.682 444.644 529.365 445.234 529.254 445.902C529.175 446.404 529.082 447.115 528.973 448.037C528.865 448.959 528.755 449.891 528.645 450.834C528.556 451.779 528.473 452.639 528.396 453.415C528.34 454.193 528.304 454.697 528.287 454.929Z" fill="#0033E6"/>
    <path d="M573.494 475.057C574.09 474.995 574.676 474.931 575.251 474.867C575.846 474.825 576.433 474.741 577.012 474.613C577.205 474.585 577.401 474.493 577.603 474.339C577.823 474.207 578.003 474.061 578.141 473.902C579.023 472.804 579.904 471.716 580.785 470.638C581.665 469.56 582.495 468.447 583.275 467.299C583.772 466.553 584.03 465.758 584.049 464.914C584.088 464.072 583.919 463.194 583.541 462.279C582.971 460.801 582.445 459.316 581.96 457.823C581.499 456.311 581.037 454.799 580.575 453.287C579.652 450.262 578.738 447.249 577.835 444.247C576.932 441.224 576.02 438.2 575.096 435.176C574.996 434.809 574.853 434.451 574.667 434.099C574.503 433.728 574.323 433.293 574.127 432.792C574.125 432.814 574.081 432.694 573.994 432.434C573.93 432.155 573.971 431.873 574.118 431.588C574.363 431.119 574.64 430.801 574.948 430.633C575.257 430.444 575.664 430.368 576.169 430.404C576.4 430.421 576.661 430.461 576.952 430.524C577.265 430.588 577.597 430.665 577.95 430.754C579.293 435.583 580.635 440.423 581.976 445.274C583.338 450.126 584.724 455.096 586.132 460.184C586.764 458.75 587.355 457.43 587.907 456.223C588.481 454.997 589.024 453.768 589.535 452.537C590.774 449.414 591.99 446.312 593.184 443.228C594.399 440.146 595.626 437.044 596.865 433.922C597.221 433.081 597.536 432.523 597.809 432.246C598.084 431.949 598.547 431.824 599.199 431.871C599.388 431.885 599.608 431.911 599.859 431.95C600.11 431.989 600.381 432.041 600.672 432.104C600.646 432.461 600.64 432.841 600.653 433.243C600.667 433.646 600.608 434.022 600.477 434.372C599.912 436.064 599.325 437.754 598.718 439.443C598.133 441.112 597.527 442.78 596.9 444.446C596.537 445.371 596.135 446.261 595.693 447.117C595.253 447.951 594.841 448.83 594.458 449.753C593.62 451.7 592.793 453.648 591.977 455.597C591.182 457.547 590.376 459.496 589.56 461.444C589.283 462.058 588.965 462.659 588.606 463.246C588.268 463.834 587.951 464.424 587.655 465.015C587.163 465.973 586.683 466.921 586.214 467.859C585.765 468.82 585.293 469.79 584.8 470.768C584.727 470.911 584.663 471.065 584.609 471.23C584.575 471.397 584.532 471.563 584.478 471.728C583.591 474.073 582.25 475.814 580.457 476.953C578.662 478.113 576.524 478.603 574.044 478.425C573.603 478.393 573.281 478.317 573.078 478.197C572.875 478.077 572.752 477.888 572.707 477.631C572.683 477.376 572.739 477.031 572.876 476.598C573.033 476.186 573.239 475.673 573.494 475.057Z" fill="#0033E6"/>
    <path d="M664.975 443.167C667.304 443.398 669.58 443.625 671.804 443.849C674.048 444.074 676.293 444.299 678.538 444.524C679.146 444.588 679.538 444.722 679.713 444.925C679.91 445.129 679.985 445.557 679.938 446.209C679.898 446.755 679.795 447.308 679.628 447.866C679.461 448.425 679.368 448.989 679.348 449.558C679.277 451.137 679.204 452.727 679.132 454.328C679.081 455.909 679.062 457.492 679.075 459.078C679.1 460.199 678.89 461.209 678.445 462.107C678 463.004 677.316 463.705 676.392 464.209C674.456 465.274 672.489 466.041 670.49 466.51C668.512 466.98 666.42 467.136 664.213 466.977C663.246 466.908 662.282 466.796 661.321 466.643C660.38 466.511 659.444 466.307 658.513 466.028C657.581 465.771 656.677 465.41 655.802 464.946C654.925 464.503 654.089 463.935 653.294 463.244C651.722 461.885 650.385 460.362 649.28 458.677C648.197 456.993 647.535 455.044 647.293 452.829C647.13 451.275 646.956 449.731 646.77 448.196C646.585 446.661 646.475 445.111 646.439 443.545C646.413 442.444 646.471 441.35 646.612 440.261C646.777 439.153 646.921 438.033 647.044 436.901C647.126 436.358 647.227 435.826 647.349 435.307C647.471 434.787 647.531 434.253 647.528 433.703C647.521 432.625 647.677 431.633 647.996 430.726C648.337 429.8 648.751 428.889 649.238 427.995C650.55 425.617 652.177 423.706 654.12 422.261C656.062 420.816 658.299 419.815 660.833 419.258C661.669 419.086 662.515 418.925 663.371 418.775C664.227 418.625 665.088 418.55 665.955 418.549L666.238 418.569C666.848 418.613 667.441 418.74 668.018 418.951C668.617 419.142 669.215 419.343 669.812 419.555C670.431 419.769 671.026 420.012 671.598 420.286C672.191 420.561 672.786 420.805 673.383 421.017C674.395 421.343 675.27 421.807 676.009 422.41C676.77 422.993 677.332 423.836 677.697 424.94C677.839 425.309 677.992 425.68 678.156 426.051C678.342 426.402 678.528 426.754 678.714 427.105C679.197 428.027 679.592 428.985 679.901 429.979C680.211 430.953 680.36 431.977 680.345 433.054C679.572 433.527 678.87 433.74 678.239 433.695C677.251 433.624 676.575 432.888 676.211 431.489C675.882 430.197 675.341 429.049 674.589 428.044C673.859 427.041 673.095 426.056 672.298 425.09C672.122 424.888 671.833 424.655 671.429 424.394C671.027 424.111 670.591 423.848 670.123 423.603C669.676 423.359 669.226 423.147 668.774 422.967C668.345 422.767 668.016 422.638 667.788 422.579C667.288 422.48 666.786 422.412 666.281 422.375C665.777 422.339 665.271 422.324 664.764 422.33C664.279 422.316 663.782 422.312 663.275 422.318C663.042 422.322 662.806 422.379 662.565 422.488C662.326 422.577 662.091 422.613 661.86 422.596L661.797 422.592C661.713 422.586 661.64 422.58 661.576 422.576C661.515 422.55 661.453 422.535 661.39 422.531C660.591 422.473 659.881 422.644 659.261 423.043C658.663 423.422 658.134 423.881 657.672 424.418C656.337 425.949 655.132 427.574 654.057 429.292C652.983 431.011 652.222 432.921 651.775 435.023C651.624 435.646 651.515 436.283 651.447 436.933C651.402 437.563 651.366 438.205 651.341 438.858C651.272 440.396 651.204 441.933 651.135 443.471C651.088 445.01 651.071 446.562 651.086 448.126C651.091 449.521 651.235 450.894 651.518 452.246C651.822 453.599 652.246 454.907 652.789 456.172C653.312 457.414 654.077 458.378 655.084 459.063C656.091 459.748 657.205 460.272 658.426 460.634C659.336 460.911 660.237 461.156 661.13 461.368C662.025 461.559 662.939 461.773 663.873 462.009C664.143 462.071 664.414 462.122 664.686 462.162C664.958 462.203 665.23 462.233 665.504 462.253C666.849 462.35 668.156 462.243 669.425 461.933C670.716 461.603 672.002 461.21 673.281 460.753C673.778 460.598 674.134 460.349 674.349 460.005C674.566 459.641 674.683 459.184 674.701 458.636C674.758 456.971 674.835 455.318 674.931 453.677C675.051 452.016 675.161 450.334 675.263 448.63C674.142 448.359 673.039 448.121 671.955 447.916C670.871 447.712 669.772 447.569 668.658 447.489C668.048 447.445 667.426 447.432 666.791 447.45C666.157 447.446 665.521 447.475 664.883 447.534C664.634 447.178 664.501 446.831 664.483 446.491C664.465 446.152 664.5 445.806 664.589 445.453C664.679 445.079 664.77 444.705 664.86 444.332C664.971 443.959 665.01 443.571 664.975 443.167Z" fill="#0033E6"/>
    <path d="M712.863 429.788C713.06 429.401 713.427 428.994 713.965 428.568C714.504 428.121 715.083 427.708 715.702 427.33C716.323 426.931 716.896 426.592 717.424 426.313C717.972 426.036 718.333 425.861 718.507 425.789C719.204 425.501 719.91 425.383 720.624 425.434C721.297 425.483 722.01 425.703 722.764 426.095C723.11 426.268 723.395 426.426 723.617 426.569C723.839 426.712 723.996 426.881 724.087 427.078C724.201 427.255 724.26 427.471 724.263 427.725C724.266 427.978 724.231 428.314 724.159 428.731C724.095 429.022 724.012 429.302 723.908 429.569C723.804 429.836 723.71 430.115 723.626 430.404C722.69 429.914 721.738 429.635 720.771 429.565C719.531 429.476 718.396 429.679 717.367 430.176C716.36 430.674 715.476 431.35 714.718 432.204C713.982 433.038 713.394 434.01 712.955 435.119C712.516 436.229 712.246 437.34 712.145 438.452C711.888 441.434 711.59 444.392 711.253 447.326C710.916 450.238 710.609 453.185 710.331 456.165C710.275 456.647 710.313 457.157 710.443 457.694C710.594 458.233 710.731 458.824 710.854 459.467C710.447 459.543 710.018 459.639 709.566 459.755C709.135 459.872 708.687 459.924 708.223 459.912L708.003 459.896C707.309 459.846 706.826 459.653 706.555 459.316C706.306 458.96 706.22 458.384 706.299 457.586C706.501 455.361 706.713 453.147 706.935 450.945C707.159 448.721 707.372 446.486 707.576 444.24C707.588 444.072 707.611 443.905 707.644 443.738C707.677 443.571 707.7 443.404 707.712 443.236C707.928 440.822 708.142 438.439 708.353 436.088C708.566 433.715 708.781 431.322 708.997 428.908C709.022 428.551 709.037 428.203 709.04 427.865C709.064 427.529 709.046 427.2 708.984 426.879C708.893 426.386 708.929 426.029 709.093 425.809C709.257 425.588 709.564 425.431 710.014 425.336C710.336 425.275 710.603 425.231 710.816 425.204C711.05 425.179 711.252 425.172 711.42 425.184C711.777 425.21 712.009 425.364 712.115 425.646C712.222 425.928 712.322 426.443 712.416 427.189C712.431 427.275 712.441 427.434 712.445 427.666C712.472 427.88 712.487 428.113 712.49 428.367C712.514 428.622 712.528 428.866 712.532 429.099C712.538 429.311 712.538 429.469 712.53 429.574C712.59 429.621 712.64 429.656 712.681 429.68C712.742 429.706 712.803 429.742 712.863 429.788Z" fill="#0033E6"/>
    <path d="M739.56 453.352C739.282 453.987 739.133 454.589 739.113 455.158C739.093 455.727 739.149 456.27 739.281 456.786C739.434 457.305 739.64 457.816 739.899 458.321C740.16 458.804 740.422 459.277 740.685 459.74C741.153 460.576 741.676 461.385 742.253 462.166C742.853 462.928 743.465 463.68 744.088 464.422C744.728 465.207 745.416 465.775 746.152 466.123C746.889 466.451 747.762 466.651 748.771 466.724C749.849 466.717 750.907 466.698 751.944 466.667C752.983 466.615 754.023 466.415 755.062 466.067C755.559 465.913 756.046 465.747 756.524 465.57C757.024 465.374 757.438 465.044 757.768 464.582C758 464.282 758.275 464.143 758.59 464.166C758.737 464.177 758.891 464.24 759.051 464.358C759.212 464.475 759.362 464.591 759.502 464.707C759.643 464.802 759.794 464.908 759.954 465.025C759.965 466.631 759.309 467.82 757.986 468.591C756.22 469.647 754.379 470.423 752.462 470.919C750.569 471.396 748.606 471.667 746.572 471.732C746.424 471.742 746.276 471.742 746.129 471.731C746.003 471.722 745.877 471.713 745.75 471.704C744.195 471.592 742.824 471.113 741.639 470.267C740.453 469.421 739.386 468.394 738.438 467.185C737.239 465.64 736.3 464.009 735.62 462.291C734.962 460.575 734.578 458.719 734.468 456.725C734.395 455.389 734.487 454.107 734.745 452.879C735.002 451.651 735.292 450.414 735.614 449.17C735.909 448.008 736.264 446.882 736.681 445.792C737.099 444.681 737.548 443.572 738.029 442.466C738.614 441.093 739.435 439.968 740.491 439.094C741.548 438.198 742.782 437.494 744.192 436.983C744.692 436.787 745.21 436.634 745.746 436.524C746.284 436.394 746.813 436.242 747.332 436.068C748.736 435.641 750.069 435.473 751.33 435.563C752.886 435.675 754.333 436.117 755.672 436.89C757.033 437.643 758.339 438.582 759.589 439.707C759.867 439.96 760.108 440.283 760.312 440.678C760.538 441.054 760.722 441.437 760.863 441.827C761.325 443.044 761.723 444.266 762.057 445.495C762.393 446.702 762.47 447.975 762.289 449.314C762.2 449.963 762.143 450.614 762.117 451.267C762.114 451.901 762.067 452.542 761.978 453.19C761.975 453.232 761.961 453.284 761.936 453.346C761.931 453.409 761.927 453.472 761.922 453.535C761.833 453.888 761.644 454.17 761.354 454.381C761.066 454.572 760.743 454.654 760.385 454.629C760.322 454.624 760.249 454.619 760.165 454.613C760.102 454.608 760.04 454.583 759.98 454.536C759.465 454.351 758.903 454.237 758.293 454.193C757.81 454.158 757.324 454.155 756.836 454.183C756.371 454.192 755.896 454.179 755.413 454.144L755.192 454.128C754.036 454.045 752.877 454.004 751.715 454.005C750.574 454.007 749.423 453.988 748.264 453.947C747.821 453.936 747.369 453.914 746.906 453.881C746.465 453.849 746.013 453.816 745.55 453.783L741.325 453.479L739.56 453.352ZM757.784 451.145C758.076 448.842 757.804 446.9 756.967 445.318C756.152 443.717 754.825 442.344 752.985 441.197C752.38 440.794 751.778 440.497 751.179 440.306C750.58 440.115 749.986 439.999 749.398 439.956C748.305 439.878 747.238 440.023 746.197 440.392C745.179 440.741 744.173 441.218 743.178 441.822C742.472 442.236 741.897 442.744 741.452 443.346C741.03 443.929 740.699 444.57 740.458 445.271C740.218 445.972 740.059 446.711 739.982 447.487C739.905 448.264 739.847 449.062 739.809 449.884C741.523 449.859 743.212 449.864 744.879 449.9C746.547 449.914 748.212 449.981 749.872 450.101C751.196 450.196 752.518 450.333 753.836 450.513C755.156 450.671 756.472 450.882 757.784 451.145Z" fill="#0033E6"/>
    <path d="M801.547 425.115C801.571 424.778 801.582 424.473 801.581 424.198C801.581 423.902 801.612 423.619 801.674 423.349C801.806 422.682 802.077 422.152 802.486 421.759C802.894 421.366 803.406 421.16 804.02 421.141C804.105 421.126 804.18 421.121 804.243 421.125C804.327 421.131 804.4 421.136 804.463 421.141C804.905 421.173 805.243 421.313 805.479 421.563C805.737 421.793 805.91 422.175 805.999 422.709C806.263 424.313 806.38 425.917 806.35 427.52C806.34 429.125 806.204 430.721 805.942 432.308C805.759 433.373 805.589 434.417 805.431 435.441C805.294 436.466 805.208 437.517 805.173 438.592C805.102 440.742 805.002 442.868 804.872 444.972C804.742 447.076 804.61 449.2 804.477 451.346C804.467 451.768 804.416 452.186 804.323 452.602C804.231 452.997 804.128 453.402 804.014 453.816C803.854 454.565 803.685 455.303 803.506 456.03C803.327 456.756 803.261 457.523 803.309 458.329C803.328 458.943 803.231 459.56 803.017 460.178C802.803 460.797 802.57 461.403 802.316 461.997C802.113 462.469 801.859 462.915 801.554 463.337C801.268 463.781 800.974 464.204 800.67 464.605C799.988 465.57 799.212 466.37 798.342 467.004C797.473 467.639 796.413 467.975 795.164 468.012C794.149 468.023 793.132 468.056 792.114 468.109C791.116 468.185 790.112 468.187 789.103 468.114C788.283 468.055 787.448 467.921 786.597 467.712C785.766 467.504 784.963 467.214 784.187 466.841C783.41 466.49 782.68 466.057 781.999 465.543C781.316 465.05 780.712 464.479 780.189 463.828C779.857 463.445 779.505 463.06 779.131 462.674C778.777 462.311 778.384 461.902 777.951 461.449C778.189 461.085 778.405 460.721 778.601 460.354C778.817 459.99 779.062 459.669 779.335 459.393C779.908 458.779 780.425 458.489 780.888 458.522C781.119 458.539 781.355 458.63 781.597 458.795C781.838 458.96 782.096 459.201 782.369 459.516C783.541 460.847 784.85 461.892 786.295 462.651C787.762 463.412 789.388 463.856 791.175 463.985C792.689 464.094 793.942 463.846 794.937 463.241C795.95 462.659 796.751 461.66 797.339 460.245C797.924 458.871 798.415 457.48 798.812 456.072C799.208 454.685 799.512 453.239 799.726 451.733C798.641 452.141 797.598 452.53 796.6 452.902C795.622 453.276 794.635 453.638 793.638 453.988C792.143 454.494 790.724 454.698 789.378 454.601C787.823 454.489 786.286 453.967 784.769 453.033C782.727 451.745 781.204 450.157 780.199 448.267C779.217 446.359 778.575 444.263 778.275 441.98C778.031 440.082 778.038 438.224 778.296 436.404C778.553 434.584 779.012 432.769 779.67 430.957C779.855 430.442 780.03 429.926 780.193 429.41C780.357 428.893 780.532 428.377 780.717 427.863C781.415 425.8 782.472 424.175 783.888 422.988C785.306 421.78 787.067 420.946 789.171 420.484C789.667 420.351 790.148 420.269 790.615 420.24C791.103 420.211 791.589 420.215 792.072 420.249C793.649 420.363 795.133 420.882 796.524 421.806C797.33 422.35 798.137 422.883 798.944 423.406C799.773 423.931 800.64 424.5 801.547 425.115ZM801.008 438.324C801.056 437.08 801.122 435.86 801.208 434.662C801.296 433.442 801.385 432.213 801.474 430.973C801.486 430.804 801.509 430.627 801.544 430.439C801.579 430.251 801.546 430.122 801.445 430.051C801.091 429.688 800.759 429.305 800.45 428.902C800.141 428.5 799.822 428.096 799.491 427.692C799.182 427.29 798.84 426.906 798.465 426.541C798.111 426.177 797.7 425.863 797.234 425.597C796.503 425.185 795.74 424.919 794.946 424.798C794.174 424.658 793.404 424.497 792.635 424.315C792.469 424.282 792.301 424.259 792.133 424.247C791.987 424.215 791.83 424.194 791.662 424.181C790.107 424.07 788.79 424.609 787.711 425.799C787.459 426.076 787.225 426.387 787.01 426.731C786.818 427.055 786.575 427.344 786.282 427.598C785.581 428.244 785.001 428.953 784.545 429.723C784.109 430.494 783.756 431.293 783.485 432.118C783.214 432.944 783.015 433.796 782.889 434.674C782.764 435.532 782.67 436.391 782.608 437.253C782.475 439.103 782.63 440.92 783.072 442.706C783.536 444.472 784.151 446.207 784.916 447.91C785.025 448.15 785.165 448.403 785.336 448.669C785.53 448.915 785.749 449.1 785.994 449.223C787.008 449.803 787.989 450.265 788.937 450.608C789.906 450.931 790.98 451.135 792.157 451.22C792.791 451.223 793.397 451.161 793.977 451.034C794.578 450.908 795.135 450.652 795.648 450.267C796.294 449.806 796.94 449.345 797.586 448.885C798.255 448.405 798.903 447.913 799.531 447.408C799.754 447.234 799.95 447.005 800.119 446.722C800.289 446.417 800.394 446.129 800.435 445.857C800.567 444.599 800.668 443.349 800.736 442.107C800.827 440.846 800.918 439.585 801.008 438.324Z" fill="#0033E6"/>
    <path d="M503.74 298.386C512.226 298.386 519.61 300.425 525.892 304.503C532.174 308.58 536.913 314.091 540.109 321.034C543.415 327.977 545.068 335.582 545.068 343.848C545.068 352.444 543.36 360.159 539.944 366.992C536.527 373.714 531.568 379.06 525.065 383.027C518.673 386.884 511.069 388.813 502.252 388.813C497.293 388.813 492.388 387.821 487.539 385.837C482.69 383.743 478.722 380.713 475.636 376.745C475.196 380.382 473.653 383.248 471.008 385.341C468.473 387.325 465.497 388.317 462.081 388.317C458.444 388.317 455.248 387.105 452.492 384.68C449.737 382.256 448.359 378.894 448.359 374.596V275.407C448.359 271.109 449.737 267.748 452.492 265.323C455.248 262.899 458.444 261.686 462.081 261.686C465.828 261.686 469.024 262.899 471.669 265.323C474.424 267.748 475.802 271.109 475.802 275.407V312.768C477.675 308.25 481.092 304.723 486.051 302.188C491.121 299.653 497.017 298.386 503.74 298.386ZM496.466 364.016C502.638 364.016 507.652 362.142 511.51 358.395C515.367 354.538 517.296 349.578 517.296 343.517C517.296 337.455 515.367 332.551 511.51 328.804C507.652 324.947 502.638 323.018 496.466 323.018C490.515 323.018 485.61 324.947 481.753 328.804C477.896 332.551 475.967 337.455 475.967 343.517C475.967 349.578 477.896 354.538 481.753 358.395C485.61 362.142 490.515 364.016 496.466 364.016ZM598.987 299.874C599.648 299.764 600.585 299.709 601.797 299.709C605.434 299.709 608.299 300.756 610.393 302.85C612.487 304.944 613.534 307.478 613.534 310.454C613.534 313.76 612.267 316.736 609.732 319.381C607.308 322.026 603.671 323.569 598.821 324.01C589.564 324.892 584.935 329.851 584.935 338.888V374.596C584.935 378.894 583.557 382.256 580.802 384.68C578.157 387.105 574.961 388.317 571.214 388.317C567.577 388.317 564.381 387.105 561.626 384.68C558.87 382.256 557.493 378.894 557.493 374.596V312.438C557.493 308.14 558.87 304.778 561.626 302.354C564.381 299.929 567.577 298.717 571.214 298.717C574.52 298.717 577.441 299.653 579.976 301.527C582.51 303.401 584.053 306.046 584.604 309.462C588.131 304.062 592.925 300.866 598.987 299.874ZM706.568 337.235C706.678 337.786 706.733 338.668 706.733 339.88C706.733 343.737 705.466 346.713 702.931 348.807C700.506 350.791 697.2 351.783 693.012 351.783H644.575C645.126 355.86 647.165 359.277 650.691 362.032C654.328 364.677 658.682 366 663.751 366C670.143 366 675.268 363.906 679.126 359.718C681.881 356.852 684.856 355.42 688.052 355.42C691.249 355.42 694.004 356.577 696.318 358.891C698.743 361.206 699.955 363.906 699.955 366.992C699.955 369.857 698.743 372.557 696.318 375.092C692.02 379.39 687.061 382.752 681.44 385.176C675.929 387.491 669.978 388.648 663.586 388.648C654.549 388.648 646.503 386.774 639.45 383.027C632.397 379.28 626.886 374.045 622.919 367.322C618.951 360.489 616.967 352.664 616.967 343.848C616.967 335.141 618.896 327.316 622.753 320.373C626.611 313.43 631.956 308.029 638.789 304.172C645.622 300.205 653.392 298.221 662.098 298.221C673.891 298.221 683.754 301.527 691.689 308.14C699.735 314.752 704.694 324.451 706.568 337.235ZM662.098 320.208C657.139 320.208 653.006 321.42 649.7 323.845C646.393 326.269 644.63 329.575 644.409 333.763H679.952C679.511 329.686 677.638 326.434 674.331 324.01C671.025 321.475 666.947 320.208 662.098 320.208ZM796.5 298.882C800.247 298.882 803.498 300.094 806.254 302.519C809.009 304.833 810.386 308.195 810.386 312.603V374.431C810.386 378.729 809.009 382.09 806.254 384.515C803.498 386.94 800.247 388.152 796.5 388.152C792.753 388.152 789.502 386.94 786.746 384.515C783.991 382.09 782.614 378.729 782.614 374.431V374.265C780.74 378.784 777.268 382.311 772.199 384.846C767.239 387.38 761.398 388.648 754.675 388.648C746.189 388.648 738.805 386.609 732.523 382.531C726.241 378.453 721.447 372.943 718.141 366C714.945 359.056 713.347 351.452 713.347 343.186C713.347 334.59 715.055 326.93 718.472 320.208C721.888 313.375 726.792 308.029 733.185 304.172C739.687 300.205 747.347 298.221 756.163 298.221C761.123 298.221 766.027 299.268 770.876 301.362C775.726 303.346 779.693 306.321 782.779 310.289C783.33 306.652 784.873 303.841 787.408 301.858C790.053 299.874 793.084 298.882 796.5 298.882ZM761.949 364.016C767.901 364.016 772.805 362.142 776.662 358.395C780.52 354.538 782.448 349.578 782.448 343.517C782.448 337.455 780.52 332.551 776.662 328.804C772.805 324.947 767.901 323.018 761.949 323.018C755.778 323.018 750.763 324.947 746.906 328.804C743.048 332.551 741.12 337.455 741.12 343.517C741.12 349.578 743.048 354.538 746.906 358.395C750.763 362.142 755.778 364.016 761.949 364.016ZM905.791 261.686C909.538 261.686 912.734 262.899 915.379 265.323C918.134 267.748 919.512 271.109 919.512 275.407V374.596C919.512 378.894 918.134 382.256 915.379 384.68C912.734 387.105 909.538 388.317 905.791 388.317C902.154 388.317 898.958 387.105 896.203 384.68C893.447 382.256 892.07 378.894 892.07 374.596V374.265C890.196 378.784 886.725 382.311 881.655 384.846C876.696 387.38 870.855 388.648 864.132 388.648C855.646 388.648 848.262 386.609 841.98 382.531C835.698 378.453 830.904 372.943 827.597 366C824.401 359.056 822.803 351.452 822.803 343.186C822.803 334.59 824.511 326.93 827.928 320.208C831.344 313.375 836.249 308.029 842.641 304.172C849.143 300.205 856.803 298.221 865.62 298.221C870.579 298.221 875.428 299.213 880.167 301.196C885.016 303.18 888.984 306.101 892.07 309.958V275.407C892.07 271.109 893.447 267.748 896.203 265.323C898.958 262.899 902.154 261.686 905.791 261.686ZM871.406 364.016C877.357 364.016 882.261 362.142 886.119 358.395C889.976 354.538 891.905 349.578 891.905 343.517C891.905 337.455 889.976 332.551 886.119 328.804C882.261 324.947 877.357 323.018 871.406 323.018C865.234 323.018 860.219 324.947 856.362 328.804C852.505 332.551 850.576 337.455 850.576 343.517C850.576 349.578 852.505 354.538 856.362 358.395C860.219 362.142 865.234 364.016 871.406 364.016Z" fill="#0033E6"/>
    <path d="M222.098 630.038L309.967 618.749L473.807 630.038L569.608 699.906L579.372 855.813L569.608 918.968L462.518 797.233V896.391L473.807 976.022L508.588 1025.45L461.908 1037.65L131.483 1039.79C126.729 803.951 123.898 746.389 104.939 771.299L58.5635 925.681C28.5352 922.655 12.6285 913.548 -14.0501 883.272C-51.3318 819.141 -44.6608 781.136 16.7651 709.669L112.262 661.768L222.098 630.038Z" fill="#FFEED8"/>
    <path d="M324.91 324.122C322.529 334.486 321.284 345.039 327.03 354.616C335.807 369.243 350.989 379.219 361.042 393.139C367.817 402.518 374.44 413.154 374.44 425.211C374.44 439.71 366.215 450.726 350.487 448.307C338.126 446.405 330.922 440.802 320.039 435.36" stroke="#0033E6" stroke-width="8.68938" stroke-linecap="round"/>
    <path d="M364.693 446.726C364.693 467 373.624 486.993 373.624 507.352C373.624 540.649 339.468 570.144 307.044 570.144C291.857 570.144 275.408 566.683 260.762 562.656C256.187 561.397 250.394 559.976 246.147 557.964C238.576 554.378 230.93 551.028 223.412 547.228C218.565 544.779 213.032 542.702 211.864 537.124C209.626 526.428 206.34 514.235 201.67 504.375C195.695 491.763 193.662 477.736 190.122 464.409C184.09 441.702 180.378 418.141 180.378 394.671C180.378 378.934 184.248 360.358 198.873 351.727C208.388 346.112 218.127 344.419 229.096 344.419" stroke="#0033E6" stroke-width="8.68938" stroke-linecap="round"/>
    <path d="M229.914 393.14C231.409 388.821 233.19 380.931 236.409 377.712C240.022 374.1 243.554 374.465 247.777 374.465" stroke="#0033E6" stroke-width="8.68938" stroke-linecap="round"/>
    <path d="M271.319 363.906C275.815 360.967 289.297 350.451 294.866 354.163" stroke="#0033E6" stroke-width="8.68938" stroke-linecap="round"/>
    <path d="M307.854 488.135C308.604 491.888 317.239 494.631 320.439 494.631C323.294 494.631 331.819 493.819 328.964 493.819" stroke="#0033E6" stroke-width="8.68938" stroke-linecap="round"/>
    <path d="M228.283 337.113C228.537 334.823 230.235 332.977 229.726 330.437C229.105 327.327 225.964 324.581 224.043 322.317C219.411 316.858 214.087 311.901 210.6 305.582C203.316 292.378 217.425 280.498 228.96 275.945C236.431 272.996 245.547 267.284 253.814 267.284C256.547 267.284 254.04 278.904 256.431 276.035C263.476 267.581 266.7 254.612 277.175 254.612C289.432 254.612 309.305 266.161 301.991 279.327C297.306 287.76 286.418 275.246 285.413 272.607C283.357 267.211 301.049 251.616 304.426 251.866C311.522 252.392 315.657 268.53 320.846 272.607C328.454 278.585 329.451 294.316 322.831 300.935C317.277 306.489 308.904 303.745 301.991 302.65C292.825 301.198 282.457 299.907 274.158 295.297C270.555 293.295 267.549 292.435 265.182 296.154C260.996 302.731 258.024 310.807 249.394 312.348C238.427 314.306 226.879 314.378 215.743 314.378C208.527 314.378 201.762 312.754 194.587 312.754C193.336 312.754 192.239 312.251 192.512 313.205C192.829 314.315 192.509 315.901 192.376 316.994C191.902 320.904 192.382 325.175 191.564 328.993C190.794 332.589 186.039 332.064 183.264 332.286C178.952 332.631 174.688 334.029 170.453 334.857C162.629 336.388 154.859 337.113 146.907 337.113C145.766 337.113 141.309 336.466 140.682 337.564C140.026 338.711 142.347 342.04 143.027 342.796C148.855 349.272 148.217 370.468 137.75 372.794C133.145 373.817 130.977 368.671 133.735 365.125C137.373 360.448 148.406 369.332 151.553 371.982C157.459 376.955 155.658 390.383 155.658 397.649C155.658 406.117 154.093 412.778 150.335 420.293C146.719 427.525 141.472 438.675 149.433 445.284C159.667 453.78 167.448 455 175.557 467.475C178.8 472.466 180.464 476.274 181.776 480.062C185.532 490.913 191.611 504.443 191.925 515.743C192.086 521.527 194.191 529.037 191.925 534.418C191.105 536.366 186.196 546.163 184.031 538.587" stroke="#0033E6" stroke-width="8.68938" stroke-linecap="round"/>
    <path d="M212.36 538.587C216.103 551.687 215.426 564.822 218.27 578.003C220.447 588.09 221.093 598.809 221.093 609.093C221.093 612.118 221.093 613.586 221.093 617.184" stroke="#0033E6" stroke-width="8.68938" stroke-linecap="round"/>
    <path d="M299.744 574.202C299.744 580.153 298.222 586.118 298.12 592.065C298.046 596.354 297.425 601.28 298.526 605.463C298.809 606.538 299.744 610.952 299.744 608.447" stroke="#0033E6" stroke-width="8.68938" stroke-linecap="round"/>
    <path d="M221.899 618.931C228.908 623.642 235.714 624.621 243.983 625.062C255.081 625.653 266.013 625.47 277.072 624.249C285.859 623.279 302.083 622.629 307.65 614.278" stroke="#0033E6" stroke-width="10.3734" stroke-linecap="round"/>
    <path d="M310.273 612.952C311.719 614.339 313.606 614.686 315.393 615.106C324.198 617.171 333.065 618.995 342.044 619.505C365.025 620.808 387.995 620.144 410.978 619.138C433.675 618.145 456.959 617.399 479.482 621.2C493.868 623.628 505.218 630.046 518.364 636.413C533.993 643.983 548.581 655.029 559.826 669.864C581.818 698.875 589.581 738.142 590.776 775.806C591.635 802.864 589.627 829.496 583.938 855.766C582.054 864.463 578.918 872.141 576.513 880.602C574.997 885.935 573.429 892.142 571.237 897.098C569.21 901.682 567.411 907.462 566.47 912.54C565.86 915.831 564.37 918.923 564.203 922.255C564.164 923.041 563.681 925.014 563.461 925.92C562.885 928.282 561.153 923.746 560.647 923.079C549.702 908.642 536.744 896.666 525.828 882.206C512.322 864.313 495.513 848.819 483.585 829.418C475.547 816.345 466.988 803.968 460.802 789.461C459.124 785.525 457.572 781.243 455.566 777.547C453.615 773.953 457.839 773.408 460.373 772.644C471.564 769.269 481.022 764.665 487.376 752.711C490.569 746.703 493.159 739.723 493.159 732.549" stroke="#0033E6" stroke-width="8.54283" stroke-linecap="round"/>
    <path d="M229.548 623.182C215.443 624.168 199.892 633.081 186.13 637.838C155.564 648.403 123.856 655.056 90.6 669.091" stroke="#0033E6" stroke-width="9.76324" stroke-linecap="round"/>
    <path d="M396.162 759.138C400.46 708.366 399.95 657.559 406.725 606.93C407.424 604.127 408.07 604.759 408.353 601.416C408.65 597.91 407.777 594.506 408.059 591.173C409.078 579.133 398.994 569.637 403.056 557.297C404.01 554.4 406.106 547.189 409.025 545.472C413.965 542.568 411.238 541.806 414.765 545.502C418.794 549.724 422.149 556.32 425.112 561.22C428.375 566.617 432.544 570.08 436.592 574.979C442.394 582 447.874 589.239 452.599 596.999C458.667 606.963 466.781 615.713 471.269 626.437C481.931 651.916 484.457 680.143 487.689 706.833C489.741 723.786 488.683 741.485 487.899 758.456C487.089 775.979 486.168 793.384 484.687 810.874C482.963 831.241 481.209 851.846 476.686 871.849C473.147 887.5 472.488 903.788 469.103 919.501C466.398 932.056 464.129 943.96 463.049 956.722C462.075 968.219 467.949 981.644 462.894 992.843C460.846 997.382 455.84 996.673 451.436 997.867C449.608 998.363 447.306 989.617 446.448 988.197C440.827 978.902 436.203 969.56 426.527 962.877C423.621 960.871 419.729 956.142 417.519 953.438C413.056 947.975 409.227 941.812 407.379 935.282C405.085 927.181 403.316 919.127 400.781 911.091C394.49 891.138 396.581 870.251 394.855 850.021C392.329 820.427 393.661 788.679 396.162 759.138Z" fill="#FFEED8" stroke="#0038FF" stroke-width="2.86709" stroke-linecap="round"/>
    <path d="M444.833 716.704C438.113 705.077 429.031 695.622 420.483 687.254C418.87 689.647 428.376 708.448 430.249 712.348C437.045 726.502 442.378 741.745 449.095 755.918C449.475 756.72 457.597 773.229 457.872 766.027C458.226 756.762 454.553 745.22 452.027 735.905C450.183 729.109 448.22 722.566 444.833 716.704Z" fill="#FFEED8"/>
    <path d="M416.66 683.536C426.235 692.818 437.099 703.322 444.833 716.704C448.22 722.566 450.183 729.109 452.027 735.905C454.553 745.22 458.226 756.762 457.872 766.027C457.597 773.229 449.475 756.72 449.095 755.918C442.378 741.745 437.045 726.502 430.249 712.348C428.375 708.444 418.85 689.609 420.488 687.247" stroke="#0038FF" stroke-width="2.86708" stroke-linecap="round"/>
    <path d="M433.468 668.724C440.908 680.836 452.909 690.856 464.368 699.749C467.766 697.398 457.971 677.876 456.103 673.831C449.323 659.152 445.286 643.437 438.643 628.742C438.267 627.911 430.038 610.78 427.347 618.073C423.886 627.455 426.34 639.337 427.602 648.905C428.522 655.887 429.717 662.618 433.468 668.724Z" fill="#FFEED8"/>
    <path d="M469.501 703.701C456.636 693.833 442.031 682.664 433.468 668.724C429.717 662.618 428.522 655.887 427.602 648.905C426.34 639.337 423.886 627.455 427.347 618.073C430.038 610.78 438.267 627.911 438.643 628.742C445.286 643.437 449.323 659.152 456.103 673.831C457.973 677.88 467.786 697.437 464.358 699.756" stroke="#0038FF" stroke-width="2.86708" stroke-linecap="round"/>
    <path d="M428.285 765.918C431.682 766.514 435.788 775.246 437.409 777.913C442.255 785.888 446.633 794.017 450.166 802.659C453.187 810.047 454.302 817.302 454.075 825.255C453.965 829.095 453.623 837.327 448.801 838.323C442.62 839.601 437.361 833.153 435.172 828.147C431.599 819.978 431.813 810.215 431.419 801.465C430.94 790.863 428.936 780.343 428.457 769.734" stroke="#0038FF" stroke-width="2.86708" stroke-linecap="round"/>
    <path d="M427.146 859.268C429.837 859.482 432.356 873.058 433.317 875.517C436.611 883.947 441.92 891.179 445.61 899.392C447.104 902.716 449.91 916.154 444.625 918.045C440.105 919.662 436.147 915.436 434.529 911.788C427.775 896.57 433.204 878.405 427.318 863.084" stroke="#0038FF" stroke-width="2.86708" stroke-linecap="round"/>
    <path d="M241.902 699.4C244.121 698.632 249.212 696.1 251.504 696.915C257.722 695.797 269.442 699.214 273.128 699.479C279.078 699.908 285.823 697.413 291.792 698.463C296.502 699.291 301.149 699.626 305.681 701.517C312.072 704.184 317.868 707.883 323.978 710.997C325.08 711.558 331.953 715.402 331.272 717.029C330.373 719.172 328.795 720.899 326.672 721.944C325.498 722.522 322.903 723.981 321.638 724.691C323.83 723.691 327.181 724.359 329.402 723.72C332.552 722.812 337.656 724.55 340.537 725.401C344.509 726.574 348.401 728.075 352.378 729.187C357.504 730.619 385.5 742.139 379.265 749.992C377.217 752.571 378.589 751.601 381.217 751.874C383.988 752.162 386.662 753.314 389.515 753.282C397.088 753.196 405.24 753.6 412.235 757C418.997 760.286 425.203 764.252 431.755 767.731C437.287 770.668 440.711 775.522 443.922 780.795C450.236 791.161 457.435 801.61 451.547 813.727C448.915 819.141 445.245 824.133 442.595 829.585C441.596 831.641 440.524 833.575 440.053 835.812C439.884 836.613 438.17 841.015 439.87 839.316C440.697 838.489 441.423 838.142 442.435 837.591C446.783 835.226 448.126 842.515 446.652 845.548C442.204 854.699 437.893 864.41 432.469 873.166C426.959 882.062 421.799 891.567 417.218 900.991C415.179 905.187 414.854 907.337 415.143 911.659C415.21 912.664 416.063 912.898 414.612 912.679C412.494 912.36 410.323 911.344 408.178 911.418C404.368 911.549 400.343 910.546 396.48 910.396C393.144 910.267 388.957 908.715 385.807 907.548L385.72 907.515C379.724 905.293 374.024 902.24 368.097 899.848C364.305 898.318 358.697 897.013 355.568 894.209C349.987 889.207 340.813 886.971 334.304 882.803C319.817 873.527 304.263 865.477 290.662 854.89C281.289 847.595 272.813 839.231 263.925 831.359C256.598 824.869 248.332 819.601 240.097 814.355C232.482 809.503 224.874 804.653 217.254 799.798C211.916 796.397 206.006 793.923 200.901 790.158C197.127 787.374 193.697 785.055 192.165 780.626C190.976 777.19 191.923 772.348 193.37 769.19C194.496 766.733 195.598 763.903 197.401 761.891C198.884 760.236 201.301 757.99 202.268 756C204.043 752.348 203.685 749.245 205.526 745.458C207.64 741.107 210.212 737.096 212.331 732.736C213.92 729.465 214.984 725.997 216.541 722.794C218.136 719.512 215.792 715.379 217.407 712.057C220.055 706.607 222.868 704.309 228.678 702.3C232.953 700.821 237.628 700.878 241.902 699.4Z" fill="#0038FF" stroke="#FFEED8" stroke-width="1.63351" stroke-linecap="round"/>
    <path d="M210.47 753.749C217.636 753.533 225.436 753.939 231.573 749.689C235.158 747.206 237.996 744.175 241.081 741.158C243.534 738.758 246.033 736.71 249.304 735.536C252.954 734.226 256.655 733.276 260.234 731.74C263.346 730.404 266.505 729.176 269.638 727.888C273.239 726.406 276.639 724.414 280.35 723.255C281.327 722.95 282.303 722.725 283.324 722.713C287.303 722.668 291.322 723.044 295.298 723.209C297.991 723.322 300.669 723.663 303.356 723.851C305.004 723.966 306.676 723.788 308.323 723.721C309.729 723.665 310.32 723.036 311.396 722.367C311.681 722.189 312.863 721.187 312.658 720.756C312.491 720.404 312.025 720.128 311.729 719.863C310.346 718.624 308.671 717.759 307.031 716.917C304.157 715.442 301.225 714.073 298.245 712.822C295.27 711.574 292.148 711.014 288.963 710.641C286.088 710.305 283.027 710.716 280.206 711.282C278.03 711.719 275.846 712.14 273.777 712.963C271.714 713.783 269.364 714.797 267.948 716.588C265.656 719.487 263.393 722.509 260.775 725.126C258.232 727.668 255.292 729.79 252.723 732.309C251.592 733.417 249.554 734.254 248.864 735.673" stroke="#FFEED8" stroke-width="1.47328" stroke-linecap="round"/>
    <path d="M266.709 758.464C272.808 757.117 279.175 757.17 285.368 756.55C290.068 756.08 294.565 755.431 299.094 754.068C302.635 753.002 305.942 751.409 309.35 749.998C315.483 747.457 321.834 746.209 328.432 745.694C334.278 745.237 340.088 745.621 345.932 745.913C349.983 746.116 354.02 745.817 358.073 746.019C359.708 746.1 361.39 746.257 363.025 746.125C363.687 746.072 364.579 745.965 365.017 745.38C366.019 744.041 365.029 742.968 364.04 741.89C360.5 738.029 355.399 735.805 350.696 733.729C346.733 731.98 342.569 730.824 338.264 730.322C333.342 729.747 328.188 730.168 323.297 730.876C317.434 731.725 311.254 732.989 305.8 735.349C302.917 736.597 300.427 738.245 298.032 740.27C295.638 742.294 293.225 744.245 290.998 746.455C288.601 748.833 286.362 751.161 283.492 752.981C280.761 754.714 277.921 756.654 274.691 757.271C273.268 757.543 271.705 757.562 270.261 757.517C269.518 757.494 268.755 757.553 268.021 757.456" stroke="#FFEED8" stroke-width="1.47328" stroke-linecap="round"/>
    <path d="M265.007 764.218C261.679 762.601 257.418 765.096 255.053 767.384C251.951 770.383 251.279 774.267 251.749 778.412C251.952 780.206 252.208 782.496 253.495 783.891C255.442 786.002 259.108 786.781 261.691 787.585C266.015 788.932 270.805 789.61 275.28 788.646C279.552 787.725 283.442 785.702 286.932 783.129C293.017 778.643 299.1 774.069 306.105 771.101C311.98 768.612 318.268 767.003 324.471 765.574C331.023 764.065 337.621 763.223 344.303 762.563C348.191 762.179 352.047 762.028 355.945 761.893C357.072 761.854 358.275 761.887 359.309 761.396C360.564 760.799 361.962 760.358 362.539 758.982C363.379 756.978 362.215 755.201 360.265 754.587C356.988 753.557 353.365 753.066 349.975 752.602C347.875 752.314 345.765 752.204 343.649 752.109C341.314 752.004 338.939 751.85 336.607 752.09C332.759 752.488 328.951 753.373 325.339 754.747C322.53 755.816 319.821 757.126 317.037 758.26C310.806 760.798 303.93 762.02 297.261 762.691C291.077 763.314 284.794 763.585 278.577 763.655C274.161 763.705 269.771 763.748 265.376 763.301C264.389 763.201 263.403 763.026 262.436 762.801C262.318 762.774 261.802 762.6 261.693 762.638C261.639 762.656 262.224 763.414 262.351 763.476" stroke="#FFEED8" stroke-width="1.47328" stroke-linecap="round"/>
    <path d="M275.349 825.858C277.703 825.832 279.884 825.407 282.067 824.509C284.264 823.604 286.352 822.391 288.408 821.208C290.702 819.889 293.009 818.57 295.223 817.119C297.795 815.433 300.334 813.654 302.723 811.717C305.226 809.686 307.404 807.358 309.626 805.034C313.647 800.829 318.405 797.422 322.724 793.534C325.639 790.911 328.756 788.581 331.974 786.348C334.575 784.543 336.69 782.177 339.271 780.36C341.458 778.82 343.861 777.504 346.493 776.97C350.503 776.156 354.485 776.736 358.506 777.181C363.349 777.717 368.194 778.503 373.073 778.626C376.948 778.723 380.811 778.647 384.688 778.78C389.357 778.939 393.984 779.514 398.439 780.962C401.083 781.822 403.908 782.82 405.721 785.05C407.415 787.134 407.58 790.076 407.301 792.641C406.985 795.547 406.05 797.96 404.377 800.366C402.464 803.117 400.155 805.443 397.453 807.419C395.881 808.569 394.236 809.71 392.373 810.334C389.444 811.317 386.265 810.797 383.296 810.271C377.823 809.301 372.697 807.039 367.281 805.899C363.381 805.078 359.508 805.916 355.627 806.343C353.008 806.631 350.391 806.82 347.796 807.288C345.237 807.751 342.713 808.371 340.161 808.863C335.131 809.833 330.029 810.295 324.909 810.193C317.517 810.045 310.382 810.938 303.934 814.772C302.143 815.837 300.346 816.913 298.378 817.616C296.655 818.232 294.945 818.769 293.202 819.32C291.41 819.886 289.709 820.822 287.992 821.578C286.34 822.305 284.69 823.058 283.026 823.756C281.701 824.313 280.364 825.019 278.961 825.352C278.47 825.469 277.818 825.711 277.328 825.594C276.885 825.489 275.64 825.557 276.778 825.456" stroke="#FFEED8" stroke-width="1.47328" stroke-linecap="round"/>
    <path d="M318.185 833.143C318.794 833.22 319.381 833.142 319.974 833.094C322.55 832.883 325.141 832.727 327.73 832.559C338.068 831.888 348.55 831.614 358.748 830.47C362.565 830.041 366.433 829.712 370.205 829.169C374.448 828.559 378.571 827.677 382.76 826.952C386.3 826.339 389.9 825.86 393.477 825.33C397.067 824.798 400.608 824.126 404.245 823.707C408.954 823.165 414.615 822.843 419.465 823.83C422.251 824.398 424.593 825.672 425.291 827.698C425.607 828.615 425.068 829.618 424.549 830.393C423.31 832.239 421.07 834.078 418.772 835.286C412.124 838.782 403.432 839.777 394.906 839.624C390.733 839.548 386.553 839.078 382.376 838.806C378.718 838.568 375.067 838.477 371.411 838.284C363.018 837.842 354.706 836.797 346.329 836.032C339.86 835.442 333.432 835.078 326.983 834.26C323.835 833.86 320.548 833.567 317.46 833.175" stroke="#FFEED8" stroke-width="1.47328" stroke-linecap="round"/>
    <path d="M315.786 851.392C316.108 851.549 316.474 851.559 316.834 851.597C318.394 851.763 319.944 851.981 321.496 852.187C327.695 853.012 333.831 854.224 340.124 854.593C342.479 854.73 344.827 854.967 347.199 854.993C349.866 855.021 352.564 854.783 355.242 854.698C357.506 854.627 359.755 854.687 362.009 854.697C364.272 854.707 366.558 854.581 368.805 854.703C371.716 854.86 375.094 855.354 377.524 856.945C378.919 857.859 379.8 859.364 379.457 861.334C379.302 862.226 378.623 863.079 378.039 863.722C376.647 865.255 374.682 866.642 372.914 867.437C367.802 869.739 362.431 869.444 357.579 868.11C355.204 867.457 352.969 866.438 350.665 865.602C348.646 864.871 346.577 864.276 344.543 863.587C339.873 862.004 335.471 859.876 330.929 857.998C327.421 856.548 323.854 855.313 320.441 853.655C318.775 852.845 316.99 852.115 315.357 851.321" stroke="#FFEED8" stroke-width="1.47328" stroke-linecap="round"/>
    <path d="M115.01 774.045C115.01 803.969 142.928 981.79 134.377 1010.61C132.43 1017.17 134.248 1025.77 133.412 1032.61C133.082 1035.31 132.131 1041.02 133.251 1043.71C133.358 1043.97 136.483 1042.9 136.737 1042.84C141.049 1041.67 145.396 1040.76 149.823 1040.1C186.771 1034.58 225.223 1037.03 262.446 1037.83C292.734 1038.47 322.986 1038.5 353.296 1038.7C377.345 1038.87 401.403 1039.63 425.482 1039.63C441.638 1039.63 457.379 1040.26 473.267 1037.26C479.395 1036.1 489.348 1035.73 494.236 1031.27C496.169 1029.51 497.313 1029.02 499.599 1028.01C503.086 1026.49 514.263 1029.54 511.076 1027.5C510.065 1026.85 508.465 1023.12 507.537 1021.97C504.197 1017.84 500.477 1013.11 496.65 1009.42C490.99 1003.97 487.837 996.582 482.652 991.296C477.047 985.581 477.206 974.168 473.75 967.126C469.124 957.703 467.374 948.197 464.793 938.257C462.041 927.657 464.311 913.995 464.311 902.984" stroke="#0038FF" stroke-width="7.32243" stroke-linecap="round"/>
    <path d="M133.748 804.898C150.631 852.973 162.868 902.287 182.113 949.603C183.492 952.141 183.959 951.368 185.071 954.533C186.237 957.853 186.245 961.368 187.353 964.523C191.356 975.924 183.973 987.644 190.997 998.572C192.647 1001.14 196.483 1007.59 199.739 1008.52C205.249 1010.1 202.801 1011.52 205.288 1007.06C208.131 1001.96 209.726 994.734 211.367 989.248C213.174 983.206 216.342 978.808 219.033 973.051C222.891 964.8 226.382 956.419 229.012 947.723C232.389 936.556 238.052 926.052 239.71 914.546C243.648 887.207 239.021 859.248 235.461 832.6C233.2 815.674 227.741 798.804 222.729 782.571C217.555 765.81 212.301 749.191 206.485 732.63C199.713 713.345 192.852 693.837 183.461 675.606C176.113 661.341 171.394 645.737 164.18 631.374C158.415 619.896 153.236 608.941 148.992 596.857C145.169 585.971 147.491 571.503 139.791 561.927C136.671 558.046 132.003 559.987 127.44 559.934C125.546 559.912 125.51 568.956 125.034 570.545C121.922 580.952 119.786 591.155 112.093 600.049C109.783 602.72 107.199 608.273 105.738 611.445C102.786 617.852 100.623 624.778 100.47 631.562C100.28 639.98 100.585 648.22 100.145 656.635C99.0534 677.527 106.312 697.225 109.71 717.241C114.68 746.524 123.924 776.926 133.748 804.898Z" fill="#FFEED8" stroke="#0038FF" stroke-width="2.86709" stroke-linecap="round"/>
    <path d="M191.499 833.782C187.907 846.722 181.483 858.151 175.305 868.394C173.143 866.482 177.636 845.899 178.471 841.653C181.504 826.249 182.848 810.155 185.799 794.751C185.966 793.88 189.692 775.862 191.763 782.766C194.427 791.647 193.764 803.741 193.652 813.391C193.57 820.432 193.309 827.259 191.499 833.782Z" fill="#FFEED8"/>
    <path d="M172.536 872.952C179.48 861.566 187.365 848.675 191.499 833.782C193.309 827.259 193.57 820.432 193.652 813.391C193.764 803.741 194.427 791.647 191.763 782.766C189.692 775.862 185.966 793.88 185.799 794.751C182.848 810.155 181.504 826.249 178.471 841.653C177.635 845.903 173.134 866.524 175.312 868.4" stroke="#0038FF" stroke-width="2.86708" stroke-linecap="round"/>
    <path d="M192.519 883.079C196.687 869.489 205.795 856.782 214.66 845.301C218.538 846.726 213.947 868.079 213.152 872.463C210.266 888.373 210.297 904.598 207.547 920.489C207.392 921.387 203.717 940.034 199.285 933.648C193.584 925.432 192.982 913.314 191.806 903.735C190.947 896.746 190.418 889.93 192.519 883.079Z" fill="#FFEED8"/>
    <path d="M218.639 840.189C208.656 852.966 197.316 867.438 192.519 883.079C190.418 889.93 190.947 896.746 191.806 903.735C192.982 913.314 193.584 925.432 199.285 933.648C203.717 940.034 207.392 921.387 207.547 920.489C210.297 904.598 210.266 888.373 213.152 872.463C213.948 868.075 218.547 846.683 214.648 845.297" stroke="#0038FF" stroke-width="2.86708" stroke-linecap="round"/>
    <path d="M163.146 790.284C166.285 788.856 168.073 779.374 168.973 776.386C171.667 767.451 173.868 758.484 175.123 749.233C176.196 741.324 175.458 734.021 173.245 726.378C172.177 722.688 169.783 714.804 164.866 715.048C158.561 715.36 155.086 722.92 154.221 728.315C152.809 737.119 155.463 746.517 157.273 755.086C159.466 765.47 160.162 776.156 162.357 786.547" stroke="#0038FF" stroke-width="2.86708" stroke-linecap="round"/>
    <path d="M138.652 700.197C141.205 699.316 140.241 685.542 140.555 682.921C141.632 673.934 144.959 665.603 146.474 656.727C147.088 653.135 146.436 639.422 140.847 638.916C136.066 638.483 133.293 643.566 132.64 647.503C129.916 663.929 139.723 680.153 137.863 696.46" stroke="#0038FF" stroke-width="2.86708" stroke-linecap="round"/>
    <path d="M187.337 824.931C176.956 824.821 86.6039 816.209 75.484 813.088L80.1524 875.15C84.37 875.825 185.355 876.505 202.673 879.41C223.035 882.826 243.075 887.665 263.365 891.397C284.107 895.212 305.14 897.658 326.059 900.28C346.409 902.832 367.463 906.778 388.244 905.123L388.245 905.123C391.271 904.882 405.135 903.778 404.513 895.729C404.024 889.387 396.032 889.637 390.841 888.828C385.65 888.019 349.533 879.309 350.743 877.444C352.436 874.833 389.18 878.167 395.416 876.539C401.652 874.911 411.615 869.821 414.032 860.973C416.072 853.503 400.977 855.849 397.006 855.983C393.035 856.118 353.811 856.567 352.105 855.918C349.021 854.743 384.957 845.09 385.758 844.695C390.301 842.454 398.061 841.783 400.26 835.112C401.968 829.928 398.743 824.822 395.677 823.704C391.203 822.072 387.495 825.029 381.908 826.758C376.321 828.488 352.9 831.649 351.742 829.528C350.971 828.114 384.417 814.768 385.193 814.148C393.487 807.515 386.141 799.825 380.059 797.406C372.57 794.428 364.104 797.139 356.429 799.465C346.5 802.475 336.545 805.466 326.657 808.785C316.91 812.056 307.27 816.407 297.366 818.427C291.783 819.565 282.712 821.574 277.584 817.966C275.462 816.474 284.823 811.95 285.363 811.654C288.357 810.012 292.467 808.161 293.94 803.882C296.866 795.378 292.564 779.306 286.344 778.921C283.497 778.745 274.582 784.077 272.051 785.518C265.424 789.293 259.078 794.279 252.327 797.592C232.958 807.1 207.334 825.142 187.337 824.931Z" fill="#FFEED8" stroke="#0033E6" stroke-width="7" stroke-linecap="round"/>
    <path d="M53.3794 756.349C53.3794 756.349 128.782 747.914 109.823 772.825L81.7538 844.524L61.0757 929.342C31.0473 926.316 15.1407 917.209 -11.538 886.933C-48.8197 822.802 -42.1486 784.797 19.2772 713.33L53.3794 756.349Z" fill="#FFEED8"/>
    <path d="M97.6191 666.039C69.123 679.902 23.1208 699.654 0.291939 722.483C-18.2755 741.05 -33.5761 772.534 -38.761 798.459C-45.2515 830.911 -36.1058 853.631 -17.3806 879.255C-3.99369 897.574 18.2548 917.237 39.177 926.536C44.3785 928.848 53.6904 928.415 59.3762 929.678C66.5382 931.27 67.9478 906.688 68.8024 902.896C78.1486 861.422 77.5257 834.548 101.586 798.459C107.516 789.563 106.467 789.91 114.4 774.35" stroke="#0033E6" stroke-width="9.76324" stroke-linecap="round"/>
    <path d="M404.914 989.263C399.193 996.775 392.751 1004.2 385.789 1011.02C378.113 1018.55 366.227 1019.06 354.506 1017.25C345.345 1015.83 336.047 1012.94 328.578 1010.63C326.463 1009.97 324.494 1009.36 322.716 1008.84C312.002 1005.71 301.029 1003.11 290.057 1000.5C283.237 998.882 276.418 997.263 269.662 995.518C254.908 991.708 239.957 987.942 225.188 984.344L224.987 984.295L224.907 984.275C211.489 981.006 194.602 976.892 182.773 970.006C178.127 967.302 175.4 964.158 173.83 960.691C172.27 957.247 171.888 953.56 171.801 949.841C171.669 944.271 172.665 938.678 173.959 933.199C174.525 930.804 175.139 928.463 175.745 926.152C176.544 923.105 177.33 920.111 177.973 917.114L182.248 897.203C182.594 895.591 182.858 893.865 183.133 892.065C183.407 890.274 183.691 888.414 184.076 886.58C184.845 882.917 186.032 879.256 188.441 876.272C191.832 872.073 195.136 868.292 199.625 864.666C201.698 862.991 204.688 861.69 207.722 860.598C209.486 859.964 211.362 859.369 213.114 858.814C214.336 858.426 215.498 858.058 216.519 857.709C220.195 856.452 224.402 855.908 228.567 855.458C229.173 855.393 229.778 855.33 230.381 855.267C233.96 854.892 237.462 854.525 240.652 853.793C246.013 852.562 251.172 851.856 257.211 852.519C271.731 854.115 286.027 856.886 300.321 859.657C304.624 860.491 308.926 861.325 313.234 862.127C329.121 865.083 344.497 868.436 360.184 872.647C371.288 875.629 381.932 878.832 390.803 885.503C399.35 891.93 403.656 901.431 407.33 909.539C407.556 910.038 407.78 910.531 408.002 911.018C415.388 927.221 419.12 944.188 415.638 960.408C415.528 960.922 415.418 961.436 415.308 961.951C413.297 971.38 411.261 980.928 404.914 989.263Z" fill="#0033E6" stroke="#FFEED8" stroke-width="1.83061" stroke-linecap="round"/>
    <path d="M339.195 874.071C342.817 875.15 345.616 877.374 348.229 879.617C354.278 884.81 360.663 889.817 365.294 895.901C367.833 899.237 377.008 915.379 370.683 917.901C367.516 919.164 356.746 912.267 354.515 911.044C346.352 906.568 339.703 901.771 335.202 894.761C329.995 886.649 327.935 879.262 319.59 872.236C317.178 870.206 312.595 865.166 313.19 870.642C314.509 882.77 317.666 893.322 324.45 904.545C329.128 912.283 318.48 913.27 312.436 908.957C299.283 899.572 300.622 890.245 298.188 878.766C296.741 871.946 292.238 867.578 287.158 862.107C284.842 859.612 284.853 863.426 284.575 864.718C283.77 868.471 282.125 872.505 283.069 876.444C283.771 879.373 288.032 894.443 283.394 896.125C274.373 899.398 263.056 882.973 263.718 877.346C264.464 871.013 266.726 865.072 268.593 859.088C270.53 852.884 275.854 854.139 282.496 855.565C300.563 859.444 318.177 866.392 335.978 870.214" stroke="#FFEED8" stroke-width="2.2115" stroke-linecap="round"/>
    <path d="M440.886 877.861C450.662 874.368 533.253 836.732 542.744 830.152L558.593 890.337C554.826 892.352 459.596 925.963 444.176 934.362C426.044 944.238 408.682 955.355 390.723 965.506C372.363 975.883 353.28 985.061 334.363 994.369C315.961 1003.42 297.349 1014.03 277.167 1019.25L277.165 1019.25C274.227 1020.01 260.762 1023.49 258.721 1015.68C257.114 1009.53 264.749 1007.15 269.392 1004.69C274.034 1002.23 305.329 982.211 303.577 980.843C301.124 978.927 267.481 994.074 261.056 994.571C254.63 995.068 243.551 993.51 238.378 985.936C234.011 979.541 249.045 976.83 252.842 975.661C256.64 974.491 293.861 962.112 295.262 960.94C297.793 958.823 260.675 961.431 259.789 961.319C254.763 960.683 247.209 962.583 242.953 956.995C239.646 952.653 241.027 946.774 243.56 944.716C247.256 941.714 251.727 943.297 257.572 943.108C263.418 942.919 286.588 938.261 286.989 935.878C287.257 934.29 251.287 932.594 250.35 932.261C240.345 928.7 244.778 919.033 249.738 914.76C255.844 909.5 264.731 909.299 272.745 908.993C283.112 908.596 293.498 908.173 303.928 908.082C314.21 907.992 324.741 908.958 334.762 907.634C340.411 906.887 349.641 905.824 353.31 900.74C354.829 898.637 344.503 897.417 343.896 897.313C340.53 896.739 336.042 896.331 333.252 892.767C327.71 885.685 326.53 869.088 332.283 866.694C334.916 865.598 345.084 867.727 347.946 868.264C355.442 869.668 363.069 872.309 370.532 873.237C391.943 875.901 422.054 884.589 440.886 877.861Z" fill="#FFEED8" stroke="#0033E6" stroke-width="7" stroke-linecap="round"/>
    <path d="M292.064 669.542C293.818 665.017 297.282 661.318 300.783 658.05C302.965 656.013 306.321 652.826 308.819 651.642C310.522 650.656 312.425 649.674 314.428 649.373C318.007 648.837 321.699 649.037 325.31 649.037C328.383 649.037 331.284 649.02 334.302 649.699C342.66 651.58 350.691 655.17 354.775 663.134C356.652 666.794 358.194 670.615 358.934 674.689C359.84 679.67 360.956 684.772 360.584 689.878C360.217 694.91 358.951 699.207 356.655 703.68C355.473 705.983 353.969 708.071 352.726 710.34C351.244 713.047 350.162 715.982 348.21 718.407C345.529 721.737 342.516 722.964 338.399 723.534C335.523 723.931 332.538 723.723 329.638 723.723C325.807 723.723 321.843 723.581 318.209 722.305C316.014 721.533 313.865 720.252 311.77 719.237C307.802 717.315 303.745 715.453 299.942 713.218C294.65 710.108 288.387 705.098 287.358 698.586C286.761 694.804 286.953 690.661 287.579 686.905C288.56 681.017 289.905 675.115 292.064 669.542Z" fill="#FFEED8" stroke="#0033E6" stroke-width="2.44081" stroke-linecap="round"/>
    <path d="M309.008 652.381C309.182 654.295 309.915 656.695 310.693 658.445C311.792 660.918 311.282 657.744 311.282 658.445" stroke="#0033E6" stroke-width="2.44081" stroke-linecap="round"/>
    <path d="M343.873 654.655C341.902 654.901 338.268 662.234 338.568 662.234" stroke="#0033E6" stroke-width="2.44081" stroke-linecap="round"/>
    <path d="M359.034 675.12C356.202 675.12 353.489 675.878 350.697 675.878" stroke="#0033E6" stroke-width="2.44081" stroke-linecap="round"/>
    <path d="M355.244 703.164C352.231 703.164 349.264 702.406 346.148 702.406" stroke="#0033E6" stroke-width="2.44081" stroke-linecap="round"/>
    <path d="M307.494 716.049C307.494 714.025 308.171 712.42 309.01 710.744" stroke="#0033E6" stroke-width="2.44081" stroke-linecap="round"/>
    <path d="M311.593 679.916C313.346 675.391 316.81 671.692 320.311 668.424C322.493 666.387 325.849 663.2 328.347 662.016C330.05 661.03 331.953 660.048 333.956 659.747C337.536 659.211 341.227 659.411 344.839 659.411C347.911 659.411 350.812 659.394 353.83 660.073C362.188 661.954 370.219 665.544 374.303 673.508C376.18 677.168 377.722 680.989 378.463 685.063C379.369 690.044 380.484 695.146 380.112 700.252C379.745 705.284 378.479 709.581 376.183 714.055C375.002 716.357 373.497 718.445 372.255 720.714C370.772 723.421 369.69 726.356 367.738 728.781C365.058 732.112 362.044 733.339 357.927 733.908C355.052 734.305 352.066 734.097 349.166 734.097C345.335 734.097 341.371 733.955 337.738 732.679C335.543 731.907 333.393 730.626 331.299 729.611C327.33 727.689 323.273 725.827 319.471 723.592C314.179 720.482 307.915 715.472 306.887 708.96C306.29 705.178 306.481 701.035 307.107 697.279C308.089 691.391 309.433 685.489 311.593 679.916Z" fill="#FFEED8" stroke="#0033E6" stroke-width="2.44081" stroke-linecap="round"/>
    <path d="M328.537 662.755C328.711 664.669 329.444 667.069 330.221 668.819C331.321 671.292 330.811 668.118 330.811 668.819" stroke="#0033E6" stroke-width="2.44081" stroke-linecap="round"/>
    <path d="M363.402 665.029C361.43 665.275 357.797 672.608 358.097 672.608" stroke="#0033E6" stroke-width="2.44081" stroke-linecap="round"/>
    <path d="M378.564 685.494C375.732 685.494 373.018 686.252 370.226 686.252" stroke="#0033E6" stroke-width="2.44081" stroke-linecap="round"/>
    <path d="M374.772 713.538C371.759 713.538 368.792 712.78 365.677 712.78" stroke="#0033E6" stroke-width="2.44081" stroke-linecap="round"/>
    <path d="M327.02 726.423C327.02 724.399 327.698 722.794 328.536 721.118" stroke="#0033E6" stroke-width="2.44081" stroke-linecap="round"/>
    <path d="M469.891 622.105L532.271 644.102L574.703 693.835L594.018 787.243L585.786 865.668L563.303 934.528L501.239 865.668L451.841 785.649C456.637 791.137 551.587 709.456 469.891 622.105Z" fill="#FFEED8"/>
    <path d="M476.007 619.664C490.966 622.203 502.768 628.916 516.438 635.576C532.69 643.493 547.858 655.048 559.551 670.564C582.419 700.908 590.491 741.98 591.734 781.374C592.627 809.676 590.539 837.533 584.623 865.009C582.664 874.106 579.403 882.137 576.902 890.987C575.326 896.565 573.696 903.057 571.417 908.241C569.309 913.035 567.438 919.081 566.459 924.393C565.825 927.834 564.276 931.068 564.103 934.554C564.061 935.377 563.56 937.44 563.33 938.388C562.732 940.858 560.931 936.114 560.405 935.416C549.024 920.315 535.549 907.789 524.2 892.664C510.156 873.95 492.677 857.743 480.274 837.451C471.916 823.777 463.016 810.831 456.584 795.657C454.839 791.54 453.225 787.062 451.139 783.196C449.111 779.436 453.503 778.866 456.137 778.067C467.774 774.538 477.609 769.722 484.215 757.218C487.536 750.934 490.229 743.633 490.229 736.13" stroke="#0033E6" stroke-width="8.54283" stroke-linecap="round"/>
  </g>
  <defs>
    <clipPath id="clip0_229_356">
      <rect width="1000" height="1000" fill="white"/>
    </clipPath>
  </defs>
</svg>