<svg width="1049" height="1049" viewBox="0 0 1049 1049" fill="none" xmlns="http://www.w3.org/2000/svg">
<rect width="1049" height="1049" fill="#0033E6"/>
<path d="M58.3914 104C57.1807 104 56.2414 103.666 55.5734 102.998C54.9054 102.33 54.5714 101.391 54.5714 100.18V63.3581C54.5714 62.1474 54.9054 61.208 55.5734 60.5401C56.2414 59.8721 57.1807 59.5381 58.3914 59.5381H70.8533C75.5291 59.5381 79.1194 60.4983 81.6243 62.4187C84.1292 64.3391 85.3817 67.0528 85.3817 70.5596C85.3817 73.148 84.7972 75.2354 83.6282 76.8219C82.501 78.3666 80.9981 79.4311 79.1194 80.0156C81.7496 80.4749 83.8578 81.7273 85.4443 83.773C87.0725 85.8186 87.8866 88.2609 87.8866 91.0998C87.8866 94.9824 86.5089 98.1135 83.7535 100.493C80.9981 102.831 77.0529 104 71.9178 104H58.3914ZM70.8533 78.1369C73.1494 78.1369 74.9028 77.6151 76.1135 76.5714C77.366 75.5277 77.9922 73.983 77.9922 71.9373C77.9922 70.0169 77.366 68.514 76.1135 67.4285C74.8611 66.3431 73.1077 65.8003 70.8533 65.8003H61.8983V78.1369H70.8533ZM71.9178 97.7378C74.5897 97.7378 76.6771 97.1324 78.1801 95.9217C79.7248 94.711 80.4971 93.0411 80.4971 90.9119C80.4971 88.741 79.7456 87.0085 78.2427 85.7143C76.7398 84.3783 74.6941 83.7103 72.1057 83.7103H61.8983V97.7378H71.9178ZM124.057 71.2485C125.018 71.2485 125.853 71.5616 126.562 72.1878C127.272 72.814 127.627 73.6908 127.627 74.818V100.806C127.627 101.892 127.272 102.768 126.562 103.436C125.853 104.063 125.018 104.376 124.057 104.376C123.097 104.376 122.241 104.063 121.49 103.436C120.78 102.768 120.425 101.892 120.425 100.806V97.362C119.507 99.6164 117.962 101.391 115.791 102.685C113.62 103.979 111.074 104.626 108.151 104.626C104.978 104.626 102.181 103.875 99.7599 102.372C97.3385 100.869 95.4598 98.8232 94.1238 96.2348C92.8296 93.6464 92.1825 90.7867 92.1825 87.6556C92.1825 84.4409 92.8505 81.5603 94.1865 79.0137C95.5642 76.467 97.4846 74.4631 99.9477 73.0019C102.411 71.5407 105.271 70.8101 108.527 70.8101C110.99 70.8101 113.286 71.3946 115.415 72.5636C117.545 73.7325 119.215 75.3398 120.425 77.3855V74.818C120.425 73.6908 120.78 72.814 121.49 72.1878C122.2 71.5616 123.055 71.2485 124.057 71.2485ZM109.967 98.1761C111.971 98.1761 113.746 97.7169 115.29 96.7984C116.877 95.88 118.108 94.6275 118.985 93.0411C119.903 91.4546 120.363 89.6803 120.363 87.7182C120.363 85.756 119.903 84.0026 118.985 82.4579C118.108 80.8715 116.877 79.619 115.29 78.7006C113.746 77.7821 111.971 77.3229 109.967 77.3229C107.963 77.3229 106.147 77.7612 104.519 78.6379C102.933 79.5146 101.68 80.7462 100.762 82.3326C99.8851 83.9191 99.4467 85.7143 99.4467 87.7182C99.4467 90.7658 100.428 93.2707 102.39 95.2329C104.352 97.195 106.878 98.1761 109.967 98.1761ZM153.002 70.8101C155.423 70.8101 157.615 71.3111 159.577 72.3131C161.581 73.315 163.167 74.8806 164.336 77.0097C165.547 79.1389 166.152 81.7899 166.152 84.9628V100.618C166.152 101.787 165.777 102.706 165.025 103.374C164.315 104.042 163.48 104.376 162.52 104.376C161.56 104.376 160.704 104.042 159.953 103.374C159.243 102.706 158.888 101.787 158.888 100.618V86.0274C158.888 82.8545 158.116 80.5583 156.571 79.1389C155.068 77.7195 153.169 77.0097 150.872 77.0097C148.284 77.0097 146.218 77.8238 144.673 79.452C143.17 81.0802 142.398 83.3972 142.356 86.4031V100.744C142.356 101.829 141.98 102.706 141.229 103.374C140.519 104 139.684 104.313 138.724 104.313C137.763 104.313 136.908 104 136.156 103.374C135.446 102.706 135.092 101.829 135.092 100.744V74.7553C135.092 73.6281 135.446 72.7514 136.156 72.1252C136.866 71.499 137.722 71.1859 138.724 71.1859C139.726 71.1859 140.581 71.499 141.291 72.1252C142.001 72.7514 142.356 73.6281 142.356 74.7553V76.6966C143.4 74.818 144.819 73.3776 146.614 72.3757C148.409 71.332 150.538 70.8101 153.002 70.8101ZM203.314 71.2485C204.274 71.2485 205.109 71.5616 205.819 72.1878C206.528 72.814 206.883 73.6908 206.883 74.818V100.806C206.883 101.892 206.528 102.768 205.819 103.436C205.109 104.063 204.274 104.376 203.314 104.376C202.354 104.376 201.498 104.063 200.746 103.436C200.037 102.768 199.682 101.892 199.682 100.806V97.362C198.763 99.6164 197.219 101.391 195.048 102.685C192.877 103.979 190.33 104.626 187.408 104.626C184.235 104.626 181.438 103.875 179.016 102.372C176.595 100.869 174.716 98.8232 173.38 96.2348C172.086 93.6464 171.439 90.7867 171.439 87.6556C171.439 84.4409 172.107 81.5603 173.443 79.0137C174.821 76.467 176.741 74.4631 179.204 73.0019C181.667 71.5407 184.527 70.8101 187.783 70.8101C190.247 70.8101 192.543 71.3946 194.672 72.5636C196.801 73.7325 198.471 75.3398 199.682 77.3855V74.818C199.682 73.6908 200.037 72.814 200.746 72.1878C201.456 71.5616 202.312 71.2485 203.314 71.2485ZM189.224 98.1761C191.228 98.1761 193.002 97.7169 194.547 96.7984C196.133 95.88 197.365 94.6275 198.241 93.0411C199.16 91.4546 199.619 89.6803 199.619 87.7182C199.619 85.756 199.16 84.0026 198.241 82.4579C197.365 80.8715 196.133 79.619 194.547 78.7006C193.002 77.7821 191.228 77.3229 189.224 77.3229C187.22 77.3229 185.404 77.7612 183.776 78.6379C182.189 79.5146 180.937 80.7462 180.018 82.3326C179.142 83.9191 178.703 85.7143 178.703 87.7182C178.703 90.7658 179.684 93.2707 181.646 95.2329C183.609 97.195 186.134 98.1761 189.224 98.1761ZM232.258 70.8101C234.679 70.8101 236.871 71.3111 238.833 72.3131C240.837 73.315 242.424 74.8806 243.593 77.0097C244.803 79.1389 245.409 81.7899 245.409 84.9628V100.618C245.409 101.787 245.033 102.706 244.282 103.374C243.572 104.042 242.737 104.376 241.777 104.376C240.816 104.376 239.961 104.042 239.209 103.374C238.499 102.706 238.145 101.787 238.145 100.618V86.0274C238.145 82.8545 237.372 80.5583 235.828 79.1389C234.325 77.7195 232.425 77.0097 230.129 77.0097C227.541 77.0097 225.474 77.8238 223.929 79.452C222.426 81.0802 221.654 83.3972 221.612 86.4031V100.744C221.612 101.829 221.237 102.706 220.485 103.374C219.775 104 218.94 104.313 217.98 104.313C217.02 104.313 216.164 104 215.413 103.374C214.703 102.706 214.348 101.829 214.348 100.744V74.7553C214.348 73.6281 214.703 72.7514 215.413 72.1252C216.122 71.499 216.978 71.1859 217.98 71.1859C218.982 71.1859 219.838 71.499 220.548 72.1252C221.257 72.7514 221.612 73.6281 221.612 74.7553V76.6966C222.656 74.818 224.075 73.3776 225.871 72.3757C227.666 71.332 229.795 70.8101 232.258 70.8101ZM282.57 71.2485C283.531 71.2485 284.365 71.5616 285.075 72.1878C285.785 72.814 286.14 73.6908 286.14 74.818V100.806C286.14 101.892 285.785 102.768 285.075 103.436C284.365 104.063 283.531 104.376 282.57 104.376C281.61 104.376 280.754 104.063 280.003 103.436C279.293 102.768 278.938 101.892 278.938 100.806V97.362C278.02 99.6164 276.475 101.391 274.304 102.685C272.133 103.979 269.587 104.626 266.664 104.626C263.491 104.626 260.694 103.875 258.273 102.372C255.851 100.869 253.973 98.8232 252.637 96.2348C251.343 93.6464 250.695 90.7867 250.695 87.6556C250.695 84.4409 251.363 81.5603 252.699 79.0137C254.077 76.467 255.998 74.4631 258.461 73.0019C260.924 71.5407 263.784 70.8101 267.04 70.8101C269.503 70.8101 271.799 71.3946 273.928 72.5636C276.058 73.7325 277.727 75.3398 278.938 77.3855V74.818C278.938 73.6908 279.293 72.814 280.003 72.1878C280.712 71.5616 281.568 71.2485 282.57 71.2485ZM268.48 98.1761C270.484 98.1761 272.258 97.7169 273.803 96.7984C275.39 95.88 276.621 94.6275 277.498 93.0411C278.416 91.4546 278.876 89.6803 278.876 87.7182C278.876 85.756 278.416 84.0026 277.498 82.4579C276.621 80.8715 275.39 79.619 273.803 78.7006C272.258 77.7821 270.484 77.3229 268.48 77.3229C266.476 77.3229 264.66 77.7612 263.032 78.6379C261.446 79.5146 260.193 80.7462 259.275 82.3326C258.398 83.9191 257.96 85.7143 257.96 87.7182C257.96 90.7658 258.941 93.2707 260.903 95.2329C262.865 97.195 265.391 98.1761 268.48 98.1761ZM326.655 70.8727C329.87 70.8727 332.688 71.6242 335.109 73.1272C337.53 74.6301 339.388 76.6758 340.682 79.2642C341.977 81.8525 342.624 84.7123 342.624 87.8434C342.624 91.0163 341.956 93.8969 340.62 96.4853C339.284 99.032 337.363 101.036 334.859 102.497C332.395 103.958 329.536 104.689 326.279 104.689C323.816 104.689 321.52 104.104 319.391 102.935C317.262 101.766 315.592 100.159 314.381 98.1135V100.744C314.381 101.871 314.026 102.768 313.316 103.436C312.607 104.063 311.772 104.376 310.812 104.376C309.851 104.376 309.016 104.063 308.307 103.436C307.597 102.768 307.242 101.871 307.242 100.744V60.2896C307.242 59.1624 307.597 58.2856 308.307 57.6594C309.016 56.9915 309.851 56.6575 310.812 56.6575C311.772 56.6575 312.607 56.9915 313.316 57.6594C314.026 58.2856 314.381 59.1624 314.381 60.2896V78.1369C315.341 75.8825 316.886 74.1082 319.015 72.814C321.186 71.5198 323.733 70.8727 326.655 70.8727ZM324.839 98.1761C326.843 98.1761 328.638 97.7378 330.224 96.861C331.853 95.9426 333.126 94.711 334.044 93.1663C334.963 91.5799 335.422 89.7847 335.422 87.7808C335.422 85.7769 334.963 83.9817 334.044 82.3953C333.126 80.8088 331.853 79.5773 330.224 78.7006C328.638 77.7821 326.843 77.3229 324.839 77.3229C322.835 77.3229 321.04 77.7821 319.453 78.7006C317.909 79.619 316.677 80.8715 315.759 82.4579C314.882 84.0443 314.444 85.8186 314.444 87.7808C314.444 89.743 314.882 91.5173 315.759 93.1037C316.677 94.6484 317.909 95.88 319.453 96.7984C321.04 97.7169 322.835 98.1761 324.839 98.1761ZM363.053 71.3737C364.347 71.2485 365.328 71.499 365.996 72.1252C366.664 72.7097 366.998 73.4194 366.998 74.2544C366.998 75.0893 366.685 75.8617 366.059 76.5714C365.432 77.2394 364.41 77.5942 362.99 77.636C360.652 77.6777 358.815 78.3039 357.479 79.5146C356.185 80.7253 355.538 82.437 355.538 84.6497V100.744C355.538 101.871 355.183 102.768 354.474 103.436C353.764 104.063 352.929 104.376 351.969 104.376C351.008 104.376 350.173 104.063 349.464 103.436C348.754 102.768 348.399 101.871 348.399 100.744V74.7553C348.399 73.6281 348.754 72.7514 349.464 72.1252C350.173 71.499 351.008 71.1859 351.969 71.1859C352.929 71.1859 353.764 71.499 354.474 72.1252C355.183 72.7514 355.538 73.6281 355.538 74.7553V76.1957C357.083 73.2733 359.588 71.666 363.053 71.3737ZM401.299 85.9647C401.425 87.2172 401.174 88.1774 400.548 88.8454C399.963 89.4716 399.045 89.7847 397.793 89.7847H375.311C375.353 91.4964 375.833 93.0411 376.751 94.4188C377.67 95.7547 378.881 96.7984 380.384 97.5499C381.928 98.3014 383.598 98.6771 385.393 98.6771C388.858 98.6771 391.635 97.2785 393.722 94.4814C394.348 93.6047 395.142 93.1663 396.102 93.1663C396.895 93.1663 397.605 93.5003 398.231 94.1683C398.857 94.7945 399.17 95.5251 399.17 96.3601C399.17 97.0698 398.899 97.7586 398.356 98.4266C396.853 100.264 394.995 101.766 392.783 102.935C390.612 104.063 388.128 104.626 385.331 104.626C382.033 104.626 379.089 103.937 376.501 102.56C373.913 101.14 371.888 99.1572 370.427 96.6106C368.965 94.0639 368.235 91.1207 368.235 87.7808C368.235 84.6079 368.945 81.7273 370.364 79.1389C371.783 76.5505 373.746 74.5257 376.25 73.0645C378.797 71.5616 381.657 70.8101 384.83 70.8101C389.38 70.8101 393.138 72.1878 396.102 74.9432C399.066 77.6568 400.798 81.3307 401.299 85.9647ZM384.83 76.634C382.241 76.634 380.07 77.4272 378.317 79.0137C376.564 80.5583 375.583 82.5414 375.374 84.9628H394.348C394.14 82.5414 393.159 80.5583 391.405 79.0137C389.693 77.4272 387.502 76.634 384.83 76.634ZM436.864 71.2485C437.824 71.2485 438.659 71.5616 439.368 72.1878C440.078 72.814 440.433 73.6908 440.433 74.818V100.806C440.433 101.892 440.078 102.768 439.368 103.436C438.659 104.063 437.824 104.376 436.864 104.376C435.903 104.376 435.048 104.063 434.296 103.436C433.586 102.768 433.231 101.892 433.231 100.806V97.362C432.313 99.6164 430.768 101.391 428.597 102.685C426.427 103.979 423.88 104.626 420.957 104.626C417.785 104.626 414.987 103.875 412.566 102.372C410.145 100.869 408.266 98.8232 406.93 96.2348C405.636 93.6464 404.989 90.7867 404.989 87.6556C404.989 84.4409 405.657 81.5603 406.993 79.0137C408.37 76.467 410.291 74.4631 412.754 73.0019C415.217 71.5407 418.077 70.8101 421.333 70.8101C423.796 70.8101 426.093 71.3946 428.222 72.5636C430.351 73.7325 432.021 75.3398 433.231 77.3855V74.818C433.231 73.6908 433.586 72.814 434.296 72.1878C435.006 71.5616 435.862 71.2485 436.864 71.2485ZM422.774 98.1761C424.777 98.1761 426.552 97.7169 428.096 96.7984C429.683 95.88 430.914 94.6275 431.791 93.0411C432.71 91.4546 433.169 89.6803 433.169 87.7182C433.169 85.756 432.71 84.0026 431.791 82.4579C430.914 80.8715 429.683 79.619 428.096 78.7006C426.552 77.7821 424.777 77.3229 422.774 77.3229C420.77 77.3229 418.954 77.7612 417.325 78.6379C415.739 79.5146 414.487 80.7462 413.568 82.3326C412.691 83.9191 412.253 85.7143 412.253 87.7182C412.253 90.7658 413.234 93.2707 415.196 95.2329C417.158 97.195 419.684 98.1761 422.774 98.1761ZM478.019 56.6575C478.979 56.6575 479.814 56.9915 480.524 57.6594C481.234 58.2856 481.589 59.1624 481.589 60.2896V100.744C481.589 101.871 481.234 102.768 480.524 103.436C479.814 104.063 478.979 104.376 478.019 104.376C477.059 104.376 476.224 104.063 475.514 103.436C474.805 102.768 474.45 101.871 474.45 100.744V97.362C473.531 99.6164 471.987 101.391 469.816 102.685C467.645 103.979 465.098 104.626 462.176 104.626C459.003 104.626 456.206 103.875 453.784 102.372C451.363 100.869 449.484 98.8232 448.148 96.2348C446.854 93.6464 446.207 90.7867 446.207 87.6556C446.207 84.4409 446.875 81.5603 448.211 79.0137C449.589 76.467 451.509 74.4631 453.972 73.0019C456.435 71.5407 459.295 70.8101 462.551 70.8101C465.015 70.8101 467.311 71.3946 469.44 72.5636C471.569 73.7325 473.239 75.3398 474.45 77.3855V60.2896C474.45 59.1624 474.805 58.2856 475.514 57.6594C476.224 56.9915 477.059 56.6575 478.019 56.6575ZM463.992 98.1761C465.996 98.1761 467.77 97.7169 469.315 96.7984C470.901 95.88 472.133 94.6275 473.009 93.0411C473.928 91.4546 474.387 89.6803 474.387 87.7182C474.387 85.756 473.928 84.0026 473.009 82.4579C472.133 80.8715 470.901 79.619 469.315 78.7006C467.77 77.7821 465.996 77.3229 463.992 77.3229C461.988 77.3229 460.172 77.7612 458.544 78.6379C456.957 79.5146 455.705 80.7462 454.786 82.3326C453.91 83.9191 453.471 85.7143 453.471 87.7182C453.471 90.7658 454.452 93.2707 456.414 95.2329C458.377 97.195 460.902 98.1761 463.992 98.1761Z" fill="#FFEED8"/>
<path d="M810.351 104C809.14 104 808.201 103.666 807.533 102.998C806.865 102.33 806.531 101.391 806.531 100.18V63.3581C806.531 62.1474 806.865 61.208 807.533 60.5401C808.201 59.8721 809.14 59.5381 810.351 59.5381H821.247C825.756 59.5381 829.68 60.5192 833.02 62.4813C836.36 64.4018 838.928 67.0528 840.723 70.4344C842.518 73.816 843.416 77.5942 843.416 81.769C843.416 85.9439 842.518 89.7221 840.723 93.1037C838.928 96.4853 836.36 99.1572 833.02 101.119C829.68 103.04 825.756 104 821.247 104H810.351ZM821.247 97.362C825.756 97.362 829.346 95.9843 832.018 93.2289C834.732 90.4736 836.089 86.6536 836.089 81.769C836.089 76.8845 834.732 73.0645 832.018 70.3091C829.346 67.5538 825.756 66.1761 821.247 66.1761H813.858V97.362H821.247ZM864.706 71.3737C866 71.2485 866.982 71.499 867.65 72.1252C868.317 72.7097 868.651 73.4194 868.651 74.2544C868.651 75.0893 868.338 75.8617 867.712 76.5714C867.086 77.2394 866.063 77.5942 864.644 77.636C862.306 77.6777 860.469 78.3039 859.133 79.5146C857.839 80.7253 857.192 82.437 857.192 84.6497V100.744C857.192 101.871 856.837 102.768 856.127 103.436C855.417 104.063 854.582 104.376 853.622 104.376C852.662 104.376 851.827 104.063 851.117 103.436C850.407 102.768 850.053 101.871 850.053 100.744V74.7553C850.053 73.6281 850.407 72.7514 851.117 72.1252C851.827 71.499 852.662 71.1859 853.622 71.1859C854.582 71.1859 855.417 71.499 856.127 72.1252C856.837 72.7514 857.192 73.6281 857.192 74.7553V76.1957C858.736 73.2733 861.241 71.666 864.706 71.3737ZM887.297 104.626C883.999 104.626 881.014 103.896 878.342 102.434C875.712 100.973 873.646 98.9693 872.143 96.4227C870.64 93.8343 869.888 90.9328 869.888 87.7182C869.888 84.5453 870.64 81.6647 872.143 79.0763C873.646 76.4879 875.712 74.4631 878.342 73.0019C881.014 71.5407 883.999 70.8101 887.297 70.8101C890.595 70.8101 893.56 71.5407 896.19 73.0019C898.862 74.4631 900.949 76.4879 902.452 79.0763C903.955 81.6647 904.706 84.5453 904.706 87.7182C904.706 90.9328 903.955 93.8343 902.452 96.4227C900.949 98.9693 898.862 100.973 896.19 102.434C893.56 103.896 890.595 104.626 887.297 104.626ZM887.297 98.1761C889.259 98.1761 891.034 97.7169 892.62 96.7984C894.248 95.88 895.501 94.6275 896.378 93.0411C897.296 91.4546 897.755 89.6803 897.755 87.7182C897.755 85.756 897.296 83.9817 896.378 82.3953C895.501 80.8088 894.248 79.5564 892.62 78.6379C891.034 77.7195 889.259 77.2602 887.297 77.2602C885.335 77.2602 883.561 77.7195 881.974 78.6379C880.388 79.5564 879.136 80.8088 878.217 82.3953C877.299 83.9817 876.839 85.756 876.839 87.7182C876.839 89.6803 877.299 91.4546 878.217 93.0411C879.136 94.6275 880.388 95.88 881.974 96.7984C883.561 97.7169 885.335 98.1761 887.297 98.1761ZM929.886 70.8727C933.101 70.8727 935.919 71.6242 938.34 73.1272C940.762 74.6301 942.62 76.6758 943.914 79.2642C945.208 81.8525 945.855 84.7123 945.855 87.8434C945.855 91.0163 945.187 93.8969 943.851 96.4853C942.515 99.032 940.595 101.036 938.09 102.497C935.627 103.958 932.767 104.689 929.511 104.689C927.048 104.689 924.751 104.104 922.622 102.935C920.493 101.766 918.823 100.159 917.612 98.1135V115.397C917.612 116.483 917.258 117.339 916.548 117.965C915.838 118.633 915.003 118.967 914.043 118.967C913.083 118.967 912.248 118.633 911.538 117.965C910.828 117.339 910.473 116.483 910.473 115.397V74.7553C910.473 73.6281 910.828 72.7514 911.538 72.1252C912.248 71.499 913.083 71.1859 914.043 71.1859C915.003 71.1859 915.838 71.499 916.548 72.1252C917.258 72.7514 917.612 73.6281 917.612 74.7553V78.1369C918.573 75.8825 920.117 74.1082 922.246 72.814C924.417 71.5198 926.964 70.8727 929.886 70.8727ZM928.07 98.1761C930.074 98.1761 931.869 97.7378 933.456 96.861C935.084 95.9426 936.357 94.711 937.276 93.1663C938.194 91.5799 938.654 89.7847 938.654 87.7808C938.654 85.7769 938.194 83.9817 937.276 82.3953C936.357 80.8088 935.084 79.5773 933.456 78.7006C931.869 77.7821 930.074 77.3229 928.07 77.3229C926.066 77.3229 924.271 77.7821 922.685 78.7006C921.14 79.619 919.909 80.8715 918.99 82.4579C918.113 84.0443 917.675 85.8186 917.675 87.7808C917.675 89.743 918.113 91.5173 918.99 93.1037C919.909 94.6484 921.14 95.88 922.685 96.7984C924.271 97.7169 926.066 98.1761 928.07 98.1761ZM995.139 89.1585C995.932 89.1585 996.6 89.4507 997.143 90.0352C997.727 90.6197 998.02 91.3085 998.02 92.1017C998.02 92.895 997.727 93.5838 997.143 94.1683C996.6 94.7528 995.932 95.045 995.139 95.045H991.131V100.806C991.131 101.766 990.776 102.601 990.067 103.311C989.357 104.021 988.522 104.376 987.562 104.376C986.601 104.376 985.766 104.021 985.057 103.311C984.389 102.56 984.055 101.704 984.055 100.744V95.045H966.333C965.247 95.045 964.391 94.6901 963.765 93.9804C963.181 93.2707 962.888 92.4357 962.888 91.4755C962.888 90.7241 963.076 90.077 963.452 89.5342L983.303 61.1037C983.679 60.5609 984.18 60.1226 984.806 59.7886C985.474 59.4129 986.163 59.225 986.873 59.225C988.042 59.225 989.044 59.6425 989.879 60.4774C990.714 61.2706 991.131 62.2517 991.131 63.4207V89.1585H995.139ZM970.841 89.1585H984.055V76.3835C984.055 72.7514 984.389 69.996 985.057 68.1174L970.841 89.1585Z" fill="#FFEED8"/>
<path d="M428.197 926.145C420.408 926.145 413.428 924.345 407.256 920.745C401.157 917.071 396.381 912.184 392.927 906.086C389.548 899.914 387.858 893.154 387.858 885.806C387.858 878.532 389.548 871.845 392.927 865.747C396.307 859.648 401.047 854.799 407.145 851.198C413.244 847.524 420.188 845.687 427.976 845.687C433.193 845.687 437.859 846.349 441.974 847.671C446.162 848.92 449.689 850.61 452.554 852.741C454.244 853.99 455.493 855.386 456.302 856.929C457.11 858.399 457.514 859.905 457.514 861.448C457.514 863.653 456.706 865.563 455.089 867.18C453.546 868.796 451.562 869.604 449.138 869.604C446.786 869.604 444.398 868.759 441.974 867.069C440.284 865.894 438.263 864.939 435.912 864.204C433.56 863.395 431.025 862.991 428.307 862.991C424.045 862.991 420.261 863.983 416.955 865.967C413.648 867.951 411.076 870.706 409.239 874.233C407.476 877.76 406.594 881.728 406.594 886.137C406.594 890.472 407.439 894.366 409.129 897.82C410.819 901.2 413.281 903.881 416.514 905.865C419.747 907.849 423.531 908.841 427.866 908.841C432.495 908.841 436.463 907.739 439.769 905.535C443.076 903.257 445.464 900.134 446.933 896.166H426.433C423.861 896.166 421.841 895.358 420.371 893.742C418.975 892.125 418.277 890.178 418.277 887.9C418.277 885.696 418.975 883.785 420.371 882.169C421.841 880.479 423.861 879.634 426.433 879.634H457.073C460.086 879.634 462.364 880.479 463.907 882.169C465.523 883.859 466.331 886.357 466.331 889.664C466.331 890.325 466.258 891.464 466.111 893.08C465.45 898.15 463.613 903.22 460.6 908.29C457.588 913.36 453.326 917.622 447.815 921.075C442.378 924.455 435.838 926.145 428.197 926.145ZM498.991 891.868H498.88C497.999 891.758 497.337 890.986 497.448 890.104L499.542 871.809C499.652 870.927 500.534 870.266 501.415 870.376C502.297 870.486 502.848 871.368 502.738 872.25L500.644 890.435C500.534 891.317 499.872 891.868 498.991 891.868ZM511.445 834.445C511.225 834.445 511.004 834.445 511.004 834.445C497.558 835.437 477.278 861.228 471.437 884.704C468.791 895.726 468.13 910.605 480.805 918.43C484.552 920.634 488.189 921.847 491.716 921.847C498.219 921.847 504.391 918.21 510.233 910.935C523.459 894.513 530.182 864.865 526.985 850.317C523.789 835.548 514.311 834.445 511.445 834.445ZM530.953 858.473C530.953 874.895 524.23 898.701 512.768 913.029C506.375 920.855 499.101 925.043 491.716 925.043C487.528 925.043 483.34 923.72 479.152 921.185C468.02 914.242 464.162 901.016 468.351 883.932C474.523 858.913 495.905 832.351 510.673 831.249C510.673 831.249 511.004 831.249 511.445 831.249C513.87 831.249 526.324 832.131 530.072 849.655C530.623 852.19 530.953 855.166 530.953 858.473ZM557.005 891.868H556.894C556.013 891.758 555.351 890.986 555.462 890.104L557.556 871.809C557.666 870.927 558.548 870.266 559.429 870.376C560.311 870.486 560.862 871.368 560.752 872.25L558.658 890.435C558.548 891.317 557.886 891.868 557.005 891.868ZM569.459 834.445C569.239 834.445 569.018 834.445 569.018 834.445C555.572 835.437 535.292 861.228 529.451 884.704C526.805 895.726 526.144 910.605 538.819 918.43C542.566 920.634 546.203 921.847 549.73 921.847C556.233 921.847 562.405 918.21 568.247 910.935C581.473 894.513 588.196 864.865 585 850.317C581.803 835.548 572.325 834.445 569.459 834.445ZM588.967 858.473C588.967 874.895 582.244 898.701 570.782 913.029C564.389 920.855 557.115 925.043 549.73 925.043C545.542 925.043 541.354 923.72 537.166 921.185C526.034 914.242 522.176 901.016 526.365 883.932C532.537 858.913 553.919 832.351 568.688 831.249C568.688 831.249 569.018 831.249 569.459 831.249C571.884 831.249 584.338 832.131 588.086 849.655C588.637 852.19 588.967 855.166 588.967 858.473ZM602.454 925.043C599.295 925.043 596.87 924.198 595.18 922.508C593.49 920.818 592.645 918.393 592.645 915.234V856.599C592.645 853.366 593.49 850.941 595.18 849.325C596.87 847.635 599.295 846.79 602.454 846.79H620.53C628.833 846.79 636.033 848.516 642.132 851.97C648.304 855.35 653.007 860.016 656.24 865.967C659.473 871.919 661.089 878.569 661.089 885.916C661.089 893.264 659.473 899.914 656.24 905.865C653.007 911.817 648.304 916.52 642.132 919.973C636.033 923.353 628.833 925.043 620.53 925.043H602.454ZM620.53 908.07C627.216 908.07 632.506 906.27 636.401 902.669C640.368 898.995 642.352 893.411 642.352 885.916C642.352 878.422 640.368 872.874 636.401 869.274C632.506 865.6 627.216 863.763 620.53 863.763H611.382V908.07H620.53Z" fill="#FFEED8"/>
<path d="M514.055 929.894C514.236 931.495 516.754 935.219 517.928 936.085C520.456 937.95 521.311 936.907 523.913 936.907C527.8 936.907 529.589 932.137 530.954 929.115" stroke="#FFEED8" stroke-width="2.20432" stroke-linecap="round"/>
<path d="M571.521 817.992C572.716 819.319 573.489 820.334 575.119 821.328C576.692 822.287 578.838 822.954 580.701 822.954" stroke="#FFEED8" stroke-width="2.20432" stroke-linecap="round"/>
<path d="M510.739 817C509.934 817 509.132 817.619 508.451 817.992C507.111 818.727 505.693 819.395 504.261 819.922C503.032 820.374 501.627 820.721 500.319 820.721" stroke="#FFEED8" stroke-width="2.20432" stroke-linecap="round"/>
<path d="M423.223 949.186C427.996 949.186 432.149 950.333 435.682 952.626C439.215 954.92 441.881 958.019 443.678 961.924C445.538 965.829 446.468 970.106 446.468 974.755C446.468 979.59 445.507 983.929 443.585 987.772C441.664 991.553 438.874 994.56 435.217 996.791C431.622 998.96 427.345 1000.05 422.386 1000.05C419.597 1000.05 416.839 999.487 414.111 998.372C411.384 997.194 409.152 995.489 407.417 993.258C407.169 995.303 406.301 996.915 404.813 998.093C403.388 999.208 401.714 999.766 399.793 999.766C397.747 999.766 395.949 999.084 394.4 997.721C392.85 996.357 392.075 994.467 392.075 992.049V936.262C392.075 933.845 392.85 931.954 394.4 930.591C395.949 929.227 397.747 928.545 399.793 928.545C401.9 928.545 403.698 929.227 405.185 930.591C406.735 931.954 407.51 933.845 407.51 936.262V957.275C408.564 954.734 410.485 952.75 413.274 951.325C416.126 949.899 419.442 949.186 423.223 949.186ZM419.132 986.099C422.603 986.099 425.424 985.045 427.593 982.937C429.762 980.768 430.847 977.978 430.847 974.569C430.847 971.16 429.762 968.402 427.593 966.294C425.424 964.125 422.603 963.04 419.132 963.04C415.785 963.04 413.026 964.125 410.857 966.294C408.687 968.402 407.603 971.16 407.603 974.569C407.603 977.978 408.687 980.768 410.857 982.937C413.026 985.045 415.785 986.099 419.132 986.099ZM476.793 950.023C477.165 949.961 477.692 949.93 478.374 949.93C480.419 949.93 482.031 950.519 483.208 951.697C484.386 952.874 484.975 954.3 484.975 955.974C484.975 957.833 484.262 959.507 482.836 960.994C481.473 962.482 479.427 963.35 476.7 963.598C471.493 964.094 468.89 966.883 468.89 971.966V992.049C468.89 994.467 468.115 996.357 466.565 997.721C465.078 999.084 463.28 999.766 461.173 999.766C459.127 999.766 457.33 999.084 455.78 997.721C454.23 996.357 453.455 994.467 453.455 992.049V957.089C453.455 954.672 454.23 952.781 455.78 951.418C457.33 950.054 459.127 949.372 461.173 949.372C463.032 949.372 464.675 949.899 466.1 950.953C467.526 952.007 468.394 953.494 468.704 955.416C470.687 952.378 473.384 950.581 476.793 950.023ZM537.3 971.036C537.362 971.346 537.393 971.842 537.393 972.524C537.393 974.693 536.68 976.367 535.254 977.545C533.891 978.66 532.031 979.218 529.676 979.218H502.433C502.743 981.512 503.89 983.433 505.873 984.983C507.919 986.47 510.367 987.214 513.218 987.214C516.814 987.214 519.696 986.037 521.865 983.681C523.415 982.069 525.089 981.264 526.886 981.264C528.684 981.264 530.233 981.915 531.535 983.216C532.899 984.518 533.581 986.037 533.581 987.772C533.581 989.384 532.899 990.902 531.535 992.328C529.118 994.745 526.328 996.636 523.167 998C520.068 999.301 516.721 999.952 513.126 999.952C508.043 999.952 503.518 998.898 499.551 996.791C495.584 994.683 492.484 991.739 490.253 987.958C488.021 984.115 486.906 979.714 486.906 974.755C486.906 969.858 487.99 965.457 490.16 961.552C492.329 957.647 495.336 954.61 499.179 952.44C503.022 950.209 507.392 949.093 512.289 949.093C518.921 949.093 524.469 950.953 528.932 954.672C533.457 958.391 536.246 963.846 537.3 971.036ZM512.289 961.459C509.499 961.459 507.175 962.141 505.315 963.505C503.456 964.869 502.464 966.728 502.34 969.084H522.33C522.082 966.79 521.029 964.962 519.169 963.598C517.31 962.172 515.016 961.459 512.289 961.459ZM587.881 949.465C589.988 949.465 591.817 950.147 593.366 951.511C594.916 952.812 595.691 954.703 595.691 957.182V991.956C595.691 994.374 594.916 996.264 593.366 997.628C591.817 998.991 589.988 999.673 587.881 999.673C585.773 999.673 583.944 998.991 582.395 997.628C580.845 996.264 580.07 994.374 580.07 991.956V991.863C579.017 994.405 577.064 996.388 574.213 997.814C571.423 999.239 568.138 999.952 564.357 999.952C559.584 999.952 555.431 998.806 551.898 996.512C548.365 994.219 545.669 991.119 543.809 987.214C542.011 983.309 541.113 979.032 541.113 974.383C541.113 969.548 542.073 965.24 543.995 961.459C545.916 957.616 548.675 954.61 552.27 952.44C555.927 950.209 560.235 949.093 565.194 949.093C567.983 949.093 570.742 949.682 573.469 950.86C576.196 951.976 578.428 953.649 580.163 955.881C580.473 953.835 581.341 952.255 582.767 951.139C584.254 950.023 585.959 949.465 587.881 949.465ZM568.448 986.099C571.795 986.099 574.554 985.045 576.723 982.937C578.893 980.768 579.977 977.978 579.977 974.569C579.977 971.16 578.893 968.402 576.723 966.294C574.554 964.125 571.795 963.04 568.448 963.04C564.977 963.04 562.157 964.125 559.987 966.294C557.818 968.402 556.733 971.16 556.733 974.569C556.733 977.978 557.818 980.768 559.987 982.937C562.157 985.045 564.977 986.099 568.448 986.099ZM649.349 928.545C651.457 928.545 653.254 929.227 654.742 930.591C656.292 931.954 657.066 933.845 657.066 936.262V992.049C657.066 994.467 656.292 996.357 654.742 997.721C653.254 999.084 651.457 999.766 649.349 999.766C647.304 999.766 645.506 999.084 643.956 997.721C642.407 996.357 641.632 994.467 641.632 992.049V991.863C640.578 994.405 638.626 996.388 635.774 997.814C632.985 999.239 629.7 999.952 625.919 999.952C621.146 999.952 616.993 998.806 613.46 996.512C609.927 994.219 607.23 991.119 605.371 987.214C603.573 983.309 602.674 979.032 602.674 974.383C602.674 969.548 603.635 965.24 605.557 961.459C607.478 957.616 610.236 954.61 613.832 952.44C617.489 950.209 621.797 949.093 626.756 949.093C629.545 949.093 632.272 949.651 634.938 950.767C637.665 951.883 639.896 953.525 641.632 955.695V936.262C641.632 933.845 642.407 931.954 643.956 930.591C645.506 929.227 647.304 928.545 649.349 928.545ZM630.01 986.099C633.357 986.099 636.115 985.045 638.285 982.937C640.454 980.768 641.539 977.978 641.539 974.569C641.539 971.16 640.454 968.402 638.285 966.294C636.115 964.125 633.357 963.04 630.01 963.04C626.539 963.04 623.718 964.125 621.549 966.294C619.379 968.402 618.295 971.16 618.295 974.569C618.295 977.978 619.379 980.768 621.549 982.937C623.718 985.045 626.539 986.099 630.01 986.099Z" fill="#FFEED8"/>
<path d="M175.187 443.577C178.991 438.104 186.429 423.783 193.047 421.819C205.434 408.854 238.019 397.083 246.914 391.526C261.275 382.555 272.566 365.553 288.01 357.975C300.193 351.996 311.407 344.989 324.962 341.744C344.076 337.168 363.555 335.955 382.77 332.873C386.235 332.318 408.426 329.634 409.584 334.503C411.11 340.921 410.379 347.521 407.26 353.468C405.535 356.755 402.025 364.442 400.314 368.187C403.666 362.226 412.468 358.153 416.489 352.973C422.195 345.622 436.804 341.068 444.833 338.2C455.903 334.247 467.337 331.177 478.313 327.074C492.463 321.784 575.923 301.365 574.763 329.802C574.382 339.14 575.905 334.62 582.388 330.85C589.222 326.877 597.28 325.042 603.768 320.197C620.989 307.333 640.354 294.624 662.081 290.717C683.081 286.942 703.945 285.653 724.786 282.669C742.384 280.149 758.353 285.553 774.536 292.27C806.352 305.476 840.337 317.391 847.104 355.022C850.127 371.838 850.063 389.424 853.108 406.357C854.256 412.742 855.031 418.969 857.694 424.886C858.647 427.005 862.08 439.965 863.135 433.225C863.649 429.947 864.734 427.935 866.133 424.981C872.146 412.285 887.417 426.752 889.111 436.171C894.22 464.591 900.58 494.07 902.791 523.219C905.036 552.831 909.105 583.256 914.368 612.526C916.711 625.558 919.562 631.032 927.454 640.458C929.29 642.65 931.636 641.759 927.944 643.685C922.553 646.497 915.876 647.797 911.082 651.555C902.566 658.23 891.659 662.661 882.551 668.78C874.685 674.065 862.49 677.511 853.315 680.103L853.061 680.175C835.596 685.11 817.42 687.645 799.83 692.075C788.576 694.91 773.535 701.296 761.671 700.101C740.506 697.969 715.733 708.187 693.837 709.52C645.103 712.486 595.976 720.046 547.083 718.524C513.39 717.475 479.964 712.478 446.418 709.296C418.762 706.673 390.997 708.422 363.339 710.167C337.764 711.781 312.207 713.387 286.617 715.002C268.687 716.133 251 720.346 232.996 720.252C219.685 720.183 207.942 720.605 197.021 713.012C188.548 707.122 182.619 694.436 180.654 684.775C179.126 677.26 176.919 668.926 177.687 661.296C178.319 655.021 180.103 645.829 178.992 639.648C176.952 628.307 170.943 621.791 168.827 610.027C166.398 596.517 165.584 583.017 163.149 569.475C161.323 559.318 157.961 549.588 156.172 539.639C154.339 529.446 142.051 523.89 140.196 513.572C137.153 496.647 139.759 486.672 149.718 472.347C157.046 461.805 167.86 454.116 175.187 443.577Z" fill="#94D2FF"/>
<path d="M193.047 421.819C186.429 423.783 178.991 438.104 175.187 443.577C167.86 454.116 157.046 461.805 149.718 472.347C139.759 486.672 137.153 496.647 140.196 513.572C142.051 523.89 154.339 529.446 156.172 539.639C157.961 549.588 161.323 559.318 163.149 569.475C165.584 583.017 166.398 596.517 168.827 610.027C170.943 621.791 176.952 628.307 178.992 639.648C180.103 645.829 178.319 655.021 177.687 661.296C176.919 668.926 179.126 677.26 180.654 684.775C182.619 694.436 188.548 707.122 197.021 713.012C207.942 720.605 219.685 720.183 232.996 720.252C251 720.346 268.687 716.133 286.617 715.002C312.207 713.387 337.764 711.781 363.339 710.167C390.997 708.422 418.762 706.673 446.418 709.296C479.964 712.478 513.39 717.475 547.083 718.524C595.976 720.046 645.103 712.486 693.837 709.52C715.733 708.187 740.506 697.969 761.671 700.101C773.535 701.296 788.576 694.91 799.83 692.075C817.42 687.645 835.596 685.11 853.061 680.175C862.264 677.574 874.612 674.114 882.551 668.78C891.659 662.661 902.566 658.23 911.082 651.555C915.876 647.797 922.553 646.497 927.944 643.685C931.636 641.759 929.29 642.65 927.454 640.458C919.562 631.032 916.711 625.558 914.368 612.526C909.105 583.256 905.036 552.831 902.791 523.219C900.58 494.07 894.22 464.591 889.111 436.171C887.417 426.752 872.146 412.285 866.133 424.981C864.734 427.935 863.649 429.947 863.135 433.225C862.08 439.965 858.647 427.005 857.694 424.886C855.031 418.969 854.256 412.742 853.108 406.357C850.063 389.424 850.127 371.838 847.104 355.022C840.337 317.391 806.352 305.476 774.536 292.27C758.353 285.553 742.384 280.149 724.786 282.669C703.945 285.653 683.081 286.942 662.081 290.717C640.354 294.624 620.989 307.333 603.767 320.197C597.28 325.042 589.222 326.877 582.388 330.85C575.905 334.62 574.382 339.14 574.763 329.802C575.923 301.365 492.463 321.784 478.313 327.074C467.337 331.177 455.903 334.247 444.833 338.2C436.804 341.068 422.195 345.622 416.489 352.973C412.237 358.451 402.636 362.692 399.791 369.236C397.472 374.569 404.558 358.618 407.26 353.468C410.379 347.521 411.11 340.921 409.584 334.503C408.426 329.634 386.235 332.318 382.77 332.873C363.555 335.955 344.076 337.168 324.962 341.744C311.407 344.989 300.193 351.996 288.01 357.975C272.566 365.553 261.275 382.555 246.914 391.526C238.019 397.083 205.434 408.854 193.047 421.819Z" stroke="#0033E6" stroke-width="5.50199" stroke-linecap="round"/>
<path d="M194.025 620.774C210.095 608.291 228.659 596.174 235.62 576.163C239.685 564.473 241.122 552.777 243.148 540.699C244.759 531.093 247.063 522.216 252.598 514.054C258.776 504.944 265.674 496.575 271.309 487.068C276.21 478.797 281.399 470.7 286.426 462.505C292.206 453.083 296.669 442.828 303.238 433.963C304.968 431.629 306.83 429.479 309.152 427.745C318.199 420.987 328.041 415.126 337.436 408.854C343.797 404.607 350.509 400.91 356.984 396.846C360.955 394.353 364.49 391.147 368.156 388.24C371.284 385.76 371.587 383.329 372.935 379.994C373.292 379.109 374.325 374.836 373.135 374.191C372.162 373.663 370.633 373.81 369.511 373.697C364.267 373.168 358.978 373.988 353.81 374.801C344.755 376.227 335.74 377.992 326.816 380.109C317.906 382.222 309.813 386.161 301.887 390.635C294.732 394.674 288.401 400.737 282.881 406.753C278.622 411.393 274.319 416.012 270.951 421.361C267.594 426.69 263.901 432.946 263.651 439.422C263.246 449.904 263.113 460.618 261.487 470.998C259.908 481.081 256.717 490.863 255.039 500.935C254.3 505.367 251.026 510.696 251.819 515.103" stroke="#0033E6" stroke-width="4.9623" stroke-linecap="round"/>
<path d="M330.865 537.507C342.596 524.219 357.282 513.688 370.445 501.909C380.436 492.969 389.66 483.958 397.764 473.256C404.101 464.889 409.02 455.705 414.471 446.768C424.282 430.685 436.757 417.197 451.023 404.98C463.664 394.154 477.628 385.316 491.515 376.211C501.14 369.899 509.898 362.46 519.528 356.143C523.413 353.595 527.53 351.141 531.059 348.105C532.49 346.874 534.355 345.136 534.38 343.064C534.437 338.318 530.372 337.513 526.302 336.695C511.728 333.766 496.312 337.197 482.057 340.305C470.042 342.924 458.562 347.239 447.851 353.289C435.605 360.205 424.492 369.791 414.462 379.596C402.44 391.35 390.386 404.585 381.829 419.12C377.305 426.803 374.354 434.747 372.249 443.398C370.146 452.043 367.877 460.551 366.466 469.344C364.947 478.806 363.709 487.889 360.175 496.863C356.812 505.405 353.543 514.603 347.17 521.421C344.363 524.424 340.811 527.082 337.425 529.395C335.684 530.584 334.031 531.997 332.188 533.003" stroke="#0033E6" stroke-width="4.9623" stroke-linecap="round"/>
<path d="M336.59 553.544C326.254 555.402 320.661 568.252 319.064 577.454C316.971 589.518 321.925 599.548 329.937 608.266C333.403 612.037 337.822 616.861 343.106 617.907C351.1 619.489 360.808 615.143 368.078 612.667C380.242 608.522 392.361 602.063 401.007 592.367C409.262 583.109 414.797 571.964 418.495 560.228C424.943 539.763 431.238 519.102 442.335 500.579C451.642 485.044 463.366 470.835 475.2 457.182C487.698 442.763 501.418 429.796 515.634 417.105C523.906 409.722 532.493 402.924 541.207 396.094C543.725 394.12 546.538 392.186 548.088 389.327C549.967 385.861 552.434 382.51 551.455 378.392C550.028 372.39 544.387 370.263 538.891 372.118C529.654 375.236 520.524 380.173 511.975 384.779C506.679 387.632 501.658 390.909 496.649 394.23C491.117 397.897 485.415 401.513 480.47 405.968C472.312 413.316 465.062 421.716 459.08 430.908C454.426 438.058 450.406 445.591 445.92 452.848C435.88 469.09 422.157 483.394 407.99 496.088C394.851 507.862 380.9 518.993 366.762 529.553C356.722 537.053 346.727 544.497 335.904 550.823C333.472 552.244 330.92 553.494 328.326 554.595C328.01 554.73 326.536 555.195 326.349 555.464C326.258 555.596 328.866 556.355 329.261 556.284" stroke="#0033E6" stroke-width="4.9623" stroke-linecap="round"/>
<path d="M463.413 677.571C468.767 673.572 473.057 668.95 476.558 663.239C480.083 657.49 482.841 651.216 485.576 645.066C488.628 638.202 491.714 631.319 494.363 624.288C497.439 616.122 500.285 607.795 502.521 599.357C504.864 590.512 505.963 581.534 507.171 572.489C509.356 556.121 514.567 540.348 517.965 524.211C520.259 513.32 523.509 502.764 527.152 492.261C530.098 483.772 530.988 474.81 533.866 466.326C536.305 459.136 539.613 452.101 544.754 446.473C552.587 437.9 562.687 432.567 572.652 426.861C584.653 419.989 597.074 413.687 608.468 405.806C617.515 399.548 626.246 392.912 635.356 386.731C646.329 379.286 657.897 372.864 670.536 368.732C678.037 366.281 686.183 363.843 694.068 365.924C701.44 367.869 706.739 374.34 710.39 380.686C714.528 387.876 716.419 394.976 716.607 403.289C716.822 412.796 715.42 421.992 712.531 431.042C710.85 436.308 708.985 441.676 705.761 446.223C700.687 453.377 692.53 457.501 684.842 461.262C670.671 468.195 655.134 471.581 640.809 478.028C630.494 482.67 623.015 491.068 614.831 498.539C609.309 503.58 603.623 508.391 598.457 513.808C593.363 519.148 588.615 524.792 583.587 530.189C573.676 540.827 562.751 550.421 550.839 558.751C533.645 570.776 518.779 584.758 510.408 604.338C508.084 609.774 505.764 615.247 502.428 620.152C499.507 624.444 496.484 628.537 493.409 632.715C490.248 637.01 487.913 642.002 485.241 646.607C482.671 651.038 480.147 655.525 477.5 659.909C475.393 663.401 473.508 667.256 470.848 670.368C469.919 671.456 468.829 673.102 467.509 673.655C466.316 674.154 463.577 676.393 466.018 674.259" stroke="#0033E6" stroke-width="4.9623" stroke-linecap="round"/>
<path d="M573.819 622.612C575.345 621.771 576.559 620.611 577.837 619.508C583.392 614.717 589.073 610.024 594.726 605.309C617.307 586.477 640.881 568.315 662.35 548.632C670.384 541.266 678.702 534.04 686.444 526.485C695.15 517.989 703.128 509.07 711.52 500.4C718.613 493.073 726.065 485.952 733.38 478.753C740.72 471.529 747.715 464.064 755.353 457.022C765.244 447.901 777.685 437.692 790.457 431.844C797.793 428.485 805.295 427.488 810.284 430.965C812.542 432.539 812.986 435.742 813.09 438.387C813.338 444.691 811.279 452.655 808.03 459.27C798.635 478.405 780.37 495.226 760.566 509.136C750.873 515.944 740.502 521.858 730.47 528.221C721.684 533.795 713.161 539.692 704.455 545.367C684.473 558.391 663.666 569.9 643.181 582.159C627.36 591.627 612.016 601.546 595.859 610.456C587.973 614.806 579.946 619.633 572.211 623.899" stroke="#0033E6" stroke-width="4.9623" stroke-linecap="round"/>
<path d="M598.833 668.479C599.834 668.299 600.69 667.709 601.577 667.196C605.433 664.965 609.351 662.874 613.255 660.751C628.848 652.273 644.944 644.787 659.988 635.106C665.618 631.482 671.397 628.096 676.878 624.188C683.042 619.793 688.829 614.732 694.829 610.058C699.9 606.108 705.157 602.484 710.343 598.736C715.547 594.975 720.577 590.862 725.934 587.38C732.871 582.872 741.443 578.353 749.674 577.937C754.402 577.698 758.939 579.677 761.449 584.767C762.585 587.072 762.454 590.163 762.191 592.613C761.565 598.456 759.378 604.925 756.657 609.706C748.785 623.534 735.977 631.841 722.62 636.9C716.082 639.376 709.255 640.777 702.573 642.717C696.72 644.416 690.983 646.512 685.164 648.335C671.811 652.519 658.158 655.002 644.602 658.295C634.133 660.837 623.889 663.974 613.291 665.88C608.118 666.81 602.803 668.121 597.729 669.033" stroke="#0033E6" stroke-width="4.9623" stroke-linecap="round"/>
</svg>
