<svg width="1049" height="1049" viewBox="0 0 1049 1049" fill="none" xmlns="http://www.w3.org/2000/svg">
<rect width="1049" height="1049" fill="#0033E6"/>
<path d="M67.9726 104.626C64.3823 104.626 61.272 103.833 58.6419 102.247C56.0118 100.618 54.0705 98.2805 52.818 95.2329C52.5675 94.5231 52.4423 93.8969 52.4423 93.3542C52.4423 92.227 52.818 91.3085 53.5695 90.5988C54.3627 89.8891 55.2603 89.5342 56.2622 89.5342C56.972 89.5342 57.6191 89.7638 58.2035 90.2231C58.788 90.6406 59.2055 91.2668 59.456 92.1017C60.0822 94.2309 61.1468 95.8173 62.6497 96.861C64.1527 97.9048 65.927 98.4266 67.9726 98.4266C70.3105 98.4266 72.1475 97.8839 73.4834 96.7984C74.8611 95.713 75.5499 94.2935 75.5499 92.5401C75.5499 91.2877 75.1325 90.2022 74.2975 89.2837C73.5043 88.3235 72.5023 87.5303 71.2916 86.9041C70.1227 86.2361 68.4736 85.4429 66.3444 84.5244C63.5473 83.3137 61.2929 82.2074 59.5812 81.2054C57.9113 80.2035 56.4501 78.8675 55.1977 77.1976C53.987 75.4859 53.3816 73.3776 53.3816 70.8727C53.3816 68.5348 53.987 66.4683 55.1977 64.6731C56.4084 62.8362 58.0574 61.4168 60.1448 60.4148C62.274 59.4129 64.6954 58.9119 67.409 58.9119C70.7906 58.9119 73.713 59.7051 76.1762 61.2915C78.6393 62.878 80.4345 65.0489 81.5617 67.8043C81.7704 68.2635 81.8748 68.8062 81.8748 69.4324C81.8748 70.4761 81.4991 71.3737 80.7476 72.1252C80.0379 72.8349 79.2029 73.1898 78.2427 73.1898C77.533 73.1898 76.8859 72.981 76.3014 72.5636C75.7169 72.1043 75.2368 71.4155 74.8611 70.497C74.2349 68.8271 73.2955 67.512 72.0431 66.5518C70.7906 65.5916 69.2668 65.1115 67.4717 65.1115C65.593 65.1115 64.0274 65.6125 62.775 66.6144C61.5225 67.6164 60.8963 68.9523 60.8963 70.6223C60.8963 72.0417 61.3138 73.2315 62.1487 74.1917C62.9837 75.1519 64.0065 75.9452 65.2172 76.5714C66.4279 77.1976 68.1605 77.97 70.4149 78.8884C73.212 80.0156 75.4456 81.0385 77.1155 81.9569C78.7854 82.8754 80.2257 84.1696 81.4364 85.8395C82.6471 87.5094 83.2525 89.5968 83.2525 92.1017C83.2525 94.6484 82.5845 96.861 81.2486 98.7397C79.9544 100.618 78.1383 102.08 75.8004 103.123C73.5043 104.125 70.895 104.626 67.9726 104.626ZM105.066 104.626C101.768 104.626 98.783 103.896 96.1111 102.434C93.481 100.973 91.4144 98.9693 89.9115 96.4227C88.4086 93.8343 87.6571 90.9328 87.6571 87.7182C87.6571 84.5453 88.4086 81.6647 89.9115 79.0763C91.4144 76.4879 93.481 74.4631 96.1111 73.0019C98.783 71.5407 101.768 70.8101 105.066 70.8101C108.364 70.8101 111.328 71.5407 113.959 73.0019C116.63 74.4631 118.718 76.4879 120.221 79.0763C121.724 81.6647 122.475 84.5453 122.475 87.7182C122.475 90.9328 121.724 93.8343 120.221 96.4227C118.718 98.9693 116.63 100.973 113.959 102.434C111.328 103.896 108.364 104.626 105.066 104.626ZM105.066 98.1761C107.028 98.1761 108.803 97.7169 110.389 96.7984C112.017 95.88 113.27 94.6275 114.146 93.0411C115.065 91.4546 115.524 89.6803 115.524 87.7182C115.524 85.756 115.065 83.9817 114.146 82.3953C113.27 80.8088 112.017 79.5564 110.389 78.6379C108.803 77.7195 107.028 77.2602 105.066 77.2602C103.104 77.2602 101.33 77.7195 99.7432 78.6379C98.1568 79.5564 96.9043 80.8088 95.9859 82.3953C95.0674 83.9817 94.6082 85.756 94.6082 87.7182C94.6082 89.6803 95.0674 91.4546 95.9859 93.0411C96.9043 94.6275 98.1568 95.88 99.7432 96.7984C101.33 97.7169 103.104 98.1761 105.066 98.1761ZM155.233 71.1859C156.234 71.1859 157.09 71.499 157.8 72.1252C158.51 72.7514 158.865 73.6281 158.865 74.7553V100.744C158.865 101.829 158.489 102.706 157.737 103.374C157.028 104 156.193 104.313 155.233 104.313C154.272 104.313 153.416 104 152.665 103.374C151.955 102.706 151.6 101.829 151.6 100.744V98.8023C150.557 100.681 149.137 102.142 147.342 103.186C145.547 104.188 143.397 104.689 140.892 104.689C138.512 104.689 136.321 104.188 134.317 103.186C132.354 102.184 130.768 100.618 129.557 98.4892C128.388 96.3601 127.804 93.7091 127.804 90.5362V74.8806C127.804 73.7116 128.159 72.814 128.869 72.1878C129.62 71.5198 130.476 71.1859 131.436 71.1859C132.396 71.1859 133.231 71.5198 133.941 72.1878C134.692 72.814 135.068 73.7116 135.068 74.8806V89.4716C135.068 92.6445 135.82 94.9615 137.323 96.4227C138.867 97.8421 140.788 98.5519 143.084 98.5519C145.672 98.5519 147.718 97.7378 149.221 96.1096C150.765 94.4396 151.559 92.1017 151.6 89.0959V74.7553C151.6 73.6281 151.955 72.7514 152.665 72.1252C153.375 71.499 154.231 71.1859 155.233 71.1859ZM180.934 71.3737C182.228 71.2485 183.209 71.499 183.877 72.1252C184.545 72.7097 184.879 73.4194 184.879 74.2544C184.879 75.0893 184.566 75.8617 183.94 76.5714C183.314 77.2394 182.291 77.5942 180.872 77.636C178.534 77.6777 176.697 78.3039 175.361 79.5146C174.067 80.7253 173.419 82.437 173.419 84.6497V100.744C173.419 101.871 173.065 102.768 172.355 103.436C171.645 104.063 170.81 104.376 169.85 104.376C168.89 104.376 168.055 104.063 167.345 103.436C166.635 102.768 166.28 101.871 166.28 100.744V74.7553C166.28 73.6281 166.635 72.7514 167.345 72.1252C168.055 71.499 168.89 71.1859 169.85 71.1859C170.81 71.1859 171.645 71.499 172.355 72.1252C173.065 72.7514 173.419 73.6281 173.419 74.7553V76.1957C174.964 73.2733 177.469 71.666 180.934 71.3737ZM217.928 56.6575C218.889 56.6575 219.724 56.9915 220.433 57.6594C221.143 58.2856 221.498 59.1624 221.498 60.2896V100.744C221.498 101.871 221.143 102.768 220.433 103.436C219.724 104.063 218.889 104.376 217.928 104.376C216.968 104.376 216.133 104.063 215.423 103.436C214.714 102.768 214.359 101.871 214.359 100.744V97.362C213.44 99.6164 211.896 101.391 209.725 102.685C207.554 103.979 205.007 104.626 202.085 104.626C198.912 104.626 196.115 103.875 193.693 102.372C191.272 100.869 189.393 98.8232 188.057 96.2348C186.763 93.6464 186.116 90.7867 186.116 87.6556C186.116 84.4409 186.784 81.5603 188.12 79.0137C189.498 76.467 191.418 74.4631 193.881 73.0019C196.344 71.5407 199.204 70.8101 202.461 70.8101C204.924 70.8101 207.22 71.3946 209.349 72.5636C211.478 73.7325 213.148 75.3398 214.359 77.3855V60.2896C214.359 59.1624 214.714 58.2856 215.423 57.6594C216.133 56.9915 216.968 56.6575 217.928 56.6575ZM203.901 98.1761C205.905 98.1761 207.679 97.7169 209.224 96.7984C210.81 95.88 212.042 94.6275 212.919 93.0411C213.837 91.4546 214.296 89.6803 214.296 87.7182C214.296 85.756 213.837 84.0026 212.919 82.4579C212.042 80.8715 210.81 79.619 209.224 78.7006C207.679 77.7821 205.905 77.3229 203.901 77.3229C201.897 77.3229 200.081 77.7612 198.453 78.6379C196.866 79.5146 195.614 80.7462 194.695 82.3326C193.819 83.9191 193.38 85.7143 193.38 87.7182C193.38 90.7658 194.361 93.2707 196.324 95.2329C198.286 97.195 200.812 98.1761 203.901 98.1761ZM244.682 104.626C241.384 104.626 238.399 103.896 235.727 102.434C233.097 100.973 231.031 98.9693 229.528 96.4227C228.025 93.8343 227.273 90.9328 227.273 87.7182C227.273 84.5453 228.025 81.6647 229.528 79.0763C231.031 76.4879 233.097 74.4631 235.727 73.0019C238.399 71.5407 241.384 70.8101 244.682 70.8101C247.98 70.8101 250.945 71.5407 253.575 73.0019C256.247 74.4631 258.334 76.4879 259.837 79.0763C261.34 81.6647 262.091 84.5453 262.091 87.7182C262.091 90.9328 261.34 93.8343 259.837 96.4227C258.334 98.9693 256.247 100.973 253.575 102.434C250.945 103.896 247.98 104.626 244.682 104.626ZM244.682 98.1761C246.644 98.1761 248.419 97.7169 250.005 96.7984C251.633 95.88 252.886 94.6275 253.763 93.0411C254.681 91.4546 255.14 89.6803 255.14 87.7182C255.14 85.756 254.681 83.9817 253.763 82.3953C252.886 80.8088 251.633 79.5564 250.005 78.6379C248.419 77.7195 246.644 77.2602 244.682 77.2602C242.72 77.2602 240.946 77.7195 239.359 78.6379C237.773 79.5564 236.52 80.8088 235.602 82.3953C234.684 83.9817 234.224 85.756 234.224 87.7182C234.224 89.6803 234.684 91.4546 235.602 93.0411C236.52 94.6275 237.773 95.88 239.359 96.7984C240.946 97.7169 242.72 98.1761 244.682 98.1761ZM294.849 71.1859C295.851 71.1859 296.706 71.499 297.416 72.1252C298.126 72.7514 298.481 73.6281 298.481 74.7553V100.744C298.481 101.829 298.105 102.706 297.354 103.374C296.644 104 295.809 104.313 294.849 104.313C293.888 104.313 293.033 104 292.281 103.374C291.571 102.706 291.217 101.829 291.217 100.744V98.8023C290.173 100.681 288.753 102.142 286.958 103.186C285.163 104.188 283.013 104.689 280.508 104.689C278.129 104.689 275.937 104.188 273.933 103.186C271.971 102.184 270.384 100.618 269.174 98.4892C268.005 96.3601 267.42 93.7091 267.42 90.5362V74.8806C267.42 73.7116 267.775 72.814 268.485 72.1878C269.236 71.5198 270.092 71.1859 271.052 71.1859C272.012 71.1859 272.847 71.5198 273.557 72.1878C274.309 72.814 274.684 73.7116 274.684 74.8806V89.4716C274.684 92.6445 275.436 94.9615 276.939 96.4227C278.483 97.8421 280.404 98.5519 282.7 98.5519C285.288 98.5519 287.334 97.7378 288.837 96.1096C290.382 94.4396 291.175 92.1017 291.217 89.0959V74.7553C291.217 73.6281 291.571 72.7514 292.281 72.1252C292.991 71.499 293.847 71.1859 294.849 71.1859ZM336.081 71.1859C337.041 71.1859 337.855 71.499 338.523 72.1252C339.233 72.7514 339.587 73.6281 339.587 74.7553V100.869C339.587 106.63 337.98 111.139 334.766 114.395C331.593 117.693 327.23 119.342 321.677 119.342C319.423 119.342 317.21 119.05 315.04 118.466C312.91 117.923 311.053 117.192 309.466 116.274C308.798 115.898 308.297 115.418 307.963 114.834C307.629 114.291 307.462 113.727 307.462 113.143C307.462 112.391 307.713 111.744 308.214 111.202C308.756 110.701 309.445 110.45 310.28 110.45C310.614 110.45 311.011 110.534 311.47 110.701C311.971 110.868 312.493 111.055 313.036 111.264C314.455 111.849 315.749 112.287 316.918 112.579C318.129 112.913 319.548 113.08 321.177 113.08C324.892 113.08 327.689 112.037 329.568 109.949C331.488 107.862 332.449 104.835 332.449 100.869V97.362C331.53 99.6164 329.985 101.391 327.814 102.685C325.644 103.979 323.097 104.626 320.175 104.626C317.002 104.626 314.205 103.875 311.783 102.372C309.362 100.869 307.483 98.8232 306.147 96.2348C304.853 93.6464 304.206 90.7867 304.206 87.6556C304.206 84.4409 304.874 81.5603 306.21 79.0137C307.587 76.467 309.508 74.4631 311.971 73.0019C314.434 71.5407 317.294 70.8101 320.55 70.8101C323.013 70.8101 325.31 71.3946 327.439 72.5636C329.568 73.7325 331.238 75.3398 332.449 77.3855V74.9432C332.449 73.7743 332.803 72.8558 333.513 72.1878C334.223 71.5198 335.079 71.1859 336.081 71.1859ZM321.991 98.1761C323.995 98.1761 325.769 97.7169 327.314 96.7984C328.9 95.88 330.132 94.6275 331.008 93.0411C331.927 91.4546 332.386 89.6803 332.386 87.7182C332.386 85.756 331.927 84.0026 331.008 82.4579C330.132 80.8715 328.9 79.619 327.314 78.7006C325.769 77.7821 323.995 77.3229 321.991 77.3229C319.987 77.3229 318.171 77.7612 316.542 78.6379C314.956 79.5146 313.704 80.7462 312.785 82.3326C311.908 83.9191 311.47 85.7143 311.47 87.7182C311.47 90.7658 312.451 93.2707 314.413 95.2329C316.375 97.195 318.901 98.1761 321.991 98.1761ZM364.901 70.8101C367.281 70.8101 369.473 71.332 371.476 72.3757C373.48 73.3776 375.067 74.9432 376.236 77.0724C377.446 79.1598 378.052 81.7899 378.052 84.9628V100.618C378.052 101.787 377.676 102.706 376.925 103.374C376.215 104.042 375.38 104.376 374.42 104.376C373.46 104.376 372.604 104.042 371.852 103.374C371.143 102.706 370.788 101.787 370.788 100.618V86.0274C370.788 82.8128 370.015 80.5166 368.471 79.1389C366.968 77.7195 365.068 77.0097 362.772 77.0097C360.142 77.0097 358.054 77.8447 356.51 79.5146C355.007 81.1846 354.234 83.4807 354.193 86.4031V100.744C354.193 101.871 353.838 102.768 353.128 103.436C352.418 104.063 351.583 104.376 350.623 104.376C349.663 104.376 348.828 104.063 348.118 103.436C347.409 102.768 347.054 101.871 347.054 100.744V60.2896C347.054 59.1624 347.409 58.2856 348.118 57.6594C348.828 56.9915 349.663 56.6575 350.623 56.6575C351.583 56.6575 352.418 56.9915 353.128 57.6594C353.838 58.2856 354.193 59.1624 354.193 60.2896V76.8219C355.236 74.8597 356.656 73.3776 358.451 72.3757C360.246 71.332 362.396 70.8101 364.901 70.8101Z" fill="#FFEED8"/>
<path d="M810.351 104C809.14 104 808.201 103.666 807.533 102.998C806.865 102.33 806.531 101.391 806.531 100.18V63.3581C806.531 62.1474 806.865 61.208 807.533 60.5401C808.201 59.8721 809.14 59.5381 810.351 59.5381H821.247C825.756 59.5381 829.68 60.5192 833.02 62.4813C836.36 64.4018 838.928 67.0528 840.723 70.4344C842.518 73.816 843.416 77.5942 843.416 81.769C843.416 85.9439 842.518 89.7221 840.723 93.1037C838.928 96.4853 836.36 99.1572 833.02 101.119C829.68 103.04 825.756 104 821.247 104H810.351ZM821.247 97.362C825.756 97.362 829.346 95.9843 832.018 93.2289C834.732 90.4736 836.089 86.6536 836.089 81.769C836.089 76.8845 834.732 73.0645 832.018 70.3091C829.346 67.5538 825.756 66.1761 821.247 66.1761H813.858V97.362H821.247ZM864.706 71.3737C866 71.2485 866.982 71.499 867.65 72.1252C868.317 72.7097 868.651 73.4194 868.651 74.2544C868.651 75.0893 868.338 75.8617 867.712 76.5714C867.086 77.2394 866.063 77.5942 864.644 77.636C862.306 77.6777 860.469 78.3039 859.133 79.5146C857.839 80.7253 857.192 82.437 857.192 84.6497V100.744C857.192 101.871 856.837 102.768 856.127 103.436C855.417 104.063 854.582 104.376 853.622 104.376C852.662 104.376 851.827 104.063 851.117 103.436C850.407 102.768 850.053 101.871 850.053 100.744V74.7553C850.053 73.6281 850.407 72.7514 851.117 72.1252C851.827 71.499 852.662 71.1859 853.622 71.1859C854.582 71.1859 855.417 71.499 856.127 72.1252C856.837 72.7514 857.192 73.6281 857.192 74.7553V76.1957C858.736 73.2733 861.241 71.666 864.706 71.3737ZM887.297 104.626C883.999 104.626 881.014 103.896 878.342 102.434C875.712 100.973 873.646 98.9693 872.143 96.4227C870.64 93.8343 869.888 90.9328 869.888 87.7182C869.888 84.5453 870.64 81.6647 872.143 79.0763C873.646 76.4879 875.712 74.4631 878.342 73.0019C881.014 71.5407 883.999 70.8101 887.297 70.8101C890.595 70.8101 893.56 71.5407 896.19 73.0019C898.862 74.4631 900.949 76.4879 902.452 79.0763C903.955 81.6647 904.706 84.5453 904.706 87.7182C904.706 90.9328 903.955 93.8343 902.452 96.4227C900.949 98.9693 898.862 100.973 896.19 102.434C893.56 103.896 890.595 104.626 887.297 104.626ZM887.297 98.1761C889.259 98.1761 891.034 97.7169 892.62 96.7984C894.248 95.88 895.501 94.6275 896.378 93.0411C897.296 91.4546 897.755 89.6803 897.755 87.7182C897.755 85.756 897.296 83.9817 896.378 82.3953C895.501 80.8088 894.248 79.5564 892.62 78.6379C891.034 77.7195 889.259 77.2602 887.297 77.2602C885.335 77.2602 883.561 77.7195 881.974 78.6379C880.388 79.5564 879.136 80.8088 878.217 82.3953C877.299 83.9817 876.839 85.756 876.839 87.7182C876.839 89.6803 877.299 91.4546 878.217 93.0411C879.136 94.6275 880.388 95.88 881.974 96.7984C883.561 97.7169 885.335 98.1761 887.297 98.1761ZM929.886 70.8727C933.101 70.8727 935.919 71.6242 938.34 73.1272C940.762 74.6301 942.62 76.6758 943.914 79.2642C945.208 81.8525 945.855 84.7123 945.855 87.8434C945.855 91.0163 945.187 93.8969 943.851 96.4853C942.515 99.032 940.595 101.036 938.09 102.497C935.627 103.958 932.767 104.689 929.511 104.689C927.048 104.689 924.751 104.104 922.622 102.935C920.493 101.766 918.823 100.159 917.612 98.1135V115.397C917.612 116.483 917.258 117.339 916.548 117.965C915.838 118.633 915.003 118.967 914.043 118.967C913.083 118.967 912.248 118.633 911.538 117.965C910.828 117.339 910.473 116.483 910.473 115.397V74.7553C910.473 73.6281 910.828 72.7514 911.538 72.1252C912.248 71.499 913.083 71.1859 914.043 71.1859C915.003 71.1859 915.838 71.499 916.548 72.1252C917.258 72.7514 917.612 73.6281 917.612 74.7553V78.1369C918.573 75.8825 920.117 74.1082 922.246 72.814C924.417 71.5198 926.964 70.8727 929.886 70.8727ZM928.07 98.1761C930.074 98.1761 931.869 97.7378 933.456 96.861C935.084 95.9426 936.357 94.711 937.276 93.1663C938.194 91.5799 938.654 89.7847 938.654 87.7808C938.654 85.7769 938.194 83.9817 937.276 82.3953C936.357 80.8088 935.084 79.5773 933.456 78.7006C931.869 77.7821 930.074 77.3229 928.07 77.3229C926.066 77.3229 924.271 77.7821 922.685 78.7006C921.14 79.619 919.909 80.8715 918.99 82.4579C918.113 84.0443 917.675 85.8186 917.675 87.7808C917.675 89.743 918.113 91.5173 918.99 93.1037C919.909 94.6484 921.14 95.88 922.685 96.7984C924.271 97.7169 926.066 98.1761 928.07 98.1761ZM995.139 89.1585C995.932 89.1585 996.6 89.4507 997.143 90.0352C997.727 90.6197 998.02 91.3085 998.02 92.1017C998.02 92.895 997.727 93.5838 997.143 94.1683C996.6 94.7528 995.932 95.045 995.139 95.045H991.131V100.806C991.131 101.766 990.776 102.601 990.067 103.311C989.357 104.021 988.522 104.376 987.562 104.376C986.601 104.376 985.766 104.021 985.057 103.311C984.389 102.56 984.055 101.704 984.055 100.744V95.045H966.333C965.247 95.045 964.391 94.6901 963.765 93.9804C963.181 93.2707 962.888 92.4357 962.888 91.4755C962.888 90.7241 963.076 90.077 963.452 89.5342L983.303 61.1037C983.679 60.5609 984.18 60.1226 984.806 59.7886C985.474 59.4129 986.163 59.225 986.873 59.225C988.042 59.225 989.044 59.6425 989.879 60.4774C990.714 61.2706 991.131 62.2517 991.131 63.4207V89.1585H995.139ZM970.841 89.1585H984.055V76.3835C984.055 72.7514 984.389 69.996 985.057 68.1174L970.841 89.1585Z" fill="#FFEED8"/>
<path d="M223.048 687.707C225.358 691.931 228.997 696.022 229.33 700.697C228.489 716.04 283.599 720.769 296.865 726.266C323.02 737.105 369.08 730.68 397.067 730.046C449.082 728.869 502.186 732.303 554.269 732.868C598.054 733.342 642.353 734.104 686.02 735.216L686.613 735.231C726.426 736.246 776.042 737.51 813.706 726.672C842.652 718.342 851.566 699.333 857.686 677.708C866.753 645.672 863.754 609.537 865.554 576.709L868.966 514.457C870.093 493.898 876.342 469.204 868.062 448.939C861.914 433.893 855.749 420.3 846.257 406.249C837.89 393.864 818.396 382.248 805.456 372.925C787.567 360.036 761.548 353.494 741.861 342.303C728.106 334.484 714.65 328.438 697.814 325.662C644.043 316.794 589.844 314.097 535.514 309.52C489.307 305.627 444.232 303.309 397.648 303.28C364.595 303.259 333.143 304.284 303.996 316.72C274.391 329.351 255.05 355.69 237.881 377.642C205.219 419.401 182.249 466.025 179.513 515.918C177.803 547.112 175.381 577.916 186.925 608.534C196.971 635.179 209.067 662.133 223.048 687.707Z" fill="#94D2FF"/>
<path d="M454.699 321.383C443.844 321.693 434.388 326.037 425.435 330.589C404.706 341.127 383.191 350.848 365.707 365.148C356.12 372.989 318.35 413.404 333.934 425.891C341.736 432.143 376.842 420.324 383.957 418.483C409.989 411.747 432.075 402.857 449.908 385.715C470.543 365.88 481.902 345.684 510.395 331.555C518.628 327.472 535.181 316.22 529.336 331.934C516.394 366.732 499.571 395.411 472.189 423.188C453.308 442.34 482.038 453.726 502.079 445.786C545.689 428.508 549.125 399.873 564.658 367.881C573.887 348.872 589.704 339.542 607.961 327.412C616.286 321.88 613.335 333.145 613.113 337.186C612.47 348.918 613.935 362.151 608.304 373.042C604.116 381.142 580.773 422.297 592.329 430.96C614.803 447.807 658.721 408.26 661.197 391.101C663.984 371.788 662.27 352.429 661.682 333.257C661.072 313.378 645.368 312.853 625.883 311.785C572.88 308.879 518.781 315.405 466.561 312.542" stroke="#0033E6" stroke-width="4.85227" stroke-linecap="round"/>
<path d="M428.197 926.145C420.408 926.145 413.428 924.345 407.256 920.745C401.157 917.071 396.381 912.184 392.927 906.086C389.548 899.914 387.858 893.154 387.858 885.806C387.858 878.532 389.548 871.845 392.927 865.747C396.307 859.648 401.047 854.799 407.145 851.198C413.244 847.524 420.188 845.687 427.976 845.687C433.193 845.687 437.859 846.349 441.974 847.671C446.162 848.92 449.689 850.61 452.554 852.741C454.244 853.99 455.493 855.386 456.302 856.929C457.11 858.399 457.514 859.905 457.514 861.448C457.514 863.653 456.706 865.563 455.089 867.18C453.546 868.796 451.562 869.604 449.138 869.604C446.786 869.604 444.398 868.759 441.974 867.069C440.284 865.894 438.263 864.939 435.912 864.204C433.56 863.395 431.025 862.991 428.307 862.991C424.045 862.991 420.261 863.983 416.955 865.967C413.648 867.951 411.076 870.706 409.239 874.233C407.476 877.76 406.594 881.728 406.594 886.137C406.594 890.472 407.439 894.366 409.129 897.82C410.819 901.2 413.281 903.881 416.514 905.865C419.747 907.849 423.531 908.841 427.866 908.841C432.495 908.841 436.463 907.739 439.769 905.535C443.076 903.257 445.464 900.134 446.933 896.166H426.433C423.861 896.166 421.841 895.358 420.371 893.742C418.975 892.125 418.277 890.178 418.277 887.9C418.277 885.696 418.975 883.785 420.371 882.169C421.841 880.479 423.861 879.634 426.433 879.634H457.073C460.086 879.634 462.364 880.479 463.907 882.169C465.523 883.859 466.331 886.357 466.331 889.664C466.331 890.325 466.258 891.464 466.111 893.08C465.45 898.15 463.613 903.22 460.6 908.29C457.588 913.36 453.326 917.622 447.815 921.075C442.378 924.455 435.838 926.145 428.197 926.145ZM498.991 891.868H498.88C497.999 891.758 497.337 890.986 497.448 890.104L499.542 871.809C499.652 870.927 500.534 870.266 501.415 870.376C502.297 870.486 502.848 871.368 502.738 872.25L500.644 890.435C500.534 891.317 499.872 891.868 498.991 891.868ZM511.445 834.445C511.225 834.445 511.004 834.445 511.004 834.445C497.558 835.437 477.278 861.228 471.437 884.704C468.791 895.726 468.13 910.605 480.805 918.43C484.552 920.634 488.189 921.847 491.716 921.847C498.219 921.847 504.391 918.21 510.233 910.935C523.459 894.513 530.182 864.865 526.985 850.317C523.789 835.548 514.311 834.445 511.445 834.445ZM530.953 858.473C530.953 874.895 524.23 898.701 512.768 913.029C506.375 920.855 499.101 925.043 491.716 925.043C487.528 925.043 483.34 923.72 479.152 921.185C468.02 914.242 464.162 901.016 468.351 883.932C474.523 858.913 495.905 832.351 510.673 831.249C510.673 831.249 511.004 831.249 511.445 831.249C513.87 831.249 526.324 832.131 530.072 849.655C530.623 852.19 530.953 855.166 530.953 858.473ZM557.005 891.868H556.894C556.013 891.758 555.351 890.986 555.462 890.104L557.556 871.809C557.666 870.927 558.548 870.266 559.429 870.376C560.311 870.486 560.862 871.368 560.752 872.25L558.658 890.435C558.548 891.317 557.886 891.868 557.005 891.868ZM569.459 834.445C569.239 834.445 569.018 834.445 569.018 834.445C555.572 835.437 535.292 861.228 529.451 884.704C526.805 895.726 526.144 910.605 538.819 918.43C542.566 920.634 546.203 921.847 549.73 921.847C556.233 921.847 562.405 918.21 568.247 910.935C581.473 894.513 588.196 864.865 585 850.317C581.803 835.548 572.325 834.445 569.459 834.445ZM588.967 858.473C588.967 874.895 582.244 898.701 570.782 913.029C564.389 920.855 557.115 925.043 549.73 925.043C545.542 925.043 541.354 923.72 537.166 921.185C526.034 914.242 522.176 901.016 526.365 883.932C532.537 858.913 553.919 832.351 568.688 831.249C568.688 831.249 569.018 831.249 569.459 831.249C571.884 831.249 584.338 832.131 588.086 849.655C588.637 852.19 588.967 855.166 588.967 858.473ZM602.454 925.043C599.295 925.043 596.87 924.198 595.18 922.508C593.49 920.818 592.645 918.393 592.645 915.234V856.599C592.645 853.366 593.49 850.941 595.18 849.325C596.87 847.635 599.295 846.79 602.454 846.79H620.53C628.833 846.79 636.033 848.516 642.132 851.97C648.304 855.35 653.007 860.016 656.24 865.967C659.473 871.919 661.089 878.569 661.089 885.916C661.089 893.264 659.473 899.914 656.24 905.865C653.007 911.817 648.304 916.52 642.132 919.973C636.033 923.353 628.833 925.043 620.53 925.043H602.454ZM620.53 908.07C627.216 908.07 632.506 906.27 636.401 902.669C640.368 898.995 642.352 893.411 642.352 885.916C642.352 878.422 640.368 872.874 636.401 869.274C632.506 865.6 627.216 863.763 620.53 863.763H611.382V908.07H620.53Z" fill="#FFEED8"/>
<path d="M514.055 929.894C514.236 931.495 516.754 935.219 517.928 936.085C520.456 937.95 521.311 936.907 523.913 936.907C527.8 936.907 529.589 932.137 530.954 929.115" stroke="#FFEED8" stroke-width="2.20432" stroke-linecap="round"/>
<path d="M571.522 817.992C572.716 819.319 573.489 820.334 575.119 821.328C576.692 822.287 578.838 822.954 580.701 822.954" stroke="#FFEED8" stroke-width="2.20432" stroke-linecap="round"/>
<path d="M510.739 817C509.934 817 509.132 817.619 508.451 817.992C507.111 818.727 505.693 819.395 504.261 819.922C503.032 820.374 501.627 820.721 500.319 820.721" stroke="#FFEED8" stroke-width="2.20432" stroke-linecap="round"/>
<path d="M423.223 949.186C427.996 949.186 432.149 950.333 435.682 952.626C439.215 954.92 441.881 958.019 443.678 961.924C445.538 965.829 446.468 970.106 446.468 974.755C446.468 979.59 445.507 983.929 443.585 987.772C441.664 991.553 438.874 994.56 435.217 996.791C431.622 998.96 427.345 1000.05 422.386 1000.05C419.597 1000.05 416.839 999.487 414.111 998.372C411.384 997.194 409.152 995.489 407.417 993.258C407.169 995.303 406.301 996.915 404.813 998.093C403.388 999.208 401.714 999.766 399.793 999.766C397.747 999.766 395.949 999.084 394.4 997.721C392.85 996.357 392.075 994.467 392.075 992.049V936.262C392.075 933.845 392.85 931.954 394.4 930.591C395.949 929.227 397.747 928.545 399.793 928.545C401.9 928.545 403.698 929.227 405.185 930.591C406.735 931.954 407.51 933.845 407.51 936.262V957.275C408.564 954.734 410.485 952.75 413.274 951.325C416.126 949.899 419.442 949.186 423.223 949.186ZM419.132 986.099C422.603 986.099 425.424 985.045 427.593 982.937C429.762 980.768 430.847 977.978 430.847 974.569C430.847 971.16 429.762 968.402 427.593 966.294C425.424 964.125 422.603 963.04 419.132 963.04C415.785 963.04 413.026 964.125 410.857 966.294C408.687 968.402 407.603 971.16 407.603 974.569C407.603 977.978 408.687 980.768 410.857 982.937C413.026 985.045 415.785 986.099 419.132 986.099ZM476.793 950.023C477.165 949.961 477.692 949.93 478.374 949.93C480.419 949.93 482.031 950.519 483.208 951.697C484.386 952.874 484.975 954.3 484.975 955.974C484.975 957.833 484.262 959.507 482.836 960.994C481.473 962.482 479.427 963.35 476.7 963.598C471.493 964.094 468.89 966.883 468.89 971.966V992.049C468.89 994.467 468.115 996.357 466.565 997.721C465.078 999.084 463.28 999.766 461.173 999.766C459.127 999.766 457.33 999.084 455.78 997.721C454.23 996.357 453.455 994.467 453.455 992.049V957.089C453.455 954.672 454.23 952.781 455.78 951.418C457.33 950.054 459.127 949.372 461.173 949.372C463.032 949.372 464.675 949.899 466.1 950.953C467.526 952.007 468.394 953.494 468.704 955.416C470.687 952.378 473.384 950.581 476.793 950.023ZM537.3 971.036C537.362 971.346 537.393 971.842 537.393 972.524C537.393 974.693 536.68 976.367 535.254 977.545C533.891 978.66 532.031 979.218 529.676 979.218H502.433C502.743 981.512 503.89 983.433 505.873 984.983C507.919 986.47 510.367 987.214 513.218 987.214C516.814 987.214 519.696 986.037 521.865 983.681C523.415 982.069 525.089 981.264 526.886 981.264C528.684 981.264 530.233 981.915 531.535 983.216C532.899 984.518 533.581 986.037 533.581 987.772C533.581 989.384 532.899 990.902 531.535 992.328C529.118 994.745 526.328 996.636 523.167 998C520.068 999.301 516.721 999.952 513.126 999.952C508.043 999.952 503.518 998.898 499.551 996.791C495.584 994.683 492.484 991.739 490.253 987.958C488.021 984.115 486.906 979.714 486.906 974.755C486.906 969.858 487.99 965.457 490.16 961.552C492.329 957.647 495.336 954.61 499.179 952.44C503.022 950.209 507.392 949.093 512.289 949.093C518.921 949.093 524.469 950.953 528.932 954.672C533.457 958.391 536.246 963.846 537.3 971.036ZM512.289 961.459C509.499 961.459 507.175 962.141 505.315 963.505C503.456 964.869 502.464 966.728 502.34 969.084H522.33C522.082 966.79 521.029 964.962 519.169 963.598C517.31 962.172 515.016 961.459 512.289 961.459ZM587.881 949.465C589.988 949.465 591.817 950.147 593.366 951.511C594.916 952.812 595.691 954.703 595.691 957.182V991.956C595.691 994.374 594.916 996.264 593.366 997.628C591.817 998.991 589.988 999.673 587.881 999.673C585.773 999.673 583.944 998.991 582.395 997.628C580.845 996.264 580.07 994.374 580.07 991.956V991.863C579.017 994.405 577.064 996.388 574.213 997.814C571.423 999.239 568.138 999.952 564.357 999.952C559.584 999.952 555.431 998.806 551.898 996.512C548.365 994.219 545.669 991.119 543.809 987.214C542.011 983.309 541.113 979.032 541.113 974.383C541.113 969.548 542.073 965.24 543.995 961.459C545.916 957.616 548.675 954.61 552.27 952.44C555.927 950.209 560.235 949.093 565.194 949.093C567.983 949.093 570.742 949.682 573.469 950.86C576.196 951.976 578.428 953.649 580.163 955.881C580.473 953.835 581.341 952.255 582.767 951.139C584.254 950.023 585.959 949.465 587.881 949.465ZM568.448 986.099C571.795 986.099 574.554 985.045 576.723 982.937C578.893 980.768 579.977 977.978 579.977 974.569C579.977 971.16 578.893 968.402 576.723 966.294C574.554 964.125 571.795 963.04 568.448 963.04C564.977 963.04 562.157 964.125 559.987 966.294C557.818 968.402 556.733 971.16 556.733 974.569C556.733 977.978 557.818 980.768 559.987 982.937C562.157 985.045 564.977 986.099 568.448 986.099ZM649.349 928.545C651.457 928.545 653.254 929.227 654.742 930.591C656.292 931.954 657.066 933.845 657.066 936.262V992.049C657.066 994.467 656.292 996.357 654.742 997.721C653.254 999.084 651.457 999.766 649.349 999.766C647.304 999.766 645.506 999.084 643.956 997.721C642.407 996.357 641.632 994.467 641.632 992.049V991.863C640.578 994.405 638.626 996.388 635.774 997.814C632.985 999.239 629.7 999.952 625.919 999.952C621.146 999.952 616.993 998.806 613.46 996.512C609.927 994.219 607.23 991.119 605.371 987.214C603.573 983.309 602.674 979.032 602.674 974.383C602.674 969.548 603.635 965.24 605.557 961.459C607.478 957.616 610.236 954.61 613.832 952.44C617.489 950.209 621.797 949.093 626.756 949.093C629.545 949.093 632.272 949.651 634.938 950.767C637.665 951.883 639.896 953.525 641.632 955.695V936.262C641.632 933.845 642.407 931.954 643.956 930.591C645.506 929.227 647.304 928.545 649.349 928.545ZM630.01 986.099C633.357 986.099 636.115 985.045 638.285 982.937C640.454 980.768 641.539 977.978 641.539 974.569C641.539 971.16 640.454 968.402 638.285 966.294C636.115 964.125 633.357 963.04 630.01 963.04C626.539 963.04 623.718 964.125 621.549 966.294C619.379 968.402 618.295 971.16 618.295 974.569C618.295 977.978 619.379 980.768 621.549 982.937C623.718 985.045 626.539 986.099 630.01 986.099Z" fill="#FFEED8"/>
</svg>
