<svg width="1049" height="1049" viewBox="0 0 1049 1049" fill="none" xmlns="http://www.w3.org/2000/svg">
<rect width="1049" height="1049" fill="#0033E6"/>
<path d="M67.9726 104.626C64.3823 104.626 61.272 103.833 58.6419 102.247C56.0118 100.618 54.0705 98.2805 52.818 95.2329C52.5675 94.5231 52.4423 93.8969 52.4423 93.3542C52.4423 92.227 52.818 91.3085 53.5695 90.5988C54.3627 89.8891 55.2603 89.5342 56.2622 89.5342C56.972 89.5342 57.6191 89.7638 58.2035 90.2231C58.788 90.6406 59.2055 91.2668 59.456 92.1017C60.0822 94.2309 61.1468 95.8173 62.6497 96.861C64.1527 97.9048 65.927 98.4266 67.9726 98.4266C70.3105 98.4266 72.1475 97.8839 73.4834 96.7984C74.8611 95.713 75.5499 94.2935 75.5499 92.5401C75.5499 91.2877 75.1325 90.2022 74.2975 89.2837C73.5043 88.3235 72.5023 87.5303 71.2916 86.9041C70.1227 86.2361 68.4736 85.4429 66.3444 84.5244C63.5473 83.3137 61.2929 82.2074 59.5812 81.2054C57.9113 80.2035 56.4501 78.8675 55.1977 77.1976C53.987 75.4859 53.3816 73.3776 53.3816 70.8727C53.3816 68.5348 53.987 66.4683 55.1977 64.6731C56.4084 62.8362 58.0574 61.4168 60.1448 60.4148C62.274 59.4129 64.6954 58.9119 67.409 58.9119C70.7906 58.9119 73.713 59.7051 76.1762 61.2915C78.6393 62.878 80.4345 65.0489 81.5617 67.8043C81.7704 68.2635 81.8748 68.8062 81.8748 69.4324C81.8748 70.4761 81.4991 71.3737 80.7476 72.1252C80.0379 72.8349 79.2029 73.1898 78.2427 73.1898C77.533 73.1898 76.8859 72.981 76.3014 72.5636C75.7169 72.1043 75.2368 71.4155 74.8611 70.497C74.2349 68.8271 73.2955 67.512 72.0431 66.5518C70.7906 65.5916 69.2668 65.1115 67.4717 65.1115C65.593 65.1115 64.0274 65.6125 62.775 66.6144C61.5225 67.6164 60.8963 68.9523 60.8963 70.6223C60.8963 72.0417 61.3138 73.2315 62.1487 74.1917C62.9837 75.1519 64.0065 75.9452 65.2172 76.5714C66.4279 77.1976 68.1605 77.97 70.4149 78.8884C73.212 80.0156 75.4456 81.0385 77.1155 81.9569C78.7854 82.8754 80.2257 84.1696 81.4364 85.8395C82.6471 87.5094 83.2525 89.5968 83.2525 92.1017C83.2525 94.6484 82.5845 96.861 81.2486 98.7397C79.9544 100.618 78.1383 102.08 75.8004 103.123C73.5043 104.125 70.895 104.626 67.9726 104.626ZM107.258 70.8101C109.679 70.8101 111.871 71.3111 113.833 72.3131C115.837 73.315 117.424 74.8806 118.593 77.0097C119.803 79.1389 120.409 81.7899 120.409 84.9628V100.618C120.409 101.787 120.033 102.706 119.281 103.374C118.572 104.042 117.737 104.376 116.777 104.376C115.816 104.376 114.96 104.042 114.209 103.374C113.499 102.706 113.144 101.787 113.144 100.618V86.0274C113.144 82.8545 112.372 80.5583 110.827 79.1389C109.324 77.7195 107.425 77.0097 105.129 77.0097C102.54 77.0097 100.474 77.8238 98.9291 79.452C97.4262 81.0802 96.6539 83.3972 96.6121 86.4031V100.744C96.6121 101.829 96.2364 102.706 95.4849 103.374C94.7752 104 93.9402 104.313 92.98 104.313C92.0198 104.313 91.164 104 90.4125 103.374C89.7028 102.706 89.3479 101.829 89.3479 100.744V74.7553C89.3479 73.6281 89.7028 72.7514 90.4125 72.1252C91.1222 71.499 91.978 71.1859 92.98 71.1859C93.982 71.1859 94.8378 71.499 95.5475 72.1252C96.2572 72.7514 96.6121 73.6281 96.6121 74.7553V76.6966C97.6558 74.818 99.0753 73.3776 100.87 72.3757C102.666 71.332 104.795 70.8101 107.258 70.8101ZM157.57 71.2485C158.53 71.2485 159.365 71.5616 160.075 72.1878C160.785 72.814 161.14 73.6908 161.14 74.818V100.806C161.14 101.892 160.785 102.768 160.075 103.436C159.365 104.063 158.53 104.376 157.57 104.376C156.61 104.376 155.754 104.063 155.003 103.436C154.293 102.768 153.938 101.892 153.938 100.806V97.362C153.02 99.6164 151.475 101.391 149.304 102.685C147.133 103.979 144.586 104.626 141.664 104.626C138.491 104.626 135.694 103.875 133.273 102.372C130.851 100.869 128.973 98.8232 127.637 96.2348C126.342 93.6464 125.695 90.7867 125.695 87.6556C125.695 84.4409 126.363 81.5603 127.699 79.0137C129.077 76.467 130.997 74.4631 133.46 73.0019C135.924 71.5407 138.783 70.8101 142.04 70.8101C144.503 70.8101 146.799 71.3946 148.928 72.5636C151.057 73.7325 152.727 75.3398 153.938 77.3855V74.818C153.938 73.6908 154.293 72.814 155.003 72.1878C155.712 71.5616 156.568 71.2485 157.57 71.2485ZM143.48 98.1761C145.484 98.1761 147.258 97.7169 148.803 96.7984C150.389 95.88 151.621 94.6275 152.498 93.0411C153.416 91.4546 153.875 89.6803 153.875 87.7182C153.875 85.756 153.416 84.0026 152.498 82.4579C151.621 80.8715 150.389 79.619 148.803 78.7006C147.258 77.7821 145.484 77.3229 143.48 77.3229C141.476 77.3229 139.66 77.7612 138.032 78.6379C136.445 79.5146 135.193 80.7462 134.275 82.3326C133.398 83.9191 132.96 85.7143 132.96 87.7182C132.96 90.7658 133.941 93.2707 135.903 95.2329C137.865 97.195 140.391 98.1761 143.48 98.1761ZM193.215 102.309C190.501 103.854 187.475 104.626 184.135 104.626C181.212 104.626 178.436 104 175.806 102.748C173.218 101.495 171.109 99.5956 169.481 97.0489C167.895 94.5023 167.101 91.392 167.101 87.7182C167.101 84.0443 167.895 80.955 169.481 78.4501C171.109 75.9034 173.218 74.0247 175.806 72.814C178.394 71.5616 181.15 70.9354 184.072 70.9354C187.454 70.9354 190.501 71.7077 193.215 73.2524C194.551 74.0456 195.219 75.1102 195.219 76.4461C195.219 77.2394 194.968 77.9282 194.467 78.5127C194.008 79.0554 193.403 79.3268 192.651 79.3268C192.192 79.3268 191.691 79.1807 191.148 78.8884C189.312 77.9282 187.308 77.4481 185.137 77.4481C183.216 77.4481 181.421 77.8447 179.751 78.6379C178.123 79.3894 176.787 80.5375 175.743 82.0822C174.741 83.6268 174.24 85.5264 174.24 87.7808C174.24 89.91 174.72 91.7469 175.681 93.2916C176.683 94.8363 177.998 96.0261 179.626 96.861C181.296 97.6543 183.091 98.0509 185.011 98.0509C187.182 98.0509 189.207 97.5708 191.086 96.6106C191.587 96.3601 192.046 96.2348 192.464 96.2348C193.215 96.2348 193.841 96.5479 194.342 97.1742C194.843 97.7586 195.094 98.4475 195.094 99.2407C195.094 99.8252 194.927 100.389 194.593 100.932C194.3 101.474 193.841 101.933 193.215 102.309ZM228.371 99.0528C228.955 99.5956 229.247 100.243 229.247 100.994C229.247 101.829 228.872 102.581 228.12 103.249C227.41 103.917 226.575 104.25 225.615 104.25C224.697 104.25 223.883 103.896 223.173 103.186L208.394 88.6575C208.561 92.5818 208.645 96.6106 208.645 100.744C208.645 101.704 208.311 102.56 207.643 103.311C206.975 104.021 206.119 104.376 205.075 104.376C204.115 104.376 203.28 104.021 202.57 103.311C201.86 102.56 201.506 101.704 201.506 100.744V60.2896C201.506 59.3294 201.86 58.4944 202.57 57.7847C203.28 57.0332 204.115 56.6575 205.075 56.6575C206.077 56.6575 206.912 57.0123 207.58 57.722C208.29 58.4318 208.645 59.2876 208.645 60.2896C208.645 65.5498 208.624 70.2883 208.582 74.5048C208.54 78.6797 208.457 82.0613 208.331 84.6497L222.922 72.4383C223.924 71.6033 224.989 71.1859 226.116 71.1859C227.035 71.1859 227.786 71.4572 228.371 72C228.997 72.5009 229.31 73.1063 229.31 73.816C229.31 74.6927 228.851 75.5068 227.932 76.2583L215.533 86.6536L228.371 99.0528ZM267.702 70.8727C270.916 70.8727 273.734 71.6242 276.156 73.1272C278.577 74.6301 280.435 76.6758 281.729 79.2642C283.023 81.8525 283.671 84.7123 283.671 87.8434C283.671 91.0163 283.003 93.8969 281.667 96.4853C280.331 99.032 278.41 101.036 275.905 102.497C273.442 103.958 270.583 104.689 267.326 104.689C264.863 104.689 262.567 104.104 260.438 102.935C258.309 101.766 256.639 100.159 255.428 98.1135V115.397C255.428 116.483 255.073 117.339 254.363 117.965C253.654 118.633 252.819 118.967 251.858 118.967C250.898 118.967 250.063 118.633 249.354 117.965C248.644 117.339 248.289 116.483 248.289 115.397V74.7553C248.289 73.6281 248.644 72.7514 249.354 72.1252C250.063 71.499 250.898 71.1859 251.858 71.1859C252.819 71.1859 253.654 71.499 254.363 72.1252C255.073 72.7514 255.428 73.6281 255.428 74.7553V78.1369C256.388 75.8825 257.933 74.1082 260.062 72.814C262.233 71.5198 264.779 70.8727 267.702 70.8727ZM265.886 98.1761C267.89 98.1761 269.685 97.7378 271.271 96.861C272.9 95.9426 274.173 94.711 275.091 93.1663C276.01 91.5799 276.469 89.7847 276.469 87.7808C276.469 85.7769 276.01 83.9817 275.091 82.3953C274.173 80.8088 272.9 79.5773 271.271 78.7006C269.685 77.7821 267.89 77.3229 265.886 77.3229C263.882 77.3229 262.087 77.7821 260.5 78.7006C258.956 79.619 257.724 80.8715 256.806 82.4579C255.929 84.0443 255.491 85.8186 255.491 87.7808C255.491 89.743 255.929 91.5173 256.806 93.1037C257.724 94.6484 258.956 95.88 260.5 96.7984C262.087 97.7169 263.882 98.1761 265.886 98.1761ZM319.263 71.2485C320.223 71.2485 321.058 71.5616 321.768 72.1878C322.478 72.814 322.833 73.6908 322.833 74.818V100.806C322.833 101.892 322.478 102.768 321.768 103.436C321.058 104.063 320.223 104.376 319.263 104.376C318.303 104.376 317.447 104.063 316.696 103.436C315.986 102.768 315.631 101.892 315.631 100.806V97.362C314.713 99.6164 313.168 101.391 310.997 102.685C308.826 103.979 306.279 104.626 303.357 104.626C300.184 104.626 297.387 103.875 294.966 102.372C292.544 100.869 290.666 98.8232 289.33 96.2348C288.035 93.6464 287.388 90.7867 287.388 87.6556C287.388 84.4409 288.056 81.5603 289.392 79.0137C290.77 76.467 292.69 74.4631 295.153 73.0019C297.617 71.5407 300.476 70.8101 303.733 70.8101C306.196 70.8101 308.492 71.3946 310.621 72.5636C312.75 73.7325 314.42 75.3398 315.631 77.3855V74.818C315.631 73.6908 315.986 72.814 316.696 72.1878C317.405 71.5616 318.261 71.2485 319.263 71.2485ZM305.173 98.1761C307.177 98.1761 308.951 97.7169 310.496 96.7984C312.082 95.88 313.314 94.6275 314.191 93.0411C315.109 91.4546 315.568 89.6803 315.568 87.7182C315.568 85.756 315.109 84.0026 314.191 82.4579C313.314 80.8715 312.082 79.619 310.496 78.7006C308.951 77.7821 307.177 77.3229 305.173 77.3229C303.169 77.3229 301.353 77.7612 299.725 78.6379C298.138 79.5146 296.886 80.7462 295.968 82.3326C295.091 83.9191 294.652 85.7143 294.652 87.7182C294.652 90.7658 295.634 93.2707 297.596 95.2329C299.558 97.195 302.084 98.1761 305.173 98.1761ZM354.908 102.309C352.194 103.854 349.168 104.626 345.828 104.626C342.905 104.626 340.129 104 337.499 102.748C334.911 101.495 332.802 99.5956 331.174 97.0489C329.588 94.5023 328.794 91.392 328.794 87.7182C328.794 84.0443 329.588 80.955 331.174 78.4501C332.802 75.9034 334.911 74.0247 337.499 72.814C340.087 71.5616 342.843 70.9354 345.765 70.9354C349.147 70.9354 352.194 71.7077 354.908 73.2524C356.244 74.0456 356.912 75.1102 356.912 76.4461C356.912 77.2394 356.661 77.9282 356.16 78.5127C355.701 79.0554 355.096 79.3268 354.344 79.3268C353.885 79.3268 353.384 79.1807 352.841 78.8884C351.005 77.9282 349.001 77.4481 346.83 77.4481C344.909 77.4481 343.114 77.8447 341.444 78.6379C339.816 79.3894 338.48 80.5375 337.436 82.0822C336.434 83.6268 335.933 85.5264 335.933 87.7808C335.933 89.91 336.414 91.7469 337.374 93.2916C338.376 94.8363 339.691 96.0261 341.319 96.861C342.989 97.6543 344.784 98.0509 346.704 98.0509C348.875 98.0509 350.9 97.5708 352.779 96.6106C353.28 96.3601 353.739 96.2348 354.157 96.2348C354.908 96.2348 355.534 96.5479 356.035 97.1742C356.536 97.7586 356.787 98.4475 356.787 99.2407C356.787 99.8252 356.62 100.389 356.286 100.932C355.993 101.474 355.534 101.933 354.908 102.309ZM390.064 99.0528C390.648 99.5956 390.94 100.243 390.94 100.994C390.94 101.829 390.565 102.581 389.813 103.249C389.103 103.917 388.268 104.25 387.308 104.25C386.39 104.25 385.576 103.896 384.866 103.186L370.087 88.6575C370.254 92.5818 370.338 96.6106 370.338 100.744C370.338 101.704 370.004 102.56 369.336 103.311C368.668 104.021 367.812 104.376 366.768 104.376C365.808 104.376 364.973 104.021 364.263 103.311C363.553 102.56 363.199 101.704 363.199 100.744V60.2896C363.199 59.3294 363.553 58.4944 364.263 57.7847C364.973 57.0332 365.808 56.6575 366.768 56.6575C367.77 56.6575 368.605 57.0123 369.273 57.722C369.983 58.4318 370.338 59.2876 370.338 60.2896C370.338 65.5498 370.317 70.2883 370.275 74.5048C370.233 78.6797 370.15 82.0613 370.024 84.6497L384.615 72.4383C385.617 71.6033 386.682 71.1859 387.809 71.1859C388.728 71.1859 389.479 71.4572 390.064 72C390.69 72.5009 391.003 73.1063 391.003 73.816C391.003 74.6927 390.544 75.5068 389.625 76.2583L377.226 86.6536L390.064 99.0528Z" fill="#FFEED8"/>
<path d="M810.351 104C809.14 104 808.201 103.666 807.533 102.998C806.865 102.33 806.531 101.391 806.531 100.18V63.3581C806.531 62.1474 806.865 61.208 807.533 60.5401C808.201 59.8721 809.14 59.5381 810.351 59.5381H821.247C825.756 59.5381 829.68 60.5192 833.02 62.4813C836.36 64.4018 838.928 67.0528 840.723 70.4344C842.518 73.816 843.416 77.5942 843.416 81.769C843.416 85.9439 842.518 89.7221 840.723 93.1037C838.928 96.4853 836.36 99.1572 833.02 101.119C829.68 103.04 825.756 104 821.247 104H810.351ZM821.247 97.362C825.756 97.362 829.346 95.9843 832.018 93.2289C834.732 90.4736 836.089 86.6536 836.089 81.769C836.089 76.8845 834.732 73.0645 832.018 70.3091C829.346 67.5538 825.756 66.1761 821.247 66.1761H813.858V97.362H821.247ZM864.706 71.3737C866 71.2485 866.982 71.499 867.65 72.1252C868.317 72.7097 868.651 73.4194 868.651 74.2544C868.651 75.0893 868.338 75.8617 867.712 76.5714C867.086 77.2394 866.063 77.5942 864.644 77.636C862.306 77.6777 860.469 78.3039 859.133 79.5146C857.839 80.7253 857.192 82.437 857.192 84.6497V100.744C857.192 101.871 856.837 102.768 856.127 103.436C855.417 104.063 854.582 104.376 853.622 104.376C852.662 104.376 851.827 104.063 851.117 103.436C850.407 102.768 850.053 101.871 850.053 100.744V74.7553C850.053 73.6281 850.407 72.7514 851.117 72.1252C851.827 71.499 852.662 71.1859 853.622 71.1859C854.582 71.1859 855.417 71.499 856.127 72.1252C856.837 72.7514 857.192 73.6281 857.192 74.7553V76.1957C858.736 73.2733 861.241 71.666 864.706 71.3737ZM887.297 104.626C883.999 104.626 881.014 103.896 878.342 102.434C875.712 100.973 873.646 98.9693 872.143 96.4227C870.64 93.8343 869.888 90.9328 869.888 87.7182C869.888 84.5453 870.64 81.6647 872.143 79.0763C873.646 76.4879 875.712 74.4631 878.342 73.0019C881.014 71.5407 883.999 70.8101 887.297 70.8101C890.595 70.8101 893.56 71.5407 896.19 73.0019C898.862 74.4631 900.949 76.4879 902.452 79.0763C903.955 81.6647 904.706 84.5453 904.706 87.7182C904.706 90.9328 903.955 93.8343 902.452 96.4227C900.949 98.9693 898.862 100.973 896.19 102.434C893.56 103.896 890.595 104.626 887.297 104.626ZM887.297 98.1761C889.259 98.1761 891.034 97.7169 892.62 96.7984C894.248 95.88 895.501 94.6275 896.378 93.0411C897.296 91.4546 897.755 89.6803 897.755 87.7182C897.755 85.756 897.296 83.9817 896.378 82.3953C895.501 80.8088 894.248 79.5564 892.62 78.6379C891.034 77.7195 889.259 77.2602 887.297 77.2602C885.335 77.2602 883.561 77.7195 881.974 78.6379C880.388 79.5564 879.136 80.8088 878.217 82.3953C877.299 83.9817 876.839 85.756 876.839 87.7182C876.839 89.6803 877.299 91.4546 878.217 93.0411C879.136 94.6275 880.388 95.88 881.974 96.7984C883.561 97.7169 885.335 98.1761 887.297 98.1761ZM929.886 70.8727C933.101 70.8727 935.919 71.6242 938.34 73.1272C940.762 74.6301 942.62 76.6758 943.914 79.2642C945.208 81.8525 945.855 84.7123 945.855 87.8434C945.855 91.0163 945.187 93.8969 943.851 96.4853C942.515 99.032 940.595 101.036 938.09 102.497C935.627 103.958 932.767 104.689 929.511 104.689C927.048 104.689 924.751 104.104 922.622 102.935C920.493 101.766 918.823 100.159 917.612 98.1135V115.397C917.612 116.483 917.258 117.339 916.548 117.965C915.838 118.633 915.003 118.967 914.043 118.967C913.083 118.967 912.248 118.633 911.538 117.965C910.828 117.339 910.473 116.483 910.473 115.397V74.7553C910.473 73.6281 910.828 72.7514 911.538 72.1252C912.248 71.499 913.083 71.1859 914.043 71.1859C915.003 71.1859 915.838 71.499 916.548 72.1252C917.258 72.7514 917.612 73.6281 917.612 74.7553V78.1369C918.573 75.8825 920.117 74.1082 922.246 72.814C924.417 71.5198 926.964 70.8727 929.886 70.8727ZM928.07 98.1761C930.074 98.1761 931.869 97.7378 933.456 96.861C935.084 95.9426 936.357 94.711 937.276 93.1663C938.194 91.5799 938.654 89.7847 938.654 87.7808C938.654 85.7769 938.194 83.9817 937.276 82.3953C936.357 80.8088 935.084 79.5773 933.456 78.7006C931.869 77.7821 930.074 77.3229 928.07 77.3229C926.066 77.3229 924.271 77.7821 922.685 78.7006C921.14 79.619 919.909 80.8715 918.99 82.4579C918.113 84.0443 917.675 85.8186 917.675 87.7808C917.675 89.743 918.113 91.5173 918.99 93.1037C919.909 94.6484 921.14 95.88 922.685 96.7984C924.271 97.7169 926.066 98.1761 928.07 98.1761ZM995.139 89.1585C995.932 89.1585 996.6 89.4507 997.143 90.0352C997.727 90.6197 998.02 91.3085 998.02 92.1017C998.02 92.895 997.727 93.5838 997.143 94.1683C996.6 94.7528 995.932 95.045 995.139 95.045H991.131V100.806C991.131 101.766 990.776 102.601 990.067 103.311C989.357 104.021 988.522 104.376 987.562 104.376C986.601 104.376 985.766 104.021 985.057 103.311C984.389 102.56 984.055 101.704 984.055 100.744V95.045H966.333C965.247 95.045 964.391 94.6901 963.765 93.9804C963.181 93.2707 962.888 92.4357 962.888 91.4755C962.888 90.7241 963.076 90.077 963.452 89.5342L983.303 61.1037C983.679 60.5609 984.18 60.1226 984.806 59.7886C985.474 59.4129 986.163 59.225 986.873 59.225C988.042 59.225 989.044 59.6425 989.879 60.4774C990.714 61.2706 991.131 62.2517 991.131 63.4207V89.1585H995.139ZM970.841 89.1585H984.055V76.3835C984.055 72.7514 984.389 69.996 985.057 68.1174L970.841 89.1585Z" fill="#FFEED8"/>
<path d="M428.197 926.145C420.408 926.145 413.428 924.345 407.256 920.745C401.157 917.071 396.381 912.184 392.927 906.086C389.548 899.914 387.858 893.154 387.858 885.806C387.858 878.532 389.548 871.845 392.927 865.747C396.307 859.648 401.047 854.799 407.145 851.198C413.244 847.524 420.188 845.687 427.976 845.687C433.193 845.687 437.859 846.349 441.974 847.671C446.162 848.92 449.689 850.61 452.554 852.741C454.244 853.99 455.493 855.386 456.302 856.929C457.11 858.399 457.514 859.905 457.514 861.448C457.514 863.653 456.706 865.563 455.089 867.18C453.546 868.796 451.562 869.604 449.138 869.604C446.786 869.604 444.398 868.759 441.974 867.069C440.284 865.894 438.263 864.939 435.912 864.204C433.56 863.395 431.025 862.991 428.307 862.991C424.045 862.991 420.261 863.983 416.955 865.967C413.648 867.951 411.076 870.706 409.239 874.233C407.476 877.76 406.594 881.728 406.594 886.137C406.594 890.472 407.439 894.366 409.129 897.82C410.819 901.2 413.281 903.881 416.514 905.865C419.747 907.849 423.531 908.841 427.866 908.841C432.495 908.841 436.463 907.739 439.769 905.535C443.076 903.257 445.464 900.134 446.933 896.166H426.433C423.861 896.166 421.841 895.358 420.371 893.742C418.975 892.125 418.277 890.178 418.277 887.9C418.277 885.696 418.975 883.785 420.371 882.169C421.841 880.479 423.861 879.634 426.433 879.634H457.073C460.086 879.634 462.364 880.479 463.907 882.169C465.523 883.859 466.331 886.357 466.331 889.664C466.331 890.325 466.258 891.464 466.111 893.08C465.45 898.15 463.613 903.22 460.6 908.29C457.588 913.36 453.326 917.622 447.815 921.075C442.378 924.455 435.838 926.145 428.197 926.145ZM498.991 891.868H498.88C497.999 891.758 497.337 890.986 497.448 890.104L499.542 871.809C499.652 870.927 500.534 870.266 501.415 870.376C502.297 870.486 502.848 871.368 502.738 872.25L500.644 890.435C500.534 891.317 499.872 891.868 498.991 891.868ZM511.445 834.445C511.225 834.445 511.004 834.445 511.004 834.445C497.558 835.437 477.278 861.228 471.437 884.704C468.791 895.726 468.13 910.605 480.805 918.43C484.552 920.634 488.189 921.847 491.716 921.847C498.219 921.847 504.391 918.21 510.233 910.935C523.459 894.513 530.182 864.865 526.985 850.317C523.789 835.548 514.311 834.445 511.445 834.445ZM530.953 858.473C530.953 874.895 524.23 898.701 512.768 913.029C506.375 920.855 499.101 925.043 491.716 925.043C487.528 925.043 483.34 923.72 479.152 921.185C468.02 914.242 464.162 901.016 468.351 883.932C474.523 858.913 495.905 832.351 510.673 831.249C510.673 831.249 511.004 831.249 511.445 831.249C513.87 831.249 526.324 832.131 530.072 849.655C530.623 852.19 530.953 855.166 530.953 858.473ZM557.005 891.868H556.894C556.013 891.758 555.351 890.986 555.462 890.104L557.556 871.809C557.666 870.927 558.548 870.266 559.429 870.376C560.311 870.486 560.862 871.368 560.752 872.25L558.658 890.435C558.548 891.317 557.886 891.868 557.005 891.868ZM569.459 834.445C569.239 834.445 569.018 834.445 569.018 834.445C555.572 835.437 535.292 861.228 529.451 884.704C526.805 895.726 526.144 910.605 538.819 918.43C542.566 920.634 546.203 921.847 549.73 921.847C556.233 921.847 562.405 918.21 568.247 910.935C581.473 894.513 588.196 864.865 585 850.317C581.803 835.548 572.325 834.445 569.459 834.445ZM588.967 858.473C588.967 874.895 582.244 898.701 570.782 913.029C564.389 920.855 557.115 925.043 549.73 925.043C545.542 925.043 541.354 923.72 537.166 921.185C526.034 914.242 522.176 901.016 526.365 883.932C532.537 858.913 553.919 832.351 568.688 831.249C568.688 831.249 569.018 831.249 569.459 831.249C571.884 831.249 584.338 832.131 588.086 849.655C588.637 852.19 588.967 855.166 588.967 858.473ZM602.454 925.043C599.295 925.043 596.87 924.198 595.18 922.508C593.49 920.818 592.645 918.393 592.645 915.234V856.599C592.645 853.366 593.49 850.941 595.18 849.325C596.87 847.635 599.295 846.79 602.454 846.79H620.53C628.833 846.79 636.033 848.516 642.132 851.97C648.304 855.35 653.007 860.016 656.24 865.967C659.473 871.919 661.089 878.569 661.089 885.916C661.089 893.264 659.473 899.914 656.24 905.865C653.007 911.817 648.304 916.52 642.132 919.973C636.033 923.353 628.833 925.043 620.53 925.043H602.454ZM620.53 908.07C627.216 908.07 632.506 906.27 636.401 902.669C640.368 898.995 642.352 893.411 642.352 885.916C642.352 878.422 640.368 872.874 636.401 869.274C632.506 865.6 627.216 863.763 620.53 863.763H611.382V908.07H620.53Z" fill="#FFEED8"/>
<path d="M514.055 929.894C514.236 931.495 516.754 935.219 517.928 936.085C520.456 937.95 521.311 936.907 523.913 936.907C527.8 936.907 529.589 932.137 530.955 929.115" stroke="#FFEED8" stroke-width="2.20432" stroke-linecap="round"/>
<path d="M571.522 817.992C572.716 819.319 573.489 820.334 575.119 821.328C576.692 822.287 578.838 822.954 580.701 822.954" stroke="#FFEED8" stroke-width="2.20432" stroke-linecap="round"/>
<path d="M510.739 817C509.934 817 509.132 817.619 508.451 817.992C507.111 818.727 505.693 819.395 504.261 819.922C503.032 820.374 501.627 820.721 500.319 820.721" stroke="#FFEED8" stroke-width="2.20432" stroke-linecap="round"/>
<path d="M423.223 949.186C427.996 949.186 432.149 950.333 435.682 952.626C439.215 954.92 441.881 958.019 443.678 961.924C445.538 965.829 446.467 970.106 446.467 974.755C446.467 979.59 445.507 983.929 443.585 987.772C441.664 991.553 438.874 994.56 435.217 996.791C431.622 998.96 427.345 1000.05 422.386 1000.05C419.597 1000.05 416.838 999.487 414.111 998.372C411.384 997.194 409.152 995.489 407.417 993.258C407.169 995.303 406.301 996.915 404.813 998.093C403.388 999.208 401.714 999.766 399.793 999.766C397.747 999.766 395.949 999.084 394.4 997.721C392.85 996.357 392.075 994.467 392.075 992.049V936.262C392.075 933.845 392.85 931.954 394.4 930.591C395.949 929.227 397.747 928.545 399.793 928.545C401.9 928.545 403.698 929.227 405.185 930.591C406.735 931.954 407.51 933.845 407.51 936.262V957.275C408.563 954.734 410.485 952.75 413.274 951.325C416.126 949.899 419.442 949.186 423.223 949.186ZM419.132 986.099C422.603 986.099 425.423 985.045 427.593 982.937C429.762 980.768 430.847 977.978 430.847 974.569C430.847 971.16 429.762 968.402 427.593 966.294C425.423 964.125 422.603 963.04 419.132 963.04C415.785 963.04 413.026 964.125 410.857 966.294C408.687 968.402 407.603 971.16 407.603 974.569C407.603 977.978 408.687 980.768 410.857 982.937C413.026 985.045 415.785 986.099 419.132 986.099ZM476.793 950.023C477.165 949.961 477.692 949.93 478.373 949.93C480.419 949.93 482.031 950.519 483.208 951.697C484.386 952.874 484.975 954.3 484.975 955.974C484.975 957.833 484.262 959.507 482.836 960.994C481.473 962.482 479.427 963.35 476.7 963.598C471.493 964.094 468.89 966.883 468.89 971.966V992.049C468.89 994.467 468.115 996.357 466.565 997.721C465.078 999.084 463.28 999.766 461.173 999.766C459.127 999.766 457.329 999.084 455.78 997.721C454.23 996.357 453.455 994.467 453.455 992.049V957.089C453.455 954.672 454.23 952.781 455.78 951.418C457.329 950.054 459.127 949.372 461.173 949.372C463.032 949.372 464.675 949.899 466.1 950.953C467.526 952.007 468.394 953.494 468.704 955.416C470.687 952.378 473.384 950.581 476.793 950.023ZM537.3 971.036C537.362 971.346 537.393 971.842 537.393 972.524C537.393 974.693 536.68 976.367 535.254 977.545C533.891 978.66 532.031 979.218 529.676 979.218H502.433C502.743 981.512 503.89 983.433 505.873 984.983C507.919 986.47 510.367 987.214 513.218 987.214C516.814 987.214 519.696 986.037 521.865 983.681C523.415 982.069 525.089 981.264 526.886 981.264C528.684 981.264 530.233 981.915 531.535 983.216C532.899 984.518 533.581 986.037 533.581 987.772C533.581 989.384 532.899 990.902 531.535 992.328C529.118 994.745 526.328 996.636 523.167 998C520.068 999.301 516.721 999.952 513.125 999.952C508.043 999.952 503.518 998.898 499.551 996.791C495.584 994.683 492.484 991.739 490.253 987.958C488.021 984.115 486.906 979.714 486.906 974.755C486.906 969.858 487.99 965.457 490.16 961.552C492.329 957.647 495.336 954.61 499.179 952.44C503.022 950.209 507.392 949.093 512.289 949.093C518.921 949.093 524.469 950.953 528.932 954.672C533.457 958.391 536.246 963.846 537.3 971.036ZM512.289 961.459C509.499 961.459 507.175 962.141 505.315 963.505C503.456 964.869 502.464 966.728 502.34 969.084H522.33C522.082 966.79 521.029 964.962 519.169 963.598C517.309 962.172 515.016 961.459 512.289 961.459ZM587.88 949.465C589.988 949.465 591.817 950.147 593.366 951.511C594.916 952.812 595.691 954.703 595.691 957.182V991.956C595.691 994.374 594.916 996.264 593.366 997.628C591.817 998.991 589.988 999.673 587.88 999.673C585.773 999.673 583.944 998.991 582.395 997.628C580.845 996.264 580.07 994.374 580.07 991.956V991.863C579.017 994.405 577.064 996.388 574.213 997.814C571.423 999.239 568.138 999.952 564.357 999.952C559.584 999.952 555.431 998.806 551.898 996.512C548.365 994.219 545.668 991.119 543.809 987.214C542.011 983.309 541.113 979.032 541.113 974.383C541.113 969.548 542.073 965.24 543.995 961.459C545.916 957.616 548.675 954.61 552.27 952.44C555.927 950.209 560.235 949.093 565.194 949.093C567.983 949.093 570.742 949.682 573.469 950.86C576.196 951.976 578.428 953.649 580.163 955.881C580.473 953.835 581.341 952.255 582.767 951.139C584.254 950.023 585.959 949.465 587.88 949.465ZM568.448 986.099C571.795 986.099 574.554 985.045 576.723 982.937C578.893 980.768 579.977 977.978 579.977 974.569C579.977 971.16 578.893 968.402 576.723 966.294C574.554 964.125 571.795 963.04 568.448 963.04C564.977 963.04 562.157 964.125 559.987 966.294C557.818 968.402 556.733 971.16 556.733 974.569C556.733 977.978 557.818 980.768 559.987 982.937C562.157 985.045 564.977 986.099 568.448 986.099ZM649.349 928.545C651.457 928.545 653.254 929.227 654.742 930.591C656.291 931.954 657.066 933.845 657.066 936.262V992.049C657.066 994.467 656.291 996.357 654.742 997.721C653.254 999.084 651.457 999.766 649.349 999.766C647.304 999.766 645.506 999.084 643.956 997.721C642.407 996.357 641.632 994.467 641.632 992.049V991.863C640.578 994.405 638.626 996.388 635.774 997.814C632.985 999.239 629.7 999.952 625.919 999.952C621.146 999.952 616.993 998.806 613.46 996.512C609.926 994.219 607.23 991.119 605.371 987.214C603.573 983.309 602.674 979.032 602.674 974.383C602.674 969.548 603.635 965.24 605.556 961.459C607.478 957.616 610.236 954.61 613.832 952.44C617.489 950.209 621.797 949.093 626.755 949.093C629.545 949.093 632.272 949.651 634.938 950.767C637.665 951.883 639.896 953.525 641.632 955.695V936.262C641.632 933.845 642.407 931.954 643.956 930.591C645.506 929.227 647.304 928.545 649.349 928.545ZM630.01 986.099C633.357 986.099 636.115 985.045 638.285 982.937C640.454 980.768 641.539 977.978 641.539 974.569C641.539 971.16 640.454 968.402 638.285 966.294C636.115 964.125 633.357 963.04 630.01 963.04C626.539 963.04 623.718 964.125 621.549 966.294C619.379 968.402 618.294 971.16 618.294 974.569C618.294 977.978 619.379 980.768 621.549 982.937C623.718 985.045 626.539 986.099 630.01 986.099Z" fill="#FFEED8"/>
<path d="M211.219 669.61C212.888 671.536 215.122 673.208 215.988 675.645C217.98 683.908 243.002 678.848 249.697 679.945C262.895 682.108 282.211 672.369 294.451 668.188C317.2 660.417 341.139 654.945 364.186 648.09C383.561 642.327 403.207 636.646 422.628 631.238L422.892 631.165C440.599 626.234 462.666 620.09 477.602 609.16C489.08 600.761 490.083 589.442 489.452 577.118C488.517 558.861 481.633 540.085 477.372 522.406L469.293 488.88C466.625 477.808 465.579 463.837 458.809 454.213C453.782 447.068 448.972 440.697 442.625 434.54C437.03 429.113 426.647 425.623 419.508 422.449C409.638 418.063 397.16 418.163 386.759 414.925C379.492 412.663 372.629 411.301 364.78 412.139C339.71 414.817 315.402 420.831 290.747 425.864C269.778 430.144 249.55 435.105 229.01 441.489C214.436 446.019 200.728 450.884 189.794 461.491C178.687 472.265 174.216 488.909 170.026 502.924C162.056 529.586 159.107 557.499 165.582 584.369C169.63 601.168 173.305 617.858 183.107 632.531C191.637 645.3 201.119 657.951 211.219 669.61Z" fill="#94D2FF"/>
<path d="M256.94 443.266C252.202 444.921 248.702 448.527 245.456 452.174C237.94 460.618 229.952 468.735 224.446 478.731C221.427 484.211 210.998 510.861 219.79 515.351C224.192 517.599 237.848 506.5 240.702 504.545C251.141 497.392 259.509 489.637 264.731 478.085C270.774 464.717 272.673 452.433 283.059 441.016C286.059 437.717 291.624 429.468 291.467 438.615C291.118 458.871 288.117 476.411 280.322 494.923C274.947 507.687 289.365 509.786 296.978 502.817C313.543 487.651 310.649 471.973 312.572 452.851C313.714 441.489 319.25 434.362 325.431 425.413C328.25 421.332 328.683 427.719 329.207 429.895C330.73 436.213 333.413 443.039 332.607 449.596C332.007 454.472 328.053 479.533 334.481 482.546C346.982 488.404 360.254 461.371 358.704 451.919C356.96 441.281 353.224 431.237 350.013 421.137C346.684 410.665 339.68 412.543 330.926 414.653C307.113 420.391 284.269 431.288 260.808 436.942" stroke="#0033E6" stroke-width="2.3607" stroke-linecap="round"/>
<path d="M547.925 352.371C465.226 340.811 384.217 321.553 300.847 314.003C296.114 314.104 296.889 315.365 291.445 314.604C285.734 313.806 280.61 311.175 275.182 310.416C255.571 307.675 244.055 288.111 222.861 290.124C217.885 290.597 205.6 291.328 201.797 295.371C195.363 302.211 195.135 297.577 199.761 304.554C205.046 312.525 214.369 320.281 221.124 326.795C228.564 333.969 232.586 341.889 238.945 350.136C248.06 361.956 257.639 373.341 268.325 383.71C282.046 397.023 293.085 413.167 308.593 424.231C345.441 450.519 389.633 464.802 431.114 479.654C457.461 489.087 486.13 493.821 513.536 498.728C541.834 503.795 569.983 508.64 598.471 512.622C631.645 517.259 665.21 521.936 698.818 521.968C725.115 521.994 751.384 526.853 777.723 527.147C798.77 527.382 818.617 528.076 839.404 530.982C858.131 533.6 877.453 547.859 897.186 543.846C905.182 542.22 905.866 533.963 909.374 527.359C910.83 524.617 897.687 517.764 895.73 515.878C882.916 503.521 869.666 492.74 862.498 474.851C860.346 469.479 854.202 461.542 850.682 457.029C843.572 447.914 835.113 439.557 825.349 434.234C813.234 427.628 801.006 421.877 789.083 414.909C759.481 397.612 725.341 393.373 693.64 383.271C647.262 368.492 596.042 359.097 547.925 352.371Z" fill="#0033E6" stroke="#94D2FF" stroke-width="4.69858" stroke-linecap="round"/>
<path d="M462.445 414.749C446.302 399.789 434.49 381.843 424.219 365.146C428.629 363.436 455.224 385.453 460.777 389.861C480.929 405.859 503.353 419.915 523.566 435.794C524.709 436.692 548.144 455.664 536.535 453.49C521.6 450.692 504.487 440.633 490.519 433.215C480.327 427.802 470.582 422.29 462.445 414.749Z" fill="#0033E6"/>
<path d="M419.665 357.687C431.023 376.358 443.866 397.532 462.445 414.749C470.582 422.29 480.327 427.802 490.519 433.215C504.487 440.633 521.6 450.692 536.535 453.49C548.144 455.664 524.709 436.692 523.566 435.794C503.353 419.915 480.929 405.859 460.777 389.861C455.218 385.448 428.575 363.391 424.206 365.151" stroke="#94D2FF" stroke-width="4.69858" stroke-linecap="round"/>
<path d="M389.893 379.171C406.549 395.457 418.206 418.274 428.258 439.814C423.267 444.391 395.625 421.651 389.839 417.197C368.842 401.034 345.193 388.88 324.12 372.928C322.928 372.026 298.539 352.656 311.17 351.004C327.42 348.879 345.518 357.114 360.351 362.602C371.174 366.607 381.497 370.961 389.893 379.171Z" fill="#0033E6"/>
<path d="M432.711 449.452C421.61 425.309 409.063 397.915 389.893 379.171C381.497 370.961 371.174 366.607 360.351 362.602C345.518 357.114 327.42 348.879 311.17 351.004C298.539 352.656 322.928 372.026 324.12 372.928C345.193 388.88 368.842 401.034 389.839 417.197C395.631 421.656 423.323 444.437 428.273 439.8" stroke="#94D2FF" stroke-width="4.69858" stroke-linecap="round"/>
<path d="M547.101 406.168C546.82 411.812 559.284 421.544 562.957 425.102C573.943 435.742 585.346 445.689 597.873 454.472C608.583 461.981 619.773 466.397 632.565 468.92C638.741 470.139 652.022 472.58 655.364 465.237C659.649 455.821 651.254 445.077 644.048 439.761C632.29 431.086 616.61 427.885 602.771 424.078C586.002 419.466 569.917 412.444 553.137 407.828" stroke="#94D2FF" stroke-width="4.69858" stroke-linecap="round"/>
<path d="M696.697 438.231C696.061 442.611 716.842 451.564 720.423 453.992C732.7 462.316 742.329 473.425 754.115 482.304C758.886 485.898 779.343 495.259 784.283 487.5C788.507 480.865 783.191 473.005 777.948 469.094C756.079 452.778 725.08 454.86 702.733 439.892" stroke="#94D2FF" stroke-width="4.69858" stroke-linecap="round"/>
<path d="M546.751 469.753C550.479 468.798 559.135 465.347 562.768 466.986C573.074 465.996 591.756 473.151 597.741 474.08C607.402 475.58 618.753 472.412 628.362 474.929C635.942 476.915 643.488 478.086 650.636 481.784C660.716 486.998 669.685 493.82 679.245 499.726C680.969 500.791 691.68 507.994 690.348 510.558C688.592 513.939 685.782 516.547 682.174 517.968C680.18 518.754 675.744 520.788 673.583 521.779C677.298 520.439 682.682 521.982 686.394 521.236C691.662 520.177 699.764 523.701 704.356 525.478C710.685 527.928 716.84 530.902 723.186 533.252C731.365 536.281 775.543 558.859 764.303 570.847C760.612 574.784 762.984 573.384 767.239 574.183C771.726 575.026 775.939 577.266 780.603 577.597C792.983 578.476 806.243 580.231 817.212 586.725C827.813 593.001 837.417 600.312 847.651 606.874C856.292 612.415 861.23 620.804 865.767 629.847C874.686 647.626 885.04 665.66 873.794 684.658C868.768 693.147 862.103 700.808 857.042 709.357C855.134 712.58 853.122 715.594 852.053 719.185C851.67 720.47 848.278 727.43 851.283 724.883C852.745 723.644 853.978 723.174 855.705 722.411C863.124 719.133 864.337 731.219 861.522 735.974C853.029 750.321 844.681 765.604 834.646 779.176C824.45 792.964 814.745 807.795 805.997 822.572C802.103 829.151 801.283 832.619 801.174 839.716C801.148 841.368 802.51 841.864 800.17 841.312C796.753 840.506 793.344 838.554 789.831 838.386C783.59 838.089 777.151 835.909 770.862 835.145C765.43 834.486 758.801 831.389 753.813 829.059L753.675 828.994C744.18 824.559 735.28 818.806 725.921 814.103C719.934 811.095 710.951 808.208 706.217 803.208C697.773 794.288 683.091 789.403 673.02 781.722C650.604 764.624 626.283 749.386 605.492 730.267C591.164 717.092 578.443 702.292 564.985 688.241C553.89 676.656 541.097 666.941 528.352 657.264C516.567 648.317 504.793 639.373 493.001 630.42C484.739 624.147 475.419 619.312 467.588 612.476C461.797 607.422 456.506 603.174 454.599 595.734C453.12 589.963 455.317 582.181 458.105 577.218C460.273 573.357 462.454 568.882 465.67 565.838C468.315 563.334 472.563 559.991 474.411 556.87C477.8 551.145 477.633 546.029 481.149 540.09C485.187 533.269 489.926 527.063 493.973 520.226C497.009 515.098 499.212 509.577 502.185 504.555C505.231 499.409 501.959 492.343 505.042 487.134C510.1 478.589 515.004 475.214 524.763 472.713C531.944 470.872 539.572 471.594 546.751 469.753Z" fill="#94D2FF"/>
<path d="M562.768 466.986C559.135 465.347 550.479 468.798 546.751 469.753C539.572 471.594 531.944 470.872 524.763 472.713C515.004 475.214 510.1 478.589 505.042 487.134C501.959 492.343 505.231 499.409 502.185 504.555C499.212 509.577 497.009 515.098 493.973 520.226C489.926 527.063 485.187 533.269 481.149 540.09C477.633 546.029 477.8 551.145 474.411 556.87C472.563 559.991 468.315 563.334 465.67 565.838C462.454 568.882 460.273 573.357 458.105 577.218C455.317 582.181 453.12 589.963 454.599 595.734C456.506 603.174 461.797 607.422 467.588 612.476C475.419 619.312 484.739 624.147 493.001 630.42C504.793 639.373 516.567 648.317 528.352 657.264C541.097 666.941 553.89 676.656 564.985 688.241C578.443 702.292 591.164 717.092 605.492 730.267C626.283 749.386 650.604 764.624 673.02 781.722C683.091 789.403 697.773 794.288 706.217 803.208C710.951 808.208 719.934 811.095 725.921 814.103C735.28 818.806 744.18 824.559 753.675 828.994C758.678 831.331 765.38 834.48 770.862 835.145C777.151 835.909 783.59 838.089 789.831 838.386C793.344 838.554 796.753 840.506 800.17 841.312C802.51 841.864 801.148 841.368 801.174 839.716C801.283 832.619 802.103 829.151 805.997 822.572C814.745 807.795 824.45 792.964 834.646 779.176C844.681 765.604 853.029 750.321 861.522 735.974C864.337 731.219 863.124 719.133 855.705 722.411C853.978 723.174 852.745 723.644 851.283 724.883C848.278 727.43 851.67 720.47 852.053 719.185C853.122 715.594 855.134 712.58 857.042 709.357C862.103 700.808 868.768 693.147 873.794 684.658C885.04 665.66 874.686 647.626 865.767 629.847C861.23 620.804 856.292 612.415 847.651 606.874C837.417 600.312 827.813 593.001 817.212 586.725C806.243 580.231 792.984 578.476 780.603 577.597C775.939 577.266 771.726 575.026 767.239 574.183C762.984 573.384 760.612 574.784 764.303 570.847C775.543 558.859 731.365 536.281 723.186 533.252C716.84 530.902 710.685 527.928 704.356 525.478C699.764 523.701 691.662 520.177 686.394 521.236C682.468 522.024 676.672 520.254 672.959 522.04C669.933 523.495 679.05 519.199 682.174 517.968C685.782 516.547 688.592 513.939 690.348 510.558C691.68 507.994 680.969 500.791 679.245 499.726C669.685 493.82 660.716 486.998 650.636 481.784C643.488 478.086 635.942 476.915 628.362 474.929C618.753 472.412 607.402 475.58 597.741 474.08C591.756 473.151 573.074 465.996 562.768 466.986Z" stroke="#0033E6" stroke-width="2.67699" stroke-linecap="round"/>
<path d="M488.109 554.297C499.843 554.908 512.528 556.62 523.123 550.502C529.311 546.928 534.354 542.359 539.798 537.846C544.127 534.256 548.484 531.247 553.984 529.769C560.122 528.12 566.295 527.067 572.346 525.038C577.609 523.274 582.933 521.694 588.223 520.011C594.305 518.075 600.125 515.278 606.342 513.884C607.978 513.517 609.603 513.28 611.273 513.398C617.777 513.86 624.29 515.013 630.763 515.818C635.146 516.363 639.474 517.281 643.837 517.949C646.513 518.359 649.268 518.292 651.967 518.405C654.27 518.502 655.32 517.554 657.168 516.605C657.658 516.354 659.722 514.876 659.446 514.145C659.22 513.547 658.496 513.034 658.049 512.561C655.956 510.351 653.336 508.713 650.77 507.118C646.275 504.323 641.67 501.692 636.971 499.249C632.28 496.81 627.257 495.476 622.105 494.44C617.453 493.504 612.399 493.764 607.716 494.309C604.103 494.73 600.48 495.124 596.989 496.19C593.511 497.252 589.536 498.592 586.982 501.328C582.849 505.755 578.747 510.387 574.119 514.309C569.623 518.119 564.537 521.19 560.002 524.958C558.006 526.615 554.565 527.708 553.247 529.933" stroke="#0033E6" stroke-width="2.41441" stroke-linecap="round"/>
<path d="M579.331 569.556C589.473 568.177 599.865 569.118 610.062 568.939C617.803 568.803 625.234 568.347 632.815 566.729C638.742 565.464 644.358 563.307 650.113 561.46C660.471 558.134 671.013 556.949 681.858 556.994C691.468 557.035 700.906 558.443 710.411 559.705C717 560.58 723.634 560.635 730.227 561.509C732.886 561.862 735.611 562.344 738.3 562.349C739.389 562.351 740.86 562.295 741.653 561.399C743.47 559.347 741.997 557.461 740.527 555.567C735.264 548.787 727.232 544.468 719.83 540.445C713.591 537.055 706.946 534.608 699.982 533.209C692.02 531.609 683.546 531.603 675.462 532.103C665.773 532.701 655.51 533.935 646.284 537.057C641.408 538.708 637.12 541.065 632.935 544.051C628.753 547.035 624.55 549.897 620.615 553.206C616.38 556.768 612.411 560.27 607.48 562.857C602.786 565.321 597.886 568.106 592.528 568.681C590.167 568.934 587.612 568.754 585.259 568.487C584.05 568.349 582.794 568.343 581.609 568.087" stroke="#0033E6" stroke-width="2.41441" stroke-linecap="round"/>
<path d="M575.777 578.726C570.559 575.637 563.265 579.141 559.094 582.559C553.625 587.041 552.005 593.294 552.216 600.127C552.307 603.084 552.417 606.859 554.332 609.311C557.228 613.019 563.11 614.784 567.222 616.446C574.101 619.226 581.835 620.978 589.273 620.004C596.375 619.074 603 616.293 609.046 612.56C619.587 606.051 630.136 599.398 641.977 595.492C651.907 592.216 662.393 590.432 672.717 588.932C683.621 587.349 694.511 586.86 705.513 586.681C711.914 586.576 718.232 586.847 724.618 587.151C726.464 587.239 728.423 587.455 730.179 586.791C732.308 585.985 734.651 585.452 735.778 583.283C737.419 580.122 735.757 577.063 732.655 575.799C727.442 573.676 721.589 572.387 716.115 571.173C712.724 570.421 709.293 569.958 705.85 569.519C702.049 569.033 698.192 568.461 694.35 568.541C688.012 568.673 681.673 569.608 675.59 571.367C670.858 572.735 666.257 574.509 661.558 575.987C651.04 579.295 639.645 580.367 628.663 580.567C618.478 580.753 608.18 580.351 598.016 579.63C590.798 579.118 583.621 578.598 576.504 577.278C574.905 576.981 573.317 576.564 571.768 576.066C571.58 576.005 570.76 575.652 570.577 575.7C570.487 575.722 571.34 577.039 571.54 577.157" stroke="#0033E6" stroke-width="2.41441" stroke-linecap="round"/>
<path d="M584.384 680.791C588.232 681.064 591.852 680.663 595.537 679.489C599.248 678.307 602.82 676.607 606.337 674.952C610.261 673.104 614.208 671.261 618.019 669.188C622.446 666.781 626.832 664.216 630.994 661.373C635.356 658.392 639.225 654.883 643.166 651.387C650.299 645.059 658.529 640.133 666.105 634.364C671.218 630.471 676.622 627.084 682.178 623.87C686.67 621.272 690.441 617.691 694.901 615.07C698.681 612.849 702.781 611.024 707.152 610.505C713.811 609.715 720.237 611.197 726.745 612.464C734.583 613.991 742.39 615.925 750.343 616.781C756.659 617.461 762.978 617.856 769.293 618.594C776.897 619.482 784.376 621.042 791.459 624.007C795.662 625.767 800.142 627.776 802.802 631.661C805.289 635.293 805.163 640.121 804.363 644.273C803.457 648.976 801.604 652.792 798.549 656.496C795.054 660.732 790.971 664.221 786.293 667.086C783.57 668.752 780.729 670.394 777.604 671.164C772.687 672.376 767.566 671.099 762.787 669.841C753.977 667.522 745.91 663.137 737.217 660.548C730.957 658.683 724.52 659.53 718.123 659.706C713.808 659.825 709.507 659.781 705.205 660.198C700.964 660.609 696.759 661.283 692.524 661.744C684.179 662.652 675.783 662.721 667.434 661.865C655.382 660.631 643.608 661.13 632.56 666.526C629.493 668.025 626.413 669.541 623.104 670.425C620.208 671.198 617.342 671.846 614.421 672.511C611.419 673.195 608.515 674.495 605.609 675.499C602.813 676.465 600.017 677.473 597.206 678.39C594.967 679.12 592.688 680.094 590.351 680.45C589.534 680.574 588.437 680.882 587.651 680.626C586.942 680.394 584.9 680.338 586.772 680.327" stroke="#0033E6" stroke-width="2.41441" stroke-linecap="round"/>
<path d="M653.37 698.447C654.355 698.655 655.323 698.606 656.297 698.607C660.534 698.61 664.787 698.703 669.037 698.777C686.012 699.07 703.169 700.031 719.98 699.532C726.271 699.346 732.632 699.328 738.867 698.948C745.878 698.522 752.731 697.635 759.671 697.014C765.535 696.489 771.479 696.19 777.393 695.805C783.327 695.419 789.202 694.797 795.197 694.602C802.962 694.35 812.252 694.584 820.04 696.849C824.513 698.15 828.168 700.546 829.036 703.948C829.428 705.489 828.413 707.056 827.461 708.25C825.19 711.099 821.284 713.802 817.368 715.467C806.04 720.282 791.71 720.739 777.806 719.343C771 718.66 764.236 717.33 757.451 716.324C751.508 715.443 745.557 714.804 739.611 713.997C725.963 712.147 712.528 709.323 698.949 706.948C688.461 705.114 678.013 703.657 667.589 701.453C662.501 700.378 657.172 699.457 652.182 698.402" stroke="#0033E6" stroke-width="2.41441" stroke-linecap="round"/>
<path d="M646.996 727.93C647.501 728.229 648.098 728.295 648.679 728.405C651.206 728.886 653.708 729.45 656.215 729.996C666.229 732.177 676.088 734.981 686.316 736.428C690.144 736.97 693.947 737.671 697.818 738.032C702.17 738.438 706.609 738.411 710.995 738.633C714.702 738.82 718.367 739.221 722.047 739.54C725.741 739.861 729.492 739.962 733.147 740.463C737.88 741.111 743.331 742.371 747.085 745.297C749.241 746.977 750.477 749.554 749.652 752.725C749.279 754.161 748.055 755.462 747.015 756.434C744.536 758.751 741.139 760.752 738.146 761.814C729.486 764.886 720.754 763.682 713.008 760.851C709.217 759.466 705.705 757.501 702.052 755.827C698.853 754.36 695.555 753.111 692.325 751.712C684.91 748.5 678.007 744.432 670.841 740.754C665.306 737.914 659.645 735.419 654.295 732.251C651.683 730.705 648.866 729.272 646.304 727.756" stroke="#0033E6" stroke-width="2.41441" stroke-linecap="round"/>
</svg>
