<svg width="1049" height="1186" viewbox="0 0 1049 1186" fill="none" xmlns="http://www.w3.org/2000/svg">
  <rect width="1049" height="1186" fill="#C8B5FF"/>
  <path d="M94.1957 109.996C91.1064 111.708 87.4952 112.564 83.3621 112.564C79.4795 112.564 75.7848 111.75 72.2779 110.121C68.8128 108.451 65.9739 105.905 63.7613 102.481C61.5904 99.0163 60.5049 94.7788 60.5049 89.769C60.5049 84.7175 61.5904 80.5009 63.7613 77.1193C65.9739 73.696 68.8128 71.1702 72.2779 69.542C75.7848 67.9138 79.4795 67.0997 83.3621 67.0997C87.4534 67.0997 91.1064 67.9347 94.321 69.6046C94.9472 69.9386 95.4064 70.3979 95.6987 70.9823C96.0327 71.5251 96.1997 72.1095 96.1997 72.7358C96.1997 73.5707 95.9492 74.2804 95.4482 74.8649C94.989 75.4076 94.3419 75.679 93.5069 75.679C92.9642 75.679 92.4632 75.5746 92.004 75.3659C89.3738 74.2804 86.6184 73.7377 83.7378 73.7377C80.8989 73.7377 78.2688 74.3222 75.8474 75.4911C73.4677 76.6183 71.5264 78.3926 70.0235 80.814C68.5623 83.1937 67.8317 86.1787 67.8317 89.769C67.8317 93.3177 68.5623 96.3027 70.0235 98.7241C71.5264 101.145 73.4886 102.941 75.91 104.11C78.3314 105.279 80.9615 105.863 83.8004 105.863C86.5976 105.863 89.3112 105.32 91.9413 104.235C92.4006 104.026 92.9016 103.922 93.4443 103.922C94.2792 103.922 94.9263 104.214 95.3856 104.798C95.8866 105.341 96.137 106.03 96.137 106.865C96.137 107.491 95.97 108.076 95.6361 108.618C95.3438 109.161 94.8637 109.62 94.1957 109.996ZM120.332 78.8101C122.712 78.8101 124.904 79.332 126.908 80.3757C128.912 81.3776 130.498 82.9432 131.667 85.0724C132.878 87.1598 133.483 89.7899 133.483 92.9628V108.618C133.483 109.787 133.107 110.706 132.356 111.374C131.646 112.042 130.811 112.376 129.851 112.376C128.891 112.376 128.035 112.042 127.283 111.374C126.574 110.706 126.219 109.787 126.219 108.618V94.0274C126.219 90.8128 125.446 88.5166 123.902 87.1389C122.399 85.7195 120.499 85.0097 118.203 85.0097C115.573 85.0097 113.486 85.8447 111.941 87.5146C110.438 89.1846 109.666 91.4807 109.624 94.4031V108.744C109.624 109.871 109.269 110.768 108.559 111.436C107.85 112.063 107.015 112.376 106.054 112.376C105.094 112.376 104.259 112.063 103.549 111.436C102.84 110.768 102.485 109.871 102.485 108.744V68.2896C102.485 67.1624 102.84 66.2856 103.549 65.6594C104.259 64.9915 105.094 64.6575 106.054 64.6575C107.015 64.6575 107.85 64.9915 108.559 65.6594C109.269 66.2856 109.624 67.1624 109.624 68.2896V84.8219C110.668 82.8597 112.087 81.3776 113.882 80.3757C115.677 79.332 117.827 78.8101 120.332 78.8101ZM156.18 112.626C152.882 112.626 149.897 111.896 147.225 110.434C144.595 108.973 142.528 106.969 141.026 104.423C139.523 101.834 138.771 98.9328 138.771 95.7182C138.771 92.5453 139.523 89.6647 141.026 87.0763C142.528 84.4879 144.595 82.4631 147.225 81.0019C149.897 79.5407 152.882 78.8101 156.18 78.8101C159.478 78.8101 162.442 79.5407 165.073 81.0019C167.744 82.4631 169.832 84.4879 171.335 87.0763C172.838 89.6647 173.589 92.5453 173.589 95.7182C173.589 98.9328 172.838 101.834 171.335 104.423C169.832 106.969 167.744 108.973 165.073 110.434C162.442 111.896 159.478 112.626 156.18 112.626ZM156.18 106.176C158.142 106.176 159.917 105.717 161.503 104.798C163.131 103.88 164.384 102.628 165.26 101.041C166.179 99.4546 166.638 97.6803 166.638 95.7182C166.638 93.756 166.179 91.9817 165.26 90.3953C164.384 88.8088 163.131 87.5564 161.503 86.6379C159.917 85.7195 158.142 85.2602 156.18 85.2602C154.218 85.2602 152.444 85.7195 150.857 86.6379C149.271 87.5564 148.018 88.8088 147.1 90.3953C146.181 91.9817 145.722 93.756 145.722 95.7182C145.722 97.6803 146.181 99.4546 147.1 101.041C148.018 102.628 149.271 103.88 150.857 104.798C152.444 105.717 154.218 106.176 156.18 106.176ZM203.6 110.309C200.886 111.854 197.86 112.626 194.52 112.626C191.597 112.626 188.821 112 186.191 110.748C183.603 109.495 181.494 107.596 179.866 105.049C178.28 102.502 177.486 99.392 177.486 95.7182C177.486 92.0443 178.28 88.955 179.866 86.4501C181.494 83.9034 183.603 82.0247 186.191 80.814C188.779 79.5616 191.535 78.9354 194.457 78.9354C197.839 78.9354 200.886 79.7077 203.6 81.2524C204.936 82.0456 205.604 83.1102 205.604 84.4461C205.604 85.2394 205.353 85.9282 204.852 86.5127C204.393 87.0554 203.788 87.3268 203.036 87.3268C202.577 87.3268 202.076 87.1807 201.533 86.8884C199.697 85.9282 197.693 85.4481 195.522 85.4481C193.601 85.4481 191.806 85.8447 190.136 86.6379C188.508 87.3894 187.172 88.5375 186.128 90.0822C185.126 91.6268 184.625 93.5264 184.625 95.7808C184.625 97.91 185.106 99.7469 186.066 101.292C187.068 102.836 188.383 104.026 190.011 104.861C191.681 105.654 193.476 106.051 195.396 106.051C197.567 106.051 199.592 105.571 201.471 104.611C201.972 104.36 202.431 104.235 202.849 104.235C203.6 104.235 204.226 104.548 204.727 105.174C205.228 105.759 205.479 106.447 205.479 107.241C205.479 107.825 205.312 108.389 204.978 108.932C204.685 109.474 204.226 109.933 203.6 110.309ZM227.242 112.626C223.944 112.626 220.959 111.896 218.287 110.434C215.657 108.973 213.59 106.969 212.087 104.423C210.584 101.834 209.833 98.9328 209.833 95.7182C209.833 92.5453 210.584 89.6647 212.087 87.0763C213.59 84.4879 215.657 82.4631 218.287 81.0019C220.959 79.5407 223.944 78.8101 227.242 78.8101C230.54 78.8101 233.504 79.5407 236.134 81.0019C238.806 82.4631 240.894 84.4879 242.397 87.0763C243.899 89.6647 244.651 92.5453 244.651 95.7182C244.651 98.9328 243.899 101.834 242.397 104.423C240.894 106.969 238.806 108.973 236.134 110.434C233.504 111.896 230.54 112.626 227.242 112.626ZM227.242 106.176C229.204 106.176 230.978 105.717 232.565 104.798C234.193 103.88 235.445 102.628 236.322 101.041C237.241 99.4546 237.7 97.6803 237.7 95.7182C237.7 93.756 237.241 91.9817 236.322 90.3953C235.445 88.8088 234.193 87.5564 232.565 86.6379C230.978 85.7195 229.204 85.2602 227.242 85.2602C225.28 85.2602 223.505 85.7195 221.919 86.6379C220.333 87.5564 219.08 88.8088 218.162 90.3953C217.243 91.9817 216.784 93.756 216.784 95.7182C216.784 97.6803 217.243 99.4546 218.162 101.041C219.08 102.628 220.333 103.88 221.919 104.798C223.505 105.717 225.28 106.176 227.242 106.176ZM250.418 68.2896C250.418 67.1624 250.773 66.2856 251.483 65.6594C252.192 64.9915 253.027 64.6575 253.988 64.6575C254.948 64.6575 255.783 64.9915 256.492 65.6594C257.202 66.2856 257.557 67.1624 257.557 68.2896V108.744C257.557 109.871 257.202 110.768 256.492 111.436C255.783 112.063 254.948 112.376 253.988 112.376C253.027 112.376 252.192 112.063 251.483 111.436C250.773 110.768 250.418 109.871 250.418 108.744V68.2896ZM295.218 79.2485C296.178 79.2485 297.013 79.5616 297.723 80.1878C298.433 80.814 298.788 81.6908 298.788 82.818V108.806C298.788 109.892 298.433 110.768 297.723 111.436C297.013 112.063 296.178 112.376 295.218 112.376C294.258 112.376 293.402 112.063 292.651 111.436C291.941 110.768 291.586 109.892 291.586 108.806V105.362C290.667 107.616 289.123 109.391 286.952 110.685C284.781 111.979 282.234 112.626 279.312 112.626C276.139 112.626 273.342 111.875 270.921 110.372C268.499 108.869 266.62 106.823 265.285 104.235C263.99 101.646 263.343 98.7867 263.343 95.6556C263.343 92.4409 264.011 89.5603 265.347 87.0137C266.725 84.467 268.645 82.4631 271.108 81.0019C273.572 79.5407 276.431 78.8101 279.688 78.8101C282.151 78.8101 284.447 79.3946 286.576 80.5636C288.705 81.7325 290.375 83.3398 291.586 85.3855V82.818C291.586 81.6908 291.941 80.814 292.651 80.1878C293.36 79.5616 294.216 79.2485 295.218 79.2485ZM281.128 106.176C283.132 106.176 284.906 105.717 286.451 104.798C288.037 103.88 289.269 102.628 290.146 101.041C291.064 99.4546 291.523 97.6803 291.523 95.7182C291.523 93.756 291.064 92.0026 290.146 90.4579C289.269 88.8715 288.037 87.619 286.451 86.7006C284.906 85.7821 283.132 85.3229 281.128 85.3229C279.124 85.3229 277.308 85.7612 275.68 86.6379C274.093 87.5146 272.841 88.7462 271.923 90.3326C271.046 91.9191 270.607 93.7143 270.607 95.7182C270.607 98.7658 271.589 101.271 273.551 103.233C275.513 105.195 278.039 106.176 281.128 106.176ZM321.407 79.499C322.158 79.499 322.805 79.7703 323.348 80.3131C323.933 80.8558 324.225 81.5238 324.225 82.317C324.225 83.1102 323.933 83.7782 323.348 84.3209C322.805 84.8636 322.158 85.135 321.407 85.135H316.71V108.744C316.71 109.871 316.355 110.768 315.646 111.436C314.936 112.063 314.101 112.376 313.141 112.376C312.181 112.376 311.325 112.063 310.573 111.436C309.864 110.768 309.509 109.871 309.509 108.744V85.135H306.941C306.19 85.135 305.522 84.8636 304.937 84.3209C304.395 83.7782 304.123 83.1102 304.123 82.317C304.123 81.5655 304.395 80.9184 304.937 80.3757C305.522 79.7912 306.19 79.499 306.941 79.499H309.509V73.2994C309.509 72.1722 309.864 71.2954 310.573 70.6692C311.325 70.043 312.181 69.7299 313.141 69.7299C314.101 69.7299 314.936 70.043 315.646 70.6692C316.355 71.2954 316.71 72.1722 316.71 73.2994V79.499H321.407ZM359.153 93.9647C359.278 95.2172 359.027 96.1774 358.401 96.8454C357.817 97.4716 356.898 97.7847 355.646 97.7847H333.164C333.206 99.4964 333.686 101.041 334.605 102.419C335.523 103.755 336.734 104.798 338.237 105.55C339.781 106.301 341.451 106.677 343.247 106.677C346.712 106.677 349.488 105.279 351.575 102.481C352.202 101.605 352.995 101.166 353.955 101.166C354.748 101.166 355.458 101.5 356.084 102.168C356.71 102.795 357.023 103.525 357.023 104.36C357.023 105.07 356.752 105.759 356.209 106.427C354.706 108.264 352.849 109.766 350.636 110.935C348.465 112.063 345.981 112.626 343.184 112.626C339.886 112.626 336.943 111.937 334.354 110.56C331.766 109.14 329.741 107.157 328.28 104.611C326.819 102.064 326.088 99.1207 326.088 95.7808C326.088 92.6079 326.798 89.7273 328.217 87.1389C329.637 84.5505 331.599 82.5257 334.104 81.0645C336.65 79.5616 339.51 78.8101 342.683 78.8101C347.233 78.8101 350.991 80.1878 353.955 82.9432C356.919 85.6568 358.652 89.3307 359.153 93.9647ZM342.683 84.634C340.095 84.634 337.924 85.4272 336.17 87.0137C334.417 88.5583 333.436 90.5414 333.227 92.9628H352.202C351.993 90.5414 351.012 88.5583 349.258 87.0137C347.547 85.4272 345.355 84.634 342.683 84.634ZM390.686 112.626C387.764 112.626 385.238 112.146 383.109 111.186C380.979 110.184 379.268 108.785 377.974 106.99C377.431 106.197 377.159 105.425 377.159 104.673C377.159 103.755 377.493 102.961 378.161 102.294C378.871 101.584 379.664 101.229 380.541 101.229C381.668 101.229 382.608 101.813 383.359 102.982C384.278 104.318 385.321 105.32 386.49 105.988C387.659 106.656 389.079 106.99 390.749 106.99C392.585 106.99 394.047 106.656 395.132 105.988C396.218 105.279 396.76 104.318 396.76 103.108C396.76 101.897 396.155 100.978 394.944 100.352C393.734 99.726 391.813 99.0372 389.183 98.2857C386.72 97.6177 384.716 96.9706 383.171 96.3444C381.627 95.7182 380.291 94.7788 379.163 93.5264C378.078 92.2739 377.535 90.6249 377.535 88.5792C377.535 85.6151 378.704 83.2563 381.042 81.5029C383.422 79.7495 386.386 78.8727 389.934 78.8727C392.314 78.8727 394.548 79.3111 396.635 80.1878C398.764 81.0645 400.413 82.2335 401.582 83.6947C402.208 84.4461 402.522 85.302 402.522 86.2622C402.522 87.0972 402.25 87.8069 401.707 88.3914C401.206 88.9758 400.559 89.2681 399.766 89.2681C398.681 89.2681 397.658 88.7253 396.698 87.6399C394.694 85.4272 392.418 84.3209 389.872 84.3209C388.369 84.3209 387.096 84.6549 386.052 85.3229C385.008 85.9908 384.486 86.8675 384.486 87.953C384.486 89.1637 385.071 90.0613 386.24 90.6458C387.45 91.2302 389.35 91.8773 391.938 92.5871C394.443 93.2133 396.489 93.8604 398.075 94.5283C399.704 95.1546 401.081 96.1357 402.208 97.4716C403.377 98.7658 403.962 100.498 403.962 102.669C403.962 105.8 402.73 108.243 400.267 109.996C397.846 111.75 394.652 112.626 390.686 112.626ZM425.138 112.626C421.84 112.626 418.855 111.896 416.183 110.434C413.553 108.973 411.487 106.969 409.984 104.423C408.481 101.834 407.729 98.9328 407.729 95.7182C407.729 92.5453 408.481 89.6647 409.984 87.0763C411.487 84.4879 413.553 82.4631 416.183 81.0019C418.855 79.5407 421.84 78.8101 425.138 78.8101C428.437 78.8101 431.401 79.5407 434.031 81.0019C436.703 82.4631 438.79 84.4879 440.293 87.0763C441.796 89.6647 442.548 92.5453 442.548 95.7182C442.548 98.9328 441.796 101.834 440.293 104.423C438.79 106.969 436.703 108.973 434.031 110.434C431.401 111.896 428.437 112.626 425.138 112.626ZM425.138 106.176C427.101 106.176 428.875 105.717 430.461 104.798C432.09 103.88 433.342 102.628 434.219 101.041C435.137 99.4546 435.596 97.6803 435.596 95.7182C435.596 93.756 435.137 91.9817 434.219 90.3953C433.342 88.8088 432.09 87.5564 430.461 86.6379C428.875 85.7195 427.101 85.2602 425.138 85.2602C423.176 85.2602 421.402 85.7195 419.816 86.6379C418.229 87.5564 416.977 88.8088 416.058 90.3953C415.14 91.9817 414.681 93.756 414.681 95.7182C414.681 97.6803 415.14 99.4546 416.058 101.041C416.977 102.628 418.229 103.88 419.816 104.798C421.402 105.717 423.176 106.176 425.138 106.176ZM475.305 79.1859C476.307 79.1859 477.163 79.499 477.872 80.1252C478.582 80.7514 478.937 81.6281 478.937 82.7553V108.744C478.937 109.829 478.561 110.706 477.81 111.374C477.1 112 476.265 112.313 475.305 112.313C474.345 112.313 473.489 112 472.737 111.374C472.028 110.706 471.673 109.829 471.673 108.744V106.802C470.629 108.681 469.21 110.142 467.414 111.186C465.619 112.188 463.469 112.689 460.964 112.689C458.585 112.689 456.393 112.188 454.389 111.186C452.427 110.184 450.84 108.618 449.63 106.489C448.461 104.36 447.876 101.709 447.876 98.5362V82.8806C447.876 81.7116 448.231 80.814 448.941 80.1878C449.692 79.5198 450.548 79.1859 451.508 79.1859C452.469 79.1859 453.304 79.5198 454.013 80.1878C454.765 80.814 455.14 81.7116 455.14 82.8806V97.4716C455.14 100.644 455.892 102.962 457.395 104.423C458.94 105.842 460.86 106.552 463.156 106.552C465.745 106.552 467.79 105.738 469.293 104.11C470.838 102.44 471.631 100.102 471.673 97.0959V82.7553C471.673 81.6281 472.028 80.7514 472.737 80.1252C473.447 79.499 474.303 79.1859 475.305 79.1859ZM501.007 79.3737C502.301 79.2485 503.282 79.499 503.95 80.1252C504.618 80.7097 504.952 81.4194 504.952 82.2544C504.952 83.0893 504.639 83.8617 504.012 84.5714C503.386 85.2394 502.363 85.5942 500.944 85.636C498.606 85.6777 496.769 86.3039 495.433 87.5146C494.139 88.7253 493.492 90.437 493.492 92.6497V108.744C493.492 109.871 493.137 110.768 492.427 111.436C491.718 112.063 490.883 112.376 489.922 112.376C488.962 112.376 488.127 112.063 487.417 111.436C486.708 110.768 486.353 109.871 486.353 108.744V82.7553C486.353 81.6281 486.708 80.7514 487.417 80.1252C488.127 79.499 488.962 79.1859 489.922 79.1859C490.883 79.1859 491.718 79.499 492.427 80.1252C493.137 80.7514 493.492 81.6281 493.492 82.7553V84.1957C495.037 81.2733 497.541 79.666 501.007 79.3737ZM538.001 64.6575C538.961 64.6575 539.796 64.9915 540.506 65.6594C541.215 66.2856 541.57 67.1624 541.57 68.2896V108.744C541.57 109.871 541.215 110.768 540.506 111.436C539.796 112.063 538.961 112.376 538.001 112.376C537.04 112.376 536.205 112.063 535.496 111.436C534.786 110.768 534.431 109.871 534.431 108.744V105.362C533.513 107.616 531.968 109.391 529.797 110.685C527.626 111.979 525.08 112.626 522.157 112.626C518.984 112.626 516.187 111.875 513.766 110.372C511.344 108.869 509.466 106.823 508.13 104.235C506.836 101.646 506.188 98.7867 506.188 95.6556C506.188 92.4409 506.856 89.5603 508.192 87.0137C509.57 84.467 511.491 82.4631 513.954 81.0019C516.417 79.5407 519.277 78.8101 522.533 78.8101C524.996 78.8101 527.292 79.3946 529.421 80.5636C531.551 81.7325 533.22 83.3398 534.431 85.3855V68.2896C534.431 67.1624 534.786 66.2856 535.496 65.6594C536.205 64.9915 537.04 64.6575 538.001 64.6575ZM523.973 106.176C525.977 106.176 527.751 105.717 529.296 104.798C530.883 103.88 532.114 102.628 532.991 101.041C533.909 99.4546 534.369 97.6803 534.369 95.7182C534.369 93.756 533.909 92.0026 532.991 90.4579C532.114 88.8715 530.883 87.619 529.296 86.7006C527.751 85.7821 525.977 85.3229 523.973 85.3229C521.969 85.3229 520.153 85.7612 518.525 86.6379C516.939 87.5146 515.686 88.7462 514.768 90.3326C513.891 91.9191 513.453 93.7143 513.453 95.7182C513.453 98.7658 514.434 101.271 516.396 103.233C518.358 105.195 520.884 106.176 523.973 106.176ZM564.755 112.626C561.457 112.626 558.472 111.896 555.8 110.434C553.169 108.973 551.103 106.969 549.6 104.423C548.097 101.834 547.346 98.9328 547.346 95.7182C547.346 92.5453 548.097 89.6647 549.6 87.0763C551.103 84.4879 553.169 82.4631 555.8 81.0019C558.472 79.5407 561.457 78.8101 564.755 78.8101C568.053 78.8101 571.017 79.5407 573.647 81.0019C576.319 82.4631 578.406 84.4879 579.909 87.0763C581.412 89.6647 582.164 92.5453 582.164 95.7182C582.164 98.9328 581.412 101.834 579.909 104.423C578.406 106.969 576.319 108.973 573.647 110.434C571.017 111.896 568.053 112.626 564.755 112.626ZM564.755 106.176C566.717 106.176 568.491 105.717 570.078 104.798C571.706 103.88 572.958 102.628 573.835 101.041C574.753 99.4546 575.213 97.6803 575.213 95.7182C575.213 93.756 574.753 91.9817 573.835 90.3953C572.958 88.8088 571.706 87.5564 570.078 86.6379C568.491 85.7195 566.717 85.2602 564.755 85.2602C562.792 85.2602 561.018 85.7195 559.432 86.6379C557.845 87.5564 556.593 88.8088 555.674 90.3953C554.756 91.9817 554.297 93.756 554.297 95.7182C554.297 97.6803 554.756 99.4546 555.674 101.041C556.593 102.628 557.845 103.88 559.432 104.798C561.018 105.717 562.792 106.176 564.755 106.176ZM614.921 79.1859C615.923 79.1859 616.779 79.499 617.489 80.1252C618.198 80.7514 618.553 81.6281 618.553 82.7553V108.744C618.553 109.829 618.177 110.706 617.426 111.374C616.716 112 615.881 112.313 614.921 112.313C613.961 112.313 613.105 112 612.354 111.374C611.644 110.706 611.289 109.829 611.289 108.744V106.802C610.245 108.681 608.826 110.142 607.031 111.186C605.235 112.188 603.085 112.689 600.581 112.689C598.201 112.689 596.009 112.188 594.005 111.186C592.043 110.184 590.457 108.618 589.246 106.489C588.077 104.36 587.492 101.709 587.492 98.5362V82.8806C587.492 81.7116 587.847 80.814 588.557 80.1878C589.308 79.5198 590.164 79.1859 591.125 79.1859C592.085 79.1859 592.92 79.5198 593.629 80.1878C594.381 80.814 594.757 81.7116 594.757 82.8806V97.4716C594.757 100.644 595.508 102.962 597.011 104.423C598.556 105.842 600.476 106.552 602.772 106.552C605.361 106.552 607.406 105.738 608.909 104.11C610.454 102.44 611.247 100.102 611.289 97.0959V82.7553C611.289 81.6281 611.644 80.7514 612.354 80.1252C613.063 79.499 613.919 79.1859 614.921 79.1859ZM656.153 79.1859C657.113 79.1859 657.927 79.499 658.595 80.1252C659.305 80.7514 659.66 81.6281 659.66 82.7553V108.869C659.66 114.63 658.053 119.139 654.838 122.395C651.665 125.693 647.302 127.342 641.75 127.342C639.495 127.342 637.283 127.05 635.112 126.466C632.983 125.923 631.125 125.192 629.538 124.274C628.871 123.898 628.37 123.418 628.036 122.834C627.702 122.291 627.535 121.727 627.535 121.143C627.535 120.391 627.785 119.744 628.286 119.202C628.829 118.701 629.518 118.45 630.353 118.45C630.687 118.45 631.083 118.534 631.542 118.701C632.043 118.868 632.565 119.055 633.108 119.264C634.527 119.849 635.822 120.287 636.991 120.579C638.201 120.913 639.621 121.08 641.249 121.08C644.964 121.08 647.762 120.037 649.64 117.949C651.561 115.862 652.521 112.835 652.521 108.869V105.362C651.602 107.616 650.058 109.391 647.887 110.685C645.716 111.979 643.169 112.626 640.247 112.626C637.074 112.626 634.277 111.875 631.856 110.372C629.434 108.869 627.555 106.823 626.22 104.235C624.925 101.646 624.278 98.7867 624.278 95.6556C624.278 92.4409 624.946 89.5603 626.282 87.0137C627.66 84.467 629.58 82.4631 632.043 81.0019C634.507 79.5407 637.366 78.8101 640.623 78.8101C643.086 78.8101 645.382 79.3946 647.511 80.5636C649.64 81.7325 651.31 83.3398 652.521 85.3855V82.9432C652.521 81.7743 652.876 80.8558 653.585 80.1878C654.295 79.5198 655.151 79.1859 656.153 79.1859ZM642.063 106.176C644.067 106.176 645.841 105.717 647.386 104.798C648.972 103.88 650.204 102.628 651.081 101.041C651.999 99.4546 652.458 97.6803 652.458 95.7182C652.458 93.756 651.999 92.0026 651.081 90.4579C650.204 88.8715 648.972 87.619 647.386 86.7006C645.841 85.7821 644.067 85.3229 642.063 85.3229C640.059 85.3229 638.243 85.7612 636.615 86.6379C635.028 87.5146 633.776 88.7462 632.857 90.3326C631.981 91.9191 631.542 93.7143 631.542 95.7182C631.542 98.7658 632.523 101.271 634.486 103.233C636.448 105.195 638.974 106.176 642.063 106.176ZM684.974 78.8101C687.353 78.8101 689.545 79.332 691.549 80.3757C693.553 81.3776 695.139 82.9432 696.308 85.0724C697.519 87.1598 698.124 89.7899 698.124 92.9628V108.618C698.124 109.787 697.748 110.706 696.997 111.374C696.287 112.042 695.452 112.376 694.492 112.376C693.532 112.376 692.676 112.042 691.925 111.374C691.215 110.706 690.86 109.787 690.86 108.618V94.0274C690.86 90.8128 690.088 88.5166 688.543 87.1389C687.04 85.7195 685.14 85.0097 682.844 85.0097C680.214 85.0097 678.127 85.8447 676.582 87.5146C675.079 89.1846 674.307 91.4807 674.265 94.4031V108.744C674.265 109.871 673.91 110.768 673.2 111.436C672.491 112.063 671.656 112.376 670.696 112.376C669.735 112.376 668.9 112.063 668.191 111.436C667.481 110.768 667.126 109.871 667.126 108.744V68.2896C667.126 67.1624 667.481 66.2856 668.191 65.6594C668.9 64.9915 669.735 64.6575 670.696 64.6575C671.656 64.6575 672.491 64.9915 673.2 65.6594C673.91 66.2856 674.265 67.1624 674.265 68.2896V84.8219C675.309 82.8597 676.728 81.3776 678.523 80.3757C680.319 79.332 682.469 78.8101 684.974 78.8101Z" fill="#0038FF"/>
  <path d="M821.288 112H810.391C807.949 112 806.571 110.622 806.571 108.18V71.3581C806.571 68.9158 807.949 67.5381 810.391 67.5381H821.288C835.127 67.5381 843.456 77.3072 843.456 89.769C843.456 102.231 835.127 112 821.288 112ZM813.898 74.1761V105.362H821.288C830.18 105.362 836.129 99.6634 836.129 89.769C836.129 79.8747 830.18 74.1761 821.288 74.1761H813.898ZM864.747 79.3737C867.565 79.1232 868.692 80.7514 868.692 82.2544C868.692 83.5068 867.878 85.5733 864.684 85.636C860.113 85.6986 857.232 88.1409 857.232 92.6497V108.744C857.232 111.123 855.479 112.376 853.662 112.376C851.909 112.376 850.093 111.123 850.093 108.744V82.7553C850.093 80.3757 851.909 79.1859 853.662 79.1859C855.479 79.1859 857.232 80.3757 857.232 82.7553V84.1957C858.672 81.5029 861.052 79.6868 864.747 79.3737ZM887.338 112.626C877.318 112.626 869.929 105.487 869.929 95.7182C869.929 86.0117 877.318 78.8101 887.338 78.8101C897.357 78.8101 904.747 86.0117 904.747 95.7182C904.747 105.487 897.357 112.626 887.338 112.626ZM887.338 106.176C893.349 106.176 897.796 101.667 897.796 95.7182C897.796 89.769 893.349 85.2602 887.338 85.2602C881.389 85.2602 876.88 89.769 876.88 95.7182C876.88 101.667 881.389 106.176 887.338 106.176ZM929.927 78.8727C939.821 78.8727 945.896 86.5127 945.896 95.8434C945.896 105.425 939.571 112.689 929.551 112.689C924.729 112.689 920.095 110.309 917.653 106.113V123.397C917.653 125.714 915.899 126.967 914.083 126.967C912.33 126.967 910.514 125.714 910.514 123.397V82.7553C910.514 80.3757 912.33 79.1859 914.083 79.1859C915.899 79.1859 917.653 80.3757 917.653 82.7553V86.1369C919.531 81.6281 924.103 78.8727 929.927 78.8727ZM928.111 106.176C934.248 106.176 938.694 101.855 938.694 95.7808C938.694 89.6438 934.248 85.3229 928.111 85.3229C922.036 85.3229 917.715 89.8317 917.715 95.7808C917.715 101.667 922.036 106.176 928.111 106.176ZM980.4 105.55H987.289C989.042 105.55 990.545 106.99 990.545 108.744C990.545 110.56 989.042 112 987.289 112H966.248C964.494 112 962.991 110.56 962.991 108.744C962.991 106.99 964.494 105.55 966.248 105.55H973.074V74.8649L967.375 76.4305C967.062 76.4931 966.749 76.5557 966.436 76.5557C964.62 76.5557 963.555 74.9902 963.555 73.4246C963.555 72.0469 964.369 70.6692 966.123 70.1682L976.455 67.4129C976.894 67.2876 977.269 67.2876 977.582 67.2876C979.336 67.2876 980.4 68.5401 980.4 70.6066V105.55Z" fill="#0038FF"/>
  <path d="M229.917 724.707C232.226 728.931 235.866 733.022 236.199 737.697C235.358 753.04 290.468 757.769 303.734 763.266C329.889 774.105 375.949 767.68 403.936 767.046C455.95 765.869 509.054 769.303 561.138 769.868C604.923 770.343 649.222 771.104 692.889 772.216L693.482 772.231C733.295 773.246 782.911 774.51 820.575 763.672C849.521 755.342 858.434 736.333 864.555 714.709C873.622 682.672 870.623 646.537 872.422 613.709L875.835 551.457C876.962 530.898 883.211 506.204 874.93 485.939C868.783 470.893 862.618 457.3 853.126 443.25C844.759 430.864 825.264 419.248 812.325 409.925C794.436 397.036 768.417 390.494 748.73 379.303C734.975 371.485 721.519 365.439 704.683 362.662C650.912 353.794 596.712 351.097 542.383 346.52C496.176 342.627 451.101 340.309 404.517 340.28C371.464 340.259 340.011 341.284 310.865 353.72C281.26 366.351 261.919 392.69 244.749 414.642C212.088 456.401 189.117 503.025 186.382 552.918C184.672 584.112 182.25 614.917 193.794 645.534C203.84 672.179 215.935 699.133 229.917 724.707Z" fill="#0038FF"/>
  <path d="M461.568 358.383C450.712 358.693 441.257 363.037 432.304 367.589C411.575 378.127 390.059 387.848 372.575 402.148C362.989 409.989 325.218 450.404 340.803 462.891C348.605 469.143 383.71 457.324 390.826 455.483C416.858 448.747 438.944 439.857 456.777 422.715C477.412 402.88 488.771 382.684 517.264 368.555C525.497 364.472 542.05 353.22 536.205 368.934C523.263 403.732 506.439 432.411 479.057 460.188C460.177 479.34 488.907 490.726 508.948 482.786C552.558 465.508 555.994 436.873 571.527 404.881C580.756 385.872 596.573 376.542 614.829 364.412C623.155 358.88 620.204 370.145 619.982 374.186C619.339 385.918 620.804 399.151 615.172 410.042C610.984 418.142 587.642 459.297 599.198 467.96C621.672 484.807 665.59 445.26 668.066 428.101C670.853 408.788 669.139 389.429 668.551 370.257C667.941 350.378 652.237 349.853 632.752 348.785C579.749 345.879 525.65 352.405 473.429 349.542" stroke="#FFEED8" stroke-width="4.85227" stroke-linecap="round"/>
  <path d="M428.197 1037.15C420.408 1037.15 413.428 1035.35 407.256 1031.74C401.157 1028.07 396.381 1023.18 392.927 1017.09C389.548 1010.91 387.858 1004.15 387.858 996.806C387.858 989.532 389.548 982.846 392.927 976.747C396.307 970.648 401.047 965.799 407.145 962.198C413.244 958.525 420.188 956.688 427.976 956.688C433.193 956.688 437.859 957.349 441.974 958.672C446.162 959.921 449.689 961.611 452.554 963.742C454.244 964.991 455.493 966.387 456.302 967.93C457.11 969.399 457.514 970.906 457.514 972.449C457.514 974.653 456.706 976.563 455.089 978.18C453.546 979.796 451.562 980.605 449.138 980.605C446.786 980.605 444.398 979.76 441.974 978.07C440.284 976.894 438.263 975.939 435.912 975.204C433.56 974.396 431.025 973.992 428.307 973.992C424.045 973.992 420.261 974.984 416.955 976.967C413.648 978.951 411.076 981.707 409.239 985.234C407.476 988.761 406.594 992.728 406.594 997.137C406.594 1001.47 407.439 1005.37 409.129 1008.82C410.819 1012.2 413.281 1014.88 416.514 1016.87C419.747 1018.85 423.531 1019.84 427.866 1019.84C432.495 1019.84 436.463 1018.74 439.769 1016.53C443.076 1014.26 445.464 1011.13 446.933 1007.17H426.433C423.861 1007.17 421.841 1006.36 420.371 1004.74C418.975 1003.13 418.277 1001.18 418.277 998.9C418.277 996.696 418.975 994.786 420.371 993.169C421.841 991.479 423.861 990.634 426.433 990.634H457.073C460.086 990.634 462.364 991.479 463.907 993.169C465.523 994.859 466.331 997.357 466.331 1000.66C466.331 1001.33 466.258 1002.46 466.111 1004.08C465.45 1009.15 463.613 1014.22 460.6 1019.29C457.588 1024.36 453.326 1028.62 447.815 1032.08C442.378 1035.46 435.838 1037.15 428.197 1037.15ZM498.991 1002.87H498.88C497.999 1002.76 497.337 1001.99 497.448 1001.1L499.542 982.809C499.652 981.927 500.534 981.266 501.415 981.376C502.297 981.486 502.848 982.368 502.738 983.25L500.644 1001.44C500.534 1002.32 499.872 1002.87 498.991 1002.87ZM511.445 945.446C511.225 945.446 511.004 945.446 511.004 945.446C497.558 946.438 477.278 972.228 471.437 995.704C468.791 1006.73 468.13 1021.6 480.805 1029.43C484.552 1031.63 488.189 1032.85 491.716 1032.85C498.219 1032.85 504.391 1029.21 510.233 1021.94C523.459 1005.51 530.182 975.865 526.985 961.317C523.789 946.548 514.311 945.446 511.445 945.446ZM530.953 969.473C530.953 985.895 524.23 1009.7 512.768 1024.03C506.375 1031.86 499.101 1036.04 491.716 1036.04C487.528 1036.04 483.34 1034.72 479.152 1032.19C468.02 1025.24 464.162 1012.02 468.351 994.933C474.523 969.914 495.905 943.352 510.673 942.249C510.673 942.249 511.004 942.249 511.445 942.249C513.87 942.249 526.324 943.131 530.072 960.655C530.623 963.19 530.953 966.166 530.953 969.473ZM557.005 1002.87H556.894C556.013 1002.76 555.351 1001.99 555.462 1001.1L557.556 982.809C557.666 981.927 558.548 981.266 559.429 981.376C560.311 981.486 560.862 982.368 560.752 983.25L558.658 1001.44C558.548 1002.32 557.886 1002.87 557.005 1002.87ZM569.459 945.446C569.239 945.446 569.018 945.446 569.018 945.446C555.572 946.438 535.292 972.228 529.451 995.704C526.805 1006.73 526.144 1021.6 538.819 1029.43C542.566 1031.63 546.203 1032.85 549.73 1032.85C556.233 1032.85 562.405 1029.21 568.247 1021.94C581.473 1005.51 588.196 975.865 585 961.317C581.803 946.548 572.325 945.446 569.459 945.446ZM588.967 969.473C588.967 985.895 582.244 1009.7 570.782 1024.03C564.389 1031.86 557.115 1036.04 549.73 1036.04C545.542 1036.04 541.354 1034.72 537.166 1032.19C526.034 1025.24 522.176 1012.02 526.365 994.933C532.537 969.914 553.919 943.352 568.688 942.249C568.688 942.249 569.018 942.249 569.459 942.249C571.884 942.249 584.338 943.131 588.086 960.655C588.637 963.19 588.967 966.166 588.967 969.473ZM602.454 1036.04C599.295 1036.04 596.87 1035.2 595.18 1033.51C593.49 1031.82 592.645 1029.39 592.645 1026.23V967.599C592.645 964.366 593.49 961.941 595.18 960.325C596.87 958.635 599.295 957.79 602.454 957.79H620.53C628.833 957.79 636.033 959.517 642.132 962.97C648.304 966.35 653.007 971.016 656.24 976.967C659.473 982.919 661.089 989.569 661.089 996.917C661.089 1004.26 659.473 1010.91 656.24 1016.87C653.007 1022.82 648.304 1027.52 642.132 1030.97C636.033 1034.35 628.833 1036.04 620.53 1036.04H602.454ZM620.53 1019.07C627.216 1019.07 632.506 1017.27 636.401 1013.67C640.368 1010 642.352 1004.41 642.352 996.917C642.352 989.422 640.368 983.874 636.401 980.274C632.506 976.6 627.216 974.763 620.53 974.763H611.382V1019.07H620.53Z" fill="#0033E6"/>
  <path d="M514.055 1040.89C514.236 1042.5 516.754 1046.22 517.928 1047.08C520.456 1048.95 521.311 1047.91 523.913 1047.91C527.8 1047.91 529.589 1043.14 530.954 1040.12" stroke="#0033E6" stroke-width="2.20432" stroke-linecap="round"/>
  <path d="M571.521 928.992C572.716 930.319 573.489 931.334 575.119 932.328C576.692 933.287 578.838 933.954 580.701 933.954" stroke="#0033E6" stroke-width="2.20432" stroke-linecap="round"/>
  <path d="M510.739 928C509.934 928 509.132 928.619 508.451 928.992C507.111 929.727 505.693 930.395 504.261 930.922C503.032 931.374 501.627 931.721 500.319 931.721" stroke="#0033E6" stroke-width="2.20432" stroke-linecap="round"/>
  <path d="M423.223 1060.19C427.996 1060.19 432.149 1061.33 435.682 1063.63C439.215 1065.92 441.881 1069.02 443.678 1072.92C445.538 1076.83 446.468 1081.11 446.468 1085.76C446.468 1090.59 445.507 1094.93 443.585 1098.77C441.664 1102.55 438.874 1105.56 435.217 1107.79C431.622 1109.96 427.345 1111.05 422.386 1111.05C419.597 1111.05 416.839 1110.49 414.111 1109.37C411.384 1108.19 409.152 1106.49 407.417 1104.26C407.169 1106.3 406.301 1107.91 404.813 1109.09C403.388 1110.21 401.714 1110.77 399.793 1110.77C397.747 1110.77 395.949 1110.08 394.4 1108.72C392.85 1107.36 392.075 1105.47 392.075 1103.05V1047.26C392.075 1044.84 392.85 1042.95 394.4 1041.59C395.949 1040.23 397.747 1039.55 399.793 1039.55C401.9 1039.55 403.698 1040.23 405.185 1041.59C406.735 1042.95 407.51 1044.84 407.51 1047.26V1068.28C408.564 1065.73 410.485 1063.75 413.274 1062.32C416.126 1060.9 419.442 1060.19 423.223 1060.19ZM419.132 1097.1C422.603 1097.1 425.424 1096.04 427.593 1093.94C429.762 1091.77 430.847 1088.98 430.847 1085.57C430.847 1082.16 429.762 1079.4 427.593 1077.29C425.424 1075.12 422.603 1074.04 419.132 1074.04C415.785 1074.04 413.026 1075.12 410.857 1077.29C408.687 1079.4 407.603 1082.16 407.603 1085.57C407.603 1088.98 408.687 1091.77 410.857 1093.94C413.026 1096.04 415.785 1097.1 419.132 1097.1ZM476.793 1061.02C477.165 1060.96 477.692 1060.93 478.374 1060.93C480.419 1060.93 482.031 1061.52 483.208 1062.7C484.386 1063.87 484.975 1065.3 484.975 1066.97C484.975 1068.83 484.262 1070.51 482.836 1071.99C481.473 1073.48 479.427 1074.35 476.7 1074.6C471.493 1075.09 468.89 1077.88 468.89 1082.97V1103.05C468.89 1105.47 468.115 1107.36 466.565 1108.72C465.078 1110.08 463.28 1110.77 461.173 1110.77C459.127 1110.77 457.33 1110.08 455.78 1108.72C454.23 1107.36 453.455 1105.47 453.455 1103.05V1068.09C453.455 1065.67 454.23 1063.78 455.78 1062.42C457.33 1061.05 459.127 1060.37 461.173 1060.37C463.032 1060.37 464.675 1060.9 466.1 1061.95C467.526 1063.01 468.394 1064.49 468.704 1066.42C470.687 1063.38 473.384 1061.58 476.793 1061.02ZM537.3 1082.04C537.362 1082.35 537.393 1082.84 537.393 1083.52C537.393 1085.69 536.68 1087.37 535.254 1088.54C533.891 1089.66 532.031 1090.22 529.676 1090.22H502.433C502.743 1092.51 503.89 1094.43 505.873 1095.98C507.919 1097.47 510.367 1098.21 513.218 1098.21C516.814 1098.21 519.696 1097.04 521.865 1094.68C523.415 1093.07 525.089 1092.26 526.886 1092.26C528.684 1092.26 530.233 1092.91 531.535 1094.22C532.899 1095.52 533.581 1097.04 533.581 1098.77C533.581 1100.38 532.899 1101.9 531.535 1103.33C529.118 1105.75 526.328 1107.64 523.167 1109C520.068 1110.3 516.721 1110.95 513.126 1110.95C508.043 1110.95 503.518 1109.9 499.551 1107.79C495.584 1105.68 492.484 1102.74 490.253 1098.96C488.021 1095.11 486.906 1090.71 486.906 1085.76C486.906 1080.86 487.99 1076.46 490.16 1072.55C492.329 1068.65 495.336 1065.61 499.179 1063.44C503.022 1061.21 507.392 1060.09 512.289 1060.09C518.921 1060.09 524.469 1061.95 528.932 1065.67C533.457 1069.39 536.246 1074.85 537.3 1082.04ZM512.289 1072.46C509.499 1072.46 507.175 1073.14 505.315 1074.5C503.456 1075.87 502.464 1077.73 502.34 1080.08H522.33C522.082 1077.79 521.029 1075.96 519.169 1074.6C517.31 1073.17 515.016 1072.46 512.289 1072.46ZM587.881 1060.47C589.988 1060.47 591.817 1061.15 593.366 1062.51C594.916 1063.81 595.691 1065.7 595.691 1068.18V1102.96C595.691 1105.37 594.916 1107.26 593.366 1108.63C591.817 1109.99 589.988 1110.67 587.881 1110.67C585.773 1110.67 583.944 1109.99 582.395 1108.63C580.845 1107.26 580.07 1105.37 580.07 1102.96V1102.86C579.017 1105.4 577.064 1107.39 574.213 1108.81C571.423 1110.24 568.138 1110.95 564.357 1110.95C559.584 1110.95 555.431 1109.81 551.898 1107.51C548.365 1105.22 545.669 1102.12 543.809 1098.21C542.011 1094.31 541.113 1090.03 541.113 1085.38C541.113 1080.55 542.073 1076.24 543.995 1072.46C545.916 1068.62 548.675 1065.61 552.27 1063.44C555.927 1061.21 560.235 1060.09 565.194 1060.09C567.983 1060.09 570.742 1060.68 573.469 1061.86C576.196 1062.98 578.428 1064.65 580.163 1066.88C580.473 1064.84 581.341 1063.25 582.767 1062.14C584.254 1061.02 585.959 1060.47 587.881 1060.47ZM568.448 1097.1C571.795 1097.1 574.554 1096.04 576.723 1093.94C578.893 1091.77 579.977 1088.98 579.977 1085.57C579.977 1082.16 578.893 1079.4 576.723 1077.29C574.554 1075.12 571.795 1074.04 568.448 1074.04C564.977 1074.04 562.157 1075.12 559.987 1077.29C557.818 1079.4 556.733 1082.16 556.733 1085.57C556.733 1088.98 557.818 1091.77 559.987 1093.94C562.157 1096.04 564.977 1097.1 568.448 1097.1ZM649.349 1039.55C651.457 1039.55 653.254 1040.23 654.742 1041.59C656.292 1042.95 657.066 1044.84 657.066 1047.26V1103.05C657.066 1105.47 656.292 1107.36 654.742 1108.72C653.254 1110.08 651.457 1110.77 649.349 1110.77C647.304 1110.77 645.506 1110.08 643.956 1108.72C642.407 1107.36 641.632 1105.47 641.632 1103.05V1102.86C640.578 1105.4 638.626 1107.39 635.774 1108.81C632.985 1110.24 629.7 1110.95 625.919 1110.95C621.146 1110.95 616.993 1109.81 613.46 1107.51C609.927 1105.22 607.23 1102.12 605.371 1098.21C603.573 1094.31 602.674 1090.03 602.674 1085.38C602.674 1080.55 603.635 1076.24 605.557 1072.46C607.478 1068.62 610.236 1065.61 613.832 1063.44C617.489 1061.21 621.797 1060.09 626.756 1060.09C629.545 1060.09 632.272 1060.65 634.938 1061.77C637.665 1062.88 639.896 1064.53 641.632 1066.69V1047.26C641.632 1044.84 642.407 1042.95 643.956 1041.59C645.506 1040.23 647.304 1039.55 649.349 1039.55ZM630.01 1097.1C633.357 1097.1 636.115 1096.04 638.285 1093.94C640.454 1091.77 641.539 1088.98 641.539 1085.57C641.539 1082.16 640.454 1079.4 638.285 1077.29C636.115 1075.12 633.357 1074.04 630.01 1074.04C626.539 1074.04 623.718 1075.12 621.549 1077.29C619.379 1079.4 618.295 1082.16 618.295 1085.57C618.295 1088.98 619.379 1091.77 621.549 1093.94C623.718 1096.04 626.539 1097.1 630.01 1097.1Z" fill="#0033E6"/>
</svg>