<svg width="1049" height="1049" viewBox="0 0 1049 1049" fill="none" xmlns="http://www.w3.org/2000/svg">
<rect width="1049" height="1049" fill="#C8B5FF"/>
<path d="M86.1957 101.996C83.1064 103.708 79.4952 104.564 75.3621 104.564C71.4795 104.564 67.7848 103.75 64.2779 102.121C60.8128 100.451 57.9739 97.9048 55.7613 94.4814C53.5904 91.0163 52.5049 86.7788 52.5049 81.769C52.5049 76.7175 53.5904 72.5009 55.7613 69.1193C57.9739 65.696 60.8128 63.1702 64.2779 61.542C67.7848 59.9138 71.4795 59.0997 75.3621 59.0997C79.4534 59.0997 83.1064 59.9347 86.321 61.6046C86.9472 61.9386 87.4064 62.3979 87.6987 62.9823C88.0327 63.5251 88.1997 64.1095 88.1997 64.7358C88.1997 65.5707 87.9492 66.2804 87.4482 66.8649C86.989 67.4076 86.3419 67.679 85.5069 67.679C84.9642 67.679 84.4632 67.5746 84.004 67.3659C81.3738 66.2804 78.6184 65.7377 75.7378 65.7377C72.8989 65.7377 70.2688 66.3222 67.8474 67.4911C65.4677 68.6183 63.5264 70.3926 62.0235 72.814C60.5623 75.1937 59.8317 78.1787 59.8317 81.769C59.8317 85.3177 60.5623 88.3027 62.0235 90.7241C63.5264 93.1455 65.4886 94.9406 67.91 96.1096C70.3314 97.2785 72.9615 97.863 75.8004 97.863C78.5976 97.863 81.3112 97.3203 83.9413 96.2348C84.4006 96.0261 84.9016 95.9217 85.4443 95.9217C86.2792 95.9217 86.9263 96.2139 87.3856 96.7984C87.8866 97.3412 88.137 98.03 88.137 98.865C88.137 99.4912 87.97 100.076 87.6361 100.618C87.3438 101.161 86.8637 101.62 86.1957 101.996ZM112.332 70.8101C114.712 70.8101 116.904 71.332 118.908 72.3757C120.912 73.3776 122.498 74.9432 123.667 77.0724C124.878 79.1598 125.483 81.7899 125.483 84.9628V100.618C125.483 101.787 125.107 102.706 124.356 103.374C123.646 104.042 122.811 104.376 121.851 104.376C120.891 104.376 120.035 104.042 119.283 103.374C118.574 102.706 118.219 101.787 118.219 100.618V86.0274C118.219 82.8128 117.446 80.5166 115.902 79.1389C114.399 77.7195 112.499 77.0097 110.203 77.0097C107.573 77.0097 105.486 77.8447 103.941 79.5146C102.438 81.1846 101.666 83.4807 101.624 86.4031V100.744C101.624 101.871 101.269 102.768 100.559 103.436C99.8496 104.063 99.0146 104.376 98.0544 104.376C97.0942 104.376 96.2592 104.063 95.5495 103.436C94.8398 102.768 94.4849 101.871 94.4849 100.744V60.2896C94.4849 59.1624 94.8398 58.2856 95.5495 57.6594C96.2592 56.9915 97.0942 56.6575 98.0544 56.6575C99.0146 56.6575 99.8496 56.9915 100.559 57.6594C101.269 58.2856 101.624 59.1624 101.624 60.2896V76.8219C102.668 74.8597 104.087 73.3776 105.882 72.3757C107.677 71.332 109.827 70.8101 112.332 70.8101ZM148.18 104.626C144.882 104.626 141.897 103.896 139.225 102.434C136.595 100.973 134.528 98.9693 133.026 96.4227C131.523 93.8343 130.771 90.9328 130.771 87.7182C130.771 84.5453 131.523 81.6647 133.026 79.0763C134.528 76.4879 136.595 74.4631 139.225 73.0019C141.897 71.5407 144.882 70.8101 148.18 70.8101C151.478 70.8101 154.442 71.5407 157.073 73.0019C159.744 74.4631 161.832 76.4879 163.335 79.0763C164.838 81.6647 165.589 84.5453 165.589 87.7182C165.589 90.9328 164.838 93.8343 163.335 96.4227C161.832 98.9693 159.744 100.973 157.073 102.434C154.442 103.896 151.478 104.626 148.18 104.626ZM148.18 98.1761C150.142 98.1761 151.917 97.7169 153.503 96.7984C155.131 95.88 156.384 94.6275 157.26 93.0411C158.179 91.4546 158.638 89.6803 158.638 87.7182C158.638 85.756 158.179 83.9817 157.26 82.3953C156.384 80.8088 155.131 79.5564 153.503 78.6379C151.917 77.7195 150.142 77.2602 148.18 77.2602C146.218 77.2602 144.444 77.7195 142.857 78.6379C141.271 79.5564 140.018 80.8088 139.1 82.3953C138.181 83.9817 137.722 85.756 137.722 87.7182C137.722 89.6803 138.181 91.4546 139.1 93.0411C140.018 94.6275 141.271 95.88 142.857 96.7984C144.444 97.7169 146.218 98.1761 148.18 98.1761ZM195.6 102.309C192.886 103.854 189.86 104.626 186.52 104.626C183.597 104.626 180.821 104 178.191 102.748C175.603 101.495 173.494 99.5956 171.866 97.0489C170.28 94.5023 169.486 91.392 169.486 87.7182C169.486 84.0443 170.28 80.955 171.866 78.4501C173.494 75.9034 175.603 74.0247 178.191 72.814C180.779 71.5616 183.535 70.9354 186.457 70.9354C189.839 70.9354 192.886 71.7077 195.6 73.2524C196.936 74.0456 197.604 75.1102 197.604 76.4461C197.604 77.2394 197.353 77.9282 196.852 78.5127C196.393 79.0554 195.788 79.3268 195.036 79.3268C194.577 79.3268 194.076 79.1807 193.533 78.8884C191.697 77.9282 189.693 77.4481 187.522 77.4481C185.601 77.4481 183.806 77.8447 182.136 78.6379C180.508 79.3894 179.172 80.5375 178.128 82.0822C177.126 83.6268 176.625 85.5264 176.625 87.7808C176.625 89.91 177.106 91.7469 178.066 93.2916C179.068 94.8363 180.383 96.0261 182.011 96.861C183.681 97.6543 185.476 98.0509 187.396 98.0509C189.567 98.0509 191.592 97.5708 193.471 96.6106C193.972 96.3601 194.431 96.2348 194.849 96.2348C195.6 96.2348 196.226 96.5479 196.727 97.1742C197.228 97.7586 197.479 98.4475 197.479 99.2407C197.479 99.8252 197.312 100.389 196.978 100.932C196.685 101.474 196.226 101.933 195.6 102.309ZM219.242 104.626C215.944 104.626 212.959 103.896 210.287 102.434C207.657 100.973 205.59 98.9693 204.087 96.4227C202.584 93.8343 201.833 90.9328 201.833 87.7182C201.833 84.5453 202.584 81.6647 204.087 79.0763C205.59 76.4879 207.657 74.4631 210.287 73.0019C212.959 71.5407 215.944 70.8101 219.242 70.8101C222.54 70.8101 225.504 71.5407 228.134 73.0019C230.806 74.4631 232.894 76.4879 234.397 79.0763C235.899 81.6647 236.651 84.5453 236.651 87.7182C236.651 90.9328 235.899 93.8343 234.397 96.4227C232.894 98.9693 230.806 100.973 228.134 102.434C225.504 103.896 222.54 104.626 219.242 104.626ZM219.242 98.1761C221.204 98.1761 222.978 97.7169 224.565 96.7984C226.193 95.88 227.445 94.6275 228.322 93.0411C229.241 91.4546 229.7 89.6803 229.7 87.7182C229.7 85.756 229.241 83.9817 228.322 82.3953C227.445 80.8088 226.193 79.5564 224.565 78.6379C222.978 77.7195 221.204 77.2602 219.242 77.2602C217.28 77.2602 215.505 77.7195 213.919 78.6379C212.333 79.5564 211.08 80.8088 210.162 82.3953C209.243 83.9817 208.784 85.756 208.784 87.7182C208.784 89.6803 209.243 91.4546 210.162 93.0411C211.08 94.6275 212.333 95.88 213.919 96.7984C215.505 97.7169 217.28 98.1761 219.242 98.1761ZM242.418 60.2896C242.418 59.1624 242.773 58.2856 243.483 57.6594C244.192 56.9915 245.027 56.6575 245.988 56.6575C246.948 56.6575 247.783 56.9915 248.492 57.6594C249.202 58.2856 249.557 59.1624 249.557 60.2896V100.744C249.557 101.871 249.202 102.768 248.492 103.436C247.783 104.063 246.948 104.376 245.988 104.376C245.027 104.376 244.192 104.063 243.483 103.436C242.773 102.768 242.418 101.871 242.418 100.744V60.2896ZM287.218 71.2485C288.178 71.2485 289.013 71.5616 289.723 72.1878C290.433 72.814 290.788 73.6908 290.788 74.818V100.806C290.788 101.892 290.433 102.768 289.723 103.436C289.013 104.063 288.178 104.376 287.218 104.376C286.258 104.376 285.402 104.063 284.651 103.436C283.941 102.768 283.586 101.892 283.586 100.806V97.362C282.667 99.6164 281.123 101.391 278.952 102.685C276.781 103.979 274.234 104.626 271.312 104.626C268.139 104.626 265.342 103.875 262.921 102.372C260.499 100.869 258.62 98.8232 257.285 96.2348C255.99 93.6464 255.343 90.7867 255.343 87.6556C255.343 84.4409 256.011 81.5603 257.347 79.0137C258.725 76.467 260.645 74.4631 263.108 73.0019C265.572 71.5407 268.431 70.8101 271.688 70.8101C274.151 70.8101 276.447 71.3946 278.576 72.5636C280.705 73.7325 282.375 75.3398 283.586 77.3855V74.818C283.586 73.6908 283.941 72.814 284.651 72.1878C285.36 71.5616 286.216 71.2485 287.218 71.2485ZM273.128 98.1761C275.132 98.1761 276.906 97.7169 278.451 96.7984C280.037 95.88 281.269 94.6275 282.146 93.0411C283.064 91.4546 283.523 89.6803 283.523 87.7182C283.523 85.756 283.064 84.0026 282.146 82.4579C281.269 80.8715 280.037 79.619 278.451 78.7006C276.906 77.7821 275.132 77.3229 273.128 77.3229C271.124 77.3229 269.308 77.7612 267.68 78.6379C266.093 79.5146 264.841 80.7462 263.923 82.3326C263.046 83.9191 262.607 85.7143 262.607 87.7182C262.607 90.7658 263.589 93.2707 265.551 95.2329C267.513 97.195 270.039 98.1761 273.128 98.1761ZM313.407 71.499C314.158 71.499 314.805 71.7703 315.348 72.3131C315.933 72.8558 316.225 73.5238 316.225 74.317C316.225 75.1102 315.933 75.7782 315.348 76.3209C314.805 76.8636 314.158 77.135 313.407 77.135H308.71V100.744C308.71 101.871 308.355 102.768 307.646 103.436C306.936 104.063 306.101 104.376 305.141 104.376C304.181 104.376 303.325 104.063 302.573 103.436C301.864 102.768 301.509 101.871 301.509 100.744V77.135H298.941C298.19 77.135 297.522 76.8636 296.937 76.3209C296.395 75.7782 296.123 75.1102 296.123 74.317C296.123 73.5655 296.395 72.9184 296.937 72.3757C297.522 71.7912 298.19 71.499 298.941 71.499H301.509V65.2994C301.509 64.1722 301.864 63.2954 302.573 62.6692C303.325 62.043 304.181 61.7299 305.141 61.7299C306.101 61.7299 306.936 62.043 307.646 62.6692C308.355 63.2954 308.71 64.1722 308.71 65.2994V71.499H313.407ZM351.153 85.9647C351.278 87.2172 351.027 88.1774 350.401 88.8454C349.817 89.4716 348.898 89.7847 347.646 89.7847H325.164C325.206 91.4964 325.686 93.0411 326.605 94.4188C327.523 95.7547 328.734 96.7984 330.237 97.5499C331.781 98.3014 333.451 98.6771 335.247 98.6771C338.712 98.6771 341.488 97.2785 343.575 94.4814C344.202 93.6047 344.995 93.1663 345.955 93.1663C346.748 93.1663 347.458 93.5003 348.084 94.1683C348.71 94.7945 349.023 95.5251 349.023 96.3601C349.023 97.0698 348.752 97.7586 348.209 98.4266C346.706 100.264 344.849 101.766 342.636 102.935C340.465 104.063 337.981 104.626 335.184 104.626C331.886 104.626 328.943 103.937 326.354 102.56C323.766 101.14 321.741 99.1572 320.28 96.6106C318.819 94.0639 318.088 91.1207 318.088 87.7808C318.088 84.6079 318.798 81.7273 320.217 79.1389C321.637 76.5505 323.599 74.5257 326.104 73.0645C328.65 71.5616 331.51 70.8101 334.683 70.8101C339.233 70.8101 342.991 72.1878 345.955 74.9432C348.919 77.6568 350.652 81.3307 351.153 85.9647ZM334.683 76.634C332.095 76.634 329.924 77.4272 328.17 79.0137C326.417 80.5583 325.436 82.5414 325.227 84.9628H344.202C343.993 82.5414 343.012 80.5583 341.258 79.0137C339.547 77.4272 337.355 76.634 334.683 76.634ZM382.686 104.626C379.764 104.626 377.238 104.146 375.109 103.186C372.979 102.184 371.268 100.785 369.974 98.9902C369.431 98.197 369.159 97.4246 369.159 96.6732C369.159 95.7547 369.493 94.9615 370.161 94.2935C370.871 93.5838 371.664 93.2289 372.541 93.2289C373.668 93.2289 374.608 93.8134 375.359 94.9824C376.278 96.3183 377.321 97.3203 378.49 97.9882C379.659 98.6562 381.079 98.9902 382.749 98.9902C384.585 98.9902 386.047 98.6562 387.132 97.9882C388.218 97.2785 388.76 96.3183 388.76 95.1076C388.76 93.8969 388.155 92.9785 386.944 92.3522C385.734 91.726 383.813 91.0372 381.183 90.2857C378.72 89.6177 376.716 88.9706 375.171 88.3444C373.627 87.7182 372.291 86.7788 371.163 85.5264C370.078 84.2739 369.535 82.6249 369.535 80.5792C369.535 77.6151 370.704 75.2563 373.042 73.5029C375.422 71.7495 378.386 70.8727 381.934 70.8727C384.314 70.8727 386.548 71.3111 388.635 72.1878C390.764 73.0645 392.413 74.2335 393.582 75.6947C394.208 76.4461 394.522 77.302 394.522 78.2622C394.522 79.0972 394.25 79.8069 393.707 80.3914C393.206 80.9758 392.559 81.2681 391.766 81.2681C390.681 81.2681 389.658 80.7253 388.698 79.6399C386.694 77.4272 384.418 76.3209 381.872 76.3209C380.369 76.3209 379.096 76.6549 378.052 77.3229C377.008 77.9908 376.486 78.8675 376.486 79.953C376.486 81.1637 377.071 82.0613 378.24 82.6458C379.45 83.2302 381.35 83.8773 383.938 84.5871C386.443 85.2133 388.489 85.8604 390.075 86.5283C391.704 87.1546 393.081 88.1357 394.208 89.4716C395.377 90.7658 395.962 92.4984 395.962 94.6693C395.962 97.8004 394.73 100.243 392.267 101.996C389.846 103.75 386.652 104.626 382.686 104.626ZM417.138 104.626C413.84 104.626 410.855 103.896 408.183 102.434C405.553 100.973 403.487 98.9693 401.984 96.4227C400.481 93.8343 399.729 90.9328 399.729 87.7182C399.729 84.5453 400.481 81.6647 401.984 79.0763C403.487 76.4879 405.553 74.4631 408.183 73.0019C410.855 71.5407 413.84 70.8101 417.138 70.8101C420.437 70.8101 423.401 71.5407 426.031 73.0019C428.703 74.4631 430.79 76.4879 432.293 79.0763C433.796 81.6647 434.548 84.5453 434.548 87.7182C434.548 90.9328 433.796 93.8343 432.293 96.4227C430.79 98.9693 428.703 100.973 426.031 102.434C423.401 103.896 420.437 104.626 417.138 104.626ZM417.138 98.1761C419.101 98.1761 420.875 97.7169 422.461 96.7984C424.09 95.88 425.342 94.6275 426.219 93.0411C427.137 91.4546 427.596 89.6803 427.596 87.7182C427.596 85.756 427.137 83.9817 426.219 82.3953C425.342 80.8088 424.09 79.5564 422.461 78.6379C420.875 77.7195 419.101 77.2602 417.138 77.2602C415.176 77.2602 413.402 77.7195 411.816 78.6379C410.229 79.5564 408.977 80.8088 408.058 82.3953C407.14 83.9817 406.681 85.756 406.681 87.7182C406.681 89.6803 407.14 91.4546 408.058 93.0411C408.977 94.6275 410.229 95.88 411.816 96.7984C413.402 97.7169 415.176 98.1761 417.138 98.1761ZM467.305 71.1859C468.307 71.1859 469.163 71.499 469.872 72.1252C470.582 72.7514 470.937 73.6281 470.937 74.7553V100.744C470.937 101.829 470.561 102.706 469.81 103.374C469.1 104 468.265 104.313 467.305 104.313C466.345 104.313 465.489 104 464.737 103.374C464.028 102.706 463.673 101.829 463.673 100.744V98.8023C462.629 100.681 461.21 102.142 459.414 103.186C457.619 104.188 455.469 104.689 452.964 104.689C450.585 104.689 448.393 104.188 446.389 103.186C444.427 102.184 442.84 100.618 441.63 98.4892C440.461 96.3601 439.876 93.7091 439.876 90.5362V74.8806C439.876 73.7116 440.231 72.814 440.941 72.1878C441.692 71.5198 442.548 71.1859 443.508 71.1859C444.469 71.1859 445.304 71.5198 446.013 72.1878C446.765 72.814 447.14 73.7116 447.14 74.8806V89.4716C447.14 92.6445 447.892 94.9615 449.395 96.4227C450.94 97.8421 452.86 98.5519 455.156 98.5519C457.745 98.5519 459.79 97.7378 461.293 96.1096C462.838 94.4396 463.631 92.1017 463.673 89.0959V74.7553C463.673 73.6281 464.028 72.7514 464.737 72.1252C465.447 71.499 466.303 71.1859 467.305 71.1859ZM493.007 71.3737C494.301 71.2485 495.282 71.499 495.95 72.1252C496.618 72.7097 496.952 73.4194 496.952 74.2544C496.952 75.0893 496.639 75.8617 496.012 76.5714C495.386 77.2394 494.363 77.5942 492.944 77.636C490.606 77.6777 488.769 78.3039 487.433 79.5146C486.139 80.7253 485.492 82.437 485.492 84.6497V100.744C485.492 101.871 485.137 102.768 484.427 103.436C483.718 104.063 482.883 104.376 481.922 104.376C480.962 104.376 480.127 104.063 479.417 103.436C478.708 102.768 478.353 101.871 478.353 100.744V74.7553C478.353 73.6281 478.708 72.7514 479.417 72.1252C480.127 71.499 480.962 71.1859 481.922 71.1859C482.883 71.1859 483.718 71.499 484.427 72.1252C485.137 72.7514 485.492 73.6281 485.492 74.7553V76.1957C487.037 73.2733 489.541 71.666 493.007 71.3737ZM530.001 56.6575C530.961 56.6575 531.796 56.9915 532.506 57.6594C533.215 58.2856 533.57 59.1624 533.57 60.2896V100.744C533.57 101.871 533.215 102.768 532.506 103.436C531.796 104.063 530.961 104.376 530.001 104.376C529.04 104.376 528.205 104.063 527.496 103.436C526.786 102.768 526.431 101.871 526.431 100.744V97.362C525.513 99.6164 523.968 101.391 521.797 102.685C519.626 103.979 517.08 104.626 514.157 104.626C510.984 104.626 508.187 103.875 505.766 102.372C503.344 100.869 501.466 98.8232 500.13 96.2348C498.836 93.6464 498.188 90.7867 498.188 87.6556C498.188 84.4409 498.856 81.5603 500.192 79.0137C501.57 76.467 503.491 74.4631 505.954 73.0019C508.417 71.5407 511.277 70.8101 514.533 70.8101C516.996 70.8101 519.292 71.3946 521.421 72.5636C523.551 73.7325 525.22 75.3398 526.431 77.3855V60.2896C526.431 59.1624 526.786 58.2856 527.496 57.6594C528.205 56.9915 529.04 56.6575 530.001 56.6575ZM515.973 98.1761C517.977 98.1761 519.751 97.7169 521.296 96.7984C522.883 95.88 524.114 94.6275 524.991 93.0411C525.909 91.4546 526.369 89.6803 526.369 87.7182C526.369 85.756 525.909 84.0026 524.991 82.4579C524.114 80.8715 522.883 79.619 521.296 78.7006C519.751 77.7821 517.977 77.3229 515.973 77.3229C513.969 77.3229 512.153 77.7612 510.525 78.6379C508.939 79.5146 507.686 80.7462 506.768 82.3326C505.891 83.9191 505.453 85.7143 505.453 87.7182C505.453 90.7658 506.434 93.2707 508.396 95.2329C510.358 97.195 512.884 98.1761 515.973 98.1761ZM556.755 104.626C553.457 104.626 550.472 103.896 547.8 102.434C545.169 100.973 543.103 98.9693 541.6 96.4227C540.097 93.8343 539.346 90.9328 539.346 87.7182C539.346 84.5453 540.097 81.6647 541.6 79.0763C543.103 76.4879 545.169 74.4631 547.8 73.0019C550.472 71.5407 553.457 70.8101 556.755 70.8101C560.053 70.8101 563.017 71.5407 565.647 73.0019C568.319 74.4631 570.406 76.4879 571.909 79.0763C573.412 81.6647 574.164 84.5453 574.164 87.7182C574.164 90.9328 573.412 93.8343 571.909 96.4227C570.406 98.9693 568.319 100.973 565.647 102.434C563.017 103.896 560.053 104.626 556.755 104.626ZM556.755 98.1761C558.717 98.1761 560.491 97.7169 562.078 96.7984C563.706 95.88 564.958 94.6275 565.835 93.0411C566.753 91.4546 567.213 89.6803 567.213 87.7182C567.213 85.756 566.753 83.9817 565.835 82.3953C564.958 80.8088 563.706 79.5564 562.078 78.6379C560.491 77.7195 558.717 77.2602 556.755 77.2602C554.792 77.2602 553.018 77.7195 551.432 78.6379C549.845 79.5564 548.593 80.8088 547.674 82.3953C546.756 83.9817 546.297 85.756 546.297 87.7182C546.297 89.6803 546.756 91.4546 547.674 93.0411C548.593 94.6275 549.845 95.88 551.432 96.7984C553.018 97.7169 554.792 98.1761 556.755 98.1761ZM606.921 71.1859C607.923 71.1859 608.779 71.499 609.489 72.1252C610.198 72.7514 610.553 73.6281 610.553 74.7553V100.744C610.553 101.829 610.177 102.706 609.426 103.374C608.716 104 607.881 104.313 606.921 104.313C605.961 104.313 605.105 104 604.354 103.374C603.644 102.706 603.289 101.829 603.289 100.744V98.8023C602.245 100.681 600.826 102.142 599.031 103.186C597.235 104.188 595.085 104.689 592.581 104.689C590.201 104.689 588.009 104.188 586.005 103.186C584.043 102.184 582.457 100.618 581.246 98.4892C580.077 96.3601 579.492 93.7091 579.492 90.5362V74.8806C579.492 73.7116 579.847 72.814 580.557 72.1878C581.308 71.5198 582.164 71.1859 583.125 71.1859C584.085 71.1859 584.92 71.5198 585.629 72.1878C586.381 72.814 586.757 73.7116 586.757 74.8806V89.4716C586.757 92.6445 587.508 94.9615 589.011 96.4227C590.556 97.8421 592.476 98.5519 594.772 98.5519C597.361 98.5519 599.406 97.7378 600.909 96.1096C602.454 94.4396 603.247 92.1017 603.289 89.0959V74.7553C603.289 73.6281 603.644 72.7514 604.354 72.1252C605.063 71.499 605.919 71.1859 606.921 71.1859ZM648.153 71.1859C649.113 71.1859 649.927 71.499 650.595 72.1252C651.305 72.7514 651.66 73.6281 651.66 74.7553V100.869C651.66 106.63 650.053 111.139 646.838 114.395C643.665 117.693 639.302 119.342 633.75 119.342C631.495 119.342 629.283 119.05 627.112 118.466C624.983 117.923 623.125 117.192 621.538 116.274C620.871 115.898 620.37 115.418 620.036 114.834C619.702 114.291 619.535 113.727 619.535 113.143C619.535 112.391 619.785 111.744 620.286 111.202C620.829 110.701 621.518 110.45 622.353 110.45C622.687 110.45 623.083 110.534 623.542 110.701C624.043 110.868 624.565 111.055 625.108 111.264C626.527 111.849 627.822 112.287 628.991 112.579C630.201 112.913 631.621 113.08 633.249 113.08C636.964 113.08 639.762 112.037 641.64 109.949C643.561 107.862 644.521 104.835 644.521 100.869V97.362C643.602 99.6164 642.058 101.391 639.887 102.685C637.716 103.979 635.169 104.626 632.247 104.626C629.074 104.626 626.277 103.875 623.856 102.372C621.434 100.869 619.555 98.8232 618.22 96.2348C616.925 93.6464 616.278 90.7867 616.278 87.6556C616.278 84.4409 616.946 81.5603 618.282 79.0137C619.66 76.467 621.58 74.4631 624.043 73.0019C626.507 71.5407 629.366 70.8101 632.623 70.8101C635.086 70.8101 637.382 71.3946 639.511 72.5636C641.64 73.7325 643.31 75.3398 644.521 77.3855V74.9432C644.521 73.7743 644.876 72.8558 645.585 72.1878C646.295 71.5198 647.151 71.1859 648.153 71.1859ZM634.063 98.1761C636.067 98.1761 637.841 97.7169 639.386 96.7984C640.972 95.88 642.204 94.6275 643.081 93.0411C643.999 91.4546 644.458 89.6803 644.458 87.7182C644.458 85.756 643.999 84.0026 643.081 82.4579C642.204 80.8715 640.972 79.619 639.386 78.7006C637.841 77.7821 636.067 77.3229 634.063 77.3229C632.059 77.3229 630.243 77.7612 628.615 78.6379C627.028 79.5146 625.776 80.7462 624.857 82.3326C623.981 83.9191 623.542 85.7143 623.542 87.7182C623.542 90.7658 624.523 93.2707 626.486 95.2329C628.448 97.195 630.974 98.1761 634.063 98.1761ZM676.974 70.8101C679.353 70.8101 681.545 71.332 683.549 72.3757C685.553 73.3776 687.139 74.9432 688.308 77.0724C689.519 79.1598 690.124 81.7899 690.124 84.9628V100.618C690.124 101.787 689.748 102.706 688.997 103.374C688.287 104.042 687.452 104.376 686.492 104.376C685.532 104.376 684.676 104.042 683.925 103.374C683.215 102.706 682.86 101.787 682.86 100.618V86.0274C682.86 82.8128 682.088 80.5166 680.543 79.1389C679.04 77.7195 677.14 77.0097 674.844 77.0097C672.214 77.0097 670.127 77.8447 668.582 79.5146C667.079 81.1846 666.307 83.4807 666.265 86.4031V100.744C666.265 101.871 665.91 102.768 665.2 103.436C664.491 104.063 663.656 104.376 662.696 104.376C661.735 104.376 660.9 104.063 660.191 103.436C659.481 102.768 659.126 101.871 659.126 100.744V60.2896C659.126 59.1624 659.481 58.2856 660.191 57.6594C660.9 56.9915 661.735 56.6575 662.696 56.6575C663.656 56.6575 664.491 56.9915 665.2 57.6594C665.91 58.2856 666.265 59.1624 666.265 60.2896V76.8219C667.309 74.8597 668.728 73.3776 670.523 72.3757C672.319 71.332 674.469 70.8101 676.974 70.8101Z" fill="#0038FF"/>
<path d="M829.288 104H818.391C815.949 104 814.571 102.622 814.571 100.18V63.3581C814.571 60.9158 815.949 59.5381 818.391 59.5381H829.288C843.127 59.5381 851.456 69.3072 851.456 81.769C851.456 94.2309 843.127 104 829.288 104ZM821.898 66.1761V97.362H829.288C838.18 97.362 844.129 91.6634 844.129 81.769C844.129 71.8747 838.18 66.1761 829.288 66.1761H821.898ZM872.747 71.3737C875.565 71.1232 876.692 72.7514 876.692 74.2544C876.692 75.5068 875.878 77.5733 872.684 77.636C868.113 77.6986 865.232 80.1409 865.232 84.6497V100.744C865.232 103.123 863.479 104.376 861.662 104.376C859.909 104.376 858.093 103.123 858.093 100.744V74.7553C858.093 72.3757 859.909 71.1859 861.662 71.1859C863.479 71.1859 865.232 72.3757 865.232 74.7553V76.1957C866.672 73.5029 869.052 71.6868 872.747 71.3737ZM895.338 104.626C885.318 104.626 877.929 97.4873 877.929 87.7182C877.929 78.0117 885.318 70.8101 895.338 70.8101C905.357 70.8101 912.747 78.0117 912.747 87.7182C912.747 97.4873 905.357 104.626 895.338 104.626ZM895.338 98.1761C901.349 98.1761 905.796 93.6673 905.796 87.7182C905.796 81.769 901.349 77.2602 895.338 77.2602C889.389 77.2602 884.88 81.769 884.88 87.7182C884.88 93.6673 889.389 98.1761 895.338 98.1761ZM937.927 70.8727C947.821 70.8727 953.896 78.5127 953.896 87.8434C953.896 97.4246 947.571 104.689 937.551 104.689C932.729 104.689 928.095 102.309 925.653 98.1135V115.397C925.653 117.714 923.899 118.967 922.083 118.967C920.33 118.967 918.514 117.714 918.514 115.397V74.7553C918.514 72.3757 920.33 71.1859 922.083 71.1859C923.899 71.1859 925.653 72.3757 925.653 74.7553V78.1369C927.531 73.6281 932.103 70.8727 937.927 70.8727ZM936.111 98.1761C942.248 98.1761 946.694 93.8552 946.694 87.7808C946.694 81.6438 942.248 77.3229 936.111 77.3229C930.036 77.3229 925.715 81.8317 925.715 87.7808C925.715 93.6673 930.036 98.1761 936.111 98.1761ZM988.4 97.5499H995.289C997.042 97.5499 998.545 98.9902 998.545 100.744C998.545 102.56 997.042 104 995.289 104H974.248C972.494 104 970.991 102.56 970.991 100.744C970.991 98.9902 972.494 97.5499 974.248 97.5499H981.074V66.8649L975.375 68.4305C975.062 68.4931 974.749 68.5557 974.436 68.5557C972.62 68.5557 971.555 66.9902 971.555 65.4246C971.555 64.0469 972.369 62.6692 974.123 62.1682L984.455 59.4129C984.894 59.2876 985.269 59.2876 985.582 59.2876C987.336 59.2876 988.4 60.5401 988.4 62.6066V97.5499Z" fill="#0038FF"/>
<path d="M223.048 687.707C225.357 691.931 228.997 696.022 229.33 700.697C228.489 716.04 283.599 720.769 296.865 726.266C323.02 737.105 369.08 730.68 397.067 730.046C449.081 728.869 502.185 732.303 554.269 732.868C598.054 733.343 642.353 734.104 686.02 735.216L686.613 735.231C726.426 736.246 776.042 737.51 813.706 726.672C842.652 718.342 851.565 699.333 857.686 677.709C866.753 645.672 863.754 609.537 865.553 576.709L868.966 514.457C870.093 493.898 876.342 469.204 868.062 448.939C861.914 433.893 855.749 420.3 846.257 406.25C837.89 393.864 818.395 382.248 805.456 372.925C787.567 360.036 761.548 353.494 741.861 342.303C728.106 334.485 714.65 328.439 697.814 325.662C644.043 316.794 589.843 314.097 535.514 309.52C489.307 305.627 444.232 303.309 397.648 303.28C364.595 303.259 333.143 304.284 303.996 316.72C274.391 329.351 255.05 355.69 237.88 377.642C205.219 419.401 182.248 466.025 179.513 515.918C177.803 547.112 175.381 577.917 186.925 608.534C196.971 635.179 209.066 662.133 223.048 687.707Z" fill="#0038FF"/>
<path d="M454.699 321.383C443.844 321.693 434.388 326.037 425.435 330.589C404.706 341.127 383.191 350.848 365.706 365.148C356.12 372.989 318.349 413.404 333.934 425.891C341.736 432.143 376.841 420.324 383.957 418.483C409.989 411.747 432.075 402.857 449.908 385.715C470.543 365.88 481.902 345.684 510.395 331.555C518.628 327.472 535.181 316.22 529.336 331.934C516.394 366.732 499.571 395.411 472.189 423.188C453.308 442.34 482.038 453.726 502.079 445.786C545.689 428.508 549.125 399.873 564.658 367.881C573.887 348.872 589.704 339.542 607.961 327.412C616.286 321.88 613.335 333.145 613.113 337.186C612.47 348.918 613.935 362.151 608.304 373.042C604.115 381.142 580.773 422.297 592.329 430.96C614.803 447.807 658.721 408.26 661.197 391.101C663.984 371.788 662.27 352.429 661.682 333.257C661.072 313.378 645.368 312.853 625.883 311.785C572.88 308.879 518.781 315.405 466.561 312.542" stroke="#FFEED8" stroke-width="4.85227" stroke-linecap="round"/>
<path d="M428.197 926.145C420.408 926.145 413.428 924.345 407.256 920.745C401.157 917.071 396.381 912.185 392.927 906.086C389.548 899.914 387.858 893.154 387.858 885.806C387.858 878.532 389.548 871.846 392.927 865.747C396.307 859.648 401.047 854.799 407.145 851.198C413.244 847.525 420.188 845.688 427.976 845.688C433.193 845.688 437.859 846.349 441.974 847.671C446.162 848.921 449.689 850.611 452.554 852.741C454.244 853.991 455.493 855.387 456.302 856.93C457.11 858.399 457.514 859.905 457.514 861.448C457.514 863.653 456.706 865.563 455.089 867.18C453.546 868.796 451.562 869.604 449.138 869.604C446.786 869.604 444.398 868.759 441.974 867.069C440.284 865.894 438.263 864.939 435.912 864.204C433.56 863.396 431.025 862.991 428.307 862.991C424.045 862.991 420.261 863.983 416.955 865.967C413.648 867.951 411.076 870.707 409.239 874.234C407.476 877.76 406.594 881.728 406.594 886.137C406.594 890.472 407.439 894.366 409.129 897.82C410.819 901.2 413.281 903.882 416.514 905.866C419.747 907.849 423.531 908.841 427.866 908.841C432.495 908.841 436.463 907.739 439.769 905.535C443.076 903.257 445.464 900.134 446.933 896.166H426.433C423.861 896.166 421.841 895.358 420.371 893.742C418.975 892.125 418.277 890.178 418.277 887.9C418.277 885.696 418.975 883.786 420.371 882.169C421.841 880.479 423.861 879.634 426.433 879.634H457.073C460.086 879.634 462.364 880.479 463.907 882.169C465.523 883.859 466.331 886.357 466.331 889.664C466.331 890.325 466.258 891.464 466.111 893.08C465.45 898.15 463.613 903.22 460.6 908.29C457.588 913.36 453.326 917.622 447.815 921.075C442.378 924.455 435.838 926.145 428.197 926.145ZM498.991 891.868H498.88C497.999 891.758 497.337 890.986 497.448 890.105L499.542 871.809C499.652 870.927 500.534 870.266 501.415 870.376C502.297 870.486 502.848 871.368 502.738 872.25L500.644 890.435C500.534 891.317 499.872 891.868 498.991 891.868ZM511.445 834.446C511.225 834.446 511.004 834.446 511.004 834.446C497.558 835.437 477.278 861.228 471.437 884.704C468.791 895.726 468.13 910.605 480.805 918.43C484.552 920.634 488.189 921.847 491.716 921.847C498.219 921.847 504.391 918.21 510.233 910.935C523.459 894.513 530.182 864.865 526.985 850.317C523.789 835.548 514.311 834.446 511.445 834.446ZM530.953 858.473C530.953 874.895 524.23 898.701 512.768 913.03C506.375 920.855 499.101 925.043 491.716 925.043C487.528 925.043 483.34 923.72 479.152 921.186C468.02 914.242 464.162 901.016 468.351 883.933C474.523 858.913 495.905 832.351 510.673 831.249C510.673 831.249 511.004 831.249 511.445 831.249C513.87 831.249 526.324 832.131 530.072 849.655C530.623 852.19 530.953 855.166 530.953 858.473ZM557.005 891.868H556.894C556.013 891.758 555.351 890.986 555.462 890.105L557.556 871.809C557.666 870.927 558.548 870.266 559.429 870.376C560.311 870.486 560.862 871.368 560.752 872.25L558.658 890.435C558.548 891.317 557.886 891.868 557.005 891.868ZM569.459 834.446C569.239 834.446 569.018 834.446 569.018 834.446C555.572 835.437 535.292 861.228 529.451 884.704C526.805 895.726 526.144 910.605 538.819 918.43C542.566 920.634 546.203 921.847 549.73 921.847C556.233 921.847 562.405 918.21 568.247 910.935C581.473 894.513 588.196 864.865 585 850.317C581.803 835.548 572.325 834.446 569.459 834.446ZM588.967 858.473C588.967 874.895 582.244 898.701 570.782 913.03C564.389 920.855 557.115 925.043 549.73 925.043C545.542 925.043 541.354 923.72 537.166 921.186C526.034 914.242 522.176 901.016 526.365 883.933C532.537 858.913 553.919 832.351 568.688 831.249C568.688 831.249 569.018 831.249 569.459 831.249C571.884 831.249 584.338 832.131 588.086 849.655C588.637 852.19 588.967 855.166 588.967 858.473ZM602.454 925.043C599.295 925.043 596.87 924.198 595.18 922.508C593.49 920.818 592.645 918.393 592.645 915.234V856.599C592.645 853.366 593.49 850.941 595.18 849.325C596.87 847.635 599.295 846.79 602.454 846.79H620.53C628.833 846.79 636.033 848.516 642.132 851.97C648.304 855.35 653.007 860.016 656.24 865.967C659.473 871.919 661.089 878.569 661.089 885.916C661.089 893.264 659.473 899.914 656.24 905.866C653.007 911.817 648.304 916.52 642.132 919.973C636.033 923.353 628.833 925.043 620.53 925.043H602.454ZM620.53 908.07C627.216 908.07 632.506 906.27 636.401 902.669C640.368 898.995 642.352 893.411 642.352 885.916C642.352 878.422 640.368 872.874 636.401 869.274C632.506 865.6 627.216 863.763 620.53 863.763H611.382V908.07H620.53Z" fill="#0033E6"/>
<path d="M514.055 929.895C514.236 931.495 516.754 935.219 517.928 936.085C520.456 937.95 521.311 936.907 523.913 936.907C527.8 936.907 529.589 932.137 530.954 929.115" stroke="#0033E6" stroke-width="2.20432" stroke-linecap="round"/>
<path d="M571.521 817.992C572.716 819.319 573.489 820.334 575.119 821.328C576.692 822.287 578.838 822.954 580.701 822.954" stroke="#0033E6" stroke-width="2.20432" stroke-linecap="round"/>
<path d="M510.739 817C509.934 817 509.132 817.619 508.451 817.992C507.111 818.727 505.693 819.395 504.261 819.922C503.032 820.374 501.627 820.722 500.319 820.722" stroke="#0033E6" stroke-width="2.20432" stroke-linecap="round"/>
<path d="M423.223 949.186C427.996 949.186 432.149 950.333 435.682 952.626C439.215 954.92 441.881 958.019 443.678 961.924C445.538 965.829 446.468 970.106 446.468 974.755C446.468 979.59 445.507 983.929 443.585 987.772C441.664 991.553 438.874 994.56 435.217 996.791C431.622 998.96 427.345 1000.05 422.386 1000.05C419.597 1000.05 416.839 999.487 414.111 998.372C411.384 997.194 409.152 995.489 407.417 993.258C407.169 995.303 406.301 996.915 404.813 998.093C403.388 999.208 401.714 999.766 399.793 999.766C397.747 999.766 395.949 999.084 394.4 997.721C392.85 996.357 392.075 994.467 392.075 992.049V936.262C392.075 933.845 392.85 931.954 394.4 930.591C395.949 929.227 397.747 928.545 399.793 928.545C401.9 928.545 403.698 929.227 405.185 930.591C406.735 931.954 407.51 933.845 407.51 936.262V957.275C408.564 954.734 410.485 952.75 413.274 951.325C416.126 949.899 419.442 949.186 423.223 949.186ZM419.132 986.099C422.603 986.099 425.424 985.045 427.593 982.937C429.762 980.768 430.847 977.978 430.847 974.569C430.847 971.16 429.762 968.402 427.593 966.294C425.424 964.125 422.603 963.04 419.132 963.04C415.785 963.04 413.026 964.125 410.857 966.294C408.687 968.402 407.603 971.16 407.603 974.569C407.603 977.978 408.687 980.768 410.857 982.937C413.026 985.045 415.785 986.099 419.132 986.099ZM476.793 950.023C477.165 949.961 477.692 949.93 478.374 949.93C480.419 949.93 482.031 950.519 483.208 951.697C484.386 952.874 484.975 954.3 484.975 955.974C484.975 957.833 484.262 959.507 482.836 960.994C481.473 962.482 479.427 963.35 476.7 963.598C471.493 964.094 468.89 966.883 468.89 971.966V992.049C468.89 994.467 468.115 996.357 466.565 997.721C465.078 999.084 463.28 999.766 461.173 999.766C459.127 999.766 457.33 999.084 455.78 997.721C454.23 996.357 453.455 994.467 453.455 992.049V957.089C453.455 954.672 454.23 952.781 455.78 951.418C457.33 950.054 459.127 949.372 461.173 949.372C463.032 949.372 464.675 949.899 466.1 950.953C467.526 952.007 468.394 953.494 468.704 955.416C470.687 952.378 473.384 950.581 476.793 950.023ZM537.3 971.036C537.362 971.346 537.393 971.842 537.393 972.524C537.393 974.693 536.68 976.367 535.254 977.545C533.891 978.66 532.031 979.218 529.676 979.218H502.433C502.743 981.512 503.89 983.433 505.873 984.983C507.919 986.47 510.367 987.214 513.218 987.214C516.814 987.214 519.696 986.037 521.865 983.681C523.415 982.069 525.089 981.264 526.886 981.264C528.684 981.264 530.233 981.915 531.535 983.216C532.899 984.518 533.581 986.037 533.581 987.772C533.581 989.384 532.899 990.902 531.535 992.328C529.118 994.745 526.328 996.636 523.167 998C520.068 999.301 516.721 999.952 513.126 999.952C508.043 999.952 503.518 998.898 499.551 996.791C495.584 994.683 492.484 991.739 490.253 987.958C488.021 984.115 486.906 979.714 486.906 974.755C486.906 969.858 487.99 965.457 490.16 961.552C492.329 957.647 495.336 954.61 499.179 952.44C503.022 950.209 507.392 949.093 512.289 949.093C518.921 949.093 524.469 950.953 528.932 954.672C533.457 958.391 536.246 963.846 537.3 971.036ZM512.289 961.459C509.499 961.459 507.175 962.141 505.315 963.505C503.456 964.869 502.464 966.728 502.34 969.084H522.33C522.082 966.79 521.029 964.962 519.169 963.598C517.31 962.172 515.016 961.459 512.289 961.459ZM587.881 949.465C589.988 949.465 591.817 950.147 593.366 951.511C594.916 952.812 595.691 954.703 595.691 957.182V991.956C595.691 994.374 594.916 996.264 593.366 997.628C591.817 998.991 589.988 999.673 587.881 999.673C585.773 999.673 583.944 998.991 582.395 997.628C580.845 996.264 580.07 994.374 580.07 991.956V991.863C579.017 994.405 577.064 996.388 574.213 997.814C571.423 999.239 568.138 999.952 564.357 999.952C559.584 999.952 555.431 998.806 551.898 996.512C548.365 994.219 545.669 991.119 543.809 987.214C542.011 983.309 541.113 979.032 541.113 974.383C541.113 969.548 542.073 965.24 543.995 961.459C545.916 957.616 548.675 954.61 552.27 952.44C555.927 950.209 560.235 949.093 565.194 949.093C567.983 949.093 570.742 949.682 573.469 950.86C576.196 951.976 578.428 953.649 580.163 955.881C580.473 953.835 581.341 952.255 582.767 951.139C584.254 950.023 585.959 949.465 587.881 949.465ZM568.448 986.099C571.795 986.099 574.554 985.045 576.723 982.937C578.893 980.768 579.977 977.978 579.977 974.569C579.977 971.16 578.893 968.402 576.723 966.294C574.554 964.125 571.795 963.04 568.448 963.04C564.977 963.04 562.157 964.125 559.987 966.294C557.818 968.402 556.733 971.16 556.733 974.569C556.733 977.978 557.818 980.768 559.987 982.937C562.157 985.045 564.977 986.099 568.448 986.099ZM649.349 928.545C651.457 928.545 653.254 929.227 654.742 930.591C656.292 931.954 657.066 933.845 657.066 936.262V992.049C657.066 994.467 656.292 996.357 654.742 997.721C653.254 999.084 651.457 999.766 649.349 999.766C647.304 999.766 645.506 999.084 643.956 997.721C642.407 996.357 641.632 994.467 641.632 992.049V991.863C640.578 994.405 638.626 996.388 635.774 997.814C632.985 999.239 629.7 999.952 625.919 999.952C621.146 999.952 616.993 998.806 613.46 996.512C609.927 994.219 607.23 991.119 605.371 987.214C603.573 983.309 602.674 979.032 602.674 974.383C602.674 969.548 603.635 965.24 605.557 961.459C607.478 957.616 610.236 954.61 613.832 952.44C617.489 950.209 621.797 949.093 626.756 949.093C629.545 949.093 632.272 949.651 634.938 950.767C637.665 951.883 639.896 953.525 641.632 955.695V936.262C641.632 933.845 642.407 931.954 643.956 930.591C645.506 929.227 647.304 928.545 649.349 928.545ZM630.01 986.099C633.357 986.099 636.115 985.045 638.285 982.937C640.454 980.768 641.539 977.978 641.539 974.569C641.539 971.16 640.454 968.402 638.285 966.294C636.115 964.125 633.357 963.04 630.01 963.04C626.539 963.04 623.718 964.125 621.549 966.294C619.379 968.402 618.295 971.16 618.295 974.569C618.295 977.978 619.379 980.768 621.549 982.937C623.718 985.045 626.539 986.099 630.01 986.099Z" fill="#0033E6"/>
</svg>
