<svg width="1049" height="1186" viewbox="0 0 1049 1186" fill="none" xmlns="http://www.w3.org/2000/svg">
  <rect width="1049" height="1186" fill="#C8B5FF"/>
  <path d="M175.187 469.084C178.991 463.612 186.429 449.291 193.047 447.326C205.434 434.362 238.019 422.591 246.914 417.034C261.275 408.062 272.566 391.061 288.01 383.482C300.193 377.504 311.407 370.497 324.962 367.252C344.076 362.676 363.555 361.463 382.77 358.381C386.235 357.825 408.426 355.141 409.584 360.011C411.11 366.429 410.379 373.029 407.26 378.975C405.535 382.262 402.025 389.95 400.314 393.694C403.666 387.734 412.468 383.661 416.489 378.481C422.195 371.13 436.804 366.576 444.833 363.708C455.903 359.754 467.337 356.685 478.313 352.581C492.463 347.292 575.923 326.873 574.763 355.31C574.382 364.648 575.905 360.127 582.388 356.358C589.222 352.384 597.28 350.55 603.768 345.704C620.989 332.841 640.354 320.132 662.081 316.225C683.081 312.449 703.945 311.16 724.786 308.176C742.384 305.657 758.353 311.061 774.536 317.778C806.352 330.984 840.337 342.898 847.104 380.53C850.127 397.345 850.063 414.931 853.108 431.865C854.256 438.25 855.031 444.477 857.694 450.393C858.647 452.512 862.08 465.473 863.135 458.733C863.649 455.454 864.734 453.443 866.133 450.489C872.146 437.793 887.417 452.26 889.111 461.678C894.22 490.098 900.58 519.577 902.791 548.726C905.036 578.339 909.105 608.763 914.368 638.034C916.711 651.066 919.562 656.539 927.454 665.965C929.29 668.158 931.636 667.266 927.944 669.192C922.553 672.004 915.876 673.304 911.082 677.062C902.566 683.737 891.659 688.168 882.551 694.288C874.685 699.572 862.49 703.018 853.315 705.611L853.061 705.682C835.596 710.618 817.42 713.152 799.83 717.583C788.576 720.417 773.535 726.804 761.671 725.609C740.506 723.476 715.733 733.695 693.837 735.027C645.103 737.994 595.976 745.554 547.083 744.032C513.39 742.983 479.964 737.985 446.418 734.804C418.762 732.181 390.997 733.929 363.339 735.675C337.764 737.288 312.207 738.894 286.617 740.509C268.687 741.641 251 745.854 232.996 745.76C219.685 745.69 207.942 746.112 197.021 738.52C188.548 732.63 182.619 719.944 180.654 710.283C179.126 702.768 176.919 694.434 177.687 686.804C178.319 680.528 180.103 671.337 178.992 665.156C176.952 653.814 170.943 647.298 168.827 635.535C166.398 622.024 165.584 608.524 163.149 594.982C161.323 584.826 157.961 575.096 156.172 565.147C154.339 554.953 142.051 549.397 140.196 539.079C137.153 522.155 139.759 512.18 149.718 497.855C157.046 487.313 167.86 479.624 175.187 469.084Z" fill="#0038FF" stroke="#C8B5FF" stroke-width="5.50199" stroke-linecap="round"/>
  <path d="M194.025 646.281C210.095 633.798 228.659 621.681 235.62 601.67C239.685 589.981 241.122 578.285 243.148 566.206C244.759 556.6 247.063 547.724 252.598 539.561C258.776 530.451 265.674 522.083 271.309 512.575C276.21 504.304 281.399 496.207 286.426 488.012C292.206 478.59 296.669 468.335 303.238 459.471C304.968 457.137 306.83 454.987 309.152 453.252C318.199 446.494 328.041 440.633 337.436 434.361C343.797 430.114 350.509 426.417 356.984 422.353C360.955 419.861 364.49 416.654 368.156 413.747C371.284 411.267 371.587 408.837 372.935 405.501C373.292 404.616 374.325 400.343 373.135 399.698C372.162 399.17 370.633 399.317 369.511 399.204C364.267 398.676 358.978 399.495 353.81 400.309C344.755 401.734 335.74 403.5 326.816 405.616C317.906 407.73 309.813 411.669 301.887 416.142C294.732 420.181 288.401 426.244 282.881 432.26C278.622 436.901 274.319 441.519 270.951 446.868C267.594 452.197 263.901 458.453 263.651 464.929C263.246 475.411 263.113 486.125 261.487 496.505C259.908 506.588 256.717 516.37 255.039 526.442C254.3 530.874 251.026 536.203 251.819 540.61" stroke="#C8B5FF" stroke-width="4.9623" stroke-linecap="round"/>
  <path d="M330.865 563.015C342.596 549.726 357.282 539.196 370.445 527.417C380.436 518.476 389.66 509.466 397.764 498.764C404.101 490.396 409.02 481.213 414.471 472.276C424.282 456.192 436.757 442.705 451.023 430.488C463.664 419.662 477.628 410.824 491.515 401.718C501.14 395.406 509.898 387.968 519.528 381.651C523.413 379.102 527.53 376.649 531.059 373.613C532.49 372.382 534.355 370.644 534.38 368.572C534.437 363.825 530.372 363.021 526.302 362.202C511.728 359.273 496.312 362.705 482.057 365.812C470.042 368.432 458.562 372.747 447.851 378.796C435.605 385.713 424.492 395.298 414.462 405.104C402.44 416.857 390.386 430.093 381.829 444.627C377.305 452.311 374.354 460.255 372.249 468.906C370.146 477.55 367.877 486.059 366.466 494.852C364.947 504.314 363.709 513.396 360.175 522.37C356.812 530.913 353.543 540.11 347.17 546.929C344.363 549.932 340.811 552.589 337.425 554.903C335.684 556.092 334.031 557.504 332.188 558.511" stroke="#C8B5FF" stroke-width="4.9623" stroke-linecap="round"/>
  <path d="M336.59 579.052C326.254 580.91 320.661 593.76 319.064 602.961C316.971 615.026 321.925 625.056 329.937 633.774C333.403 637.545 337.822 642.369 343.106 643.415C351.1 644.997 360.808 640.651 368.078 638.174C380.242 634.03 392.361 627.571 401.007 617.875C409.262 608.617 414.797 597.472 418.495 585.736C424.943 565.271 431.238 544.609 442.335 526.087C451.642 510.552 463.366 496.343 475.2 482.69C487.698 468.271 501.418 455.304 515.634 442.613C523.906 435.229 532.493 428.432 541.207 421.602C543.725 419.628 546.538 417.693 548.088 414.835C549.967 411.369 552.434 408.018 551.455 403.899C550.028 397.898 544.387 395.77 538.891 397.626C529.654 400.744 520.524 405.681 511.975 410.287C506.679 413.14 501.658 416.417 496.649 419.738C491.117 423.405 485.415 427.021 480.47 431.476C472.312 438.824 465.062 447.223 459.08 456.416C454.426 463.566 450.406 471.099 445.92 478.355C435.88 494.598 422.157 508.902 407.99 521.596C394.851 533.37 380.9 544.501 366.762 555.061C356.722 562.56 346.727 570.005 335.904 576.331C333.472 577.752 330.92 579.002 328.326 580.103C328.01 580.237 326.536 580.702 326.349 580.972C326.258 581.104 328.866 581.863 329.261 581.792" stroke="#C8B5FF" stroke-width="4.9623" stroke-linecap="round"/>
  <path d="M463.413 703.079C468.767 699.08 473.057 694.457 476.558 688.747C480.083 682.998 482.841 676.724 485.576 670.574C488.628 663.71 491.714 656.827 494.363 649.796C497.439 641.63 500.285 633.303 502.521 624.865C504.864 616.02 505.963 607.042 507.171 597.996C509.356 581.629 514.567 565.856 517.965 549.719C520.259 538.828 523.509 528.272 527.152 517.769C530.098 509.28 530.988 500.318 533.866 491.834C536.305 484.644 539.613 477.609 544.754 471.981C552.587 463.407 562.687 458.075 572.652 452.369C584.653 445.497 597.074 439.195 608.468 431.314C617.515 425.056 626.246 418.42 635.356 412.239C646.329 404.794 657.897 398.372 670.536 394.24C678.037 391.789 686.183 389.351 694.068 391.431C701.44 393.376 706.739 399.847 710.39 406.194C714.528 413.384 716.419 420.483 716.607 428.797C716.822 438.304 715.42 447.5 712.531 456.55C710.85 461.816 708.985 467.184 705.761 471.731C700.687 478.885 692.53 483.009 684.842 486.77C670.671 493.703 655.134 497.089 640.809 503.536C630.494 508.178 623.015 516.576 614.831 524.047C609.309 529.088 603.623 533.899 598.457 539.316C593.363 544.656 588.615 550.3 583.587 555.697C573.676 566.335 562.751 575.929 550.839 584.259C533.645 596.284 518.779 610.266 510.408 629.846C508.084 635.281 505.764 640.755 502.428 645.659C499.507 649.952 496.484 654.045 493.409 658.223C490.248 662.518 487.913 667.51 485.241 672.115C482.671 676.546 480.147 681.032 477.5 685.417C475.393 688.909 473.508 692.764 470.848 695.876C469.919 696.964 468.829 698.61 467.509 699.163C466.316 699.662 463.577 701.901 466.018 699.767" stroke="#C8B5FF" stroke-width="4.9623" stroke-linecap="round"/>
  <path d="M573.819 648.12C575.345 647.279 576.559 646.119 577.837 645.016C583.392 640.224 589.073 635.532 594.726 630.817C617.307 611.985 640.881 593.823 662.35 574.139C670.384 566.773 678.702 559.548 686.444 551.993C695.15 543.496 703.128 534.577 711.52 525.908C718.613 518.581 726.065 511.46 733.38 504.261C740.72 497.037 747.715 489.572 755.353 482.529C765.244 473.409 777.685 463.199 790.457 457.351C797.793 453.993 805.295 452.995 810.284 456.473C812.542 458.047 812.986 461.25 813.09 463.894C813.338 470.199 811.279 478.163 808.03 484.778C798.635 503.912 780.37 520.734 760.566 534.644C750.873 541.452 740.502 547.366 730.47 553.729C721.684 559.302 713.161 565.2 704.455 570.875C684.473 583.899 663.666 595.407 643.181 607.667C627.36 617.135 612.016 627.053 595.859 635.964C587.973 640.314 579.946 645.141 572.211 649.407" stroke="#C8B5FF" stroke-width="4.9623" stroke-linecap="round"/>
  <path d="M598.833 693.987C599.834 693.807 600.69 693.217 601.577 692.703C605.433 690.473 609.351 688.381 613.255 686.259C628.848 677.78 644.944 670.295 659.988 660.613C665.618 656.99 671.397 653.604 676.878 649.696C683.042 645.3 688.829 640.24 694.829 635.565C699.9 631.615 705.157 627.992 710.343 624.244C715.547 620.482 720.577 616.369 725.934 612.888C732.871 608.38 741.443 603.86 749.674 603.445C754.402 603.206 758.939 605.184 761.449 610.275C762.585 612.579 762.454 615.67 762.191 618.121C761.565 623.964 759.378 630.433 756.657 635.213C748.785 649.042 735.977 657.349 722.62 662.408C716.082 664.884 709.255 666.284 702.573 668.224C696.72 669.923 690.983 672.02 685.164 673.843C671.811 678.026 658.158 680.51 644.602 683.802C634.133 686.345 623.889 689.482 613.291 691.387C608.118 692.317 602.803 693.628 597.729 694.541" stroke="#C8B5FF" stroke-width="4.9623" stroke-linecap="round"/>
  <path d="M428.197 1037.15C420.408 1037.15 413.428 1035.35 407.256 1031.74C401.157 1028.07 396.381 1023.18 392.927 1017.09C389.548 1010.91 387.858 1004.15 387.858 996.806C387.858 989.532 389.548 982.846 392.927 976.747C396.307 970.648 401.047 965.799 407.145 962.198C413.244 958.525 420.188 956.688 427.976 956.688C433.193 956.688 437.859 957.349 441.974 958.672C446.162 959.921 449.689 961.611 452.554 963.742C454.244 964.991 455.493 966.387 456.302 967.93C457.11 969.399 457.514 970.906 457.514 972.449C457.514 974.653 456.706 976.563 455.089 978.18C453.546 979.796 451.562 980.605 449.138 980.605C446.786 980.605 444.398 979.76 441.974 978.07C440.284 976.894 438.263 975.939 435.912 975.204C433.56 974.396 431.025 973.992 428.307 973.992C424.045 973.992 420.261 974.984 416.955 976.967C413.648 978.951 411.076 981.707 409.239 985.234C407.476 988.761 406.594 992.728 406.594 997.137C406.594 1001.47 407.439 1005.37 409.129 1008.82C410.819 1012.2 413.281 1014.88 416.514 1016.87C419.747 1018.85 423.531 1019.84 427.866 1019.84C432.495 1019.84 436.463 1018.74 439.769 1016.53C443.076 1014.26 445.464 1011.13 446.933 1007.17H426.433C423.861 1007.17 421.841 1006.36 420.371 1004.74C418.975 1003.13 418.277 1001.18 418.277 998.9C418.277 996.696 418.975 994.786 420.371 993.169C421.841 991.479 423.861 990.634 426.433 990.634H457.073C460.086 990.634 462.364 991.479 463.907 993.169C465.523 994.859 466.331 997.357 466.331 1000.66C466.331 1001.33 466.258 1002.46 466.111 1004.08C465.45 1009.15 463.613 1014.22 460.6 1019.29C457.588 1024.36 453.326 1028.62 447.815 1032.08C442.378 1035.46 435.838 1037.15 428.197 1037.15ZM498.991 1002.87H498.88C497.999 1002.76 497.337 1001.99 497.448 1001.1L499.542 982.809C499.652 981.927 500.534 981.266 501.415 981.376C502.297 981.486 502.848 982.368 502.738 983.25L500.644 1001.44C500.534 1002.32 499.872 1002.87 498.991 1002.87ZM511.445 945.446C511.225 945.446 511.004 945.446 511.004 945.446C497.558 946.438 477.278 972.228 471.437 995.704C468.791 1006.73 468.13 1021.6 480.805 1029.43C484.552 1031.63 488.189 1032.85 491.716 1032.85C498.219 1032.85 504.391 1029.21 510.233 1021.94C523.459 1005.51 530.182 975.865 526.985 961.317C523.789 946.548 514.311 945.446 511.445 945.446ZM530.953 969.473C530.953 985.895 524.23 1009.7 512.768 1024.03C506.375 1031.86 499.101 1036.04 491.716 1036.04C487.528 1036.04 483.34 1034.72 479.152 1032.19C468.02 1025.24 464.162 1012.02 468.351 994.933C474.523 969.914 495.905 943.352 510.673 942.249C510.673 942.249 511.004 942.249 511.445 942.249C513.87 942.249 526.324 943.131 530.072 960.655C530.623 963.19 530.953 966.166 530.953 969.473ZM557.005 1002.87H556.894C556.013 1002.76 555.351 1001.99 555.462 1001.1L557.556 982.809C557.666 981.927 558.548 981.266 559.429 981.376C560.311 981.486 560.862 982.368 560.752 983.25L558.658 1001.44C558.548 1002.32 557.886 1002.87 557.005 1002.87ZM569.459 945.446C569.239 945.446 569.018 945.446 569.018 945.446C555.572 946.438 535.292 972.228 529.451 995.704C526.805 1006.73 526.144 1021.6 538.819 1029.43C542.566 1031.63 546.203 1032.85 549.73 1032.85C556.233 1032.85 562.405 1029.21 568.247 1021.94C581.473 1005.51 588.196 975.865 585 961.317C581.803 946.548 572.325 945.446 569.459 945.446ZM588.967 969.473C588.967 985.895 582.244 1009.7 570.782 1024.03C564.389 1031.86 557.115 1036.04 549.73 1036.04C545.542 1036.04 541.354 1034.72 537.166 1032.19C526.034 1025.24 522.176 1012.02 526.365 994.933C532.537 969.914 553.919 943.352 568.688 942.249C568.688 942.249 569.018 942.249 569.459 942.249C571.884 942.249 584.338 943.131 588.086 960.655C588.637 963.19 588.967 966.166 588.967 969.473ZM602.454 1036.04C599.295 1036.04 596.87 1035.2 595.18 1033.51C593.49 1031.82 592.645 1029.39 592.645 1026.23V967.599C592.645 964.366 593.49 961.941 595.18 960.325C596.87 958.635 599.295 957.79 602.454 957.79H620.53C628.833 957.79 636.033 959.517 642.132 962.97C648.304 966.35 653.007 971.016 656.24 976.967C659.473 982.919 661.089 989.569 661.089 996.917C661.089 1004.26 659.473 1010.91 656.24 1016.87C653.007 1022.82 648.304 1027.52 642.132 1030.97C636.033 1034.35 628.833 1036.04 620.53 1036.04H602.454ZM620.53 1019.07C627.216 1019.07 632.506 1017.27 636.401 1013.67C640.368 1010 642.352 1004.41 642.352 996.917C642.352 989.422 640.368 983.874 636.401 980.274C632.506 976.6 627.216 974.763 620.53 974.763H611.382V1019.07H620.53Z" fill="#0033E6"/>
  <path d="M514.055 1040.89C514.236 1042.5 516.754 1046.22 517.928 1047.08C520.456 1048.95 521.311 1047.91 523.913 1047.91C527.8 1047.91 529.589 1043.14 530.954 1040.12" stroke="#0033E6" stroke-width="2.20432" stroke-linecap="round"/>
  <path d="M571.521 928.992C572.716 930.319 573.489 931.334 575.119 932.328C576.692 933.287 578.838 933.954 580.701 933.954" stroke="#0033E6" stroke-width="2.20432" stroke-linecap="round"/>
  <path d="M510.739 928C509.934 928 509.132 928.619 508.451 928.992C507.111 929.727 505.693 930.395 504.261 930.922C503.032 931.374 501.627 931.721 500.319 931.721" stroke="#0033E6" stroke-width="2.20432" stroke-linecap="round"/>
  <path d="M423.223 1060.19C427.996 1060.19 432.149 1061.33 435.682 1063.63C439.215 1065.92 441.881 1069.02 443.678 1072.92C445.538 1076.83 446.468 1081.11 446.468 1085.76C446.468 1090.59 445.507 1094.93 443.585 1098.77C441.664 1102.55 438.874 1105.56 435.217 1107.79C431.622 1109.96 427.345 1111.05 422.386 1111.05C419.597 1111.05 416.839 1110.49 414.111 1109.37C411.384 1108.19 409.152 1106.49 407.417 1104.26C407.169 1106.3 406.301 1107.91 404.813 1109.09C403.388 1110.21 401.714 1110.77 399.793 1110.77C397.747 1110.77 395.949 1110.08 394.4 1108.72C392.85 1107.36 392.075 1105.47 392.075 1103.05V1047.26C392.075 1044.84 392.85 1042.95 394.4 1041.59C395.949 1040.23 397.747 1039.55 399.793 1039.55C401.9 1039.55 403.698 1040.23 405.185 1041.59C406.735 1042.95 407.51 1044.84 407.51 1047.26V1068.28C408.564 1065.73 410.485 1063.75 413.274 1062.32C416.126 1060.9 419.442 1060.19 423.223 1060.19ZM419.132 1097.1C422.603 1097.1 425.424 1096.04 427.593 1093.94C429.762 1091.77 430.847 1088.98 430.847 1085.57C430.847 1082.16 429.762 1079.4 427.593 1077.29C425.424 1075.12 422.603 1074.04 419.132 1074.04C415.785 1074.04 413.026 1075.12 410.857 1077.29C408.687 1079.4 407.603 1082.16 407.603 1085.57C407.603 1088.98 408.687 1091.77 410.857 1093.94C413.026 1096.04 415.785 1097.1 419.132 1097.1ZM476.793 1061.02C477.165 1060.96 477.692 1060.93 478.374 1060.93C480.419 1060.93 482.031 1061.52 483.208 1062.7C484.386 1063.87 484.975 1065.3 484.975 1066.97C484.975 1068.83 484.262 1070.51 482.836 1071.99C481.473 1073.48 479.427 1074.35 476.7 1074.6C471.493 1075.09 468.89 1077.88 468.89 1082.97V1103.05C468.89 1105.47 468.115 1107.36 466.565 1108.72C465.078 1110.08 463.28 1110.77 461.173 1110.77C459.127 1110.77 457.33 1110.08 455.78 1108.72C454.23 1107.36 453.455 1105.47 453.455 1103.05V1068.09C453.455 1065.67 454.23 1063.78 455.78 1062.42C457.33 1061.05 459.127 1060.37 461.173 1060.37C463.032 1060.37 464.675 1060.9 466.1 1061.95C467.526 1063.01 468.394 1064.49 468.704 1066.42C470.687 1063.38 473.384 1061.58 476.793 1061.02ZM537.3 1082.04C537.362 1082.35 537.393 1082.84 537.393 1083.52C537.393 1085.69 536.68 1087.37 535.254 1088.54C533.891 1089.66 532.031 1090.22 529.676 1090.22H502.433C502.743 1092.51 503.89 1094.43 505.873 1095.98C507.919 1097.47 510.367 1098.21 513.218 1098.21C516.814 1098.21 519.696 1097.04 521.865 1094.68C523.415 1093.07 525.089 1092.26 526.886 1092.26C528.684 1092.26 530.233 1092.91 531.535 1094.22C532.899 1095.52 533.581 1097.04 533.581 1098.77C533.581 1100.38 532.899 1101.9 531.535 1103.33C529.118 1105.75 526.328 1107.64 523.167 1109C520.068 1110.3 516.721 1110.95 513.126 1110.95C508.043 1110.95 503.518 1109.9 499.551 1107.79C495.584 1105.68 492.484 1102.74 490.253 1098.96C488.021 1095.11 486.906 1090.71 486.906 1085.76C486.906 1080.86 487.99 1076.46 490.16 1072.55C492.329 1068.65 495.336 1065.61 499.179 1063.44C503.022 1061.21 507.392 1060.09 512.289 1060.09C518.921 1060.09 524.469 1061.95 528.932 1065.67C533.457 1069.39 536.246 1074.85 537.3 1082.04ZM512.289 1072.46C509.499 1072.46 507.175 1073.14 505.315 1074.5C503.456 1075.87 502.464 1077.73 502.34 1080.08H522.33C522.082 1077.79 521.029 1075.96 519.169 1074.6C517.31 1073.17 515.016 1072.46 512.289 1072.46ZM587.881 1060.47C589.988 1060.47 591.817 1061.15 593.366 1062.51C594.916 1063.81 595.691 1065.7 595.691 1068.18V1102.96C595.691 1105.37 594.916 1107.26 593.366 1108.63C591.817 1109.99 589.988 1110.67 587.881 1110.67C585.773 1110.67 583.944 1109.99 582.395 1108.63C580.845 1107.26 580.07 1105.37 580.07 1102.96V1102.86C579.017 1105.4 577.064 1107.39 574.213 1108.81C571.423 1110.24 568.138 1110.95 564.357 1110.95C559.584 1110.95 555.431 1109.81 551.898 1107.51C548.365 1105.22 545.669 1102.12 543.809 1098.21C542.011 1094.31 541.113 1090.03 541.113 1085.38C541.113 1080.55 542.073 1076.24 543.995 1072.46C545.916 1068.62 548.675 1065.61 552.27 1063.44C555.927 1061.21 560.235 1060.09 565.194 1060.09C567.983 1060.09 570.742 1060.68 573.469 1061.86C576.196 1062.98 578.428 1064.65 580.163 1066.88C580.473 1064.84 581.341 1063.25 582.767 1062.14C584.254 1061.02 585.959 1060.47 587.881 1060.47ZM568.448 1097.1C571.795 1097.1 574.554 1096.04 576.723 1093.94C578.893 1091.77 579.977 1088.98 579.977 1085.57C579.977 1082.16 578.893 1079.4 576.723 1077.29C574.554 1075.12 571.795 1074.04 568.448 1074.04C564.977 1074.04 562.157 1075.12 559.987 1077.29C557.818 1079.4 556.733 1082.16 556.733 1085.57C556.733 1088.98 557.818 1091.77 559.987 1093.94C562.157 1096.04 564.977 1097.1 568.448 1097.1ZM649.349 1039.55C651.457 1039.55 653.254 1040.23 654.742 1041.59C656.292 1042.95 657.066 1044.84 657.066 1047.26V1103.05C657.066 1105.47 656.292 1107.36 654.742 1108.72C653.254 1110.08 651.457 1110.77 649.349 1110.77C647.304 1110.77 645.506 1110.08 643.956 1108.72C642.407 1107.36 641.632 1105.47 641.632 1103.05V1102.86C640.578 1105.4 638.626 1107.39 635.774 1108.81C632.985 1110.24 629.7 1110.95 625.919 1110.95C621.146 1110.95 616.993 1109.81 613.46 1107.51C609.927 1105.22 607.23 1102.12 605.371 1098.21C603.573 1094.31 602.674 1090.03 602.674 1085.38C602.674 1080.55 603.635 1076.24 605.557 1072.46C607.478 1068.62 610.236 1065.61 613.832 1063.44C617.489 1061.21 621.797 1060.09 626.756 1060.09C629.545 1060.09 632.272 1060.65 634.938 1061.77C637.665 1062.88 639.896 1064.53 641.632 1066.69V1047.26C641.632 1044.84 642.407 1042.95 643.956 1041.59C645.506 1040.23 647.304 1039.55 649.349 1039.55ZM630.01 1097.1C633.357 1097.1 636.115 1096.04 638.285 1093.94C640.454 1091.77 641.539 1088.98 641.539 1085.57C641.539 1082.16 640.454 1079.4 638.285 1077.29C636.115 1075.12 633.357 1074.04 630.01 1074.04C626.539 1074.04 623.718 1075.12 621.549 1077.29C619.379 1079.4 618.295 1082.16 618.295 1085.57C618.295 1088.98 619.379 1091.77 621.549 1093.94C623.718 1096.04 626.539 1097.1 630.01 1097.1Z" fill="#0033E6"/>
  <path d="M94.1957 109.996C91.1064 111.708 87.4952 112.564 83.3621 112.564C79.4795 112.564 75.7848 111.75 72.2779 110.121C68.8128 108.451 65.9739 105.905 63.7613 102.481C61.5904 99.0163 60.5049 94.7788 60.5049 89.769C60.5049 84.7175 61.5904 80.5009 63.7613 77.1193C65.9739 73.696 68.8128 71.1702 72.2779 69.542C75.7848 67.9138 79.4795 67.0997 83.3621 67.0997C87.4534 67.0997 91.1064 67.9347 94.321 69.6046C94.9472 69.9386 95.4064 70.3979 95.6987 70.9823C96.0327 71.5251 96.1997 72.1095 96.1997 72.7358C96.1997 73.5707 95.9492 74.2804 95.4482 74.8649C94.989 75.4076 94.3419 75.679 93.5069 75.679C92.9642 75.679 92.4632 75.5746 92.004 75.3659C89.3738 74.2804 86.6184 73.7377 83.7378 73.7377C80.8989 73.7377 78.2688 74.3222 75.8474 75.4911C73.4677 76.6183 71.5264 78.3926 70.0235 80.814C68.5623 83.1937 67.8317 86.1787 67.8317 89.769C67.8317 93.3177 68.5623 96.3027 70.0235 98.7241C71.5264 101.145 73.4886 102.941 75.91 104.11C78.3314 105.279 80.9615 105.863 83.8004 105.863C86.5976 105.863 89.3112 105.32 91.9413 104.235C92.4006 104.026 92.9016 103.922 93.4443 103.922C94.2792 103.922 94.9263 104.214 95.3856 104.798C95.8866 105.341 96.137 106.03 96.137 106.865C96.137 107.491 95.97 108.076 95.6361 108.618C95.3438 109.161 94.8637 109.62 94.1957 109.996ZM120.332 78.8101C122.712 78.8101 124.904 79.332 126.908 80.3757C128.912 81.3776 130.498 82.9432 131.667 85.0724C132.878 87.1598 133.483 89.7899 133.483 92.9628V108.618C133.483 109.787 133.107 110.706 132.356 111.374C131.646 112.042 130.811 112.376 129.851 112.376C128.891 112.376 128.035 112.042 127.283 111.374C126.574 110.706 126.219 109.787 126.219 108.618V94.0274C126.219 90.8128 125.446 88.5166 123.902 87.1389C122.399 85.7195 120.499 85.0097 118.203 85.0097C115.573 85.0097 113.486 85.8447 111.941 87.5146C110.438 89.1846 109.666 91.4807 109.624 94.4031V108.744C109.624 109.871 109.269 110.768 108.559 111.436C107.85 112.063 107.015 112.376 106.054 112.376C105.094 112.376 104.259 112.063 103.549 111.436C102.84 110.768 102.485 109.871 102.485 108.744V68.2896C102.485 67.1624 102.84 66.2856 103.549 65.6594C104.259 64.9915 105.094 64.6575 106.054 64.6575C107.015 64.6575 107.85 64.9915 108.559 65.6594C109.269 66.2856 109.624 67.1624 109.624 68.2896V84.8219C110.668 82.8597 112.087 81.3776 113.882 80.3757C115.677 79.332 117.827 78.8101 120.332 78.8101ZM156.18 112.626C152.882 112.626 149.897 111.896 147.225 110.434C144.595 108.973 142.528 106.969 141.026 104.423C139.523 101.834 138.771 98.9328 138.771 95.7182C138.771 92.5453 139.523 89.6647 141.026 87.0763C142.528 84.4879 144.595 82.4631 147.225 81.0019C149.897 79.5407 152.882 78.8101 156.18 78.8101C159.478 78.8101 162.442 79.5407 165.073 81.0019C167.744 82.4631 169.832 84.4879 171.335 87.0763C172.838 89.6647 173.589 92.5453 173.589 95.7182C173.589 98.9328 172.838 101.834 171.335 104.423C169.832 106.969 167.744 108.973 165.073 110.434C162.442 111.896 159.478 112.626 156.18 112.626ZM156.18 106.176C158.142 106.176 159.917 105.717 161.503 104.798C163.131 103.88 164.384 102.628 165.26 101.041C166.179 99.4546 166.638 97.6803 166.638 95.7182C166.638 93.756 166.179 91.9817 165.26 90.3953C164.384 88.8088 163.131 87.5564 161.503 86.6379C159.917 85.7195 158.142 85.2602 156.18 85.2602C154.218 85.2602 152.444 85.7195 150.857 86.6379C149.271 87.5564 148.018 88.8088 147.1 90.3953C146.181 91.9817 145.722 93.756 145.722 95.7182C145.722 97.6803 146.181 99.4546 147.1 101.041C148.018 102.628 149.271 103.88 150.857 104.798C152.444 105.717 154.218 106.176 156.18 106.176ZM203.6 110.309C200.886 111.854 197.86 112.626 194.52 112.626C191.597 112.626 188.821 112 186.191 110.748C183.603 109.495 181.494 107.596 179.866 105.049C178.28 102.502 177.486 99.392 177.486 95.7182C177.486 92.0443 178.28 88.955 179.866 86.4501C181.494 83.9034 183.603 82.0247 186.191 80.814C188.779 79.5616 191.535 78.9354 194.457 78.9354C197.839 78.9354 200.886 79.7077 203.6 81.2524C204.936 82.0456 205.604 83.1102 205.604 84.4461C205.604 85.2394 205.353 85.9282 204.852 86.5127C204.393 87.0554 203.788 87.3268 203.036 87.3268C202.577 87.3268 202.076 87.1807 201.533 86.8884C199.697 85.9282 197.693 85.4481 195.522 85.4481C193.601 85.4481 191.806 85.8447 190.136 86.6379C188.508 87.3894 187.172 88.5375 186.128 90.0822C185.126 91.6268 184.625 93.5264 184.625 95.7808C184.625 97.91 185.106 99.7469 186.066 101.292C187.068 102.836 188.383 104.026 190.011 104.861C191.681 105.654 193.476 106.051 195.396 106.051C197.567 106.051 199.592 105.571 201.471 104.611C201.972 104.36 202.431 104.235 202.849 104.235C203.6 104.235 204.226 104.548 204.727 105.174C205.228 105.759 205.479 106.447 205.479 107.241C205.479 107.825 205.312 108.389 204.978 108.932C204.685 109.474 204.226 109.933 203.6 110.309ZM227.242 112.626C223.944 112.626 220.959 111.896 218.287 110.434C215.657 108.973 213.59 106.969 212.087 104.423C210.584 101.834 209.833 98.9328 209.833 95.7182C209.833 92.5453 210.584 89.6647 212.087 87.0763C213.59 84.4879 215.657 82.4631 218.287 81.0019C220.959 79.5407 223.944 78.8101 227.242 78.8101C230.54 78.8101 233.504 79.5407 236.134 81.0019C238.806 82.4631 240.894 84.4879 242.397 87.0763C243.899 89.6647 244.651 92.5453 244.651 95.7182C244.651 98.9328 243.899 101.834 242.397 104.423C240.894 106.969 238.806 108.973 236.134 110.434C233.504 111.896 230.54 112.626 227.242 112.626ZM227.242 106.176C229.204 106.176 230.978 105.717 232.565 104.798C234.193 103.88 235.445 102.628 236.322 101.041C237.241 99.4546 237.7 97.6803 237.7 95.7182C237.7 93.756 237.241 91.9817 236.322 90.3953C235.445 88.8088 234.193 87.5564 232.565 86.6379C230.978 85.7195 229.204 85.2602 227.242 85.2602C225.28 85.2602 223.505 85.7195 221.919 86.6379C220.333 87.5564 219.08 88.8088 218.162 90.3953C217.243 91.9817 216.784 93.756 216.784 95.7182C216.784 97.6803 217.243 99.4546 218.162 101.041C219.08 102.628 220.333 103.88 221.919 104.798C223.505 105.717 225.28 106.176 227.242 106.176ZM250.418 68.2896C250.418 67.1624 250.773 66.2856 251.483 65.6594C252.192 64.9915 253.027 64.6575 253.988 64.6575C254.948 64.6575 255.783 64.9915 256.492 65.6594C257.202 66.2856 257.557 67.1624 257.557 68.2896V108.744C257.557 109.871 257.202 110.768 256.492 111.436C255.783 112.063 254.948 112.376 253.988 112.376C253.027 112.376 252.192 112.063 251.483 111.436C250.773 110.768 250.418 109.871 250.418 108.744V68.2896ZM295.218 79.2485C296.178 79.2485 297.013 79.5616 297.723 80.1878C298.433 80.814 298.788 81.6908 298.788 82.818V108.806C298.788 109.892 298.433 110.768 297.723 111.436C297.013 112.063 296.178 112.376 295.218 112.376C294.258 112.376 293.402 112.063 292.651 111.436C291.941 110.768 291.586 109.892 291.586 108.806V105.362C290.667 107.616 289.123 109.391 286.952 110.685C284.781 111.979 282.234 112.626 279.312 112.626C276.139 112.626 273.342 111.875 270.921 110.372C268.499 108.869 266.62 106.823 265.285 104.235C263.99 101.646 263.343 98.7867 263.343 95.6556C263.343 92.4409 264.011 89.5603 265.347 87.0137C266.725 84.467 268.645 82.4631 271.108 81.0019C273.572 79.5407 276.431 78.8101 279.688 78.8101C282.151 78.8101 284.447 79.3946 286.576 80.5636C288.705 81.7325 290.375 83.3398 291.586 85.3855V82.818C291.586 81.6908 291.941 80.814 292.651 80.1878C293.36 79.5616 294.216 79.2485 295.218 79.2485ZM281.128 106.176C283.132 106.176 284.906 105.717 286.451 104.798C288.037 103.88 289.269 102.628 290.146 101.041C291.064 99.4546 291.523 97.6803 291.523 95.7182C291.523 93.756 291.064 92.0026 290.146 90.4579C289.269 88.8715 288.037 87.619 286.451 86.7006C284.906 85.7821 283.132 85.3229 281.128 85.3229C279.124 85.3229 277.308 85.7612 275.68 86.6379C274.093 87.5146 272.841 88.7462 271.923 90.3326C271.046 91.9191 270.607 93.7143 270.607 95.7182C270.607 98.7658 271.589 101.271 273.551 103.233C275.513 105.195 278.039 106.176 281.128 106.176ZM321.407 79.499C322.158 79.499 322.805 79.7703 323.348 80.3131C323.933 80.8558 324.225 81.5238 324.225 82.317C324.225 83.1102 323.933 83.7782 323.348 84.3209C322.805 84.8636 322.158 85.135 321.407 85.135H316.71V108.744C316.71 109.871 316.355 110.768 315.646 111.436C314.936 112.063 314.101 112.376 313.141 112.376C312.181 112.376 311.325 112.063 310.573 111.436C309.864 110.768 309.509 109.871 309.509 108.744V85.135H306.941C306.19 85.135 305.522 84.8636 304.937 84.3209C304.395 83.7782 304.123 83.1102 304.123 82.317C304.123 81.5655 304.395 80.9184 304.937 80.3757C305.522 79.7912 306.19 79.499 306.941 79.499H309.509V73.2994C309.509 72.1722 309.864 71.2954 310.573 70.6692C311.325 70.043 312.181 69.7299 313.141 69.7299C314.101 69.7299 314.936 70.043 315.646 70.6692C316.355 71.2954 316.71 72.1722 316.71 73.2994V79.499H321.407ZM359.153 93.9647C359.278 95.2172 359.027 96.1774 358.401 96.8454C357.817 97.4716 356.898 97.7847 355.646 97.7847H333.164C333.206 99.4964 333.686 101.041 334.605 102.419C335.523 103.755 336.734 104.798 338.237 105.55C339.781 106.301 341.451 106.677 343.247 106.677C346.712 106.677 349.488 105.279 351.575 102.481C352.202 101.605 352.995 101.166 353.955 101.166C354.748 101.166 355.458 101.5 356.084 102.168C356.71 102.795 357.023 103.525 357.023 104.36C357.023 105.07 356.752 105.759 356.209 106.427C354.706 108.264 352.849 109.766 350.636 110.935C348.465 112.063 345.981 112.626 343.184 112.626C339.886 112.626 336.943 111.937 334.354 110.56C331.766 109.14 329.741 107.157 328.28 104.611C326.819 102.064 326.088 99.1207 326.088 95.7808C326.088 92.6079 326.798 89.7273 328.217 87.1389C329.637 84.5505 331.599 82.5257 334.104 81.0645C336.65 79.5616 339.51 78.8101 342.683 78.8101C347.233 78.8101 350.991 80.1878 353.955 82.9432C356.919 85.6568 358.652 89.3307 359.153 93.9647ZM342.683 84.634C340.095 84.634 337.924 85.4272 336.17 87.0137C334.417 88.5583 333.436 90.5414 333.227 92.9628H352.202C351.993 90.5414 351.012 88.5583 349.258 87.0137C347.547 85.4272 345.355 84.634 342.683 84.634ZM397.95 78.8727C401.165 78.8727 403.983 79.6242 406.404 81.1272C408.826 82.6301 410.683 84.6758 411.978 87.2642C413.272 89.8525 413.919 92.7123 413.919 95.8434C413.919 99.0163 413.251 101.897 411.915 104.485C410.579 107.032 408.659 109.036 406.154 110.497C403.69 111.958 400.831 112.689 397.574 112.689C395.111 112.689 392.815 112.104 390.686 110.935C388.557 109.766 386.887 108.159 385.676 106.113V108.744C385.676 109.871 385.321 110.768 384.612 111.436C383.902 112.063 383.067 112.376 382.107 112.376C381.146 112.376 380.311 112.063 379.602 111.436C378.892 110.768 378.537 109.871 378.537 108.744V68.2896C378.537 67.1624 378.892 66.2856 379.602 65.6594C380.311 64.9915 381.146 64.6575 382.107 64.6575C383.067 64.6575 383.902 64.9915 384.612 65.6594C385.321 66.2856 385.676 67.1624 385.676 68.2896V86.1369C386.636 83.8825 388.181 82.1082 390.31 80.814C392.481 79.5198 395.028 78.8727 397.95 78.8727ZM396.134 106.176C398.138 106.176 399.933 105.738 401.52 104.861C403.148 103.943 404.421 102.711 405.34 101.166C406.258 99.5799 406.717 97.7847 406.717 95.7808C406.717 93.7769 406.258 91.9817 405.34 90.3953C404.421 88.8088 403.148 87.5773 401.52 86.7006C399.933 85.7821 398.138 85.3229 396.134 85.3229C394.13 85.3229 392.335 85.7821 390.749 86.7006C389.204 87.619 387.972 88.8715 387.054 90.4579C386.177 92.0443 385.739 93.8186 385.739 95.7808C385.739 97.743 386.177 99.5173 387.054 101.104C387.972 102.648 389.204 103.88 390.749 104.798C392.335 105.717 394.13 106.176 396.134 106.176ZM449.511 79.2485C450.472 79.2485 451.306 79.5616 452.016 80.1878C452.726 80.814 453.081 81.6908 453.081 82.818V108.806C453.081 109.892 452.726 110.768 452.016 111.436C451.306 112.063 450.472 112.376 449.511 112.376C448.551 112.376 447.695 112.063 446.944 111.436C446.234 110.768 445.879 109.892 445.879 108.806V105.362C444.961 107.616 443.416 109.391 441.245 110.685C439.074 111.979 436.528 112.626 433.605 112.626C430.432 112.626 427.635 111.875 425.214 110.372C422.792 108.869 420.914 106.823 419.578 104.235C418.284 101.646 417.637 98.7867 417.637 95.6556C417.637 92.4409 418.304 89.5603 419.64 87.0137C421.018 84.467 422.939 82.4631 425.402 81.0019C427.865 79.5407 430.725 78.8101 433.981 78.8101C436.444 78.8101 438.74 79.3946 440.869 80.5636C442.999 81.7325 444.669 83.3398 445.879 85.3855V82.818C445.879 81.6908 446.234 80.814 446.944 80.1878C447.654 79.5616 448.509 79.2485 449.511 79.2485ZM435.421 106.176C437.425 106.176 439.199 105.717 440.744 104.798C442.331 103.88 443.562 102.628 444.439 101.041C445.357 99.4546 445.817 97.6803 445.817 95.7182C445.817 93.756 445.357 92.0026 444.439 90.4579C443.562 88.8715 442.331 87.619 440.744 86.7006C439.199 85.7821 437.425 85.3229 435.421 85.3229C433.417 85.3229 431.601 85.7612 429.973 86.6379C428.387 87.5146 427.134 88.7462 426.216 90.3326C425.339 91.9191 424.901 93.7143 424.901 95.7182C424.901 98.7658 425.882 101.271 427.844 103.233C429.806 105.195 432.332 106.176 435.421 106.176ZM479.959 78.8727C483.173 78.8727 485.991 79.6242 488.413 81.1272C490.834 82.6301 492.692 84.6758 493.986 87.2642C495.28 89.8525 495.927 92.7123 495.927 95.8434C495.927 99.0163 495.259 101.897 493.923 104.485C492.587 107.032 490.667 109.036 488.162 110.497C485.699 111.958 482.839 112.689 479.583 112.689C477.12 112.689 474.823 112.104 472.694 110.935C470.565 109.766 468.895 108.159 467.685 106.113V108.744C467.685 109.871 467.33 110.768 466.62 111.436C465.91 112.063 465.075 112.376 464.115 112.376C463.155 112.376 462.32 112.063 461.61 111.436C460.9 110.768 460.546 109.871 460.546 108.744V68.2896C460.546 67.1624 460.9 66.2856 461.61 65.6594C462.32 64.9915 463.155 64.6575 464.115 64.6575C465.075 64.6575 465.91 64.9915 466.62 65.6594C467.33 66.2856 467.685 67.1624 467.685 68.2896V86.1369C468.645 83.8825 470.189 82.1082 472.319 80.814C474.49 79.5198 477.036 78.8727 479.959 78.8727ZM478.142 106.176C480.146 106.176 481.942 105.738 483.528 104.861C485.156 103.943 486.43 102.711 487.348 101.166C488.266 99.5799 488.726 97.7847 488.726 95.7808C488.726 93.7769 488.266 91.9817 487.348 90.3953C486.43 88.8088 485.156 87.5773 483.528 86.7006C481.942 85.7821 480.146 85.3229 478.142 85.3229C476.139 85.3229 474.343 85.7821 472.757 86.7006C471.212 87.619 469.981 88.8715 469.062 90.4579C468.186 92.0443 467.747 93.8186 467.747 95.7808C467.747 97.743 468.186 99.5173 469.062 101.104C469.981 102.648 471.212 103.88 472.757 104.798C474.343 105.717 476.139 106.176 478.142 106.176ZM528.568 107.053C529.152 107.596 529.444 108.243 529.444 108.994C529.444 109.829 529.069 110.581 528.317 111.249C527.607 111.917 526.773 112.25 525.812 112.25C524.894 112.25 524.08 111.896 523.37 111.186L508.591 96.6575C508.758 100.582 508.842 104.611 508.842 108.744C508.842 109.704 508.508 110.56 507.84 111.311C507.172 112.021 506.316 112.376 505.272 112.376C504.312 112.376 503.477 112.021 502.767 111.311C502.058 110.56 501.703 109.704 501.703 108.744V68.2896C501.703 67.3294 502.058 66.4944 502.767 65.7847C503.477 65.0332 504.312 64.6575 505.272 64.6575C506.274 64.6575 507.109 65.0123 507.777 65.722C508.487 66.4318 508.842 67.2876 508.842 68.2896C508.842 73.5498 508.821 78.2883 508.779 82.5048C508.737 86.6797 508.654 90.0613 508.529 92.6497L523.12 80.4383C524.122 79.6033 525.186 79.1859 526.313 79.1859C527.232 79.1859 527.983 79.4572 528.568 80C529.194 80.5009 529.507 81.1063 529.507 81.816C529.507 82.6927 529.048 83.5068 528.129 84.2583L515.73 94.6536L528.568 107.053ZM563.504 79.2485C564.464 79.2485 565.299 79.5616 566.009 80.1878C566.718 80.814 567.073 81.6908 567.073 82.818V108.806C567.073 109.892 566.718 110.768 566.009 111.436C565.299 112.063 564.464 112.376 563.504 112.376C562.543 112.376 561.688 112.063 560.936 111.436C560.226 110.768 559.872 109.892 559.872 108.806V105.362C558.953 107.616 557.408 109.391 555.238 110.685C553.067 111.979 550.52 112.626 547.598 112.626C544.425 112.626 541.628 111.875 539.206 110.372C536.785 108.869 534.906 106.823 533.57 104.235C532.276 101.646 531.629 98.7867 531.629 95.6556C531.629 92.4409 532.297 89.5603 533.633 87.0137C535.01 84.467 536.931 82.4631 539.394 81.0019C541.857 79.5407 544.717 78.8101 547.973 78.8101C550.436 78.8101 552.733 79.3946 554.862 80.5636C556.991 81.7325 558.661 83.3398 559.872 85.3855V82.818C559.872 81.6908 560.226 80.814 560.936 80.1878C561.646 79.5616 562.502 79.2485 563.504 79.2485ZM549.414 106.176C551.418 106.176 553.192 105.717 554.737 104.798C556.323 103.88 557.555 102.628 558.431 101.041C559.35 99.4546 559.809 97.6803 559.809 95.7182C559.809 93.756 559.35 92.0026 558.431 90.4579C557.555 88.8715 556.323 87.619 554.737 86.7006C553.192 85.7821 551.418 85.3229 549.414 85.3229C547.41 85.3229 545.594 85.7612 543.965 86.6379C542.379 87.5146 541.127 88.7462 540.208 90.3326C539.331 91.9191 538.893 93.7143 538.893 95.7182C538.893 98.7658 539.874 101.271 541.836 103.233C543.798 105.195 546.324 106.176 549.414 106.176Z" fill="#0038FF"/>
  <path d="M821.288 112H810.391C807.949 112 806.571 110.622 806.571 108.18V71.3581C806.571 68.9158 807.949 67.5381 810.391 67.5381H821.288C835.127 67.5381 843.456 77.3072 843.456 89.769C843.456 102.231 835.127 112 821.288 112ZM813.898 74.1761V105.362H821.288C830.18 105.362 836.129 99.6634 836.129 89.769C836.129 79.8747 830.18 74.1761 821.288 74.1761H813.898ZM864.747 79.3737C867.565 79.1232 868.692 80.7514 868.692 82.2544C868.692 83.5068 867.878 85.5733 864.684 85.636C860.113 85.6986 857.232 88.1409 857.232 92.6497V108.744C857.232 111.123 855.479 112.376 853.662 112.376C851.909 112.376 850.093 111.123 850.093 108.744V82.7553C850.093 80.3757 851.909 79.1859 853.662 79.1859C855.479 79.1859 857.232 80.3757 857.232 82.7553V84.1957C858.672 81.5029 861.052 79.6868 864.747 79.3737ZM887.338 112.626C877.318 112.626 869.929 105.487 869.929 95.7182C869.929 86.0117 877.318 78.8101 887.338 78.8101C897.357 78.8101 904.747 86.0117 904.747 95.7182C904.747 105.487 897.357 112.626 887.338 112.626ZM887.338 106.176C893.349 106.176 897.796 101.667 897.796 95.7182C897.796 89.769 893.349 85.2602 887.338 85.2602C881.389 85.2602 876.88 89.769 876.88 95.7182C876.88 101.667 881.389 106.176 887.338 106.176ZM929.927 78.8727C939.821 78.8727 945.896 86.5127 945.896 95.8434C945.896 105.425 939.571 112.689 929.551 112.689C924.729 112.689 920.095 110.309 917.653 106.113V123.397C917.653 125.714 915.899 126.967 914.083 126.967C912.33 126.967 910.514 125.714 910.514 123.397V82.7553C910.514 80.3757 912.33 79.1859 914.083 79.1859C915.899 79.1859 917.653 80.3757 917.653 82.7553V86.1369C919.531 81.6281 924.103 78.8727 929.927 78.8727ZM928.111 106.176C934.248 106.176 938.694 101.855 938.694 95.7808C938.694 89.6438 934.248 85.3229 928.111 85.3229C922.036 85.3229 917.715 89.8317 917.715 95.7808C917.715 101.667 922.036 106.176 928.111 106.176ZM980.4 105.55H987.289C989.042 105.55 990.545 106.99 990.545 108.744C990.545 110.56 989.042 112 987.289 112H966.248C964.494 112 962.991 110.56 962.991 108.744C962.991 106.99 964.494 105.55 966.248 105.55H973.074V74.8649L967.375 76.4305C967.062 76.4931 966.749 76.5557 966.436 76.5557C964.62 76.5557 963.555 74.9902 963.555 73.4246C963.555 72.0469 964.369 70.6692 966.123 70.1682L976.455 67.4129C976.894 67.2876 977.269 67.2876 977.582 67.2876C979.336 67.2876 980.4 68.5401 980.4 70.6066V105.55Z" fill="#0038FF"/>
</svg>