<svg width="1049" height="1049" viewBox="0 0 1049 1049" fill="none" xmlns="http://www.w3.org/2000/svg">
<g clip-path="url(#clip0_213_6680)">
<rect width="1049" height="1049" fill="#C8B5FF"/>
<path d="M175.187 443.577C178.991 438.104 186.429 423.783 193.047 421.819C205.434 408.854 238.019 397.083 246.914 391.526C261.275 382.555 272.566 365.553 288.01 357.975C300.193 351.996 311.407 344.989 324.962 341.744C344.076 337.168 363.555 335.955 382.77 332.873C386.235 332.318 408.426 329.634 409.584 334.503C411.11 340.921 410.379 347.521 407.26 353.468C405.535 356.755 402.025 364.442 400.314 368.187C403.666 362.226 412.468 358.153 416.489 352.973C422.195 345.622 436.804 341.068 444.833 338.2C455.903 334.247 467.337 331.177 478.313 327.074C492.463 321.784 575.923 301.365 574.763 329.802C574.382 339.14 575.905 334.62 582.388 330.85C589.222 326.877 597.28 325.042 603.768 320.197C620.989 307.333 640.354 294.624 662.081 290.717C683.081 286.942 703.945 285.653 724.786 282.669C742.384 280.149 758.353 285.553 774.536 292.27C806.352 305.476 840.337 317.391 847.104 355.022C850.127 371.838 850.063 389.424 853.108 406.357C854.256 412.742 855.031 418.969 857.694 424.886C858.647 427.005 862.08 439.965 863.135 433.225C863.649 429.947 864.734 427.935 866.133 424.981C872.146 412.285 887.417 426.752 889.111 436.171C894.22 464.591 900.58 494.07 902.791 523.219C905.036 552.831 909.105 583.256 914.368 612.526C916.711 625.558 919.562 631.032 927.454 640.458C929.29 642.65 931.636 641.759 927.944 643.685C922.553 646.497 915.876 647.797 911.082 651.555C902.566 658.23 891.659 662.661 882.551 668.78C874.685 674.065 862.49 677.511 853.315 680.103L853.061 680.175C835.596 685.11 817.42 687.645 799.83 692.075C788.576 694.91 773.535 701.296 761.671 700.101C740.506 697.969 715.733 708.187 693.837 709.52C645.103 712.486 595.976 720.046 547.083 718.524C513.39 717.475 479.964 712.478 446.418 709.296C418.762 706.673 390.997 708.422 363.339 710.167C337.764 711.781 312.207 713.387 286.617 715.002C268.687 716.133 251 720.346 232.996 720.252C219.685 720.183 207.942 720.605 197.021 713.012C188.548 707.122 182.619 694.436 180.654 684.775C179.126 677.26 176.919 668.926 177.687 661.296C178.319 655.021 180.103 645.829 178.992 639.648C176.952 628.307 170.943 621.791 168.827 610.027C166.398 596.517 165.584 583.017 163.149 569.475C161.323 559.318 157.961 549.588 156.172 539.639C154.339 529.446 142.051 523.89 140.196 513.572C137.153 496.647 139.759 486.672 149.718 472.347C157.046 461.805 167.86 454.116 175.187 443.577Z" fill="#0038FF" stroke="#C8B5FF" stroke-width="5.50199" stroke-linecap="round"/>
<path d="M194.025 620.773C210.095 608.291 228.659 596.174 235.62 576.163C239.685 564.473 241.122 552.777 243.148 540.699C244.759 531.093 247.063 522.216 252.598 514.054C258.776 504.943 265.674 496.575 271.309 487.067C276.21 478.796 281.399 470.699 286.426 462.504C292.206 453.082 296.669 442.827 303.238 433.963C304.968 431.629 306.83 429.479 309.152 427.745C318.199 420.987 328.041 415.126 337.436 408.853C343.797 404.606 350.509 400.909 356.984 396.846C360.955 394.353 364.49 391.146 368.156 388.24C371.284 385.76 371.587 383.329 372.935 379.994C373.292 379.108 374.325 374.835 373.135 374.19C372.162 373.662 370.633 373.809 369.511 373.696C364.267 373.168 358.978 373.987 353.81 374.801C344.755 376.227 335.74 377.992 326.816 380.109C317.906 382.222 309.813 386.161 301.887 390.635C294.732 394.674 288.401 400.736 282.881 406.752C278.622 411.393 274.319 416.012 270.951 421.36C267.594 426.69 263.901 432.946 263.651 439.422C263.246 449.903 263.113 460.617 261.487 470.998C259.908 481.08 256.717 490.863 255.039 500.935C254.3 505.367 251.026 510.695 251.819 515.102" stroke="#C8B5FF" stroke-width="4.9623" stroke-linecap="round"/>
<path d="M330.865 537.507C342.596 524.219 357.282 513.689 370.445 501.909C380.436 492.969 389.66 483.959 397.764 473.257C404.101 464.889 409.02 455.706 414.471 446.769C424.282 430.685 436.757 417.197 451.023 404.98C463.664 394.154 477.628 385.317 491.515 376.211C501.14 369.899 509.898 362.46 519.528 356.143C523.413 353.595 527.53 351.141 531.059 348.105C532.49 346.875 534.355 345.136 534.38 343.064C534.437 338.318 530.372 337.513 526.302 336.695C511.728 333.766 496.312 337.197 482.057 340.305C470.042 342.924 458.562 347.239 447.851 353.289C435.605 360.206 424.492 369.791 414.462 379.596C402.44 391.35 390.386 404.585 381.829 419.12C377.305 426.803 374.354 434.747 372.249 443.398C370.146 452.043 367.877 460.551 366.466 469.344C364.947 478.806 363.709 487.889 360.175 496.863C356.812 505.405 353.543 514.603 347.17 521.421C344.363 524.424 340.811 527.082 337.425 529.395C335.684 530.584 334.031 531.997 332.188 533.003" stroke="#C8B5FF" stroke-width="4.9623" stroke-linecap="round"/>
<path d="M336.59 553.544C326.254 555.403 320.661 568.252 319.064 577.454C316.971 589.519 321.925 599.548 329.937 608.266C333.403 612.038 337.822 616.861 343.106 617.907C351.1 619.489 360.808 615.143 368.078 612.667C380.242 608.523 392.361 602.064 401.007 592.367C409.262 583.109 414.797 571.965 418.495 560.228C424.943 539.764 431.238 519.102 442.335 500.579C451.642 485.044 463.366 470.836 475.2 457.182C487.698 442.764 501.418 429.796 515.634 417.106C523.906 409.722 532.493 402.924 541.207 396.095C543.725 394.12 546.538 392.186 548.088 389.327C549.967 385.861 552.434 382.51 551.455 378.392C550.028 372.391 544.387 370.263 538.891 372.118C529.654 375.237 520.524 380.173 511.975 384.779C506.679 387.632 501.658 390.909 496.649 394.23C491.117 397.897 485.415 401.514 480.47 405.968C472.312 413.316 465.062 421.716 459.08 430.908C454.426 438.058 450.406 445.591 445.92 452.848C435.88 469.09 422.157 483.394 407.99 496.089C394.851 507.862 380.9 518.993 366.762 529.553C356.722 537.053 346.727 544.497 335.904 550.824C333.472 552.245 330.92 553.495 328.326 554.596C328.01 554.73 326.536 555.195 326.349 555.465C326.258 555.596 328.866 556.355 329.261 556.284" stroke="#C8B5FF" stroke-width="4.9623" stroke-linecap="round"/>
<path d="M463.413 677.572C468.767 673.573 473.057 668.95 476.558 663.239C480.083 657.49 482.841 651.217 485.576 645.066C488.628 638.203 491.714 631.319 494.363 624.288C497.439 616.122 500.285 607.795 502.521 599.357C504.864 590.512 505.963 581.534 507.171 572.489C509.356 556.121 514.567 540.349 517.965 524.212C520.259 513.32 523.509 502.764 527.152 492.262C530.098 483.772 530.988 474.81 533.866 466.326C536.305 459.136 539.613 452.101 544.754 446.474C552.587 437.9 562.687 432.568 572.652 426.862C584.653 419.99 597.074 413.687 608.468 405.806C617.515 399.548 626.246 392.912 635.356 386.731C646.329 379.286 657.897 372.864 670.536 368.733C678.037 366.281 686.183 363.843 694.068 365.924C701.44 367.869 706.739 374.34 710.39 380.686C714.528 387.877 716.419 394.976 716.607 403.29C716.822 412.797 715.42 421.992 712.531 431.042C710.85 436.309 708.985 441.677 705.761 446.224C700.687 453.378 692.53 457.502 684.842 461.263C670.671 468.195 655.134 471.581 640.809 478.028C630.494 482.671 623.015 491.068 614.831 498.54C609.309 503.581 603.623 508.392 598.457 513.808C593.363 519.149 588.615 524.792 583.587 530.189C573.676 540.827 562.751 550.421 550.839 558.751C533.645 570.777 518.779 584.758 510.408 604.338C508.084 609.774 505.764 615.248 502.428 620.152C499.507 624.445 496.484 628.538 493.409 632.716C490.248 637.011 487.913 642.002 485.241 646.608C482.671 651.038 480.147 655.525 477.5 659.909C475.393 663.401 473.508 667.257 470.848 670.369C469.919 671.457 468.829 673.103 467.509 673.655C466.316 674.155 463.577 676.393 466.018 674.259" stroke="#C8B5FF" stroke-width="4.9623" stroke-linecap="round"/>
<path d="M573.819 622.613C575.345 621.771 576.559 620.611 577.837 619.509C583.392 614.717 589.073 610.024 594.726 605.309C617.307 586.477 640.881 568.315 662.35 548.632C670.384 541.266 678.702 534.04 686.444 526.485C695.15 517.989 703.128 509.07 711.52 500.4C718.613 493.073 726.065 485.952 733.38 478.754C740.72 471.529 747.715 464.064 755.353 457.022C765.244 447.901 777.685 437.692 790.457 431.844C797.793 428.485 805.295 427.488 810.284 430.965C812.542 432.54 812.986 435.743 813.09 438.387C813.338 444.691 811.279 452.655 808.03 459.27C798.635 478.405 780.37 495.227 760.566 509.136C750.873 515.944 740.502 521.859 730.47 528.222C721.684 533.795 713.161 539.692 704.455 545.367C684.473 558.392 663.666 569.9 643.181 582.159C627.36 591.627 612.016 601.546 595.859 610.457C587.973 614.806 579.946 619.633 572.211 623.899" stroke="#C8B5FF" stroke-width="4.9623" stroke-linecap="round"/>
<path d="M598.833 668.479C599.834 668.299 600.69 667.709 601.577 667.196C605.433 664.965 609.351 662.874 613.255 660.751C628.848 652.273 644.944 644.787 659.988 635.106C665.618 631.482 671.397 628.096 676.878 624.188C683.042 619.793 688.829 614.732 694.829 610.058C699.9 606.108 705.157 602.484 710.343 598.736C715.547 594.975 720.577 590.862 725.934 587.38C732.871 582.872 741.443 578.353 749.674 577.937C754.402 577.698 758.939 579.677 761.449 584.767C762.585 587.072 762.454 590.163 762.191 592.613C761.565 598.456 759.378 604.925 756.657 609.706C748.785 623.534 735.977 631.841 722.62 636.9C716.082 639.376 709.255 640.777 702.573 642.717C696.72 644.416 690.983 646.512 685.164 648.335C671.811 652.519 658.158 655.002 644.602 658.295C634.133 660.837 623.889 663.974 613.291 665.88C608.118 666.81 602.803 668.121 597.729 669.033" stroke="#C8B5FF" stroke-width="4.9623" stroke-linecap="round"/>
<path d="M86.1957 101.996C83.1064 103.708 79.4952 104.564 75.3621 104.564C71.4795 104.564 67.7848 103.75 64.2779 102.121C60.8128 100.451 57.9739 97.9048 55.7613 94.4814C53.5904 91.0163 52.5049 86.7788 52.5049 81.769C52.5049 76.7175 53.5904 72.5009 55.7613 69.1193C57.9739 65.696 60.8128 63.1702 64.2779 61.542C67.7848 59.9138 71.4795 59.0997 75.3621 59.0997C79.4534 59.0997 83.1064 59.9347 86.321 61.6046C86.9472 61.9386 87.4064 62.3979 87.6987 62.9823C88.0327 63.5251 88.1997 64.1095 88.1997 64.7358C88.1997 65.5707 87.9492 66.2804 87.4482 66.8649C86.989 67.4076 86.3419 67.679 85.5069 67.679C84.9642 67.679 84.4632 67.5746 84.004 67.3659C81.3738 66.2804 78.6184 65.7377 75.7378 65.7377C72.8989 65.7377 70.2688 66.3222 67.8474 67.4911C65.4677 68.6183 63.5264 70.3926 62.0235 72.814C60.5623 75.1937 59.8317 78.1787 59.8317 81.769C59.8317 85.3177 60.5623 88.3027 62.0235 90.7241C63.5264 93.1455 65.4886 94.9406 67.91 96.1096C70.3314 97.2785 72.9615 97.863 75.8004 97.863C78.5976 97.863 81.3112 97.3203 83.9413 96.2348C84.4006 96.0261 84.9016 95.9217 85.4443 95.9217C86.2792 95.9217 86.9263 96.2139 87.3856 96.7984C87.8866 97.3412 88.137 98.03 88.137 98.865C88.137 99.4912 87.97 100.076 87.6361 100.618C87.3438 101.161 86.8637 101.62 86.1957 101.996ZM112.332 70.8101C114.712 70.8101 116.904 71.332 118.908 72.3757C120.912 73.3776 122.498 74.9432 123.667 77.0724C124.878 79.1598 125.483 81.7899 125.483 84.9628V100.618C125.483 101.787 125.107 102.706 124.356 103.374C123.646 104.042 122.811 104.376 121.851 104.376C120.891 104.376 120.035 104.042 119.283 103.374C118.574 102.706 118.219 101.787 118.219 100.618V86.0274C118.219 82.8128 117.446 80.5166 115.902 79.1389C114.399 77.7195 112.499 77.0097 110.203 77.0097C107.573 77.0097 105.486 77.8447 103.941 79.5146C102.438 81.1846 101.666 83.4807 101.624 86.4031V100.744C101.624 101.871 101.269 102.768 100.559 103.436C99.8496 104.063 99.0146 104.376 98.0544 104.376C97.0942 104.376 96.2592 104.063 95.5495 103.436C94.8398 102.768 94.4849 101.871 94.4849 100.744V60.2896C94.4849 59.1624 94.8398 58.2856 95.5495 57.6594C96.2592 56.9915 97.0942 56.6575 98.0544 56.6575C99.0146 56.6575 99.8496 56.9915 100.559 57.6594C101.269 58.2856 101.624 59.1624 101.624 60.2896V76.8219C102.668 74.8597 104.087 73.3776 105.882 72.3757C107.677 71.332 109.827 70.8101 112.332 70.8101ZM148.18 104.626C144.882 104.626 141.897 103.896 139.225 102.434C136.595 100.973 134.528 98.9693 133.026 96.4227C131.523 93.8343 130.771 90.9328 130.771 87.7182C130.771 84.5453 131.523 81.6647 133.026 79.0763C134.528 76.4879 136.595 74.4631 139.225 73.0019C141.897 71.5407 144.882 70.8101 148.18 70.8101C151.478 70.8101 154.442 71.5407 157.073 73.0019C159.744 74.4631 161.832 76.4879 163.335 79.0763C164.838 81.6647 165.589 84.5453 165.589 87.7182C165.589 90.9328 164.838 93.8343 163.335 96.4227C161.832 98.9693 159.744 100.973 157.073 102.434C154.442 103.896 151.478 104.626 148.18 104.626ZM148.18 98.1761C150.142 98.1761 151.917 97.7169 153.503 96.7984C155.131 95.88 156.384 94.6275 157.26 93.0411C158.179 91.4546 158.638 89.6803 158.638 87.7182C158.638 85.756 158.179 83.9817 157.26 82.3953C156.384 80.8088 155.131 79.5564 153.503 78.6379C151.917 77.7195 150.142 77.2602 148.18 77.2602C146.218 77.2602 144.444 77.7195 142.857 78.6379C141.271 79.5564 140.018 80.8088 139.1 82.3953C138.181 83.9817 137.722 85.756 137.722 87.7182C137.722 89.6803 138.181 91.4546 139.1 93.0411C140.018 94.6275 141.271 95.88 142.857 96.7984C144.444 97.7169 146.218 98.1761 148.18 98.1761ZM195.6 102.309C192.886 103.854 189.86 104.626 186.52 104.626C183.597 104.626 180.821 104 178.191 102.748C175.603 101.495 173.494 99.5956 171.866 97.0489C170.28 94.5023 169.486 91.392 169.486 87.7182C169.486 84.0443 170.28 80.955 171.866 78.4501C173.494 75.9034 175.603 74.0247 178.191 72.814C180.779 71.5616 183.535 70.9354 186.457 70.9354C189.839 70.9354 192.886 71.7077 195.6 73.2524C196.936 74.0456 197.604 75.1102 197.604 76.4461C197.604 77.2394 197.353 77.9282 196.852 78.5127C196.393 79.0554 195.788 79.3268 195.036 79.3268C194.577 79.3268 194.076 79.1807 193.533 78.8884C191.697 77.9282 189.693 77.4481 187.522 77.4481C185.601 77.4481 183.806 77.8447 182.136 78.6379C180.508 79.3894 179.172 80.5375 178.128 82.0822C177.126 83.6268 176.625 85.5264 176.625 87.7808C176.625 89.91 177.106 91.7469 178.066 93.2916C179.068 94.8363 180.383 96.0261 182.011 96.861C183.681 97.6543 185.476 98.0509 187.396 98.0509C189.567 98.0509 191.592 97.5708 193.471 96.6106C193.972 96.3601 194.431 96.2348 194.849 96.2348C195.6 96.2348 196.226 96.5479 196.727 97.1742C197.228 97.7586 197.479 98.4475 197.479 99.2407C197.479 99.8252 197.312 100.389 196.978 100.932C196.685 101.474 196.226 101.933 195.6 102.309ZM219.242 104.626C215.944 104.626 212.959 103.896 210.287 102.434C207.657 100.973 205.59 98.9693 204.087 96.4227C202.584 93.8343 201.833 90.9328 201.833 87.7182C201.833 84.5453 202.584 81.6647 204.087 79.0763C205.59 76.4879 207.657 74.4631 210.287 73.0019C212.959 71.5407 215.944 70.8101 219.242 70.8101C222.54 70.8101 225.504 71.5407 228.134 73.0019C230.806 74.4631 232.894 76.4879 234.397 79.0763C235.899 81.6647 236.651 84.5453 236.651 87.7182C236.651 90.9328 235.899 93.8343 234.397 96.4227C232.894 98.9693 230.806 100.973 228.134 102.434C225.504 103.896 222.54 104.626 219.242 104.626ZM219.242 98.1761C221.204 98.1761 222.978 97.7169 224.565 96.7984C226.193 95.88 227.445 94.6275 228.322 93.0411C229.241 91.4546 229.7 89.6803 229.7 87.7182C229.7 85.756 229.241 83.9817 228.322 82.3953C227.445 80.8088 226.193 79.5564 224.565 78.6379C222.978 77.7195 221.204 77.2602 219.242 77.2602C217.28 77.2602 215.505 77.7195 213.919 78.6379C212.333 79.5564 211.08 80.8088 210.162 82.3953C209.243 83.9817 208.784 85.756 208.784 87.7182C208.784 89.6803 209.243 91.4546 210.162 93.0411C211.08 94.6275 212.333 95.88 213.919 96.7984C215.505 97.7169 217.28 98.1761 219.242 98.1761ZM242.418 60.2896C242.418 59.1624 242.773 58.2856 243.483 57.6594C244.192 56.9915 245.027 56.6575 245.988 56.6575C246.948 56.6575 247.783 56.9915 248.492 57.6594C249.202 58.2856 249.557 59.1624 249.557 60.2896V100.744C249.557 101.871 249.202 102.768 248.492 103.436C247.783 104.063 246.948 104.376 245.988 104.376C245.027 104.376 244.192 104.063 243.483 103.436C242.773 102.768 242.418 101.871 242.418 100.744V60.2896ZM287.218 71.2485C288.178 71.2485 289.013 71.5616 289.723 72.1878C290.433 72.814 290.788 73.6908 290.788 74.818V100.806C290.788 101.892 290.433 102.768 289.723 103.436C289.013 104.063 288.178 104.376 287.218 104.376C286.258 104.376 285.402 104.063 284.651 103.436C283.941 102.768 283.586 101.892 283.586 100.806V97.362C282.667 99.6164 281.123 101.391 278.952 102.685C276.781 103.979 274.234 104.626 271.312 104.626C268.139 104.626 265.342 103.875 262.921 102.372C260.499 100.869 258.62 98.8232 257.285 96.2348C255.99 93.6464 255.343 90.7867 255.343 87.6556C255.343 84.4409 256.011 81.5603 257.347 79.0137C258.725 76.467 260.645 74.4631 263.108 73.0019C265.572 71.5407 268.431 70.8101 271.688 70.8101C274.151 70.8101 276.447 71.3946 278.576 72.5636C280.705 73.7325 282.375 75.3398 283.586 77.3855V74.818C283.586 73.6908 283.941 72.814 284.651 72.1878C285.36 71.5616 286.216 71.2485 287.218 71.2485ZM273.128 98.1761C275.132 98.1761 276.906 97.7169 278.451 96.7984C280.037 95.88 281.269 94.6275 282.146 93.0411C283.064 91.4546 283.523 89.6803 283.523 87.7182C283.523 85.756 283.064 84.0026 282.146 82.4579C281.269 80.8715 280.037 79.619 278.451 78.7006C276.906 77.7821 275.132 77.3229 273.128 77.3229C271.124 77.3229 269.308 77.7612 267.68 78.6379C266.093 79.5146 264.841 80.7462 263.923 82.3326C263.046 83.9191 262.607 85.7143 262.607 87.7182C262.607 90.7658 263.589 93.2707 265.551 95.2329C267.513 97.195 270.039 98.1761 273.128 98.1761ZM313.407 71.499C314.158 71.499 314.805 71.7703 315.348 72.3131C315.933 72.8558 316.225 73.5238 316.225 74.317C316.225 75.1102 315.933 75.7782 315.348 76.3209C314.805 76.8636 314.158 77.135 313.407 77.135H308.71V100.744C308.71 101.871 308.355 102.768 307.646 103.436C306.936 104.063 306.101 104.376 305.141 104.376C304.181 104.376 303.325 104.063 302.573 103.436C301.864 102.768 301.509 101.871 301.509 100.744V77.135H298.941C298.19 77.135 297.522 76.8636 296.937 76.3209C296.395 75.7782 296.123 75.1102 296.123 74.317C296.123 73.5655 296.395 72.9184 296.937 72.3757C297.522 71.7912 298.19 71.499 298.941 71.499H301.509V65.2994C301.509 64.1722 301.864 63.2954 302.573 62.6692C303.325 62.043 304.181 61.7299 305.141 61.7299C306.101 61.7299 306.936 62.043 307.646 62.6692C308.355 63.2954 308.71 64.1722 308.71 65.2994V71.499H313.407ZM351.153 85.9647C351.278 87.2172 351.027 88.1774 350.401 88.8454C349.817 89.4716 348.898 89.7847 347.646 89.7847H325.164C325.206 91.4964 325.686 93.0411 326.605 94.4188C327.523 95.7547 328.734 96.7984 330.237 97.5499C331.781 98.3014 333.451 98.6771 335.247 98.6771C338.712 98.6771 341.488 97.2785 343.575 94.4814C344.202 93.6047 344.995 93.1663 345.955 93.1663C346.748 93.1663 347.458 93.5003 348.084 94.1683C348.71 94.7945 349.023 95.5251 349.023 96.3601C349.023 97.0698 348.752 97.7586 348.209 98.4266C346.706 100.264 344.849 101.766 342.636 102.935C340.465 104.063 337.981 104.626 335.184 104.626C331.886 104.626 328.943 103.937 326.354 102.56C323.766 101.14 321.741 99.1572 320.28 96.6106C318.819 94.0639 318.088 91.1207 318.088 87.7808C318.088 84.6079 318.798 81.7273 320.217 79.1389C321.637 76.5505 323.599 74.5257 326.104 73.0645C328.65 71.5616 331.51 70.8101 334.683 70.8101C339.233 70.8101 342.991 72.1878 345.955 74.9432C348.919 77.6568 350.652 81.3307 351.153 85.9647ZM334.683 76.634C332.095 76.634 329.924 77.4272 328.17 79.0137C326.417 80.5583 325.436 82.5414 325.227 84.9628H344.202C343.993 82.5414 343.012 80.5583 341.258 79.0137C339.547 77.4272 337.355 76.634 334.683 76.634ZM389.95 70.8727C393.165 70.8727 395.983 71.6242 398.404 73.1272C400.826 74.6301 402.683 76.6758 403.978 79.2642C405.272 81.8525 405.919 84.7123 405.919 87.8434C405.919 91.0163 405.251 93.8969 403.915 96.4853C402.579 99.032 400.659 101.036 398.154 102.497C395.69 103.958 392.831 104.689 389.574 104.689C387.111 104.689 384.815 104.104 382.686 102.935C380.557 101.766 378.887 100.159 377.676 98.1135V100.744C377.676 101.871 377.321 102.768 376.612 103.436C375.902 104.063 375.067 104.376 374.107 104.376C373.146 104.376 372.311 104.063 371.602 103.436C370.892 102.768 370.537 101.871 370.537 100.744V60.2896C370.537 59.1624 370.892 58.2856 371.602 57.6594C372.311 56.9915 373.146 56.6575 374.107 56.6575C375.067 56.6575 375.902 56.9915 376.612 57.6594C377.321 58.2856 377.676 59.1624 377.676 60.2896V78.1369C378.636 75.8825 380.181 74.1082 382.31 72.814C384.481 71.5198 387.028 70.8727 389.95 70.8727ZM388.134 98.1761C390.138 98.1761 391.933 97.7378 393.52 96.861C395.148 95.9426 396.421 94.711 397.34 93.1663C398.258 91.5799 398.717 89.7847 398.717 87.7808C398.717 85.7769 398.258 83.9817 397.34 82.3953C396.421 80.8088 395.148 79.5773 393.52 78.7006C391.933 77.7821 390.138 77.3229 388.134 77.3229C386.13 77.3229 384.335 77.7821 382.749 78.7006C381.204 79.619 379.972 80.8715 379.054 82.4579C378.177 84.0443 377.739 85.8186 377.739 87.7808C377.739 89.743 378.177 91.5173 379.054 93.1037C379.972 94.6484 381.204 95.88 382.749 96.7984C384.335 97.7169 386.13 98.1761 388.134 98.1761ZM441.511 71.2485C442.472 71.2485 443.306 71.5616 444.016 72.1878C444.726 72.814 445.081 73.6908 445.081 74.818V100.806C445.081 101.892 444.726 102.768 444.016 103.436C443.306 104.063 442.472 104.376 441.511 104.376C440.551 104.376 439.695 104.063 438.944 103.436C438.234 102.768 437.879 101.892 437.879 100.806V97.362C436.961 99.6164 435.416 101.391 433.245 102.685C431.074 103.979 428.528 104.626 425.605 104.626C422.432 104.626 419.635 103.875 417.214 102.372C414.792 100.869 412.914 98.8232 411.578 96.2348C410.284 93.6464 409.637 90.7867 409.637 87.6556C409.637 84.4409 410.304 81.5603 411.64 79.0137C413.018 76.467 414.939 74.4631 417.402 73.0019C419.865 71.5407 422.725 70.8101 425.981 70.8101C428.444 70.8101 430.74 71.3946 432.869 72.5636C434.999 73.7325 436.669 75.3398 437.879 77.3855V74.818C437.879 73.6908 438.234 72.814 438.944 72.1878C439.654 71.5616 440.509 71.2485 441.511 71.2485ZM427.421 98.1761C429.425 98.1761 431.199 97.7169 432.744 96.7984C434.331 95.88 435.562 94.6275 436.439 93.0411C437.357 91.4546 437.817 89.6803 437.817 87.7182C437.817 85.756 437.357 84.0026 436.439 82.4579C435.562 80.8715 434.331 79.619 432.744 78.7006C431.199 77.7821 429.425 77.3229 427.421 77.3229C425.417 77.3229 423.601 77.7612 421.973 78.6379C420.387 79.5146 419.134 80.7462 418.216 82.3326C417.339 83.9191 416.901 85.7143 416.901 87.7182C416.901 90.7658 417.882 93.2707 419.844 95.2329C421.806 97.195 424.332 98.1761 427.421 98.1761ZM471.959 70.8727C475.173 70.8727 477.991 71.6242 480.413 73.1272C482.834 74.6301 484.692 76.6758 485.986 79.2642C487.28 81.8525 487.927 84.7123 487.927 87.8434C487.927 91.0163 487.259 93.8969 485.923 96.4853C484.587 99.032 482.667 101.036 480.162 102.497C477.699 103.958 474.839 104.689 471.583 104.689C469.12 104.689 466.823 104.104 464.694 102.935C462.565 101.766 460.895 100.159 459.685 98.1135V100.744C459.685 101.871 459.33 102.768 458.62 103.436C457.91 104.063 457.075 104.376 456.115 104.376C455.155 104.376 454.32 104.063 453.61 103.436C452.9 102.768 452.546 101.871 452.546 100.744V60.2896C452.546 59.1624 452.9 58.2856 453.61 57.6594C454.32 56.9915 455.155 56.6575 456.115 56.6575C457.075 56.6575 457.91 56.9915 458.62 57.6594C459.33 58.2856 459.685 59.1624 459.685 60.2896V78.1369C460.645 75.8825 462.189 74.1082 464.319 72.814C466.49 71.5198 469.036 70.8727 471.959 70.8727ZM470.142 98.1761C472.146 98.1761 473.942 97.7378 475.528 96.861C477.156 95.9426 478.43 94.711 479.348 93.1663C480.266 91.5799 480.726 89.7847 480.726 87.7808C480.726 85.7769 480.266 83.9817 479.348 82.3953C478.43 80.8088 477.156 79.5773 475.528 78.7006C473.942 77.7821 472.146 77.3229 470.142 77.3229C468.139 77.3229 466.343 77.7821 464.757 78.7006C463.212 79.619 461.981 80.8715 461.062 82.4579C460.186 84.0443 459.747 85.8186 459.747 87.7808C459.747 89.743 460.186 91.5173 461.062 93.1037C461.981 94.6484 463.212 95.88 464.757 96.7984C466.343 97.7169 468.139 98.1761 470.142 98.1761ZM520.568 99.0528C521.152 99.5956 521.444 100.243 521.444 100.994C521.444 101.829 521.069 102.581 520.317 103.249C519.607 103.917 518.773 104.25 517.812 104.25C516.894 104.25 516.08 103.896 515.37 103.186L500.591 88.6575C500.758 92.5818 500.842 96.6106 500.842 100.744C500.842 101.704 500.508 102.56 499.84 103.311C499.172 104.021 498.316 104.376 497.272 104.376C496.312 104.376 495.477 104.021 494.767 103.311C494.058 102.56 493.703 101.704 493.703 100.744V60.2896C493.703 59.3294 494.058 58.4944 494.767 57.7847C495.477 57.0332 496.312 56.6575 497.272 56.6575C498.274 56.6575 499.109 57.0123 499.777 57.722C500.487 58.4318 500.842 59.2876 500.842 60.2896C500.842 65.5498 500.821 70.2883 500.779 74.5048C500.737 78.6797 500.654 82.0613 500.529 84.6497L515.12 72.4383C516.122 71.6033 517.186 71.1859 518.313 71.1859C519.232 71.1859 519.983 71.4572 520.568 72C521.194 72.5009 521.507 73.1063 521.507 73.816C521.507 74.6927 521.048 75.5068 520.129 76.2583L507.73 86.6536L520.568 99.0528ZM555.504 71.2485C556.464 71.2485 557.299 71.5616 558.009 72.1878C558.718 72.814 559.073 73.6908 559.073 74.818V100.806C559.073 101.892 558.718 102.768 558.009 103.436C557.299 104.063 556.464 104.376 555.504 104.376C554.543 104.376 553.688 104.063 552.936 103.436C552.226 102.768 551.872 101.892 551.872 100.806V97.362C550.953 99.6164 549.408 101.391 547.238 102.685C545.067 103.979 542.52 104.626 539.598 104.626C536.425 104.626 533.628 103.875 531.206 102.372C528.785 100.869 526.906 98.8232 525.57 96.2348C524.276 93.6464 523.629 90.7867 523.629 87.6556C523.629 84.4409 524.297 81.5603 525.633 79.0137C527.01 76.467 528.931 74.4631 531.394 73.0019C533.857 71.5407 536.717 70.8101 539.973 70.8101C542.436 70.8101 544.733 71.3946 546.862 72.5636C548.991 73.7325 550.661 75.3398 551.872 77.3855V74.818C551.872 73.6908 552.226 72.814 552.936 72.1878C553.646 71.5616 554.502 71.2485 555.504 71.2485ZM541.414 98.1761C543.418 98.1761 545.192 97.7169 546.737 96.7984C548.323 95.88 549.555 94.6275 550.431 93.0411C551.35 91.4546 551.809 89.6803 551.809 87.7182C551.809 85.756 551.35 84.0026 550.431 82.4579C549.555 80.8715 548.323 79.619 546.737 78.7006C545.192 77.7821 543.418 77.3229 541.414 77.3229C539.41 77.3229 537.594 77.7612 535.965 78.6379C534.379 79.5146 533.127 80.7462 532.208 82.3326C531.331 83.9191 530.893 85.7143 530.893 87.7182C530.893 90.7658 531.874 93.2707 533.836 95.2329C535.798 97.195 538.324 98.1761 541.414 98.1761Z" fill="#0038FF"/>
<path d="M829.288 104H818.391C815.949 104 814.571 102.622 814.571 100.18V63.3581C814.571 60.9158 815.949 59.5381 818.391 59.5381H829.288C843.127 59.5381 851.456 69.3072 851.456 81.769C851.456 94.2309 843.127 104 829.288 104ZM821.898 66.1761V97.362H829.288C838.18 97.362 844.129 91.6634 844.129 81.769C844.129 71.8747 838.18 66.1761 829.288 66.1761H821.898ZM872.747 71.3737C875.565 71.1232 876.692 72.7514 876.692 74.2544C876.692 75.5068 875.878 77.5733 872.684 77.636C868.113 77.6986 865.232 80.1409 865.232 84.6497V100.744C865.232 103.123 863.479 104.376 861.662 104.376C859.909 104.376 858.093 103.123 858.093 100.744V74.7553C858.093 72.3757 859.909 71.1859 861.662 71.1859C863.479 71.1859 865.232 72.3757 865.232 74.7553V76.1957C866.672 73.5029 869.052 71.6868 872.747 71.3737ZM895.338 104.626C885.318 104.626 877.929 97.4873 877.929 87.7182C877.929 78.0117 885.318 70.8101 895.338 70.8101C905.357 70.8101 912.747 78.0117 912.747 87.7182C912.747 97.4873 905.357 104.626 895.338 104.626ZM895.338 98.1761C901.349 98.1761 905.796 93.6673 905.796 87.7182C905.796 81.769 901.349 77.2602 895.338 77.2602C889.389 77.2602 884.88 81.769 884.88 87.7182C884.88 93.6673 889.389 98.1761 895.338 98.1761ZM937.927 70.8727C947.821 70.8727 953.896 78.5127 953.896 87.8434C953.896 97.4246 947.571 104.689 937.551 104.689C932.729 104.689 928.095 102.309 925.653 98.1135V115.397C925.653 117.714 923.899 118.967 922.083 118.967C920.33 118.967 918.514 117.714 918.514 115.397V74.7553C918.514 72.3757 920.33 71.1859 922.083 71.1859C923.899 71.1859 925.653 72.3757 925.653 74.7553V78.1369C927.531 73.6281 932.103 70.8727 937.927 70.8727ZM936.111 98.1761C942.248 98.1761 946.694 93.8552 946.694 87.7808C946.694 81.6438 942.248 77.3229 936.111 77.3229C930.036 77.3229 925.715 81.8317 925.715 87.7808C925.715 93.6673 930.036 98.1761 936.111 98.1761ZM988.4 97.5499H995.289C997.042 97.5499 998.545 98.9902 998.545 100.744C998.545 102.56 997.042 104 995.289 104H974.248C972.494 104 970.991 102.56 970.991 100.744C970.991 98.9902 972.494 97.5499 974.248 97.5499H981.074V66.8649L975.375 68.4305C975.062 68.4931 974.749 68.5557 974.436 68.5557C972.62 68.5557 971.555 66.9902 971.555 65.4246C971.555 64.0469 972.369 62.6692 974.123 62.1682L984.455 59.4129C984.894 59.2876 985.269 59.2876 985.582 59.2876C987.336 59.2876 988.4 60.5401 988.4 62.6066V97.5499Z" fill="#0038FF"/>
<path d="M428.197 926.145C420.408 926.145 413.428 924.345 407.256 920.745C401.157 917.071 396.381 912.185 392.927 906.086C389.548 899.914 387.858 893.154 387.858 885.806C387.858 878.532 389.548 871.846 392.927 865.747C396.307 859.648 401.047 854.799 407.145 851.198C413.244 847.525 420.188 845.688 427.976 845.688C433.193 845.688 437.859 846.349 441.974 847.671C446.162 848.921 449.689 850.611 452.554 852.741C454.244 853.991 455.493 855.387 456.302 856.93C457.11 858.399 457.514 859.905 457.514 861.448C457.514 863.653 456.706 865.563 455.089 867.18C453.546 868.796 451.562 869.604 449.138 869.604C446.786 869.604 444.398 868.759 441.974 867.069C440.284 865.894 438.263 864.939 435.912 864.204C433.56 863.396 431.025 862.991 428.307 862.991C424.045 862.991 420.261 863.983 416.955 865.967C413.648 867.951 411.076 870.707 409.239 874.234C407.476 877.76 406.594 881.728 406.594 886.137C406.594 890.472 407.439 894.366 409.129 897.82C410.819 901.2 413.281 903.882 416.514 905.866C419.747 907.849 423.531 908.841 427.866 908.841C432.495 908.841 436.463 907.739 439.769 905.535C443.076 903.257 445.464 900.134 446.933 896.166H426.433C423.861 896.166 421.841 895.358 420.371 893.742C418.975 892.125 418.277 890.178 418.277 887.9C418.277 885.696 418.975 883.786 420.371 882.169C421.841 880.479 423.861 879.634 426.433 879.634H457.073C460.086 879.634 462.364 880.479 463.907 882.169C465.523 883.859 466.331 886.357 466.331 889.664C466.331 890.325 466.258 891.464 466.111 893.08C465.45 898.15 463.613 903.22 460.6 908.29C457.588 913.36 453.326 917.622 447.815 921.075C442.378 924.455 435.838 926.145 428.197 926.145ZM498.991 891.868H498.88C497.999 891.758 497.337 890.986 497.448 890.105L499.542 871.809C499.652 870.927 500.534 870.266 501.415 870.376C502.297 870.486 502.848 871.368 502.738 872.25L500.644 890.435C500.534 891.317 499.872 891.868 498.991 891.868ZM511.445 834.446C511.225 834.446 511.004 834.446 511.004 834.446C497.558 835.437 477.278 861.228 471.437 884.704C468.791 895.726 468.13 910.605 480.805 918.43C484.552 920.634 488.189 921.847 491.716 921.847C498.219 921.847 504.391 918.21 510.233 910.935C523.459 894.513 530.182 864.865 526.985 850.317C523.789 835.548 514.311 834.446 511.445 834.446ZM530.953 858.473C530.953 874.895 524.23 898.701 512.768 913.03C506.375 920.855 499.101 925.043 491.716 925.043C487.528 925.043 483.34 923.72 479.152 921.186C468.02 914.242 464.162 901.016 468.351 883.933C474.523 858.913 495.905 832.351 510.673 831.249C510.673 831.249 511.004 831.249 511.445 831.249C513.87 831.249 526.324 832.131 530.072 849.655C530.623 852.19 530.953 855.166 530.953 858.473ZM557.005 891.868H556.894C556.013 891.758 555.351 890.986 555.462 890.105L557.556 871.809C557.666 870.927 558.548 870.266 559.429 870.376C560.311 870.486 560.862 871.368 560.752 872.25L558.658 890.435C558.548 891.317 557.886 891.868 557.005 891.868ZM569.459 834.446C569.239 834.446 569.018 834.446 569.018 834.446C555.572 835.437 535.292 861.228 529.451 884.704C526.805 895.726 526.144 910.605 538.819 918.43C542.566 920.634 546.203 921.847 549.73 921.847C556.233 921.847 562.405 918.21 568.247 910.935C581.473 894.513 588.196 864.865 585 850.317C581.803 835.548 572.325 834.446 569.459 834.446ZM588.967 858.473C588.967 874.895 582.244 898.701 570.782 913.03C564.389 920.855 557.115 925.043 549.73 925.043C545.542 925.043 541.354 923.72 537.166 921.186C526.034 914.242 522.176 901.016 526.365 883.933C532.537 858.913 553.919 832.351 568.688 831.249C568.688 831.249 569.018 831.249 569.459 831.249C571.884 831.249 584.338 832.131 588.086 849.655C588.637 852.19 588.967 855.166 588.967 858.473ZM602.454 925.043C599.295 925.043 596.87 924.198 595.18 922.508C593.49 920.818 592.645 918.393 592.645 915.234V856.599C592.645 853.366 593.49 850.941 595.18 849.325C596.87 847.635 599.295 846.79 602.454 846.79H620.53C628.833 846.79 636.033 848.516 642.132 851.97C648.304 855.35 653.007 860.016 656.24 865.967C659.473 871.919 661.089 878.569 661.089 885.916C661.089 893.264 659.473 899.914 656.24 905.866C653.007 911.817 648.304 916.52 642.132 919.973C636.033 923.353 628.833 925.043 620.53 925.043H602.454ZM620.53 908.07C627.216 908.07 632.506 906.27 636.401 902.669C640.368 898.995 642.352 893.411 642.352 885.916C642.352 878.422 640.368 872.874 636.401 869.274C632.506 865.6 627.216 863.763 620.53 863.763H611.382V908.07H620.53Z" fill="#0033E6"/>
<path d="M514.055 929.895C514.236 931.495 516.754 935.219 517.928 936.085C520.456 937.95 521.311 936.907 523.913 936.907C527.8 936.907 529.589 932.137 530.954 929.115" stroke="#0033E6" stroke-width="2.20432" stroke-linecap="round"/>
<path d="M571.521 817.992C572.716 819.319 573.489 820.334 575.119 821.328C576.692 822.287 578.838 822.954 580.701 822.954" stroke="#0033E6" stroke-width="2.20432" stroke-linecap="round"/>
<path d="M510.739 817C509.934 817 509.132 817.619 508.451 817.992C507.111 818.727 505.693 819.395 504.261 819.922C503.032 820.374 501.627 820.722 500.319 820.722" stroke="#0033E6" stroke-width="2.20432" stroke-linecap="round"/>
<path d="M423.223 949.186C427.996 949.186 432.149 950.333 435.682 952.626C439.215 954.92 441.881 958.019 443.678 961.924C445.538 965.829 446.468 970.106 446.468 974.755C446.468 979.59 445.507 983.929 443.585 987.772C441.664 991.553 438.874 994.56 435.217 996.791C431.622 998.96 427.345 1000.05 422.386 1000.05C419.597 1000.05 416.839 999.487 414.111 998.372C411.384 997.194 409.152 995.489 407.417 993.258C407.169 995.303 406.301 996.915 404.813 998.093C403.388 999.208 401.714 999.766 399.793 999.766C397.747 999.766 395.949 999.084 394.4 997.721C392.85 996.357 392.075 994.467 392.075 992.049V936.262C392.075 933.845 392.85 931.954 394.4 930.591C395.949 929.227 397.747 928.545 399.793 928.545C401.9 928.545 403.698 929.227 405.185 930.591C406.735 931.954 407.51 933.845 407.51 936.262V957.275C408.564 954.734 410.485 952.75 413.274 951.325C416.126 949.899 419.442 949.186 423.223 949.186ZM419.132 986.099C422.603 986.099 425.424 985.045 427.593 982.937C429.762 980.768 430.847 977.978 430.847 974.569C430.847 971.16 429.762 968.402 427.593 966.294C425.424 964.125 422.603 963.04 419.132 963.04C415.785 963.04 413.026 964.125 410.857 966.294C408.687 968.402 407.603 971.16 407.603 974.569C407.603 977.978 408.687 980.768 410.857 982.937C413.026 985.045 415.785 986.099 419.132 986.099ZM476.793 950.023C477.165 949.961 477.692 949.93 478.374 949.93C480.419 949.93 482.031 950.519 483.208 951.697C484.386 952.874 484.975 954.3 484.975 955.974C484.975 957.833 484.262 959.507 482.836 960.994C481.473 962.482 479.427 963.35 476.7 963.598C471.493 964.094 468.89 966.883 468.89 971.966V992.049C468.89 994.467 468.115 996.357 466.565 997.721C465.078 999.084 463.28 999.766 461.173 999.766C459.127 999.766 457.33 999.084 455.78 997.721C454.23 996.357 453.455 994.467 453.455 992.049V957.089C453.455 954.672 454.23 952.781 455.78 951.418C457.33 950.054 459.127 949.372 461.173 949.372C463.032 949.372 464.675 949.899 466.1 950.953C467.526 952.007 468.394 953.494 468.704 955.416C470.687 952.378 473.384 950.581 476.793 950.023ZM537.3 971.036C537.362 971.346 537.393 971.842 537.393 972.524C537.393 974.693 536.68 976.367 535.254 977.545C533.891 978.66 532.031 979.218 529.676 979.218H502.433C502.743 981.512 503.89 983.433 505.873 984.983C507.919 986.47 510.367 987.214 513.218 987.214C516.814 987.214 519.696 986.037 521.865 983.681C523.415 982.069 525.089 981.264 526.886 981.264C528.684 981.264 530.233 981.915 531.535 983.216C532.899 984.518 533.581 986.037 533.581 987.772C533.581 989.384 532.899 990.902 531.535 992.328C529.118 994.745 526.328 996.636 523.167 998C520.068 999.301 516.721 999.952 513.126 999.952C508.043 999.952 503.518 998.898 499.551 996.791C495.584 994.683 492.484 991.739 490.253 987.958C488.021 984.115 486.906 979.714 486.906 974.755C486.906 969.858 487.99 965.457 490.16 961.552C492.329 957.647 495.336 954.61 499.179 952.44C503.022 950.209 507.392 949.093 512.289 949.093C518.921 949.093 524.469 950.953 528.932 954.672C533.457 958.391 536.246 963.846 537.3 971.036ZM512.289 961.459C509.499 961.459 507.175 962.141 505.315 963.505C503.456 964.869 502.464 966.728 502.34 969.084H522.33C522.082 966.79 521.029 964.962 519.169 963.598C517.31 962.172 515.016 961.459 512.289 961.459ZM587.881 949.465C589.988 949.465 591.817 950.147 593.366 951.511C594.916 952.812 595.691 954.703 595.691 957.182V991.956C595.691 994.374 594.916 996.264 593.366 997.628C591.817 998.991 589.988 999.673 587.881 999.673C585.773 999.673 583.944 998.991 582.395 997.628C580.845 996.264 580.07 994.374 580.07 991.956V991.863C579.017 994.405 577.064 996.388 574.213 997.814C571.423 999.239 568.138 999.952 564.357 999.952C559.584 999.952 555.431 998.806 551.898 996.512C548.365 994.219 545.669 991.119 543.809 987.214C542.011 983.309 541.113 979.032 541.113 974.383C541.113 969.548 542.073 965.24 543.995 961.459C545.916 957.616 548.675 954.61 552.27 952.44C555.927 950.209 560.235 949.093 565.194 949.093C567.983 949.093 570.742 949.682 573.469 950.86C576.196 951.976 578.428 953.649 580.163 955.881C580.473 953.835 581.341 952.255 582.767 951.139C584.254 950.023 585.959 949.465 587.881 949.465ZM568.448 986.099C571.795 986.099 574.554 985.045 576.723 982.937C578.893 980.768 579.977 977.978 579.977 974.569C579.977 971.16 578.893 968.402 576.723 966.294C574.554 964.125 571.795 963.04 568.448 963.04C564.977 963.04 562.157 964.125 559.987 966.294C557.818 968.402 556.733 971.16 556.733 974.569C556.733 977.978 557.818 980.768 559.987 982.937C562.157 985.045 564.977 986.099 568.448 986.099ZM649.349 928.545C651.457 928.545 653.254 929.227 654.742 930.591C656.292 931.954 657.066 933.845 657.066 936.262V992.049C657.066 994.467 656.292 996.357 654.742 997.721C653.254 999.084 651.457 999.766 649.349 999.766C647.304 999.766 645.506 999.084 643.956 997.721C642.407 996.357 641.632 994.467 641.632 992.049V991.863C640.578 994.405 638.626 996.388 635.774 997.814C632.985 999.239 629.7 999.952 625.919 999.952C621.146 999.952 616.993 998.806 613.46 996.512C609.927 994.219 607.23 991.119 605.371 987.214C603.573 983.309 602.674 979.032 602.674 974.383C602.674 969.548 603.635 965.24 605.557 961.459C607.478 957.616 610.236 954.61 613.832 952.44C617.489 950.209 621.797 949.093 626.756 949.093C629.545 949.093 632.272 949.651 634.938 950.767C637.665 951.883 639.896 953.525 641.632 955.695V936.262C641.632 933.845 642.407 931.954 643.956 930.591C645.506 929.227 647.304 928.545 649.349 928.545ZM630.01 986.099C633.357 986.099 636.115 985.045 638.285 982.937C640.454 980.768 641.539 977.978 641.539 974.569C641.539 971.16 640.454 968.402 638.285 966.294C636.115 964.125 633.357 963.04 630.01 963.04C626.539 963.04 623.718 964.125 621.549 966.294C619.379 968.402 618.295 971.16 618.295 974.569C618.295 977.978 619.379 980.768 621.549 982.937C623.718 985.045 626.539 986.099 630.01 986.099Z" fill="#0033E6"/>
</g>
<defs>
<clipPath id="clip0_213_6680">
<rect width="1049" height="1049" fill="white"/>
</clipPath>
</defs>
</svg>
