<svg width="1049" height="1186" viewbox="0 0 1049 1186" fill="none" xmlns="http://www.w3.org/2000/svg">
  <rect width="1049" height="1186" fill="#C8B5FF"/>
  <path d="M211.219 679.611C212.888 681.536 215.122 683.208 215.988 685.646C217.98 693.909 243.002 688.849 249.697 689.945C262.895 692.108 282.211 682.369 294.451 678.188C317.2 670.417 341.139 664.945 364.186 658.09C383.561 652.328 403.207 646.646 422.628 641.238L422.892 641.165C440.599 636.234 462.666 630.09 477.602 619.16C489.08 610.761 490.083 599.442 489.452 587.119C488.517 568.861 481.633 550.085 477.372 532.406L469.293 498.88C466.625 487.808 465.579 473.837 458.809 464.214C453.782 457.068 448.972 450.697 442.625 444.54C437.03 439.113 426.647 435.623 419.508 432.45C409.638 428.063 397.16 428.163 386.759 424.925C379.492 422.663 372.629 421.301 364.78 422.139C339.71 424.817 315.402 430.831 290.747 435.864C269.778 440.144 249.55 445.106 229.01 451.489C214.436 456.019 200.728 460.884 189.794 471.491C178.687 482.265 174.216 498.909 170.026 512.925C162.056 539.586 159.107 567.499 165.582 594.369C169.63 611.168 173.305 627.859 183.107 642.531C191.637 655.3 201.119 667.951 211.219 679.611Z" fill="#0038FF"/>
  <path d="M256.94 453.265C252.202 454.921 248.702 458.527 245.456 462.174C237.94 470.617 229.952 478.735 224.446 488.73C221.427 494.211 210.998 520.86 219.79 525.35C224.192 527.598 237.848 516.5 240.702 514.544C251.141 507.391 259.508 499.637 264.731 488.084C270.774 474.717 272.673 462.432 283.058 451.015C286.059 447.716 291.624 439.467 291.467 448.615C291.118 468.87 288.117 486.411 280.322 504.922C274.947 517.686 289.365 519.785 296.977 512.816C313.543 497.65 310.649 481.972 312.572 462.851C313.714 451.488 319.25 444.362 325.431 435.412C328.25 431.331 328.683 437.719 329.207 439.895C330.73 446.213 333.413 453.038 332.607 459.595C332.007 464.472 328.053 489.532 334.481 492.545C346.982 498.404 360.254 471.37 358.704 461.919C356.96 451.28 353.224 441.236 350.013 431.136C346.684 420.664 339.68 422.542 330.926 424.652C307.113 430.39 284.269 441.287 260.808 446.941" stroke="#FFEED8" stroke-width="2.3607" stroke-linecap="round"/>
  <path d="M547.925 362.371C465.226 350.811 384.217 331.553 300.847 324.003C296.114 324.104 296.889 325.365 291.445 324.604C285.734 323.806 280.61 321.175 275.182 320.416C255.571 317.675 244.055 298.111 222.861 300.124C217.885 300.597 205.6 301.328 201.797 305.371C195.363 312.211 195.135 307.577 199.761 314.554C205.046 322.525 214.369 330.281 221.124 336.795C228.564 343.969 232.586 351.889 238.945 360.136C248.06 371.956 257.639 383.341 268.325 393.71C282.046 407.023 293.085 423.167 308.593 434.231C345.441 460.519 389.633 474.802 431.114 489.654C457.461 499.087 486.13 503.821 513.536 508.728C541.834 513.795 569.983 518.64 598.471 522.622C631.645 527.259 665.21 531.936 698.818 531.968C725.115 531.994 751.384 536.853 777.723 537.147C798.77 537.382 818.617 538.076 839.404 540.982C858.131 543.6 877.453 557.859 897.186 553.846C905.182 552.22 905.866 543.963 909.374 537.359C910.83 534.617 897.687 527.764 895.73 525.878C882.916 513.521 869.666 502.74 862.498 484.851C860.346 479.479 854.202 471.542 850.682 467.029C843.572 457.914 835.113 449.557 825.349 444.234C813.234 437.628 801.006 431.877 789.083 424.909C759.481 407.612 725.341 403.373 693.64 393.271C647.262 378.492 596.042 369.097 547.925 362.371Z" fill="#FFEED8" stroke="#0038FF" stroke-width="4.69858" stroke-linecap="round"/>
  <path d="M462.445 424.749C446.302 409.789 434.49 391.843 424.219 375.146C428.629 373.436 455.224 395.453 460.778 399.861C480.929 415.859 503.353 429.915 523.566 445.794C524.709 446.692 548.144 465.664 536.535 463.49C521.6 460.692 504.487 450.633 490.519 443.215C480.327 437.802 470.582 432.29 462.445 424.749Z" fill="#FFEED8"/>
  <path d="M419.665 367.687C431.023 386.358 443.866 407.532 462.445 424.749C470.582 432.29 480.327 437.802 490.519 443.215C504.487 450.633 521.6 460.692 536.535 463.49C548.144 465.664 524.709 446.692 523.566 445.794C503.353 429.915 480.929 415.859 460.778 399.861C455.219 395.448 428.575 373.391 424.206 375.151" stroke="#0038FF" stroke-width="4.69858" stroke-linecap="round"/>
  <path d="M389.893 389.171C406.549 405.458 418.206 428.274 428.258 449.814C423.267 454.391 395.625 431.652 389.839 427.198C368.842 411.035 345.193 398.88 324.12 382.929C322.928 382.026 298.539 362.657 311.17 361.004C327.42 358.879 345.518 367.114 360.351 372.603C371.174 376.608 381.496 380.961 389.893 389.171Z" fill="#FFEED8"/>
  <path d="M432.711 459.453C421.61 435.31 409.063 407.916 389.893 389.171C381.496 380.961 371.174 376.608 360.351 372.603C345.518 367.114 327.42 358.879 311.17 361.004C298.539 362.657 322.928 382.026 324.12 382.929C345.193 398.88 368.842 411.035 389.839 427.198C395.631 431.656 423.323 454.437 428.273 449.8" stroke="#0038FF" stroke-width="4.69858" stroke-linecap="round"/>
  <path d="M547.101 416.168C546.82 421.812 559.284 431.544 562.957 435.102C573.943 445.742 585.346 455.69 597.873 464.472C608.583 471.981 619.773 476.397 632.565 478.921C638.741 480.139 652.022 482.581 655.364 475.237C659.649 465.821 651.254 455.077 644.048 449.761C632.29 441.087 616.61 437.885 602.771 434.079C586.001 429.466 569.917 422.444 553.136 417.828" stroke="#0038FF" stroke-width="4.69858" stroke-linecap="round"/>
  <path d="M696.697 448.232C696.061 452.611 716.842 461.564 720.423 463.992C732.7 472.316 742.329 483.425 754.115 492.304C758.886 495.899 779.343 505.26 784.283 497.501C788.507 490.865 783.191 483.006 777.948 479.094C756.079 462.778 725.08 464.861 702.733 449.892" stroke="#0038FF" stroke-width="4.69858" stroke-linecap="round"/>
  <path d="M546.751 479.753C550.479 478.798 559.135 475.347 562.768 476.986C573.074 475.996 591.756 483.151 597.741 484.08C607.402 485.579 618.753 482.412 628.362 484.929C635.942 486.915 643.488 488.085 650.636 491.783C660.716 496.998 669.685 503.82 679.245 509.725C680.969 510.79 691.68 517.993 690.348 520.558C688.592 523.938 685.782 526.547 682.174 527.968C680.18 528.754 675.744 530.788 673.583 531.779C677.298 530.439 682.682 531.981 686.394 531.235C691.662 530.177 699.764 533.7 704.356 535.478C710.685 537.928 716.84 540.902 723.186 543.252C731.365 546.281 775.543 568.858 764.303 580.847C760.612 584.784 762.984 583.384 767.239 584.183C771.726 585.026 775.939 587.266 780.603 587.597C792.983 588.476 806.243 590.231 817.212 596.724C827.813 603 837.417 610.312 847.651 616.874C856.292 622.415 861.23 630.803 865.767 639.847C874.686 657.626 885.04 675.659 873.794 694.658C868.768 703.147 862.103 710.808 857.042 719.357C855.134 722.58 853.122 725.594 852.053 729.184C851.67 730.47 848.278 737.429 851.283 734.883C852.745 733.644 853.978 733.174 855.705 732.411C863.124 729.133 864.337 741.218 861.522 745.973C853.029 760.321 844.681 775.604 834.646 789.176C824.45 802.963 814.745 817.794 805.997 832.572C802.103 839.151 801.283 842.618 801.174 849.716C801.148 851.367 802.51 851.863 800.17 851.311C796.753 850.505 793.344 848.553 789.831 848.386C783.59 848.089 777.151 845.909 770.862 845.145C765.43 844.485 758.801 841.389 753.813 839.059L753.675 838.994C744.18 834.559 735.28 828.806 725.921 824.103C719.934 821.095 710.951 818.208 706.217 813.208C697.773 804.288 683.091 799.403 673.02 791.721C650.604 774.624 626.283 759.386 605.492 740.267C591.164 727.091 578.443 712.292 564.985 698.24C553.89 686.655 541.097 676.941 528.352 667.264C516.567 658.317 504.793 649.372 493.001 640.42C484.739 634.147 475.419 629.312 467.588 622.476C461.797 617.421 456.506 613.174 454.599 605.734C453.12 599.962 455.317 592.181 458.105 587.217C460.273 583.357 462.454 578.882 465.67 575.838C468.315 573.334 472.563 569.991 474.411 566.87C477.8 561.144 477.633 556.029 481.149 550.09C485.187 543.269 489.926 537.062 493.973 530.226C497.009 525.098 499.212 519.577 502.185 514.554C505.231 509.408 501.959 502.343 505.042 497.133C510.1 488.589 515.004 485.214 524.763 482.713C531.944 480.872 539.572 481.593 546.751 479.753Z" fill="#0038FF" stroke="#FFEED8" stroke-width="2.67699" stroke-linecap="round"/>
  <path d="M488.109 564.297C499.843 564.908 512.528 566.619 523.123 560.502C529.311 556.928 534.354 552.359 539.798 547.846C544.128 544.256 548.484 541.247 553.984 539.769C560.122 538.12 566.295 537.067 572.346 535.038C577.609 533.274 582.933 531.694 588.223 530.011C594.305 528.075 600.125 525.278 606.342 523.884C607.979 523.517 609.604 523.28 611.273 523.398C617.777 523.86 624.29 525.013 630.763 525.818C635.146 526.363 639.474 527.281 643.837 527.949C646.513 528.359 649.268 528.292 651.967 528.405C654.27 528.502 655.32 527.554 657.168 526.605C657.658 526.353 659.722 524.876 659.446 524.145C659.22 523.547 658.496 523.034 658.049 522.561C655.957 520.351 653.336 518.713 650.771 517.118C646.275 514.323 641.67 511.692 636.971 509.249C632.28 506.81 627.257 505.476 622.105 504.44C617.453 503.504 612.399 503.764 607.716 504.309C604.103 504.73 600.48 505.124 596.989 506.19C593.511 507.252 589.536 508.592 586.982 511.328C582.849 515.755 578.747 520.387 574.119 524.309C569.623 528.119 564.537 531.19 560.002 534.957C558.006 536.615 554.565 537.708 553.248 539.933" stroke="#FFEED8" stroke-width="2.41441" stroke-linecap="round"/>
  <path d="M579.331 579.556C589.473 578.177 599.865 579.118 610.062 578.939C617.803 578.803 625.234 578.347 632.815 576.729C638.742 575.464 644.358 573.307 650.113 571.46C660.471 568.134 671.013 566.949 681.858 566.994C691.468 567.035 700.906 568.443 710.411 569.705C717 570.58 723.634 570.635 730.227 571.509C732.886 571.862 735.611 572.343 738.299 572.349C739.389 572.351 740.86 572.295 741.653 571.399C743.47 569.347 741.997 567.461 740.527 565.567C735.264 558.786 727.232 554.468 719.83 550.445C713.591 547.055 706.946 544.608 699.982 543.209C692.02 541.609 683.546 541.603 675.462 542.103C665.772 542.701 655.509 543.935 646.284 547.057C641.408 548.707 637.12 551.065 632.935 554.051C628.753 557.035 624.55 559.897 620.615 563.206C616.38 566.768 612.411 570.27 607.48 572.857C602.786 575.321 597.886 578.106 592.528 578.68C590.167 578.933 587.612 578.754 585.259 578.487C584.049 578.349 582.794 578.343 581.609 578.087" stroke="#FFEED8" stroke-width="2.41441" stroke-linecap="round"/>
  <path d="M575.777 588.725C570.559 585.636 563.265 589.14 559.094 592.559C553.625 597.041 552.005 603.293 552.216 610.127C552.307 613.083 552.417 616.859 554.332 619.311C557.228 623.019 563.11 624.784 567.222 626.445C574.101 629.226 581.835 630.977 589.273 630.003C596.375 629.073 603 626.293 609.045 622.56C619.587 616.051 630.136 609.398 641.977 605.492C651.907 602.216 662.393 600.432 672.717 598.932C683.621 597.348 694.511 596.86 705.513 596.68C711.914 596.575 718.232 596.846 724.618 597.15C726.464 597.238 728.423 597.454 730.179 596.79C732.308 595.985 734.651 595.452 735.778 593.282C737.419 590.121 735.757 587.062 732.655 585.799C727.442 583.675 721.589 582.387 716.115 581.173C712.724 580.421 709.293 579.958 705.85 579.518C702.049 579.033 698.192 578.461 694.35 578.541C688.012 578.673 681.673 579.607 675.59 581.366C670.858 582.734 666.257 584.509 661.558 585.987C651.04 589.295 639.645 590.366 628.663 590.567C618.478 590.752 608.18 590.351 598.016 589.629C590.798 589.117 583.621 588.598 576.504 587.277C574.905 586.981 573.317 586.564 571.768 586.066C571.58 586.005 570.76 585.652 570.577 585.699C570.487 585.722 571.34 587.038 571.54 587.157" stroke="#FFEED8" stroke-width="2.41441" stroke-linecap="round"/>
  <path d="M584.384 690.791C588.232 691.064 591.852 690.663 595.537 689.489C599.248 688.308 602.82 686.607 606.337 684.952C610.261 683.104 614.208 681.261 618.019 679.188C622.446 676.781 626.832 674.216 630.994 671.373C635.356 668.392 639.225 664.884 643.166 661.387C650.299 655.059 658.529 650.133 666.105 644.364C671.218 640.471 676.622 637.085 682.178 633.87C686.67 631.272 690.441 627.692 694.901 625.071C698.681 622.849 702.781 621.024 707.152 620.505C713.811 619.715 720.237 621.197 726.745 622.464C734.583 623.991 742.39 625.925 750.343 626.781C756.659 627.461 762.978 627.857 769.293 628.594C776.897 629.482 784.376 631.042 791.459 634.007C795.662 635.767 800.142 637.776 802.802 641.661C805.289 645.293 805.163 650.121 804.363 654.273C803.457 658.976 801.604 662.793 798.549 666.497C795.054 670.732 790.971 674.221 786.293 677.086C783.57 678.753 780.729 680.394 777.604 681.164C772.687 682.376 767.566 681.099 762.787 679.841C753.977 677.522 745.91 673.138 737.217 670.548C730.957 668.683 724.52 669.53 718.123 669.706C713.808 669.825 709.507 669.781 705.205 670.198C700.964 670.609 696.759 671.283 692.524 671.744C684.179 672.652 675.783 672.721 667.434 671.866C655.382 670.631 643.608 671.13 632.56 676.526C629.493 678.025 626.413 679.541 623.104 680.425C620.208 681.198 617.342 681.846 614.421 682.511C611.419 683.195 608.515 684.495 605.609 685.499C602.813 686.465 600.017 687.473 597.206 688.39C594.967 689.12 592.688 690.094 590.351 690.45C589.534 690.574 588.437 690.882 587.651 690.626C586.942 690.394 584.9 690.338 586.772 690.327" stroke="#FFEED8" stroke-width="2.41441" stroke-linecap="round"/>
  <path d="M653.37 708.446C654.354 708.654 655.323 708.606 656.297 708.606C660.534 708.609 664.787 708.703 669.037 708.776C686.012 709.069 703.169 710.03 719.98 709.532C726.271 709.345 732.632 709.327 738.867 708.948C745.878 708.521 752.731 707.635 759.671 707.014C765.535 706.489 771.479 706.19 777.393 705.805C783.327 705.418 789.202 704.796 795.197 704.602C802.962 704.349 812.252 704.583 820.04 706.849C824.513 708.15 828.168 710.545 829.036 713.948C829.428 715.488 828.413 717.055 827.461 718.25C825.19 721.098 821.284 723.802 817.368 725.466C806.04 730.282 791.71 730.739 777.805 729.342C771 728.659 764.236 727.329 757.451 726.323C751.508 725.443 745.557 724.803 739.611 723.997C725.963 722.147 712.528 719.322 698.949 716.948C688.461 715.114 678.013 713.657 667.589 711.453C662.501 710.377 657.172 709.457 652.182 708.402" stroke="#FFEED8" stroke-width="2.41441" stroke-linecap="round"/>
  <path d="M646.996 737.93C647.501 738.229 648.098 738.295 648.679 738.405C651.206 738.886 653.708 739.45 656.215 739.996C666.229 742.177 676.088 744.981 686.316 746.428C690.144 746.97 693.947 747.672 697.818 748.032C702.17 748.438 706.609 748.411 710.995 748.633C714.702 748.82 718.367 749.221 722.047 749.541C725.741 749.861 729.492 749.962 733.147 750.463C737.88 751.111 743.331 752.371 747.085 755.297C749.241 756.977 750.477 759.554 749.652 762.726C749.279 764.161 748.055 765.462 747.015 766.434C744.536 768.751 741.139 770.753 738.146 771.815C729.486 774.886 720.754 773.682 713.008 770.852C709.217 769.466 705.705 767.501 702.052 765.827C698.853 764.36 695.555 763.111 692.325 761.712C684.91 758.5 678.007 754.432 670.84 750.755C665.306 747.914 659.645 745.419 654.295 742.251C651.683 740.705 648.866 739.272 646.304 737.756" stroke="#FFEED8" stroke-width="2.41441" stroke-linecap="round"/>
  <path d="M428.197 1037.15C420.408 1037.15 413.428 1035.35 407.256 1031.74C401.157 1028.07 396.381 1023.18 392.927 1017.09C389.548 1010.91 387.858 1004.15 387.858 996.806C387.858 989.532 389.548 982.846 392.927 976.747C396.307 970.648 401.047 965.799 407.145 962.198C413.244 958.525 420.188 956.688 427.976 956.688C433.193 956.688 437.859 957.349 441.974 958.672C446.162 959.921 449.689 961.611 452.554 963.742C454.244 964.991 455.493 966.387 456.302 967.93C457.11 969.399 457.514 970.906 457.514 972.449C457.514 974.653 456.706 976.563 455.089 978.18C453.546 979.796 451.562 980.605 449.138 980.605C446.786 980.605 444.398 979.76 441.974 978.07C440.284 976.894 438.263 975.939 435.912 975.204C433.56 974.396 431.025 973.992 428.307 973.992C424.045 973.992 420.261 974.984 416.955 976.967C413.648 978.951 411.076 981.707 409.239 985.234C407.476 988.761 406.594 992.728 406.594 997.137C406.594 1001.47 407.439 1005.37 409.129 1008.82C410.819 1012.2 413.281 1014.88 416.514 1016.87C419.747 1018.85 423.531 1019.84 427.866 1019.84C432.495 1019.84 436.463 1018.74 439.769 1016.53C443.076 1014.26 445.464 1011.13 446.933 1007.17H426.433C423.861 1007.17 421.841 1006.36 420.371 1004.74C418.975 1003.13 418.277 1001.18 418.277 998.9C418.277 996.696 418.975 994.786 420.371 993.169C421.841 991.479 423.861 990.634 426.433 990.634H457.073C460.086 990.634 462.364 991.479 463.907 993.169C465.523 994.859 466.331 997.357 466.331 1000.66C466.331 1001.33 466.258 1002.46 466.111 1004.08C465.45 1009.15 463.613 1014.22 460.6 1019.29C457.588 1024.36 453.326 1028.62 447.815 1032.08C442.378 1035.46 435.838 1037.15 428.197 1037.15ZM498.991 1002.87H498.88C497.999 1002.76 497.337 1001.99 497.448 1001.1L499.542 982.809C499.652 981.927 500.534 981.266 501.415 981.376C502.297 981.486 502.848 982.368 502.738 983.25L500.644 1001.44C500.534 1002.32 499.872 1002.87 498.991 1002.87ZM511.445 945.446C511.225 945.446 511.004 945.446 511.004 945.446C497.558 946.438 477.278 972.228 471.437 995.704C468.791 1006.73 468.13 1021.6 480.805 1029.43C484.552 1031.63 488.189 1032.85 491.716 1032.85C498.219 1032.85 504.391 1029.21 510.233 1021.94C523.459 1005.51 530.182 975.865 526.985 961.317C523.789 946.548 514.311 945.446 511.445 945.446ZM530.953 969.473C530.953 985.895 524.23 1009.7 512.768 1024.03C506.375 1031.86 499.101 1036.04 491.716 1036.04C487.528 1036.04 483.34 1034.72 479.152 1032.19C468.02 1025.24 464.162 1012.02 468.351 994.933C474.523 969.914 495.905 943.352 510.673 942.249C510.673 942.249 511.004 942.249 511.445 942.249C513.87 942.249 526.324 943.131 530.072 960.655C530.623 963.19 530.953 966.166 530.953 969.473ZM557.005 1002.87H556.894C556.013 1002.76 555.351 1001.99 555.462 1001.1L557.556 982.809C557.666 981.927 558.548 981.266 559.429 981.376C560.311 981.486 560.862 982.368 560.752 983.25L558.658 1001.44C558.548 1002.32 557.886 1002.87 557.005 1002.87ZM569.459 945.446C569.239 945.446 569.018 945.446 569.018 945.446C555.572 946.438 535.292 972.228 529.451 995.704C526.805 1006.73 526.144 1021.6 538.819 1029.43C542.566 1031.63 546.203 1032.85 549.73 1032.85C556.233 1032.85 562.405 1029.21 568.247 1021.94C581.473 1005.51 588.196 975.865 585 961.317C581.803 946.548 572.325 945.446 569.459 945.446ZM588.967 969.473C588.967 985.895 582.244 1009.7 570.782 1024.03C564.389 1031.86 557.115 1036.04 549.73 1036.04C545.542 1036.04 541.354 1034.72 537.166 1032.19C526.034 1025.24 522.176 1012.02 526.365 994.933C532.537 969.914 553.919 943.352 568.688 942.249C568.688 942.249 569.018 942.249 569.459 942.249C571.884 942.249 584.338 943.131 588.086 960.655C588.637 963.19 588.967 966.166 588.967 969.473ZM602.454 1036.04C599.295 1036.04 596.87 1035.2 595.18 1033.51C593.49 1031.82 592.645 1029.39 592.645 1026.23V967.599C592.645 964.366 593.49 961.941 595.18 960.325C596.87 958.635 599.295 957.79 602.454 957.79H620.53C628.833 957.79 636.033 959.517 642.132 962.97C648.304 966.35 653.007 971.016 656.24 976.967C659.473 982.919 661.089 989.569 661.089 996.917C661.089 1004.26 659.473 1010.91 656.24 1016.87C653.007 1022.82 648.304 1027.52 642.132 1030.97C636.033 1034.35 628.833 1036.04 620.53 1036.04H602.454ZM620.53 1019.07C627.216 1019.07 632.506 1017.27 636.401 1013.67C640.368 1010 642.352 1004.41 642.352 996.917C642.352 989.422 640.368 983.874 636.401 980.274C632.506 976.6 627.216 974.763 620.53 974.763H611.382V1019.07H620.53Z" fill="#0033E6"/>
  <path d="M514.055 1040.89C514.236 1042.5 516.754 1046.22 517.928 1047.08C520.456 1048.95 521.311 1047.91 523.913 1047.91C527.8 1047.91 529.589 1043.14 530.954 1040.12" stroke="#0033E6" stroke-width="2.20432" stroke-linecap="round"/>
  <path d="M571.522 928.992C572.716 930.319 573.489 931.334 575.119 932.328C576.692 933.287 578.838 933.954 580.701 933.954" stroke="#0033E6" stroke-width="2.20432" stroke-linecap="round"/>
  <path d="M510.739 928C509.934 928 509.132 928.619 508.451 928.992C507.111 929.727 505.693 930.395 504.261 930.922C503.032 931.374 501.627 931.721 500.319 931.721" stroke="#0033E6" stroke-width="2.20432" stroke-linecap="round"/>
  <path d="M423.223 1060.19C427.996 1060.19 432.149 1061.33 435.682 1063.63C439.215 1065.92 441.881 1069.02 443.678 1072.92C445.538 1076.83 446.468 1081.11 446.468 1085.76C446.468 1090.59 445.507 1094.93 443.585 1098.77C441.664 1102.55 438.874 1105.56 435.217 1107.79C431.622 1109.96 427.345 1111.05 422.386 1111.05C419.597 1111.05 416.839 1110.49 414.111 1109.37C411.384 1108.19 409.152 1106.49 407.417 1104.26C407.169 1106.3 406.301 1107.91 404.813 1109.09C403.388 1110.21 401.714 1110.77 399.793 1110.77C397.747 1110.77 395.949 1110.08 394.4 1108.72C392.85 1107.36 392.075 1105.47 392.075 1103.05V1047.26C392.075 1044.84 392.85 1042.95 394.4 1041.59C395.949 1040.23 397.747 1039.55 399.793 1039.55C401.9 1039.55 403.698 1040.23 405.185 1041.59C406.735 1042.95 407.51 1044.84 407.51 1047.26V1068.28C408.564 1065.73 410.485 1063.75 413.274 1062.32C416.126 1060.9 419.442 1060.19 423.223 1060.19ZM419.132 1097.1C422.603 1097.1 425.424 1096.04 427.593 1093.94C429.762 1091.77 430.847 1088.98 430.847 1085.57C430.847 1082.16 429.762 1079.4 427.593 1077.29C425.424 1075.12 422.603 1074.04 419.132 1074.04C415.785 1074.04 413.026 1075.12 410.857 1077.29C408.687 1079.4 407.603 1082.16 407.603 1085.57C407.603 1088.98 408.687 1091.77 410.857 1093.94C413.026 1096.04 415.785 1097.1 419.132 1097.1ZM476.793 1061.02C477.165 1060.96 477.692 1060.93 478.374 1060.93C480.419 1060.93 482.031 1061.52 483.208 1062.7C484.386 1063.87 484.975 1065.3 484.975 1066.97C484.975 1068.83 484.262 1070.51 482.836 1071.99C481.473 1073.48 479.427 1074.35 476.7 1074.6C471.493 1075.09 468.89 1077.88 468.89 1082.97V1103.05C468.89 1105.47 468.115 1107.36 466.565 1108.72C465.078 1110.08 463.28 1110.77 461.173 1110.77C459.127 1110.77 457.33 1110.08 455.78 1108.72C454.23 1107.36 453.455 1105.47 453.455 1103.05V1068.09C453.455 1065.67 454.23 1063.78 455.78 1062.42C457.33 1061.05 459.127 1060.37 461.173 1060.37C463.032 1060.37 464.675 1060.9 466.1 1061.95C467.526 1063.01 468.394 1064.49 468.704 1066.42C470.687 1063.38 473.384 1061.58 476.793 1061.02ZM537.3 1082.04C537.362 1082.35 537.393 1082.84 537.393 1083.52C537.393 1085.69 536.68 1087.37 535.254 1088.54C533.891 1089.66 532.031 1090.22 529.676 1090.22H502.433C502.743 1092.51 503.89 1094.43 505.873 1095.98C507.919 1097.47 510.367 1098.21 513.218 1098.21C516.814 1098.21 519.696 1097.04 521.865 1094.68C523.415 1093.07 525.089 1092.26 526.886 1092.26C528.684 1092.26 530.233 1092.91 531.535 1094.22C532.899 1095.52 533.581 1097.04 533.581 1098.77C533.581 1100.38 532.899 1101.9 531.535 1103.33C529.118 1105.75 526.328 1107.64 523.167 1109C520.068 1110.3 516.721 1110.95 513.126 1110.95C508.043 1110.95 503.518 1109.9 499.551 1107.79C495.584 1105.68 492.484 1102.74 490.253 1098.96C488.021 1095.11 486.906 1090.71 486.906 1085.76C486.906 1080.86 487.99 1076.46 490.16 1072.55C492.329 1068.65 495.336 1065.61 499.179 1063.44C503.022 1061.21 507.392 1060.09 512.289 1060.09C518.921 1060.09 524.469 1061.95 528.932 1065.67C533.457 1069.39 536.246 1074.85 537.3 1082.04ZM512.289 1072.46C509.499 1072.46 507.175 1073.14 505.315 1074.5C503.456 1075.87 502.464 1077.73 502.34 1080.08H522.33C522.082 1077.79 521.029 1075.96 519.169 1074.6C517.31 1073.17 515.016 1072.46 512.289 1072.46ZM587.881 1060.47C589.988 1060.47 591.817 1061.15 593.366 1062.51C594.916 1063.81 595.691 1065.7 595.691 1068.18V1102.96C595.691 1105.37 594.916 1107.26 593.366 1108.63C591.817 1109.99 589.988 1110.67 587.881 1110.67C585.773 1110.67 583.944 1109.99 582.395 1108.63C580.845 1107.26 580.07 1105.37 580.07 1102.96V1102.86C579.017 1105.4 577.064 1107.39 574.213 1108.81C571.423 1110.24 568.138 1110.95 564.357 1110.95C559.584 1110.95 555.431 1109.81 551.898 1107.51C548.365 1105.22 545.669 1102.12 543.809 1098.21C542.011 1094.31 541.113 1090.03 541.113 1085.38C541.113 1080.55 542.073 1076.24 543.995 1072.46C545.916 1068.62 548.675 1065.61 552.27 1063.44C555.927 1061.21 560.235 1060.09 565.194 1060.09C567.983 1060.09 570.742 1060.68 573.469 1061.86C576.196 1062.98 578.428 1064.65 580.163 1066.88C580.473 1064.84 581.341 1063.25 582.767 1062.14C584.254 1061.02 585.959 1060.47 587.881 1060.47ZM568.448 1097.1C571.795 1097.1 574.554 1096.04 576.723 1093.94C578.893 1091.77 579.977 1088.98 579.977 1085.57C579.977 1082.16 578.893 1079.4 576.723 1077.29C574.554 1075.12 571.795 1074.04 568.448 1074.04C564.977 1074.04 562.157 1075.12 559.987 1077.29C557.818 1079.4 556.733 1082.16 556.733 1085.57C556.733 1088.98 557.818 1091.77 559.987 1093.94C562.157 1096.04 564.977 1097.1 568.448 1097.1ZM649.349 1039.55C651.457 1039.55 653.254 1040.23 654.742 1041.59C656.292 1042.95 657.066 1044.84 657.066 1047.26V1103.05C657.066 1105.47 656.292 1107.36 654.742 1108.72C653.254 1110.08 651.457 1110.77 649.349 1110.77C647.304 1110.77 645.506 1110.08 643.956 1108.72C642.407 1107.36 641.632 1105.47 641.632 1103.05V1102.86C640.578 1105.4 638.626 1107.39 635.774 1108.81C632.985 1110.24 629.7 1110.95 625.919 1110.95C621.146 1110.95 616.993 1109.81 613.46 1107.51C609.927 1105.22 607.23 1102.12 605.371 1098.21C603.573 1094.31 602.674 1090.03 602.674 1085.38C602.674 1080.55 603.635 1076.24 605.557 1072.46C607.478 1068.62 610.236 1065.61 613.832 1063.44C617.489 1061.21 621.797 1060.09 626.756 1060.09C629.545 1060.09 632.272 1060.65 634.938 1061.77C637.665 1062.88 639.896 1064.53 641.632 1066.69V1047.26C641.632 1044.84 642.407 1042.95 643.956 1041.59C645.506 1040.23 647.304 1039.55 649.349 1039.55ZM630.01 1097.1C633.357 1097.1 636.115 1096.04 638.285 1093.94C640.454 1091.77 641.539 1088.98 641.539 1085.57C641.539 1082.16 640.454 1079.4 638.285 1077.29C636.115 1075.12 633.357 1074.04 630.01 1074.04C626.539 1074.04 623.718 1075.12 621.549 1077.29C619.379 1079.4 618.295 1082.16 618.295 1085.57C618.295 1088.98 619.379 1091.77 621.549 1093.94C623.718 1096.04 626.539 1097.1 630.01 1097.1Z" fill="#0033E6"/>
  <path d="M75.9726 112.626C72.3823 112.626 69.272 111.833 66.6419 110.247C64.0118 108.618 62.0705 106.28 60.818 103.233C60.5675 102.523 60.4423 101.897 60.4423 101.354C60.4423 100.227 60.818 99.3085 61.5695 98.5988C62.3627 97.8891 63.2603 97.5342 64.2622 97.5342C64.972 97.5342 65.6191 97.7638 66.2035 98.2231C66.788 98.6406 67.2055 99.2668 67.456 100.102C68.0822 102.231 69.1468 103.817 70.6497 104.861C72.1527 105.905 73.927 106.427 75.9726 106.427C78.3105 106.427 80.1475 105.884 81.4834 104.798C82.8611 103.713 83.5499 102.294 83.5499 100.54C83.5499 99.2877 83.1325 98.2022 82.2975 97.2837C81.5043 96.3235 80.5023 95.5303 79.2916 94.9041C78.1227 94.2361 76.4736 93.4429 74.3444 92.5244C71.5473 91.3137 69.2929 90.2074 67.5812 89.2054C65.9113 88.2035 64.4501 86.8675 63.1977 85.1976C61.987 83.4859 61.3816 81.3776 61.3816 78.8727C61.3816 76.5348 61.987 74.4683 63.1977 72.6731C64.4084 70.8362 66.0574 69.4168 68.1448 68.4148C70.274 67.4129 72.6954 66.9119 75.409 66.9119C78.7906 66.9119 81.713 67.7051 84.1762 69.2915C86.6393 70.878 88.4345 73.0489 89.5617 75.8043C89.7704 76.2635 89.8748 76.8062 89.8748 77.4324C89.8748 78.4761 89.4991 79.3737 88.7476 80.1252C88.0379 80.8349 87.2029 81.1898 86.2427 81.1898C85.533 81.1898 84.8859 80.981 84.3014 80.5636C83.7169 80.1043 83.2368 79.4155 82.8611 78.497C82.2349 76.8271 81.2955 75.512 80.0431 74.5518C78.7906 73.5916 77.2668 73.1115 75.4717 73.1115C73.593 73.1115 72.0274 73.6125 70.775 74.6144C69.5225 75.6164 68.8963 76.9523 68.8963 78.6223C68.8963 80.0417 69.3138 81.2315 70.1487 82.1917C70.9837 83.1519 72.0065 83.9452 73.2172 84.5714C74.4279 85.1976 76.1605 85.97 78.4149 86.8884C81.212 88.0156 83.4456 89.0385 85.1155 89.9569C86.7854 90.8754 88.2257 92.1696 89.4364 93.8395C90.6471 95.5094 91.2525 97.5968 91.2525 100.102C91.2525 102.648 90.5845 104.861 89.2486 106.74C87.9544 108.618 86.1383 110.08 83.8004 111.123C81.5043 112.125 78.895 112.626 75.9726 112.626ZM115.258 78.8101C117.679 78.8101 119.871 79.3111 121.833 80.3131C123.837 81.315 125.424 82.8806 126.593 85.0097C127.803 87.1389 128.409 89.7899 128.409 92.9628V108.618C128.409 109.787 128.033 110.706 127.281 111.374C126.572 112.042 125.737 112.376 124.777 112.376C123.816 112.376 122.96 112.042 122.209 111.374C121.499 110.706 121.144 109.787 121.144 108.618V94.0274C121.144 90.8545 120.372 88.5583 118.827 87.1389C117.324 85.7195 115.425 85.0097 113.129 85.0097C110.54 85.0097 108.474 85.8238 106.929 87.452C105.426 89.0802 104.654 91.3972 104.612 94.4031V108.744C104.612 109.829 104.236 110.706 103.485 111.374C102.775 112 101.94 112.313 100.98 112.313C100.02 112.313 99.164 112 98.4125 111.374C97.7028 110.706 97.3479 109.829 97.3479 108.744V82.7553C97.3479 81.6281 97.7028 80.7514 98.4125 80.1252C99.1222 79.499 99.978 79.1859 100.98 79.1859C101.982 79.1859 102.838 79.499 103.548 80.1252C104.257 80.7514 104.612 81.6281 104.612 82.7553V84.6966C105.656 82.818 107.075 81.3776 108.87 80.3757C110.666 79.332 112.795 78.8101 115.258 78.8101ZM165.57 79.2485C166.53 79.2485 167.365 79.5616 168.075 80.1878C168.785 80.814 169.14 81.6908 169.14 82.818V108.806C169.14 109.892 168.785 110.768 168.075 111.436C167.365 112.063 166.53 112.376 165.57 112.376C164.61 112.376 163.754 112.063 163.003 111.436C162.293 110.768 161.938 109.892 161.938 108.806V105.362C161.02 107.616 159.475 109.391 157.304 110.685C155.133 111.979 152.586 112.626 149.664 112.626C146.491 112.626 143.694 111.875 141.273 110.372C138.851 108.869 136.973 106.823 135.637 104.235C134.342 101.646 133.695 98.7867 133.695 95.6556C133.695 92.4409 134.363 89.5603 135.699 87.0137C137.077 84.467 138.997 82.4631 141.46 81.0019C143.924 79.5407 146.783 78.8101 150.04 78.8101C152.503 78.8101 154.799 79.3946 156.928 80.5636C159.057 81.7325 160.727 83.3398 161.938 85.3855V82.818C161.938 81.6908 162.293 80.814 163.003 80.1878C163.712 79.5616 164.568 79.2485 165.57 79.2485ZM151.48 106.176C153.484 106.176 155.258 105.717 156.803 104.798C158.389 103.88 159.621 102.628 160.498 101.041C161.416 99.4546 161.875 97.6803 161.875 95.7182C161.875 93.756 161.416 92.0026 160.498 90.4579C159.621 88.8715 158.389 87.619 156.803 86.7006C155.258 85.7821 153.484 85.3229 151.48 85.3229C149.476 85.3229 147.66 85.7612 146.032 86.6379C144.445 87.5146 143.193 88.7462 142.275 90.3326C141.398 91.9191 140.96 93.7143 140.96 95.7182C140.96 98.7658 141.941 101.271 143.903 103.233C145.865 105.195 148.391 106.176 151.48 106.176ZM201.215 110.309C198.501 111.854 195.475 112.626 192.135 112.626C189.212 112.626 186.436 112 183.806 110.748C181.218 109.495 179.109 107.596 177.481 105.049C175.895 102.502 175.101 99.392 175.101 95.7182C175.101 92.0443 175.895 88.955 177.481 86.4501C179.109 83.9034 181.218 82.0247 183.806 80.814C186.394 79.5616 189.15 78.9354 192.072 78.9354C195.454 78.9354 198.501 79.7077 201.215 81.2524C202.551 82.0456 203.219 83.1102 203.219 84.4461C203.219 85.2394 202.968 85.9282 202.467 86.5127C202.008 87.0554 201.403 87.3268 200.651 87.3268C200.192 87.3268 199.691 87.1807 199.148 86.8884C197.312 85.9282 195.308 85.4481 193.137 85.4481C191.216 85.4481 189.421 85.8447 187.751 86.6379C186.123 87.3894 184.787 88.5375 183.743 90.0822C182.741 91.6268 182.24 93.5264 182.24 95.7808C182.24 97.91 182.72 99.7469 183.681 101.292C184.683 102.836 185.998 104.026 187.626 104.861C189.296 105.654 191.091 106.051 193.011 106.051C195.182 106.051 197.207 105.571 199.086 104.611C199.587 104.36 200.046 104.235 200.464 104.235C201.215 104.235 201.841 104.548 202.342 105.174C202.843 105.759 203.094 106.447 203.094 107.241C203.094 107.825 202.927 108.389 202.593 108.932C202.3 109.474 201.841 109.933 201.215 110.309ZM236.371 107.053C236.955 107.596 237.247 108.243 237.247 108.994C237.247 109.829 236.872 110.581 236.12 111.249C235.41 111.917 234.575 112.25 233.615 112.25C232.697 112.25 231.883 111.896 231.173 111.186L216.394 96.6575C216.561 100.582 216.645 104.611 216.645 108.744C216.645 109.704 216.311 110.56 215.643 111.311C214.975 112.021 214.119 112.376 213.075 112.376C212.115 112.376 211.28 112.021 210.57 111.311C209.86 110.56 209.506 109.704 209.506 108.744V68.2896C209.506 67.3294 209.86 66.4944 210.57 65.7847C211.28 65.0332 212.115 64.6575 213.075 64.6575C214.077 64.6575 214.912 65.0123 215.58 65.722C216.29 66.4318 216.645 67.2876 216.645 68.2896C216.645 73.5498 216.624 78.2883 216.582 82.5048C216.54 86.6797 216.457 90.0613 216.331 92.6497L230.922 80.4383C231.924 79.6033 232.989 79.1859 234.116 79.1859C235.035 79.1859 235.786 79.4572 236.371 80C236.997 80.5009 237.31 81.1063 237.31 81.816C237.31 82.6927 236.851 83.5068 235.932 84.2583L223.533 94.6536L236.371 107.053ZM275.702 78.8727C278.916 78.8727 281.734 79.6242 284.156 81.1272C286.577 82.6301 288.435 84.6758 289.729 87.2642C291.023 89.8525 291.671 92.7123 291.671 95.8434C291.671 99.0163 291.003 101.897 289.667 104.485C288.331 107.032 286.41 109.036 283.905 110.497C281.442 111.958 278.583 112.689 275.326 112.689C272.863 112.689 270.567 112.104 268.438 110.935C266.309 109.766 264.639 108.159 263.428 106.113V123.397C263.428 124.483 263.073 125.339 262.363 125.965C261.654 126.633 260.819 126.967 259.858 126.967C258.898 126.967 258.063 126.633 257.354 125.965C256.644 125.339 256.289 124.483 256.289 123.397V82.7553C256.289 81.6281 256.644 80.7514 257.354 80.1252C258.063 79.499 258.898 79.1859 259.858 79.1859C260.819 79.1859 261.654 79.499 262.363 80.1252C263.073 80.7514 263.428 81.6281 263.428 82.7553V86.1369C264.388 83.8825 265.933 82.1082 268.062 80.814C270.233 79.5198 272.779 78.8727 275.702 78.8727ZM273.886 106.176C275.89 106.176 277.685 105.738 279.271 104.861C280.9 103.943 282.173 102.711 283.091 101.166C284.01 99.5799 284.469 97.7847 284.469 95.7808C284.469 93.7769 284.01 91.9817 283.091 90.3953C282.173 88.8088 280.9 87.5773 279.271 86.7006C277.685 85.7821 275.89 85.3229 273.886 85.3229C271.882 85.3229 270.087 85.7821 268.5 86.7006C266.956 87.619 265.724 88.8715 264.806 90.4579C263.929 92.0443 263.491 93.8186 263.491 95.7808C263.491 97.743 263.929 99.5173 264.806 101.104C265.724 102.648 266.956 103.88 268.5 104.798C270.087 105.717 271.882 106.176 273.886 106.176ZM327.263 79.2485C328.223 79.2485 329.058 79.5616 329.768 80.1878C330.478 80.814 330.833 81.6908 330.833 82.818V108.806C330.833 109.892 330.478 110.768 329.768 111.436C329.058 112.063 328.223 112.376 327.263 112.376C326.303 112.376 325.447 112.063 324.696 111.436C323.986 110.768 323.631 109.892 323.631 108.806V105.362C322.713 107.616 321.168 109.391 318.997 110.685C316.826 111.979 314.279 112.626 311.357 112.626C308.184 112.626 305.387 111.875 302.966 110.372C300.544 108.869 298.666 106.823 297.33 104.235C296.035 101.646 295.388 98.7867 295.388 95.6556C295.388 92.4409 296.056 89.5603 297.392 87.0137C298.77 84.467 300.69 82.4631 303.153 81.0019C305.617 79.5407 308.476 78.8101 311.733 78.8101C314.196 78.8101 316.492 79.3946 318.621 80.5636C320.75 81.7325 322.42 83.3398 323.631 85.3855V82.818C323.631 81.6908 323.986 80.814 324.696 80.1878C325.405 79.5616 326.261 79.2485 327.263 79.2485ZM313.173 106.176C315.177 106.176 316.951 105.717 318.496 104.798C320.082 103.88 321.314 102.628 322.191 101.041C323.109 99.4546 323.568 97.6803 323.568 95.7182C323.568 93.756 323.109 92.0026 322.191 90.4579C321.314 88.8715 320.082 87.619 318.496 86.7006C316.951 85.7821 315.177 85.3229 313.173 85.3229C311.169 85.3229 309.353 85.7612 307.725 86.6379C306.138 87.5146 304.886 88.7462 303.968 90.3326C303.091 91.9191 302.652 93.7143 302.652 95.7182C302.652 98.7658 303.634 101.271 305.596 103.233C307.558 105.195 310.084 106.176 313.173 106.176ZM350.446 112.626C347.524 112.626 344.998 112.146 342.869 111.186C340.74 110.184 339.028 108.785 337.734 106.99C337.191 106.197 336.92 105.425 336.92 104.673C336.92 103.755 337.254 102.961 337.922 102.294C338.631 101.584 339.425 101.229 340.301 101.229C341.429 101.229 342.368 101.813 343.119 102.982C344.038 104.318 345.081 105.32 346.25 105.988C347.419 106.656 348.839 106.99 350.509 106.99C352.346 106.99 353.807 106.656 354.892 105.988C355.978 105.279 356.521 104.318 356.521 103.108C356.521 101.897 355.915 100.978 354.704 100.352C353.494 99.726 351.573 99.0372 348.943 98.2857C346.48 97.6177 344.476 96.9706 342.931 96.3444C341.387 95.7182 340.051 94.7788 338.924 93.5264C337.838 92.2739 337.295 90.6249 337.295 88.5792C337.295 85.6151 338.464 83.2563 340.802 81.5029C343.182 79.7495 346.146 78.8727 349.695 78.8727C352.074 78.8727 354.308 79.3111 356.395 80.1878C358.524 81.0645 360.173 82.2335 361.342 83.6947C361.969 84.4461 362.282 85.302 362.282 86.2622C362.282 87.0972 362.01 87.8069 361.468 88.3914C360.967 88.9758 360.32 89.2681 359.526 89.2681C358.441 89.2681 357.418 88.7253 356.458 87.6399C354.454 85.4272 352.179 84.3209 349.632 84.3209C348.129 84.3209 346.856 84.6549 345.812 85.3229C344.768 85.9908 344.247 86.8675 344.247 87.953C344.247 89.1637 344.831 90.0613 346 90.6458C347.211 91.2302 349.11 91.8773 351.699 92.5871C354.203 93.2133 356.249 93.8604 357.836 94.5283C359.464 95.1546 360.841 96.1357 361.969 97.4716C363.138 98.7658 363.722 100.498 363.722 102.669C363.722 105.8 362.491 108.243 360.027 109.996C357.606 111.75 354.412 112.626 350.446 112.626ZM381.329 112.626C378.407 112.626 375.881 112.146 373.752 111.186C371.623 110.184 369.911 108.785 368.617 106.99C368.074 106.197 367.803 105.425 367.803 104.673C367.803 103.755 368.137 102.961 368.805 102.294C369.514 101.584 370.308 101.229 371.184 101.229C372.312 101.229 373.251 101.813 374.002 102.982C374.921 104.318 375.965 105.32 377.134 105.988C378.302 106.656 379.722 106.99 381.392 106.99C383.229 106.99 384.69 106.656 385.775 105.988C386.861 105.279 387.404 104.318 387.404 103.108C387.404 101.897 386.798 100.978 385.588 100.352C384.377 99.726 382.456 99.0372 379.826 98.2857C377.363 97.6177 375.359 96.9706 373.815 96.3444C372.27 95.7182 370.934 94.7788 369.807 93.5264C368.721 92.2739 368.179 90.6249 368.179 88.5792C368.179 85.6151 369.347 83.2563 371.685 81.5029C374.065 79.7495 377.029 78.8727 380.578 78.8727C382.957 78.8727 385.191 79.3111 387.278 80.1878C389.408 81.0645 391.057 82.2335 392.226 83.6947C392.852 84.4461 393.165 85.302 393.165 86.2622C393.165 87.0972 392.894 87.8069 392.351 88.3914C391.85 88.9758 391.203 89.2681 390.409 89.2681C389.324 89.2681 388.301 88.7253 387.341 87.6399C385.337 85.4272 383.062 84.3209 380.515 84.3209C379.012 84.3209 377.739 84.6549 376.695 85.3229C375.651 85.9908 375.13 86.8675 375.13 87.953C375.13 89.1637 375.714 90.0613 376.883 90.6458C378.094 91.2302 379.993 91.8773 382.582 92.5871C385.087 93.2133 387.132 93.8604 388.719 94.5283C390.347 95.1546 391.725 96.1357 392.852 97.4716C394.021 98.7658 394.605 100.498 394.605 102.669C394.605 105.8 393.374 108.243 390.91 109.996C388.489 111.75 385.295 112.626 381.329 112.626Z" fill="#0038FF"/>
  <path d="M821.288 112H810.391C807.949 112 806.571 110.622 806.571 108.18V71.3581C806.571 68.9158 807.949 67.5381 810.391 67.5381H821.288C835.127 67.5381 843.456 77.3072 843.456 89.769C843.456 102.231 835.127 112 821.288 112ZM813.898 74.1761V105.362H821.288C830.18 105.362 836.129 99.6634 836.129 89.769C836.129 79.8747 830.18 74.1761 821.288 74.1761H813.898ZM864.747 79.3737C867.565 79.1232 868.692 80.7514 868.692 82.2544C868.692 83.5068 867.878 85.5733 864.684 85.636C860.113 85.6986 857.232 88.1409 857.232 92.6497V108.744C857.232 111.123 855.479 112.376 853.662 112.376C851.909 112.376 850.093 111.123 850.093 108.744V82.7553C850.093 80.3757 851.909 79.1859 853.662 79.1859C855.479 79.1859 857.232 80.3757 857.232 82.7553V84.1957C858.672 81.5029 861.052 79.6868 864.747 79.3737ZM887.338 112.626C877.318 112.626 869.929 105.487 869.929 95.7182C869.929 86.0117 877.318 78.8101 887.338 78.8101C897.357 78.8101 904.747 86.0117 904.747 95.7182C904.747 105.487 897.357 112.626 887.338 112.626ZM887.338 106.176C893.349 106.176 897.796 101.667 897.796 95.7182C897.796 89.769 893.349 85.2602 887.338 85.2602C881.389 85.2602 876.88 89.769 876.88 95.7182C876.88 101.667 881.389 106.176 887.338 106.176ZM929.927 78.8727C939.821 78.8727 945.896 86.5127 945.896 95.8434C945.896 105.425 939.571 112.689 929.551 112.689C924.729 112.689 920.095 110.309 917.653 106.113V123.397C917.653 125.714 915.899 126.967 914.083 126.967C912.33 126.967 910.514 125.714 910.514 123.397V82.7553C910.514 80.3757 912.33 79.1859 914.083 79.1859C915.899 79.1859 917.653 80.3757 917.653 82.7553V86.1369C919.531 81.6281 924.103 78.8727 929.927 78.8727ZM928.111 106.176C934.248 106.176 938.694 101.855 938.694 95.7808C938.694 89.6438 934.248 85.3229 928.111 85.3229C922.036 85.3229 917.715 89.8317 917.715 95.7808C917.715 101.667 922.036 106.176 928.111 106.176ZM980.4 105.55H987.289C989.042 105.55 990.545 106.99 990.545 108.744C990.545 110.56 989.042 112 987.289 112H966.248C964.494 112 962.991 110.56 962.991 108.744C962.991 106.99 964.494 105.55 966.248 105.55H973.074V74.8649L967.375 76.4305C967.062 76.4931 966.749 76.5557 966.436 76.5557C964.62 76.5557 963.555 74.9902 963.555 73.4246C963.555 72.0469 964.369 70.6692 966.123 70.1682L976.455 67.4129C976.894 67.2876 977.269 67.2876 977.582 67.2876C979.336 67.2876 980.4 68.5401 980.4 70.6066V105.55Z" fill="#0038FF"/>
</svg>