<svg width="1049" height="1049" viewBox="0 0 1049 1049" fill="none" xmlns="http://www.w3.org/2000/svg">
<g clip-path="url(#clip0_213_6691)">
<rect width="1049" height="1049" fill="#C8B5FF"/>
<path d="M211.219 669.611C212.888 671.536 215.122 673.208 215.988 675.646C217.98 683.909 243.002 678.849 249.697 679.945C262.895 682.108 282.211 672.369 294.451 668.188C317.2 660.417 341.139 654.945 364.186 648.09C383.561 642.328 403.207 636.646 422.628 631.238L422.892 631.165C440.599 626.234 462.666 620.09 477.602 609.16C489.08 600.761 490.083 589.442 489.452 577.119C488.517 558.861 481.633 540.085 477.372 522.406L469.293 488.88C466.625 477.808 465.579 463.837 458.809 454.214C453.782 447.068 448.972 440.697 442.625 434.54C437.03 429.113 426.647 425.623 419.508 422.45C409.638 418.063 397.16 418.163 386.759 414.925C379.492 412.663 372.629 411.301 364.78 412.139C339.71 414.817 315.402 420.831 290.747 425.864C269.778 430.144 249.55 435.106 229.01 441.489C214.436 446.019 200.728 450.884 189.794 461.491C178.687 472.265 174.216 488.909 170.026 502.925C162.056 529.586 159.107 557.499 165.582 584.369C169.63 601.168 173.305 617.859 183.107 632.531C191.637 645.3 201.119 657.951 211.219 669.611Z" fill="#0038FF"/>
<path d="M256.94 443.265C252.202 444.921 248.702 448.527 245.456 452.174C237.94 460.617 229.952 468.735 224.446 478.73C221.427 484.211 210.998 510.86 219.79 515.35C224.192 517.598 237.848 506.5 240.702 504.544C251.141 497.391 259.508 489.637 264.731 478.084C270.774 464.717 272.673 452.432 283.058 441.015C286.059 437.716 291.624 429.467 291.467 438.615C291.118 458.87 288.117 476.411 280.322 494.922C274.947 507.686 289.365 509.785 296.977 502.816C313.543 487.65 310.649 471.972 312.572 452.851C313.714 441.488 319.25 434.362 325.431 425.412C328.25 421.331 328.683 427.719 329.207 429.895C330.73 436.213 333.413 443.038 332.607 449.595C332.007 454.472 328.053 479.532 334.481 482.545C346.982 488.404 360.254 461.37 358.704 451.919C356.96 441.28 353.224 431.236 350.013 421.136C346.684 410.664 339.68 412.542 330.926 414.652C307.113 420.39 284.269 431.287 260.808 436.941" stroke="#FFEED8" stroke-width="2.3607" stroke-linecap="round"/>
<path d="M547.925 352.371C465.226 340.811 384.217 321.553 300.847 314.003C296.114 314.104 296.889 315.365 291.445 314.604C285.734 313.806 280.61 311.175 275.182 310.416C255.571 307.675 244.055 288.111 222.861 290.124C217.885 290.597 205.6 291.328 201.797 295.371C195.363 302.211 195.135 297.577 199.761 304.554C205.046 312.525 214.369 320.281 221.124 326.795C228.564 333.969 232.586 341.889 238.945 350.136C248.06 361.956 257.639 373.341 268.325 383.71C282.046 397.023 293.085 413.167 308.593 424.231C345.441 450.519 389.633 464.802 431.114 479.654C457.461 489.087 486.13 493.821 513.536 498.728C541.834 503.795 569.983 508.64 598.471 512.622C631.645 517.259 665.21 521.936 698.818 521.968C725.115 521.994 751.384 526.853 777.723 527.147C798.77 527.382 818.617 528.076 839.404 530.982C858.131 533.6 877.453 547.859 897.186 543.846C905.182 542.22 905.866 533.963 909.374 527.359C910.83 524.617 897.687 517.764 895.73 515.878C882.916 503.521 869.666 492.74 862.498 474.851C860.346 469.479 854.202 461.542 850.682 457.029C843.572 447.914 835.113 439.557 825.349 434.234C813.234 427.628 801.006 421.877 789.083 414.909C759.481 397.612 725.341 393.373 693.64 383.271C647.262 368.492 596.042 359.097 547.925 352.371Z" fill="#FFEED8" stroke="#0038FF" stroke-width="4.69858" stroke-linecap="round"/>
<path d="M462.445 414.749C446.302 399.789 434.49 381.843 424.219 365.146C428.629 363.436 455.224 385.453 460.778 389.861C480.929 405.859 503.353 419.915 523.566 435.794C524.709 436.692 548.144 455.664 536.535 453.49C521.6 450.692 504.487 440.633 490.519 433.215C480.327 427.802 470.582 422.29 462.445 414.749Z" fill="#FFEED8"/>
<path d="M419.665 357.687C431.023 376.358 443.866 397.532 462.445 414.749C470.582 422.29 480.327 427.802 490.519 433.215C504.487 440.633 521.6 450.692 536.535 453.49C548.144 455.664 524.709 436.692 523.566 435.794C503.353 419.915 480.929 405.859 460.778 389.861C455.219 385.448 428.575 363.391 424.206 365.151" stroke="#0038FF" stroke-width="4.69858" stroke-linecap="round"/>
<path d="M389.893 379.171C406.549 395.458 418.206 418.274 428.258 439.814C423.267 444.391 395.625 421.652 389.839 417.198C368.842 401.035 345.193 388.88 324.12 372.929C322.928 372.026 298.539 352.657 311.17 351.004C327.42 348.879 345.518 357.114 360.351 362.603C371.174 366.608 381.496 370.961 389.893 379.171Z" fill="#FFEED8"/>
<path d="M432.711 449.453C421.61 425.31 409.063 397.916 389.893 379.171C381.496 370.961 371.174 366.608 360.351 362.603C345.518 357.114 327.42 348.879 311.17 351.004C298.539 352.657 322.928 372.026 324.12 372.929C345.193 388.88 368.842 401.035 389.839 417.198C395.631 421.656 423.323 444.437 428.273 439.8" stroke="#0038FF" stroke-width="4.69858" stroke-linecap="round"/>
<path d="M547.101 406.168C546.82 411.812 559.284 421.544 562.957 425.102C573.943 435.742 585.346 445.69 597.873 454.472C608.583 461.981 619.773 466.397 632.565 468.921C638.741 470.139 652.022 472.581 655.364 465.237C659.649 455.821 651.254 445.077 644.048 439.761C632.29 431.087 616.61 427.885 602.771 424.079C586.001 419.466 569.917 412.444 553.136 407.828" stroke="#0038FF" stroke-width="4.69858" stroke-linecap="round"/>
<path d="M696.697 438.232C696.061 442.611 716.842 451.564 720.423 453.992C732.7 462.316 742.329 473.425 754.115 482.304C758.886 485.899 779.343 495.26 784.283 487.501C788.507 480.865 783.191 473.006 777.948 469.094C756.079 452.778 725.08 454.861 702.733 439.892" stroke="#0038FF" stroke-width="4.69858" stroke-linecap="round"/>
<path d="M546.751 469.753C550.479 468.798 559.135 465.347 562.768 466.986C573.074 465.996 591.756 473.151 597.741 474.08C607.402 475.579 618.753 472.412 628.362 474.929C635.942 476.915 643.488 478.085 650.636 481.783C660.716 486.998 669.685 493.82 679.245 499.725C680.969 500.79 691.68 507.993 690.348 510.558C688.592 513.938 685.782 516.547 682.174 517.968C680.18 518.754 675.744 520.788 673.583 521.779C677.298 520.439 682.682 521.981 686.394 521.235C691.662 520.177 699.764 523.7 704.356 525.478C710.685 527.928 716.84 530.902 723.186 533.252C731.365 536.281 775.543 558.858 764.303 570.847C760.612 574.784 762.984 573.384 767.239 574.183C771.726 575.026 775.939 577.266 780.603 577.597C792.983 578.476 806.243 580.231 817.212 586.724C827.813 593 837.417 600.312 847.651 606.874C856.292 612.415 861.23 620.803 865.767 629.847C874.686 647.626 885.04 665.659 873.794 684.658C868.768 693.147 862.103 700.808 857.042 709.357C855.134 712.58 853.122 715.594 852.053 719.184C851.67 720.47 848.278 727.429 851.283 724.883C852.745 723.644 853.978 723.174 855.705 722.411C863.124 719.133 864.337 731.218 861.522 735.973C853.029 750.321 844.681 765.604 834.646 779.176C824.45 792.963 814.745 807.794 805.997 822.572C802.103 829.151 801.283 832.618 801.174 839.716C801.148 841.367 802.51 841.863 800.17 841.311C796.753 840.505 793.344 838.553 789.831 838.386C783.59 838.089 777.151 835.909 770.862 835.145C765.43 834.485 758.801 831.389 753.813 829.059L753.675 828.994C744.18 824.559 735.28 818.806 725.921 814.103C719.934 811.095 710.951 808.208 706.217 803.208C697.773 794.288 683.091 789.403 673.02 781.721C650.604 764.624 626.283 749.386 605.492 730.267C591.164 717.091 578.443 702.292 564.985 688.24C553.89 676.655 541.097 666.941 528.352 657.264C516.567 648.317 504.793 639.372 493.001 630.42C484.739 624.147 475.419 619.312 467.588 612.476C461.797 607.421 456.506 603.174 454.599 595.734C453.12 589.962 455.317 582.181 458.105 577.217C460.273 573.357 462.454 568.882 465.67 565.838C468.315 563.334 472.563 559.991 474.411 556.87C477.8 551.144 477.633 546.029 481.149 540.09C485.187 533.269 489.926 527.062 493.973 520.226C497.009 515.098 499.212 509.577 502.185 504.554C505.231 499.408 501.959 492.343 505.042 487.133C510.1 478.589 515.004 475.214 524.763 472.713C531.944 470.872 539.572 471.593 546.751 469.753Z" fill="#0038FF" stroke="#FFEED8" stroke-width="2.67699" stroke-linecap="round"/>
<path d="M488.109 554.297C499.843 554.908 512.528 556.619 523.123 550.502C529.311 546.928 534.354 542.359 539.798 537.846C544.128 534.256 548.484 531.247 553.984 529.769C560.122 528.12 566.295 527.067 572.346 525.038C577.609 523.274 582.933 521.694 588.223 520.011C594.305 518.075 600.125 515.278 606.342 513.884C607.979 513.517 609.604 513.28 611.273 513.398C617.777 513.86 624.29 515.013 630.763 515.818C635.146 516.363 639.474 517.281 643.837 517.949C646.513 518.359 649.268 518.292 651.967 518.405C654.27 518.502 655.32 517.554 657.168 516.605C657.658 516.353 659.722 514.876 659.446 514.145C659.22 513.547 658.496 513.034 658.049 512.561C655.957 510.351 653.336 508.713 650.771 507.118C646.275 504.323 641.67 501.692 636.971 499.249C632.28 496.81 627.257 495.476 622.105 494.44C617.453 493.504 612.399 493.764 607.716 494.309C604.103 494.73 600.48 495.124 596.989 496.19C593.511 497.252 589.536 498.592 586.982 501.328C582.849 505.755 578.747 510.387 574.119 514.309C569.623 518.119 564.537 521.19 560.002 524.957C558.006 526.615 554.565 527.708 553.248 529.933" stroke="#FFEED8" stroke-width="2.41441" stroke-linecap="round"/>
<path d="M579.331 569.556C589.473 568.177 599.865 569.118 610.062 568.939C617.803 568.803 625.234 568.347 632.815 566.729C638.742 565.464 644.358 563.307 650.113 561.46C660.471 558.134 671.013 556.949 681.858 556.994C691.468 557.035 700.906 558.443 710.411 559.705C717 560.58 723.634 560.635 730.227 561.509C732.886 561.862 735.611 562.343 738.299 562.349C739.389 562.351 740.86 562.295 741.653 561.399C743.47 559.347 741.997 557.461 740.527 555.567C735.264 548.786 727.232 544.468 719.83 540.445C713.591 537.055 706.946 534.608 699.982 533.209C692.02 531.609 683.546 531.603 675.462 532.103C665.772 532.701 655.509 533.935 646.284 537.057C641.408 538.707 637.12 541.065 632.935 544.051C628.753 547.035 624.55 549.897 620.615 553.206C616.38 556.768 612.411 560.27 607.48 562.857C602.786 565.321 597.886 568.106 592.528 568.68C590.167 568.933 587.612 568.754 585.259 568.487C584.049 568.349 582.794 568.343 581.609 568.087" stroke="#FFEED8" stroke-width="2.41441" stroke-linecap="round"/>
<path d="M575.777 578.725C570.559 575.636 563.265 579.14 559.094 582.559C553.625 587.041 552.005 593.293 552.216 600.127C552.307 603.083 552.417 606.859 554.332 609.311C557.228 613.019 563.11 614.784 567.222 616.445C574.101 619.226 581.835 620.977 589.273 620.003C596.375 619.073 603 616.293 609.045 612.56C619.587 606.051 630.136 599.398 641.977 595.492C651.907 592.216 662.393 590.432 672.717 588.932C683.621 587.348 694.511 586.86 705.513 586.68C711.914 586.575 718.232 586.846 724.618 587.15C726.464 587.238 728.423 587.454 730.179 586.79C732.308 585.985 734.651 585.452 735.778 583.282C737.419 580.121 735.757 577.062 732.655 575.799C727.442 573.675 721.589 572.387 716.115 571.173C712.724 570.421 709.293 569.958 705.85 569.518C702.049 569.033 698.192 568.461 694.35 568.541C688.012 568.673 681.673 569.607 675.59 571.366C670.858 572.734 666.257 574.509 661.558 575.987C651.04 579.295 639.645 580.366 628.663 580.567C618.478 580.752 608.18 580.351 598.016 579.629C590.798 579.117 583.621 578.598 576.504 577.277C574.905 576.981 573.317 576.564 571.768 576.066C571.58 576.005 570.76 575.652 570.577 575.699C570.487 575.722 571.34 577.038 571.54 577.157" stroke="#FFEED8" stroke-width="2.41441" stroke-linecap="round"/>
<path d="M584.384 680.791C588.232 681.064 591.852 680.663 595.537 679.489C599.248 678.308 602.82 676.607 606.337 674.952C610.261 673.104 614.208 671.261 618.019 669.188C622.446 666.781 626.832 664.216 630.994 661.373C635.356 658.392 639.225 654.884 643.166 651.387C650.299 645.059 658.529 640.133 666.105 634.364C671.218 630.471 676.622 627.085 682.178 623.87C686.67 621.272 690.441 617.692 694.901 615.071C698.681 612.849 702.781 611.024 707.152 610.505C713.811 609.715 720.237 611.197 726.745 612.464C734.583 613.991 742.39 615.925 750.343 616.781C756.659 617.461 762.978 617.857 769.293 618.594C776.897 619.482 784.376 621.042 791.459 624.007C795.662 625.767 800.142 627.776 802.802 631.661C805.289 635.293 805.163 640.121 804.363 644.273C803.457 648.976 801.604 652.793 798.549 656.497C795.054 660.732 790.971 664.221 786.293 667.086C783.57 668.753 780.729 670.394 777.604 671.164C772.687 672.376 767.566 671.099 762.787 669.841C753.977 667.522 745.91 663.138 737.217 660.548C730.957 658.683 724.52 659.53 718.123 659.706C713.808 659.825 709.507 659.781 705.205 660.198C700.964 660.609 696.759 661.283 692.524 661.744C684.179 662.652 675.783 662.721 667.434 661.866C655.382 660.631 643.608 661.13 632.56 666.526C629.493 668.025 626.413 669.541 623.104 670.425C620.208 671.198 617.342 671.846 614.421 672.511C611.419 673.195 608.515 674.495 605.609 675.499C602.813 676.465 600.017 677.473 597.206 678.39C594.967 679.12 592.688 680.094 590.351 680.45C589.534 680.574 588.437 680.882 587.651 680.626C586.942 680.394 584.9 680.338 586.772 680.327" stroke="#FFEED8" stroke-width="2.41441" stroke-linecap="round"/>
<path d="M653.37 698.446C654.354 698.654 655.323 698.606 656.297 698.606C660.534 698.609 664.787 698.703 669.037 698.776C686.012 699.069 703.169 700.03 719.98 699.532C726.271 699.345 732.632 699.327 738.867 698.948C745.878 698.521 752.731 697.635 759.671 697.014C765.535 696.489 771.479 696.19 777.393 695.805C783.327 695.418 789.202 694.796 795.197 694.602C802.962 694.349 812.252 694.583 820.04 696.849C824.513 698.15 828.168 700.545 829.036 703.948C829.428 705.488 828.413 707.055 827.461 708.25C825.19 711.098 821.284 713.802 817.368 715.466C806.04 720.282 791.71 720.739 777.805 719.342C771 718.659 764.236 717.329 757.451 716.323C751.508 715.443 745.557 714.803 739.611 713.997C725.963 712.147 712.528 709.322 698.949 706.948C688.461 705.114 678.013 703.657 667.589 701.453C662.501 700.377 657.172 699.457 652.182 698.402" stroke="#FFEED8" stroke-width="2.41441" stroke-linecap="round"/>
<path d="M646.996 727.93C647.501 728.229 648.098 728.295 648.679 728.405C651.206 728.886 653.708 729.45 656.215 729.996C666.229 732.177 676.088 734.981 686.316 736.428C690.144 736.97 693.947 737.672 697.818 738.032C702.17 738.438 706.609 738.411 710.995 738.633C714.702 738.82 718.367 739.221 722.047 739.541C725.741 739.861 729.492 739.962 733.147 740.463C737.88 741.111 743.331 742.371 747.085 745.297C749.241 746.977 750.477 749.554 749.652 752.726C749.279 754.161 748.055 755.462 747.015 756.434C744.536 758.751 741.139 760.753 738.146 761.815C729.486 764.886 720.754 763.682 713.008 760.852C709.217 759.466 705.705 757.501 702.052 755.827C698.853 754.36 695.555 753.111 692.325 751.712C684.91 748.5 678.007 744.432 670.84 740.755C665.306 737.914 659.645 735.419 654.295 732.251C651.683 730.705 648.866 729.272 646.304 727.756" stroke="#FFEED8" stroke-width="2.41441" stroke-linecap="round"/>
<path d="M67.9726 104.626C60.8963 104.626 55.3229 101.37 52.818 95.2329C52.5675 94.544 52.4423 93.9804 52.4423 93.3542C52.4423 91.0372 54.3836 89.5342 56.2622 89.5342C57.6399 89.5342 58.955 90.3483 59.456 92.1017C60.7711 96.4853 64.0274 98.4266 67.9726 98.4266C72.7319 98.4266 75.5499 95.9843 75.5499 92.5401C75.5499 83.3346 53.3816 85.4011 53.3816 70.8727C53.3816 63.7338 59.2681 58.9119 67.409 58.9119C74.2975 58.9119 79.3699 62.3561 81.5617 67.8043C81.8122 68.3679 81.8748 68.9315 81.8748 69.4324C81.8748 71.6242 80.0588 73.1898 78.2427 73.1898C76.9276 73.1898 75.6126 72.4383 74.8611 70.497C73.6713 67.3033 71.1664 65.1115 67.4717 65.1115C63.8396 65.1115 60.8963 67.178 60.8963 70.6223C60.8963 80.5792 83.2525 77.3229 83.2525 92.1017C83.2525 99.8669 76.7398 104.626 67.9726 104.626ZM107.258 70.8101C114.146 70.8101 120.409 75.0058 120.409 84.9628V100.618C120.409 103.061 118.593 104.376 116.777 104.376C114.96 104.376 113.144 103.061 113.144 100.618V86.0274C113.144 79.1389 109.199 77.0097 105.129 77.0097C100.056 77.0097 96.6747 80.2661 96.6121 86.4031V100.744C96.6121 103.061 94.7961 104.313 92.98 104.313C91.164 104.313 89.3479 103.061 89.3479 100.744V74.7553C89.3479 72.3757 91.164 71.1859 92.98 71.1859C94.7961 71.1859 96.6121 72.3757 96.6121 74.7553V76.6966C98.6786 73.0019 102.248 70.8101 107.258 70.8101ZM157.57 71.2485C159.324 71.2485 161.14 72.4383 161.14 74.818V100.806C161.14 103.123 159.386 104.376 157.57 104.376C155.754 104.376 153.938 103.123 153.938 100.806V97.362C152.122 101.808 147.551 104.626 141.664 104.626C131.832 104.626 125.695 97.0489 125.695 87.6556C125.695 78.0117 132.083 70.8101 142.04 70.8101C146.862 70.8101 151.496 73.1898 153.938 77.3855V74.818C153.938 72.4383 155.754 71.2485 157.57 71.2485ZM143.48 98.1761C149.554 98.1761 153.875 93.6673 153.875 87.7182C153.875 81.8317 149.554 77.3229 143.48 77.3229C137.343 77.3229 132.96 81.6438 132.96 87.7182C132.96 93.8552 137.343 98.1761 143.48 98.1761ZM193.215 102.309C190.585 103.812 187.391 104.626 184.135 104.626C175.743 104.626 167.101 99.2407 167.101 87.7182C167.101 76.133 175.743 70.9354 184.072 70.9354C187.391 70.9354 190.585 71.7495 193.215 73.2524C194.593 74.0665 195.219 75.2563 195.219 76.4461C195.219 77.9491 194.217 79.3268 192.651 79.3268C192.213 79.3268 191.712 79.2015 191.148 78.8884C189.332 77.9491 187.203 77.4481 185.137 77.4481C179.626 77.4481 174.24 80.7045 174.24 87.7808C174.24 94.4188 179.375 98.0509 185.011 98.0509C187.015 98.0509 189.145 97.6125 191.086 96.6106C191.587 96.3601 192.025 96.2348 192.464 96.2348C194.029 96.2348 195.094 97.6751 195.094 99.2407C195.094 100.368 194.53 101.558 193.215 102.309ZM215.533 86.6536L228.371 99.0528C228.997 99.6164 229.247 100.305 229.247 100.994C229.247 102.622 227.557 104.25 225.615 104.25C224.801 104.25 223.924 103.937 223.173 103.186L208.394 88.6575C208.519 91.6008 208.645 95.4834 208.645 100.744C208.645 102.56 207.204 104.376 205.075 104.376C203.134 104.376 201.506 102.685 201.506 100.744V60.2896C201.506 58.3483 203.134 56.6575 205.075 56.6575C207.079 56.6575 208.645 58.3483 208.645 60.2896C208.645 71.9373 208.645 78.951 208.331 84.6497L222.922 72.4383C223.987 71.5616 225.114 71.1859 226.116 71.1859C227.932 71.1859 229.31 72.3757 229.31 73.816C229.31 74.5675 228.934 75.4442 227.932 76.2583L215.533 86.6536ZM267.702 70.8727C277.596 70.8727 283.671 78.5127 283.671 87.8434C283.671 97.4246 277.346 104.689 267.326 104.689C262.504 104.689 257.87 102.309 255.428 98.1135V115.397C255.428 117.714 253.674 118.967 251.858 118.967C250.105 118.967 248.289 117.714 248.289 115.397V74.7553C248.289 72.3757 250.105 71.1859 251.858 71.1859C253.674 71.1859 255.428 72.3757 255.428 74.7553V78.1369C257.307 73.6281 261.878 70.8727 267.702 70.8727ZM265.886 98.1761C272.023 98.1761 276.469 93.8552 276.469 87.7808C276.469 81.6438 272.023 77.3229 265.886 77.3229C259.811 77.3229 255.491 81.8317 255.491 87.7808C255.491 93.6673 259.811 98.1761 265.886 98.1761ZM319.263 71.2485C321.017 71.2485 322.833 72.4383 322.833 74.818V100.806C322.833 103.123 321.079 104.376 319.263 104.376C317.447 104.376 315.631 103.123 315.631 100.806V97.362C313.815 101.808 309.244 104.626 303.357 104.626C293.525 104.626 287.388 97.0489 287.388 87.6556C287.388 78.0117 293.776 70.8101 303.733 70.8101C308.555 70.8101 313.189 73.1898 315.631 77.3855V74.818C315.631 72.4383 317.447 71.2485 319.263 71.2485ZM305.173 98.1761C311.247 98.1761 315.568 93.6673 315.568 87.7182C315.568 81.8317 311.247 77.3229 305.173 77.3229C299.036 77.3229 294.652 81.6438 294.652 87.7182C294.652 93.8552 299.036 98.1761 305.173 98.1761ZM354.908 102.309C352.278 103.812 349.084 104.626 345.828 104.626C337.436 104.626 328.794 99.2407 328.794 87.7182C328.794 76.133 337.436 70.9354 345.765 70.9354C349.084 70.9354 352.278 71.7495 354.908 73.2524C356.286 74.0665 356.912 75.2563 356.912 76.4461C356.912 77.9491 355.91 79.3268 354.344 79.3268C353.906 79.3268 353.405 79.2015 352.841 78.8884C351.025 77.9491 348.896 77.4481 346.83 77.4481C341.319 77.4481 335.933 80.7045 335.933 87.7808C335.933 94.4188 341.068 98.0509 346.704 98.0509C348.708 98.0509 350.838 97.6125 352.779 96.6106C353.28 96.3601 353.718 96.2348 354.157 96.2348C355.722 96.2348 356.787 97.6751 356.787 99.2407C356.787 100.368 356.223 101.558 354.908 102.309ZM377.226 86.6536L390.064 99.0528C390.69 99.6164 390.94 100.305 390.94 100.994C390.94 102.622 389.25 104.25 387.308 104.25C386.494 104.25 385.617 103.937 384.866 103.186L370.087 88.6575C370.212 91.6008 370.338 95.4834 370.338 100.744C370.338 102.56 368.897 104.376 366.768 104.376C364.827 104.376 363.199 102.685 363.199 100.744V60.2896C363.199 58.3483 364.827 56.6575 366.768 56.6575C368.772 56.6575 370.338 58.3483 370.338 60.2896C370.338 71.9373 370.338 78.951 370.024 84.6497L384.615 72.4383C385.68 71.5616 386.807 71.1859 387.809 71.1859C389.625 71.1859 391.003 72.3757 391.003 73.816C391.003 74.5675 390.627 75.4442 389.625 76.2583L377.226 86.6536Z" fill="#0038FF"/>
<path d="M829.288 104H818.391C815.949 104 814.571 102.622 814.571 100.18V63.3581C814.571 60.9158 815.949 59.5381 818.391 59.5381H829.288C843.127 59.5381 851.456 69.3072 851.456 81.769C851.456 94.2309 843.127 104 829.288 104ZM821.898 66.1761V97.362H829.288C838.18 97.362 844.129 91.6634 844.129 81.769C844.129 71.8747 838.18 66.1761 829.288 66.1761H821.898ZM872.747 71.3737C875.565 71.1232 876.692 72.7514 876.692 74.2544C876.692 75.5068 875.878 77.5733 872.684 77.636C868.113 77.6986 865.232 80.1409 865.232 84.6497V100.744C865.232 103.123 863.479 104.376 861.662 104.376C859.909 104.376 858.093 103.123 858.093 100.744V74.7553C858.093 72.3757 859.909 71.1859 861.662 71.1859C863.479 71.1859 865.232 72.3757 865.232 74.7553V76.1957C866.672 73.5029 869.052 71.6868 872.747 71.3737ZM895.338 104.626C885.318 104.626 877.929 97.4873 877.929 87.7182C877.929 78.0117 885.318 70.8101 895.338 70.8101C905.357 70.8101 912.747 78.0117 912.747 87.7182C912.747 97.4873 905.357 104.626 895.338 104.626ZM895.338 98.1761C901.349 98.1761 905.796 93.6673 905.796 87.7182C905.796 81.769 901.349 77.2602 895.338 77.2602C889.389 77.2602 884.88 81.769 884.88 87.7182C884.88 93.6673 889.389 98.1761 895.338 98.1761ZM937.927 70.8727C947.821 70.8727 953.896 78.5127 953.896 87.8434C953.896 97.4246 947.571 104.689 937.551 104.689C932.729 104.689 928.095 102.309 925.653 98.1135V115.397C925.653 117.714 923.899 118.967 922.083 118.967C920.33 118.967 918.514 117.714 918.514 115.397V74.7553C918.514 72.3757 920.33 71.1859 922.083 71.1859C923.899 71.1859 925.653 72.3757 925.653 74.7553V78.1369C927.531 73.6281 932.103 70.8727 937.927 70.8727ZM936.111 98.1761C942.248 98.1761 946.694 93.8552 946.694 87.7808C946.694 81.6438 942.248 77.3229 936.111 77.3229C930.036 77.3229 925.715 81.8317 925.715 87.7808C925.715 93.6673 930.036 98.1761 936.111 98.1761ZM988.4 97.5499H995.289C997.042 97.5499 998.545 98.9902 998.545 100.744C998.545 102.56 997.042 104 995.289 104H974.248C972.494 104 970.991 102.56 970.991 100.744C970.991 98.9902 972.494 97.5499 974.248 97.5499H981.074V66.8649L975.375 68.4305C975.062 68.4931 974.749 68.5557 974.436 68.5557C972.62 68.5557 971.555 66.9902 971.555 65.4246C971.555 64.0469 972.369 62.6692 974.123 62.1682L984.455 59.4129C984.894 59.2876 985.269 59.2876 985.582 59.2876C987.336 59.2876 988.4 60.5401 988.4 62.6066V97.5499Z" fill="#0038FF"/>
<path d="M428.197 926.145C420.408 926.145 413.428 924.345 407.256 920.745C401.157 917.071 396.381 912.185 392.927 906.086C389.548 899.914 387.858 893.154 387.858 885.806C387.858 878.532 389.548 871.846 392.927 865.747C396.307 859.648 401.047 854.799 407.145 851.198C413.244 847.525 420.188 845.688 427.976 845.688C433.193 845.688 437.859 846.349 441.974 847.671C446.162 848.921 449.689 850.611 452.554 852.741C454.244 853.991 455.493 855.387 456.302 856.93C457.11 858.399 457.514 859.905 457.514 861.448C457.514 863.653 456.706 865.563 455.089 867.18C453.546 868.796 451.562 869.604 449.138 869.604C446.786 869.604 444.398 868.759 441.974 867.069C440.284 865.894 438.263 864.939 435.912 864.204C433.56 863.396 431.025 862.991 428.307 862.991C424.045 862.991 420.261 863.983 416.955 865.967C413.648 867.951 411.076 870.707 409.239 874.234C407.476 877.76 406.594 881.728 406.594 886.137C406.594 890.472 407.439 894.366 409.129 897.82C410.819 901.2 413.281 903.882 416.514 905.866C419.747 907.849 423.531 908.841 427.866 908.841C432.495 908.841 436.463 907.739 439.769 905.535C443.076 903.257 445.464 900.134 446.933 896.166H426.433C423.861 896.166 421.841 895.358 420.371 893.742C418.975 892.125 418.277 890.178 418.277 887.9C418.277 885.696 418.975 883.786 420.371 882.169C421.841 880.479 423.861 879.634 426.433 879.634H457.073C460.086 879.634 462.364 880.479 463.907 882.169C465.523 883.859 466.331 886.357 466.331 889.664C466.331 890.325 466.258 891.464 466.111 893.08C465.45 898.15 463.613 903.22 460.6 908.29C457.588 913.36 453.326 917.622 447.815 921.075C442.378 924.455 435.838 926.145 428.197 926.145ZM498.991 891.868H498.88C497.999 891.758 497.337 890.986 497.448 890.105L499.542 871.809C499.652 870.927 500.534 870.266 501.415 870.376C502.297 870.486 502.848 871.368 502.738 872.25L500.644 890.435C500.534 891.317 499.872 891.868 498.991 891.868ZM511.445 834.446C511.225 834.446 511.004 834.446 511.004 834.446C497.558 835.437 477.278 861.228 471.437 884.704C468.791 895.726 468.13 910.605 480.805 918.43C484.552 920.634 488.189 921.847 491.716 921.847C498.219 921.847 504.391 918.21 510.233 910.935C523.459 894.513 530.182 864.865 526.985 850.317C523.789 835.548 514.311 834.446 511.445 834.446ZM530.953 858.473C530.953 874.895 524.23 898.701 512.768 913.03C506.375 920.855 499.101 925.043 491.716 925.043C487.528 925.043 483.34 923.72 479.152 921.186C468.02 914.242 464.162 901.016 468.351 883.933C474.523 858.913 495.905 832.351 510.673 831.249C510.673 831.249 511.004 831.249 511.445 831.249C513.87 831.249 526.324 832.131 530.072 849.655C530.623 852.19 530.953 855.166 530.953 858.473ZM557.005 891.868H556.894C556.013 891.758 555.351 890.986 555.462 890.105L557.556 871.809C557.666 870.927 558.548 870.266 559.429 870.376C560.311 870.486 560.862 871.368 560.752 872.25L558.658 890.435C558.548 891.317 557.886 891.868 557.005 891.868ZM569.459 834.446C569.239 834.446 569.018 834.446 569.018 834.446C555.572 835.437 535.292 861.228 529.451 884.704C526.805 895.726 526.144 910.605 538.819 918.43C542.566 920.634 546.203 921.847 549.73 921.847C556.233 921.847 562.405 918.21 568.247 910.935C581.473 894.513 588.196 864.865 585 850.317C581.803 835.548 572.325 834.446 569.459 834.446ZM588.967 858.473C588.967 874.895 582.244 898.701 570.782 913.03C564.389 920.855 557.115 925.043 549.73 925.043C545.542 925.043 541.354 923.72 537.166 921.186C526.034 914.242 522.176 901.016 526.365 883.933C532.537 858.913 553.919 832.351 568.688 831.249C568.688 831.249 569.018 831.249 569.459 831.249C571.884 831.249 584.338 832.131 588.086 849.655C588.637 852.19 588.967 855.166 588.967 858.473ZM602.454 925.043C599.295 925.043 596.87 924.198 595.18 922.508C593.49 920.818 592.645 918.393 592.645 915.234V856.599C592.645 853.366 593.49 850.941 595.18 849.325C596.87 847.635 599.295 846.79 602.454 846.79H620.53C628.833 846.79 636.033 848.516 642.132 851.97C648.304 855.35 653.007 860.016 656.24 865.967C659.473 871.919 661.089 878.569 661.089 885.916C661.089 893.264 659.473 899.914 656.24 905.866C653.007 911.817 648.304 916.52 642.132 919.973C636.033 923.353 628.833 925.043 620.53 925.043H602.454ZM620.53 908.07C627.216 908.07 632.506 906.27 636.401 902.669C640.368 898.995 642.352 893.411 642.352 885.916C642.352 878.422 640.368 872.874 636.401 869.274C632.506 865.6 627.216 863.763 620.53 863.763H611.382V908.07H620.53Z" fill="#0033E6"/>
<path d="M514.055 929.895C514.236 931.495 516.754 935.219 517.928 936.085C520.456 937.95 521.311 936.907 523.913 936.907C527.8 936.907 529.589 932.137 530.954 929.115" stroke="#0033E6" stroke-width="2.20432" stroke-linecap="round"/>
<path d="M571.522 817.992C572.716 819.319 573.489 820.334 575.119 821.328C576.692 822.287 578.838 822.954 580.701 822.954" stroke="#0033E6" stroke-width="2.20432" stroke-linecap="round"/>
<path d="M510.739 817C509.934 817 509.132 817.619 508.451 817.992C507.111 818.727 505.693 819.395 504.261 819.922C503.032 820.374 501.627 820.722 500.319 820.722" stroke="#0033E6" stroke-width="2.20432" stroke-linecap="round"/>
<path d="M423.223 949.186C427.996 949.186 432.149 950.333 435.682 952.626C439.215 954.92 441.881 958.019 443.678 961.924C445.538 965.829 446.468 970.106 446.468 974.755C446.468 979.59 445.507 983.929 443.585 987.772C441.664 991.553 438.874 994.56 435.217 996.791C431.622 998.96 427.345 1000.05 422.386 1000.05C419.597 1000.05 416.839 999.487 414.111 998.372C411.384 997.194 409.152 995.489 407.417 993.258C407.169 995.303 406.301 996.915 404.813 998.093C403.388 999.208 401.714 999.766 399.793 999.766C397.747 999.766 395.949 999.084 394.4 997.721C392.85 996.357 392.075 994.467 392.075 992.049V936.262C392.075 933.845 392.85 931.954 394.4 930.591C395.949 929.227 397.747 928.545 399.793 928.545C401.9 928.545 403.698 929.227 405.185 930.591C406.735 931.954 407.51 933.845 407.51 936.262V957.275C408.564 954.734 410.485 952.75 413.274 951.325C416.126 949.899 419.442 949.186 423.223 949.186ZM419.132 986.099C422.603 986.099 425.424 985.045 427.593 982.937C429.762 980.768 430.847 977.978 430.847 974.569C430.847 971.16 429.762 968.402 427.593 966.294C425.424 964.125 422.603 963.04 419.132 963.04C415.785 963.04 413.026 964.125 410.857 966.294C408.687 968.402 407.603 971.16 407.603 974.569C407.603 977.978 408.687 980.768 410.857 982.937C413.026 985.045 415.785 986.099 419.132 986.099ZM476.793 950.023C477.165 949.961 477.692 949.93 478.374 949.93C480.419 949.93 482.031 950.519 483.208 951.697C484.386 952.874 484.975 954.3 484.975 955.974C484.975 957.833 484.262 959.507 482.836 960.994C481.473 962.482 479.427 963.35 476.7 963.598C471.493 964.094 468.89 966.883 468.89 971.966V992.049C468.89 994.467 468.115 996.357 466.565 997.721C465.078 999.084 463.28 999.766 461.173 999.766C459.127 999.766 457.33 999.084 455.78 997.721C454.23 996.357 453.455 994.467 453.455 992.049V957.089C453.455 954.672 454.23 952.781 455.78 951.418C457.33 950.054 459.127 949.372 461.173 949.372C463.032 949.372 464.675 949.899 466.1 950.953C467.526 952.007 468.394 953.494 468.704 955.416C470.687 952.378 473.384 950.581 476.793 950.023ZM537.3 971.036C537.362 971.346 537.393 971.842 537.393 972.524C537.393 974.693 536.68 976.367 535.254 977.545C533.891 978.66 532.031 979.218 529.676 979.218H502.433C502.743 981.512 503.89 983.433 505.873 984.983C507.919 986.47 510.367 987.214 513.218 987.214C516.814 987.214 519.696 986.037 521.865 983.681C523.415 982.069 525.089 981.264 526.886 981.264C528.684 981.264 530.233 981.915 531.535 983.216C532.899 984.518 533.581 986.037 533.581 987.772C533.581 989.384 532.899 990.902 531.535 992.328C529.118 994.745 526.328 996.636 523.167 998C520.068 999.301 516.721 999.952 513.126 999.952C508.043 999.952 503.518 998.898 499.551 996.791C495.584 994.683 492.484 991.739 490.253 987.958C488.021 984.115 486.906 979.714 486.906 974.755C486.906 969.858 487.99 965.457 490.16 961.552C492.329 957.647 495.336 954.61 499.179 952.44C503.022 950.209 507.392 949.093 512.289 949.093C518.921 949.093 524.469 950.953 528.932 954.672C533.457 958.391 536.246 963.846 537.3 971.036ZM512.289 961.459C509.499 961.459 507.175 962.141 505.315 963.505C503.456 964.869 502.464 966.728 502.34 969.084H522.33C522.082 966.79 521.029 964.962 519.169 963.598C517.31 962.172 515.016 961.459 512.289 961.459ZM587.881 949.465C589.988 949.465 591.817 950.147 593.366 951.511C594.916 952.812 595.691 954.703 595.691 957.182V991.956C595.691 994.374 594.916 996.264 593.366 997.628C591.817 998.991 589.988 999.673 587.881 999.673C585.773 999.673 583.944 998.991 582.395 997.628C580.845 996.264 580.07 994.374 580.07 991.956V991.863C579.017 994.405 577.064 996.388 574.213 997.814C571.423 999.239 568.138 999.952 564.357 999.952C559.584 999.952 555.431 998.806 551.898 996.512C548.365 994.219 545.669 991.119 543.809 987.214C542.011 983.309 541.113 979.032 541.113 974.383C541.113 969.548 542.073 965.24 543.995 961.459C545.916 957.616 548.675 954.61 552.27 952.44C555.927 950.209 560.235 949.093 565.194 949.093C567.983 949.093 570.742 949.682 573.469 950.86C576.196 951.976 578.428 953.649 580.163 955.881C580.473 953.835 581.341 952.255 582.767 951.139C584.254 950.023 585.959 949.465 587.881 949.465ZM568.448 986.099C571.795 986.099 574.554 985.045 576.723 982.937C578.893 980.768 579.977 977.978 579.977 974.569C579.977 971.16 578.893 968.402 576.723 966.294C574.554 964.125 571.795 963.04 568.448 963.04C564.977 963.04 562.157 964.125 559.987 966.294C557.818 968.402 556.733 971.16 556.733 974.569C556.733 977.978 557.818 980.768 559.987 982.937C562.157 985.045 564.977 986.099 568.448 986.099ZM649.349 928.545C651.457 928.545 653.254 929.227 654.742 930.591C656.292 931.954 657.066 933.845 657.066 936.262V992.049C657.066 994.467 656.292 996.357 654.742 997.721C653.254 999.084 651.457 999.766 649.349 999.766C647.304 999.766 645.506 999.084 643.956 997.721C642.407 996.357 641.632 994.467 641.632 992.049V991.863C640.578 994.405 638.626 996.388 635.774 997.814C632.985 999.239 629.7 999.952 625.919 999.952C621.146 999.952 616.993 998.806 613.46 996.512C609.927 994.219 607.23 991.119 605.371 987.214C603.573 983.309 602.674 979.032 602.674 974.383C602.674 969.548 603.635 965.24 605.557 961.459C607.478 957.616 610.236 954.61 613.832 952.44C617.489 950.209 621.797 949.093 626.756 949.093C629.545 949.093 632.272 949.651 634.938 950.767C637.665 951.883 639.896 953.525 641.632 955.695V936.262C641.632 933.845 642.407 931.954 643.956 930.591C645.506 929.227 647.304 928.545 649.349 928.545ZM630.01 986.099C633.357 986.099 636.115 985.045 638.285 982.937C640.454 980.768 641.539 977.978 641.539 974.569C641.539 971.16 640.454 968.402 638.285 966.294C636.115 964.125 633.357 963.04 630.01 963.04C626.539 963.04 623.718 964.125 621.549 966.294C619.379 968.402 618.295 971.16 618.295 974.569C618.295 977.978 619.379 980.768 621.549 982.937C623.718 985.045 626.539 986.099 630.01 986.099Z" fill="#0033E6"/>
</g>
<defs>
<clipPath id="clip0_213_6691">
<rect width="1049" height="1049" fill="white"/>
</clipPath>
</defs>
</svg>
