<svg width="1049" height="1049" viewBox="0 0 1049 1049" fill="none" xmlns="http://www.w3.org/2000/svg">
<rect width="1049" height="1049" fill="#A0D7FF"/>
<path d="M67.9726 104.626C60.8963 104.626 55.3229 101.37 52.818 95.2329C52.5675 94.544 52.4423 93.9804 52.4423 93.3542C52.4423 91.0372 54.3836 89.5342 56.2622 89.5342C57.6399 89.5342 58.955 90.3483 59.456 92.1017C60.7711 96.4853 64.0274 98.4266 67.9726 98.4266C72.7319 98.4266 75.5499 95.9843 75.5499 92.5401C75.5499 83.3346 53.3816 85.4011 53.3816 70.8727C53.3816 63.7338 59.2681 58.9119 67.409 58.9119C74.2975 58.9119 79.3699 62.3561 81.5617 67.8043C81.8122 68.3679 81.8748 68.9315 81.8748 69.4324C81.8748 71.6242 80.0588 73.1898 78.2427 73.1898C76.9276 73.1898 75.6126 72.4383 74.8611 70.497C73.6713 67.3033 71.1664 65.1115 67.4717 65.1115C63.8396 65.1115 60.8963 67.178 60.8963 70.6223C60.8963 80.5792 83.2525 77.3229 83.2525 92.1017C83.2525 99.8669 76.7398 104.626 67.9726 104.626ZM105.066 104.626C95.0465 104.626 87.6571 97.4873 87.6571 87.7182C87.6571 78.0117 95.0465 70.8101 105.066 70.8101C115.086 70.8101 122.475 78.0117 122.475 87.7182C122.475 97.4873 115.086 104.626 105.066 104.626ZM105.066 98.1761C111.078 98.1761 115.524 93.6673 115.524 87.7182C115.524 81.769 111.078 77.2602 105.066 77.2602C99.117 77.2602 94.6082 81.769 94.6082 87.7182C94.6082 93.6673 99.117 98.1761 105.066 98.1761ZM155.233 71.1859C157.049 71.1859 158.865 72.3757 158.865 74.7553V100.744C158.865 103.061 157.049 104.313 155.233 104.313C153.416 104.313 151.6 103.061 151.6 100.744V98.8023C149.534 102.497 145.964 104.689 140.892 104.689C134.066 104.689 127.804 100.493 127.804 90.5362V74.8806C127.804 72.4383 129.62 71.1859 131.436 71.1859C133.252 71.1859 135.068 72.4383 135.068 74.8806V89.4716C135.068 96.3601 139.013 98.5519 143.084 98.5519C148.156 98.5519 151.538 95.2329 151.6 89.0959V74.7553C151.6 72.3757 153.416 71.1859 155.233 71.1859ZM180.934 71.3737C183.752 71.1232 184.879 72.7514 184.879 74.2544C184.879 75.5068 184.065 77.5733 180.872 77.636C176.3 77.6986 173.419 80.1409 173.419 84.6497V100.744C173.419 103.123 171.666 104.376 169.85 104.376C168.097 104.376 166.28 103.123 166.28 100.744V74.7553C166.28 72.3757 168.097 71.1859 169.85 71.1859C171.666 71.1859 173.419 72.3757 173.419 74.7553V76.1957C174.86 73.5029 177.239 71.6868 180.934 71.3737ZM217.928 56.6575C219.744 56.6575 221.498 57.9099 221.498 60.2896V100.744C221.498 103.123 219.682 104.376 217.928 104.376C216.175 104.376 214.359 103.123 214.359 100.744V97.362C212.543 101.808 207.971 104.626 202.085 104.626C192.253 104.626 186.116 97.0489 186.116 87.6556C186.116 78.0117 192.504 70.8101 202.461 70.8101C207.283 70.8101 211.917 73.1898 214.359 77.3855V60.2896C214.359 57.9099 216.175 56.6575 217.928 56.6575ZM203.901 98.1761C209.975 98.1761 214.296 93.6673 214.296 87.7182C214.296 81.8317 209.975 77.3229 203.901 77.3229C197.764 77.3229 193.38 81.6438 193.38 87.7182C193.38 93.8552 197.764 98.1761 203.901 98.1761ZM244.682 104.626C234.663 104.626 227.273 97.4873 227.273 87.7182C227.273 78.0117 234.663 70.8101 244.682 70.8101C254.702 70.8101 262.091 78.0117 262.091 87.7182C262.091 97.4873 254.702 104.626 244.682 104.626ZM244.682 98.1761C250.694 98.1761 255.14 93.6673 255.14 87.7182C255.14 81.769 250.694 77.2602 244.682 77.2602C238.733 77.2602 234.224 81.769 234.224 87.7182C234.224 93.6673 238.733 98.1761 244.682 98.1761ZM294.849 71.1859C296.665 71.1859 298.481 72.3757 298.481 74.7553V100.744C298.481 103.061 296.665 104.313 294.849 104.313C293.033 104.313 291.217 103.061 291.217 100.744V98.8023C289.15 102.497 285.581 104.689 280.508 104.689C273.682 104.689 267.42 100.493 267.42 90.5362V74.8806C267.42 72.4383 269.236 71.1859 271.052 71.1859C272.868 71.1859 274.684 72.4383 274.684 74.8806V89.4716C274.684 96.3601 278.629 98.5519 282.7 98.5519C287.772 98.5519 291.154 95.2329 291.217 89.0959V74.7553C291.217 72.3757 293.033 71.1859 294.849 71.1859ZM336.081 71.1859C337.834 71.1859 339.587 72.3757 339.587 74.7553V100.869C339.587 112.454 332.762 119.342 321.677 119.342C317.043 119.342 312.472 118.027 309.466 116.274C308.088 115.46 307.462 114.27 307.462 113.143C307.462 111.703 308.527 110.45 310.28 110.45C312.284 110.45 315.353 113.08 321.177 113.08C328.629 113.08 332.449 108.759 332.449 100.869V97.362C330.632 101.808 326.061 104.626 320.175 104.626C310.343 104.626 304.206 97.0489 304.206 87.6556C304.206 78.0117 310.593 70.8101 320.55 70.8101C325.372 70.8101 330.006 73.1898 332.449 77.3855V74.9432C332.449 72.4383 334.265 71.1859 336.081 71.1859ZM321.991 98.1761C328.065 98.1761 332.386 93.6673 332.386 87.7182C332.386 81.8317 328.065 77.3229 321.991 77.3229C315.854 77.3229 311.47 81.6438 311.47 87.7182C311.47 93.8552 315.854 98.1761 321.991 98.1761ZM364.901 70.8101C371.79 70.8101 378.052 75.0685 378.052 84.9628V100.618C378.052 103.061 376.236 104.376 374.42 104.376C372.604 104.376 370.788 103.061 370.788 100.618V86.0274C370.788 79.0763 366.78 77.0097 362.772 77.0097C357.512 77.0097 354.255 80.5166 354.193 86.4031V100.744C354.193 103.123 352.439 104.376 350.623 104.376C348.87 104.376 347.054 103.123 347.054 100.744V60.2896C347.054 57.9099 348.87 56.6575 350.623 56.6575C352.439 56.6575 354.193 57.9099 354.193 60.2896V76.8219C356.259 73.0019 359.829 70.8101 364.901 70.8101Z" fill="#0038FF"/>
<path d="M823.938 104H813.042C810.6 104 809.222 102.622 809.222 100.18V63.3581C809.222 60.9158 810.6 59.5381 813.042 59.5381H823.938C837.778 59.5381 846.106 69.3072 846.106 81.769C846.106 94.2309 837.778 104 823.938 104ZM816.549 66.1761V97.362H823.938C832.83 97.362 838.78 91.6634 838.78 81.769C838.78 71.8747 832.83 66.1761 823.938 66.1761H816.549ZM867.397 71.3737C870.215 71.1232 871.342 72.7514 871.342 74.2544C871.342 75.5068 870.528 77.5733 867.334 77.636C862.763 77.6986 859.882 80.1409 859.882 84.6497V100.744C859.882 103.123 858.129 104.376 856.313 104.376C854.559 104.376 852.743 103.123 852.743 100.744V74.7553C852.743 72.3757 854.559 71.1859 856.313 71.1859C858.129 71.1859 859.882 72.3757 859.882 74.7553V76.1957C861.323 73.5029 863.702 71.6868 867.397 71.3737ZM889.988 104.626C879.969 104.626 872.579 97.4873 872.579 87.7182C872.579 78.0117 879.969 70.8101 889.988 70.8101C900.008 70.8101 907.397 78.0117 907.397 87.7182C907.397 97.4873 900.008 104.626 889.988 104.626ZM889.988 98.1761C896 98.1761 900.446 93.6673 900.446 87.7182C900.446 81.769 896 77.2602 889.988 77.2602C884.039 77.2602 879.53 81.769 879.53 87.7182C879.53 93.6673 884.039 98.1761 889.988 98.1761ZM932.577 70.8727C942.472 70.8727 948.546 78.5127 948.546 87.8434C948.546 97.4246 942.221 104.689 932.201 104.689C927.38 104.689 922.745 102.309 920.303 98.1135V115.397C920.303 117.714 918.55 118.967 916.734 118.967C914.98 118.967 913.164 117.714 913.164 115.397V74.7553C913.164 72.3757 914.98 71.1859 916.734 71.1859C918.55 71.1859 920.303 72.3757 920.303 74.7553V78.1369C922.182 73.6281 926.753 70.8727 932.577 70.8727ZM930.761 98.1761C936.898 98.1761 941.344 93.8552 941.344 87.7808C941.344 81.6438 936.898 77.3229 930.761 77.3229C924.687 77.3229 920.366 81.8317 920.366 87.7808C920.366 93.6673 924.687 98.1761 930.761 98.1761ZM993.697 104H970.714C968.209 104 965.955 102.184 965.955 98.3014C965.955 84.5871 989.313 83.1467 989.313 72.6262C989.313 68.681 986.37 65.6125 981.736 65.6125C977.728 65.6125 975.16 67.9921 973.845 71.7495C973.219 73.5029 971.967 74.2544 970.652 74.2544C968.898 74.2544 967.082 72.814 967.082 70.3718C967.082 69.7455 967.27 68.9315 967.583 68.1174C969.775 62.7318 975.411 58.9119 982.112 58.9119C989.939 58.9119 996.64 63.9843 996.64 72.7514C996.64 87.5929 975.975 88.3444 973.72 97.1115H993.697C995.575 97.1115 997.141 98.6771 997.141 100.556C997.141 102.434 995.575 104 993.697 104Z" fill="#0038FF"/>
<path d="M223.048 687.707C225.357 691.931 228.997 696.022 229.33 700.697C228.489 716.04 283.599 720.769 296.865 726.266C323.02 737.105 369.08 730.68 397.067 730.046C449.081 728.869 502.185 732.303 554.269 732.868C598.054 733.342 642.353 734.104 686.02 735.216L686.613 735.231C726.426 736.246 776.042 737.51 813.706 726.672C842.652 718.342 851.565 699.333 857.686 677.708C866.753 645.672 863.754 609.537 865.553 576.709L868.966 514.457C870.093 493.898 876.342 469.204 868.062 448.939C861.914 433.893 855.749 420.3 846.257 406.249C837.89 393.864 818.395 382.248 805.456 372.925C787.567 360.036 761.548 353.494 741.861 342.303C728.106 334.484 714.65 328.438 697.814 325.662C644.043 316.794 589.843 314.097 535.514 309.52C489.307 305.627 444.232 303.309 397.648 303.28C364.595 303.259 333.143 304.284 303.996 316.72C274.391 329.351 255.05 355.69 237.88 377.642C205.219 419.401 182.248 466.025 179.513 515.918C177.803 547.112 175.381 577.916 186.925 608.534C196.971 635.179 209.066 662.133 223.048 687.707Z" fill="#0038FF"/>
<path d="M454.699 321.383C443.844 321.693 434.388 326.037 425.435 330.589C404.706 341.127 383.191 350.848 365.706 365.148C356.12 372.989 318.349 413.404 333.934 425.891C341.736 432.143 376.841 420.324 383.957 418.483C409.989 411.747 432.075 402.857 449.908 385.715C470.543 365.88 481.902 345.684 510.395 331.555C518.628 327.472 535.181 316.22 529.336 331.934C516.394 366.732 499.571 395.411 472.189 423.188C453.308 442.34 482.038 453.726 502.079 445.786C545.689 428.508 549.125 399.873 564.658 367.881C573.887 348.872 589.704 339.542 607.961 327.412C616.286 321.88 613.335 333.145 613.113 337.186C612.47 348.918 613.935 362.151 608.304 373.042C604.115 381.142 580.773 422.297 592.329 430.96C614.803 447.807 658.721 408.26 661.197 391.101C663.984 371.788 662.27 352.429 661.682 333.257C661.072 313.378 645.368 312.853 625.883 311.785C572.88 308.879 518.781 315.405 466.561 312.542" stroke="#FFEED8" stroke-width="4.85227" stroke-linecap="round"/>
<path d="M428.197 926.145C420.408 926.145 413.428 924.345 407.256 920.745C401.157 917.071 396.381 912.185 392.927 906.086C389.548 899.914 387.858 893.154 387.858 885.806C387.858 878.532 389.548 871.846 392.927 865.747C396.307 859.648 401.047 854.799 407.145 851.198C413.244 847.525 420.188 845.688 427.976 845.688C433.193 845.688 437.859 846.349 441.974 847.672C446.162 848.921 449.689 850.611 452.554 852.742C454.244 853.991 455.493 855.387 456.302 856.93C457.11 858.399 457.514 859.906 457.514 861.449C457.514 863.653 456.706 865.563 455.089 867.18C453.546 868.796 451.562 869.605 449.138 869.605C446.786 869.605 444.398 868.76 441.974 867.07C440.284 865.894 438.263 864.939 435.912 864.204C433.56 863.396 431.025 862.992 428.307 862.992C424.045 862.992 420.261 863.984 416.955 865.967C413.648 867.951 411.076 870.707 409.239 874.234C407.476 877.761 406.594 881.728 406.594 886.137C406.594 890.472 407.439 894.366 409.129 897.82C410.819 901.2 413.281 903.882 416.514 905.866C419.747 907.85 423.531 908.841 427.866 908.841C432.495 908.841 436.463 907.739 439.769 905.535C443.076 903.257 445.464 900.134 446.933 896.167H426.433C423.861 896.167 421.841 895.358 420.371 893.742C418.975 892.125 418.277 890.178 418.277 887.9C418.277 885.696 418.975 883.786 420.371 882.169C421.841 880.479 423.861 879.634 426.433 879.634H457.073C460.086 879.634 462.364 880.479 463.907 882.169C465.523 883.859 466.331 886.357 466.331 889.664C466.331 890.325 466.258 891.464 466.111 893.081C465.45 898.151 463.613 903.22 460.6 908.29C457.588 913.36 453.326 917.622 447.815 921.075C442.378 924.455 435.838 926.145 428.197 926.145ZM498.991 891.868H498.88C497.999 891.758 497.337 890.986 497.448 890.105L499.542 871.809C499.652 870.927 500.534 870.266 501.415 870.376C502.297 870.486 502.848 871.368 502.738 872.25L500.644 890.435C500.534 891.317 499.872 891.868 498.991 891.868ZM511.445 834.446C511.225 834.446 511.004 834.446 511.004 834.446C497.558 835.438 477.278 861.228 471.437 884.704C468.791 895.726 468.13 910.605 480.805 918.43C484.552 920.635 488.189 921.847 491.716 921.847C498.219 921.847 504.391 918.21 510.233 910.936C523.459 894.513 530.182 864.865 526.985 850.317C523.789 835.548 514.311 834.446 511.445 834.446ZM530.953 858.473C530.953 874.895 524.23 898.702 512.768 913.03C506.375 920.855 499.101 925.043 491.716 925.043C487.528 925.043 483.34 923.721 479.152 921.186C468.02 914.242 464.162 901.016 468.351 883.933C474.523 858.914 495.905 832.352 510.673 831.249C510.673 831.249 511.004 831.249 511.445 831.249C513.87 831.249 526.324 832.131 530.072 849.655C530.623 852.19 530.953 855.166 530.953 858.473ZM557.005 891.868H556.894C556.013 891.758 555.351 890.986 555.462 890.105L557.556 871.809C557.666 870.927 558.548 870.266 559.429 870.376C560.311 870.486 560.862 871.368 560.752 872.25L558.658 890.435C558.548 891.317 557.886 891.868 557.005 891.868ZM569.459 834.446C569.239 834.446 569.018 834.446 569.018 834.446C555.572 835.438 535.292 861.228 529.451 884.704C526.805 895.726 526.144 910.605 538.819 918.43C542.566 920.635 546.203 921.847 549.73 921.847C556.233 921.847 562.405 918.21 568.247 910.936C581.473 894.513 588.196 864.865 585 850.317C581.803 835.548 572.325 834.446 569.459 834.446ZM588.967 858.473C588.967 874.895 582.244 898.702 570.782 913.03C564.389 920.855 557.115 925.043 549.73 925.043C545.542 925.043 541.354 923.721 537.166 921.186C526.034 914.242 522.176 901.016 526.365 883.933C532.537 858.914 553.919 832.352 568.688 831.249C568.688 831.249 569.018 831.249 569.459 831.249C571.884 831.249 584.338 832.131 588.086 849.655C588.637 852.19 588.967 855.166 588.967 858.473ZM602.454 925.043C599.295 925.043 596.87 924.198 595.18 922.508C593.49 920.818 592.645 918.394 592.645 915.234V856.599C592.645 853.366 593.49 850.941 595.18 849.325C596.87 847.635 599.295 846.79 602.454 846.79H620.53C628.833 846.79 636.033 848.517 642.132 851.97C648.304 855.35 653.007 860.016 656.24 865.967C659.473 871.919 661.089 878.569 661.089 885.917C661.089 893.264 659.473 899.914 656.24 905.866C653.007 911.817 648.304 916.52 642.132 919.973C636.033 923.353 628.833 925.043 620.53 925.043H602.454ZM620.53 908.07C627.216 908.07 632.506 906.27 636.401 902.669C640.368 898.995 642.352 893.411 642.352 885.917C642.352 878.422 640.368 872.874 636.401 869.274C632.506 865.6 627.216 863.763 620.53 863.763H611.382V908.07H620.53Z" fill="#0033E6"/>
<path d="M514.055 929.895C514.236 931.495 516.754 935.219 517.928 936.085C520.456 937.95 521.311 936.907 523.913 936.907C527.8 936.907 529.589 932.137 530.954 929.115" stroke="#0033E6" stroke-width="2.20432" stroke-linecap="round"/>
<path d="M571.521 817.992C572.716 819.319 573.489 820.334 575.119 821.328C576.692 822.287 578.838 822.954 580.701 822.954" stroke="#0033E6" stroke-width="2.20432" stroke-linecap="round"/>
<path d="M510.739 817C509.934 817 509.132 817.619 508.451 817.992C507.111 818.727 505.693 819.395 504.261 819.922C503.032 820.374 501.627 820.721 500.319 820.721" stroke="#0033E6" stroke-width="2.20432" stroke-linecap="round"/>
<path d="M423.223 949.186C427.996 949.186 432.149 950.333 435.682 952.626C439.215 954.92 441.881 958.019 443.678 961.924C445.538 965.829 446.468 970.106 446.468 974.755C446.468 979.59 445.507 983.929 443.585 987.772C441.664 991.553 438.874 994.56 435.217 996.791C431.622 998.96 427.345 1000.05 422.386 1000.05C419.597 1000.05 416.839 999.487 414.111 998.372C411.384 997.194 409.152 995.489 407.417 993.258C407.169 995.303 406.301 996.915 404.813 998.093C403.388 999.208 401.714 999.766 399.793 999.766C397.747 999.766 395.949 999.084 394.4 997.721C392.85 996.357 392.075 994.467 392.075 992.049V936.262C392.075 933.845 392.85 931.954 394.4 930.591C395.949 929.227 397.747 928.545 399.793 928.545C401.9 928.545 403.698 929.227 405.185 930.591C406.735 931.954 407.51 933.845 407.51 936.262V957.275C408.564 954.734 410.485 952.75 413.274 951.325C416.126 949.899 419.442 949.186 423.223 949.186ZM419.132 986.099C422.603 986.099 425.424 985.045 427.593 982.937C429.762 980.768 430.847 977.978 430.847 974.569C430.847 971.16 429.762 968.402 427.593 966.294C425.424 964.125 422.603 963.04 419.132 963.04C415.785 963.04 413.026 964.125 410.857 966.294C408.687 968.402 407.603 971.16 407.603 974.569C407.603 977.978 408.687 980.768 410.857 982.937C413.026 985.045 415.785 986.099 419.132 986.099ZM476.793 950.023C477.165 949.961 477.692 949.93 478.374 949.93C480.419 949.93 482.031 950.519 483.208 951.697C484.386 952.874 484.975 954.3 484.975 955.974C484.975 957.833 484.262 959.507 482.836 960.994C481.473 962.482 479.427 963.35 476.7 963.598C471.493 964.094 468.89 966.883 468.89 971.966V992.049C468.89 994.467 468.115 996.357 466.565 997.721C465.078 999.084 463.28 999.766 461.173 999.766C459.127 999.766 457.33 999.084 455.78 997.721C454.23 996.357 453.455 994.467 453.455 992.049V957.089C453.455 954.672 454.23 952.781 455.78 951.418C457.33 950.054 459.127 949.372 461.173 949.372C463.032 949.372 464.675 949.899 466.1 950.953C467.526 952.007 468.394 953.494 468.704 955.416C470.687 952.378 473.384 950.581 476.793 950.023ZM537.3 971.036C537.362 971.346 537.393 971.842 537.393 972.524C537.393 974.693 536.68 976.367 535.254 977.545C533.891 978.66 532.031 979.218 529.676 979.218H502.433C502.743 981.512 503.89 983.433 505.873 984.983C507.919 986.47 510.367 987.214 513.218 987.214C516.814 987.214 519.696 986.037 521.865 983.681C523.415 982.069 525.089 981.264 526.886 981.264C528.684 981.264 530.233 981.915 531.535 983.216C532.899 984.518 533.581 986.037 533.581 987.772C533.581 989.384 532.899 990.902 531.535 992.328C529.118 994.745 526.328 996.636 523.167 998C520.068 999.301 516.721 999.952 513.126 999.952C508.043 999.952 503.518 998.898 499.551 996.791C495.584 994.683 492.484 991.739 490.253 987.958C488.021 984.115 486.906 979.714 486.906 974.755C486.906 969.858 487.99 965.457 490.16 961.552C492.329 957.647 495.336 954.61 499.179 952.44C503.022 950.209 507.392 949.093 512.289 949.093C518.921 949.093 524.469 950.953 528.932 954.672C533.457 958.391 536.246 963.846 537.3 971.036ZM512.289 961.459C509.499 961.459 507.175 962.141 505.315 963.505C503.456 964.869 502.464 966.728 502.34 969.084H522.33C522.082 966.79 521.029 964.962 519.169 963.598C517.31 962.172 515.016 961.459 512.289 961.459ZM587.881 949.465C589.988 949.465 591.817 950.147 593.366 951.511C594.916 952.812 595.691 954.703 595.691 957.182V991.956C595.691 994.374 594.916 996.264 593.366 997.628C591.817 998.991 589.988 999.673 587.881 999.673C585.773 999.673 583.944 998.991 582.395 997.628C580.845 996.264 580.07 994.374 580.07 991.956V991.863C579.017 994.405 577.064 996.388 574.213 997.814C571.423 999.239 568.138 999.952 564.357 999.952C559.584 999.952 555.431 998.806 551.898 996.512C548.365 994.219 545.669 991.119 543.809 987.214C542.011 983.309 541.113 979.032 541.113 974.383C541.113 969.548 542.073 965.24 543.995 961.459C545.916 957.616 548.675 954.61 552.27 952.44C555.927 950.209 560.235 949.093 565.194 949.093C567.983 949.093 570.742 949.682 573.469 950.86C576.196 951.976 578.428 953.649 580.163 955.881C580.473 953.835 581.341 952.255 582.767 951.139C584.254 950.023 585.959 949.465 587.881 949.465ZM568.448 986.099C571.795 986.099 574.554 985.045 576.723 982.937C578.893 980.768 579.977 977.978 579.977 974.569C579.977 971.16 578.893 968.402 576.723 966.294C574.554 964.125 571.795 963.04 568.448 963.04C564.977 963.04 562.157 964.125 559.987 966.294C557.818 968.402 556.733 971.16 556.733 974.569C556.733 977.978 557.818 980.768 559.987 982.937C562.157 985.045 564.977 986.099 568.448 986.099ZM649.349 928.545C651.457 928.545 653.254 929.227 654.742 930.591C656.292 931.954 657.066 933.845 657.066 936.262V992.049C657.066 994.467 656.292 996.357 654.742 997.721C653.254 999.084 651.457 999.766 649.349 999.766C647.304 999.766 645.506 999.084 643.956 997.721C642.407 996.357 641.632 994.467 641.632 992.049V991.863C640.578 994.405 638.626 996.388 635.774 997.814C632.985 999.239 629.7 999.952 625.919 999.952C621.146 999.952 616.993 998.806 613.46 996.512C609.927 994.219 607.23 991.119 605.371 987.214C603.573 983.309 602.674 979.032 602.674 974.383C602.674 969.548 603.635 965.24 605.557 961.459C607.478 957.616 610.236 954.61 613.832 952.44C617.489 950.209 621.797 949.093 626.756 949.093C629.545 949.093 632.272 949.651 634.938 950.767C637.665 951.883 639.896 953.525 641.632 955.695V936.262C641.632 933.845 642.407 931.954 643.956 930.591C645.506 929.227 647.304 928.545 649.349 928.545ZM630.01 986.099C633.357 986.099 636.115 985.045 638.285 982.937C640.454 980.768 641.539 977.978 641.539 974.569C641.539 971.16 640.454 968.402 638.285 966.294C636.115 964.125 633.357 963.04 630.01 963.04C626.539 963.04 623.718 964.125 621.549 966.294C619.379 968.402 618.295 971.16 618.295 974.569C618.295 977.978 619.379 980.768 621.549 982.937C623.718 985.045 626.539 986.099 630.01 986.099Z" fill="#0033E6"/>
</svg>
