<svg width="1049" height="1049" viewBox="0 0 1049 1049" fill="none" xmlns="http://www.w3.org/2000/svg">
<g clip-path="url(#clip0_329_550)">
<rect width="1049" height="1049" fill="#A0D7FF"/>
<path d="M175.187 443.577C178.991 438.104 186.429 423.783 193.047 421.819C205.434 408.854 238.019 397.083 246.914 391.526C261.275 382.555 272.566 365.553 288.01 357.975C300.193 351.996 311.407 344.989 324.962 341.744C344.076 337.168 363.555 335.955 382.77 332.873C386.235 332.318 408.426 329.634 409.584 334.503C411.11 340.921 410.379 347.521 407.26 353.468C405.535 356.755 402.025 364.442 400.314 368.187C403.666 362.226 412.468 358.153 416.489 352.973C422.195 345.622 436.804 341.068 444.833 338.2C455.903 334.247 467.337 331.177 478.313 327.074C492.463 321.784 575.923 301.365 574.763 329.802C574.382 339.14 575.905 334.62 582.388 330.85C589.222 326.877 597.28 325.042 603.768 320.197C620.989 307.333 640.354 294.624 662.081 290.717C683.081 286.942 703.945 285.653 724.786 282.669C742.384 280.149 758.353 285.553 774.536 292.27C806.352 305.476 840.337 317.391 847.104 355.022C850.127 371.838 850.063 389.424 853.108 406.357C854.256 412.742 855.031 418.969 857.694 424.886C858.647 427.005 862.08 439.965 863.135 433.225C863.649 429.947 864.734 427.935 866.133 424.981C872.146 412.285 887.417 426.752 889.111 436.171C894.22 464.591 900.58 494.07 902.791 523.219C905.036 552.831 909.105 583.256 914.368 612.526C916.711 625.558 919.562 631.032 927.454 640.458C929.29 642.65 931.636 641.759 927.944 643.685C922.553 646.497 915.876 647.797 911.082 651.555C902.566 658.23 891.659 662.661 882.551 668.78C874.685 674.065 862.49 677.511 853.315 680.103L853.061 680.175C835.596 685.11 817.42 687.645 799.83 692.075C788.576 694.91 773.535 701.296 761.671 700.101C740.506 697.969 715.733 708.187 693.837 709.52C645.103 712.486 595.976 720.046 547.083 718.524C513.39 717.475 479.964 712.478 446.418 709.296C418.762 706.673 390.997 708.422 363.339 710.167C337.764 711.781 312.207 713.387 286.617 715.002C268.687 716.133 251 720.346 232.996 720.252C219.685 720.183 207.942 720.605 197.021 713.012C188.548 707.122 182.619 694.436 180.654 684.775C179.126 677.26 176.919 668.926 177.687 661.296C178.319 655.021 180.103 645.829 178.992 639.648C176.952 628.307 170.943 621.791 168.827 610.027C166.398 596.517 165.584 583.017 163.149 569.475C161.323 559.318 157.961 549.588 156.172 539.639C154.339 529.446 142.051 523.89 140.196 513.572C137.153 496.647 139.759 486.672 149.718 472.347C157.046 461.805 167.86 454.116 175.187 443.577Z" fill="#0038FF"/>
<path d="M193.047 421.819C186.429 423.783 178.991 438.104 175.187 443.577C167.86 454.116 157.046 461.805 149.718 472.347C139.759 486.672 137.153 496.647 140.196 513.572C142.051 523.89 154.339 529.446 156.172 539.639C157.961 549.588 161.323 559.318 163.149 569.475C165.584 583.017 166.398 596.517 168.827 610.027C170.943 621.791 176.952 628.307 178.992 639.648C180.103 645.829 178.319 655.021 177.687 661.296C176.919 668.926 179.126 677.26 180.654 684.775C182.619 694.436 188.548 707.122 197.021 713.012C207.942 720.605 219.685 720.183 232.996 720.252C251 720.346 268.687 716.133 286.617 715.002C312.207 713.387 337.764 711.781 363.339 710.167C390.997 708.422 418.762 706.673 446.418 709.296C479.964 712.478 513.39 717.475 547.083 718.524C595.976 720.046 645.103 712.486 693.837 709.52C715.733 708.187 740.506 697.969 761.671 700.101C773.535 701.296 788.576 694.91 799.83 692.075C817.42 687.645 835.596 685.11 853.061 680.175C862.264 677.574 874.612 674.114 882.551 668.78C891.659 662.661 902.566 658.23 911.082 651.555C915.876 647.797 922.553 646.497 927.944 643.685C931.636 641.759 929.29 642.65 927.454 640.458C919.562 631.032 916.711 625.558 914.368 612.526C909.105 583.256 905.036 552.831 902.791 523.219C900.58 494.07 894.22 464.591 889.111 436.171C887.417 426.752 872.146 412.285 866.133 424.981C864.734 427.935 863.649 429.947 863.135 433.225C862.08 439.965 858.647 427.005 857.694 424.886C855.031 418.969 854.256 412.742 853.108 406.357C850.063 389.424 850.127 371.838 847.104 355.022C840.337 317.391 806.352 305.476 774.536 292.27C758.353 285.553 742.384 280.149 724.786 282.669C703.945 285.653 683.081 286.942 662.081 290.717C640.354 294.624 620.989 307.333 603.767 320.197C597.28 325.042 589.222 326.877 582.388 330.85C575.905 334.62 574.382 339.14 574.763 329.802C575.923 301.365 492.463 321.784 478.313 327.074C467.337 331.177 455.903 334.247 444.833 338.2C436.804 341.068 422.195 345.622 416.489 352.973C412.237 358.451 402.636 362.692 399.791 369.236C397.472 374.569 404.558 358.618 407.26 353.468C410.379 347.521 411.11 340.921 409.584 334.503C408.426 329.634 386.235 332.318 382.77 332.873C363.555 335.955 344.076 337.168 324.962 341.744C311.407 344.989 300.193 351.996 288.01 357.975C272.566 365.553 261.275 382.555 246.914 391.526C238.019 397.083 205.434 408.854 193.047 421.819Z" stroke="#C8B5FF" stroke-width="5.50199" stroke-linecap="round"/>
<path d="M194.025 620.773C210.095 608.291 228.659 596.174 235.62 576.162C239.685 564.473 241.122 552.777 243.148 540.699C244.759 531.092 247.063 522.216 252.598 514.054C258.776 504.943 265.674 496.575 271.309 487.067C276.21 478.796 281.399 470.699 286.426 462.504C292.206 453.082 296.669 442.827 303.238 433.963C304.968 431.629 306.83 429.479 309.152 427.745C318.199 420.987 328.041 415.126 337.436 408.853C343.797 404.606 350.509 400.909 356.984 396.845C360.955 394.353 364.49 391.146 368.156 388.24C371.284 385.76 371.587 383.329 372.935 379.994C373.292 379.108 374.325 374.835 373.135 374.19C372.162 373.662 370.633 373.809 369.511 373.696C364.267 373.168 358.978 373.987 353.81 374.801C344.755 376.227 335.74 377.992 326.816 380.109C317.906 382.222 309.813 386.161 301.887 390.635C294.732 394.674 288.401 400.736 282.881 406.752C278.622 411.393 274.319 416.012 270.951 421.36C267.594 426.69 263.901 432.946 263.651 439.422C263.246 449.903 263.113 460.617 261.487 470.998C259.908 481.08 256.717 490.863 255.039 500.935C254.3 505.367 251.026 510.695 251.819 515.102" stroke="#C8B5FF" stroke-width="4.9623" stroke-linecap="round"/>
<path d="M330.865 537.507C342.596 524.219 357.282 513.689 370.445 501.91C380.436 492.969 389.66 483.959 397.764 473.257C404.101 464.889 409.02 455.706 414.471 446.769C424.282 430.685 436.757 417.198 451.023 404.98C463.664 394.154 477.628 385.317 491.515 376.211C501.14 369.899 509.898 362.46 519.528 356.143C523.413 353.595 527.53 351.141 531.059 348.105C532.49 346.875 534.355 345.136 534.38 343.064C534.437 338.318 530.372 337.513 526.302 336.695C511.728 333.766 496.312 337.197 482.057 340.305C470.042 342.924 458.562 347.24 447.851 353.289C435.605 360.206 424.492 369.791 414.462 379.597C402.44 391.35 390.386 404.585 381.829 419.12C377.305 426.803 374.354 434.747 372.249 443.398C370.146 452.043 367.877 460.551 366.466 469.344C364.947 478.806 363.709 487.889 360.175 496.863C356.812 505.405 353.543 514.603 347.17 521.421C344.363 524.424 340.811 527.082 337.425 529.395C335.684 530.585 334.031 531.997 332.188 533.003" stroke="#C8B5FF" stroke-width="4.9623" stroke-linecap="round"/>
<path d="M336.59 553.544C326.254 555.403 320.661 568.252 319.064 577.454C316.971 589.519 321.925 599.548 329.937 608.266C333.403 612.038 337.822 616.861 343.106 617.907C351.1 619.489 360.808 615.143 368.078 612.667C380.242 608.523 392.361 602.064 401.007 592.367C409.262 583.109 414.797 571.965 418.495 560.228C424.943 539.764 431.238 519.102 442.335 500.579C451.642 485.044 463.366 470.836 475.2 457.182C487.698 442.764 501.418 429.796 515.634 417.106C523.906 409.722 532.493 402.924 541.207 396.095C543.725 394.12 546.538 392.186 548.088 389.327C549.967 385.861 552.434 382.51 551.455 378.392C550.028 372.391 544.387 370.263 538.891 372.118C529.654 375.237 520.524 380.173 511.975 384.779C506.679 387.632 501.658 390.909 496.649 394.23C491.117 397.897 485.415 401.514 480.47 405.968C472.312 413.316 465.062 421.716 459.08 430.908C454.426 438.058 450.406 445.591 445.92 452.848C435.88 469.09 422.157 483.394 407.99 496.089C394.851 507.862 380.9 518.993 366.762 529.553C356.722 537.053 346.727 544.497 335.904 550.824C333.472 552.245 330.92 553.495 328.326 554.596C328.01 554.73 326.536 555.195 326.349 555.465C326.258 555.596 328.866 556.355 329.261 556.284" stroke="#C8B5FF" stroke-width="4.9623" stroke-linecap="round"/>
<path d="M463.413 677.572C468.767 673.573 473.057 668.95 476.558 663.239C480.083 657.49 482.841 651.217 485.576 645.066C488.628 638.203 491.714 631.319 494.363 624.288C497.439 616.122 500.285 607.795 502.521 599.357C504.864 590.513 505.963 581.534 507.171 572.489C509.356 556.121 514.567 540.349 517.965 524.212C520.259 513.32 523.509 502.765 527.152 492.262C530.098 483.772 530.988 474.81 533.866 466.326C536.305 459.136 539.613 452.101 544.754 446.474C552.587 437.9 562.687 432.568 572.652 426.862C584.653 419.99 597.074 413.687 608.468 405.806C617.515 399.548 626.246 392.912 635.356 386.731C646.329 379.286 657.897 372.864 670.536 368.733C678.037 366.281 686.183 363.844 694.068 365.924C701.44 367.869 706.739 374.34 710.39 380.686C714.528 387.877 716.419 394.976 716.607 403.29C716.822 412.797 715.42 421.992 712.531 431.042C710.85 436.309 708.985 441.677 705.761 446.224C700.687 453.378 692.53 457.502 684.842 461.263C670.671 468.196 655.134 471.582 640.809 478.028C630.494 482.671 623.015 491.068 614.831 498.54C609.309 503.581 603.623 508.392 598.457 513.808C593.363 519.149 588.615 524.792 583.587 530.189C573.676 540.827 562.751 550.421 550.839 558.752C533.645 570.777 518.779 584.759 510.408 604.338C508.084 609.774 505.764 615.248 502.428 620.152C499.507 624.445 496.484 628.538 493.409 632.716C490.248 637.011 487.913 642.002 485.241 646.608C482.671 651.038 480.147 655.525 477.5 659.91C475.393 663.401 473.508 667.257 470.848 670.369C469.919 671.457 468.829 673.103 467.509 673.656C466.316 674.155 463.577 676.393 466.018 674.259" stroke="#C8B5FF" stroke-width="4.9623" stroke-linecap="round"/>
<path d="M573.819 622.613C575.345 621.771 576.559 620.611 577.837 619.509C583.392 614.717 589.073 610.024 594.726 605.309C617.307 586.477 640.881 568.315 662.35 548.632C670.384 541.266 678.702 534.04 686.444 526.485C695.15 517.989 703.128 509.07 711.52 500.4C718.613 493.073 726.065 485.952 733.38 478.754C740.72 471.529 747.715 464.064 755.353 457.022C765.244 447.901 777.685 437.692 790.457 431.844C797.793 428.485 805.295 427.488 810.284 430.965C812.542 432.54 812.986 435.743 813.09 438.387C813.338 444.691 811.279 452.655 808.03 459.27C798.635 478.405 780.37 495.227 760.566 509.136C750.873 515.944 740.502 521.859 730.47 528.222C721.684 533.795 713.161 539.692 704.455 545.367C684.473 558.392 663.666 569.9 643.181 582.159C627.36 591.627 612.016 601.546 595.859 610.457C587.973 614.806 579.946 619.633 572.211 623.899" stroke="#C8B5FF" stroke-width="4.9623" stroke-linecap="round"/>
<path d="M598.833 668.479C599.834 668.299 600.69 667.709 601.577 667.196C605.433 664.965 609.351 662.874 613.255 660.751C628.848 652.273 644.944 644.787 659.988 635.106C665.618 631.482 671.397 628.096 676.878 624.188C683.042 619.793 688.829 614.732 694.829 610.058C699.9 606.108 705.157 602.484 710.343 598.736C715.547 594.975 720.577 590.862 725.934 587.38C732.871 582.872 741.443 578.353 749.674 577.937C754.402 577.698 758.939 579.677 761.449 584.767C762.585 587.072 762.454 590.163 762.191 592.613C761.565 598.456 759.378 604.925 756.657 609.706C748.785 623.534 735.977 631.841 722.62 636.9C716.082 639.376 709.255 640.777 702.573 642.717C696.72 644.416 690.983 646.512 685.164 648.335C671.811 652.519 658.158 655.002 644.602 658.295C634.133 660.837 623.889 663.974 613.291 665.88C608.118 666.81 602.803 668.121 597.729 669.033" stroke="#C8B5FF" stroke-width="4.9623" stroke-linecap="round"/>
<path d="M71.9178 104H58.3914C55.9491 104 54.5714 102.622 54.5714 100.18V63.3581C54.5714 60.9158 55.9491 59.5381 58.3914 59.5381H70.8533C80.2466 59.5381 85.3817 63.6086 85.3817 70.5596C85.3817 75.9452 82.6889 78.951 79.1194 80.0156C84.4423 80.955 87.8866 85.4638 87.8866 91.0998C87.8866 98.6771 82.4384 104 71.9178 104ZM61.8983 65.8003V78.1369H70.8533C75.3621 78.1369 77.9922 76.0704 77.9922 71.9373C77.9922 68.0547 75.3621 65.8003 70.8533 65.8003H61.8983ZM61.8983 83.7103V97.7378H71.9178C77.3034 97.7378 80.4971 95.1702 80.4971 90.9119C80.4971 86.591 77.366 83.7103 72.1057 83.7103H61.8983ZM124.057 71.2485C125.811 71.2485 127.627 72.4383 127.627 74.818V100.806C127.627 103.123 125.873 104.376 124.057 104.376C122.241 104.376 120.425 103.123 120.425 100.806V97.362C118.609 101.808 114.038 104.626 108.151 104.626C98.3195 104.626 92.1825 97.0489 92.1825 87.6556C92.1825 78.0117 98.57 70.8101 108.527 70.8101C113.349 70.8101 117.983 73.1898 120.425 77.3855V74.818C120.425 72.4383 122.241 71.2485 124.057 71.2485ZM109.967 98.1761C116.042 98.1761 120.363 93.6673 120.363 87.7182C120.363 81.8317 116.042 77.3229 109.967 77.3229C103.83 77.3229 99.4467 81.6438 99.4467 87.7182C99.4467 93.8552 103.83 98.1761 109.967 98.1761ZM153.002 70.8101C159.89 70.8101 166.152 75.0058 166.152 84.9628V100.618C166.152 103.061 164.336 104.376 162.52 104.376C160.704 104.376 158.888 103.061 158.888 100.618V86.0274C158.888 79.1389 154.943 77.0097 150.872 77.0097C145.8 77.0097 142.418 80.2661 142.356 86.4031V100.744C142.356 103.061 140.54 104.313 138.724 104.313C136.908 104.313 135.092 103.061 135.092 100.744V74.7553C135.092 72.3757 136.908 71.1859 138.724 71.1859C140.54 71.1859 142.356 72.3757 142.356 74.7553V76.6966C144.422 73.0019 147.992 70.8101 153.002 70.8101ZM203.314 71.2485C205.067 71.2485 206.883 72.4383 206.883 74.818V100.806C206.883 103.123 205.13 104.376 203.314 104.376C201.498 104.376 199.682 103.123 199.682 100.806V97.362C197.866 101.808 193.294 104.626 187.408 104.626C177.576 104.626 171.439 97.0489 171.439 87.6556C171.439 78.0117 177.827 70.8101 187.783 70.8101C192.605 70.8101 197.239 73.1898 199.682 77.3855V74.818C199.682 72.4383 201.498 71.2485 203.314 71.2485ZM189.224 98.1761C195.298 98.1761 199.619 93.6673 199.619 87.7182C199.619 81.8317 195.298 77.3229 189.224 77.3229C183.087 77.3229 178.703 81.6438 178.703 87.7182C178.703 93.8552 183.087 98.1761 189.224 98.1761ZM232.258 70.8101C239.147 70.8101 245.409 75.0058 245.409 84.9628V100.618C245.409 103.061 243.593 104.376 241.777 104.376C239.961 104.376 238.145 103.061 238.145 100.618V86.0274C238.145 79.1389 234.199 77.0097 230.129 77.0097C225.057 77.0097 221.675 80.2661 221.612 86.4031V100.744C221.612 103.061 219.796 104.313 217.98 104.313C216.164 104.313 214.348 103.061 214.348 100.744V74.7553C214.348 72.3757 216.164 71.1859 217.98 71.1859C219.796 71.1859 221.612 72.3757 221.612 74.7553V76.6966C223.679 73.0019 227.248 70.8101 232.258 70.8101ZM282.57 71.2485C284.324 71.2485 286.14 72.4383 286.14 74.818V100.806C286.14 103.123 284.386 104.376 282.57 104.376C280.754 104.376 278.938 103.123 278.938 100.806V97.362C277.122 101.808 272.551 104.626 266.664 104.626C256.832 104.626 250.695 97.0489 250.695 87.6556C250.695 78.0117 257.083 70.8101 267.04 70.8101C271.862 70.8101 276.496 73.1898 278.938 77.3855V74.818C278.938 72.4383 280.754 71.2485 282.57 71.2485ZM268.48 98.1761C274.555 98.1761 278.876 93.6673 278.876 87.7182C278.876 81.8317 274.555 77.3229 268.48 77.3229C262.343 77.3229 257.96 81.6438 257.96 87.7182C257.96 93.8552 262.343 98.1761 268.48 98.1761ZM326.655 70.8727C336.549 70.8727 342.624 78.5127 342.624 87.8434C342.624 97.4246 336.299 104.689 326.279 104.689C321.457 104.689 316.823 102.309 314.381 98.1135V100.744C314.381 103.123 312.628 104.376 310.812 104.376C309.058 104.376 307.242 103.123 307.242 100.744V60.2896C307.242 57.9099 309.058 56.6575 310.812 56.6575C312.628 56.6575 314.381 57.9099 314.381 60.2896V78.1369C316.26 73.6281 320.831 70.8727 326.655 70.8727ZM324.839 98.1761C330.976 98.1761 335.422 93.8552 335.422 87.7808C335.422 81.6438 330.976 77.3229 324.839 77.3229C318.765 77.3229 314.444 81.8317 314.444 87.7808C314.444 93.6673 318.765 98.1761 324.839 98.1761ZM363.053 71.3737C365.871 71.1232 366.998 72.7514 366.998 74.2544C366.998 75.5068 366.184 77.5733 362.99 77.636C358.419 77.6986 355.538 80.1409 355.538 84.6497V100.744C355.538 103.123 353.785 104.376 351.969 104.376C350.215 104.376 348.399 103.123 348.399 100.744V74.7553C348.399 72.3757 350.215 71.1859 351.969 71.1859C353.785 71.1859 355.538 72.3757 355.538 74.7553V76.1957C356.978 73.5029 359.358 71.6868 363.053 71.3737ZM401.299 85.9647C401.55 88.4696 400.235 89.7847 397.793 89.7847H375.311C375.499 95.045 380.008 98.6771 385.393 98.6771C389.276 98.6771 391.906 96.9237 393.722 94.4814C394.411 93.5421 395.288 93.1663 396.102 93.1663C397.667 93.1663 399.17 94.6693 399.17 96.3601C399.17 97.0489 398.92 97.7378 398.356 98.4266C395.663 101.746 391.28 104.626 385.331 104.626C375.436 104.626 368.235 97.9256 368.235 87.7808C368.235 78.1369 375.123 70.8101 384.83 70.8101C393.973 70.8101 400.297 76.6966 401.299 85.9647ZM384.83 76.634C379.632 76.634 375.75 80.1409 375.374 84.9628H394.348C393.973 80.2035 390.215 76.634 384.83 76.634ZM436.864 71.2485C438.617 71.2485 440.433 72.4383 440.433 74.818V100.806C440.433 103.123 438.68 104.376 436.864 104.376C435.048 104.376 433.231 103.123 433.231 100.806V97.362C431.415 101.808 426.844 104.626 420.957 104.626C411.126 104.626 404.989 97.0489 404.989 87.6556C404.989 78.0117 411.376 70.8101 421.333 70.8101C426.155 70.8101 430.789 73.1898 433.231 77.3855V74.818C433.231 72.4383 435.048 71.2485 436.864 71.2485ZM422.774 98.1761C428.848 98.1761 433.169 93.6673 433.169 87.7182C433.169 81.8317 428.848 77.3229 422.774 77.3229C416.637 77.3229 412.253 81.6438 412.253 87.7182C412.253 93.8552 416.637 98.1761 422.774 98.1761ZM478.019 56.6575C479.835 56.6575 481.589 57.9099 481.589 60.2896V100.744C481.589 103.123 479.773 104.376 478.019 104.376C476.266 104.376 474.45 103.123 474.45 100.744V97.362C472.634 101.808 468.062 104.626 462.176 104.626C452.344 104.626 446.207 97.0489 446.207 87.6556C446.207 78.0117 452.594 70.8101 462.551 70.8101C467.373 70.8101 472.007 73.1898 474.45 77.3855V60.2896C474.45 57.9099 476.266 56.6575 478.019 56.6575ZM463.992 98.1761C470.066 98.1761 474.387 93.6673 474.387 87.7182C474.387 81.8317 470.066 77.3229 463.992 77.3229C457.855 77.3229 453.471 81.6438 453.471 87.7182C453.471 93.8552 457.855 98.1761 463.992 98.1761Z" fill="#0038FF"/>
<path d="M823.938 104H813.042C810.6 104 809.222 102.622 809.222 100.18V63.3581C809.222 60.9158 810.6 59.5381 813.042 59.5381H823.938C837.778 59.5381 846.106 69.3072 846.106 81.769C846.106 94.2309 837.778 104 823.938 104ZM816.549 66.1761V97.362H823.938C832.83 97.362 838.78 91.6634 838.78 81.769C838.78 71.8747 832.83 66.1761 823.938 66.1761H816.549ZM867.397 71.3737C870.215 71.1232 871.342 72.7514 871.342 74.2544C871.342 75.5068 870.528 77.5733 867.334 77.636C862.763 77.6986 859.882 80.1409 859.882 84.6497V100.744C859.882 103.123 858.129 104.376 856.313 104.376C854.559 104.376 852.743 103.123 852.743 100.744V74.7553C852.743 72.3757 854.559 71.1859 856.313 71.1859C858.129 71.1859 859.882 72.3757 859.882 74.7553V76.1957C861.323 73.5029 863.702 71.6868 867.397 71.3737ZM889.988 104.626C879.969 104.626 872.579 97.4873 872.579 87.7182C872.579 78.0117 879.969 70.8101 889.988 70.8101C900.008 70.8101 907.397 78.0117 907.397 87.7182C907.397 97.4873 900.008 104.626 889.988 104.626ZM889.988 98.1761C896 98.1761 900.446 93.6673 900.446 87.7182C900.446 81.769 896 77.2602 889.988 77.2602C884.039 77.2602 879.53 81.769 879.53 87.7182C879.53 93.6673 884.039 98.1761 889.988 98.1761ZM932.577 70.8727C942.472 70.8727 948.546 78.5127 948.546 87.8434C948.546 97.4246 942.221 104.689 932.201 104.689C927.38 104.689 922.745 102.309 920.303 98.1135V115.397C920.303 117.714 918.55 118.967 916.734 118.967C914.98 118.967 913.164 117.714 913.164 115.397V74.7553C913.164 72.3757 914.98 71.1859 916.734 71.1859C918.55 71.1859 920.303 72.3757 920.303 74.7553V78.1369C922.182 73.6281 926.753 70.8727 932.577 70.8727ZM930.761 98.1761C936.898 98.1761 941.344 93.8552 941.344 87.7808C941.344 81.6438 936.898 77.3229 930.761 77.3229C924.687 77.3229 920.366 81.8317 920.366 87.7808C920.366 93.6673 924.687 98.1761 930.761 98.1761ZM993.697 104H970.714C968.209 104 965.955 102.184 965.955 98.3014C965.955 84.5871 989.313 83.1467 989.313 72.6262C989.313 68.681 986.37 65.6125 981.736 65.6125C977.728 65.6125 975.16 67.9921 973.845 71.7495C973.219 73.5029 971.967 74.2544 970.652 74.2544C968.898 74.2544 967.082 72.814 967.082 70.3718C967.082 69.7455 967.27 68.9315 967.583 68.1174C969.775 62.7318 975.411 58.9119 982.112 58.9119C989.939 58.9119 996.64 63.9843 996.64 72.7514C996.64 87.5929 975.975 88.3444 973.72 97.1115H993.697C995.575 97.1115 997.141 98.6771 997.141 100.556C997.141 102.434 995.575 104 993.697 104Z" fill="#0038FF"/>
<path d="M428.197 926.145C420.408 926.145 413.428 924.345 407.256 920.745C401.157 917.071 396.381 912.185 392.927 906.086C389.548 899.914 387.858 893.154 387.858 885.806C387.858 878.532 389.548 871.846 392.927 865.747C396.307 859.648 401.047 854.799 407.145 851.198C413.244 847.525 420.188 845.688 427.976 845.688C433.193 845.688 437.859 846.349 441.974 847.672C446.162 848.921 449.689 850.611 452.554 852.742C454.244 853.991 455.493 855.387 456.302 856.93C457.11 858.399 457.514 859.906 457.514 861.449C457.514 863.653 456.706 865.563 455.089 867.18C453.546 868.796 451.562 869.605 449.138 869.605C446.786 869.605 444.398 868.76 441.974 867.07C440.284 865.894 438.263 864.939 435.912 864.204C433.56 863.396 431.025 862.992 428.307 862.992C424.045 862.992 420.261 863.984 416.955 865.967C413.648 867.951 411.076 870.707 409.239 874.234C407.476 877.761 406.594 881.728 406.594 886.137C406.594 890.472 407.439 894.366 409.129 897.82C410.819 901.2 413.281 903.882 416.514 905.866C419.747 907.85 423.531 908.841 427.866 908.841C432.495 908.841 436.463 907.739 439.769 905.535C443.076 903.257 445.464 900.134 446.933 896.167H426.433C423.861 896.167 421.841 895.358 420.371 893.742C418.975 892.125 418.277 890.178 418.277 887.9C418.277 885.696 418.975 883.786 420.371 882.169C421.841 880.479 423.861 879.634 426.433 879.634H457.073C460.086 879.634 462.364 880.479 463.907 882.169C465.523 883.859 466.331 886.357 466.331 889.664C466.331 890.325 466.258 891.464 466.111 893.081C465.45 898.151 463.613 903.22 460.6 908.29C457.588 913.36 453.326 917.622 447.815 921.075C442.378 924.455 435.838 926.145 428.197 926.145ZM498.991 891.868H498.88C497.999 891.758 497.337 890.986 497.448 890.105L499.542 871.809C499.652 870.927 500.534 870.266 501.415 870.376C502.297 870.486 502.848 871.368 502.738 872.25L500.644 890.435C500.534 891.317 499.872 891.868 498.991 891.868ZM511.445 834.446C511.225 834.446 511.004 834.446 511.004 834.446C497.558 835.438 477.278 861.228 471.437 884.704C468.791 895.726 468.13 910.605 480.805 918.43C484.552 920.635 488.189 921.847 491.716 921.847C498.219 921.847 504.391 918.21 510.233 910.936C523.459 894.513 530.182 864.865 526.985 850.317C523.789 835.548 514.311 834.446 511.445 834.446ZM530.953 858.473C530.953 874.895 524.23 898.702 512.768 913.03C506.375 920.855 499.101 925.043 491.716 925.043C487.528 925.043 483.34 923.721 479.152 921.186C468.02 914.242 464.162 901.016 468.351 883.933C474.523 858.914 495.905 832.352 510.673 831.249C510.673 831.249 511.004 831.249 511.445 831.249C513.87 831.249 526.324 832.131 530.072 849.655C530.623 852.19 530.953 855.166 530.953 858.473ZM557.005 891.868H556.894C556.013 891.758 555.351 890.986 555.462 890.105L557.556 871.809C557.666 870.927 558.548 870.266 559.429 870.376C560.311 870.486 560.862 871.368 560.752 872.25L558.658 890.435C558.548 891.317 557.886 891.868 557.005 891.868ZM569.459 834.446C569.239 834.446 569.018 834.446 569.018 834.446C555.572 835.438 535.292 861.228 529.451 884.704C526.805 895.726 526.144 910.605 538.819 918.43C542.566 920.635 546.203 921.847 549.73 921.847C556.233 921.847 562.405 918.21 568.247 910.936C581.473 894.513 588.196 864.865 585 850.317C581.803 835.548 572.325 834.446 569.459 834.446ZM588.967 858.473C588.967 874.895 582.244 898.702 570.782 913.03C564.389 920.855 557.115 925.043 549.73 925.043C545.542 925.043 541.354 923.721 537.166 921.186C526.034 914.242 522.176 901.016 526.365 883.933C532.537 858.914 553.919 832.352 568.688 831.249C568.688 831.249 569.018 831.249 569.459 831.249C571.884 831.249 584.338 832.131 588.086 849.655C588.637 852.19 588.967 855.166 588.967 858.473ZM602.454 925.043C599.295 925.043 596.87 924.198 595.18 922.508C593.49 920.818 592.645 918.394 592.645 915.234V856.599C592.645 853.366 593.49 850.941 595.18 849.325C596.87 847.635 599.295 846.79 602.454 846.79H620.53C628.833 846.79 636.033 848.517 642.132 851.97C648.304 855.35 653.007 860.016 656.24 865.967C659.473 871.919 661.089 878.569 661.089 885.917C661.089 893.264 659.473 899.914 656.24 905.866C653.007 911.817 648.304 916.52 642.132 919.973C636.033 923.353 628.833 925.043 620.53 925.043H602.454ZM620.53 908.07C627.216 908.07 632.506 906.27 636.401 902.669C640.368 898.995 642.352 893.411 642.352 885.917C642.352 878.422 640.368 872.874 636.401 869.274C632.506 865.6 627.216 863.763 620.53 863.763H611.382V908.07H620.53Z" fill="#0033E6"/>
<path d="M514.055 929.895C514.236 931.495 516.754 935.219 517.928 936.085C520.456 937.95 521.311 936.907 523.913 936.907C527.8 936.907 529.589 932.137 530.954 929.115" stroke="#0033E6" stroke-width="2.20432" stroke-linecap="round"/>
<path d="M571.521 817.992C572.716 819.319 573.489 820.334 575.119 821.328C576.692 822.287 578.838 822.954 580.701 822.954" stroke="#0033E6" stroke-width="2.20432" stroke-linecap="round"/>
<path d="M510.739 817C509.934 817 509.132 817.619 508.451 817.992C507.111 818.727 505.693 819.395 504.261 819.922C503.032 820.374 501.627 820.721 500.319 820.721" stroke="#0033E6" stroke-width="2.20432" stroke-linecap="round"/>
<path d="M423.223 949.186C427.996 949.186 432.149 950.333 435.682 952.626C439.215 954.92 441.881 958.019 443.678 961.924C445.538 965.829 446.468 970.106 446.468 974.755C446.468 979.59 445.507 983.929 443.585 987.772C441.664 991.553 438.874 994.56 435.217 996.791C431.622 998.96 427.345 1000.05 422.386 1000.05C419.597 1000.05 416.839 999.487 414.111 998.372C411.384 997.194 409.152 995.489 407.417 993.258C407.169 995.303 406.301 996.915 404.813 998.093C403.388 999.208 401.714 999.766 399.793 999.766C397.747 999.766 395.949 999.084 394.4 997.721C392.85 996.357 392.075 994.467 392.075 992.049V936.262C392.075 933.845 392.85 931.954 394.4 930.591C395.949 929.227 397.747 928.545 399.793 928.545C401.9 928.545 403.698 929.227 405.185 930.591C406.735 931.954 407.51 933.845 407.51 936.262V957.275C408.564 954.734 410.485 952.75 413.274 951.325C416.126 949.899 419.442 949.186 423.223 949.186ZM419.132 986.099C422.603 986.099 425.424 985.045 427.593 982.937C429.762 980.768 430.847 977.978 430.847 974.569C430.847 971.16 429.762 968.402 427.593 966.294C425.424 964.125 422.603 963.04 419.132 963.04C415.785 963.04 413.026 964.125 410.857 966.294C408.687 968.402 407.603 971.16 407.603 974.569C407.603 977.978 408.687 980.768 410.857 982.937C413.026 985.045 415.785 986.099 419.132 986.099ZM476.793 950.023C477.165 949.961 477.692 949.93 478.374 949.93C480.419 949.93 482.031 950.519 483.208 951.697C484.386 952.874 484.975 954.3 484.975 955.974C484.975 957.833 484.262 959.507 482.836 960.994C481.473 962.482 479.427 963.35 476.7 963.598C471.493 964.094 468.89 966.883 468.89 971.966V992.049C468.89 994.467 468.115 996.357 466.565 997.721C465.078 999.084 463.28 999.766 461.173 999.766C459.127 999.766 457.33 999.084 455.78 997.721C454.23 996.357 453.455 994.467 453.455 992.049V957.089C453.455 954.672 454.23 952.781 455.78 951.418C457.33 950.054 459.127 949.372 461.173 949.372C463.032 949.372 464.675 949.899 466.1 950.953C467.526 952.007 468.394 953.494 468.704 955.416C470.687 952.378 473.384 950.581 476.793 950.023ZM537.3 971.036C537.362 971.346 537.393 971.842 537.393 972.524C537.393 974.693 536.68 976.367 535.254 977.545C533.891 978.66 532.031 979.218 529.676 979.218H502.433C502.743 981.512 503.89 983.433 505.873 984.983C507.919 986.47 510.367 987.214 513.218 987.214C516.814 987.214 519.696 986.037 521.865 983.681C523.415 982.069 525.089 981.264 526.886 981.264C528.684 981.264 530.233 981.915 531.535 983.216C532.899 984.518 533.581 986.037 533.581 987.772C533.581 989.384 532.899 990.902 531.535 992.328C529.118 994.745 526.328 996.636 523.167 998C520.068 999.301 516.721 999.952 513.126 999.952C508.043 999.952 503.518 998.898 499.551 996.791C495.584 994.683 492.484 991.739 490.253 987.958C488.021 984.115 486.906 979.714 486.906 974.755C486.906 969.858 487.99 965.457 490.16 961.552C492.329 957.647 495.336 954.61 499.179 952.44C503.022 950.209 507.392 949.093 512.289 949.093C518.921 949.093 524.469 950.953 528.932 954.672C533.457 958.391 536.246 963.846 537.3 971.036ZM512.289 961.459C509.499 961.459 507.175 962.141 505.315 963.505C503.456 964.869 502.464 966.728 502.34 969.084H522.33C522.082 966.79 521.029 964.962 519.169 963.598C517.31 962.172 515.016 961.459 512.289 961.459ZM587.881 949.465C589.988 949.465 591.817 950.147 593.366 951.511C594.916 952.812 595.691 954.703 595.691 957.182V991.956C595.691 994.374 594.916 996.264 593.366 997.628C591.817 998.991 589.988 999.673 587.881 999.673C585.773 999.673 583.944 998.991 582.395 997.628C580.845 996.264 580.07 994.374 580.07 991.956V991.863C579.017 994.405 577.064 996.388 574.213 997.814C571.423 999.239 568.138 999.952 564.357 999.952C559.584 999.952 555.431 998.806 551.898 996.512C548.365 994.219 545.669 991.119 543.809 987.214C542.011 983.309 541.113 979.032 541.113 974.383C541.113 969.548 542.073 965.24 543.995 961.459C545.916 957.616 548.675 954.61 552.27 952.44C555.927 950.209 560.235 949.093 565.194 949.093C567.983 949.093 570.742 949.682 573.469 950.86C576.196 951.976 578.428 953.649 580.163 955.881C580.473 953.835 581.341 952.255 582.767 951.139C584.254 950.023 585.959 949.465 587.881 949.465ZM568.448 986.099C571.795 986.099 574.554 985.045 576.723 982.937C578.893 980.768 579.977 977.978 579.977 974.569C579.977 971.16 578.893 968.402 576.723 966.294C574.554 964.125 571.795 963.04 568.448 963.04C564.977 963.04 562.157 964.125 559.987 966.294C557.818 968.402 556.733 971.16 556.733 974.569C556.733 977.978 557.818 980.768 559.987 982.937C562.157 985.045 564.977 986.099 568.448 986.099ZM649.349 928.545C651.457 928.545 653.254 929.227 654.742 930.591C656.292 931.954 657.066 933.845 657.066 936.262V992.049C657.066 994.467 656.292 996.357 654.742 997.721C653.254 999.084 651.457 999.766 649.349 999.766C647.304 999.766 645.506 999.084 643.956 997.721C642.407 996.357 641.632 994.467 641.632 992.049V991.863C640.578 994.405 638.626 996.388 635.774 997.814C632.985 999.239 629.7 999.952 625.919 999.952C621.146 999.952 616.993 998.806 613.46 996.512C609.927 994.219 607.23 991.119 605.371 987.214C603.573 983.309 602.674 979.032 602.674 974.383C602.674 969.548 603.635 965.24 605.557 961.459C607.478 957.616 610.236 954.61 613.832 952.44C617.489 950.209 621.797 949.093 626.756 949.093C629.545 949.093 632.272 949.651 634.938 950.767C637.665 951.883 639.896 953.525 641.632 955.695V936.262C641.632 933.845 642.407 931.954 643.956 930.591C645.506 929.227 647.304 928.545 649.349 928.545ZM630.01 986.099C633.357 986.099 636.115 985.045 638.285 982.937C640.454 980.768 641.539 977.978 641.539 974.569C641.539 971.16 640.454 968.402 638.285 966.294C636.115 964.125 633.357 963.04 630.01 963.04C626.539 963.04 623.718 964.125 621.549 966.294C619.379 968.402 618.295 971.16 618.295 974.569C618.295 977.978 619.379 980.768 621.549 982.937C623.718 985.045 626.539 986.099 630.01 986.099Z" fill="#0033E6"/>
</g>
<defs>
<clipPath id="clip0_329_550">
<rect width="1049" height="1049" fill="white"/>
</clipPath>
</defs>
</svg>
