<svg width="197" height="197" viewBox="0 0 197 197" fill="none" xmlns="http://www.w3.org/2000/svg">
<rect width="197" height="197" fill="#FFF6EA"/>
<path d="M71.3753 105.906H71.272C70.4456 105.802 69.8258 105.079 69.9291 104.253L71.8918 87.1046C71.9951 86.2782 72.8216 85.6584 73.648 85.7617C74.4744 85.865 74.9909 86.6914 74.8876 87.5178L72.9249 104.563C72.8216 105.389 72.2017 105.906 71.3753 105.906ZM83.0486 52.0849C82.842 52.0849 82.6353 52.0849 82.6353 52.0849C70.0324 53.0146 51.0246 77.1875 45.5495 99.1911C43.0703 109.521 42.4505 123.467 54.3303 130.802C57.8426 132.868 61.2516 134.004 64.5573 134.004C70.6522 134.004 76.4372 130.595 81.9122 123.777C94.3086 108.385 100.61 80.5965 97.6143 66.9605C94.6185 53.1179 85.7344 52.0849 83.0486 52.0849ZM101.333 74.6049C101.333 89.9971 95.0317 112.311 84.2882 125.74C78.2966 133.074 71.4786 137 64.5573 137C60.6318 137 56.7063 135.76 52.7808 133.384C42.3472 126.876 38.7315 114.48 42.6571 98.468C48.442 75.0182 68.4828 50.1221 82.3254 49.0891C82.3254 49.0891 82.6353 49.0891 83.0486 49.0891C85.3212 49.0891 96.9945 49.9155 100.507 66.3407C101.023 68.7167 101.333 71.5059 101.333 74.6049ZM125.751 105.906H125.647C124.821 105.802 124.201 105.079 124.304 104.253L126.267 87.1046C126.37 86.2782 127.197 85.6584 128.023 85.7617C128.85 85.865 129.366 86.6914 129.263 87.5178L127.3 104.563C127.197 105.389 126.577 105.906 125.751 105.906ZM137.424 52.0849C137.217 52.0849 137.011 52.0849 137.011 52.0849C124.408 53.0146 105.4 77.1875 99.9249 99.1911C97.4456 109.521 96.8258 123.467 108.706 130.802C112.218 132.868 115.627 134.004 118.933 134.004C125.028 134.004 130.813 130.595 136.288 123.777C148.684 108.385 154.985 80.5965 151.99 66.9605C148.994 53.1179 140.11 52.0849 137.424 52.0849ZM155.709 74.6049C155.709 89.9971 149.407 112.311 138.664 125.74C132.672 133.074 125.854 137 118.933 137C115.007 137 111.082 135.76 107.156 133.384C96.7225 126.876 93.1069 114.48 97.0324 98.468C102.817 75.0182 122.858 50.1221 136.701 49.0891C136.701 49.0891 137.011 49.0891 137.424 49.0891C139.697 49.0891 151.37 49.9155 154.882 66.3407C155.399 68.7167 155.709 71.5059 155.709 74.6049Z" fill="#0038FF"/>
<path d="M79.1414 156.444C79.3407 158.209 82.1164 162.313 83.4104 163.268C86.198 165.324 87.14 164.174 90.0081 164.174C94.2929 164.174 96.2651 158.916 97.77 155.585" stroke="#0038FF" stroke-width="2.42983" stroke-linecap="round"/>
<path d="M142.487 33.094C143.804 34.5565 144.656 35.6752 146.453 36.7707C148.186 37.8278 150.552 38.5635 152.606 38.5635" stroke="#0038FF" stroke-width="2.42983" stroke-linecap="round"/>
<path d="M75.4859 32C74.5988 32 73.7148 32.6821 72.9639 33.0939C71.4871 33.9037 69.9242 34.6404 68.3452 35.2209C66.9912 35.7187 65.442 36.1021 64 36.1021" stroke="#0038FF" stroke-width="2.42983" stroke-linecap="round"/>
</svg>
