<svg width="1575" height="77" viewBox="0 0 1575 77" fill="none" xmlns="http://www.w3.org/2000/svg">
  <g clip-path="url(#clip0_1796_24)">
    <rect y="-11" width="1737" height="20" fill="#FFEED8"/>
    <path d="M211.644 22.9084C138.687 30.944 67.5213 48.4987 0 77.1685V8.5H1577C1575.08 9.78069 1574.47 10.4154 1571.1 10.7849C1559.92 12.0103 1548.68 12.817 1537.47 13.7418C1520.55 15.1374 1504.12 17.6921 1487.35 20.395C1410.56 32.7665 1334.16 36.9873 1256.41 33.997C1165.04 30.4829 1073.14 26.8995 982.078 18.6208C952.944 15.9722 924.022 11.1613 894.774 9.74993C863.945 8.26218 832.763 9.08255 802 11.3763C764.7 14.1574 729.22 21.0966 692.962 30.1529C651.048 40.622 608.623 55.7306 564.852 55.7306C514.639 55.7306 467.048 35.4397 418.113 27.196C349.533 15.6425 280.655 15.3074 211.644 22.9084Z" fill="#FFEED8"/>
    <path d="M0 77.1685C67.5213 48.4987 138.687 30.944 211.644 22.9084C280.655 15.3074 349.533 15.6425 418.113 27.196C467.048 35.4397 514.639 55.7306 564.852 55.7306C608.623 55.7306 651.048 40.622 692.962 30.1529C729.22 21.0966 764.7 14.1574 802 11.3763C832.763 9.08256 863.945 8.26219 894.774 9.74994C924.022 11.1613 952.944 15.9723 982.078 18.6208C1073.14 26.8995 1165.04 30.4829 1256.41 33.997C1334.16 36.9873 1410.56 32.7665 1487.35 20.395C1504.12 17.6921 1520.55 15.1374 1537.47 13.7418C1548.68 12.817 1559.92 12.0103 1571.1 10.7849C1574.47 10.4154 1573.54 10.5871 1575.47 9.3064" stroke="#0033E6" stroke-linecap="round"/>
  </g>
  <defs>
    <clipPath id="clip0_1796_24">
      <rect width="1575" height="77" fill="white"/>
    </clipPath>
    </defs>
</svg>
