<svg width="441" height="31" viewBox="0 0 441 31" fill="none" xmlns="http://www.w3.org/2000/svg">
  <g clip-path="url(#clip0_1794_12)">
    <rect x="-310" y="25" width="1514" height="17" fill="#FFEED8"/>
    <path d="M408.296 12.6913C522.631 11.3895 637.082 11.5522 751.371 7.78781V25.5H-310V4.8457C-285.521 14.6061 -259.165 18.9282 -233.024 20.0843C-139.948 24.2007 -46.3858 23.8563 46.7695 23.8563C76.2822 23.8563 105.852 25.5155 135.349 24.837C179.473 23.8219 223.479 19.1679 267.534 16.6896C314.441 14.0509 361.333 13.226 408.296 12.6913Z" fill="#FFEED8"/>
    <path d="M751.371 7.78781C637.082 11.5522 522.631 11.3895 408.296 12.6913C361.333 13.226 314.441 14.0509 267.534 16.6896C223.479 19.1679 179.473 23.8219 135.349 24.837C105.852 25.5155 76.2822 23.8563 46.7695 23.8563C-46.3858 23.8563 -139.948 24.2007 -233.024 20.0843C-259.165 18.9282 -285.521 14.6061 -310 4.8457" stroke="#0033E6" stroke-linecap="round"/>
  </g>
  <defs>
    <clipPath id="clip0_1794_12">
      <rect width="441" height="31" fill="white"/>
    </clipPath>
  </defs>
</svg>
