<svg width="1061" height="31" viewBox="0 0 1061 31" fill="none" xmlns="http://www.w3.org/2000/svg">
  <g clip-path="url(#clip0_1794_12)">
    <rect y="25" width="1514" height="17" fill="#FFEED8"/>
    <path d="M718.296 12.6913C832.631 11.3895 947.082 11.5522 1061.37 7.78781V25.5H0V4.8457C24.4786 14.6061 50.8352 18.9282 76.9757 20.0843C170.052 24.2007 263.614 23.8563 356.77 23.8563C386.282 23.8563 415.852 25.5155 445.349 24.837C489.473 23.8219 533.479 19.1679 577.534 16.6896C624.441 14.0509 671.333 13.226 718.296 12.6913Z" fill="#FFEED8"/>
    <path d="M1061.37 7.78781C947.082 11.5522 832.631 11.3895 718.296 12.6913C671.333 13.226 624.441 14.0509 577.534 16.6896C533.479 19.1679 489.473 23.8219 445.349 24.837C415.852 25.5155 386.282 23.8563 356.77 23.8563C263.614 23.8563 170.052 24.2007 76.9757 20.0843C50.8352 18.9282 24.4786 14.6061 0 4.8457" stroke="#0033E6" stroke-linecap="round"/>
  </g>
  <defs>
    <clipPath id="clip0_1794_12">
      <rect width="1061" height="31" fill="white"/>
    </clipPath>
  </defs>
</svg>
