<svg width="441" height="77" viewBox="0 0 441 77" fill="none" xmlns="http://www.w3.org/2000/svg">
  <g clip-path="url(#clip0_1796_24)">
    <rect x="-457" y="-11" width="1737" height="20" fill="#FFEED8"/>
    <path d="M-245.356 22.9084C-318.313 30.944 -389.479 48.4987 -457 77.1685V8.5H1120C1118.08 9.78069 1117.47 10.4154 1114.1 10.7849C1102.92 12.0103 1091.68 12.817 1080.47 13.7418C1063.55 15.1374 1047.12 17.6921 1030.35 20.395C953.559 32.7665 877.158 36.9873 799.41 33.997C708.043 30.4829 616.144 26.8995 525.078 18.6208C495.944 15.9722 467.022 11.1613 437.774 9.74993C406.945 8.26218 375.763 9.08255 345 11.3763C307.7 14.1574 272.22 21.0966 235.962 30.1529C194.048 40.622 151.623 55.7306 107.852 55.7306C57.6389 55.7306 10.0475 35.4397 -38.8867 27.196C-107.467 15.6425 -176.345 15.3074 -245.356 22.9084Z" fill="#FFEED8"/>
    <path d="M-457 77.1685C-389.479 48.4987 -318.313 30.944 -245.356 22.9084C-176.345 15.3074 -107.467 15.6425 -38.8867 27.196C10.0476 35.4397 57.6389 55.7306 107.852 55.7306C151.623 55.7306 194.048 40.622 235.962 30.1529C272.22 21.0966 307.7 14.1574 345 11.3763C375.763 9.08256 406.945 8.26219 437.774 9.74994C467.022 11.1613 495.944 15.9723 525.078 18.6208C616.144 26.8995 708.043 30.4829 799.41 33.997C877.158 36.9873 953.559 32.7665 1030.35 20.395C1047.12 17.6921 1063.55 15.1374 1080.47 13.7418C1091.68 12.817 1102.92 12.0103 1114.1 10.7849C1117.47 10.4154 1116.54 10.5871 1118.47 9.3064" stroke="#0033E6" stroke-linecap="round"/>
  </g>
  <defs>
    <clipPath id="clip0_1796_24">
      <rect width="441" height="77" fill="white"/>
    </clipPath>
  </defs>
</svg>
