<svg width="438" height="632" viewBox="0 0 438 632" fill="none" xmlns="http://www.w3.org/2000/svg">
  <path d="M327.989 129.666C324.087 146.65 322.046 163.944 331.463 179.638C345.846 203.61 370.727 219.958 387.202 242.77C398.304 258.141 409.158 275.572 409.158 295.33C409.158 319.092 395.679 337.145 369.904 333.179C349.647 330.063 337.84 320.881 320.005 311.963" stroke="#0033E6" stroke-width="14.2402" stroke-linecap="round"/>
  <path d="M393.183 330.589C393.183 363.813 407.82 396.578 407.82 429.944C407.82 484.51 351.845 532.846 298.708 532.846C273.82 532.846 246.863 527.175 222.862 520.575C215.363 518.513 205.871 516.184 198.91 512.887C186.504 507.01 173.973 501.519 161.653 495.293C153.709 491.278 144.641 487.875 142.728 478.734C139.059 461.205 133.675 441.223 126.021 425.065C116.23 404.395 112.898 381.409 107.097 359.568C97.2121 322.356 91.1289 283.744 91.1289 245.281C91.1289 219.491 97.4699 189.05 121.438 174.905C137.03 165.703 152.991 162.929 170.967 162.929" stroke="#0033E6" stroke-width="14.2402" stroke-linecap="round"/>
  <path d="M172.308 242.771C174.758 235.693 177.677 222.764 182.953 217.489C188.873 211.569 194.661 212.167 201.582 212.167" stroke="#0033E6" stroke-width="14.2402" stroke-linecap="round"/>
  <path d="M240.162 194.864C247.53 190.047 269.625 172.813 278.751 178.897" stroke="#0033E6" stroke-width="14.2402" stroke-linecap="round"/>
  <path d="M300.035 398.449C301.265 404.601 315.417 409.095 320.66 409.095C325.338 409.095 339.31 407.764 334.632 407.764" stroke="#0033E6" stroke-width="14.2402" stroke-linecap="round"/>
  <path d="M169.636 150.954C170.053 147.201 172.834 144.177 172.001 140.014C170.982 134.918 165.835 130.418 162.687 126.707C155.097 117.762 146.371 109.638 140.658 99.2814C128.72 77.6438 151.842 58.1745 170.745 50.7131C182.99 45.8796 197.928 36.5197 211.477 36.5197C215.955 36.5197 211.847 55.5616 215.765 50.861C227.31 37.006 232.595 15.753 249.76 15.753C269.847 15.753 302.415 34.678 290.428 56.255C282.751 70.0746 264.908 49.5676 263.26 45.2427C259.891 36.3988 288.884 10.8428 294.42 11.2528C306.049 12.1142 312.824 38.5611 321.328 45.2427C333.796 55.0386 335.429 80.8188 324.581 91.6672C315.48 100.768 301.758 96.2706 290.428 94.4763C275.407 92.0974 258.417 89.9822 244.817 82.4266C238.911 79.1459 233.984 77.7363 230.106 83.8312C223.246 94.6104 218.376 107.844 204.232 110.37C186.26 113.579 167.335 113.697 149.085 113.697C137.259 113.697 126.173 111.035 114.414 111.035C112.365 111.035 110.567 110.212 111.014 111.775C111.534 113.593 111.009 116.192 110.792 117.984C110.016 124.391 110.802 131.392 109.461 137.648C108.199 143.541 100.406 142.681 95.8594 143.045C88.7929 143.61 81.8037 145.901 74.8649 147.258C62.0423 149.767 49.3083 150.954 36.2765 150.954C34.4079 150.954 27.1032 149.894 26.0749 151.694C25.0009 153.573 28.8036 159.03 29.919 160.269C39.4696 170.881 38.4238 205.616 21.2698 209.428C13.724 211.105 10.1714 202.672 14.6906 196.861C20.6519 189.197 38.7341 203.755 43.8906 208.098C53.5691 216.248 50.6178 238.254 50.6178 250.161C50.6178 264.039 48.0527 274.955 41.8947 287.271C35.9691 299.122 27.3705 317.394 40.4162 328.225C57.1874 342.148 69.9388 344.148 83.2281 364.593C88.5438 372.771 91.2708 379.012 93.4199 385.22C99.5754 403.003 109.538 425.175 110.053 443.695C110.316 453.172 113.766 465.479 110.053 474.299C108.709 477.491 100.664 493.546 97.1161 481.13" stroke="#0033E6" stroke-width="14.2402" stroke-linecap="round"/>
  <path d="M143.54 481.131C149.674 502.599 148.565 524.125 153.226 545.725C156.793 562.257 157.852 579.822 157.852 596.675C157.852 601.634 157.852 604.04 157.852 609.936" stroke="#0033E6" stroke-width="14.2402" stroke-linecap="round"/>
  <path d="M286.743 539.497C286.743 549.249 284.25 559.024 284.081 568.771C283.96 575.799 282.943 583.872 284.747 590.727C285.21 592.488 286.743 599.723 286.743 595.618" stroke="#0033E6" stroke-width="14.2402" stroke-linecap="round"/>
</svg>
