<svg width="1483" height="51" viewBox="0 0 1483 51" fill="none" xmlns="http://www.w3.org/2000/svg">
  <path d="M-367 9.39998C-333.207 -0.447585 -290.743 -2.29972 -256.628 7.40599C-229.595 15.0971 -206.777 19.0548 -177.729 19.1886C-76.7695 19.6538 24.815 2.72465 125.63 13.8411C150.697 16.6053 175.31 21.5224 200.486 23.7204C225.184 25.8767 250.1 25.8731 274.905 25.6237C316.381 25.2068 357.553 22.6542 398.608 17.9197C444.73 12.6011 491.639 15.7221 538.048 15.9257C595.119 16.1762 652.251 19.0073 709.288 19.0073C742.165 19.0073 774.23 20.2141 807.202 21.5451C880.552 24.5062 953.466 20.0027 1026.74 21.2732C1063.76 21.915 1096.3 25.7627 1130.78 36.9532C1155.55 44.9929 1176.13 49.6646 1202.9 49.9141C1242.43 50.2824 1282.71 49.4212 1322.23 48.192C1366.64 46.811 1410.99 42.0288 1455.45 42.0288C1463.02 42.0288 1475.47 40.0471 1482 43.6602" stroke="#0033E6" stroke-width="2" stroke-linecap="round"/>
</svg>
