<svg width="873" height="691" viewbox="0 0 873 691" fill="none" xmlns="http://www.w3.org/2000/svg">
  <g clip-path="url(#clip0_1800_2)">
    <path d="M161.301 413.253C159.563 420.82 158.654 428.526 162.849 435.519C169.257 446.199 180.343 453.483 187.684 463.647C192.63 470.495 197.466 478.262 197.466 487.065C197.466 497.652 191.461 505.695 179.976 503.929C170.951 502.54 165.69 498.449 157.744 494.476" stroke="#0033E6" stroke-width="6.34491" stroke-linecap="round"/>
    <path d="M191.876 506.753C191.876 521.557 198.398 536.155 198.398 551.022C198.398 575.334 173.457 596.871 149.782 596.871C138.693 596.871 126.681 594.344 115.987 591.403C112.646 590.485 108.417 589.447 105.316 587.978C99.7878 585.359 94.2045 582.913 88.7151 580.139C85.1759 578.35 81.1355 576.834 80.283 572.761C78.6483 564.95 76.2493 556.047 72.8391 548.848C68.4767 539.639 66.992 529.397 64.407 519.665C60.0029 503.085 57.2925 485.881 57.2925 468.743C57.2925 457.253 60.1178 443.689 70.7969 437.387C77.7444 433.287 84.8559 432.051 92.8652 432.051" stroke="#0033E6" stroke-width="6.34491" stroke-linecap="round"/>
    <path d="M93.4863 467.626C94.5778 464.472 95.8784 458.713 98.2285 456.363C100.866 453.725 103.445 453.992 106.527 453.992" stroke="#0033E6" stroke-width="6.34491" stroke-linecap="round"/>
    <path d="M123.717 446.282C126.999 444.136 136.842 436.458 140.908 439.169" stroke="#0033E6" stroke-width="6.34491" stroke-linecap="round"/>
    <path d="M150.368 536.991C150.916 539.731 157.22 541.733 159.556 541.733C161.64 541.733 167.864 541.14 165.78 541.14" stroke="#0033E6" stroke-width="6.34491" stroke-linecap="round"/>
    <path d="M92.2842 426.719C92.47 425.046 93.7092 423.699 93.3382 421.844C92.8841 419.574 90.5909 417.568 89.188 415.915C85.8062 411.929 81.9185 408.31 79.3726 403.695C74.0535 394.054 84.3562 385.38 92.7782 382.055C98.2341 379.901 104.89 375.731 110.927 375.731C112.922 375.731 111.092 384.215 112.837 382.121C117.982 375.948 120.336 366.478 127.984 366.478C136.934 366.478 151.445 374.91 146.104 384.524C142.684 390.682 134.734 381.545 133.999 379.618C132.498 375.677 145.417 364.29 147.883 364.473C153.064 364.857 156.083 376.641 159.872 379.618C165.427 383.982 166.155 395.469 161.322 400.303C157.267 404.358 151.152 402.354 146.104 401.554C139.412 400.494 131.841 399.552 125.782 396.185C123.151 394.724 120.955 394.096 119.227 396.811C116.171 401.614 114.001 407.511 107.699 408.636C99.6911 410.066 91.2592 410.118 83.1275 410.118C77.8586 410.118 72.9188 408.932 67.6797 408.932C66.7665 408.932 65.9656 408.565 66.1646 409.262C66.3961 410.072 66.1625 411.23 66.0658 412.028C65.7198 414.883 66.0702 418.002 65.4729 420.79C64.9102 423.416 61.4381 423.032 59.4124 423.194C56.2638 423.446 53.1497 424.467 50.058 425.072C44.3448 426.19 38.671 426.719 32.8646 426.719C32.032 426.719 28.7773 426.246 28.3192 427.048C27.8406 427.885 29.535 430.317 30.0319 430.869C34.2873 435.597 33.8213 451.074 26.1782 452.772C22.8161 453.519 21.2332 449.762 23.2468 447.173C25.9029 443.758 33.9596 450.245 36.2571 452.179C40.5695 455.811 39.2545 465.616 39.2545 470.921C39.2545 477.105 38.1116 481.968 35.3678 487.456C32.7276 492.736 28.8964 500.878 34.7091 505.703C42.1816 511.907 47.8631 512.798 53.7843 521.907C56.1528 525.551 57.3678 528.332 58.3254 531.098C61.0681 539.021 65.5072 548.9 65.7364 557.152C65.8537 561.375 67.391 566.858 65.7364 570.788C65.1376 572.21 61.5529 579.364 59.9723 573.832" stroke="#0033E6" stroke-width="6.34491" stroke-linecap="round"/>
    <path d="M80.6704 573.835C83.4032 583.4 82.9094 592.991 84.9858 602.615C86.5751 609.98 87.0469 617.806 87.0469 625.315C87.0469 627.524 87.0469 628.597 87.0469 631.224" stroke="#0033E6" stroke-width="6.34491" stroke-linecap="round"/>
    <path d="M144.456 599.839C144.456 604.183 143.345 608.538 143.27 612.88C143.216 616.011 142.763 619.607 143.567 622.661C143.773 623.446 144.456 626.669 144.456 624.84" stroke="#0033E6" stroke-width="6.34491" stroke-linecap="round"/>
    <path d="M88.7816 636.621C75.8835 632.751 50.8478 635.61 38.448 635.61C26.1054 635.61 9.81609 640.766 -1.54975 645.637C-20.3717 653.703 -35.9949 668.32 -44.8735 686.077" stroke="#0033E6" stroke-width="5.80414" stroke-linecap="round"/>
    <path d="M86.8477 634.686C99.6515 645.915 130.701 639.201 148.758 626.302" stroke="#0033E6" stroke-width="5.80414" stroke-linecap="round"/>
    <path d="M307.846 632.579C285.498 616.496 265.402 630.773 241 626C214.723 620.86 182.501 610.297 157.5 626C150.55 630.365 145 632.579 138.5 632.579" stroke="#0033E6" stroke-width="5.80414" stroke-linecap="round"/>
    <path d="M304.547 633C298.452 641.745 295.883 652.162 291.513 661.879C288.035 669.612 283.202 676.383 279.08 683.77C276.551 688.303 260.371 722.069 257.847 725.69" stroke="#0033E6" stroke-width="5.80414" stroke-linecap="round"/>
    <path d="M299.141 644.965C316.071 644.965 341.48 646.952 366.251 643.151" stroke="#0033E6" stroke-width="4.83678" stroke-linecap="round"/>
    <path d="M383.256 681.845C363.702 690.338 348.161 694.063 331.026 697.317C315.278 700.306 262.662 711.027 247 714" stroke="#0033E6" stroke-width="4.83678" stroke-linecap="round"/>
    <path d="M520.86 263.77C455.56 269.836 390.003 270.828 324.995 279.504C321.411 280.326 322.254 280.989 317.955 281.388C313.446 281.807 309.016 280.988 304.73 281.386C289.245 282.825 276.553 272.468 260.815 277.127C257.12 278.221 247.91 280.65 245.824 283.783C242.295 289.083 241.193 286.229 246.114 289.839C251.737 293.963 260.393 297.305 266.843 300.284C273.947 303.566 278.598 307.861 285.094 311.985C294.405 317.896 303.983 323.461 314.2 328.214C327.318 334.317 338.961 342.616 352.99 347.029C386.323 357.514 422.843 359.329 457.412 361.935C479.368 363.59 502.152 361.94 524.007 360.601C546.575 359.219 568.984 357.722 591.478 355.632C617.674 353.199 644.174 350.728 669.776 345.352C689.809 341.146 710.789 339.96 730.909 335.914C746.985 332.681 762.239 329.928 778.653 328.403C793.44 327.03 811.014 332.823 825.238 327.152C831.002 324.853 829.868 319.592 831.215 314.909C831.775 312.964 820.392 310.799 818.523 309.936C806.287 304.285 794.034 299.686 784.99 289.676C782.274 286.671 776.003 282.705 772.418 280.455C765.176 275.909 757.058 272.054 748.555 270.301C738.004 268.125 727.539 266.5 717.061 264.067C691.05 258.029 664.199 260.865 638.03 259.653C599.747 257.879 558.854 260.241 520.86 263.77Z" fill="#FFEED8" stroke="#0038FF" stroke-width="4.5" stroke-linecap="round"/>
    <path d="M468.263 316.411C452.97 309.67 440.376 300.37 429.207 291.603C432.223 289.827 456.891 299.294 462.004 301.152C480.559 307.897 500.454 313.067 519.031 319.728C520.082 320.104 541.733 328.178 532.455 328.685C520.52 329.338 505.471 325.81 493.346 323.424C484.498 321.684 475.972 319.81 468.263 316.411Z" fill="#FFEED8"/>
    <path d="M424.243 287.68C436.637 297.505 450.662 308.653 468.263 316.411C475.972 319.81 484.498 321.684 493.346 323.424C505.471 325.81 520.52 329.338 532.455 328.685C541.733 328.178 520.082 320.104 519.031 319.728C500.454 313.067 480.559 307.897 462.004 301.152C456.886 299.292 432.173 289.808 429.198 291.608" stroke="#0038FF" stroke-width="4.5" stroke-linecap="round"/>
    <path d="M405.876 305.864C421.826 313.35 435.277 325.714 447.25 337.538C444.367 341.195 418.757 331.446 413.457 329.596C394.226 322.884 373.779 319.098 354.532 312.529C353.444 312.158 330.986 303.99 340.275 300.931C352.224 296.996 367.659 299.228 380.056 300.27C389.101 301.031 397.835 302.09 405.876 305.864Z" fill="#FFEED8"/>
    <path d="M452.574 342.836C439.28 329.556 424.233 314.48 405.876 305.864C397.835 302.09 389.101 301.031 380.056 300.27C367.659 299.228 352.224 296.996 340.275 300.931C330.986 303.99 353.444 312.158 354.532 312.529C373.779 319.098 394.226 322.884 413.457 329.596C418.762 331.448 444.419 341.214 447.259 337.527" stroke="#0038FF" stroke-width="4.5" stroke-linecap="round"/>
    <path d="M531.016 297.466C531.934 301.032 543.377 305.103 546.888 306.733C557.387 311.607 568.066 315.982 579.367 319.45C589.029 322.415 598.436 323.373 608.684 322.894C613.633 322.663 624.237 322.054 625.31 316.935C626.686 310.373 618.139 305.018 611.585 302.858C600.891 299.334 588.307 299.855 577.005 299.702C563.309 299.516 549.651 297.718 535.946 297.533" stroke="#0038FF" stroke-width="4.5" stroke-linecap="round"/>
    <path d="M651.376 293.451C651.77 296.285 669.391 298.534 672.605 299.474C683.623 302.696 693.184 308.081 703.94 311.728C708.294 313.204 725.75 315.76 727.957 310.126C729.844 305.308 724.22 301.258 719.443 299.66C699.517 292.992 676.325 299.268 656.305 293.518" stroke="#0038FF" stroke-width="4.5" stroke-linecap="round"/>
    <path d="M855.429 260.16C849.151 268.405 842.081 276.556 834.438 284.046C825.85 292.462 812.614 292.988 799.755 290.997C789.681 289.437 779.449 286.262 771.267 283.724C768.957 283.007 766.811 282.341 764.878 281.777C753.153 278.353 741.162 275.506 729.158 272.656C721.688 270.882 714.213 269.107 706.793 267.191C690.637 263.019 674.266 258.895 658.095 254.955L657.875 254.902L657.745 254.87C643.079 251.297 624.53 246.778 611.513 239.2C606.348 236.194 603.283 232.677 601.516 228.774C599.767 224.911 599.347 220.792 599.25 216.699C599.105 210.536 600.206 204.362 601.627 198.348C602.254 195.695 602.928 193.126 603.592 190.597C604.463 187.276 605.316 184.025 606.02 180.743L610.702 158.939C611.077 157.19 611.364 155.315 611.666 153.34L611.666 153.336C611.966 151.379 612.279 149.33 612.703 147.307C613.551 143.268 614.871 139.167 617.583 135.808C621.305 131.2 624.948 127.027 629.905 123.023C632.245 121.133 635.588 119.685 638.916 118.488C640.847 117.794 642.932 117.133 644.865 116.52C646.202 116.096 647.467 115.695 648.558 115.321C652.642 113.924 657.301 113.324 661.86 112.833C662.527 112.761 663.192 112.691 663.853 112.622C667.774 112.211 671.575 111.814 675.037 111.019C680.937 109.664 686.647 108.879 693.336 109.614C709.259 111.364 724.943 114.404 740.6 117.439C745.309 118.352 750.015 119.264 754.724 120.141C772.132 123.381 788.984 127.055 806.178 131.671C818.335 134.935 830.079 138.462 839.879 145.832C849.345 152.949 854.109 163.465 858.124 172.326C858.374 172.879 858.622 173.426 858.867 173.965C866.981 191.764 871.108 210.459 867.264 228.364C867.141 228.935 867.02 229.506 866.898 230.078C864.701 240.383 862.45 250.941 855.429 260.16Z" fill="#0033E6" stroke="#FFEED8" stroke-width="3" stroke-linecap="round"/>
    <path d="M783.063 133.711C787.029 134.893 790.095 137.327 792.956 139.784C799.581 145.471 806.573 150.954 811.644 157.617C814.425 161.27 824.473 178.947 817.545 181.71C814.077 183.093 802.283 175.54 799.84 174.2C790.901 169.299 783.619 164.046 778.69 156.368C772.987 147.485 770.732 139.396 761.593 131.701C758.952 129.478 753.932 123.958 754.585 129.956C756.029 143.237 759.486 154.793 766.915 167.083C772.038 175.557 760.377 176.638 753.758 171.915C739.355 161.637 740.821 151.423 738.155 138.853C736.571 131.383 731.639 126.6 726.077 120.609C723.54 117.876 723.552 122.053 723.248 123.468C722.366 127.578 720.564 131.996 721.598 136.309C722.367 139.517 727.034 156.02 721.954 157.863C712.075 161.446 699.682 143.459 700.407 137.297C701.223 130.361 703.701 123.856 705.746 117.303C707.866 110.508 713.697 111.883 720.97 113.445C740.757 117.693 760.046 125.302 779.54 129.487" stroke="#FFEED8" stroke-width="3.62421" stroke-linecap="round"/>
    <path d="M693.21 369.826C691.712 368.228 688.611 363.926 686.365 363.603C681.72 359.978 670.564 357.704 667.407 356.322C662.31 354.089 657.828 349.1 652.445 347.372C648.199 346.009 644.219 344.265 639.657 343.857C633.224 343.28 626.833 343.814 620.438 343.728C619.285 343.713 611.942 343.898 611.798 345.537C611.608 347.696 612.16 349.807 613.458 351.592C614.175 352.579 615.683 354.911 616.418 356.047C615.044 354.268 611.988 353.364 610.433 351.871C608.228 349.753 603.261 348.969 600.513 348.419C596.726 347.662 592.862 347.209 589.097 346.398C584.244 345.352 556.135 342.692 557.868 351.883C558.437 354.901 557.726 353.504 555.438 352.587C553.027 351.621 550.319 351.409 547.979 350.143C541.766 346.781 534.864 343.572 527.614 343.338C520.606 343.112 513.761 343.687 506.842 343.711C501 343.73 496.066 346.249 491.124 349.204C481.409 355.015 470.927 360.509 470.521 373.067C470.34 378.679 471.199 384.394 471.016 390.044C470.948 392.175 470.992 394.237 470.409 396.287C470.2 397.022 469.702 401.399 469.037 399.258C468.714 398.217 468.265 397.614 467.669 396.721C465.109 392.879 460.833 398.311 460.732 401.454C460.425 410.938 459.763 420.826 460.434 430.409C461.116 440.144 461.243 450.231 460.927 459.999C460.787 464.348 460.121 466.263 458.004 469.704C457.512 470.505 456.707 470.327 457.999 470.777C459.886 471.434 462.119 471.538 463.857 472.532C466.944 474.296 470.701 475.217 473.954 476.772C476.764 478.115 480.893 478.654 484 479.06L484.086 479.071C490 479.843 496.03 479.801 501.961 480.403C505.755 480.788 510.95 482.147 514.751 481.193C521.53 479.49 530.072 481.632 537.255 481.021C553.242 479.662 569.575 479.778 585.4 476.952C596.305 475.005 606.935 471.786 617.69 469.153C626.557 466.981 635.668 466.226 644.744 465.475C653.136 464.78 661.522 464.084 669.92 463.389C675.803 462.902 681.755 463.429 687.604 462.54C691.929 461.883 695.767 461.46 698.956 458.471C701.43 456.152 702.753 451.744 702.931 448.51C703.07 445.993 703.39 443.178 702.777 440.734C702.272 438.724 701.254 435.82 701.32 433.758C701.443 429.973 703.086 427.568 703.213 423.642C703.359 419.134 702.98 414.705 703.126 410.186C703.235 406.797 703.865 403.473 703.972 400.153C704.082 396.751 707.812 394.359 707.924 390.916C708.106 385.268 706.783 382.149 702.862 377.966C699.977 374.888 696.095 372.903 693.21 369.826Z" fill="#0038FF"/>
    <path d="M686.365 363.603C688.611 363.926 691.712 368.228 693.21 369.826C696.095 372.903 699.977 374.888 702.862 377.966C706.783 382.149 708.106 385.268 707.924 390.916C707.812 394.359 704.082 396.751 703.972 400.153C703.865 403.473 703.235 406.797 703.126 410.186C702.98 414.705 703.359 419.134 703.213 423.642C703.086 427.568 701.443 429.973 701.32 433.758C701.254 435.82 702.272 438.724 702.777 440.734C703.39 443.178 703.07 445.993 702.931 448.51C702.753 451.744 701.43 456.152 698.956 458.471C695.767 461.46 691.929 461.883 687.604 462.54C681.755 463.429 675.803 462.902 669.92 463.389C661.522 464.084 653.136 464.78 644.744 465.475C635.668 466.226 626.557 466.981 617.69 469.153C606.935 471.786 596.305 475.005 585.4 476.952C569.575 479.778 553.242 479.662 537.255 481.021C530.072 481.632 521.53 479.49 514.751 481.193C510.95 482.147 505.755 480.788 501.961 480.403C496.03 479.801 490 479.843 484.086 479.071C480.97 478.664 476.79 478.128 473.954 476.772C470.701 475.217 466.944 474.296 463.857 472.532C462.119 471.538 459.886 471.434 457.999 470.777C456.707 470.327 457.512 470.505 458.004 469.704C460.121 466.263 460.787 464.348 460.927 459.999C461.243 450.231 461.116 440.144 460.434 430.409C459.763 420.826 460.425 410.938 460.732 401.454C460.833 398.311 465.109 392.879 467.669 396.721C468.265 397.614 468.714 398.217 469.037 399.258C469.702 401.399 470.2 397.022 470.409 396.287C470.992 394.237 470.948 392.175 471.016 390.044C471.199 384.394 470.34 378.679 470.521 373.067C470.927 360.509 481.409 355.015 491.124 349.204C496.066 346.249 501 343.73 506.842 343.711C513.761 343.687 520.606 343.112 527.614 343.338C534.864 343.572 541.766 346.781 547.979 350.143C550.319 351.409 553.027 351.621 555.438 352.587C557.726 353.504 558.437 354.901 557.868 351.883C556.135 342.692 584.244 345.352 589.097 346.398C592.862 347.209 596.726 347.662 600.513 348.419C603.261 348.969 608.228 349.753 610.433 351.871C612.077 353.45 615.401 354.371 616.638 356.363C617.646 357.986 614.582 353.138 613.458 351.592C612.16 349.807 611.608 347.696 611.798 345.537C611.942 343.898 619.285 343.713 620.438 343.728C626.833 343.814 633.224 343.28 639.657 343.857C644.219 344.265 648.199 346.009 652.445 347.372C657.828 349.1 662.31 354.089 667.407 356.322C670.564 357.704 681.72 359.978 686.365 363.603Z" stroke="#FFEED8" stroke-width="1.52351" stroke-linecap="round"/>
    <path d="M695.53 428.336C689.71 425.044 683.096 421.989 679.879 415.815C678 412.208 676.975 408.473 675.74 404.643C674.759 401.596 673.586 398.82 671.398 396.43C668.955 393.762 666.313 391.37 664.027 388.548C662.039 386.092 659.966 383.707 657.941 381.282C655.613 378.494 653.673 375.373 651.114 372.804C650.44 372.127 649.733 371.517 648.895 371.064C645.631 369.298 642.152 367.861 638.798 366.27C636.527 365.192 634.169 364.31 631.87 363.298C630.46 362.677 629.157 361.803 627.827 361.032C626.692 360.375 626.477 359.599 625.88 358.579C625.722 358.308 625.182 356.968 625.538 356.702C625.83 356.483 626.334 356.458 626.693 356.368C628.373 355.946 630.131 355.961 631.851 355.979C634.863 356.011 637.878 356.155 640.88 356.418C643.878 356.68 646.697 357.575 649.488 358.652C652.007 359.624 654.354 361.293 656.436 362.986C658.042 364.292 659.661 365.588 661.011 367.167C662.357 368.74 663.856 370.598 664.246 372.691C664.877 376.08 665.431 379.557 666.455 382.855C667.449 386.058 668.953 389.086 669.979 392.281C670.43 393.687 671.749 395.263 671.701 396.734" stroke="#FFEED8" stroke-width="1.37407" stroke-linecap="round"/>
    <path d="M647.07 407.787C642.622 404.025 637.345 401.302 632.504 398.1C628.829 395.669 625.4 393.179 622.255 390.086C619.796 387.667 617.759 384.916 615.56 382.27C611.604 377.508 606.904 373.718 601.684 370.426C597.057 367.508 592.096 365.301 587.147 363.002C583.716 361.409 580.514 359.408 577.082 357.813C575.697 357.169 574.241 356.568 572.949 355.749C572.425 355.417 571.736 354.941 571.629 354.268C571.384 352.728 572.668 352.272 573.952 351.812C578.551 350.165 583.727 350.546 588.51 350.877C592.541 351.155 596.48 352.011 600.25 353.467C604.562 355.133 608.632 357.719 612.361 360.429C616.83 363.678 621.38 367.406 624.856 371.724C626.693 374.007 628.031 376.449 629.128 379.161C630.223 381.872 631.367 384.53 632.245 387.322C633.19 390.326 634.025 393.22 635.602 395.969C637.103 398.586 638.604 401.421 641.001 403.334C642.057 404.177 643.339 404.871 644.55 405.462C645.173 405.766 645.778 406.146 646.425 406.385" stroke="#FFEED8" stroke-width="1.37407" stroke-linecap="round"/>
    <path d="M645.974 413.275C649.424 413.387 651.855 417.298 652.813 420.214C654.069 424.037 652.936 427.534 650.747 430.75C649.799 432.142 648.593 433.921 646.924 434.513C644.401 435.408 641.037 434.458 638.555 434C634.403 433.232 630.154 431.71 626.881 428.969C623.755 426.353 621.424 422.993 619.662 419.353C616.59 413.007 613.558 406.589 609.067 401.096C605.301 396.488 600.811 392.428 596.313 388.553C591.562 384.46 586.482 380.898 581.255 377.45C578.214 375.443 575.098 373.643 571.939 371.837C571.026 371.316 570.019 370.821 569.379 369.965C568.603 368.928 567.641 367.956 567.763 366.57C567.941 364.551 569.674 363.59 571.549 363.931C574.701 364.505 577.905 365.675 580.904 366.765C582.762 367.44 584.551 368.266 586.338 369.107C588.311 370.036 590.337 370.939 592.158 372.152C595.16 374.152 597.918 376.538 600.301 379.241C602.155 381.344 603.822 383.602 605.626 385.747C609.665 390.55 614.809 394.546 620.02 397.998C624.854 401.2 629.92 404.154 635.02 406.913C638.643 408.873 642.247 410.817 646.068 412.358C646.926 412.704 647.816 412.989 648.712 413.223C648.821 413.252 649.322 413.333 649.396 413.411C649.432 413.45 648.62 413.821 648.488 413.817" stroke="#FFEED8" stroke-width="1.37407" stroke-linecap="round"/>
    <path d="M610.653 459.649C608.721 458.604 607.106 457.305 605.695 455.615C604.275 453.914 603.079 452.006 601.897 450.137C600.577 448.05 599.246 445.959 598.05 443.8C596.66 441.291 595.337 438.719 594.208 436.083C593.025 433.319 592.239 430.452 591.416 427.568C589.925 422.351 587.478 417.471 585.604 412.386C584.339 408.954 582.779 405.677 581.094 402.436C579.732 399.816 579.015 396.945 577.675 394.323C576.539 392.102 575.128 389.972 573.188 388.388C570.232 385.973 566.694 384.721 563.182 383.341C558.953 381.679 554.613 380.222 550.533 378.203C547.293 376.599 544.138 374.858 540.881 373.282C536.959 371.385 532.891 369.848 528.585 369.108C526.029 368.668 523.264 368.264 520.8 369.316C518.496 370.3 517.081 372.657 516.197 374.894C515.194 377.429 514.918 379.828 515.253 382.54C515.636 385.641 516.53 388.564 517.901 391.369C518.699 393.001 519.561 394.658 520.826 395.982C522.817 398.067 525.666 399.018 528.345 399.875C533.283 401.453 538.496 401.814 543.461 403.227C547.036 404.244 549.868 406.618 552.885 408.657C554.921 410.033 556.999 411.326 558.937 412.841C560.848 414.335 562.661 415.943 564.553 417.458C568.283 420.444 572.292 423.043 576.562 425.184C582.726 428.274 588.226 432.111 591.881 438.078C592.896 439.735 593.911 441.404 595.23 442.839C596.384 444.096 597.562 445.283 598.761 446.494C599.994 447.74 600.991 449.252 602.079 450.622C603.126 451.94 604.161 453.278 605.23 454.578C606.082 455.612 606.879 456.776 607.892 457.661C608.246 457.971 608.679 458.454 609.134 458.571C609.546 458.676 610.543 459.273 609.648 458.696" stroke="#FFEED8" stroke-width="1.37407" stroke-linecap="round"/>
    <path d="M572.136 447.044C571.6 446.843 571.15 446.524 570.682 446.227C568.647 444.933 566.577 443.678 564.514 442.415C556.274 437.368 547.743 432.587 539.825 427.211C536.861 425.199 533.812 423.246 530.935 421.159C527.699 418.811 524.68 416.292 521.538 413.873C518.882 411.829 516.12 409.869 513.399 407.877C510.668 405.878 508.037 403.784 505.218 401.859C501.567 399.365 497.035 396.639 492.604 395.346C490.059 394.604 487.572 394.637 486.116 396.006C485.456 396.625 485.465 397.688 485.557 398.552C485.777 400.614 486.826 403.105 488.198 405.101C492.165 410.875 498.905 415.473 506.008 419.052C509.484 420.803 513.138 422.232 516.703 423.822C519.825 425.216 522.878 426.727 525.979 428.157C533.097 431.439 540.411 434.189 547.656 437.198C553.251 439.522 558.713 442.016 564.391 444.143C567.162 445.181 570.002 446.368 572.721 447.386" stroke="#FFEED8" stroke-width="1.37407" stroke-linecap="round"/>
    <path d="M566.187 463.148C565.853 463.137 565.547 462.986 565.234 462.861C563.874 462.32 562.5 461.826 561.13 461.322C555.656 459.309 550.065 457.643 544.712 455.212C542.709 454.302 540.668 453.477 538.7 452.468C536.487 451.332 534.364 449.963 532.19 448.729C530.353 447.687 528.471 446.759 526.606 445.788C524.735 444.813 522.903 443.715 520.995 442.839C518.525 441.704 515.523 440.643 512.826 440.9C511.278 441.048 509.897 441.908 509.323 443.682C509.064 444.486 509.254 445.485 509.456 446.269C509.938 448.139 510.958 450.138 512.071 451.562C515.289 455.683 519.85 457.774 524.434 458.782C526.677 459.275 528.964 459.405 531.229 459.717C533.213 459.99 535.179 460.399 537.157 460.714C541.698 461.437 546.256 461.594 550.82 462.018C554.346 462.346 557.826 462.877 561.363 462.992C563.089 463.048 564.879 463.22 566.573 463.275" stroke="#FFEED8" stroke-width="1.37407" stroke-linecap="round"/>
    <path d="M733.158 41.74C736.031 34.3245 741.708 28.2626 747.446 22.9075C751.022 19.5696 756.521 14.3458 760.615 12.4067C763.406 10.7906 766.525 9.18078 769.807 8.68838C775.673 7.80847 781.723 8.13751 787.642 8.13751L788.006 8.13748C792.907 8.13681 797.551 8.13618 802.377 9.22201C816.074 12.3039 829.235 18.1879 835.928 31.2392C839.004 37.2376 841.531 43.4992 842.745 50.1751C844.229 58.3391 846.058 66.6998 845.447 75.0671C844.846 83.3133 842.772 90.355 839.009 97.6868C837.073 101.461 834.607 104.883 832.571 108.601C830.142 113.037 828.368 117.847 825.169 121.821C820.776 127.279 815.838 129.289 809.091 130.222C804.378 130.873 799.486 130.532 794.734 130.532C788.455 130.532 781.959 130.3 776.005 128.208C772.407 126.944 768.885 124.844 765.452 123.181C758.949 120.031 752.3 116.98 746.069 113.317C737.396 108.22 727.131 100.01 725.446 89.3378C724.467 83.1397 724.782 76.3505 725.807 70.1954C727.416 60.5452 729.619 50.8737 733.158 41.74Z" fill="#FFEED8" stroke="#0033E6" stroke-width="4" stroke-linecap="round"/>
    <path d="M760.926 13.6169C761.211 16.7544 762.412 20.6874 763.686 23.5541C765.488 27.6075 764.652 22.4064 764.652 23.5541" stroke="#0033E6" stroke-width="4" stroke-linecap="round"/>
    <path d="M818.064 17.3435C814.833 17.7474 808.878 29.7649 809.369 29.7649" stroke="#0033E6" stroke-width="4" stroke-linecap="round"/>
    <path d="M842.908 50.8813C838.267 50.8813 833.82 52.1235 829.244 52.1235" stroke="#0033E6" stroke-width="4" stroke-linecap="round"/>
    <path d="M836.697 96.8403C831.76 96.8403 826.897 95.5981 821.792 95.5981" stroke="#0033E6" stroke-width="4" stroke-linecap="round"/>
    <path d="M758.441 117.957C758.441 114.639 759.552 112.01 760.926 109.262" stroke="#0033E6" stroke-width="4" stroke-linecap="round"/>
    <path d="M583.896 470.76C637.661 472.425 691.191 469.018 744.946 473.301C747.94 473.88 747.311 474.597 750.85 474.706C754.563 474.821 758.103 473.708 761.632 473.818C774.381 474.212 783.823 463.045 797.06 466.63C800.168 467.472 807.888 469.274 809.863 472.255C813.203 477.299 813.852 474.381 810.156 478.307C805.932 482.793 799.168 486.702 794.171 490.102C788.666 493.847 785.25 498.438 780.314 502.982C773.24 509.494 765.919 515.68 758.005 521.099C747.844 528.058 739.078 537.106 728.027 542.443C701.769 555.122 672.156 559.378 644.203 564.292C626.448 567.412 607.73 567.297 589.795 567.428C571.277 567.565 552.877 567.576 534.357 567.003C512.789 566.335 490.969 565.65 469.627 562.011C452.929 559.165 435.721 559.39 418.965 556.709C405.577 554.566 392.9 552.846 379.387 552.428C367.211 552.051 353.391 559.001 341.299 554.305C336.399 552.402 336.864 547.085 335.356 542.51C334.73 540.61 343.821 537.691 345.268 536.706C354.75 530.256 364.336 524.853 370.835 514.275C372.786 511.099 377.551 506.729 380.277 504.247C385.784 499.233 392.065 494.849 398.843 492.532C407.255 489.657 415.644 487.336 423.973 484.211C444.651 476.452 466.788 477.477 488.016 474.515C519.07 470.181 552.614 469.792 583.896 470.76Z" fill="#FFEED8" stroke="#0038FF" stroke-width="4.5" stroke-linecap="round"/>
    <path d="M632.824 519.576C644.702 511.836 654.156 501.727 662.495 492.244C659.881 490.678 640.599 501.762 636.593 503.956C622.056 511.919 606.289 518.402 591.727 526.283C590.903 526.729 573.958 536.223 581.566 536.106C591.353 535.956 603.313 531.433 612.989 528.244C620.05 525.917 626.837 523.478 632.824 519.576Z" fill="#FFEED8"/>
    <path d="M666.199 488.004C656.954 498.622 646.495 510.668 632.824 519.576C626.837 523.478 620.05 525.917 612.989 528.244C603.313 531.433 591.353 535.956 581.566 536.106C573.958 536.223 590.903 526.729 591.727 526.283C606.289 518.402 622.056 511.919 636.593 503.956C640.603 501.76 659.92 490.656 662.503 492.249" stroke="#0038FF" stroke-width="4.5" stroke-linecap="round"/>
    <path d="M681.314 504.982C668.966 513.509 659.081 526.726 650.354 539.308C653.024 542.757 673.05 531.329 677.209 529.131C692.3 521.155 708.638 516.013 723.754 508.179C724.609 507.736 742.203 498.094 734.363 495.67C724.278 492.551 711.89 495.809 701.875 497.679C694.567 499.043 687.539 500.683 681.314 504.982Z" fill="#FFEED8"/>
    <path d="M646.477 544.943C656.154 530.823 667.102 514.796 681.314 504.982C687.539 500.683 694.567 499.043 701.875 497.679C711.89 495.809 724.278 492.551 734.363 495.67C742.203 498.094 724.609 507.736 723.754 508.179C708.638 516.013 692.3 521.155 677.209 529.131C673.046 531.332 652.984 542.78 650.346 539.298" stroke="#0038FF" stroke-width="4.5" stroke-linecap="round"/>
    <path d="M578.562 505.007C578.126 508.621 569.153 513.443 566.433 515.302C558.3 520.861 549.977 525.936 541.067 530.148C533.45 533.749 525.865 535.334 517.468 535.544C513.414 535.645 504.716 535.75 503.393 530.723C501.698 524.279 508.198 518.371 513.352 515.78C521.762 511.553 532.066 511.227 541.267 510.317C552.416 509.214 563.393 506.508 574.549 505.404" stroke="#0038FF" stroke-width="4.5" stroke-linecap="round"/>
    <path d="M480.091 509.077C480.018 511.926 465.849 515.348 463.311 516.5C454.61 520.448 447.287 526.453 438.837 530.808C435.417 532.57 421.409 536.287 419.118 530.822C417.158 526.149 421.389 521.738 425.144 519.826C440.805 511.847 460.26 516.545 476.078 509.474" stroke="#0038FF" stroke-width="4.5" stroke-linecap="round"/>
    <path d="M366.252 643.151C374.112 642.546 434.055 626.898 440.736 624.537C453.606 619.987 465.806 602.417 475.996 591.783C479.548 588.077 482.449 583.394 485.813 579.421C487.098 577.904 491.564 572.397 493.43 571.843C497.508 570.632 504.032 579.929 504.148 586.066C504.206 589.155 502.005 591.304 500.47 593.058C500.194 593.374 495.252 598.468 496.962 598.928C501.095 600.039 506.44 596.626 509.752 594.588C515.629 590.973 520.789 585.925 526.272 581.544C531.834 577.099 537.515 572.849 543.176 568.593C547.551 565.304 552.343 561.582 557.842 561.737C562.309 561.863 568.82 565.072 565.056 571.268C564.704 571.847 546.388 588.239 547.214 588.965C548.453 590.054 562.728 582.54 565.905 580.122C569.081 577.704 570.766 574.94 574.016 574.938C576.244 574.936 579.508 577.454 579.627 581.178C579.781 585.97 574.962 588.218 572.575 590.719C572.154 591.16 551.377 605.768 553.63 605.799C554.876 605.815 579.917 596.337 582.431 595.321C584.946 594.304 594.074 589.263 594.516 594.531C595.039 600.77 589.844 606.367 586.228 608.872C582.612 611.376 558.273 617.848 557.8 619.918C557.461 621.398 582.657 618.519 586.174 617.822C589.692 617.125 594.757 615.092 596.556 619.043C598.841 624.059 590.208 628.015 588.327 628.878C575.392 634.807 560.969 637.21 547.325 640.342C533.3 643.562 519.242 646.922 505.05 649.336C491.168 651.697 477.187 653.29 463.332 655.871C451.549 658.066 386.648 681.29 383.785 681.845" stroke="#0033E6" stroke-width="5.80414" stroke-linecap="round"/>
  </g>
  <defs>
    <clipPath id="clip0_1800_2">
      <rect width="873" height="691" fill="white"/>
    </clipPath>
  </defs>
</svg>