<svg width="180" height="180" viewbox="0 0 180 180" fill="none" xmlns="http://www.w3.org/2000/svg">
  <rect width="180" height="180" rx="90" fill="#FFEED8"/>
  <path d="M114.226 44.6938C113.285 48.7889 112.793 52.9587 115.063 56.7428C117.419 60.6683 120.914 63.2527 124.1 66.439C125.733 68.0715 127.148 70.0891 128.503 71.9644C129.607 73.4935 131.221 75.4506 131.871 77.2403C132.779 79.7363 133.796 81.8609 133.796 84.6372C133.796 90.3664 130.547 94.7192 124.332 93.763C122.322 93.4539 119.129 93.2457 117.505 91.7846C116.134 90.5507 113.935 89.4647 112.301 88.6476" stroke="#0038FF" stroke-width="6.96506" stroke-linecap="round"/>
  <path d="M129.946 93.1394C129.946 95.9976 131.065 98.6923 131.229 101.481C131.316 102.966 131.985 105.002 132.441 106.543C133.405 109.795 133.475 113.709 133.475 117.095C133.475 120.552 133.781 124.313 132.12 127.468C129.683 132.099 124.546 133.831 120.962 137.414C117.2 141.177 112.308 141.906 107.167 141.906C102.892 141.906 98.848 140.528 94.6543 140.301C92.7619 140.199 90.6914 139.445 88.8794 138.947C87.0714 138.45 84.7827 137.888 83.1044 137.093C80.1131 135.676 77.0918 134.352 74.1212 132.851C72.206 131.883 70.0196 131.063 69.5583 128.859C68.6737 124.632 67.3755 119.814 65.5301 115.918C63.1694 110.935 62.366 105.393 60.9671 100.126C58.5839 91.1542 57.1172 81.8447 57.1172 72.5707C57.1172 66.3525 58.6461 59.0128 64.425 55.6023C68.1845 53.3836 72.0328 52.7148 76.367 52.7148" stroke="#0038FF" stroke-width="6.96506" stroke-linecap="round"/>
  <path d="M76.6895 71.9645C77.2802 70.258 77.9841 67.1407 79.2561 65.8688C80.6836 64.4413 82.321 65.5366 83.7477 64.5854" stroke="#0038FF" stroke-width="6.96506" stroke-linecap="round"/>
  <path d="M93.0508 60.4146C94.8272 59.2531 100.155 55.0979 102.355 56.5646" stroke="#0038FF" stroke-width="6.96506" stroke-linecap="round"/>
  <path d="M107.486 109.501C107.783 110.985 111.195 112.068 112.459 112.068C113.587 112.068 116.956 111.747 115.828 111.747" stroke="#0038FF" stroke-width="6.96506" stroke-linecap="round"/>
  <path d="M76.0458 49.8272C76.1463 48.9223 76.8169 48.1931 76.6161 47.1892C76.3704 45.9607 75.1294 44.8756 74.3703 43.9809C72.5402 41.8241 70.4365 39.8653 69.0588 37.3683C66.1804 32.1512 71.7556 27.457 76.3131 25.658C79.2655 24.4926 82.8673 22.2358 86.1341 22.2358C87.2138 22.2358 86.2234 26.827 87.1679 25.6936C89.9517 22.353 93.7235 21.9149 97.8622 21.9149C99.5469 21.9149 105.228 21.0965 106.132 23.4478C106.655 24.8058 107.603 28.4444 106.774 29.9357C104.923 33.2677 102.822 23.9202 102.425 22.8774C101.613 20.7451 104.994 19.9089 106.329 20.0078C109.132 20.2155 110.57 22.728 112.62 24.339C115.626 26.7009 116.02 32.9167 113.405 35.5324C111.21 37.7268 107.902 36.6423 105.17 36.2097C101.548 35.6361 97.4518 35.1262 94.1727 33.3044C92.7488 32.5134 91.5609 32.1735 90.6257 33.6431C88.9718 36.242 87.7974 39.4329 84.3873 40.0419C80.054 40.8157 75.4911 40.8439 71.0907 40.8439C68.2395 40.8439 65.5664 40.2023 62.7313 40.2023C62.2371 40.2023 61.8037 40.0037 61.9114 40.3805C62.0367 40.8191 61.9103 41.4456 61.8579 41.8777C61.6707 43.4224 61.8604 45.1104 61.5371 46.6189C61.2326 48.0398 59.3537 47.8323 58.2575 47.92C56.5537 48.0563 54.8685 48.6086 53.1955 48.936C50.1038 49.5409 47.0336 49.8272 43.8914 49.8272C43.4409 49.8272 41.6797 49.5715 41.4317 50.0054C41.1728 50.4586 42.0897 51.7742 42.3586 52.073C44.6613 54.6316 44.4092 63.0068 40.2732 63.9259C38.4538 64.3302 37.5973 62.2967 38.6869 60.8958C40.1242 59.0478 44.484 62.5581 45.7273 63.605C48.0609 65.5702 47.3493 70.876 47.3493 73.7468C47.3493 77.093 46.7308 79.7249 45.2461 82.6944C43.8173 85.5519 41.7441 89.9576 44.8896 92.5689C48.9333 95.9259 54.7734 96.5139 56.6177 101.944C57.1339 103.464 58.0423 104.814 58.5605 106.311C59.0899 107.841 59.368 109.447 59.826 110.999C60.7624 114.172 62.4769 117.026 62.5709 120.41C62.6344 122.695 62.5751 125.662 61.6797 127.789C61.3557 128.558 61.8221 132.387 60.9667 129.393" stroke="#0038FF" stroke-width="6.96506" stroke-linecap="round"/>
  <path d="M69.6289 128.431C69.6289 133.994 70.8681 139.215 72.0173 144.633C72.8969 148.779 73.158 153.185 73.158 157.412C73.158 158.656 72.5521 160.492 74.1205 159.551" stroke="#0038FF" stroke-width="6.96506" stroke-linecap="round"/>
  <path d="M104.278 143.51C104.278 145.861 103.677 148.218 103.636 150.568C103.607 152.263 103.362 154.209 103.797 155.862C103.908 156.286 103.957 157.333 103.957 156.343" stroke="#0038FF" stroke-width="6.96506" stroke-linecap="round"/>
</svg>