<svg width="1200" height="630" viewbox="0 0 1200 630" fill="none" xmlns="http://www.w3.org/2000/svg">
  <rect x="2.95312" y="2.95312" width="1194.09" height="624.094" fill="#FFEED8"/>
  <rect x="2.95312" y="2.95312" width="1194.09" height="624.094" stroke="#0033E6" stroke-width="5.90625"/>
  <path d="M303.342 402.667C301.93 408.809 301.193 415.064 304.598 420.74C309.8 429.409 318.798 435.322 324.756 443.572C328.771 449.131 332.696 455.434 332.696 462.58C332.696 471.174 327.822 477.702 318.5 476.268C311.174 475.141 306.904 471.821 300.454 468.595" stroke="#0033E6" stroke-width="5.15017" stroke-linecap="round"/>
  <path d="M328.159 478.562C328.159 490.577 333.453 502.427 333.453 514.494C333.453 534.229 313.208 551.71 293.991 551.71C284.99 551.71 275.241 549.659 266.56 547.272C263.848 546.526 260.415 545.684 257.898 544.491C253.411 542.366 248.879 540.38 244.423 538.128C241.551 536.676 238.271 535.446 237.579 532.14C236.252 525.8 234.305 518.573 231.537 512.73C227.996 505.254 226.791 496.941 224.693 489.042C221.118 475.584 218.918 461.62 218.918 447.709C218.918 438.382 221.211 427.372 229.879 422.257C235.518 418.928 241.291 417.925 247.792 417.925" stroke="#0033E6" stroke-width="5.15017" stroke-linecap="round"/>
  <path d="M248.296 446.801C249.182 444.242 250.238 439.567 252.145 437.659C254.286 435.518 256.379 435.735 258.882 435.735" stroke="#0033E6" stroke-width="5.15017" stroke-linecap="round"/>
  <path d="M272.835 429.477C275.499 427.735 283.488 421.503 286.788 423.703" stroke="#0033E6" stroke-width="5.15017" stroke-linecap="round"/>
  <path d="M294.467 503.105C294.912 505.329 300.029 506.954 301.925 506.954C303.617 506.954 308.669 506.473 306.977 506.473" stroke="#0033E6" stroke-width="5.15017" stroke-linecap="round"/>
  <path d="M247.321 413.597C247.471 412.24 248.477 411.146 248.176 409.64C247.807 407.798 245.946 406.17 244.807 404.828C242.062 401.593 238.907 398.655 236.84 394.909C232.523 387.084 240.885 380.042 247.722 377.344C252.15 375.596 257.553 372.211 262.453 372.211C264.072 372.211 262.587 379.097 264.003 377.397C268.179 372.386 270.09 364.7 276.298 364.7C283.563 364.7 295.342 371.545 291.006 379.348C288.23 384.346 281.777 376.93 281.181 375.365C279.962 372.167 290.448 362.924 292.45 363.073C296.656 363.384 299.106 372.949 302.182 375.365C306.691 378.908 307.282 388.232 303.358 392.155C300.067 395.447 295.104 393.82 291.006 393.171C285.574 392.311 279.429 391.546 274.511 388.813C272.375 387.627 270.593 387.117 269.19 389.321C266.709 393.22 264.948 398.006 259.833 398.919C253.333 400.08 246.489 400.122 239.888 400.122C235.611 400.122 231.602 399.16 227.349 399.16C226.608 399.16 225.958 398.862 226.119 399.427C226.307 400.085 226.118 401.025 226.039 401.673C225.758 403.99 226.043 406.522 225.558 408.785C225.101 410.916 222.283 410.605 220.638 410.737C218.083 410.941 215.555 411.769 213.046 412.26C208.408 413.168 203.803 413.597 199.09 413.597C198.414 413.597 195.772 413.214 195.4 413.865C195.012 414.544 196.387 416.518 196.79 416.966C200.244 420.804 199.866 433.366 193.662 434.745C190.933 435.351 189.648 432.301 191.283 430.2C193.439 427.428 199.978 432.693 201.843 434.264C205.344 437.211 204.276 445.17 204.276 449.476C204.276 454.495 203.349 458.443 201.122 462.898C198.978 467.184 195.869 473.792 200.587 477.709C206.652 482.745 211.264 483.468 216.07 490.862C217.993 493.82 218.979 496.077 219.756 498.322C221.982 504.753 225.586 512.772 225.772 519.47C225.867 522.898 227.115 527.349 225.772 530.538C225.286 531.693 222.376 537.499 221.093 533.009" stroke="#0033E6" stroke-width="5.15017" stroke-linecap="round"/>
  <path d="M237.893 533.011C240.112 540.775 239.711 548.56 241.396 556.372C242.686 562.351 243.069 568.703 243.069 574.798C243.069 576.591 243.069 577.462 243.069 579.594" stroke="#0033E6" stroke-width="5.15017" stroke-linecap="round"/>
  <path d="M289.668 554.119C289.668 557.645 288.767 561.18 288.706 564.704C288.662 567.246 288.294 570.165 288.947 572.643C289.114 573.28 289.668 575.897 289.668 574.412" stroke="#0033E6" stroke-width="5.15017" stroke-linecap="round"/>
  <path d="M242.021 581.431C234.573 576.014 215.109 579.991 206.108 579.991C197.148 579.991 185.323 583.734 177.073 587.27C163.41 593.126 147.945 609.61 141.5 622.5" stroke="#0033E6" stroke-width="4.38886" stroke-linecap="round"/>
  <path d="M97.4766 180.272C90.8892 182.009 84.8877 178.513 83.1909 172.078C81.0497 163.959 86.6255 155.279 94.2854 153.259C100.873 151.522 107.028 154.978 108.684 161.259C110.906 169.685 105.443 178.171 97.4766 180.272ZM83.6738 263.38L83.8586 200.085C83.8874 193.359 88.4413 188.881 93.3436 187.588C98.8586 186.134 105.037 188.437 106.936 195.637C107.299 197.016 107.591 198.742 107.575 200.548L107.463 263.496C107.466 269.722 103.251 273.619 98.6547 274.831C92.8333 276.366 85.9614 273.918 84.1838 267.178C83.8606 265.952 83.6906 264.686 83.6738 263.38ZM151.396 173.918L155.839 172.746C160.894 171.413 166.275 174.418 167.648 179.627C169.022 184.835 165.823 190.103 160.768 191.436L151.27 193.941L151.171 251.97C151.174 258.196 147.224 261.859 142.628 263.071C136.807 264.606 129.742 262.045 127.964 255.305C127.681 254.232 127.552 253.119 127.535 251.813L127.677 200.163C122.735 201.302 117.507 198.257 116.174 193.201C114.801 187.992 117.999 182.725 123.055 181.392L127.651 180.18L127.771 162.616C127.808 156.544 131.983 152.493 136.732 151.241C142.4 149.746 149.079 152.081 150.856 158.822C151.179 160.048 151.349 161.314 151.366 162.62L151.396 173.918ZM177.394 161.819L182.085 141.083C183.396 135.494 187.088 132.718 190.765 131.749C196.28 130.294 202.386 132.944 203.921 138.766C204.486 140.91 204.48 143.37 203.328 146.459L195.565 167.349C194.301 170.632 191.907 172.738 189.149 173.465C184.4 174.717 178.722 172.446 177.348 167.238C176.944 165.706 176.96 163.899 177.394 161.819ZM242.496 237.226C225.798 241.629 215.626 236.611 209.872 228.461C208.815 226.937 208.065 225.333 207.701 223.954C206.004 217.52 210.469 212.082 216.137 210.588C220.427 209.456 225.282 210.47 228.76 214.96C230.987 217.813 234.238 219.578 238.987 218.325C243.889 217.033 246.072 213.507 245.345 210.75C242.881 201.405 212.627 206.598 206.971 185.15C203.375 171.516 212.093 156.109 231.549 150.978C245.643 147.261 256.83 150.537 263.075 158.066C264.285 159.549 265.036 161.154 265.44 162.686C266.935 168.354 263.124 173.783 257.762 175.197C254.085 176.167 249.617 175.379 245.454 171.397C243.041 169.084 238.727 168.256 235.203 169.185C231.373 170.195 229.069 173.26 229.917 176.477C232.745 187.201 263.054 180.355 268.751 201.956C272.346 215.59 264.25 231.489 242.496 237.226ZM362.613 116.742C368.281 115.248 374.266 117.438 376.165 124.638C376.528 126.017 376.819 127.742 376.804 129.549L376.692 192.497C376.695 198.723 372.479 202.62 367.884 203.832C362.062 205.367 355.19 202.919 353.372 196.025C353.211 195.412 353.009 194.646 352.96 193.84C349.892 203.333 343.759 210.521 334.108 213.067C318.022 217.309 308.29 204.637 304.129 188.858C302.998 184.568 302.326 180.157 301.961 175.666C300.441 153.128 308.913 130.576 329.748 125.082C339.399 122.536 347.837 127.193 353.091 135.311L353.087 129.085C353.116 122.36 357.71 118.035 362.613 116.742ZM340.788 188.693C348.908 186.552 353.418 175.696 352.582 164.447C352.395 161.874 352.055 159.342 351.449 157.044C349.348 149.078 344.668 143.758 337.927 145.536C329.808 147.677 325.411 158.34 326.021 169.976C326.208 172.549 326.508 174.927 327.073 177.072C329.215 185.192 334.201 190.431 340.788 188.693Z" fill="#0033E6"/>
  <path d="M943.271 114.224C949.244 115.806 953.508 121.362 951.723 128.1C951.398 129.326 950.727 130.623 950.055 131.92L899.982 219.452C896.634 225.284 890.89 226.549 886.449 225.372C880.629 223.83 876.058 218.194 877.925 211.149C878.087 210.536 878.25 209.923 878.606 209.198C871.289 215.782 862.445 218.848 852.95 216.332C836.869 212.071 834.67 196.246 838.85 180.471C839.986 176.183 841.582 172.017 843.484 167.931C853.3 147.586 871.809 132.167 892.637 137.685C902.286 140.242 907.167 148.419 907.917 157.96L929.584 120.104C932.617 114.843 938.064 112.844 943.271 114.224ZM870.802 198.444C878.919 200.594 888.205 193.385 893.036 183.192C894.145 180.863 895.1 178.494 895.709 176.197C897.819 168.233 896.379 161.295 889.641 159.51C881.524 157.359 872.432 164.456 867.213 174.874C866.104 177.203 865.189 179.419 864.621 181.563C862.47 189.68 864.216 196.699 870.802 198.444ZM1009.98 169.105C1015.65 170.607 1019.77 175.468 1017.86 182.666C1017.5 184.045 1016.9 185.689 1015.99 187.252L984.786 241.922C981.713 247.336 976.122 248.641 971.528 247.423C965.708 245.881 960.944 240.358 962.77 233.466C962.932 232.853 963.135 232.087 963.491 231.362C956.133 238.1 947.249 241.318 937.601 238.762C921.52 234.501 919.321 218.675 923.501 202.901C924.637 198.613 926.233 194.446 928.135 190.361C937.951 170.016 956.46 154.596 977.288 160.115C986.937 162.672 991.971 170.889 992.527 180.543L995.6 175.129C998.949 169.296 1005.08 167.807 1009.98 169.105ZM955.453 220.873C963.57 223.024 972.855 215.814 977.687 205.622C978.796 203.293 979.751 200.924 980.36 198.626C982.47 190.663 981.03 183.725 974.292 181.94C966.175 179.789 957.083 186.886 951.864 197.304C950.755 199.633 949.84 201.849 949.272 203.993C947.121 212.11 948.867 219.129 955.453 220.873ZM1075.15 193.913C1079.01 189.856 1083.83 189.001 1087.97 190.096C1093.78 191.639 1098.4 197.122 1096.85 202.942C1096.37 204.779 1095.38 206.648 1093.63 208.315L1012.74 290.303C1009.42 293.523 1005.61 294.315 1002.09 293.381C996.419 291.88 991.929 285.937 993.552 279.811C994.039 277.973 995.026 276.104 996.819 274.285L1013 257.757L1027.55 187.365C1029.24 179.127 1036.27 176.727 1042.4 178.351C1048.07 179.852 1052.8 184.876 1051.16 192.308C1049.31 200.506 1047.68 207.286 1046.18 212.952C1043.22 224.132 1040.85 231.208 1038.46 237.131C1045.21 227.119 1056.94 213.18 1075.15 193.913Z" fill="#0033E6"/>
  <path d="M436.248 311.337C435.854 311.42 435.501 311.503 435.19 311.586C434.879 311.669 434.578 311.731 434.287 311.773C433.624 311.773 433.115 311.648 432.763 311.399C432.41 311.129 432.223 310.631 432.202 309.905C432.202 308.764 432.223 307.633 432.265 306.513C432.327 305.372 432.379 304.231 432.42 303.09C432.503 299.708 432.576 296.357 432.638 293.037C432.7 289.697 432.752 286.335 432.794 282.954C432.814 282.725 432.804 282.497 432.763 282.269C432.742 282.041 432.711 281.761 432.669 281.429C431.756 281.491 430.874 281.553 430.024 281.615C429.173 281.678 428.322 281.729 427.472 281.771C426.559 279.696 427.14 278.628 429.215 278.565C429.464 278.565 429.713 278.565 429.962 278.565C430.231 278.545 430.491 278.524 430.74 278.503C430.989 278.503 431.238 278.503 431.487 278.503C431.735 278.482 432.026 278.462 432.358 278.441C432.399 277.549 432.431 276.667 432.451 275.796C432.493 274.903 432.534 274.022 432.576 273.15C432.597 272.818 432.597 272.497 432.576 272.185C432.555 271.874 432.555 271.553 432.576 271.221C432.638 269.789 433.001 268.596 433.665 267.642C434.35 266.666 435.377 265.868 436.746 265.245C437.804 264.747 438.862 264.394 439.921 264.187C440.999 263.98 442.089 263.876 443.188 263.876C443.686 263.876 444.184 263.897 444.682 263.938C445.18 263.98 445.689 264.031 446.207 264.094C446.622 264.135 446.933 264.26 447.141 264.467C447.369 264.675 447.462 264.996 447.421 265.432C447.379 265.764 447.338 266.085 447.296 266.397C447.255 266.708 447.193 267.019 447.11 267.33C446.944 267.87 446.716 268.233 446.425 268.42C446.135 268.586 445.72 268.669 445.18 268.669H444.589H443.686C443.52 268.669 443.365 268.669 443.22 268.669C443.074 268.669 442.919 268.658 442.753 268.637C442.67 268.637 442.587 268.637 442.504 268.637C442.441 268.617 442.369 268.606 442.286 268.606C441.228 268.606 440.346 268.886 439.64 269.447C438.935 270.007 438.281 270.671 437.68 271.438C437.369 271.853 437.12 272.299 436.933 272.777C436.767 273.233 436.705 273.731 436.746 274.271C436.788 274.934 436.798 275.609 436.777 276.293C436.777 276.978 436.777 277.704 436.777 278.472C438.126 278.513 439.464 278.565 440.792 278.628C442.12 278.69 443.448 278.742 444.776 278.783C444.942 279.966 444.848 280.806 444.496 281.304C444.143 281.781 443.468 282.01 442.473 281.989H440.325H436.777C436.632 284.396 436.476 286.813 436.31 289.24C436.165 291.647 436.051 294.075 435.968 296.523C435.906 298.971 435.885 301.43 435.906 303.899C435.927 306.347 436.041 308.826 436.248 311.337Z" fill="#0033E6"/>
  <path d="M477.872 312.457C477.644 312.478 477.405 312.488 477.156 312.488C476.928 312.509 476.7 312.519 476.471 312.519C475.04 312.519 473.681 312.312 472.394 311.897C471.129 311.503 469.967 310.797 468.909 309.781C468.245 309.117 467.633 308.411 467.073 307.664C466.533 306.918 465.983 306.171 465.423 305.424C464.738 304.49 464.23 303.525 463.898 302.529C463.566 301.513 463.359 300.496 463.276 299.479C463.193 298.442 463.203 297.405 463.307 296.367C463.411 295.309 463.545 294.251 463.711 293.193C463.94 291.803 464.272 290.454 464.707 289.147C465.164 287.819 465.672 286.501 466.232 285.194C466.647 284.219 467.156 283.369 467.757 282.642C468.359 281.895 469.012 281.231 469.718 280.651C470.444 280.07 471.222 279.551 472.052 279.094C472.882 278.638 473.743 278.213 474.635 277.818C474.76 277.756 474.895 277.725 475.04 277.725C475.745 277.684 476.451 277.632 477.156 277.569C477.861 277.507 478.567 277.476 479.272 277.476C481.368 277.476 483.204 277.912 484.781 278.783C486.358 279.634 487.831 280.837 489.2 282.393C491.42 284.925 492.665 287.86 492.935 291.201C493.039 292.467 493.163 293.711 493.308 294.936C493.474 296.16 493.505 297.425 493.402 298.732C493.277 300.413 492.842 302.062 492.095 303.681C491.348 305.299 490.466 306.772 489.449 308.1C488.889 308.868 488.225 309.532 487.457 310.092C486.711 310.631 485.901 311.077 485.03 311.43C484.179 311.783 483.287 312.042 482.353 312.208C481.441 312.395 480.517 312.488 479.584 312.488C479.293 312.488 479.003 312.478 478.712 312.457C478.422 312.457 478.142 312.457 477.872 312.457ZM467.913 295.9C467.768 296.896 467.778 297.861 467.944 298.795C468.11 299.708 468.39 300.6 468.784 301.471C469.199 302.322 469.697 303.152 470.278 303.961C470.859 304.77 471.492 305.548 472.177 306.295C472.861 307.084 473.639 307.706 474.511 308.162C475.403 308.619 476.347 308.847 477.343 308.847C478.131 308.847 478.94 308.691 479.77 308.38C480.766 308.007 481.731 307.581 482.665 307.104C483.619 306.627 484.584 306.181 485.559 305.766C486.327 305.413 486.939 304.967 487.395 304.428C487.852 303.868 488.215 303.204 488.484 302.436C488.941 301.191 489.252 299.946 489.418 298.701C489.584 297.456 489.646 296.212 489.605 294.967C489.584 293.722 489.47 292.477 489.263 291.232C489.055 289.987 488.796 288.742 488.484 287.497C488.381 286.979 488.194 286.553 487.924 286.221C487.26 285.495 486.617 284.831 485.995 284.23C485.393 283.607 484.75 283.078 484.065 282.642C483.401 282.207 482.665 281.864 481.855 281.615C481.067 281.366 480.165 281.242 479.148 281.242C478.463 281.242 477.778 281.283 477.094 281.366C476.43 281.449 475.756 281.522 475.071 281.584C474.013 281.667 473.141 281.958 472.457 282.456C471.793 282.933 471.253 283.586 470.838 284.416C469.967 286.138 469.241 287.933 468.66 289.8C468.079 291.647 467.83 293.68 467.913 295.9Z" fill="#0033E6"/>
  <path d="M516.785 308.269C516.951 307.875 517.283 307.45 517.781 306.993C518.279 306.516 518.819 306.07 519.4 305.655C519.98 305.219 520.52 304.846 521.018 304.535C521.537 304.223 521.879 304.026 522.045 303.943C522.709 303.611 523.394 303.445 524.099 303.445C524.763 303.445 525.479 303.611 526.246 303.943C526.599 304.088 526.89 304.223 527.118 304.348C527.346 304.472 527.512 304.628 527.616 304.815C527.74 304.981 527.813 305.188 527.834 305.437C527.854 305.686 527.844 306.018 527.802 306.433C527.761 306.723 527.699 307.004 527.616 307.273C527.533 307.543 527.46 307.823 527.398 308.114C526.444 307.699 525.489 307.491 524.535 307.491C523.311 307.491 522.211 307.771 521.236 308.331C520.281 308.892 519.462 309.618 518.777 310.51C518.113 311.381 517.605 312.377 517.252 313.498C516.899 314.618 516.713 315.728 516.692 316.828C516.65 319.774 516.567 322.699 516.443 325.604C516.318 328.488 516.225 331.403 516.163 334.349C516.142 334.827 516.215 335.325 516.381 335.843C516.567 336.362 516.744 336.933 516.91 337.555C516.516 337.659 516.101 337.783 515.665 337.928C515.25 338.074 514.814 338.157 514.358 338.177H514.14C513.455 338.177 512.968 338.022 512.677 337.711C512.407 337.379 512.283 336.818 512.304 336.03C512.345 333.831 512.397 331.642 512.459 329.463C512.522 327.264 512.573 325.054 512.615 322.834C512.615 322.668 512.625 322.502 512.646 322.336C512.667 322.17 512.677 322.004 512.677 321.838C512.719 319.452 512.76 317.097 512.802 314.774C512.843 312.429 512.885 310.064 512.926 307.678C512.926 307.325 512.916 306.983 512.895 306.651C512.895 306.319 512.854 305.997 512.771 305.686C512.646 305.209 512.656 304.856 512.802 304.628C512.947 304.4 513.237 304.223 513.673 304.099C513.984 304.016 514.244 303.954 514.451 303.912C514.679 303.871 514.876 303.85 515.042 303.85C515.395 303.85 515.634 303.985 515.758 304.254C515.883 304.524 516.018 305.022 516.163 305.748C516.184 305.831 516.204 305.987 516.225 306.215C516.267 306.423 516.298 306.651 516.318 306.9C516.36 307.149 516.391 307.387 516.412 307.616C516.433 307.823 516.443 307.979 516.443 308.082C516.505 308.124 516.557 308.155 516.599 308.176C516.661 308.197 516.723 308.228 516.785 308.269Z" fill="#0033E6"/>
  <path d="M562.821 285.809C563.88 285.124 564.896 284.533 565.871 284.035C566.867 283.516 567.863 283.091 568.859 282.759C569.876 282.406 570.923 282.137 572.002 281.95C573.081 281.742 574.243 281.597 575.488 281.514H575.675C576.339 281.514 576.93 281.701 577.449 282.074C577.988 282.427 578.517 282.79 579.036 283.164C580.634 284.325 581.899 285.674 582.833 287.209C583.787 288.745 584.513 290.467 585.011 292.376C585.821 295.509 586.07 298.559 585.758 301.526C585.468 304.493 584.69 307.439 583.424 310.364C583.092 311.111 582.667 311.765 582.148 312.325C581.629 312.864 580.976 313.31 580.187 313.663C579.586 313.912 579.005 314.223 578.445 314.597C577.884 314.97 577.304 315.271 576.702 315.499C575.83 315.831 574.959 316.101 574.088 316.309C573.216 316.516 572.334 316.62 571.442 316.62C570.675 316.62 569.99 316.547 569.388 316.402C568.786 316.277 568.226 316.08 567.708 315.811C567.189 315.541 566.691 315.209 566.214 314.815C565.736 314.42 565.228 313.974 564.689 313.476C564.377 313.186 564.087 312.875 563.817 312.543C563.568 312.19 563.236 311.868 562.821 311.578C562.904 312.159 562.977 312.74 563.039 313.321C563.101 313.902 563.174 314.503 563.257 315.126C562.697 315.23 562.157 315.344 561.639 315.468C561.12 315.593 560.601 315.696 560.083 315.779C560.041 315.779 560 315.79 559.958 315.811C559.917 315.811 559.875 315.811 559.834 315.811C559.522 315.811 559.284 315.717 559.118 315.53C558.973 315.323 558.89 315.043 558.869 314.69C558.807 313.321 558.713 311.962 558.589 310.613C558.485 309.244 558.464 307.874 558.527 306.505C558.61 305.032 558.641 303.58 558.62 302.148C558.62 300.696 558.62 299.243 558.62 297.791C558.599 294.637 558.578 291.504 558.558 288.392C558.537 285.28 558.516 282.147 558.495 278.993C558.495 278.412 558.485 277.759 558.464 277.033C558.464 276.306 558.464 275.57 558.464 274.823C558.464 274.076 558.464 273.35 558.464 272.644C558.485 271.918 558.495 271.265 558.495 270.684C558.495 270.393 558.527 270.092 558.589 269.781C558.672 269.47 558.744 269.138 558.807 268.785C559.367 268.764 559.896 268.744 560.394 268.723C560.892 268.702 561.4 268.681 561.919 268.661C562.002 269.989 562.074 271.379 562.137 272.831C562.22 274.283 562.292 275.746 562.355 277.219C562.438 278.692 562.51 280.155 562.572 281.607C562.655 283.06 562.738 284.46 562.821 285.809ZM562.355 302.584C562.375 303.144 562.386 303.725 562.386 304.327C562.386 304.928 562.5 305.468 562.728 305.945C563.184 306.899 563.693 307.823 564.253 308.715C564.834 309.586 565.622 310.323 566.618 310.924C567.303 311.319 567.988 311.682 568.672 312.014C569.357 312.325 570.094 312.48 570.882 312.48C570.986 312.48 571.1 312.48 571.224 312.48C571.349 312.48 571.473 312.46 571.598 312.418C572.282 312.315 572.967 312.242 573.652 312.2C574.357 312.159 575.042 312.045 575.706 311.858C576.308 311.692 576.857 311.453 577.355 311.142C577.874 310.81 578.227 310.271 578.414 309.524C578.663 308.569 578.953 307.636 579.285 306.723C579.638 305.81 579.959 304.887 580.25 303.953C580.934 301.816 581.215 299.7 581.09 297.604C580.986 295.509 580.634 293.392 580.032 291.255C579.845 290.633 579.472 290.01 578.911 289.388C578.372 288.766 577.739 288.205 577.013 287.707C576.287 287.209 575.509 286.815 574.679 286.525C573.87 286.214 573.102 286.058 572.376 286.058C571.961 286.058 571.463 286.11 570.882 286.214C570.301 286.297 569.824 286.4 569.45 286.525C569.16 286.608 568.859 286.711 568.548 286.836C568.237 286.94 567.977 287.095 567.77 287.303C567.023 288.029 566.286 288.776 565.56 289.544C564.855 290.291 564.16 291.058 563.475 291.847C562.998 292.386 562.728 292.988 562.666 293.652C562.624 294.15 562.583 294.855 562.541 295.768C562.5 296.681 562.458 297.604 562.417 298.538C562.396 299.471 562.375 300.322 562.355 301.09C562.355 301.858 562.355 302.355 562.355 302.584Z" fill="#0033E6"/>
  <path d="M601.29 300.875C601.456 300.481 601.788 300.056 602.286 299.599C602.784 299.122 603.323 298.676 603.904 298.261C604.485 297.825 605.024 297.452 605.522 297.141C606.041 296.829 606.383 296.632 606.549 296.549C607.213 296.217 607.898 296.051 608.603 296.051C609.267 296.051 609.983 296.217 610.751 296.549C611.104 296.695 611.394 296.829 611.622 296.954C611.851 297.078 612.017 297.234 612.12 297.421C612.245 297.587 612.317 297.794 612.338 298.043C612.359 298.292 612.348 298.624 612.307 299.039C612.265 299.329 612.203 299.61 612.12 299.879C612.037 300.149 611.965 300.429 611.902 300.72C610.948 300.305 609.994 300.097 609.039 300.097C607.815 300.097 606.715 300.377 605.74 300.937C604.786 301.498 603.966 302.224 603.282 303.116C602.618 303.987 602.109 304.983 601.757 306.104C601.404 307.224 601.217 308.334 601.196 309.434C601.155 312.38 601.072 315.305 600.947 318.21C600.823 321.094 600.73 324.009 600.667 326.955C600.647 327.433 600.719 327.931 600.885 328.449C601.072 328.968 601.248 329.539 601.414 330.161C601.02 330.265 600.605 330.389 600.169 330.535C599.754 330.68 599.319 330.763 598.862 330.783H598.644C597.96 330.783 597.472 330.628 597.182 330.317C596.912 329.985 596.787 329.424 596.808 328.636C596.85 326.437 596.902 324.248 596.964 322.069C597.026 319.87 597.078 317.66 597.119 315.44C597.119 315.274 597.13 315.108 597.151 314.942C597.171 314.776 597.182 314.61 597.182 314.444C597.223 312.058 597.265 309.704 597.306 307.38C597.348 305.035 597.389 302.67 597.431 300.284C597.431 299.931 597.42 299.589 597.4 299.257C597.4 298.925 597.358 298.603 597.275 298.292C597.151 297.815 597.161 297.462 597.306 297.234C597.451 297.006 597.742 296.829 598.178 296.705C598.489 296.622 598.748 296.56 598.956 296.518C599.184 296.477 599.381 296.456 599.547 296.456C599.9 296.456 600.138 296.591 600.263 296.86C600.387 297.13 600.522 297.628 600.667 298.354C600.688 298.437 600.709 298.593 600.73 298.821C600.771 299.029 600.802 299.257 600.823 299.506C600.864 299.755 600.896 299.993 600.916 300.222C600.937 300.429 600.947 300.585 600.947 300.688C601.01 300.73 601.062 300.761 601.103 300.782C601.165 300.803 601.228 300.834 601.29 300.875Z" fill="#0033E6"/>
  <path d="M624.996 324.385C624.767 325.029 624.664 325.63 624.684 326.191C624.705 326.751 624.799 327.28 624.964 327.778C625.151 328.276 625.39 328.763 625.68 329.241C625.971 329.697 626.261 330.143 626.552 330.579C627.07 331.367 627.641 332.124 628.263 332.851C628.907 333.556 629.56 334.251 630.224 334.936C630.909 335.662 631.625 336.17 632.372 336.461C633.118 336.731 633.99 336.865 634.986 336.865C636.044 336.782 637.081 336.689 638.098 336.585C639.115 336.461 640.121 336.191 641.117 335.776C641.594 335.589 642.061 335.392 642.517 335.185C642.995 334.957 643.378 334.604 643.669 334.127C643.876 333.815 644.136 333.66 644.447 333.66C644.592 333.66 644.748 333.712 644.914 333.815C645.08 333.919 645.235 334.023 645.381 334.127C645.526 334.21 645.681 334.303 645.847 334.407C645.972 335.984 645.412 337.197 644.167 338.048C642.507 339.21 640.754 340.102 638.907 340.725C637.081 341.326 635.173 341.731 633.181 341.938C633.035 341.959 632.89 341.969 632.745 341.969C632.621 341.969 632.496 341.969 632.372 341.969C630.836 341.969 629.456 341.596 628.232 340.849C627.008 340.102 625.888 339.168 624.871 338.048C623.585 336.616 622.547 335.081 621.759 333.442C620.991 331.803 620.483 330.008 620.234 328.058C620.068 326.751 620.068 325.485 620.234 324.261C620.4 323.037 620.597 321.802 620.825 320.557C621.033 319.396 621.302 318.265 621.634 317.165C621.966 316.045 622.329 314.924 622.724 313.804C623.201 312.414 623.927 311.252 624.902 310.318C625.877 309.364 627.039 308.586 628.388 307.984C628.865 307.756 629.363 307.569 629.882 307.424C630.4 307.258 630.909 307.071 631.407 306.864C632.755 306.345 634.052 306.086 635.297 306.086C636.832 306.086 638.285 306.418 639.654 307.082C641.044 307.725 642.393 308.555 643.7 309.571C643.99 309.8 644.25 310.1 644.478 310.474C644.727 310.827 644.934 311.19 645.1 311.563C645.64 312.725 646.117 313.897 646.532 315.08C646.947 316.242 647.113 317.487 647.03 318.815C646.988 319.458 646.978 320.101 646.999 320.744C647.04 321.367 647.04 321.999 646.999 322.643C646.999 322.684 646.988 322.736 646.968 322.798C646.968 322.86 646.968 322.923 646.968 322.985C646.906 323.338 646.74 323.628 646.47 323.856C646.2 324.064 645.889 324.168 645.536 324.168C645.474 324.168 645.401 324.168 645.318 324.168C645.256 324.168 645.194 324.147 645.132 324.105C644.613 323.96 644.053 323.888 643.451 323.888C642.974 323.888 642.497 323.919 642.019 323.981C641.563 324.022 641.096 324.043 640.619 324.043H640.401C639.26 324.043 638.119 324.085 636.978 324.168C635.857 324.251 634.726 324.313 633.585 324.354C633.15 324.375 632.703 324.385 632.247 324.385C631.811 324.385 631.365 324.385 630.909 324.385H626.738H624.996ZM642.735 320.931C642.86 318.649 642.455 316.761 641.521 315.267C640.608 313.752 639.208 312.497 637.32 311.501C636.697 311.148 636.085 310.899 635.484 310.754C634.882 310.609 634.291 310.536 633.71 310.536C632.631 310.536 631.593 310.754 630.598 311.19C629.622 311.605 628.668 312.144 627.734 312.808C627.07 313.265 626.541 313.804 626.147 314.426C625.774 315.028 625.494 315.682 625.307 316.387C625.12 317.093 625.016 317.829 624.996 318.597C624.975 319.364 624.975 320.153 624.996 320.962C626.676 320.817 628.336 320.703 629.975 320.62C631.614 320.516 633.253 320.464 634.892 320.464C636.2 320.464 637.507 320.506 638.814 320.589C640.121 320.651 641.428 320.765 642.735 320.931Z" fill="#0033E6"/>
  <path d="M692.91 316.774C692.765 316.774 692.62 316.764 692.475 316.743C692.35 316.701 692.236 316.681 692.132 316.681C692.049 316.681 691.987 316.691 691.946 316.712C691.51 316.836 691.116 316.899 690.763 316.899C690.244 316.899 689.808 316.753 689.456 316.463C689.103 316.152 688.844 315.664 688.678 315C688.657 314.959 688.615 314.928 688.553 314.907C688.512 314.865 688.491 314.855 688.491 314.876C687.391 315.27 686.323 315.695 685.285 316.152C684.248 316.608 683.179 316.93 682.08 317.116C680.835 317.365 679.611 317.49 678.407 317.49C676.644 317.49 674.974 317.179 673.397 316.556C671.82 315.934 670.378 314.876 669.071 313.382C668.324 312.531 667.753 311.546 667.359 310.425C666.986 309.305 666.83 308.153 666.892 306.971C666.955 305.788 667.255 304.637 667.795 303.516C668.334 302.396 669.164 301.4 670.285 300.528C671.55 299.553 672.816 298.858 674.081 298.443C675.368 298.028 676.81 297.821 678.407 297.821C679.839 297.883 681.26 297.945 682.671 298.008C684.082 298.07 685.503 298.132 686.935 298.194C687.059 298.194 687.184 298.184 687.308 298.163C687.433 298.142 687.609 298.122 687.837 298.101C687.879 296.773 687.837 295.476 687.713 294.211C687.588 292.945 687.236 291.711 686.655 290.507C686.51 290.217 686.312 289.937 686.063 289.667C685.814 289.397 685.545 289.19 685.254 289.044C684.3 288.609 683.335 288.235 682.36 287.924C681.406 287.592 680.389 287.426 679.31 287.426C677.401 287.426 675.824 287.893 674.579 288.827C673.355 289.76 672.432 291.13 671.81 292.935C671.789 292.976 671.695 293.101 671.529 293.308C670.886 293.267 670.222 293.235 669.538 293.215C668.853 293.173 668.127 293.132 667.359 293.09C667.525 291.97 667.784 290.953 668.137 290.04C668.49 289.127 669.04 288.308 669.787 287.582C669.828 287.54 670.036 287.291 670.409 286.835C670.803 286.378 671.374 285.87 672.121 285.31C672.888 284.729 673.833 284.189 674.953 283.691C676.073 283.173 677.38 282.861 678.874 282.758C679.912 282.758 680.928 282.83 681.924 282.976C682.92 283.121 683.885 283.359 684.819 283.691C685.752 284.023 686.644 284.469 687.495 285.03C688.346 285.569 689.145 286.243 689.891 287.053C690.493 287.675 690.939 288.536 691.23 289.636C691.541 290.735 691.769 292.022 691.914 293.495C692.06 294.947 692.153 296.555 692.194 298.319C692.236 300.082 692.267 301.95 692.288 303.921C692.329 305.871 692.402 307.884 692.506 309.958C692.609 312.033 692.796 314.118 693.066 316.214C693.066 316.276 693.045 316.349 693.004 316.432C692.983 316.494 692.952 316.608 692.91 316.774ZM687.962 301.493C687.173 301.452 686.437 301.41 685.752 301.369C685.088 301.327 684.424 301.286 683.76 301.244C682.889 301.203 682.028 301.161 681.177 301.12C680.347 301.057 679.507 301.016 678.656 300.995C676.934 300.995 675.534 301.441 674.455 302.333C673.376 303.226 672.525 304.419 671.903 305.913C671.633 306.576 671.488 307.24 671.467 307.904C671.446 308.568 671.55 309.201 671.778 309.803C672.007 310.384 672.349 310.923 672.805 311.421C673.262 311.898 673.822 312.282 674.486 312.573C674.86 312.759 675.337 312.936 675.918 313.102C676.499 313.247 677.1 313.382 677.723 313.506C678.366 313.631 678.988 313.735 679.59 313.818C680.192 313.88 680.71 313.911 681.146 313.911C682.37 313.911 683.522 313.714 684.601 313.32C685.68 312.925 686.551 312.251 687.215 311.297C687.485 310.882 687.671 310.425 687.775 309.927C687.9 309.409 687.972 308.869 687.993 308.309C688.035 307.749 688.055 307.199 688.055 306.659C688.055 306.099 688.076 305.57 688.118 305.072C688.159 304.471 688.149 303.879 688.086 303.298C688.045 302.697 688.003 302.095 687.962 301.493Z" fill="#0033E6"/>
  <path d="M737.255 291.99C737.214 290.31 737.172 288.753 737.131 287.322C737.11 285.869 737.079 284.427 737.038 282.996C736.996 281.938 736.944 280.88 736.882 279.821C736.84 278.763 736.799 277.705 736.757 276.647C736.737 276.232 736.737 275.91 736.757 275.682C736.778 275.454 736.83 275.267 736.913 275.122C737.017 274.977 737.162 274.873 737.349 274.811C737.556 274.728 737.826 274.645 738.158 274.562C738.718 274.417 739.237 274.344 739.714 274.344C740.461 274.344 740.969 274.593 741.239 275.091C741.529 275.589 741.685 276.429 741.706 277.612C741.706 279.541 741.727 281.461 741.768 283.369C741.83 285.257 741.789 287.156 741.644 289.065C741.581 289.895 741.561 290.724 741.581 291.554C741.602 292.384 741.623 293.214 741.644 294.044C741.685 294.853 741.706 295.673 741.706 296.503C741.706 297.312 741.664 298.132 741.581 298.961C741.436 300.476 741.312 301.991 741.208 303.505C741.104 305.02 741.032 306.545 740.99 308.08C740.949 309.678 740.959 311.265 741.021 312.842C741.083 314.398 741.135 315.975 741.177 317.572V321.556C741.177 321.888 741.083 322.127 740.897 322.272C740.731 322.417 740.513 322.51 740.243 322.552C739.828 322.593 739.403 322.614 738.967 322.614C738.552 322.614 738.085 322.635 737.567 322.676C737.525 322.095 737.494 321.546 737.473 321.027C737.452 320.488 737.421 319.927 737.38 319.346C737.214 319.45 737.058 319.543 736.913 319.626C736.789 319.709 736.664 319.803 736.54 319.907C735.336 320.985 734.05 321.826 732.68 322.427C731.311 323.05 729.848 323.361 728.292 323.361C726.964 323.361 725.668 323.133 724.402 322.676C723.136 322.22 721.974 321.598 720.916 320.809C720.626 320.581 720.367 320.311 720.138 320C719.931 319.668 719.692 319.357 719.422 319.066C718.178 317.738 717.14 316.317 716.31 314.803C715.48 313.288 715.045 311.545 715.003 309.574C714.962 307.831 714.941 306.109 714.941 304.408C714.941 302.706 715.148 301.015 715.563 299.335C715.854 298.194 716.279 296.99 716.839 295.725C717.4 294.459 718.095 293.287 718.925 292.208C719.754 291.129 720.709 290.227 721.788 289.5C722.867 288.753 724.07 288.338 725.398 288.255C726.062 288.214 726.715 288.193 727.359 288.193C728.002 288.193 728.655 288.193 729.319 288.193C730.855 288.193 732.265 288.504 733.552 289.127C734.838 289.729 736.073 290.683 737.255 291.99ZM737.598 301.171C737.639 300.652 737.598 300.154 737.473 299.677C737.369 299.2 737.224 298.744 737.038 298.308C736.851 297.872 736.643 297.447 736.415 297.032C736.187 296.596 735.959 296.16 735.73 295.725C735.17 294.584 734.392 293.868 733.396 293.577C731.384 292.955 729.34 292.644 727.265 292.644C726.83 292.644 726.383 292.664 725.927 292.706C725.491 292.727 725.045 292.758 724.589 292.799C723.572 292.924 722.784 293.494 722.223 294.511C721.912 295.092 721.57 295.652 721.196 296.192C720.823 296.71 720.481 297.26 720.169 297.841C719.9 298.318 719.64 298.816 719.391 299.335C719.163 299.833 718.997 300.352 718.893 300.891C718.499 303.028 718.354 305.134 718.458 307.209C718.582 309.284 718.945 311.358 719.547 313.433C719.9 314.699 720.429 315.788 721.134 316.701C721.84 317.593 722.711 318.361 723.748 319.004C724.599 319.336 725.471 319.502 726.363 319.502C727.525 319.502 728.645 319.274 729.724 318.817C730.823 318.34 731.788 317.821 732.618 317.261C733.469 316.701 734.154 316.182 734.672 315.705C735.212 315.228 735.502 314.969 735.544 314.927C736.021 314.491 736.394 314.035 736.664 313.558C736.934 313.06 737.131 312.541 737.255 312.002C737.38 311.441 737.452 310.871 737.473 310.29C737.494 309.709 737.515 309.107 737.535 308.485C737.556 307.8 737.567 307.167 737.567 306.586C737.587 306.005 737.598 305.435 737.598 304.875C737.598 304.314 737.598 303.733 737.598 303.132C737.598 302.53 737.598 301.877 737.598 301.171Z" fill="#0033E6"/>
  <path d="M469.584 229.304C458.388 229.304 448.354 226.716 439.481 221.54C430.715 216.259 423.849 209.235 418.885 200.469C414.026 191.596 411.597 181.879 411.597 171.317C411.597 160.86 414.026 151.248 418.885 142.482C423.743 133.715 430.556 126.744 439.323 121.568C448.09 116.287 458.071 113.647 469.267 113.647C476.766 113.647 483.473 114.597 489.388 116.499C495.409 118.294 500.478 120.723 504.598 123.786C507.027 125.582 508.823 127.589 509.984 129.807C511.146 131.919 511.727 134.085 511.727 136.303C511.727 139.471 510.565 142.218 508.242 144.541C506.024 146.865 503.172 148.027 499.686 148.027C496.306 148.027 492.874 146.812 489.388 144.383C486.959 142.693 484.054 141.32 480.674 140.264C477.294 139.102 473.65 138.521 469.742 138.521C463.616 138.521 458.176 139.947 453.423 142.799C448.67 145.65 444.974 149.611 442.333 154.681C439.798 159.751 438.531 165.455 438.531 171.792C438.531 178.024 439.745 183.622 442.175 188.586C444.604 193.445 448.142 197.3 452.79 200.152C457.437 203.004 462.877 204.43 469.108 204.43C475.763 204.43 481.466 202.845 486.219 199.676C490.972 196.402 494.405 191.913 496.518 186.21H467.049C463.352 186.21 460.447 185.048 458.335 182.724C456.328 180.4 455.325 177.601 455.325 174.327C455.325 171.158 456.328 168.412 458.335 166.088C460.447 163.659 463.352 162.444 467.049 162.444H511.094C515.424 162.444 518.698 163.659 520.916 166.088C523.24 168.518 524.402 172.109 524.402 176.862C524.402 177.813 524.296 179.45 524.085 181.773C523.135 189.061 520.494 196.349 516.163 203.637C511.833 210.925 505.707 217.051 497.785 222.016C489.969 226.874 480.569 229.304 469.584 229.304ZM571.349 180.031H571.191C569.923 179.872 568.973 178.763 569.131 177.496L572.141 151.196C572.3 149.928 573.567 148.978 574.835 149.136C576.102 149.294 576.894 150.562 576.736 151.829L573.726 177.971C573.567 179.238 572.617 180.031 571.349 180.031ZM589.252 97.4864C588.935 97.4864 588.619 97.4864 588.619 97.4864C569.29 98.9123 540.138 135.986 531.741 169.732C527.938 185.576 526.988 206.964 545.208 218.213C550.594 221.382 555.823 223.125 560.893 223.125C570.24 223.125 579.113 217.896 587.51 207.44C606.522 183.833 616.186 141.214 611.592 120.301C606.997 99.0708 593.372 97.4864 589.252 97.4864ZM617.295 132.025C617.295 155.632 607.631 189.854 591.154 210.45C581.964 221.699 571.508 227.719 560.893 227.719C554.872 227.719 548.852 225.818 542.831 222.174C526.829 212.193 521.284 193.181 527.305 168.623C536.177 132.659 566.913 94.4762 588.143 92.8918C588.143 92.8918 588.619 92.8918 589.252 92.8918C592.738 92.8918 610.641 94.1593 616.028 119.35C616.82 122.994 617.295 127.272 617.295 132.025ZM654.744 180.031H654.585C653.318 179.872 652.367 178.763 652.526 177.496L655.536 151.196C655.694 149.928 656.962 148.978 658.229 149.136C659.497 149.294 660.289 150.562 660.131 151.829L657.12 177.971C656.962 179.238 656.011 180.031 654.744 180.031ZM672.647 97.4864C672.33 97.4864 672.013 97.4864 672.013 97.4864C652.684 98.9123 623.532 135.986 615.135 169.732C611.333 185.576 610.382 206.964 628.602 218.213C633.989 221.382 639.217 223.125 644.287 223.125C653.635 223.125 662.507 217.896 670.904 207.44C689.916 183.833 699.581 141.214 694.986 120.301C690.391 99.0708 676.766 97.4864 672.647 97.4864ZM700.69 132.025C700.69 155.632 691.025 189.854 674.548 210.45C665.359 221.699 654.902 227.719 644.287 227.719C638.267 227.719 632.246 225.818 626.226 222.174C610.224 212.193 604.679 193.181 610.699 168.623C619.571 132.659 650.308 94.4762 671.538 92.8918C671.538 92.8918 672.013 92.8918 672.647 92.8918C676.132 92.8918 694.035 94.1593 699.422 119.35C700.214 122.994 700.69 127.272 700.69 132.025ZM720.077 227.719C715.535 227.719 712.05 226.505 709.62 224.075C707.191 221.646 705.976 218.16 705.976 213.619V129.332C705.976 124.684 707.191 121.199 709.62 118.875C712.05 116.446 715.535 115.231 720.077 115.231H746.06C757.995 115.231 768.347 117.713 777.113 122.677C785.986 127.536 792.745 134.243 797.393 142.799C802.04 151.354 804.364 160.913 804.364 171.475C804.364 182.037 802.04 191.596 797.393 200.152C792.745 208.707 785.986 215.467 777.113 220.431C768.347 225.29 757.995 227.719 746.06 227.719H720.077ZM746.06 203.32C755.672 203.32 763.277 200.733 768.875 195.557C774.578 190.276 777.43 182.249 777.43 171.475C777.43 160.702 774.578 152.727 768.875 147.552C763.277 142.27 755.672 139.63 746.06 139.63H732.91V203.32H746.06Z" fill="#0033E6"/>
  <path d="M592.992 233.882C593.252 236.183 596.872 241.535 598.559 242.78C602.195 245.462 603.423 243.963 607.163 243.963C612.751 243.963 615.323 237.105 617.285 232.762" stroke="#0033E6" stroke-width="3.16868" stroke-linecap="round"/>
  <path d="M675.614 73.0212C677.331 74.9285 678.442 76.3873 680.785 77.8159C683.046 79.1945 686.132 80.1539 688.809 80.1539" stroke="#0033E6" stroke-width="3.16868" stroke-linecap="round"/>
  <path d="M588.245 71.596C587.088 71.596 585.936 72.4855 584.956 73.0225C583.031 74.0786 580.992 75.0393 578.933 75.7963C577.168 76.4455 575.147 76.9455 573.267 76.9455" stroke="#0033E6" stroke-width="3.16868" stroke-linecap="round"/>
  <path d="M689.92 516.539C689.133 517.711 687.935 518.825 687.753 520.158C687.753 524.564 670.595 525.052 666.39 526.418C658.101 529.11 643.937 526.548 635.275 525.928C619.176 524.774 602.661 524.924 586.512 524.269C572.935 523.717 559.194 523.24 545.643 522.873L545.459 522.868C533.105 522.534 517.708 522.117 506.22 518.424C497.392 515.585 494.952 510.004 493.423 503.718C491.157 494.405 492.701 484.109 492.701 474.684L492.701 456.81C492.701 450.908 491.184 443.741 494.094 438.07C496.255 433.859 498.396 430.065 501.576 426.192C504.379 422.778 510.618 419.759 514.786 417.293C520.548 413.885 528.723 412.42 535.014 409.526C539.409 407.504 543.681 405.984 548.946 405.453C565.759 403.759 582.601 403.837 599.515 403.379C613.9 402.99 627.908 403.034 642.344 403.757C652.587 404.269 662.316 405.056 671.137 409.073C680.097 413.153 685.643 420.997 690.591 427.55C700.003 440.016 706.329 453.722 706.329 468.047C706.329 477.003 706.557 485.859 702.459 494.442C698.894 501.912 694.687 509.437 689.92 516.539Z" fill="#0033E6"/>
  <path d="M624.356 408.043C627.715 408.302 630.571 409.694 633.269 411.138C639.513 414.479 646.015 417.6 651.191 421.967C654.028 424.362 665.046 436.524 660.005 439.854C657.481 441.521 646.803 437.587 644.629 436.948C636.676 434.611 629.983 431.72 624.748 426.533C618.691 420.532 615.514 414.573 606.924 410.081C604.442 408.783 599.504 405.302 601.048 409.892C604.467 420.056 609.194 428.53 617.207 436.91C622.733 442.689 613.636 445.497 607.561 442.91C594.34 437.28 593.761 429.029 589.491 419.628C586.954 414.042 582.211 411.123 576.76 407.364C574.274 405.65 574.997 408.921 574.997 410.081C574.997 413.449 574.318 417.214 575.879 420.42C577.039 422.805 583.573 434.951 579.845 437.25C572.594 441.72 559.656 429.71 559.181 424.76C558.645 419.188 559.505 413.673 560.013 408.194C560.54 402.513 565.415 402.609 571.471 402.609C587.946 402.609 604.6 405.326 620.831 405.326" stroke="#FFEED8" stroke-width="2.95037" stroke-linecap="round"/>
  <path d="M429.031 579.185C410.922 570.524 390.207 566.518 370.434 563.948C349.14 561.18 323.832 559.282 303.573 567.738C297.941 570.089 293.835 573.891 288.913 575.859" stroke="#0033E6" stroke-width="3.9375" stroke-linecap="round"/>
  <path d="M238.219 582.258C249.03 591.876 274.083 584.998 289.406 575.859M422.804 592.684C434.103 601.366 441.01 605.478 455.273 604.898C489.014 603.527 509.833 556.198 526.143 530.668C529.474 525.454 547.684 528.521 553.526 528.521C566.099 528.521 578.367 528.521 590.786 528.521C605.356 528.521 621.933 526.828 636.036 530.591C646.006 533.251 638.146 540.633 632.893 542.626C617.421 548.498 570.721 543.606 557.156 555.188C540.639 569.29 528.609 601.453 516.305 621.633" stroke="#0033E6" stroke-width="4.92188" stroke-linecap="round"/>
  <path d="M430.172 577.828C424.014 583.942 420.437 591.91 415.518 599.055C411.604 604.741 406.745 609.458 402.366 614.773C399.679 618.034 396.3 622.546 393.75 625.078" stroke="#0033E6" stroke-width="3.9375" stroke-linecap="round"/>
</svg>