<svg width="68" height="54" viewBox="0 0 68 54" fill="none" xmlns="http://www.w3.org/2000/svg">
<path d="M62.0793 26.7236C61.434 28.9747 60.6143 31.2713 59.6198 33.4755C58.5021 35.9525 55.7583 37.1493 52.8875 37.7855C50.6384 38.2838 48.2234 38.4551 46.2923 38.5921C45.7472 38.6308 45.2406 38.6667 44.7873 38.7065C42.0374 38.9478 39.279 39.3324 36.5176 39.7174C34.7991 39.957 33.0795 40.1968 31.36 40.4023C27.6159 40.8498 23.8304 41.3251 20.1021 41.8226L20.0515 41.8294L20.0215 41.8334C16.6402 42.2847 12.3638 42.8555 9.00098 42.3283C7.66668 42.1191 6.7328 41.6301 6.04043 40.9533C5.35501 40.2834 4.92854 39.4506 4.57237 38.5969C4.03589 37.311 3.76113 35.9207 3.56681 34.5379C3.48107 33.9278 3.41214 33.3315 3.34427 32.7444C3.25519 31.9738 3.16796 31.2192 3.04699 30.4704L2.24327 25.4952C2.17882 25.0963 2.08533 24.6779 1.98681 24.2373L1.98664 24.2365C1.88898 23.7998 1.78676 23.3426 1.71009 22.8817C1.55702 21.9618 1.49855 20.9899 1.79394 20.0602C2.19928 18.7845 2.62404 17.6069 3.3391 16.357C3.67668 15.7669 4.26167 15.1878 4.8643 14.6625C5.21382 14.3578 5.5985 14.0476 5.95523 13.7599C6.20202 13.5608 6.43544 13.3726 6.63458 13.2044C7.37987 12.5751 8.3114 12.0665 9.23104 11.5888C9.36562 11.5189 9.49988 11.4497 9.63346 11.3808C10.4254 10.9726 11.1929 10.5769 11.8566 10.1254C12.9879 9.35587 14.1257 8.72206 15.5944 8.32792C19.0907 7.38964 22.6425 6.74258 26.1884 6.09661C27.2547 5.90236 28.3204 5.70821 29.3839 5.50627C33.3153 4.75979 37.165 4.15038 41.1642 3.71125C43.9917 3.40078 46.754 3.17965 49.4224 3.92704C51.9996 4.64888 53.8657 6.47207 55.4382 8.00842C55.5364 8.10429 55.6334 8.19904 55.7293 8.29235C58.8985 11.3742 61.3017 14.9718 61.9617 19.0575C61.9827 19.1875 62.004 19.3178 62.0252 19.4482C62.4084 21.7984 62.8009 24.2062 62.0793 26.7236Z" fill="#0033E6" stroke="#FFEED8" stroke-width="0.677956" stroke-linecap="round"/>
<path d="M36.4646 6.03779C37.3966 5.96114 38.242 6.22218 39.046 6.50456C40.9077 7.15833 42.8299 7.73902 44.4445 8.72574C45.3298 9.26676 48.8961 12.1642 47.6643 13.3144C47.0476 13.8902 43.9444 13.2678 43.32 13.1863C41.0355 12.8879 39.0713 12.3794 37.4034 11.1673C35.4735 9.76489 34.3348 8.24676 31.7789 7.37674C31.0404 7.12534 29.5305 6.37508 30.1601 7.58436C31.5543 10.2622 33.2305 12.4116 35.8034 14.3897C37.5775 15.7537 35.211 16.9382 33.4296 16.4869C29.5534 15.505 29.0239 13.2339 27.4309 10.806C26.4844 9.36328 25.0534 8.76078 23.3904 7.95584C22.6321 7.58877 22.9774 8.46725 23.0295 8.79016C23.181 9.72777 23.1643 10.8059 23.736 11.6292C24.1612 12.2415 26.4981 15.3335 25.5798 16.1383C23.7938 17.7036 19.7082 14.9333 19.3552 13.5764C18.9578 12.049 18.9456 10.4759 18.8384 8.92832C18.7272 7.3237 20.0677 7.1346 21.7274 6.86648C26.2421 6.13715 30.9281 6.15616 35.3762 5.43759" stroke="#FFEED8" stroke-width="0.819017" stroke-linecap="round"/>
</svg>
