<svg width="144" height="202" viewBox="0 0 144 202" fill="none" xmlns="http://www.w3.org/2000/svg">
<path d="M67.9441 95.17C79.4998 109.909 89.8772 125.493 102.014 139.758C102.766 140.491 102.795 140.187 103.556 141.157C104.353 142.175 104.842 143.365 105.601 144.332C108.341 147.827 107.818 152.476 111.37 155.534C112.204 156.252 114.212 158.087 115.286 158.103C117.105 158.131 116.59 158.837 116.695 157.097C116.816 155.109 116.279 152.514 115.997 150.505C115.686 148.292 115.998 146.511 115.983 144.314C115.962 141.164 115.817 138.004 115.378 134.816C114.814 130.723 115.006 126.644 113.895 122.594C111.257 112.97 106.045 103.922 101.324 95.2199C98.3251 89.6928 94.4053 84.4782 90.7036 79.4383C86.8815 74.2343 83.0562 69.086 79.0755 64.0089C74.4399 58.0965 69.748 52.1169 64.4976 46.8018C60.3896 42.6431 56.86 37.7897 52.777 33.5854C49.5145 30.2259 46.4942 26.9895 43.5897 23.285C40.9728 19.9474 39.6457 14.8323 36.0841 12.2947C34.6409 11.2664 33.5533 12.3525 32.2205 12.7533C31.6672 12.9196 32.908 15.9873 32.9898 16.5693C33.5255 20.381 34.3165 24.0337 33.3123 27.7533C33.0108 28.8702 33.0286 30.9888 33.0429 32.1975C33.0716 34.6392 33.4017 37.1843 34.2958 39.4968C35.4053 42.3664 36.6338 45.1302 37.6703 48.0217C40.2437 55.2003 45.0774 61.2077 48.8337 67.6776C54.3289 77.1427 61.2205 86.5945 67.9441 95.17Z" fill="#FFEED8" stroke="#0038FF" stroke-width="1.2851" stroke-linecap="round"/>
<path d="M88.7167 99.6556C89.4635 104.37 89.1787 108.831 88.8012 112.869C87.9087 112.419 86.3659 105.033 86.0214 103.518C84.771 98.0206 82.9349 92.4447 81.6608 86.9547C81.5888 86.6442 80.1784 80.1977 81.7351 82.3465C83.7377 85.1109 85.2183 89.2694 86.5209 92.5492C87.4714 94.9424 88.3402 97.2793 88.7167 99.6556Z" fill="#FFEED8"/>
<path d="M88.6273 114.667C89.0692 110.172 89.5762 105.081 88.7167 99.6556C88.3402 97.2793 87.4714 94.9424 86.5209 92.5492C85.2183 89.2694 83.7377 85.1109 81.7351 82.3465C80.1784 80.1977 81.5888 86.6442 81.6608 86.9547C82.9349 92.4447 84.771 98.0206 86.0214 103.518C86.3663 105.035 87.9118 112.434 88.8039 112.87" stroke="#0038FF" stroke-width="1.2851" stroke-linecap="round"/>
<path d="M95.8334 116.264C95.1638 111.277 96.0516 106.136 97.0384 101.433C98.3623 101.559 99.9829 109.215 100.358 110.774C101.721 116.429 103.975 121.923 105.375 127.56C105.454 127.878 106.966 134.533 104.795 132.776C102.002 130.516 100.151 126.466 98.4841 123.328C97.2677 121.039 96.171 118.778 95.8334 116.264Z" fill="#FFEED8"/>
<path d="M97.487 99.3351C96.355 104.581 95.0628 110.525 95.8334 116.264C96.171 118.778 97.2677 121.039 98.4841 123.328C100.151 126.466 102.002 130.516 104.795 132.776C106.966 134.533 105.454 127.878 105.375 127.56C103.975 121.923 101.721 116.429 100.358 110.774C99.9825 109.214 98.359 101.544 97.0344 101.432" stroke="#0038FF" stroke-width="1.2851" stroke-linecap="round"/>
<path d="M74.4626 87.5204C75.1769 86.7486 74.3842 83.3718 74.2325 82.2769C73.7789 79.0024 73.1777 75.7621 72.2624 72.5127C71.4798 69.7344 70.2549 67.3279 68.5548 64.9417C67.734 63.7896 65.9477 61.3381 64.553 61.872C62.7648 62.5566 62.8011 65.4368 63.2962 67.3441C64.1041 70.4564 66.1753 73.397 67.8867 76.1341C69.9604 79.4508 71.6411 83.0077 73.7162 86.3266" stroke="#0038FF" stroke-width="1.2851" stroke-linecap="round"/>
<path d="M54.8837 59.2465C55.5032 58.7136 53.3178 54.1354 53.0463 53.2183C52.1157 50.0748 51.9297 46.9468 51.1418 43.8005C50.8229 42.5269 48.7365 37.9408 47.0427 38.2824C45.5941 38.5745 45.4918 40.5512 45.8469 41.9452C47.3279 47.7602 52.4215 52.357 54.1373 58.0527" stroke="#0038FF" stroke-width="1.2851" stroke-linecap="round"/>
<path d="M83.2029 121.724C93.7291 136.259 105.346 149.932 115.282 164.878C115.759 165.764 115.471 165.71 116.164 166.667C116.891 167.671 117.858 168.435 118.549 169.389C121.045 172.836 125.465 173.581 127.344 177.66C127.785 178.618 128.946 180.952 128.677 181.946C128.223 183.628 129.009 183.34 127.379 182.978C125.516 182.565 123.267 181.385 121.491 180.595C119.534 179.724 117.812 179.542 115.791 178.948C112.896 178.097 110.023 177.129 107.202 175.883C103.581 174.284 99.773 173.383 96.3349 171.291C88.1663 166.321 81.2075 159.131 74.4378 152.485C70.138 148.264 66.3693 143.277 62.7039 138.537C58.9191 133.642 55.1865 128.76 51.5604 123.753C47.3378 117.922 43.0681 112.022 39.558 105.782C36.8116 100.9 33.2725 96.3679 30.4775 91.4971C28.2441 87.6051 26.0601 83.9686 23.4144 80.3153C21.0307 77.0237 16.6692 74.4511 15.2718 70.5005C14.7056 68.8996 15.9931 68.1844 16.7141 67.0625C17.0134 66.5967 19.5116 68.5494 20.0262 68.7784C23.3959 70.278 26.5518 71.9709 30.2432 72.0277C31.3516 72.0448 33.2985 72.6204 34.4081 72.9526C36.6497 73.6236 38.907 74.5994 40.8012 76.0335C43.1516 77.8129 45.3732 79.6741 47.7631 81.3922C53.6965 85.6575 57.9543 91.6959 62.9226 96.8638C70.1908 104.424 77.0783 113.267 83.2029 121.724Z" fill="#FFEED8" stroke="#0038FF" stroke-width="1.23142" stroke-linecap="round"/>
<path d="M81.8515 142.043C85.9966 143.975 90.1818 144.891 94.0006 145.609C93.8222 144.668 87.4256 141.297 86.121 140.58C81.3869 137.977 76.7353 134.814 72.0145 132.191C71.7475 132.043 66.1816 129.042 67.7501 131.043C69.7679 133.617 73.2077 136.079 75.8851 138.145C77.8387 139.652 79.7619 141.069 81.8515 142.043Z" fill="#FFEED8"/>
<path d="M95.7031 145.923C91.4459 145.144 86.6222 144.267 81.8515 142.043C79.7619 141.069 77.8387 139.652 75.8851 138.145C73.2077 136.079 69.7679 133.617 67.7501 131.043C66.1816 129.042 71.7475 132.043 72.0145 132.191C76.7353 134.814 81.3869 137.977 86.121 140.58C87.4269 141.298 93.8351 144.675 94.0011 145.612" stroke="#0038FF" stroke-width="1.23142" stroke-linecap="round"/>
<path d="M95.2721 152.983C90.855 151.05 85.8847 150.51 81.2917 150.178C81.059 151.431 87.6836 154.944 89.02 155.702C93.8694 158.45 98.3357 161.976 103.158 164.753C103.431 164.91 109.162 168.06 108.117 165.597C106.772 162.427 103.529 159.653 101.079 157.289C99.2916 155.564 97.4988 153.957 95.2721 152.983Z" fill="#FFEED8"/>
<path d="M79.2413 150.037C84.3719 150.379 90.1884 150.758 95.2721 152.983C97.4988 153.957 99.2916 155.564 101.079 157.289C103.529 159.653 106.772 162.427 108.117 165.597C109.162 168.06 103.431 164.91 103.158 164.753C98.3357 161.976 93.8694 158.45 89.02 155.702C87.6822 154.944 81.0456 151.424 81.2925 150.174" stroke="#0038FF" stroke-width="1.23142" stroke-linecap="round"/>
<path d="M74.4356 125.71C73.5361 126.164 70.6348 124.542 69.6663 124.114C66.7697 122.832 63.9436 121.422 61.192 119.722C58.8394 118.267 56.9459 116.504 55.1966 114.308C54.352 113.248 52.5653 110.955 53.4253 109.811C54.5279 108.345 57.1715 109.138 58.7976 110.098C61.4514 111.664 63.6133 114.348 65.6829 116.647C68.1907 119.432 71.0235 121.92 73.533 124.707" stroke="#0038FF" stroke-width="1.23142" stroke-linecap="round"/>
<path d="M53.5591 100.211C52.9048 100.641 49.2644 97.4196 48.4913 96.9274C45.8413 95.2404 43.009 94.2434 40.3187 92.6871C39.2298 92.0572 35.556 88.9248 36.3177 87.4547C36.9692 86.1973 38.817 86.6249 40.0074 87.3199C44.973 90.2191 47.8628 96.1246 52.6565 99.2085" stroke="#0038FF" stroke-width="1.23142" stroke-linecap="round"/>
</svg>
