<svg width="76" height="65" viewBox="0 0 76 65" fill="none" xmlns="http://www.w3.org/2000/svg">
<path d="M18.4341 7.64242C18.9925 7.47493 20.2812 6.89951 20.8412 7.12531C22.3948 6.91218 25.2661 7.88028 26.1775 7.98411C27.6489 8.15176 29.3474 7.60265 30.8171 7.92461C31.9765 8.17858 33.1256 8.3094 34.2301 8.82518C35.7876 9.55247 37.187 10.5298 38.6701 11.3649C38.9376 11.5155 40.6027 12.5398 40.4169 12.9362C40.1719 13.4585 39.7626 13.8706 39.2254 14.1078C38.9284 14.2389 38.2696 14.5741 37.9486 14.7372C38.5025 14.5117 39.3268 14.712 39.884 14.5764C40.6748 14.3838 41.9227 14.8673 42.6285 15.1081C43.6014 15.4401 44.5512 15.8524 45.526 16.1691C46.7825 16.5772 53.6071 19.7229 51.9796 21.6063C51.4452 22.2248 51.7955 21.9983 52.4445 22.0932C53.1286 22.1932 53.7801 22.5063 54.488 22.5278C56.3671 22.5847 58.3845 22.769 60.0845 23.6843C61.7275 24.569 63.2258 25.6166 64.8149 26.5469C66.1566 27.3324 66.9556 28.5716 67.6977 29.9124C69.1566 32.5484 70.8345 35.214 69.249 38.1583C68.5406 39.474 67.5789 40.6743 66.8655 41.9992C66.5965 42.4988 66.3106 42.9672 66.1707 43.5171C66.1207 43.7141 65.6501 44.7881 66.0892 44.3842C66.3029 44.1878 66.4866 44.1091 66.7432 43.9831C67.846 43.4414 68.1038 45.263 67.707 45.9999C66.5096 48.2235 65.3402 50.5876 63.9047 52.7033C62.4464 54.8525 61.0687 57.1567 59.8355 59.4468C59.2864 60.4664 59.1836 60.9963 59.2107 62.0711C59.217 62.3212 59.4262 62.3879 59.0686 62.3187C58.5465 62.2177 58.0187 61.9432 57.4859 61.9395C56.5396 61.9328 55.5518 61.6424 54.5952 61.5654C53.7691 61.499 52.7467 61.071 51.9776 60.749L51.9563 60.7401C50.4921 60.1272 49.1099 59.3112 47.6646 58.6569C46.74 58.2383 45.3627 57.8566 44.6156 57.129C43.283 55.8309 41.0309 55.1817 39.4595 54.081C35.9621 51.6311 32.1877 49.4742 28.9237 46.7084C26.6744 44.8024 24.6584 42.6407 22.5354 40.5968C20.785 38.9116 18.7893 37.5199 16.801 36.1337C14.9625 34.852 13.1256 33.5706 11.286 32.2881C9.99706 31.3895 8.55697 30.715 7.32972 29.7285C6.42227 28.9991 5.59548 28.3887 5.26121 27.2745C5.00191 26.4101 5.28664 25.2189 5.67808 24.4506C5.98256 23.853 6.28513 23.1624 6.7531 22.6819C7.13803 22.2868 7.76045 21.7547 8.02087 21.2711C8.49869 20.3837 8.44202 19.6105 8.93763 18.6901C9.50682 17.6331 10.186 16.6646 10.7565 15.6051C11.1844 14.8105 11.4839 13.9614 11.9031 13.183C12.3325 12.3855 11.7938 11.3362 12.2285 10.5289C12.9416 9.20475 13.663 8.66378 15.1245 8.22534C16.2001 7.90268 17.3588 7.965 18.4341 7.64242Z" fill="#0038FF" stroke="#FFEED8" stroke-width="0.405475" stroke-linecap="round"/>
<path d="M10.0783 20.7976C11.8578 20.8179 13.7882 20.9991 15.354 20.0082C16.2686 19.4293 17.0037 18.7069 17.7999 17.9904C18.4331 17.4206 19.074 16.9384 19.8973 16.681C20.8161 16.3936 21.7439 16.1963 22.6472 15.8522C23.4329 15.5529 24.2289 15.2811 25.0191 14.9938C25.9277 14.6635 26.7914 14.2045 27.7237 13.9553C27.9691 13.8897 28.2136 13.8439 28.467 13.8516C29.4542 13.8815 30.4469 14.016 31.4315 14.0981C32.0982 14.1537 32.7588 14.266 33.4232 14.3403C33.8308 14.3859 34.2473 14.3588 34.6565 14.3594C35.0056 14.3599 35.1587 14.21 35.4325 14.0551C35.5052 14.014 35.8085 13.7777 35.7622 13.6688C35.7243 13.5796 35.6116 13.5064 35.541 13.4377C35.2108 13.116 34.8041 12.8842 34.4061 12.6586C33.7086 12.2632 32.9955 11.8933 32.2694 11.5524C31.5444 11.212 30.776 11.0411 29.9899 10.9158C29.2802 10.8028 28.5168 10.8732 27.8114 10.9844C27.2673 11.0703 26.7213 11.1522 26.1996 11.3349C25.6797 11.517 25.0863 11.7443 24.7167 12.1739C24.1183 12.8693 23.526 13.5955 22.8496 14.2176C22.1926 14.8218 21.4417 15.3177 20.7785 15.9158C20.4867 16.179 19.9725 16.3655 19.7868 16.7103" stroke="#FFEED8" stroke-width="0.365702" stroke-linecap="round"/>
<path d="M23.9776 22.5467C25.5041 22.2757 27.0826 22.3544 28.6248 22.2646C29.7955 22.1965 30.9174 22.0819 32.0547 21.7905C32.944 21.5626 33.7806 21.2018 34.6403 20.8868C36.1874 20.3199 37.7756 20.0758 39.4172 20.0161C40.8719 19.9632 42.3088 20.1184 43.7551 20.251C44.7576 20.343 45.762 20.3105 46.7651 20.4024C47.1698 20.4394 47.5852 20.4956 47.992 20.4799C48.1569 20.4735 48.3792 20.456 48.4937 20.3156C48.7561 19.9938 48.5216 19.7174 48.2875 19.4398C47.4493 18.4459 46.2073 17.8416 45.0623 17.2783C44.0973 16.8036 43.0765 16.474 42.0141 16.3051C40.7993 16.1119 39.5167 16.163 38.2963 16.2882C36.8336 16.4383 35.2879 16.6881 33.911 17.2172C33.1831 17.4969 32.5486 17.88 31.9336 18.3576C31.319 18.8349 30.7005 19.2938 30.1253 19.8189C29.5062 20.3839 28.927 20.9382 28.1966 21.3601C27.5013 21.7617 26.7769 22.2134 25.9695 22.3332C25.6138 22.386 25.226 22.3745 24.8683 22.3485C24.6844 22.3352 24.4944 22.3419 24.3134 22.3104" stroke="#FFEED8" stroke-width="0.365702" stroke-linecap="round"/>
<path d="M23.4961 23.9563C22.6874 23.5208 21.605 24.0959 20.9948 24.6389C20.1947 25.3507 19.9879 26.307 20.0617 27.3399C20.0937 27.7868 20.1336 28.3575 20.4384 28.7168C20.8994 29.2602 21.8006 29.4912 22.433 29.7174C23.4912 30.096 24.6724 30.3136 25.7921 30.1205C26.8612 29.9361 27.8468 29.4746 28.7388 28.8725C30.2942 27.8227 31.8499 26.751 33.6179 26.0872C35.1006 25.5305 36.6766 25.1961 38.23 24.9057C39.8704 24.5991 41.5155 24.4583 43.1795 24.3635C44.1476 24.3084 45.1055 24.3105 46.0738 24.3174C46.3536 24.3193 46.6515 24.34 46.9132 24.2287C47.2305 24.0938 47.5818 23.9986 47.739 23.6634C47.968 23.175 47.6977 22.7222 47.2204 22.5501C46.4184 22.2607 45.5247 22.1016 44.6888 21.9515C44.1709 21.8585 43.6489 21.8095 43.1251 21.7641C42.5469 21.714 41.9597 21.6511 41.3787 21.6868C40.4203 21.7457 39.4667 21.9261 38.5568 22.2296C37.8491 22.4657 37.1638 22.7625 36.4616 23.015C34.8902 23.5803 33.1721 23.8124 31.5113 23.9102C29.971 24.0008 28.4101 24.0033 26.8675 23.9565C25.7719 23.9233 24.6825 23.8888 23.5972 23.7327C23.3534 23.6976 23.1106 23.6442 22.8731 23.5783C22.8442 23.5703 22.718 23.5219 22.6905 23.5302C22.6771 23.5342 22.8143 23.7282 22.8453 23.7449" stroke="#FFEED8" stroke-width="0.365702" stroke-linecap="round"/>
<path d="M25.4254 39.3504C26.0096 39.3681 26.5549 39.2851 27.1054 39.0848C27.6597 38.8832 28.19 38.6039 28.712 38.3318C29.2946 38.0281 29.8805 37.7249 30.4446 37.3878C31.0997 36.9963 31.7479 36.5812 32.3602 36.1253C33.0021 35.6474 33.5661 35.0927 34.1411 34.5392C35.1818 33.5378 36.3971 32.7418 37.5082 31.8222C38.2581 31.2015 39.0552 30.6559 39.8763 30.1353C40.5401 29.7145 41.0889 29.1494 41.7478 28.7254C42.3062 28.366 42.9155 28.0646 43.5738 27.9592C44.5767 27.7987 45.5584 27.9836 46.5511 28.1354C47.7467 28.3183 48.9401 28.5631 50.149 28.6438C51.109 28.708 52.0679 28.729 53.028 28.8019C54.1844 28.8896 55.3258 29.0797 56.4159 29.485C57.0628 29.7255 57.7532 30.0021 58.1797 30.5737C58.5784 31.1081 58.5888 31.8396 58.4933 32.4728C58.3851 33.1902 58.1281 33.7791 57.6884 34.3585C57.1856 35.0209 56.589 35.5741 55.8986 36.0363C55.4968 36.3053 55.0769 36.5712 54.6087 36.7069C53.8719 36.9204 53.0891 36.7587 52.3581 36.5976C51.0106 36.3007 49.7628 35.6867 48.4312 35.3482C47.4724 35.1044 46.5033 35.2721 45.5364 35.338C44.8839 35.3825 44.2329 35.4023 43.5844 35.4919C42.945 35.5801 42.3127 35.7079 41.6747 35.8037C40.4172 35.9923 39.147 36.0543 37.8782 35.9761C36.0466 35.8633 34.2679 36.0111 32.629 36.8957C32.174 37.1412 31.7172 37.3896 31.2218 37.5437C30.7882 37.6786 30.3585 37.7942 29.9205 37.9128C29.4703 38.0347 29.0388 38.2493 28.6052 38.4191C28.188 38.5824 27.771 38.7521 27.3512 38.9082C27.0168 39.0325 26.6779 39.1938 26.3264 39.262C26.2036 39.2859 26.0394 39.3392 25.9189 39.3052C25.8101 39.2745 25.5007 39.2786 25.784 39.2654" stroke="#FFEED8" stroke-width="0.365702" stroke-linecap="round"/>
<path d="M35.9743 41.5986C36.1246 41.6241 36.2708 41.6107 36.4183 41.6049C37.0595 41.5793 37.7038 41.5673 38.3474 41.5523C40.9183 41.4924 43.5207 41.5325 46.0618 41.3539C47.0128 41.287 47.9755 41.2453 48.9167 41.1495C49.9752 41.0419 51.0069 40.8657 52.0533 40.7291C52.9377 40.6136 53.8354 40.5319 54.728 40.4373C55.6237 40.3423 56.509 40.2122 57.4151 40.1459C58.5887 40.06 59.9961 40.0384 61.1887 40.3334C61.8737 40.5028 62.4416 40.8429 62.5937 41.3526C62.6626 41.5833 62.5186 41.8266 62.3818 42.0133C62.0556 42.4584 61.4811 42.8914 60.8986 43.1674C59.2138 43.9657 57.0478 44.1229 54.935 43.997C53.9009 43.9354 52.869 43.7756 51.8359 43.6651C50.9311 43.5683 50.0266 43.508 49.1217 43.4225C47.0449 43.2263 44.9942 42.8814 42.9245 42.6054C41.3261 42.3922 39.7358 42.2359 38.1448 41.9663C37.3682 41.8348 36.556 41.7282 35.7942 41.5991" stroke="#FFEED8" stroke-width="0.365702" stroke-linecap="round"/>
<path d="M35.1907 46.0999C35.269 46.1421 35.3597 46.1483 35.4484 46.1615C35.8338 46.2187 36.2158 46.2888 36.5986 46.356C38.1276 46.6245 39.6369 46.9884 41.1937 47.1446C41.7763 47.203 42.3562 47.2859 42.9442 47.3167C43.6054 47.3514 44.277 47.32 44.9422 47.3267C45.5043 47.3323 46.0614 47.3705 46.6205 47.3962C47.1814 47.422 47.7497 47.4143 48.3059 47.4676C49.0262 47.5367 49.8589 47.6939 50.445 48.1136C50.7817 48.3546 50.9845 48.737 50.8792 49.2221C50.8315 49.4417 50.6543 49.6461 50.5029 49.7996C50.142 50.1655 49.6401 50.4892 49.1936 50.6683C47.9019 51.1864 46.573 51.0578 45.3833 50.6769C44.801 50.4905 44.2574 50.2148 43.6944 49.9838C43.2012 49.7815 42.6944 49.6127 42.1969 49.4207C41.0551 48.9802 39.9853 48.4069 38.8781 47.8944C38.0231 47.4985 37.1511 47.1556 36.3219 46.709C35.9171 46.4911 35.482 46.2915 35.085 46.0778" stroke="#FFEED8" stroke-width="0.365702" stroke-linecap="round"/>
</svg>
